<svg xmlns="http://www.w3.org/2000/svg" viewBox="0 0 233 219"><style type="text/css">  
	.Arched_x0020_Green{fill:url(#SVGID_1_);stroke:#FFFFFF;stroke-width:0.25;stroke-miterlimit:1;}
	.st0{fill:#231F20;}
</style><linearGradient gradientUnits="userSpaceOnUse" x1="-204.5" y1="546.5" x2="-203.8" y2="545.8"><stop offset="0" stop-color="#1EAB4B"/><stop offset="0.9831" stop-color="#19361A"/></linearGradient><path class="st0" d="M115.2 135c-17.8 0-32.1-14.5-32.1-32.3 0-17.8 14.4-32.3 32.1-32.3 17.8 0 32.2 14.5 32.2 32.3C147.4 120.6 133 135 115.2 135zM69.8 105.5C69.8 91.4 58.4 80 44.4 80 30.4 80 19 91.4 19 105.5c0 14.1 11.4 25.5 25.4 25.5C58.4 131 69.8 119.6 69.8 105.5zM213.2 105.5c0-14.1-11.4-25.5-25.4-25.5 -14 0-25.4 11.4-25.4 25.5 0 14.1 11.4 25.5 25.4 25.5C201.8 131 213.2 119.6 213.2 105.5zM115.7 143.3c-21.7 0-32.8 4.5-42.1 10.2 -11.4 6.9-13.6 19.1-13.1 25.4 0.3 3.8 1.8 10.3 3 24 1.3 13.6 12.3 14.9 19.1 15.4 6.8 0.5 23.4 0.5 34.2 0.5s31.1 1 40.2-1.3c9-2.3 10.3-9.8 11.1-14.9 0.8-5 0.8-12.1 2.5-21.2 1.8-9.1-1.5-17.7-8.3-24.5C155.4 150.2 137.4 143.3 115.7 143.3zM187.6 139c-15.8 0-24.5 3-31.5 7 0 0 6.7 4 9.7 6.5 3.4 2.8 8.4 9.6 9.9 16.1 1.7 7.2 0.7 14.1 0.3 16.8 -0.3 2.7-1.7 13.2-1.7 13.2 4.8 0 10 0 14.1 0 8.5 0 24.6 0.8 31.8-1 7.2-1.8 8.1-7.8 8.7-11.8 0.6-4 0.6-9.6 2-16.8 1.4-7.2-1.2-14-6.6-19.4C219 144.4 204.7 139 187.6 139zM55.6 168.7c1.5-6.5 6.5-13.3 9.9-16.1 3-2.5 9.7-6.5 9.7-6.5 -7-4-15.7-7-31.5-7 -17.2 0-31.4 5.4-36.8 10.8C1.6 155.2-1 162 0.4 169.2c1.4 7.2 1.4 12.8 2 16.8 0.6 4 1.6 10 8.7 11.8 7.2 1.8 23.2 1 31.8 1 4.1 0 9.3 0 14.1 0 0 0-1.3-10.5-1.7-13.2C55 182.8 54 175.9 55.6 168.7zM116.5 0C52.2 0 0 55.1 0 123c0 2.7 0.1 5.4 0.3 8C4.2 66.9 54.7 16.1 116.5 16.1c61.8 0 112.3 50.8 116.2 114.9 0.2-2.7 0.3-5.3 0.3-8C233 55.1 180.8 0 116.5 0z"/></svg>