<?xml version="1.0" encoding="utf-8"?>
<!-- Generator: Adobe Illustrator 20.0.0, SVG Export Plug-In . SVG Version: 6.00 Build 0)  -->
<svg version="1.1" id="USA" xmlns="http://www.w3.org/2000/svg" xmlns:xlink="http://www.w3.org/1999/xlink" x="0px" y="0px"
	 viewBox="0 0 154 88" style="enable-background:new 0 0 154 88;" xml:space="preserve">
<style type="text/css">
	.st0{fill:url(#SVGID_1_);}
	.st1{fill:url(#SVGID_2_);}
	.st2{fill:url(#SVGID_3_);}
	.st3{fill:url(#SVGID_4_);}
</style>
<g>
	<linearGradient id="SVGID_1_" gradientUnits="userSpaceOnUse" x1="0" y1="44" x2="154" y2="44">
		<stop  offset="0" style="stop-color:#DEDFE0"/>
		<stop  offset="0.2061" style="stop-color:#FFFFFF"/>
		<stop  offset="0.4727" style="stop-color:#F3F4F4"/>
		<stop  offset="1" style="stop-color:#A5A7AA"/>
	</linearGradient>
	<rect class="st0" width="154" height="88"/>
	<linearGradient id="SVGID_2_" gradientUnits="userSpaceOnUse" x1="0" y1="44" x2="154" y2="44">
		<stop  offset="0" style="stop-color:#C8161D"/>
		<stop  offset="0.2061" style="stop-color:#F89D6B"/>
		<stop  offset="0.4727" style="stop-color:#DF1A22"/>
		<stop  offset="1" style="stop-color:#9B0F12"/>
	</linearGradient>
	<path class="st1" d="M0,60.9h154v-6.8H0V60.9z M0,88h154v-6.8H0V88z M0,74.5h154v-6.8H0V74.5z M0,47.4h154v-6.8H0V47.4z M0,20.3
		h154v-6.8H0V20.3z M0,0v6.8h154V0H0z M0,33.8h154v-6.8H0V33.8z"/>
	<linearGradient id="SVGID_3_" gradientUnits="userSpaceOnUse" x1="0" y1="23.6562" x2="66.9101" y2="23.6562">
		<stop  offset="4.848480e-02" style="stop-color:#202D7F"/>
		<stop  offset="0.4788" style="stop-color:#78B0DF"/>
		<stop  offset="1" style="stop-color:#233E99"/>
	</linearGradient>
	<rect class="st2" width="66.9" height="47.3"/>
	<linearGradient id="SVGID_4_" gradientUnits="userSpaceOnUse" x1="2.2988" y1="23.0078" x2="63.8603" y2="23.0078">
		<stop  offset="0" style="stop-color:#DEDFE0"/>
		<stop  offset="0.4727" style="stop-color:#FFFFFF"/>
		<stop  offset="1" style="stop-color:#F1F2F2"/>
	</linearGradient>
	<path class="st3" d="M38.7,10.7L38,12.8h-2.2l1.8,1.3l-0.7,2.1l1.8-1.3l1.8,1.3l-0.7-2.1l1.8-1.3h-2.2L38.7,10.7z M39.4,22.4
		l-0.7-2.1L38,22.4h-2.2l1.8,1.3l-0.7,2.1l1.8-1.3l1.8,1.3l-0.7-2.1l1.8-1.3H39.4z M50.5,22.4l-0.7-2.1l-0.7,2.1h-2.2l1.8,1.3
		L48,25.8l1.8-1.3l1.8,1.3l-0.7-2.1l1.8-1.3H50.5z M33,15.6l-0.7,2.1h-2.2l1.8,1.3l-0.7,2.1l1.8-1.3l1.8,1.3L34.1,19l1.8-1.3h-2.2
		L33,15.6z M44.3,15.6l-0.7,2.1h-2.2l1.8,1.3l-0.7,2.1l1.8-1.3l1.8,1.3L45.4,19l1.8-1.3H45L44.3,15.6z M28.1,22.4l-0.7-2.1l-0.7,2.1
		h-2.2l1.8,1.3l-0.7,2.1l1.8-1.3l1.8,1.3l-0.7-2.1l1.8-1.3H28.1z M17,22.4l-0.7-2.1l-0.7,2.1h-2.2l1.8,1.3l-0.7,2.1l1.8-1.3l1.8,1.3
		l-0.7-2.1l1.8-1.3H17z M16.3,10.7l-0.7,2.1h-2.2l1.8,1.3l-0.7,2.1l1.8-1.3l1.8,1.3l-0.7-2.1l1.8-1.3H17L16.3,10.7z M21.9,15.6
		l-0.7,2.1H19l1.8,1.3l-0.7,2.1l1.8-1.3l1.8,1.3L23,19l1.8-1.3h-2.2L21.9,15.6z M27.4,10.7l-0.7,2.1h-2.2l1.8,1.3l-0.7,2.1l1.8-1.3
		l1.8,1.3l-0.7-2.1l1.8-1.3h-2.2L27.4,10.7z M10.8,19.8l1.8,1.3L11.9,19l1.8-1.3h-2.2l-0.7-2.1l-0.7,2.1H7.9L9.7,19L9,21.1
		L10.8,19.8z M45,27.2l-0.7-2.1l-0.7,2.1h-2.2l1.8,1.3l-0.7,2.1l1.8-1.3l1.8,1.3l-0.7-2.1l1.8-1.3H45z M56.1,27.2l-0.7-2.1l-0.7,2.1
		h-2.2l1.8,1.3l-0.7,2.1l1.8-1.3l1.8,1.3l-0.7-2.1l1.8-1.3H56.1z M50.5,32L49.8,30L49.1,32h-2.2l1.8,1.3L48,35.4l1.8-1.3l1.8,1.3
		l-0.7-2.1l1.8-1.3H50.5z M56.1,17.7l-0.7-2.1l-0.7,2.1h-2.2l1.8,1.3l-0.7,2.1l1.8-1.3l1.8,1.3L56.5,19l1.8-1.3H56.1z M59.2,6.6
		L61,5.3l1.8,1.3l-0.7-2.1l1.8-1.3h-2.2L61,1.2l-0.7,2.1h-2.2l1.8,1.3L59.2,6.6z M11.5,27.2l-0.7-2.1l-0.7,2.1H7.9l1.8,1.3L9,30.5
		l1.8-1.3l1.8,1.3l-0.7-2.1l1.8-1.3H11.5z M54.3,9.3l-0.7,2.1l1.8-1.3l1.8,1.3l-0.7-2.1L58.3,8h-2.2l-0.7-2.1L54.7,8h-2.2L54.3,9.3z
		 M48,6.6l1.8-1.3l1.8,1.3l-0.7-2.1l1.8-1.3h-2.2l-0.7-2.1l-0.7,2.1h-2.2l1.8,1.3L48,6.6z M22.6,27.2l-0.7-2.1l-0.7,2.1H19l1.8,1.3
		l-0.7,2.1l1.8-1.3l1.8,1.3L23,28.4l1.8-1.3H22.6z M39.4,32L38.7,30L38,32h-2.2l1.8,1.3l-0.7,2.1l1.8-1.3l1.8,1.3l-0.7-2.1l1.8-1.3
		H39.4z M17,32L16.3,30L15.7,32h-2.2l1.8,1.3l-0.7,2.1l1.8-1.3l1.8,1.3l-0.7-2.1l1.8-1.3H17z M33.7,27.2L33,25.1l-0.7,2.1h-2.2
		l1.8,1.3l-0.7,2.1l1.8-1.3l1.8,1.3l-0.7-2.1l1.8-1.3H33.7z M28.1,32L27.4,30L26.8,32h-2.2l1.8,1.3l-0.7,2.1l1.8-1.3l1.8,1.3
		l-0.7-2.1l1.8-1.3H28.1z M50.5,12.8l-0.7-2.1l-0.7,2.1h-2.2l1.8,1.3L48,16.2l1.8-1.3l1.8,1.3l-0.7-2.1l1.8-1.3H50.5z M17,41.5
		l-0.7-2.1l-0.7,2.1h-2.2l1.8,1.3l-0.7,2.1l1.8-1.3l1.8,1.3l-0.7-2.1l1.8-1.3H17z M35.9,36.7h-2.2L33,34.6l-0.7,2.1h-2.2l1.8,1.3
		l-0.7,2.1l1.8-1.3l1.8,1.3L34.1,38L35.9,36.7z M50.5,41.5l-0.7-2.1l-0.7,2.1h-2.2l1.8,1.3L48,44.8l1.8-1.3l1.8,1.3l-0.7-2.1
		l1.8-1.3H50.5z M47.2,36.7H45l-0.7-2.1l-0.7,2.1h-2.2l1.8,1.3l-0.7,2.1l1.8-1.3l1.8,1.3L45.4,38L47.2,36.7z M24.8,36.7h-2.2
		l-0.7-2.1l-0.7,2.1H19l1.8,1.3l-0.7,2.1l1.8-1.3l1.8,1.3L23,38L24.8,36.7z M28.1,41.5l-0.7-2.1l-0.7,2.1h-2.2l1.8,1.3l-0.7,2.1
		l1.8-1.3l1.8,1.3l-0.7-2.1l1.8-1.3H28.1z M39.4,41.5l-0.7-2.1L38,41.5h-2.2l1.8,1.3l-0.7,2.1l1.8-1.3l1.8,1.3l-0.7-2.1l1.8-1.3
		H39.4z M61,10.7l-0.7,2.1h-2.2l1.8,1.3l-0.7,2.1l1.8-1.3l1.8,1.3l-0.7-2.1l1.8-1.3h-2.2L61,10.7z M61,20.3l-0.7,2.1h-2.2l1.8,1.3
		l-0.7,2.1l1.8-1.3l1.8,1.3l-0.7-2.1l1.8-1.3h-2.2L61,20.3z M61.7,41.5L61,39.4l-0.7,2.1h-2.2l1.8,1.3l-0.7,2.1l1.8-1.3l1.8,1.3
		l-0.7-2.1l1.8-1.3H61.7z M61,30L60.3,32h-2.2l1.8,1.3l-0.7,2.1l1.8-1.3l1.8,1.3l-0.7-2.1l1.8-1.3h-2.2L61,30z M58.3,36.7h-2.2
		l-0.7-2.1l-0.7,2.1h-2.2l1.8,1.3l-0.7,2.1l1.8-1.3l1.8,1.3L56.5,38L58.3,36.7z M25.7,6.6l1.8-1.3l1.8,1.3l-0.7-2.1l1.8-1.3h-2.2
		l-0.7-2.1l-0.7,2.1h-2.2l1.8,1.3L25.7,6.6z M20.8,9.3l-0.7,2.1l1.8-1.3l1.8,1.3L23,9.3L24.8,8h-2.2l-0.7-2.1L21.2,8H19L20.8,9.3z
		 M14.6,6.6l1.8-1.3l1.8,1.3l-0.7-2.1l1.8-1.3H17l-0.7-2.1l-0.7,2.1h-2.2l1.8,1.3L14.6,6.6z M43.2,9.3l-0.7,2.1l1.8-1.3l1.8,1.3
		l-0.7-2.1L47.2,8H45l-0.7-2.1L43.6,8h-2.2L43.2,9.3z M31.9,9.3l-0.7,2.1l1.8-1.3l1.8,1.3l-0.7-2.1L35.9,8h-2.2L33,5.9L32.4,8h-2.2
		L31.9,9.3z M36.9,6.6l1.8-1.3l1.8,1.3l-0.7-2.1l1.8-1.3h-2.2l-0.7-2.1L38,3.3h-2.2l1.8,1.3L36.9,6.6z M9.7,9.3L9,11.4l1.8-1.3
		l1.8,1.3l-0.7-2.1L13.6,8h-2.2l-0.7-2.1L10.1,8H7.9L9.7,9.3z M13.6,36.7h-2.2l-0.7-2.1l-0.7,2.1H7.9L9.7,38L9,40.1l1.8-1.3l1.8,1.3
		L11.9,38L13.6,36.7z M5.9,41.5l-0.7-2.1l-0.7,2.1H2.3l1.8,1.3l-0.7,2.1l1.8-1.3L7,44.8l-0.7-2.1l1.8-1.3H5.9z M3.4,35.4l1.8-1.3
		L7,35.4l-0.7-2.1L8.1,32H5.9L5.2,30L4.5,32H2.3l1.8,1.3L3.4,35.4z M3.4,16.2l1.8-1.3L7,16.2l-0.7-2.1l1.8-1.3H5.9l-0.7-2.1
		l-0.7,2.1H2.3l1.8,1.3L3.4,16.2z M3.4,6.6l1.8-1.3L7,6.6L6.3,4.5l1.8-1.3H5.9L5.2,1.2L4.5,3.3H2.3l1.8,1.3L3.4,6.6z M3.4,25.8
		l1.8-1.3L7,25.8l-0.7-2.1l1.8-1.3H5.9l-0.7-2.1l-0.7,2.1H2.3l1.8,1.3L3.4,25.8z"/>
</g>
</svg>
