<?xml version="1.0" encoding="utf-8"?>
<!-- Generator: Adobe Illustrator 20.0.0, SVG Export Plug-In . SVG Version: 6.00 Build 0)  -->
<svg version="1.1" xmlns="http://www.w3.org/2000/svg" xmlns:xlink="http://www.w3.org/1999/xlink" x="0px" y="0px"
	 viewBox="0 0 526.7 477.1" style="enable-background:new 0 0 526.7 477.1;" xml:space="preserve">
<style type="text/css">
	.st0{fill:#FFFFFF;stroke:#000000;stroke-width:1.024;}
	.st1{fill:#FFFFFF;stroke:#000000;stroke-width:1.024;stroke-linejoin:round;}
	.st2{fill:#FFFFFF;stroke:#000000;stroke-width:0.5289;}
	.st3{stroke:#000000;stroke-width:0.7273;}
	.st4{fill:none;stroke:#000000;stroke-width:1.024;}
	.st5{fill:none;stroke:#000000;stroke-width:2.0479;}
	.st6{fill:#FFFFFF;}
	.st7{fill:none;stroke:#000000;stroke-width:0.5362;}
	.st8{fill:#FFFFFF;stroke:#000000;stroke-width:0.5362;}
	.st9{stroke:#000000;stroke-width:0.5362;}
	.st10{fill:none;stroke:#000000;stroke-width:0.768;}
	.st11{fill:none;stroke:#000000;stroke-width:1.024;stroke-linejoin:round;}
	.st12{fill:none;stroke:#000000;stroke-width:1.024;stroke-linecap:round;stroke-linejoin:round;}
	.st13{fill:none;stroke:#000000;stroke-width:8.5078;}
	.st14{fill:none;stroke:#000000;stroke-width:0.5524;}
	.st15{fill:none;stroke:#FFFFFF;stroke-width:6.3808;}
	.st16{fill:#FFFFFF;stroke:#000000;}
	.st17{fill:#EF4423;}
	.st18{fill:none;stroke:#000000;stroke-width:1.4598;stroke-linecap:round;}
</style>
<g id="Layer_3">
	<path class="st0" d="M312.1,315.5l-8.7,4.6c-3.1,2.2-5,2.1-6.2,2.1s-62.1-0.1-67.3-0.1s-6.4-1.1-6.4-1.1l-5.9-2.6
		c0,0-2.8-2-3.8-2.8s-0.6-17.4-0.6-17.4l98.9,0.2L312.1,315.5z"/>
	<g>
		<path class="st0" d="M115.9,315.7c-3.6-2.4-6.9-6.8-10.2-13.4c-14.4-1.7-28.8-6-40.6-9C36.2,285.9,5.8,264.6,0,259.2v-44
			c0.3-7.2,41.1-12.7,72.4-13.4c13.6-0.3,30.9,4.8,45.5,7.3c1.6,18.4,2,48.3,4.4,63.2c49.4,11,127.5,10.5,144.5,10.5
			c13.4,0,100.8-0.8,134.3-9.5c2.3-13.6,3.2-44.2,6.2-64.7c12.1-2.8,28.4-5.6,42.5-8c35.3,3.5,69.8,5.7,76.9,12.5v46
			c-5.8,5.4-34.8,26.6-63.7,33.9c-11.8,3-26.7,8.1-41,9.8c-3.1,5.4-7.8,10.5-14.2,13c0,0-27.8-12.2-42-14.3
			c-16.2-0.3-36.7-0.2-39.5,0.2c-1.2,3.5-3.7,10-5.7,11.5s-5.2,2-8.5,2.2c-3.3,0.2-10.5,0.8-11.5,0.5c-1-0.3-2.2-0.5-2.3-3.8
			c-0.2-3.3,0.3-11,0.3-11c-2,0-31.8,0-33.2,0c0,0-0.7,11.2-0.8,12c-0.2,0.8-0.8,2.2-2.5,2c-1.7-0.2-2.7-1.2-2.7-4.5
			s-0.5-9.5-0.5-9.5c-1.9,0.3-31.2,0.8-31.2,0.8l-0.8,0.5c0,3.2-0.4,8.5-0.4,10.1c0,1.5,0,3.2-2.7,3.1c-1.4-0.1-8.4,0.7-17.4-1.2
			c-5.6-1.1-6.6-7.5-7.7-10.1c-0.4-1.1-0.8-2-1-2.9c0,0-33.8-0.4-39.2,0C152.2,303,120.9,312.5,115.9,315.7z"/>
		<path class="st0" d="M407.7,208.7c0,0-4.6,52.2-5.9,64.5c-15.6,6.4-68.8,9.7-135.3,9.7c-65,0-133.5-7.7-144.3-10.5
			c-2-12.8-4.4-62.6-4.4-62.6S80,200.2,72,202c-0.7,4.9,1.3,44.8,3.3,51.3c1.7,5.5,33.8,27.3,41.6,30c16.9,5.9,93.2,11.9,147.7,11.9
			c62.1-0.3,115.7-4.7,141.2-12.9c12.1-3.6,40-23.9,41.6-28.7c1.5-6.7,2.4-50.4,2.2-52.7C440,202,407.7,208.7,407.7,208.7z"/>
		<path class="st0" d="M223.1,300.5c-12.7-0.9-13.3-1.1-21-3.2c0,0,0.6,9.3,5.5,13c0,0,2.1,2.3,7.6,2.5c5.5,0.2,9.3,0.3,9.3,0.3"/>
		<path class="st0" d="M108.9,300.6c0,0,2.7,8.2,9,12.1c0.7,0.4,1.4,0.8,2.1,1.2"/>
		<path class="st0" d="M0,259.2c0,0,22.5-4.2,75.4-5.2"/>
		<path class="st0" d="M526.7,259.2c0,0-2.8-1.3-34.9-2.9c-32.7-1.7-43.7-2.3-44-2"/>
		<path class="st0" d="M154.6,302.3c0,0-36.5,0-43.3-1"/>
		<path class="st0" d="M117,283.4c0,0-1.7-48.1-1-64.5"/>
		<path class="st0" d="M405.9,282.4c0,0,2-43.7,2.7-62.8"/>
		<line class="st0" x1="196.4" y1="297.3" x2="198.1" y2="302.7"/>
		<line class="st0" x1="258.6" y1="296.7" x2="259.1" y2="302.9"/>
		<line class="st0" x1="265.6" y1="296.8" x2="265.2" y2="303.2"/>
		<path class="st0" d="M300.8,314.3c0,0,9.1-0.2,10.5-0.3c1.4-0.1,5.1,0,6.6-3.8s3.8-12.2,3.9-13c-2.2,0.8-7,2.1-9.4,2.4
			c-2.4,0.3-13.1,1.2-13.1,1.2"/>
		<line class="st0" x1="327.5" y1="296.9" x2="325.9" y2="302.8"/>
		<path class="st1" d="M376.6,303.1c0,0,26-1,30-1.2s9.9-0.5,9.9-0.5c-4,9.8-11.3,13.2-11.3,13.2"/>
		<line class="st1" x1="417.2" y1="303" x2="423.5" y2="302.8"/>
	</g>
	<g>
		<path class="st0" d="M271.8,282.6c-55.3,0-94.9-1-146.3-10.8c-2.2-0.4-3.2-1.6-3.1-3.7l-2.2-55.6c-0.1-3.7,1.4-3.6,3-3.6l140.3-2
			l136,1.7c4.1,0.3,5.5,3.4,5.4,7.2l-3.8,54.2c0.1,2.1-0.9,3.3-3.1,3.7C351.1,281.3,327.1,282.6,271.8,282.6z"/>
		<g>
			<circle class="st2" cx="366.2" cy="260.5" r="10.2"/>
			<circle class="st3" cx="366.2" cy="260.5" r="4.8"/>
		</g>
		<g>
			<path d="M216,213.4h-1.6v-1.1h4.6v1.1h-1.6v4.9H216V213.4z"/>
			<path d="M223.6,218.3l-1.4-6h1.5l0.5,2.5c0.1,0.7,0.3,1.5,0.4,2.1h0c0.1-0.7,0.2-1.4,0.4-2.1l0.5-2.4h1.4l0.5,2.5
				c0.1,0.7,0.2,1.3,0.3,2h0c0.1-0.7,0.2-1.4,0.3-2.1l0.5-2.4h1.4l-1.5,6h-1.5l-0.5-2.6c-0.1-0.6-0.2-1.2-0.3-1.8h0
				c-0.1,0.7-0.2,1.2-0.3,1.8l-0.6,2.6H223.6z"/>
			<path d="M236.5,212.3v6h-1.4v-6H236.5z"/>
			<path d="M241.3,216.9c0.4,0.2,0.9,0.4,1.5,0.4c0.6,0,1-0.3,1-0.7c0-0.4-0.3-0.6-1-0.8c-1-0.4-1.7-0.9-1.7-1.8
				c0-1,0.9-1.8,2.3-1.8c0.7,0,1.2,0.1,1.5,0.3l-0.3,1.1c-0.2-0.1-0.7-0.3-1.2-0.3c-0.6,0-0.9,0.3-0.9,0.6c0,0.4,0.3,0.6,1.1,0.9
				c1.1,0.4,1.5,0.9,1.5,1.8c0,1-0.8,1.9-2.4,1.9c-0.7,0-1.4-0.2-1.7-0.4L241.3,216.9z"/>
			<path d="M249.8,213.4h-1.6v-1.1h4.6v1.1h-1.6v4.9h-1.4V213.4z"/>
		</g>
		<g>
			<path d="M180.5,237.1v7H179v-7H180.5z"/>
			<path d="M183.9,244.1v-7h1.9l1.5,2.6c0.4,0.7,0.8,1.6,1.1,2.4h0c-0.1-0.9-0.1-1.9-0.1-2.9v-2h1.5v7H188l-1.5-2.7
				c-0.4-0.8-0.9-1.7-1.2-2.5h0c0.1,0.9,0.1,1.9,0.1,3.1v2.1H183.9z"/>
			<path d="M192,237.2c0.5-0.1,1.2-0.1,2.2-0.1c1,0,1.7,0.2,2.2,0.6c0.4,0.3,0.7,0.9,0.7,1.6c0,0.7-0.2,1.3-0.6,1.7
				c-0.5,0.5-1.4,0.7-2.3,0.7c-0.2,0-0.4,0-0.5,0v2.5H192V237.2z M193.5,240.4c0.1,0,0.3,0,0.5,0c0.8,0,1.4-0.4,1.4-1.1
				c0-0.6-0.4-1-1.2-1c-0.3,0-0.5,0-0.7,0.1V240.4z"/>
			<path d="M201.6,237.1v4c0,1.2,0.5,1.8,1.3,1.8c0.8,0,1.3-0.6,1.3-1.8v-4h1.6v4c0,2.2-1.1,3.2-2.9,3.2c-1.8,0-2.8-1-2.8-3.2v-3.9
				H201.6z"/>
			<path d="M209.4,238.4h-1.9v-1.3h5.4v1.3H211v5.7h-1.6V238.4z"/>
		</g>
		<g>
			<path d="M235.1,242.2l-0.5,1.9h-1.8l2.3-7.5h2.2l2.3,7.5h-1.8l-0.6-1.9H235.1z M237,240.9l-0.5-1.6c-0.1-0.4-0.3-1-0.4-1.4h0
				c-0.1,0.4-0.2,1-0.3,1.4l-0.5,1.6H237z"/>
		</g>
		<g>
			<path d="M273.6,236.8c0.4-0.1,1.3-0.2,2.2-0.2c1,0,1.7,0.1,2.2,0.4c0.5,0.3,0.9,0.8,0.9,1.5c0,0.7-0.4,1.3-1.2,1.6v0
				c0.9,0.2,1.5,0.9,1.5,1.8c0,0.7-0.3,1.2-0.8,1.6c-0.5,0.4-1.5,0.7-2.9,0.7c-0.8,0-1.5-0.1-1.8-0.1V236.8z M275.2,239.6h0.6
				c0.9,0,1.4-0.4,1.4-0.9c0-0.6-0.4-0.9-1.2-0.9c-0.4,0-0.6,0-0.7,0.1V239.6z M275.2,242.9c0.2,0,0.4,0,0.7,0
				c0.8,0,1.4-0.3,1.4-1.1c0-0.8-0.7-1.1-1.5-1.1h-0.6V242.9z"/>
		</g>
		<g>
			<path d="M317.1,243.9c-0.3,0.1-1,0.3-1.9,0.3c-2.6,0-3.9-1.6-3.9-3.8c0-2.6,1.8-4,4.1-4c0.9,0,1.5,0.2,1.8,0.3l-0.4,1.3
				c-0.3-0.1-0.8-0.3-1.4-0.3c-1.3,0-2.4,0.8-2.4,2.5c0,1.5,0.9,2.4,2.4,2.4c0.5,0,1.1-0.1,1.4-0.2L317.1,243.9z"/>
		</g>
		<g>
			<path d="M348.2,235.9c0.6-0.1,1.4-0.2,2.3-0.2c1.4,0,2.4,0.2,3.1,0.8c0.8,0.6,1.3,1.5,1.3,2.8c0,1.4-0.5,2.4-1.2,3
				c-0.8,0.7-2,1-3.5,1c-0.9,0-1.5-0.1-1.9-0.1V235.9z M349.9,242.2c0.1,0,0.4,0,0.6,0c1.5,0,2.5-0.9,2.5-2.7c0-1.6-1-2.4-2.4-2.3
				c-0.4,0-0.6,0-0.8,0.1L349.9,242.2z"/>
			<path d="M361.4,243c-0.3,0.2-1,0.3-1.9,0.4c-2.6,0.1-4-1.5-4-3.7c-0.1-2.6,1.7-4,4-4.1c0.9,0,1.5,0.1,1.9,0.3l-0.3,1.3
				c-0.3-0.1-0.8-0.3-1.4-0.2c-1.3,0-2.4,0.9-2.3,2.5c0,1.5,0.9,2.4,2.4,2.4c0.5,0,1.1-0.1,1.4-0.3L361.4,243z"/>
			<path d="M365.1,235.9c0.5-0.1,1.3-0.2,2.3-0.2c1,0,1.8,0.2,2.3,0.6c0.5,0.4,0.8,1,0.8,1.7c0,0.7-0.2,1.4-0.7,1.8
				c-0.6,0.5-1.4,0.8-2.4,0.8c-0.2,0-0.4,0-0.6,0v2.7h-1.7V235.9z M366.8,239.3c0.1,0,0.3,0,0.6,0c0.9,0,1.5-0.5,1.5-1.2
				c0-0.7-0.5-1.1-1.3-1.1c-0.3,0-0.6,0-0.7,0.1V239.3z"/>
			<path d="M373.4,243.3l-1.8-7.5h1.8l0.6,3.1c0.2,0.9,0.3,1.9,0.4,2.6h0c0.1-0.8,0.3-1.7,0.5-2.7l0.6-3.1h1.8l0.6,3.2
				c0.2,0.9,0.3,1.7,0.4,2.5h0c0.1-0.8,0.3-1.7,0.4-2.6l0.6-3.1h1.7l-1.9,7.5h-1.8l-0.6-3.2c-0.1-0.8-0.3-1.5-0.4-2.3h0
				c-0.1,0.8-0.3,1.6-0.4,2.3l-0.7,3.2H373.4z"/>
			<path d="M382,235.9c0.5-0.1,1.3-0.2,2.3-0.2c1.1,0,1.9,0.2,2.4,0.6c0.5,0.4,0.7,0.9,0.7,1.6c0,0.9-0.7,1.6-1.3,1.8v0
				c0.5,0.2,0.8,0.7,1,1.4c0.2,0.9,0.5,1.8,0.6,2.1h-1.7c-0.1-0.2-0.3-0.8-0.5-1.7c-0.2-0.9-0.5-1.2-1.2-1.2h-0.5v2.9H382V235.9z
				 M383.7,239.2h0.7c0.8,0,1.3-0.4,1.3-1.1c0-0.7-0.5-1-1.2-1c-0.4,0-0.6,0-0.8,0.1V239.2z"/>
		</g>
		<path class="st4" d="M327.8,243.8c0-6.7-1.7-11.8-9.4-11.8h-141"/>
		<path class="st4" d="M339.3,243.8c0-6.7,3.5-11.8,11.1-11.8l39.7-0.5"/>
		<line class="st5" x1="263.9" y1="223" x2="263.9" y2="209.9"/>
		<polygon points="204.6,220.2 197.9,216.2 204.6,212.2 		"/>
		<g>
			<g>
				<g>
					<path class="st6" d="M247.1,263.2c0,0.4-0.3,0.8-0.3,1.2c0,0.4,0.2,0.9,0.1,1.3c-0.1,0.4-0.5,0.7-0.6,1.1
						c-0.1,0.4,0,0.9-0.1,1.3c-0.2,0.4-0.6,0.6-0.8,1c-0.2,0.4-0.2,0.9-0.4,1.2c-0.2,0.3-0.7,0.5-1,0.8c-0.3,0.3-0.3,0.8-0.6,1.1
						c-0.3,0.3-0.8,0.4-1.1,0.6c-0.3,0.3-0.5,0.7-0.8,1c-0.3,0.2-0.8,0.2-1.2,0.4c-0.4,0.2-0.6,0.6-1,0.8c-0.4,0.2-0.9,0-1.3,0.1
						c-0.4,0.1-0.7,0.5-1.1,0.6c-0.4,0.1-0.8-0.1-1.3-0.1c-0.4,0-0.8,0.3-1.2,0.3c-0.4,0-0.8-0.3-1.2-0.3c-0.4,0-0.9,0.2-1.3,0.1
						c-0.4-0.1-0.7-0.5-1.1-0.6c-0.4-0.1-0.9,0-1.3-0.1c-0.4-0.2-0.6-0.6-1-0.8c-0.4-0.2-0.9-0.2-1.2-0.4c-0.3-0.2-0.5-0.7-0.8-1
						c-0.3-0.3-0.8-0.3-1.1-0.6c-0.3-0.3-0.4-0.8-0.6-1.1c-0.3-0.3-0.7-0.5-1-0.8c-0.2-0.3-0.2-0.8-0.4-1.2c-0.2-0.4-0.6-0.6-0.8-1
						c-0.2-0.4,0-0.9-0.1-1.3c-0.1-0.4-0.5-0.7-0.6-1.1c-0.1-0.4,0.1-0.8,0.1-1.3c0-0.4-0.3-0.8-0.3-1.2c0-0.4,0.3-0.8,0.3-1.2
						c0-0.4-0.2-0.9-0.1-1.3c0.1-0.4,0.5-0.7,0.6-1.1c0.1-0.4,0-0.9,0.1-1.3c0.2-0.4,0.6-0.6,0.8-1c0.2-0.4,0.2-0.9,0.4-1.2
						c0.2-0.3,0.7-0.5,1-0.8c0.3-0.3,0.3-0.8,0.6-1.1c0.3-0.3,0.8-0.4,1.1-0.6c0.3-0.3,0.5-0.7,0.8-1c0.3-0.2,0.8-0.2,1.2-0.4
						c0.4-0.2,0.6-0.6,1-0.8c0.4-0.2,0.9,0,1.3-0.1c0.4-0.1,0.7-0.5,1.1-0.6c0.4-0.1,0.8,0.1,1.3,0.1c0.4,0,0.8-0.3,1.2-0.3
						c0.4,0,0.8,0.3,1.2,0.3c0.4,0,0.9-0.2,1.3-0.1c0.4,0.1,0.7,0.5,1.1,0.6c0.4,0.1,0.9,0,1.3,0.1c0.4,0.2,0.6,0.6,1,0.8
						c0.4,0.2,0.9,0.2,1.2,0.4c0.3,0.2,0.5,0.7,0.8,1c0.3,0.3,0.8,0.3,1.1,0.6c0.3,0.3,0.4,0.8,0.6,1.1c0.3,0.3,0.7,0.5,1,0.8
						c0.2,0.3,0.2,0.8,0.4,1.2c0.2,0.4,0.6,0.6,0.8,1c0.2,0.4,0,0.9,0.1,1.3c0.1,0.4,0.5,0.7,0.6,1.1c0.1,0.4-0.1,0.8-0.1,1.3
						C246.8,262.4,247.1,262.8,247.1,263.2z"/>
					<path class="st7" d="M247.1,263.2c0,0.4-0.3,0.8-0.3,1.2c0,0.4,0.2,0.9,0.1,1.3c-0.1,0.4-0.5,0.7-0.6,1.1
						c-0.1,0.4,0,0.9-0.1,1.3c-0.2,0.4-0.6,0.6-0.8,1c-0.2,0.4-0.2,0.9-0.4,1.2c-0.2,0.3-0.7,0.5-1,0.8c-0.3,0.3-0.3,0.8-0.6,1.1
						c-0.3,0.3-0.8,0.4-1.1,0.6c-0.3,0.3-0.5,0.7-0.8,1c-0.3,0.2-0.8,0.2-1.2,0.4c-0.4,0.2-0.6,0.6-1,0.8c-0.4,0.2-0.9,0-1.3,0.1
						c-0.4,0.1-0.7,0.5-1.1,0.6c-0.4,0.1-0.8-0.1-1.3-0.1c-0.4,0-0.8,0.3-1.2,0.3c-0.4,0-0.8-0.3-1.2-0.3c-0.4,0-0.9,0.2-1.3,0.1
						c-0.4-0.1-0.7-0.5-1.1-0.6c-0.4-0.1-0.9,0-1.3-0.1c-0.4-0.2-0.6-0.6-1-0.8c-0.4-0.2-0.9-0.2-1.2-0.4c-0.3-0.2-0.5-0.7-0.8-1
						c-0.3-0.3-0.8-0.3-1.1-0.6c-0.3-0.3-0.4-0.8-0.6-1.1c-0.3-0.3-0.7-0.5-1-0.8c-0.2-0.3-0.2-0.8-0.4-1.2c-0.2-0.4-0.6-0.6-0.8-1
						c-0.2-0.4,0-0.9-0.1-1.3c-0.1-0.4-0.5-0.7-0.6-1.1c-0.1-0.4,0.1-0.8,0.1-1.3c0-0.4-0.3-0.8-0.3-1.2c0-0.4,0.3-0.8,0.3-1.2
						c0-0.4-0.2-0.9-0.1-1.3c0.1-0.4,0.5-0.7,0.6-1.1c0.1-0.4,0-0.9,0.1-1.3c0.2-0.4,0.6-0.6,0.8-1c0.2-0.4,0.2-0.9,0.4-1.2
						c0.2-0.3,0.7-0.5,1-0.8c0.3-0.3,0.3-0.8,0.6-1.1c0.3-0.3,0.8-0.4,1.1-0.6c0.3-0.3,0.5-0.7,0.8-1c0.3-0.2,0.8-0.2,1.2-0.4
						c0.4-0.2,0.6-0.6,1-0.8c0.4-0.2,0.9,0,1.3-0.1c0.4-0.1,0.7-0.5,1.1-0.6c0.4-0.1,0.8,0.1,1.3,0.1c0.4,0,0.8-0.3,1.2-0.3
						c0.4,0,0.8,0.3,1.2,0.3c0.4,0,0.9-0.2,1.3-0.1c0.4,0.1,0.7,0.5,1.1,0.6c0.4,0.1,0.9,0,1.3,0.1c0.4,0.2,0.6,0.6,1,0.8
						c0.4,0.2,0.9,0.2,1.2,0.4c0.3,0.2,0.5,0.7,0.8,1c0.3,0.3,0.8,0.3,1.1,0.6c0.3,0.3,0.4,0.8,0.6,1.1c0.3,0.3,0.7,0.5,1,0.8
						c0.2,0.3,0.2,0.8,0.4,1.2c0.2,0.4,0.6,0.6,0.8,1c0.2,0.4,0,0.9,0.1,1.3c0.1,0.4,0.5,0.7,0.6,1.1c0.1,0.4-0.1,0.8-0.1,1.3
						C246.8,262.4,247.1,262.8,247.1,263.2z"/>
				</g>
			</g>
			<circle class="st8" cx="234.5" cy="263.2" r="10.3"/>
			<circle class="st9" cx="234.5" cy="263.2" r="7.6"/>
		</g>
		<g>
			<g>
				<g>
					<path class="st6" d="M287.4,263.2c0,0.4-0.3,0.8-0.3,1.2c0,0.4,0.2,0.9,0.1,1.3c-0.1,0.4-0.5,0.7-0.6,1.1
						c-0.1,0.4,0,0.9-0.1,1.3c-0.2,0.4-0.6,0.6-0.8,1c-0.2,0.4-0.2,0.9-0.4,1.2c-0.2,0.3-0.7,0.5-1,0.8c-0.3,0.3-0.3,0.8-0.6,1.1
						c-0.3,0.3-0.8,0.4-1.1,0.6c-0.3,0.3-0.5,0.7-0.8,1c-0.3,0.2-0.8,0.2-1.2,0.4c-0.4,0.2-0.6,0.6-1,0.8c-0.4,0.2-0.9,0-1.3,0.1
						c-0.4,0.1-0.7,0.5-1.1,0.6c-0.4,0.1-0.8-0.1-1.3-0.1c-0.4,0-0.8,0.3-1.2,0.3c-0.4,0-0.8-0.3-1.2-0.3c-0.4,0-0.9,0.2-1.3,0.1
						c-0.4-0.1-0.7-0.5-1.1-0.6c-0.4-0.1-0.9,0-1.3-0.1c-0.4-0.2-0.6-0.6-1-0.8c-0.4-0.2-0.9-0.2-1.2-0.4c-0.3-0.2-0.5-0.7-0.8-1
						s-0.8-0.3-1.1-0.6c-0.3-0.3-0.4-0.8-0.6-1.1c-0.3-0.3-0.7-0.5-1-0.8c-0.2-0.3-0.2-0.8-0.4-1.2c-0.2-0.4-0.6-0.6-0.8-1
						c-0.2-0.4,0-0.9-0.1-1.3c-0.1-0.4-0.5-0.7-0.6-1.1c-0.1-0.4,0.1-0.8,0.1-1.3c0-0.4-0.3-0.8-0.3-1.2c0-0.4,0.3-0.8,0.3-1.2
						c0-0.4-0.2-0.9-0.1-1.3c0.1-0.4,0.5-0.7,0.6-1.1c0.1-0.4,0-0.9,0.1-1.3c0.2-0.4,0.6-0.6,0.8-1c0.2-0.4,0.2-0.9,0.4-1.2
						c0.2-0.3,0.7-0.5,1-0.8c0.3-0.3,0.3-0.8,0.6-1.1c0.3-0.3,0.8-0.4,1.1-0.6c0.3-0.3,0.5-0.7,0.8-1c0.3-0.2,0.8-0.2,1.2-0.4
						c0.4-0.2,0.6-0.6,1-0.8c0.4-0.2,0.9,0,1.3-0.1c0.4-0.1,0.7-0.5,1.1-0.6c0.4-0.1,0.8,0.1,1.3,0.1c0.4,0,0.8-0.3,1.2-0.3
						c0.4,0,0.8,0.3,1.2,0.3c0.4,0,0.9-0.2,1.3-0.1c0.4,0.1,0.7,0.5,1.1,0.6c0.4,0.1,0.9,0,1.3,0.1c0.4,0.2,0.6,0.6,1,0.8
						c0.4,0.2,0.9,0.2,1.2,0.4c0.3,0.2,0.5,0.7,0.8,1c0.3,0.3,0.8,0.3,1.1,0.6c0.3,0.3,0.4,0.8,0.6,1.1c0.3,0.3,0.7,0.5,1,0.8
						c0.2,0.3,0.2,0.8,0.4,1.2c0.2,0.4,0.6,0.6,0.8,1c0.2,0.4,0,0.9,0.1,1.3c0.1,0.4,0.5,0.7,0.6,1.1c0.1,0.4-0.1,0.8-0.1,1.3
						C287.1,262.4,287.4,262.8,287.4,263.2z"/>
					<path class="st7" d="M287.4,263.2c0,0.4-0.3,0.8-0.3,1.2c0,0.4,0.2,0.9,0.1,1.3c-0.1,0.4-0.5,0.7-0.6,1.1
						c-0.1,0.4,0,0.9-0.1,1.3c-0.2,0.4-0.6,0.6-0.8,1c-0.2,0.4-0.2,0.9-0.4,1.2c-0.2,0.3-0.7,0.5-1,0.8c-0.3,0.3-0.3,0.8-0.6,1.1
						c-0.3,0.3-0.8,0.4-1.1,0.6c-0.3,0.3-0.5,0.7-0.8,1c-0.3,0.2-0.8,0.2-1.2,0.4c-0.4,0.2-0.6,0.6-1,0.8c-0.4,0.2-0.9,0-1.3,0.1
						c-0.4,0.1-0.7,0.5-1.1,0.6c-0.4,0.1-0.8-0.1-1.3-0.1c-0.4,0-0.8,0.3-1.2,0.3c-0.4,0-0.8-0.3-1.2-0.3c-0.4,0-0.9,0.2-1.3,0.1
						c-0.4-0.1-0.7-0.5-1.1-0.6c-0.4-0.1-0.9,0-1.3-0.1c-0.4-0.2-0.6-0.6-1-0.8c-0.4-0.2-0.9-0.2-1.2-0.4c-0.3-0.2-0.5-0.7-0.8-1
						s-0.8-0.3-1.1-0.6c-0.3-0.3-0.4-0.8-0.6-1.1c-0.3-0.3-0.7-0.5-1-0.8c-0.2-0.3-0.2-0.8-0.4-1.2c-0.2-0.4-0.6-0.6-0.8-1
						c-0.2-0.4,0-0.9-0.1-1.3c-0.1-0.4-0.5-0.7-0.6-1.1c-0.1-0.4,0.1-0.8,0.1-1.3c0-0.4-0.3-0.8-0.3-1.2c0-0.4,0.3-0.8,0.3-1.2
						c0-0.4-0.2-0.9-0.1-1.3c0.1-0.4,0.5-0.7,0.6-1.1c0.1-0.4,0-0.9,0.1-1.3c0.2-0.4,0.6-0.6,0.8-1c0.2-0.4,0.2-0.9,0.4-1.2
						c0.2-0.3,0.7-0.5,1-0.8c0.3-0.3,0.3-0.8,0.6-1.1c0.3-0.3,0.8-0.4,1.1-0.6c0.3-0.3,0.5-0.7,0.8-1c0.3-0.2,0.8-0.2,1.2-0.4
						c0.4-0.2,0.6-0.6,1-0.8c0.4-0.2,0.9,0,1.3-0.1c0.4-0.1,0.7-0.5,1.1-0.6c0.4-0.1,0.8,0.1,1.3,0.1c0.4,0,0.8-0.3,1.2-0.3
						c0.4,0,0.8,0.3,1.2,0.3c0.4,0,0.9-0.2,1.3-0.1c0.4,0.1,0.7,0.5,1.1,0.6c0.4,0.1,0.9,0,1.3,0.1c0.4,0.2,0.6,0.6,1,0.8
						c0.4,0.2,0.9,0.2,1.2,0.4c0.3,0.2,0.5,0.7,0.8,1c0.3,0.3,0.8,0.3,1.1,0.6c0.3,0.3,0.4,0.8,0.6,1.1c0.3,0.3,0.7,0.5,1,0.8
						c0.2,0.3,0.2,0.8,0.4,1.2c0.2,0.4,0.6,0.6,0.8,1c0.2,0.4,0,0.9,0.1,1.3c0.1,0.4,0.5,0.7,0.6,1.1c0.1,0.4-0.1,0.8-0.1,1.3
						C287.1,262.4,287.4,262.8,287.4,263.2z"/>
				</g>
			</g>
			<circle class="st8" cx="274.8" cy="263.2" r="10.3"/>
			<circle class="st9" cx="274.8" cy="263.2" r="7.6"/>
		</g>
		<g>
			<g>
				<g>
					<path class="st6" d="M325.3,263.2c0,0.4-0.3,0.8-0.3,1.2c0,0.4,0.2,0.9,0.1,1.3c-0.1,0.4-0.5,0.7-0.6,1.1
						c-0.1,0.4,0,0.9-0.1,1.3c-0.2,0.4-0.6,0.6-0.8,1c-0.2,0.4-0.2,0.9-0.4,1.2c-0.2,0.3-0.7,0.5-1,0.8c-0.3,0.3-0.3,0.8-0.6,1.1
						c-0.3,0.3-0.8,0.4-1.1,0.6c-0.3,0.3-0.5,0.7-0.8,1c-0.3,0.2-0.8,0.2-1.2,0.4c-0.4,0.2-0.6,0.6-1,0.8c-0.4,0.2-0.9,0-1.3,0.1
						c-0.4,0.1-0.7,0.5-1.1,0.6c-0.4,0.1-0.8-0.1-1.3-0.1c-0.4,0-0.8,0.3-1.2,0.3s-0.8-0.3-1.2-0.3c-0.4,0-0.9,0.2-1.3,0.1
						c-0.4-0.1-0.7-0.5-1.1-0.6c-0.4-0.1-0.9,0-1.3-0.1c-0.4-0.2-0.6-0.6-1-0.8c-0.4-0.2-0.9-0.2-1.2-0.4c-0.3-0.2-0.5-0.7-0.8-1
						c-0.3-0.3-0.8-0.3-1.1-0.6c-0.3-0.3-0.4-0.8-0.6-1.1c-0.3-0.3-0.7-0.5-1-0.8c-0.2-0.3-0.2-0.8-0.4-1.2c-0.2-0.4-0.6-0.6-0.8-1
						c-0.2-0.4,0-0.9-0.1-1.3c-0.1-0.4-0.5-0.7-0.6-1.1c-0.1-0.4,0.1-0.8,0.1-1.3c0-0.4-0.3-0.8-0.3-1.2c0-0.4,0.3-0.8,0.3-1.2
						c0-0.4-0.2-0.9-0.1-1.3c0.1-0.4,0.5-0.7,0.6-1.1c0.1-0.4,0-0.9,0.1-1.3c0.2-0.4,0.6-0.6,0.8-1c0.2-0.4,0.2-0.9,0.4-1.2
						c0.2-0.3,0.7-0.5,1-0.8c0.3-0.3,0.3-0.8,0.6-1.1c0.3-0.3,0.8-0.4,1.1-0.6c0.3-0.3,0.5-0.7,0.8-1c0.3-0.2,0.8-0.2,1.2-0.4
						c0.4-0.2,0.6-0.6,1-0.8c0.4-0.2,0.9,0,1.3-0.1c0.4-0.1,0.7-0.5,1.1-0.6c0.4-0.1,0.8,0.1,1.3,0.1c0.4,0,0.8-0.3,1.2-0.3
						s0.8,0.3,1.2,0.3c0.4,0,0.9-0.2,1.3-0.1c0.4,0.1,0.7,0.5,1.1,0.6c0.4,0.1,0.9,0,1.3,0.1c0.4,0.2,0.6,0.6,1,0.8
						c0.4,0.2,0.9,0.2,1.2,0.4c0.3,0.2,0.5,0.7,0.8,1c0.3,0.3,0.8,0.3,1.1,0.6c0.3,0.3,0.4,0.8,0.6,1.1c0.3,0.3,0.7,0.5,1,0.8
						c0.2,0.3,0.2,0.8,0.4,1.2c0.2,0.4,0.6,0.6,0.8,1c0.2,0.4,0,0.9,0.1,1.3c0.1,0.4,0.5,0.7,0.6,1.1c0.1,0.4-0.1,0.8-0.1,1.3
						C325,262.4,325.3,262.8,325.3,263.2z"/>
					<path class="st7" d="M325.3,263.2c0,0.4-0.3,0.8-0.3,1.2c0,0.4,0.2,0.9,0.1,1.3c-0.1,0.4-0.5,0.7-0.6,1.1
						c-0.1,0.4,0,0.9-0.1,1.3c-0.2,0.4-0.6,0.6-0.8,1c-0.2,0.4-0.2,0.9-0.4,1.2c-0.2,0.3-0.7,0.5-1,0.8c-0.3,0.3-0.3,0.8-0.6,1.1
						c-0.3,0.3-0.8,0.4-1.1,0.6c-0.3,0.3-0.5,0.7-0.8,1c-0.3,0.2-0.8,0.2-1.2,0.4c-0.4,0.2-0.6,0.6-1,0.8c-0.4,0.2-0.9,0-1.3,0.1
						c-0.4,0.1-0.7,0.5-1.1,0.6c-0.4,0.1-0.8-0.1-1.3-0.1c-0.4,0-0.8,0.3-1.2,0.3s-0.8-0.3-1.2-0.3c-0.4,0-0.9,0.2-1.3,0.1
						c-0.4-0.1-0.7-0.5-1.1-0.6c-0.4-0.1-0.9,0-1.3-0.1c-0.4-0.2-0.6-0.6-1-0.8c-0.4-0.2-0.9-0.2-1.2-0.4c-0.3-0.2-0.5-0.7-0.8-1
						c-0.3-0.3-0.8-0.3-1.1-0.6c-0.3-0.3-0.4-0.8-0.6-1.1c-0.3-0.3-0.7-0.5-1-0.8c-0.2-0.3-0.2-0.8-0.4-1.2c-0.2-0.4-0.6-0.6-0.8-1
						c-0.2-0.4,0-0.9-0.1-1.3c-0.1-0.4-0.5-0.7-0.6-1.1c-0.1-0.4,0.1-0.8,0.1-1.3c0-0.4-0.3-0.8-0.3-1.2c0-0.4,0.3-0.8,0.3-1.2
						c0-0.4-0.2-0.9-0.1-1.3c0.1-0.4,0.5-0.7,0.6-1.1c0.1-0.4,0-0.9,0.1-1.3c0.2-0.4,0.6-0.6,0.8-1c0.2-0.4,0.2-0.9,0.4-1.2
						c0.2-0.3,0.7-0.5,1-0.8c0.3-0.3,0.3-0.8,0.6-1.1c0.3-0.3,0.8-0.4,1.1-0.6c0.3-0.3,0.5-0.7,0.8-1c0.3-0.2,0.8-0.2,1.2-0.4
						c0.4-0.2,0.6-0.6,1-0.8c0.4-0.2,0.9,0,1.3-0.1c0.4-0.1,0.7-0.5,1.1-0.6c0.4-0.1,0.8,0.1,1.3,0.1c0.4,0,0.8-0.3,1.2-0.3
						s0.8,0.3,1.2,0.3c0.4,0,0.9-0.2,1.3-0.1c0.4,0.1,0.7,0.5,1.1,0.6c0.4,0.1,0.9,0,1.3,0.1c0.4,0.2,0.6,0.6,1,0.8
						c0.4,0.2,0.9,0.2,1.2,0.4c0.3,0.2,0.5,0.7,0.8,1c0.3,0.3,0.8,0.3,1.1,0.6c0.3,0.3,0.4,0.8,0.6,1.1c0.3,0.3,0.7,0.5,1,0.8
						c0.2,0.3,0.2,0.8,0.4,1.2c0.2,0.4,0.6,0.6,0.8,1c0.2,0.4,0,0.9,0.1,1.3c0.1,0.4,0.5,0.7,0.6,1.1c0.1,0.4-0.1,0.8-0.1,1.3
						C325,262.4,325.3,262.8,325.3,263.2z"/>
				</g>
			</g>
			<circle class="st8" cx="312.7" cy="263.2" r="10.3"/>
			<circle class="st9" cx="312.7" cy="263.2" r="7.6"/>
		</g>
		<ellipse class="st10" cx="155.7" cy="261.9" rx="18.1" ry="8.9"/>
	</g>
	<path class="st0" d="M407.7,316c0,0-27.8-12.2-42-14.3c-16.2-0.3-36.7-0.2-39.5,0.2c-1.2,3.5-3.7,10-5.7,11.5
		c-1.2,0.9-2.8,1.4-4.6,1.8l0,9.7c0,0-10.1,0.2-13.2,0.1c-3.2-0.2-13.2,0.4-20.8,1.1c-7.6,0.7-16.6,1-22.3,1.1
		c-5.8,0.1-17.6-1.1-24.3-1.6s-22.5-0.8-24.2-0.8c-1.7,0-1.8-0.9-1.8-0.9l-0.1-8.8c-0.9-0.1-1.9-0.3-2.8-0.5
		c-5.6-1.1-6.6-7.5-7.7-10.1c-0.4-1.1-0.8-2-1-2.9c0,0-33.8-0.4-39.2,0c-6.3,1.5-37.7,11-42.7,14.2c0,0-3.6,1.6-4.3,1.9
		c0,0-38.1,16.9-63.1,36.4c-5.2,1.5-27.8,9.8-31.5,11.1s-10.1,3.2-12.2,6s-2.5,3.9-2.5,5.1s0.1,12.1,0.5,18.6S4,417,4.5,420.1
		s0.6,6.9,7.8,9.6s21,7.5,21,7.5s1.9,3,5.8,4.8s25.9,10.8,35.4,13.4s24.9,5.8,34.1,6.8s21,1.8,21,1.8s48.9,10.2,83.9,11.8
		s63.6,2.5,95.4-0.1s61.2-5.2,86.6-11.9c12.5-0.5,34.8-2.5,47.5-6.1s32.8-11,37.9-13.1s8.9-3.2,10.4-6c2.2-1,17.1-6.4,19.6-7.4
		c2.5-1,4.2-1,6-2.6s4.8-4.9,5-6.6s0.4-7.5,0.5-11s1.1-28.5,1-29.6s-0.4-4.9-1.9-7.4s-4.6-4.4-9.5-6.4c-4.9-2-30.2-11-35.2-12.6
		c-4.4-3.1-19.2-13.9-28.8-18.8C447.8,336,428.3,323.8,407.7,316z"/>
	<path class="st4" d="M169.8,304.6c-30.9,9.5-62.1,33.1-68,38.2s-20.2,17.8-24.8,22.8s-4.8,12.8-4.6,15.4s0.5,42.8,0.5,45.8
		s-0.1,6.2,1.2,11.2s5.1,7,6.5,7.8s7.1,3.6,10.9,5.4s13.4,6.5,24.4,9.5s21.2,3.1,29.1,2.6c-17.5-5.4-55.7-22.4-58.2-23.6
		s-2.5-1.1-5-5.1s-1.6-6.5-1.9-16.6s-0.1-35.8,0-38.1s0.9-2.8,1.4-3.8s1-2.6,2.8-3.9c6.8-4.8,41.6-23.1,68.2-33s51.4-14.6,51.4-14.6
		v-10.9"/>
	<path class="st4" d="M126.3,312.7c0,0-5.9,3.6,0.9,3.1c6.7-0.5,12.1-2.4,15.4-3.2c4.2-1.1,14.9-5.4,8.2-5.9
		c-5.5-0.4-11.4,1.1-14.2,2.1S128.5,311.5,126.3,312.7z"/>
	<path class="st4" d="M47.3,354.5c0,0-13.4,9.2-15.4,11.5s-4.1,5.2-4.1,11.2s1.9,49,1.9,50.9s0.1,6.5,3.5,9.1"/>
	<path class="st4" d="M2.2,379c0,0,1.4,1,4.4,1.2s19.5,1.9,21,1.9c0,0.8,0,0.4,1.4,0.4s15.6,0.5,20.8,0.8s19.1,0.5,22.5,0.6
		c3.4-0.1,6.1-0.1,7.4-0.1c2.2,0.1,7.2,0.4,11.1,0.4s67.7,0.6,77.2,0.8s109.3,0.5,127.3,0.4s79.5,0,95.2-0.2s50.6-0.8,53-0.8
		c1.2,0.1,6.1,0.2,7.4,0c1.6-0.1,19.5-0.8,26.1-1s17.1-0.2,19.1-0.4c0.2-0.6,0.2-0.6,0.2-0.6s0.5,0.1,1.8,0s12.6-0.6,17.4-1.2
		c4.8-0.6,6.1-0.6,7.4-1.1"/>
	<path class="st11" d="M346.8,301.5c7.8,2.6,30.9,14.6,47,24s39.8,31.2,45.5,37s9.2,11.8,9.5,15.9s0.1,18.5,0.4,28.8
		s0.2,23-0.4,28.5s-4.4,8.4-6,9.2s-10.9,5.4-15.8,7.9s-7.1,3.9-20.9,8s-26.4,2.2-26.4,2.2c9-2.1,43.2-16.5,48-18.9
		s12.5-5.9,12.5-5.9s2.8-5.5,3.5-8c0.1-2.5-0.1-29.9-0.1-29.9c0-6.1-0.8-20-0.8-20.8s-1.8-4.5-3.4-6.8c-2-1.9-16.9-10.2-39.2-21.5
		s-49.4-19-56.8-20.9s-23.1-5-23.1-5l0.2-11.9"/>
	<path class="st11" d="M375.7,306.6c-1.4-0.1-6.5,0.2-3.5,2.4s9.1,4.1,13.9,5.2s21,2.9,11.2-1.5S378.8,306.7,375.7,306.6z"/>
	<path class="st11" d="M476.8,355c0,0,10,7.5,13,9.6c3.4,2.4,6.9,4,6.8,13.4s-1.2,35.4-1.5,41.2s-1,15-4,19.1"/>
	<path class="st11" d="M514.5,377.1c0,0,1.2,1.1,1.1,2.4s-0.1,37.1-0.4,42.2c0,0,0.4,2.9-3,3.6c0,0-14.4,3-16,3.4"/>
	<path class="st11" d="M28.6,371.2c-3.4,0-20.4-0.8-21.5-1.9"/>
	<path class="st11" d="M439.6,372.9c-1.4,0.5-12.9,0.4-20.8,0.4s-36.8,0.1-66.4,0.4s-90.6,0.4-127.6,0.1s-122.5-0.5-127.2-0.4
		s-14-0.4-14-0.4"/>
	<path class="st11" d="M496.3,371.7c0,0,18.4-0.1,20.7-1.5"/>
	<line class="st12" x1="451.8" y1="376.4" x2="493.7" y2="375.2"/>
	<line class="st12" x1="31.2" y1="375.2" x2="70.2" y2="376.7"/>
	<path class="st12" d="M80.6,430.5c0,0,7,0.5,18.3,1.2c11.3,0.7,45.7,2.2,89.8,2.8s56.3,0.5,95.8,0.3c39.5-0.2,65.8,0.3,93-0.7
		c27.2-1,58.5-2,60.2-2.2c1.7-0.2,5.2-1.2,6.7-2"/>
	<path class="st12" d="M440.4,437.5c0,0-16.5,1.3-25,1.3c0,0-76.2,2-104.2,2.3c-28,0.3-99.8,0.2-127.5-0.5
		c-27.7-0.7-77-2.3-83.3-2.5c-6.3-0.2-12.2-0.8-13.2-0.8s-2.5,1-2.5,1"/>
	<path class="st12" d="M37.6,438.3c1.3,0.5,4.2,0.7,7.8,1c3.7,0.3,21.8,1.5,23.7,1.2"/>
	<path class="st12" d="M450.6,439.2c0,0,1,1.7,3,1.7s29.5-0.8,31.5-1c2-0.2,3.3-1.7,4-2"/>
	<path class="st12" d="M28.3,430.1c0,0-9.2-1.9-12.9-3.2s-3.2-3.8-3.4-5.2s-0.8-14-1-18.4S10.7,383,10.7,383s-0.2-3.8-0.2-4.8
		s1.3-2.3,2-2.3"/>
</g>
<g id="Layer_2">
	<g>
		<line class="st13" x1="275.2" y1="6.3" x2="275.2" y2="79"/>
		<line class="st14" x1="275.2" y1="84.2" x2="275.2" y2="93.6"/>
	</g>
	<g>
		<line class="st15" x1="275.2" y1="5" x2="275.2" y2="79.9"/>
		<line class="st14" x1="275.2" y1="84.2" x2="275.2" y2="93.6"/>
	</g>
	<g>
		<g>
			<g>
				<g>
					<polyline class="st16" points="278.5,180.7 277.5,182.7 278.2,189.9 277,191.2 273,191.2 271.7,189.9 272.5,182.7 271.5,180.7 
											"/>
					<rect x="271.5" y="151" class="st16" width="7" height="19"/>
					<rect x="268.7" y="150.2" class="st16" width="12.8" height="2"/>
					<rect x="271.5" y="171.7" class="st16" width="6.9" height="5.3"/>
					<rect x="271.5" y="178.7" class="st16" width="6.9" height="2"/>
					<polygon class="st16" points="272.1,178.8 277.9,178.9 277.9,177.2 272.1,177.2 					"/>
					<polygon class="st16" points="272.1,171.7 277.9,171.7 277.9,170 272.1,170 					"/>
					<polyline class="st16" points="278.2,189.9 277,191.2 273,191.2 271.7,189.9 					"/>
					<g>
						<polygon class="st16" points="278.8,76.8 271.7,76.9 268.3,107.2 282.6,107.2 						"/>
						<polygon class="st16" points="283,107.2 283,102.5 277.1,102.6 277.1,100.6 282.9,100.6 282.5,96 277.1,96.1 277.1,93.7 
							282.3,93.7 282.1,90 277.1,90 277.1,87.9 281.9,87.9 281.5,83.6 277.1,83.6 277.1,81.7 281.4,81.7 281,76.8 269.8,76.9 
							269.5,81.7 273.5,81.7 273.5,83.7 269.3,83.7 269,87.9 273.5,87.9 273.5,90 268.8,90 268.5,93.8 273.5,93.7 273.5,96.1 
							268.3,96.1 268,100.6 273.5,100.6 273.5,102.6 267.8,102.6 267.8,107.2 						"/>
					</g>
					<polygon class="st16" points="267,107.2 267,150.3 283.8,150.3 283.8,107.2 					"/>
				</g>
			</g>
		</g>
	</g>
	<g>
		<polygon class="st17" points="263.1,231.7 270.8,235 270.8,196.4 278.9,196.4 278.9,235 286.6,231.7 274.9,259.5 		"/>
		<path class="st6" d="M278.3,196.9v39l7.2-3.1l-10.7,25.2l-10.7-25.2l7.2,3.1v-39H278.3 M279.5,195.8h-1.1h-6.9h-1.1v1.1v37.2
			l-5.6-2.4l-2.6-1.1l1.1,2.6l10.7,25.2l1.1,2.5l1.1-2.5l10.7-25.2l1.1-2.6l-2.6,1.1l-5.6,2.4v-37.2V195.8L279.5,195.8z"/>
	</g>
	<g>
		<path class="st17" d="M328.2,57.2c-2.2,0-4.2-1.2-5.2-3.1h-53.9v-5.7H323c1-1.9,3-3.1,5.2-3.1c3.3,0,6,2.7,6,6
			C334.2,54.5,331.5,57.2,328.2,57.2L328.2,57.2z"/>
		<path class="st6" d="M328.2,46.5c2.6,0,4.7,2.1,4.7,4.7c0,2.6-2.1,4.7-4.7,4.7c-2,0-3.7-1.3-4.4-3.1h-53.4v-3.1h53.4
			C324.5,47.8,326.2,46.5,328.2,46.5 M328.2,43.9c-2.4,0-4.6,1.2-5.9,3.1h-51.9h-2.6v2.6v3.1v2.6h2.6h51.9c1.3,1.9,3.5,3.1,5.9,3.1
			c4,0,7.3-3.3,7.3-7.3C335.5,47.2,332.2,43.9,328.2,43.9L328.2,43.9z"/>
	</g>
	<g>
		<path d="M341,54.9c0.7,0.4,2.1,1.2,4,1.2c1.5,0,2.8-0.8,2.8-2.7c0-1.3-0.8-1.9-2.4-2.8l-1.7-1c-1.8-1-3-2.5-3-4.9
			c0-3.3,2.8-5.1,5.9-5.1c2,0,3.4,0.5,3.9,0.7l-0.2,2.9c-0.8-0.3-1.9-0.8-3.5-0.8c-1.7,0-2.6,0.9-2.6,2.2c0,1.4,0.9,1.9,2,2.5l2,1.1
			c2.2,1.2,3.2,2.4,3.2,5c0,3.8-2.7,5.6-6.3,5.6c-1.9,0-3.3-0.3-4.3-0.8L341,54.9z"/>
		<path d="M355.3,41.9l3.3-1v3.9h2.8v2.4h-2.8v7.1c0,1.5,0.5,1.9,1.5,1.9c0.6,0,1-0.2,1.3-0.3v2.4c-0.5,0.2-1.2,0.5-2.2,0.5
			c-2.5,0-3.9-1.1-3.9-4v-7.5h-2.2v-2.4h2.2V41.9z"/>
		<path d="M373.6,57.8c-0.7,0.3-2.1,0.9-4.1,0.9c-4.4,0-6.4-3.2-6.4-6.9c0-4.1,2.2-7.3,5.7-7.3c3,0,5.5,1.7,5.5,7.4v0.6h-8
			c0,2.4,0.9,3.8,3.5,3.8c2,0,3-0.6,3.6-1.1L373.6,57.8z M371.1,50.4c0-2.4-0.8-3.7-2.3-3.7c-1.7,0-2.5,1.8-2.5,3.7H371.1z"/>
		<path d="M377,47c0-0.9,0-1.7-0.1-2.3h3c0,0.8,0.1,1.7,0.1,2.5h0.1c0.4-1.1,1.4-2.7,3.5-2.7c0.2,0,0.4,0.1,0.6,0.1v3.1
			c-0.3-0.1-0.6-0.1-0.9-0.1c-1.4,0-2.9,0.8-2.9,3.4v7.5H377V47z"/>
		<path d="M396.2,57.8c-0.7,0.3-2.1,0.9-4.1,0.9c-4.4,0-6.4-3.2-6.4-6.9c0-4.1,2.2-7.3,5.7-7.3c3,0,5.5,1.7,5.5,7.4v0.6h-8
			c0,2.4,0.9,3.8,3.5,3.8c2,0,3-0.6,3.6-1.1L396.2,57.8z M393.7,50.4c0-2.4-0.8-3.7-2.3-3.7c-1.7,0-2.5,1.8-2.5,3.7H393.7z"/>
		<path d="M405.1,44.5c2.8,0,6,1.5,6,7.1c0,5.8-3.2,7.1-6,7.1s-6.1-1.3-6.1-7.1C399.1,46,402.3,44.5,405.1,44.5z M405.1,56.4
			c2.1,0,2.6-2.5,2.6-4.8c0-2.3-0.5-4.7-2.6-4.7s-2.6,2.4-2.6,4.7C402.5,53.9,403,56.4,405.1,56.4z"/>
		<path d="M419.8,39.6h2.4l-4.8,19.2h-2.2L419.8,39.6z"/>
		<path d="M441.8,42.9L441.8,42.9l-4.7,15.6h-2.4l-4.5-15.6h-0.1v15.6H427V39.8h5.1l3.9,13.9h0.1l3.9-13.9h4.9v18.7h-3.1V42.9z"/>
		<path d="M454.1,44.5c2.8,0,6,1.5,6,7.1c0,5.8-3.2,7.1-6,7.1s-6.1-1.3-6.1-7.1C448,46,451.3,44.5,454.1,44.5z M454.1,56.4
			c2.1,0,2.6-2.5,2.6-4.8c0-2.3-0.5-4.7-2.6-4.7s-2.6,2.4-2.6,4.7C451.4,53.9,452,56.4,454.1,56.4z"/>
		<path d="M462.8,47c0-0.9,0-1.7-0.1-2.3h3.1c0,0.7,0.1,1.4,0.1,2.1h0.1h0c0.5-0.8,1.4-2.3,3.7-2.3c3.1,0,4.1,2.3,4.1,5.1v8.9h-3.3
			v-8.3c0-2.1-0.5-3-1.9-3c-1.7,0-2.4,1.5-2.4,3.2v8h-3.3V47z"/>
		<path d="M482.3,44.5c2.8,0,6,1.5,6,7.1c0,5.8-3.2,7.1-6,7.1s-6.1-1.3-6.1-7.1C476.3,46,479.5,44.5,482.3,44.5z M482.3,56.4
			c2.1,0,2.6-2.5,2.6-4.8c0-2.3-0.5-4.7-2.6-4.7s-2.6,2.4-2.6,4.7C479.7,53.9,480.2,56.4,482.3,56.4z"/>
		<path d="M353.1,89.1c-0.7,0.4-2.4,0.7-4,0.7c-5.7,0-8.6-4.1-8.6-9.6c0-5.5,2.9-9.6,8.5-9.6c1.9,0,3.5,0.5,4.1,0.8l-0.2,3.1
			c-0.7-0.3-1.8-1-3.5-1c-2.8,0-5.3,1.9-5.3,6.8c0,4.8,2.4,6.8,5.3,6.8c1.7,0,2.8-0.4,3.5-1L353.1,89.1z"/>
		<path d="M356.3,76.5c0.9-0.4,2.2-1,4.4-1c4.3,0,5.3,2.1,5.3,5.5v6c0,1,0.1,1.9,0.2,2.4h-3c-0.2-0.5-0.2-1.2-0.2-1.9h-0.1
			c-0.8,1.1-1.9,2.1-3.9,2.1c-2.1,0-4.1-1.5-4.1-4c0-3.7,3-4.7,7.2-4.7h0.7v-0.5c0-1.4-0.7-2.6-2.6-2.6c-1.7,0-3.1,0.8-3.8,1.3
			L356.3,76.5z M362.8,82.8h-0.3c-2.8,0-4.5,0.6-4.5,2.6c0,1.3,0.8,2.1,2.1,2.1c2,0,2.7-1.5,2.7-3.9V82.8z"/>
		<path d="M372.4,69.4v8.3h0.1c0.5-1.1,1.6-2.2,3.6-2.2c3,0,4.8,2.6,4.8,7.1c0,3.8-1.4,7.1-4.8,7.1c-2.1,0-3.1-1.2-3.7-2.4h-0.1
			c0,0.9-0.1,1.7-0.1,2.1h-3.1c0.1-0.5,0.1-1.4,0.1-2.4V69.4H372.4z M375,87.3c1.9,0,2.4-1.6,2.4-4.8c0-2.8-0.6-4.5-2.5-4.5
			c-1.8,0-2.6,2-2.6,4.6C372.4,85.2,373,87.3,375,87.3z"/>
		<path d="M383.7,69.4h3.3v20.1h-3.3V69.4z"/>
		<path d="M400.4,88.8c-0.7,0.3-2.1,0.9-4.1,0.9c-4.4,0-6.4-3.2-6.4-6.9c0-4.1,2.2-7.3,5.7-7.3c3,0,5.5,1.7,5.5,7.4v0.6h-8
			c0,2.4,0.9,3.8,3.5,3.8c2,0,3-0.6,3.6-1.1L400.4,88.8z M397.9,81.4c0-2.4-0.8-3.7-2.3-3.7c-1.7,0-2.5,1.8-2.5,3.7H397.9z"/>
	</g>
	<g>
		<path class="st6" d="M282.7,7.8c0,0-3-2.6-6.8,0c-3.7,2.6-7.9,0-7.9,0V1.2c0,0,4.1,2.6,7.9,0c3.7-2.6,6.8,0,6.8,0V7.8z"/>
		<path class="st18" d="M268.1,7.8c0,0,4.1,2.6,7.9,0c3.7-2.6,6.8,0,6.8,0"/>
		<path class="st18" d="M268.1,1.2c0,0,4.1,2.6,7.9,0c3.7-2.6,6.8,0,6.8,0"/>
	</g>
	<g>
	</g>
	<g>
	</g>
	<g>
	</g>
	<g>
	</g>
	<g>
	</g>
	<g>
	</g>
	<g>
	</g>
	<g>
	</g>
	<g>
	</g>
	<g>
	</g>
	<g>
	</g>
	<g>
	</g>
</g>
</svg>
