<?xml version="1.0" encoding="utf-8"?>
<!-- Generator: Adobe Illustrator 20.0.0, SVG Export Plug-In . SVG Version: 6.00 Build 0)  -->
<svg version="1.1" xmlns="http://www.w3.org/2000/svg" xmlns:xlink="http://www.w3.org/1999/xlink" x="0px" y="0px"
	 viewBox="0 0 172 30" style="enable-background:new 0 0 172 30;" xml:space="preserve">
<style type="text/css">
	.st0{fill:#FFFFFF;}
</style>
<g id="Layer_3">
</g>
<g id="Layer_1">
</g>
<g id="Layer_2">
	<g>
		<path class="st0" d="M33.2,24.2c-0.1,0.1-0.4,0.2-1.2,0.3c-0.9,0.1-1.2-0.1-1.2-0.1c1.2-0.7,1.7-1.3,1.8-1.5
			c0.1-0.2-0.1-0.2-0.2-0.2c-0.1,0-0.5,0.2-1.4,0.2c-0.4,0-0.9-0.1-1.2-0.1c0.2-0.3,0.4-0.6,0.5-0.7c0.2-0.4,0.9-1.6,1-1.7
			c0.1-0.1,0.5-0.4,1-0.7c0.6-0.4,0.5-1.1,0.4-1.4c-0.1-0.2-0.4-0.5-0.4-0.5l0,0c0.2-0.2,0.5-0.4,0.6-0.6c0.2-0.3,0.6-1,0.2-1.8
			c-0.4-0.8-1.1-1.7-2.4-2.1c-1.3-0.4-4-0.7-6.4-0.5c-2.4,0.2-4.4,0.9-6.9,2c-2.6,1.1-4.7,1.9-6,1.5C10,15.7,9.2,14.8,9.2,14
			c0-0.7,0.7-1.1,0.8-1.2c0.1-0.1,0.6,0.2,0.8,0.3c0.2,0.1,1.2,0.4,2.4,0c1.2-0.5,2.3-1.6,2.9-3c0.6-1.3,0.5-1.9,0.5-1.9
			s-0.1,0-0.4,0.1c-0.3,0.1-1,0.2-1.4,0.1c-0.4-0.1-1.6-0.6-2.7-0.8c-1-0.2-2,0.1-2,0.1s0-0.5-0.2-0.9C9.8,6.4,9.5,6,8.8,5.5
			C8.2,5.1,7.1,4.7,6.6,4.3c-0.5-0.4-0.4-1-0.3-1.2c0-0.2-0.2-0.2-0.4-0.1C5.7,3,5.4,3.2,5,3.6C4.6,4,3.8,5.1,3.6,6.8
			c-0.2,1.7,0.5,2.8,1,3.3c0,0,0,0,0,0c-0.1,0.9,0,2,0,2s-1.1-1.5-2-3.6C1.8,6.2,1.8,5.8,1.7,5.6c0-0.2-0.2-0.2-0.3,0
			C1.4,5.8,1.1,6.7,1.2,8.3c0.1,1.5,0.9,4.9,0.9,4.9c-0.7-0.8-1.8-3.4-1.8-3.5c0-0.1-0.1-0.2-0.2-0.1C0,9.6,0,9.6,0,10
			c0,0.4,0.1,1.8,0.8,4.8c0.7,3,2.6,9.8,10.3,13.4c6.9,3.3,14.6,1.2,17,0.5c2.4-0.7,3.2-1.4,3.3-1.5c0.1-0.1,0.1-0.2-0.1-0.2
			c-0.2,0-0.4,0.1-1.7,0.2c-1.3,0-1.7-0.1-1.7-0.1s1.5-0.1,2.9-0.7c1.5-0.7,2.3-1.6,2.4-1.9C33.4,24.2,33.3,24.1,33.2,24.2z
			 M28.6,23.5C28.6,23.5,28.6,23.5,28.6,23.5c0,0-0.1,0.1-0.1,0.1c0,0,0,0,0,0c0,0-0.1,0.1-0.1,0.1c0,0,0,0,0,0c0,0-0.1,0.1-0.1,0.1
			c0,0,0,0,0,0c0,0-0.1,0.1-0.1,0.1c0,0,0,0,0,0c0,0-0.1,0.1-0.1,0.1c0,0,0,0,0,0c0,0-0.1,0.1-0.1,0.1c0,0,0,0,0,0
			c0,0-0.1,0.1-0.1,0.1c0,0,0,0,0,0c0,0-0.1,0.1-0.2,0.1c0,0,0,0,0,0c0,0,0,0,0,0c0,0,0-0.1,0.1-0.1c0,0,0,0,0,0c0,0,0,0,0-0.1
			c0,0,0,0,0,0c0,0,0-0.1,0-0.1c0,0,0,0,0,0c0-0.1,0.1-0.1,0.1-0.2c0,0,0,0,0,0c0,0,0-0.1,0.1-0.1c0,0,0,0,0,0
			c0.1-0.1,0.1-0.3,0.2-0.5c0,0,0,0,0,0c0.2-0.3,0.3-0.7,0.5-1.1c0,0,0,0,0,0c0.1-0.1,0.1-0.2,0.2-0.4c0,0,0,0,0,0
			c0,0,0-0.1,0.1-0.1c0,0,0,0,0,0c0-0.1,0-0.1,0.1-0.2c0,0,0,0,0,0c0,0,0-0.1,0-0.1c0,0,0,0,0,0c0,0,0-0.1,0.1-0.1
			c0.4-1.1,0.6-1.8,0.6-1.8c0-0.1-0.1-0.1-0.2,0c0,0,0,0,0,0c0,0,0,0,0,0c0,0,0,0,0,0c0,0,0,0,0,0c0,0,0,0,0,0.1c0,0,0,0,0,0
			c0,0,0,0,0,0.1c0,0,0,0,0,0c0,0,0,0,0,0.1c0,0,0,0,0,0c0,0,0,0,0,0.1c0,0,0,0,0,0c0,0,0,0.1,0,0.1c0,0,0,0,0,0c0,0,0,0,0,0.1
			c0,0,0,0,0,0.1c0,0,0,0,0,0.1c0,0,0,0.1,0,0.1c0,0,0,0,0,0.1c0,0,0,0.1,0,0.1c0,0,0,0,0,0c0,0.1-0.1,0.2-0.1,0.3c0,0,0,0,0,0
			c-0.1,0.1-0.1,0.2-0.2,0.4c0,0,0,0,0,0c-0.2,0.5-0.5,1-0.7,1.5c0,0.1-0.1,0.1-0.1,0.2c0,0,0,0,0,0c0,0.1-0.1,0.1-0.1,0.2
			c0,0,0,0,0,0c-0.1,0.1-0.2,0.3-0.2,0.4c0,0,0,0,0,0c0,0.1-0.1,0.1-0.1,0.2c0,0,0,0,0,0c0,0-0.1,0.1-0.1,0.1c0,0,0,0,0,0
			c0,0,0,0.1-0.1,0.1c0,0,0,0,0,0c0,0-0.1,0.1-0.1,0.1c-0.8,1.2-1.3,1.6-2.4,2.3c-1.9,1.2-3.2,1.5-4.1,1.6C19.9,28,18.8,28,18.8,28
			s1.9-1.1,3.9-2.8c0.1-0.1,0.2-0.1,0.2-0.2c0,0,0,0,0.1-0.1c0.1-0.1,0.1-0.1,0.2-0.2c0,0,0,0,0,0c0.1-0.1,0.1-0.1,0.2-0.2
			c0,0,0,0,0.1-0.1c0.1-0.1,0.1-0.1,0.2-0.2c0,0,0,0,0-0.1c0.1-0.1,0.1-0.1,0.2-0.2c0,0,0,0,0,0c0.1-0.1,0.1-0.1,0.2-0.2
			c0,0,0,0,0-0.1c0.1-0.1,0.1-0.1,0.2-0.2c0,0,0,0,0,0c0.1-0.1,0.1-0.1,0.2-0.2c0,0,0,0,0,0c0.1-0.1,0.1-0.1,0.2-0.2c0,0,0,0,0,0
			c0.1-0.1,0.1-0.1,0.2-0.2c0,0,0,0,0,0c0-0.1,0.1-0.1,0.1-0.2c0,0,0,0,0,0c0.1-0.1,0.2-0.3,0.3-0.4c0,0,0,0,0,0
			c0.1-0.1,0.2-0.3,0.3-0.4c0,0,0,0,0,0c0.2-0.3,0.3-0.5,0.5-0.7c0,0,0,0,0,0c0,0,0-0.1,0.1-0.1c0,0,0,0,0,0c0,0,0-0.1,0-0.1
			c0,0,0,0,0,0c0,0,0,0,0-0.1c0,0,0,0,0,0c0,0,0-0.1,0-0.1c0.5-0.8,0.7-1.7,0.8-1.8c0-0.1-0.1-0.1-0.1,0c0,0,0,0,0,0c0,0,0,0,0,0
			c0,0,0,0,0,0c0,0,0,0,0,0c-0.1,0.3-0.6,1.4-1.5,2.7v0c-0.1,0.1-0.1,0.2-0.2,0.3c0,0,0,0,0,0c-0.1,0.1-0.2,0.2-0.2,0.3c0,0,0,0,0,0
			c-0.1,0.1-0.2,0.2-0.2,0.3c0,0,0,0,0,0c-0.1,0.1-0.2,0.2-0.3,0.3c-1.8,1.8-4.6,4-6.1,4.5c-1.5,0.5-2,0.4-3.1,0.3
			c-1.1-0.1-2.5-0.8-2.5-0.8s1.8,0,4.3-1.5c2.5-1.4,4.3-3.5,5.3-4.8c0.9-1.1,1-1.7,1-1.7s-0.1-0.1-0.2,0c0,0,0,0,0,0.1c0,0,0,0,0,0
			c0,0,0,0,0,0c0,0,0,0,0,0c0,0,0,0,0,0c0,0,0,0.1-0.1,0.1c0,0,0,0,0,0c0,0-0.1,0.1-0.1,0.2c0,0,0,0,0,0c0,0,0,0.1,0,0.1
			c0,0,0,0,0,0c0,0.1-0.1,0.1-0.1,0.2c0,0,0,0,0,0c0,0,0,0.1-0.1,0.1c0,0,0,0,0,0c0,0.1-0.1,0.1-0.1,0.2c0,0,0,0,0,0
			c0,0,0,0.1-0.1,0.1c0,0,0,0,0,0c-0.1,0.1-0.1,0.2-0.2,0.2c0,0,0,0,0,0c0,0-0.1,0.1-0.1,0.1c-0.1,0.1-0.1,0.2-0.2,0.3c0,0,0,0,0,0
			c0,0-0.1,0.1-0.1,0.1c0,0,0,0,0,0c0,0-0.1,0.1-0.1,0.1c0,0,0,0,0,0c0,0-0.1,0.1-0.1,0.2c0,0,0,0,0,0c0,0-0.1,0.1-0.1,0.1
			c0,0,0,0-0.1,0.1c0,0-0.1,0.1-0.1,0.1c0,0,0,0-0.1,0.1c-0.1,0.1-0.1,0.1-0.2,0.2c-1.7,1.7-4.5,3.3-5.7,3.7
			c-1.3,0.4-2.8,0.7-3.6,0.5c-0.8-0.2-2.1-0.7-2.8-1.4C8.3,23.9,8,23.4,8,23.4s1.2,0.4,2.5,0.4c1.3,0,2.9-0.2,4.6-0.9
			c1.8-0.7,2.2-1.2,2.3-1.3c0.1-0.1-0.1,0-0.4,0.1c-0.2,0.1-1.2,1-4,1.3c-2.8,0.4-4.7-0.1-5.7-0.8c-1-0.8-1.2-1.4-1.2-1.4
			s0.6,0.2,1.2,0.3C8,21,8.7,21,9,21C9.3,21,9.5,21,9.5,21s1.4,0.3,2,0.3c1.5,0,2.9-0.4,2.9-0.5c-0.1-0.2-1.1,0.2-2.8,0.2
			c-1,0-1.2-0.2-1.2-0.2s0.6-0.3,1.1-0.6c0.6-0.4,1.1-0.7,1.5-0.8c0.4,0,0.6,0,0.6-0.1c0-0.1-0.2-0.3-0.5-0.3c-0.3,0-1,0.1-1.8,0.5
			c-0.7,0.4-1.7,0.9-3,0.9c-1.3-0.1-1.6-0.1-2.7-0.5c-1.1-0.5-1.9-1.5-2.1-1.8c-0.2-0.4-0.2-0.5,0.1-0.2C3.9,18,5.1,18.2,5.8,18
			c0.7-0.1,1.4-0.8,2.4-0.9c1-0.2,1.7-0.1,2.1,0c0.3,0.1,0.5,0.2,0.6,0.2c0.1,0-0.2-0.3-0.3-0.4c-0.2-0.1-0.8-0.3-1.7-0.2
			c-0.9,0-1.6,0.2-2.1,0.4c-0.5,0.2-1.1,0.4-1.2,0.5c-0.1,0-0.2,0-0.2,0s-0.1-0.8,0.1-1.6c0.2-0.8,1.1-2.7,1.4-3.2
			c0.3-0.5,0.5-1,0.4-1.3c-0.1-0.4-0.6-0.7-1-0.9c0,0-0.1,0-0.1-0.1c0,0,0,0,0,0c0,0,0,0-0.1,0c0,0,0,0,0,0
			c-0.3-0.2-0.8-0.6-1.2-1.1C4.7,9.1,4.6,8.9,4.5,8.7C4.1,7.8,4.1,6,4.6,5c0.4-1,1-1.6,1.1-1.6c0.1-0.1,0.1-0.1,0.1,0.2
			c0,0.2,0,0.7,0.5,1c0.5,0.4,1.4,0.7,1.9,1c0.5,0.3,1,1,1.1,1.5c0.1,0.4,0.1,0.7,0.3,0.9C9.8,8.2,10,8.2,10.4,8
			c0.3-0.1,0.8-0.3,1.3-0.2c0.5,0.1,1.3,0.4,2,0.7c0.7,0.3,1.3,0.4,1.7,0.4c0.4,0,0.7-0.2,0.7-0.2c0.1,0,0.1,0,0.1,0.2
			c-0.1,0.2-0.4,1.9-1.8,2.9c-1.4,1-2.3,0.9-2.9,0.8c-0.6-0.1-1.2-0.2-1.6-0.1c-0.4,0.2-0.9,0.6-1,1c-0.1,0.4,0,1.3,0.9,2.1
			c0.1,0.1,0.1,0.1,0.2,0.2l0,0h0c0.1,0,0.1,0.1,0.2,0.1c0,0,0,0,0,0c0.1,0,0.1,0.1,0.2,0.1c0,0,0,0,0,0c0.1,0,0.1,0.1,0.2,0.1
			c0,0,0,0,0,0c0.1,0,0.1,0.1,0.2,0.1l0,0h0c0.6,0.3,1.2,0.4,1.7,0.5c0.7,0.1,1.9-0.1,3.3-0.6c1.4-0.5,4-1.8,5.2-2.1
			c1.2-0.4,3.1-0.7,4.5-0.8c1.4-0.1,3.2,0,4.3,0.2c1.1,0.2,2.1,0.8,2.5,1.3c0.4,0.5,0.6,1.1,0.5,1.6c-0.1,0.6-0.5,0.9-0.6,1
			c-0.1,0.1-0.3,0.3-0.3,0.3l-0.4-0.2c0,0,0.4-0.4,0.4-0.7c0.1-0.3-0.1-1.2-1-1.6c-0.9-0.4-2.9-0.6-4.8-0.2
			c-1.8,0.3-4.3,1.5-5.7,2.2c-1.4,0.8-2.6,1.2-3.3,1c-0.6-0.2-1-0.4-1.1-0.5c-0.1-0.1-0.3,0-0.1,0.2c0.1,0.2,0.8,0.8,1.6,0.9
			c0.8,0.1,1.3-0.1,1.8-0.2c0.5-0.2,1.5-0.8,1.8-0.9c0.3-0.1,1.6-0.6,3.4-0.7c1.8-0.1,3.7,0,4.9,0.3c1.2,0.3,2.4,1,2.6,1.2
			c0.2,0.2,0.3,0.5,0.1,0.8c-0.2,0.3-0.6,0.4-0.8,0.6c-0.2,0.2-0.8,1.1-1.1,1.6c-0.3,0.6-0.6,1-0.9,1.4C29.1,23,28.9,23.2,28.6,23.5
			z"/>
		<path class="st0" d="M18.7,15.6c-0.3,0.1-0.7,0.4-0.6,0.9c0,0.5,0.6,0.6,0.9,0.6c0.3-0.1,0.5-0.3,0.5-0.8
			C19.4,15.8,19.1,15.6,18.7,15.6z"/>
		<path class="st0" d="M18.9,12.3c0,0,2.3-2.4,4.6-3.1c2.2-0.7,2.3,0.8,2.3,1.4c0,0.6,0,0.8-0.1,0.9c0,0.1,0.1,0.1,0.2,0
			c0.2-0.1,0.9-1,0.8-2.5c-0.1-1.5-2.6-1-3.8-0.3C21.7,9.5,20.5,10.3,18.9,12.3z"/>
		<path class="st0" d="M19,9.8c0,0,2.6-2.8,5.5-3.9c2.9-1.1,3.9,0.2,3.9,1.6c0,0.9-0.2,1.6-0.2,1.7c0,0.1,0.1,0.1,0.3,0
			c0.1-0.1,0.7-0.8,1.1-1.8c0.6-1.4-0.2-3.9-3.3-3.2C23.1,5,19.8,8.4,19,9.8z"/>
		<path class="st0" d="M19,7.3c0,0,2.3-2.7,5.6-4.3c3.4-1.6,5.8-1.1,6.7,0.3c0.9,1.4,0.1,3,0.1,3.1c-0.1,0.2,0.2,0.1,0.4-0.1
			c0.2-0.2,1.1-0.8,1.6-2.8c0.5-1.9-0.6-4.1-4.2-3.5C25.6,0.8,20.4,4.7,19,7.3z"/>
	</g>
	<path class="st0" d="M50.2,15.1l-0.5,0.1c0.2-0.4,0.3-0.6,0.3-0.8c0-0.5-0.5-0.8-1.2-0.8c-2,0-3.2,2.4-3.2,6.4c0,4.1,1,5.9,3.2,5.9
		c0.9,0,1.7-0.2,3-0.8c0,1.1-0.1,1.5-0.3,1.8c-0.5,0.6-2.1,1.1-3.7,1.1c-3.8,0-6-2.8-6-7.7c0-5.4,2.4-8.5,6.6-8.5
		c1.6,0,2.7,0.3,4.2,1.2C51.6,14.4,51.8,14.7,50.2,15.1z"/>
	<path class="st0" d="M59.2,22.2l-3.1,1.4c0.7,1.7,1.6,2.3,2.8,2.3c0.7,0,2.2-0.5,2.3-0.5c0.4,0,0.7,0.3,1.1,1.1
		C60.9,27.4,59.6,28,58,28c-3.3,0-5.4-2.5-5.4-6.3c0-3.5,2-5.8,4.9-5.8c1.4,0,2.5,0.4,3.8,2c0.2,0.3,0.3,0.3,0.6,0.5
		C61.6,20.6,61.2,21.3,59.2,22.2z M55.7,22l1.5-0.8c1.4-0.7,1.8-1.3,1.8-2c0-0.9-0.7-1.5-1.5-1.5c-1.2,0-1.9,1.2-1.9,3.1
		C55.6,21.1,55.6,21.4,55.7,22z"/>
	<path class="st0" d="M64.4,15.9c0-0.3,0-1.4,0-1.6c0-1.3,0.1-1.4,0.8-1.7c1.2-0.4,1.3-0.5,1.9-0.8v4.1c0,0,0.7,0.3,2.1,0.3
		c0.7,0,1.3,0,1.9-0.2c0,0-0.1,0.2-0.3,0.5c-0.6,1.4-0.9,1.6-2,1.6c-1,0-1.3-0.2-1.7-0.2v6.6c0,1.1,0.3,1.7,0.9,1.7
		c0.1,0,0.2,0,0.3-0.1l0.2-0.1c0.1,0,0.2,0,0.2,0c0.3,0,0.5,0.2,0.9,0.8c-1.1,0.9-1.9,1.3-3,1.3c-1.7,0-2.4-0.7-2.4-3.4v-6.9H64
		c-0.5,0-0.8,0-1.4,0.3C62.9,16.2,63,16,64.4,15.9z"/>
	<path class="st0" d="M76,20.3l0-0.8c-0.1-1.2-1-1.8-2.8-1.8c-0.6,0-1,0-2,0.2c0.2-0.3,0.2-0.4,0.3-0.7c0.3-1,0.6-1.3,2.5-1.3
		c1.4,0,2.6,0.3,3.4,1c0.9,0.7,1.2,1.6,1.2,3.9v3.6c0,1.4-0.2,1.8,1.2,1.8h0.1c-0.8,1.6-0.5,1.8-1.6,1.8l-0.8,0
		c-0.5,0-0.9,0-1.5,0.1c0-0.6,0.1-0.8,0.4-1.3l-0.1-0.1c-0.8,0.9-1.7,1.4-3,1.4c-2.1,0-3.5-1.7-3.5-4.1c0-2.5,1.6-4.3,3.8-4.3
		c1.1,0,1.7,0.3,2.5,1.3L76,20.3z M72.7,23.8v0.1c0,1.4,0.6,2.3,1.6,2.3c1,0,1.7-1,1.7-2.5c0-1.4-0.7-2.4-1.6-2.4
		C73.4,21.4,72.8,22.3,72.7,23.8z"/>
	<path class="st0" d="M86.7,19.3c0.2-0.3,0.3-0.5,0.3-0.7c0-0.6-0.5-1.1-1.3-1.1c-1.3,0-2.2,1.6-2.2,4c0,2.6,1.1,4.4,2.6,4.4
		c0.3,0,0.7-0.1,1-0.2c0.1,0,1-0.7,1.4-0.7c0.4,0,0.8,0.4,1.1,1.1C88.1,27.3,87,28,85.4,28c-3,0-5-2.4-5-6c0-3.7,2-6.1,5.1-6.1
		c1.9,0,3,0.5,4.1,1.6C88.9,19.2,88.7,19.1,86.7,19.3z"/>
	<path class="st0" d="M96.9,22.2l-3.2,1.4c0.7,1.8,1.6,2.4,2.9,2.4c0.7,0,2.2-0.5,2.3-0.5c0.4,0,0.7,0.3,1.1,1.1
		c-1.3,0.9-2.6,1.4-4.2,1.4c-3.3,0-5.4-2.5-5.4-6.3c0-3.5,2-5.9,5-5.9c1.4,0,2.5,0.4,3.8,2c0.2,0.3,0.3,0.4,0.6,0.5
		C99.3,20.6,98.9,21.3,96.9,22.2z M93.4,21.9l1.5-0.8c1.4-0.7,1.9-1.3,1.9-2c0-0.9-0.7-1.5-1.6-1.5c-1.2,0-1.9,1.2-1.9,3.2
		C93.3,21.1,93.3,21.4,93.4,21.9z"/>
	<path class="st0" d="M107.1,20.3l0-0.8c-0.1-1.2-1-1.8-2.8-1.8c-0.6,0-1,0-1.9,0.2c0.2-0.3,0.2-0.4,0.3-0.7c0.3-1,0.6-1.3,2.5-1.3
		c1.4,0,2.6,0.3,3.4,1c0.9,0.7,1.2,1.6,1.2,3.9v3.6c0,1.4-0.2,1.8,1.2,1.8h0.1c-0.8,1.6-0.5,1.8-1.6,1.8l-0.8,0
		c-0.5,0-0.9,0-1.5,0.1c0-0.6,0.1-0.8,0.4-1.3l-0.1-0.1c-0.8,0.9-1.7,1.4-3,1.4c-2.1,0-3.5-1.7-3.5-4.1c0-2.5,1.6-4.3,3.8-4.3
		c1.1,0,1.7,0.3,2.5,1.3L107.1,20.3z M103.8,23.8v0.1c0,1.4,0.6,2.3,1.6,2.3c1,0,1.7-1,1.7-2.5c0-1.4-0.7-2.4-1.6-2.4
		C104.5,21.4,103.8,22.3,103.8,23.8z"/>
	<g>
		<path class="st0" d="M119.9,23.7c-0.2,0.4-0.2,0.6-0.2,0.8c0,1,0.9,1.6,2.3,1.6c1.2,0,2.1-0.8,2.1-1.8c0-0.6-0.3-1.1-1-1.8l-1-0.9
			c-3.5-3-4.3-4-4.3-5.7c0-2.5,2.1-4.2,5.1-4.2c1.6,0,2.6,0.3,4.5,1.5c-0.8,1.5-1,1.7-2.9,2c0.2-0.3,0.3-0.5,0.3-0.7
			c0-0.6-0.8-1.1-1.9-1.1c-1.1,0-1.9,0.6-1.9,1.4c0,0.7,0.5,1.3,1.7,2.4l1.3,1.1c2.5,2.1,3.5,3.1,3.4,5.2c0,2.8-2.2,4.4-4.9,4.4
			c-1.9,0-3.8-0.6-5.6-2C118.3,23.7,117.6,23.9,119.9,23.7z"/>
		<path class="st0" d="M133.5,15.7c3.1,0,5,2.2,5,6.1c0,3.9-1.8,6.1-5,6.1c-3.2,0-5-2.2-5-6.1C128.5,17.9,130.3,15.7,133.5,15.7z
			 M131.6,21.8c0,2.8,0.6,4.2,1.9,4.2c1.3,0,1.9-1.5,1.9-4.2c0-2.8-0.7-4.2-1.9-4.2C132.2,17.5,131.6,19,131.6,21.8z"/>
		<path class="st0" d="M141.1,15.9h0.2h1.9c-0.3,0.7-0.5,1.3-0.5,2.6v5.5c0,1.2,0.5,1.8,1.4,1.8c1,0,1.6-0.4,1.6-2.5V19
			c0-1.6-0.3-1.6-1-1.6c0.5-1.4,0.5-1.5,1.4-1.5h1.1h1.8c-0.3,0.8-0.5,1.4-0.5,2.8v5.6c0,1.5,0.2,1.8,1.2,1.9
			c-0.4,1.3-0.8,1.6-1.6,1.6c-0.3,0-0.9,0-1.1,0c-0.4,0-0.7,0.1-1.3,0.5V27c-0.7,0.6-1.4,0.9-2.4,0.9c-0.6,0-1.2-0.1-1.8-0.4
			c-1-0.5-1.5-1-1.5-3.5v-5.2c0-1.1-0.2-1.4-1-1.4C139.6,16,139.1,15.9,141.1,15.9z"/>
		<path class="st0" d="M151.7,16.1c0.1,0,0.4,0,1,0c0.6,0,0.9-0.1,1.6-0.5v1.2c0.9-0.7,1.7-1,2.7-1c1.9,0,3.1,1.2,3.1,3.9v5
			c0,1.5,0.2,1.6,1,1.6c-0.7,1.3-0.5,1.5-1.4,1.5h-1.1l-1.9,0c0.3-0.8,0.5-1.4,0.5-2.9v-5.7c0-0.8-0.5-1.5-1.4-1.5
			c-0.5,0-1,0.2-1.3,0.6c-0.3,0.4-0.3,0.5-0.3,1.9V25c0,1.2,0.2,1.4,1,1.4c-0.4,0.8-0.6,1.3-0.8,1.4c-0.1,0.1-0.3,0.1-1.3,0.1h-0.4
			l-1.9,0c0.4-1,0.5-1.6,0.5-3.1v-5.6c0-1.2-0.2-1.5-1.3-1.6C150.9,16.4,150.9,16.1,151.7,16.1z"/>
		<path class="st0" d="M168.8,14.7c0-1-0.2-1.3-1.1-1.4c0.6-1.2,0.1-1.5,1.9-1.5h0.5l1.9,0c-0.5,1.3-0.4,0.4-0.4,2.6v10
			c0,1.3,0,2,0.4,3.4c-0.6,0.1-0.9,0.1-1.2,0.1c-1.3,0-1.6-0.2-2-1.1c-0.8,0.9-1.8,1.3-2.9,1.3c-2.7,0-4.4-2.3-4.4-6.1
			c0-3.8,1.6-5.9,4.4-5.9c1,0,1.8,0.3,2.8,1L168.8,14.7z M164.5,21.9c0,2.8,0.8,4.3,2.2,4.3c1.5,0,2.2-1.6,2.2-4.6
			c0-2.6-0.7-3.9-2.2-3.9C165.2,17.6,164.5,19.1,164.5,21.9z"/>
	</g>
	<g>
		<path class="st0" d="M32.7,28.1h-0.2v-1.5h-0.4v-0.3h1v0.3h-0.4V28.1z M34.7,28.1h-0.2v-1.6h0l-0.3,1.6h-0.3l-0.3-1.6h0v1.6h-0.2
			v-1.8h0.4l0.3,1.4h0l0.3-1.4h0.4V28.1z"/>
	</g>
	<g>
	</g>
	<g>
	</g>
	<g>
	</g>
	<g>
	</g>
	<g>
	</g>
	<g>
	</g>
</g>
</svg>
