<svg xmlns="http://www.w3.org/2000/svg" viewBox="0 0 40 22.1"><style type="text/css">  
	.st0{display:none;}
	.st1{display:inline;}
	.st2{display:inline;fill:#FFFFFF;}
	.st3{fill:#FFFFFF;}
</style><g class="st0"><rect x="-403.2" y="-57.1" class="st1" width="41.3" height="6.5"/><rect x="-403.2" y="-42.1" class="st1" width="41.3" height="6.5"/><rect x="-403.2" y="-27.1" class="st1" width="41.3" height="6.5"/><circle class="st1" cx="-411.7" cy="-53.9" r="3.2"/><circle class="st1" cx="-411.7" cy="-23.8" r="3.2"/><circle class="st1" cx="-411.7" cy="-38.8" r="3.2"/></g><g class="st0"><rect x="-298.5" y="-58.4" class="st1" width="41.3" height="6.5"/><rect x="-298.5" y="-45.3" class="st1" width="41.3" height="6.5"/><rect x="-298.5" y="-32.3" class="st1" width="41.3" height="6.5"/></g><g class="st0"><rect x="21.4" y="-70.1" class="st1" width="64.8" height="56"/><rect x="32.8" y="-58.4" class="st2" width="41.3" height="6.5"/><rect x="32.8" y="-45.4" class="st2" width="41.3" height="6.5"/><rect x="32.8" y="-32.3" class="st2" width="41.3" height="6.5"/></g><g class="st0"><rect x="-77.3" y="-62.1" class="st1" width="17" height="17"/><rect x="-53.2" y="-62.1" class="st1" width="17" height="17"/><rect x="-77.3" y="-39.1" class="st1" width="17" height="17"/><rect x="-53.2" y="-39.1" class="st1" width="17" height="17"/></g><path class="st3" d="M20 7.5L0 22.1v-7.7L20 0l20 14.3v7.7L20 7.5z"/></svg>