<svg xmlns="http://www.w3.org/2000/svg" viewBox="0 0 40 22.1"><style type="text/css">  
	.st0{display:none;}
	.st1{display:inline;}
	.st2{display:inline;fill:#FFFFFF;}
	.st3{fill:#FFFFFF;}
</style><g class="st0"><rect x="-403.2" y="-102.8" class="st1" width="41.3" height="6.5"/><rect x="-403.2" y="-87.8" class="st1" width="41.3" height="6.5"/><rect x="-403.2" y="-72.7" class="st1" width="41.3" height="6.5"/><circle class="st1" cx="-411.7" cy="-99.5" r="3.2"/><circle class="st1" cx="-411.7" cy="-69.5" r="3.2"/><circle class="st1" cx="-411.7" cy="-84.5" r="3.2"/></g><g class="st0"><rect x="-298.5" y="-104" class="st1" width="41.3" height="6.5"/><rect x="-298.5" y="-91" class="st1" width="41.3" height="6.5"/><rect x="-298.5" y="-78" class="st1" width="41.3" height="6.5"/></g><g class="st0"><rect x="21.4" y="-115.8" class="st1" width="64.8" height="56"/><rect x="32.8" y="-104" class="st2" width="41.3" height="6.5"/><rect x="32.8" y="-91" class="st2" width="41.3" height="6.5"/><rect x="32.8" y="-78" class="st2" width="41.3" height="6.5"/></g><g class="st0"><rect x="-77.3" y="-107.8" class="st1" width="17" height="17"/><rect x="-53.2" y="-107.8" class="st1" width="17" height="17"/><rect x="-77.3" y="-84.8" class="st1" width="17" height="17"/><rect x="-53.2" y="-84.8" class="st1" width="17" height="17"/></g><path class="st3" d="M40 0v7.7L20 22.1 0 7.7V0l20 14.6L40 0z"/></svg>