<?xml version="1.0" encoding="utf-8"?>
<!-- Generator: Adobe Illustrator 20.0.0, SVG Export Plug-In . SVG Version: 6.00 Build 0)  -->
<svg version="1.1" xmlns="http://www.w3.org/2000/svg" xmlns:xlink="http://www.w3.org/1999/xlink" x="0px" y="0px"
	 viewBox="0 0 22.1 40" style="enable-background:new 0 0 22.1 40;" xml:space="preserve">
<style type="text/css">
	.st0{display:none;}
	.st1{display:inline;}
	.st2{display:inline;fill:#FFFFFF;}
	.st3{fill:#999999;}
</style>
<g id="Layer_1">
	<g class="st0">
		<rect x="-412.9" y="6.9" class="st1" width="41.3" height="6.5"/>
		<rect x="-412.9" y="21.9" class="st1" width="41.3" height="6.5"/>
		<rect x="-412.9" y="36.9" class="st1" width="41.3" height="6.5"/>
		<circle class="st1" cx="-421.4" cy="10.1" r="3.2"/>
		<circle class="st1" cx="-421.4" cy="40.2" r="3.2"/>
		<circle class="st1" cx="-421.4" cy="25.1" r="3.2"/>
	</g>
	<g class="st0">
		<rect x="-308.2" y="5.6" class="st1" width="41.3" height="6.5"/>
		<rect x="-308.2" y="18.6" class="st1" width="41.3" height="6.5"/>
		<rect x="-308.2" y="31.7" class="st1" width="41.3" height="6.5"/>
	</g>
	<g class="st0">
		<rect x="11.7" y="-6.1" class="st1" width="64.8" height="56"/>
		<rect x="23.1" y="5.6" class="st2" width="41.3" height="6.5"/>
		<rect x="23.1" y="18.6" class="st2" width="41.3" height="6.5"/>
		<rect x="23.1" y="31.6" class="st2" width="41.3" height="6.5"/>
	</g>
	<g class="st0">
		<rect x="-87" y="1.9" class="st1" width="17" height="17"/>
		<rect x="-62.9" y="1.9" class="st1" width="17" height="17"/>
		<rect x="-87" y="24.9" class="st1" width="17" height="17"/>
		<rect x="-62.9" y="24.9" class="st1" width="17" height="17"/>
	</g>
	<g>
		<path class="st3" d="M0,0l7.7,0l14.3,20L7.7,40H0l14.6-20L0,0z"/>
	</g>
</g>
<g id="Layer_2_copy">
	<g id="Layer_4_copy">
	</g>
	<g>
	</g>
	<g>
	</g>
	<g>
	</g>
	<g>
	</g>
	<g>
	</g>
	<g>
	</g>
</g>
</svg>
