<svg xmlns="http://www.w3.org/2000/svg" viewBox="0 0 40 40"><style type="text/css">  
	.st0{display:none;}
	.st1{display:inline;}
	.st2{display:inline;fill:#FFFFFF;}
	.st3{fill:#2E3192;}
	.st4{fill:#FFFFFF;}
	.st5{fill:none;stroke:#000000;stroke-width:6;stroke-linecap:round;stroke-miterlimit:10;}
	.st6{fill:#787878;}
</style><g class="st0"><rect x="-216.3" y="6.9" class="st1" width="41.3" height="6.5"/><rect x="-216.3" y="21.9" class="st1" width="41.3" height="6.5"/><rect x="-216.3" y="36.9" class="st1" width="41.3" height="6.5"/><circle class="st1" cx="-224.8" cy="10.1" r="3.2"/><circle class="st1" cx="-224.8" cy="40.2" r="3.2"/><circle class="st1" cx="-224.8" cy="25.1" r="3.2"/></g><g class="st0"><rect x="-111.6" y="5.6" class="st1" width="41.3" height="6.5"/><rect x="-111.6" y="18.6" class="st1" width="41.3" height="6.5"/><rect x="-111.6" y="31.7" class="st1" width="41.3" height="6.5"/></g><g class="st0"><rect x="208.3" y="-6.1" class="st1" width="64.8" height="56"/><rect x="219.7" y="5.6" class="st2" width="41.3" height="6.5"/><rect x="219.7" y="18.6" class="st2" width="41.3" height="6.5"/><rect x="219.7" y="31.6" class="st2" width="41.3" height="6.5"/></g><path class="st3" d="M168.4 8.4h-39.6c-2.3 0-4.2-1.9-4.2-4.2s1.9-4.2 4.2-4.2h39.6c2.3 0 4.2 1.9 4.2 4.2S170.7 8.4 168.4 8.4z"/><path class="st3" d="M168.4 24.2h-39.6c-2.3 0-4.2-1.9-4.2-4.2s1.9-4.2 4.2-4.2h39.6c2.3 0 4.2 1.9 4.2 4.2S170.7 24.2 168.4 24.2z"/><path class="st3" d="M168.4 40h-39.6c-2.3 0-4.2-1.9-4.2-4.2s1.9-4.2 4.2-4.2h39.6c2.3 0 4.2 1.9 4.2 4.2S170.7 40 168.4 40z"/><g class="st0"><rect x="109.6" y="1.9" class="st1" width="17" height="17"/><rect x="133.7" y="1.9" class="st1" width="17" height="17"/><rect x="109.6" y="24.9" class="st1" width="17" height="17"/><rect x="133.7" y="24.9" class="st1" width="17" height="17"/></g><path class="st4" d="M111.1 6h-42c-1.7 0-3-1.3-3-3s1.3-3 3-3h42c1.7 0 3 1.3 3 3S112.8 6 111.1 6z"/><path class="st4" d="M111.1 23h-42c-1.7 0-3-1.3-3-3s1.3-3 3-3h42c1.7 0 3 1.3 3 3S112.8 23 111.1 23z"/><path class="st4" d="M111.1 40h-42c-1.7 0-3-1.3-3-3s1.3-3 3-3h42c1.7 0 3 1.3 3 3S112.8 40 111.1 40z"/><path class="st4" d="M111.1 74.1h-42c-1.7 0-3-1.3-3-3s1.3-3 3-3h42c1.7 0 3 1.3 3 3S112.8 74.1 111.1 74.1z"/><path class="st4" d="M111.1 87.8h-42c-1.7 0-3-1.3-3-3s1.3-3 3-3h42c1.7 0 3 1.3 3 3S112.8 87.8 111.1 87.8z"/><line class="st5" x1="68.2" y1="-39.2" x2="110.2" y2="-39.2"/><line class="st5" x1="68.2" y1="-23.4" x2="110.2" y2="-23.4"/><line class="st5" x1="68.2" y1="-7.6" x2="110.2" y2="-7.6"/><path class="st4" d="M204.1 20l14.6 20H211l-14.3-20L211 0h7.7L204.1 20z"/><path class="st4" d="M196.6-50.8h7.7l14.3 20 -14.3 20h-7.7l14.6-20L196.6-50.8z"/><path class="st4" d="M206.9 71.5l-20 14.6v-7.7l20-14.3 20 14.3V86L206.9 71.5z"/><path class="st4" d="M226.9 109.6v7.7l-20 14.3 -20-14.3v-7.7l20 14.6L226.9 109.6z"/><path d="M67.4 93.4h2.7l1.9 4.2 0.7 1.6h0.1l0.7-1.6 1.9-4.2h2.7v9.3h-2.4v-3.4c0-0.9 0.2-2.3 0.3-3.2h-0.1L75 98.3l-1.8 3.6h-1l-1.7-3.6 -0.9-2.2h-0.1c0.1 0.9 0.3 2.3 0.3 3.2v3.4h-2.4V93.4z"/><path d="M81.2 93.4h7.1v1.8h-4.6V97h3.9v1.8h-3.9v2.1h4.7v1.8h-7.3V93.4z"/><path d="M91.3 93.4h2.6l3 4.6 1.1 2.1h0.1c-0.1-1-0.3-2.3-0.3-3.4v-3.3h2.4v9.3h-2.6l-3-4.7 -1.1-2h-0.1c0.1 1 0.3 2.3 0.3 3.4v3.3h-2.5V93.4z"/><path d="M103.3 93.4h2.6v5.2c0 1.8 0.7 2.5 2 2.5 1.3 0 2-0.6 2-2.5v-5.2h2.5v5c0 3.1-1.6 4.5-4.5 4.5 -2.9 0-4.5-1.4-4.5-4.5V93.4z"/><path d="M69.6 118.3h2.7l1.9 5.1 0.7 2H75l0.7-2 1.9-5.1h2.7v11.4h-2.4v-4.2c0-1.1 0.2-2.8 0.3-3.9h-0.1l-0.9 2.6 -1.8 4.4h-1l-1.7-4.4 -0.9-2.6h-0.1c0.1 1.1 0.3 2.8 0.3 3.9v4.2h-2.4V118.3z"/><path d="M83.4 118.3h7.1v2.2H86v2.3h3.9v2.1H86v2.6h4.7v2.2h-7.3V118.3z"/><path d="M93.4 118.3h2.6l3 5.7 1.1 2.5h0.1c-0.1-1.2-0.3-2.8-0.3-4.2v-4h2.4v11.4h-2.6l-3-5.7 -1.1-2.5h-0.1c0.1 1.3 0.3 2.8 0.3 4.1v4h-2.5V118.3z"/><path d="M105.5 118.3h2.6v6.4c0 2.2 0.7 3 2 3 1.3 0 2-0.8 2-3v-6.4h2.5v6.1c0 3.8-1.6 5.5-4.5 5.5 -2.9 0-4.5-1.7-4.5-5.5V118.3z"/><path d="M124.6 47.9h2.9l2 4.5 0.7 1.7h0.1l0.7-1.7 2-4.5h2.9v10h-2.6v-3.7c0-1 0.2-2.4 0.4-3.4h-0.1l-1 2.3 -1.9 3.9h-1.1l-1.9-3.9 -1-2.3h-0.1c0.1 1 0.4 2.4 0.4 3.4v3.7h-2.5V47.9z"/><path d="M139.3 47.9h7.6v1.9h-4.9v2h4.1v1.9h-4.1V56h5.1v1.9h-7.8V47.9z"/><path d="M150.1 47.9h2.8l3.2 5 1.2 2.2h0.1c-0.1-1.1-0.4-2.5-0.4-3.6v-3.5h2.6v10h-2.8l-3.2-5 -1.2-2.2h-0.1c0.1 1.1 0.4 2.4 0.4 3.6v3.5h-2.6V47.9z"/><path d="M162.9 47.9h2.7v5.6c0 2 0.7 2.6 2.1 2.6s2.2-0.7 2.2-2.6v-5.6h2.6v5.3c0 3.3-1.7 4.8-4.8 4.8s-4.8-1.5-4.8-4.8V47.9z"/><path class="st4" d="M66.1 47.9H69l2 5.5 0.7 2.1h0.1l0.7-2.1 2-5.5h2.9v12.2h-2.6v-4.5c0-1.2 0.2-3 0.4-4.1h-0.1l-1 2.8L72.3 59h-1.1l-1.9-4.7 -1-2.8h-0.1c0.1 1.2 0.4 2.9 0.4 4.1v4.5h-2.5V47.9z"/><path class="st4" d="M80.8 47.9h7.6v2.3h-4.9v2.4h4.1V55h-4.1v2.8h5.1v2.3h-7.8V47.9z"/><path class="st4" d="M91.6 47.9h2.8l3.2 6 1.2 2.7h0.1c-0.1-1.3-0.4-3-0.4-4.4v-4.3h2.6v12.2h-2.8L95.1 54l-1.2-2.6h-0.1c0.1 1.3 0.4 3 0.4 4.4v4.3h-2.6V47.9z"/><path class="st4" d="M104.4 47.9h2.7v6.8c0 2.4 0.7 3.2 2.1 3.2s2.2-0.8 2.2-3.2v-6.8h2.6v6.5c0 4.1-1.7 5.9-4.8 5.9s-4.8-1.8-4.8-5.9V47.9z"/><path d="M-45.5 32.5l31-31c1.8-1.8 4.7-2 6.3-0.3s1.5 4.5-0.3 6.3l-31 31c-1.8 1.8-4.7 2-6.3 0.3C-47.5 37.2-47.4 34.4-45.5 32.5z"/><path d="M-14.5 38.6l-31-31c-1.8-1.8-2-4.7-0.3-6.3 1.7-1.7 4.5-1.5 6.3 0.3l31 31c1.8 1.8 2 4.7 0.3 6.3C-9.8 40.5-12.7 40.4-14.5 38.6z"/><path class="st4" d="M39.1 5.1l-34 34c-1.2 1.2-3.1 1.2-4.2 0 -1.2-1.2-1.2-3.1 0-4.2l34-34c1.2-1.2 3.1-1.2 4.2 0C40.3 2.1 40.3 3.9 39.1 5.1z"/><path class="st4" d="M5.1 0.9l34 34c1.2 1.2 1.2 3.1 0 4.2 -1.2 1.2-3.1 1.2-4.2 0l-34-34c-1.2-1.2-1.2-3.1 0-4.2S3.9-0.3 5.1 0.9z"/><path class="st6" d="M47.8 95.2c-0.1-1.3-0.4-2.1-1.1-2.9S37 82.2 37 82.2c1.5-2.8 2.5-6.4 2.5-9.8 0-10.9-8.8-19.7-19.7-19.7C8.8 52.7 0 61.5 0 72.4c0 10.9 8.8 19.7 19.7 19.7 3.6 0 7-1 10-2.7 0 0 8.2 8.6 8.9 9.3s1.8 2 3.7 2c1.9 0 3.3 0 4.4-1.5C47.8 97.6 47.9 96.5 47.8 95.2zM19.7 87.3c-8.2 0-14.8-6.6-14.8-14.8 0-8.2 6.6-14.8 14.8-14.8s14.8 6.6 14.8 14.8C34.5 80.7 27.9 87.3 19.7 87.3z"/></svg>