<?xml version="1.0" encoding="utf-8"?>
<!-- Generator: Adobe Illustrator 20.0.0, SVG Export Plug-In . SVG Version: 6.00 Build 0)  -->
<svg version="1.1" xmlns="http://www.w3.org/2000/svg" xmlns:xlink="http://www.w3.org/1999/xlink" x="0px" y="0px"
	 viewBox="0 0 212 205.2" style="enable-background:new 0 0 212 205.2;" xml:space="preserve">
<style type="text/css">
	.st0{fill:#EF4423;}
	.st1{fill:#FFFFFF;}
	.st2{fill:none;stroke:#9D9FA2;stroke-width:3;}
	.st3{fill:none;stroke:#9D9FA2;stroke-width:2;}
	.st4{fill:#FFFFFF;stroke:#000000;stroke-width:0.5293;stroke-linecap:round;}
	.st5{fill:#FFFFFF;stroke:#000000;stroke-width:0.5409;}
	.st6{stroke:#000000;stroke-width:0.5409;}
	.st7{fill:#FFFFFF;stroke:#000000;stroke-width:0.5;}
	.st8{fill:#FFFFFF;stroke:#000000;stroke-width:0.2092;}
	.st9{fill:#FFFFFF;stroke:#000000;stroke-width:0.4184;}
	.st10{fill:#FFFFFF;stroke:#000000;stroke-width:0.2624;}
	.st11{fill:#FFFFFF;stroke:#000000;stroke-width:0.4785;}
	.st12{fill:none;stroke:#000000;stroke-width:0.73;}
	.st13{fill:none;stroke:#000000;stroke-width:0.5;stroke-linecap:round;}
	.st14{fill:#FFFFFF;stroke:#000000;stroke-width:0.25;}
	.st15{stroke:#000000;stroke-width:0.5;}
	.st16{stroke:#FFFFFF;stroke-width:0.25;}
	.st17{stroke:#FFFFFF;stroke-width:0.5;}
	.st18{fill:#FFFFFF;stroke:#FFFFFF;stroke-width:0.25;}
	.st19{fill:#FFFFFF;stroke:#000000;stroke-width:0.649;}
	.st20{stroke:#000000;stroke-width:0.649;}
	.st21{fill:none;stroke:#000000;stroke-width:0.649;}
	.st22{fill:none;stroke:#000000;stroke-width:0.2309;stroke-linecap:round;}
	.st23{fill:#FFFFFF;stroke:#000000;stroke-width:0.5;stroke-linecap:round;}
</style>
<g id="DVD_x2F_VCR">
	<g id="cable_copy">
	</g>
	<g>
		<polygon class="st0" points="168.7,187.2 175.5,184.3 174.7,186.2 185.6,186.2 185.6,188.2 174.7,188.2 175.5,190.1 		"/>
		<path class="st1" d="M175.2,184.7l-0.7,1.7h10.9v1.6h-10.9l0.7,1.7l-6-2.5L175.2,184.7 M175.9,184l-0.8,0.4l-6,2.5l-0.8,0.3
			l0.8,0.3l6,2.5l0.8,0.4l-0.4-0.8l-0.5-1.2h10.4h0.4V188v-1.6V186h-0.4H175l0.5-1.2L175.9,184L175.9,184z"/>
	</g>
	<g>
		<polygon class="st0" points="200.9,53.9 202.8,54.7 202.8,43.9 204.8,43.9 204.8,54.7 206.7,53.9 203.8,60.7 		"/>
		<path class="st1" d="M204.6,44.1V55l1.7-0.7l-2.5,6l-2.5-6L203,55V44.1H204.6 M205,43.7h-0.4H203h-0.4v0.4v10.4l-1.2-0.5l-0.8-0.4
			l0.4,0.8l2.5,6l0.3,0.8l0.3-0.8l2.5-6l0.3-0.8l-0.8,0.4l-1.2,0.5V44.1V43.7L205,43.7z"/>
	</g>
	<g id="projector_copy">
	</g>
	<g id="Astronaut_copy">
	</g>
	<g id="Text_copy">
	</g>
	<g id="Layer_13">
	</g>
	<g id="Layer_14">
		<g id="Layer_15">
		</g>
		<path class="st2" d="M97.1,12.6c19.6,0,102.8,0,102.8,0s4-0.6,4,4c0,4.6,0,3.5,0,3.5"/>
		<line class="st2" x1="98.2" y1="186.9" x2="155.2" y2="186.9"/>
		<polyline class="st3" points="203.6,182.5 203.6,131.3 203.6,81.4 		"/>
		<g>
			<path class="st4" d="M59.3,155.4c0,1.5-1.2,2.7-2.7,2.7H3.8c-1.5,0-2.7-1.2-2.7-2.7"/>
			<path class="st4" d="M1.1,148.5c0-1.5,1.2-2.7,2.7-2.7h52.8c1.5,0,2.7,1.2,2.7,2.7"/>
			<rect x="4.3" y="159.1" class="st5" width="6.3" height="2"/>
			<rect x="50.7" y="159.1" class="st5" width="6.3" height="2"/>
			<path class="st5" d="M60.2,156.3c0,1.5-1.2,2.7-2.7,2.7H3.1c-1.5,0-2.7-1.2-2.7-2.7v-8.7c0-1.5,1.2-2.7,2.7-2.7h54.4
				c1.5,0,2.7,1.2,2.7,2.7V156.3z"/>
			<path class="st6" d="M55.9,151.9c0,1.5-1.2,2.7-2.7,2.7H6.9c-1.5,0-2.7-1.2-2.7-2.7v-0.2c0-1.5,1.2-2.7,2.7-2.7h46.3
				c1.5,0,2.7,1.2,2.7,2.7V151.9z"/>
			<g>
				<path class="st1" d="M6.9,154.4c-1.3,0-2.5-1.2-2.5-2.5s1.1-2.5,2.5-2.5h23.9c1.4,0,2.5,1.1,2.5,2.5v0.2c0,1.4-1.1,2.5-2.5,2.5
					H6.9z"/>
				<path d="M30.8,149.6c1.2,0,2.2,1,2.2,2.2v0.2c0,1.2-1,2.2-2.2,2.2H6.9c-1.2,0-2.2-1-2.2-2.3c0-1.2,1-2.3,2.2-2.3H30.8 M30.8,149
					H6.9c-1.5,0-2.7,1.3-2.7,2.8c0,1.5,1.2,2.8,2.7,2.8h23.9c1.5,0,2.7-1.2,2.7-2.7v-0.2C33.5,150.3,32.3,149,30.8,149L30.8,149z"/>
			</g>
			<g id="play_3_">
				<path class="st1" d="M36.7,152h0.1l0.3,0.4l-0.1,0.3l-0.5,0.4h-0.1L36.7,152z M36.8,151.7h-0.1l0.2-1.1l0.1,0l0.3,0.4l-0.1,0.3
					L36.8,151.7z M36.9,151.9l0-0.1l0.2-0.2H38l0.2,0.2l0,0.1l-0.2,0.2H37L36.9,151.9z M37.1,150.4l0-0.1h1l0.2,0.3l-0.2,0.2h-0.7
					L37.1,150.4z M38.4,151.7h-0.1l-0.3-0.4L38,151l0.4-0.3l0.2,0.2L38.4,151.7z"/>
				<path class="st1" d="M39.4,152.4l-0.1,0.3L39,153l-0.2-0.2L39,152l0.1,0L39.4,152.4z M39.7,151l-0.1,0.3l-0.5,0.4H39l0.2-1.1
					h0.1L39.7,151z M39.3,152.9H40l0.3,0.4l0,0.1h-1l-0.2-0.3L39.3,152.9z"/>
				<polygon class="st1" points="41.3,152 41.4,152 41.7,152.4 41.7,152.7 41.2,153.1 41.1,153.1 				"/>
				<polygon class="st1" points="41.4,151.7 41.3,151.7 41.5,150.9 41.7,150.7 42,151 41.9,151.3 				"/>
				<polygon class="st1" points="41.5,151.9 41.5,151.8 41.8,151.6 42.7,151.6 42.8,151.8 42.8,151.9 42.6,152.1 41.7,152.1 				"/>
				<polygon class="st1" points="41.8,150.6 42.2,150.3 42.7,150.3 42.9,150.6 42.7,150.8 42,150.8 				"/>
				<polygon class="st1" points="42.9,152 43,152 42.8,153.1 42.7,153.1 42.4,152.7 42.4,152.4 				"/>
				<polygon class="st1" points="45.2,152 45.3,152 45.1,153.1 45,153.1 44.7,152.7 44.8,152.4 				"/>
				<polygon class="st1" points="43.1,151.7 43,151.7 42.6,151.3 42.7,151 43,150.7 43.2,150.9 				"/>
				<path class="st1" d="M43.8,151.7h-0.1l0.2-1.1h0.1l0.3,0.4l-0.1,0.3L43.8,151.7z M43.8,151.9l0-0.1l0.2-0.2H45l0.2,0.2l0,0.1
					l-0.2,0.2H44L43.8,151.9z M45.4,151.7h-0.1l-0.3-0.4L45,151l0.5-0.4h0.1L45.4,151.7z"/>
			</g>
		</g>
	</g>
	<g id="Layer_16">
		<g>
			<g>
				
					<rect x="203.2" y="60.1" transform="matrix(1.610659e-03 -1 1 1.610659e-03 141.1349 266.057)" class="st7" width="1.2" height="4.5"/>
				<path class="st7" d="M206.3,62.6c0.6,0,0.7,0.5,0.7,0.9c0,0,0,8.5,0,12.3c0,3.8-6.6,3.6-6.6,0c0-3.6,0-12.3,0-12.3
					c0-0.7,0.5-0.9,0.9-0.9L206.3,62.6z"/>
			</g>
			<path class="st7" d="M201.2,75.7c0.6,0,5.1,0,5.1,0"/>
			<path class="st7" d="M201.2,69.2c0.6,0,5.1,0,5.1,0"/>
			<g>
				<polygon class="st7" points="202.3,86.4 205.2,86.4 206.1,77.5 201.4,77.5 				"/>
				<polygon class="st7" points="201.3,77.5 201.4,78.9 203.1,78.9 203.1,79.9 201.5,79.9 201.6,81.4 203.1,81.4 203.1,82.3 
					201.7,82.3 201.9,83.7 203.1,83.7 203.1,84.4 202,84.4 202.2,86.4 205.4,86.4 205.6,84.5 204.5,84.4 204.5,83.7 205.7,83.7 
					205.9,82.3 204.5,82.3 204.5,81.4 206,81.4 206.1,79.9 204.5,79.9 204.5,78.9 206.2,78.9 206.3,77.5 				"/>
			</g>
		</g>
		<g>
			<polyline class="st7" points="183.4,188.5 182.7,188.1 180,188.4 179.5,187.9 179.5,186.4 180,186 182.7,186.2 183.4,185.9 			
				"/>
			
				<rect x="187.4" y="185.9" transform="matrix(1 -2.626691e-03 2.626691e-03 1 -0.4909 0.5023)" class="st7" width="7.1" height="2.6"/>
			
				<rect x="193.6" y="184.8" transform="matrix(1 -2.239285e-03 2.239285e-03 1 -0.4187 0.4354)" class="st7" width="1.2" height="4.8"/>
			
				<rect x="184.8" y="185.9" transform="matrix(1 -2.278074e-03 2.278074e-03 1 -0.4259 0.4237)" class="st7" width="2" height="2.6"/>
			
				<rect x="183.4" y="185.9" transform="matrix(1 -2.626589e-03 2.626589e-03 1 -0.491 0.4834)" class="st7" width="0.8" height="2.6"/>
			
				<rect x="184.1" y="186.1" transform="matrix(1 -2.252039e-03 2.252039e-03 1 -0.4211 0.4158)" class="st7" width="0.6" height="2.2"/>
			
				<rect x="186.8" y="186.1" transform="matrix(1 -2.206080e-03 2.206080e-03 1 -0.4125 0.4132)" class="st7" width="0.6" height="2.2"/>
			<polyline class="st7" points="180,188.4 179.5,187.9 179.5,186.4 180,186 			"/>
			<path class="st7" d="M194.4,184.3l0,0.8l0,0l0,4.9l8.4,0c0.6,0,1-0.1,1.4-0.2c0.3-0.1,0.6-0.3,0.9-0.5c0.5-0.4,0.7-1,0.7-1.8
				l-0.1-9H201c0,0-0.1,3.3-0.2,4.1c-0.1,0.6-0.1,0.9-0.5,1.3c-0.7,0.5-2.9,0.5-3.6,0.5L194.4,184.3L194.4,184.3z"/>
			<polygon class="st7" points="201.4,172.9 205.3,172.9 205.2,172.3 201.5,172.3 			"/>
			<polygon class="st7" points="201.2,176 205.5,176 205.4,175.4 201.3,175.4 			"/>
			<polygon class="st7" points="201.1,177.7 205.6,177.7 205.5,176.8 201.2,176.8 			"/>
			<polygon class="st7" points="201.3,174.5 205.4,174.5 205.3,173.8 201.4,173.8 			"/>
			<polygon class="st7" points="201.6,171.4 205.2,171.4 205.2,170.7 201.6,170.7 			"/>
			<polygon class="st7" points="201.7,169.9 205.1,169.9 205.1,169.2 201.7,169.2 			"/>
			<polygon class="st7" points="201.9,167.6 201.8,168.4 205,168.4 205,167.5 			"/>
		</g>
		<g>
			<polyline class="st8" points="209.9,122.6 209.8,123 210.2,122.8 210.1,123.2 210.5,123.1 210.4,123.5 210.7,123.4 210.6,123.8 
				211,123.7 210.8,124.1 211.2,124.1 211,124.4 211.4,124.5 211.1,124.8 211.5,124.8 211.3,125.1 211.6,125.2 211.4,125.5 
				211.7,125.6 211.4,125.9 211.8,126 211.4,126.2 211.8,126.4 211.4,126.6 211.7,126.8 211.4,127 211.7,127.2 211.3,127.3 
				211.6,127.6 211.2,127.7 211.4,128 211.1,128.1 211.3,128.4 210.9,128.4 211.1,128.7 210.7,128.7 210.9,129.1 210.5,129 
				210.6,129.4 210.2,129.3 210.3,129.7 210,129.6 210,129.9 209.7,129.8 209.7,130.2 209.4,130 209.3,130.4 			"/>
			<path class="st9" d="M210.4,126.3c0-2.1,0.7-5.4,0.7-6.6c0-1.2-2.1-5.5-8.1-5.5c-6,0-8,5-8,12.1c0,7.1,2.1,12.1,8,12.1
				c6,0,8.1-4.4,8.1-5.5C211.1,131.7,210.4,128.3,210.4,126.3z"/>
			<g>
				<path d="M209.1,130.3l-1.5,0.5v-0.4l0.6-0.2c0.2-0.1,0.4-0.1,0.5-0.1v0c-0.2,0-0.4-0.1-0.5-0.1l-0.6-0.2v-0.4l1.5,0.5V130.3z"/>
				<path d="M209.1,128.6c0,0.4-0.3,0.7-0.8,0.7c-0.5,0-0.8-0.3-0.8-0.7c0-0.5,0.3-0.7,0.8-0.7C208.8,127.8,209.1,128.1,209.1,128.6
					L209.1,128.6z M208.8,128.6c0-0.2-0.2-0.4-0.5-0.4c-0.3,0-0.5,0.1-0.5,0.4c0,0.2,0.2,0.4,0.5,0.4
					C208.6,128.9,208.8,128.8,208.8,128.6L208.8,128.6z"/>
				<path d="M207.5,127.6v-0.3h1.2v-0.6h0.3v0.9H207.5z"/>
			</g>
			<polygon class="st10" points="209,123.2 209,125.9 207.6,125.9 			"/>
		</g>
	</g>
	<g id="Layer_17">
		<g>
			
				<rect x="167" y="184.4" transform="matrix(1 -1.105583e-03 1.105583e-03 1 -0.2067 0.1855)" class="st7" width="1.4" height="5.2"/>
			<g>
				<polygon points="136.7,185.8 136.7,188.5 144.2,189.1 144.2,185.1 				"/>
				<polygon class="st7" points="142.5,183.3 141.6,183.5 141.6,186.3 140.2,186.3 140.2,183.8 138.7,184.5 138.7,186.4 
					137.6,186.4 137.6,184.5 136.2,184.8 136.2,189.6 137.6,189.8 137.6,187.9 138.7,187.9 138.7,189.9 140.2,190.4 140.2,187.9 
					141.6,187.9 141.7,190.7 142.5,190.9 				"/>
			</g>
			<path class="st7" d="M167.4,184.1c-1,0-1.1-0.9-1.1-0.9h-23.7v7.7h23.7c0,0,0.1-1,1.1-1V184.1z"/>
			<g>
				<g>
					<polygon points="158.6,183.3 158.7,183.4 158.7,190.8 158.6,190.9 					"/>
					<polygon points="158.3,182.6 158.3,191.6 158.9,190.9 158.9,183.3 158.3,182.6 					"/>
				</g>
				<g>
					<polygon points="158,190.8 158,183.4 158.1,183.3 158.1,190.9 					"/>
					<polygon points="158.3,182.6 157.7,183.3 157.7,190.9 158.3,191.6 158.3,182.6 					"/>
				</g>
			</g>
			<g>
				<g>
					<polygon points="157,183.3 157.1,183.4 157,190.8 156.9,190.9 					"/>
					<polygon points="156.7,182.6 156.7,191.6 157.3,190.9 157.3,183.3 156.7,182.6 					"/>
				</g>
				<g>
					<polygon points="156.3,190.8 156.3,183.4 156.5,183.3 156.4,190.9 					"/>
					<polygon points="156.7,182.6 156.1,183.3 156.1,190.9 156.7,191.6 156.7,182.6 					"/>
				</g>
			</g>
			<g>
				<g>
					<polygon points="155.3,183.3 155.4,183.4 155.4,190.8 155.3,190.9 					"/>
					<polygon points="155.1,182.6 155.1,191.6 155.7,190.9 155.7,183.3 155.1,182.6 					"/>
				</g>
				<g>
					<polygon points="154.7,190.8 154.7,183.4 154.8,183.3 154.8,190.9 					"/>
					<polygon points="155.1,182.6 154.5,183.3 154.5,190.9 155.1,191.6 155.1,182.6 					"/>
				</g>
			</g>
			<g>
				<g>
					<polygon points="153.7,183.3 153.8,183.4 153.8,190.8 153.7,190.9 					"/>
					<polygon points="153.5,182.6 153.5,191.6 154.1,190.9 154.1,183.3 153.5,182.6 					"/>
				</g>
				<g>
					<polygon points="153.1,190.8 153.1,183.4 153.2,183.3 153.2,190.9 					"/>
					<polygon points="153.5,182.6 152.9,183.3 152.9,190.9 153.5,191.6 153.5,182.6 					"/>
				</g>
			</g>
			<g>
				<g>
					<polygon points="152.1,183.3 152.2,183.4 152.2,190.8 152.1,190.9 					"/>
					<polygon points="151.9,182.6 151.8,191.6 152.4,190.9 152.5,183.3 151.9,182.6 					"/>
				</g>
				<g>
					<polygon points="151.5,190.8 151.5,183.4 151.6,183.3 151.6,190.9 					"/>
					<polygon points="151.9,182.6 151.2,183.3 151.2,190.9 151.8,191.6 151.9,182.6 					"/>
				</g>
			</g>
		</g>
	</g>
	<g>
		<g>
			<g>
				<g>
					<polyline class="st11" points="202.6,46.6 203,47.3 202.7,49.8 203.1,50.3 204.6,50.3 205,49.8 204.7,47.3 205.1,46.6 					"/>
					<rect x="202.6" y="37" class="st11" width="2.5" height="5.7"/>
					<rect x="201.5" y="36.7" class="st11" width="4.5" height="0.7"/>
					<rect x="202.6" y="43.4" class="st11" width="2.5" height="1.9"/>
					<rect x="202.6" y="45.8" class="st11" width="2.5" height="0.7"/>
					<rect x="202.8" y="45.3" class="st11" width="2.1" height="0.6"/>
					
						<rect x="203.5" y="42" transform="matrix(2.366814e-03 -1 1 2.366814e-03 160.288 246.7938)" class="st11" width="0.6" height="2.1"/>
					<polyline class="st11" points="202.7,49.8 203.1,50.3 204.6,50.3 205,49.8 					"/>
					<g>
						<polygon class="st11" points="202.5,17.7 205,17.7 206.2,28.5 201.1,28.4 						"/>
						<polygon class="st11" points="201,28.5 201,26.8 203.1,26.8 203.1,26.1 201,26.1 201.2,24.5 203.1,24.5 203.1,23.7 
							201.2,23.7 201.3,22.4 203.1,22.4 203.1,21.6 201.4,21.6 201.5,20.1 203.1,20.1 203.1,19.4 201.6,19.4 201.7,17.7 205.7,17.7 
							205.8,19.4 204.4,19.4 204.4,20.1 205.9,20.1 206,21.6 204.4,21.6 204.4,22.4 206,22.4 206.1,23.7 204.4,23.7 204.4,24.5 
							206.2,24.5 206.3,26.1 204.4,26.1 204.4,26.8 206.4,26.8 206.4,28.5 						"/>
					</g>
					<polygon class="st11" points="206.7,28.5 206.7,36.8 200.7,36.8 200.7,28.5 					"/>
				</g>
			</g>
		</g>
	</g>
	<g>
		<g>
			<g>
				<g>
					<polyline class="st11" points="68,11.7 67.3,12 64.7,11.7 64.2,12.2 64.2,13.6 64.7,14.1 67.3,13.8 68,14.1 					"/>
					<rect x="71.8" y="11.7" class="st11" width="6.7" height="2.5"/>
					<rect x="78.1" y="10.6" class="st11" width="0.7" height="4.5"/>
					<rect x="69.3" y="11.7" class="st11" width="1.9" height="2.5"/>
					<rect x="68" y="11.7" class="st11" width="0.7" height="2.5"/>
					<rect x="68.6" y="11.9" class="st11" width="0.6" height="2.1"/>
					
						<rect x="70.4" y="12.6" transform="matrix(1.884237e-03 -1 1 1.884237e-03 58.4413 84.3267)" class="st11" width="2.1" height="0.6"/>
					<polyline class="st11" points="64.7,11.7 64.2,12.2 64.2,13.6 64.7,14.1 					"/>
					<g>
						<polygon class="st11" points="98.8,11.6 98.8,14.1 88.1,15.3 88.1,10.2 						"/>
						<polygon class="st11" points="88.1,10 89.7,10 89.7,12.1 90.4,12.1 90.4,10.1 92,10.2 92,12.1 92.9,12.1 92.9,10.3 94.2,10.4 
							94.2,12.1 94.9,12.1 94.9,10.4 96.4,10.6 96.4,12.1 97.1,12.1 97.1,10.6 98.8,10.8 98.8,14.7 97.1,14.9 97.1,13.4 96.4,13.4 
							96.4,14.9 94.9,15 94.9,13.4 94.2,13.4 94.2,15.1 92.8,15.2 92.8,13.4 92,13.4 92,15.3 90.4,15.4 90.4,13.4 89.7,13.4 
							89.7,15.4 88.1,15.4 						"/>
					</g>
					<polygon class="st11" points="88.1,15.7 78.8,15.7 78.7,9.8 88.1,9.8 					"/>
				</g>
			</g>
		</g>
	</g>
	<g>
		<path class="st0" d="M125.8,29.9c-1,0-1.9-0.9-1.9-1.9c0-0.7,0.4-1.3,0.9-1.6V10.7h1.9v15.7c0.6,0.3,0.9,1,0.9,1.6
			C127.7,29.1,126.9,29.9,125.8,29.9z"/>
		<path class="st1" d="M126.3,11.2v15.5c0.5,0.2,0.9,0.7,0.9,1.3c0,0.8-0.6,1.4-1.4,1.4c-0.8,0-1.4-0.6-1.4-1.4
			c0-0.6,0.4-1.1,0.9-1.3V11.2H126.3 M127.3,10.2h-0.9h-0.9h-0.9v0.9v14.9c-0.6,0.4-0.9,1.1-0.9,1.9c0,1.3,1.1,2.4,2.4,2.4
			c1.3,0,2.4-1.1,2.4-2.4c0-0.7-0.4-1.4-0.9-1.9V11.2V10.2L127.3,10.2z"/>
	</g>
	<g>
		<path class="st0" d="M126.3,188.7v-31.1c-0.6-0.3-0.9-1-0.9-1.6c0-1,0.9-1.9,1.9-1.9s1.9,0.9,1.9,1.9c0,0.7-0.4,1.3-0.9,1.6v31.1
			H126.3z"/>
		<path class="st1" d="M127.3,154.6c0.8,0,1.4,0.6,1.4,1.4c0,0.6-0.4,1.1-0.9,1.3v30.9h-0.9v-30.9c-0.5-0.2-0.9-0.7-0.9-1.3
			C125.8,155.2,126.5,154.6,127.3,154.6 M127.3,153.6c-1.3,0-2.4,1.1-2.4,2.4c0,0.7,0.4,1.4,0.9,1.9v30.4v0.9h0.9h0.9h0.9v-0.9
			v-30.4c0.6-0.4,0.9-1.1,0.9-1.9C129.6,154.7,128.6,153.6,127.3,153.6L127.3,153.6z"/>
	</g>
	<path class="st12" d="M7.9,0.4c-2.2,0-4,1.8-4,4v24.1c0,2.2,1.8,4,4,4h20l3.9,4l3.8-4h19.7c2.2,0,4-1.8,4-4V4.4c0-2.2-1.8-4-4-4
		H7.9z"/>
	<g>
		<path d="M132.3,25.4c-0.3-0.2-0.7-0.3-1.1-0.3c-0.6,0-1,0.4-1,0.9c0,0.4,0.2,0.7,1.1,1.2c1,0.6,1.3,1.1,1.3,1.8
			c0,1-0.6,1.8-1.8,1.8c-0.5,0-1-0.1-1.3-0.3v-0.8c0.4,0.2,0.8,0.4,1.2,0.4c0.7,0,1.1-0.5,1.1-1c0-0.5-0.1-0.8-1-1.3
			c-1.1-0.7-1.4-1.1-1.4-1.9c0-1,0.8-1.6,1.7-1.6c0.4,0,0.9,0.1,1.1,0.2V25.4z"/>
		<path d="M135.6,30.7c-0.2,0.1-0.4,0.1-0.6,0.1c-0.7,0-1.1-0.3-1.1-1.1v-3h-0.7v-0.6h0.7v-0.9l0.8-0.2v1.2h0.9v0.6h-0.9v2.7
			c0,0.5,0.1,0.7,0.5,0.7c0.2,0,0.3-0.1,0.5-0.1V30.7z"/>
		<path d="M136.8,28.7c0,1.1,0.4,1.6,1.3,1.6c0.4,0,0.8-0.2,1.1-0.4l0,0.7c-0.4,0.2-0.8,0.3-1.3,0.3c-1.2,0-1.8-0.9-1.8-2.4
			s0.6-2.4,1.8-2.4c1,0,1.6,0.8,1.6,2.2v0.4H136.8z M138.6,28.1c0-1-0.3-1.4-0.9-1.4c-0.5,0-0.9,0.4-0.9,1.4H138.6z"/>
		<path d="M140.2,27.1c0-0.3,0-0.7,0-1h0.7l0,0.7h0c0.2-0.6,0.6-0.8,1.3-0.8v0.7c-0.1,0-0.2,0-0.3,0c-0.6,0-1,0.5-1,1.5v2.4h-0.8
			V27.1z"/>
		<path d="M143.4,28.7c0,1.1,0.4,1.6,1.3,1.6c0.4,0,0.8-0.2,1.1-0.4l0,0.7c-0.4,0.2-0.8,0.3-1.3,0.3c-1.2,0-1.8-0.9-1.8-2.4
			s0.6-2.4,1.8-2.4c1,0,1.6,0.8,1.6,2.2v0.4H143.4z M145.3,28.1c0-1-0.3-1.4-0.9-1.4c-0.5,0-0.9,0.4-0.9,1.4H145.3z"/>
		<path d="M148.5,26.1c1.2,0,1.8,0.9,1.8,2.4s-0.6,2.4-1.8,2.4c-1.2,0-1.8-0.9-1.8-2.4S147.3,26.1,148.5,26.1z M148.5,30.2
			c0.7,0,1.1-0.6,1.1-1.7s-0.3-1.7-1.1-1.7c-0.7,0-1.1,0.6-1.1,1.7S147.8,30.2,148.5,30.2z"/>
		<path d="M157.2,30.6c-0.4,0.1-0.8,0.2-1.1,0.2c-2,0-2.8-1.5-2.8-3.2c0-2,1.1-3.2,2.8-3.2c0.5,0,0.9,0.1,1.2,0.2v0.8
			c-0.3-0.2-0.7-0.3-1.2-0.3c-1,0-2,0.8-2,2.3c0,1.6,0.6,2.7,2,2.7c0.4,0,0.8-0.1,1.1-0.3V30.6z"/>
		<path d="M158.4,26.5c0.4-0.2,0.8-0.4,1.3-0.4c0.7,0,1.1,0.3,1.2,0.4c0.2,0.2,0.4,0.5,0.4,1.1V30c0,0.3,0,0.5,0,0.7h-0.7l0-0.6h0
			c-0.2,0.4-0.6,0.7-1.3,0.7c-0.8,0-1.3-0.4-1.3-1.3c0-0.9,0.6-1.5,2.2-1.5h0.4v-0.2c0-0.3,0-0.5-0.2-0.7c-0.2-0.2-0.5-0.3-0.8-0.3
			c-0.5,0-0.9,0.2-1.2,0.5L158.4,26.5z M160.6,28.5c-0.1,0-0.3,0-0.5,0c-0.9,0-1.3,0.4-1.3,1c0,0.5,0.3,0.8,0.8,0.8
			c0.7,0,1.1-0.5,1.1-1.2V28.5z"/>
		<path d="M162.3,24h0.8v2.8h0c0.3-0.5,0.6-0.7,1.2-0.7c0.9,0,1.6,0.8,1.6,2.4s-0.6,2.4-1.6,2.4c-0.7,0-1-0.4-1.2-0.7h0l0,0.7h-0.7
			c0-0.3,0-0.6,0-0.8V24z M164.1,30.2c0.7,0,1-0.6,1-1.7s-0.3-1.7-1-1.7c-0.7,0-1,0.6-1,1.7S163.4,30.2,164.1,30.2z"/>
		<path d="M166.8,24h0.8v6.8h-0.8V24z"/>
		<path d="M169.3,28.7c0,1.1,0.4,1.6,1.3,1.6c0.4,0,0.8-0.2,1.1-0.4l0,0.7c-0.4,0.2-0.8,0.3-1.3,0.3c-1.2,0-1.8-0.9-1.8-2.4
			s0.6-2.4,1.8-2.4c1,0,1.6,0.8,1.6,2.2v0.4H169.3z M171.1,28.1c0-1-0.3-1.4-0.9-1.4c-0.5,0-0.9,0.4-0.9,1.4H171.1z"/>
	</g>
	<g>
		<path d="M131.1,152.7h1.6c0.7,0,1,0.2,1.3,0.4c0.3,0.3,0.5,0.7,0.5,1.2c0,0.7-0.3,1.3-1.2,1.5v0c0.4,0.1,0.6,0.3,0.7,0.6l0.9,2.5
			H134l-0.7-2.1c-0.2-0.5-0.4-0.7-1-0.7h-0.4v2.8h-0.8V152.7z M131.9,155.5h0.6c0.8,0,1.2-0.6,1.2-1.1c0-0.7-0.5-1-1.2-1h-0.6V155.5
			z"/>
		<path d="M139.5,158.8c-0.4,0.1-0.8,0.2-1.1,0.2c-2,0-2.8-1.5-2.8-3.2c0-2,1.1-3.2,2.8-3.2c0.5,0,0.9,0.1,1.2,0.2v0.8
			c-0.3-0.2-0.7-0.3-1.2-0.3c-1,0-2,0.8-2,2.3c0,1.6,0.6,2.7,2,2.7c0.4,0,0.8-0.1,1.1-0.3V158.8z"/>
		<path d="M143,152.7l2.1,6.3h-0.8l-0.5-1.6h-2.4l-0.5,1.6H140l2.1-6.3H143z M143.5,156.6l-1-3.1h0l-1,3.1H143.5z"/>
		<path d="M133.5,162.7l2.1,6.3h-0.8l-0.5-1.6h-2.4l-0.5,1.6h-0.8l2.1-6.3H133.5z M134,166.6l-1-3.1h0l-1,3.1H134z"/>
		<path d="M139.4,168.1c0,0.3,0,0.6,0,0.8h-0.7l0-0.7h0c-0.2,0.4-0.5,0.7-1.2,0.7c-0.9,0-1.6-0.8-1.6-2.4s0.6-2.4,1.6-2.4
			c0.5,0,0.9,0.2,1.2,0.7h0v-2.8h0.8V168.1z M137.7,164.9c-0.7,0-1,0.6-1,1.7s0.3,1.7,1,1.7s1-0.6,1-1.7S138.4,164.9,137.7,164.9z"
			/>
		<path d="M140.6,164.7c0.4-0.2,0.8-0.4,1.3-0.4c0.7,0,1.1,0.3,1.2,0.4c0.2,0.2,0.4,0.5,0.4,1.1v2.4c0,0.3,0,0.5,0,0.7h-0.7l0-0.6h0
			c-0.2,0.4-0.6,0.7-1.3,0.7c-0.8,0-1.3-0.4-1.3-1.3c0-0.9,0.6-1.5,2.2-1.5h0.4v-0.2c0-0.3,0-0.5-0.2-0.7c-0.2-0.2-0.5-0.3-0.8-0.3
			c-0.5,0-0.9,0.2-1.2,0.5L140.6,164.7z M142.8,166.7c-0.1,0-0.3,0-0.5,0c-0.9,0-1.3,0.4-1.3,1c0,0.5,0.3,0.8,0.8,0.8
			c0.7,0,1.1-0.5,1.1-1.2V166.7z"/>
		<path d="M144.6,165.2c0-0.3,0-0.6,0-0.8h0.7l0,0.7h0c0.2-0.4,0.5-0.7,1.2-0.7c0.9,0,1.6,0.8,1.6,2.4s-0.6,2.4-1.6,2.4
			c-0.5,0-0.9-0.2-1.2-0.7h0v2.6h-0.8V165.2z M146.3,168.4c0.7,0,1-0.6,1-1.7s-0.3-1.7-1-1.7c-0.7,0-1,0.6-1,1.7
			S145.6,168.4,146.3,168.4z"/>
		<path d="M151,168.9c-0.2,0.1-0.4,0.1-0.6,0.1c-0.7,0-1.1-0.3-1.1-1.1v-3h-0.7v-0.6h0.7v-0.9l0.8-0.2v1.2h0.9v0.6H150v2.7
			c0,0.5,0.1,0.7,0.5,0.7c0.2,0,0.3-0.1,0.5-0.1V168.9z"/>
		<path d="M152.2,166.9c0,1.1,0.4,1.6,1.3,1.6c0.4,0,0.8-0.2,1.1-0.4l0,0.7c-0.4,0.2-0.8,0.3-1.3,0.3c-1.2,0-1.8-0.9-1.8-2.4
			s0.6-2.4,1.8-2.4c1,0,1.6,0.8,1.6,2.2v0.4H152.2z M154,166.3c0-1-0.3-1.4-0.9-1.4c-0.5,0-0.9,0.4-0.9,1.4H154z"/>
		<path d="M155.6,165.4c0-0.3,0-0.7,0-1h0.7l0,0.7h0c0.2-0.6,0.6-0.8,1.3-0.8v0.7c-0.1,0-0.2,0-0.3,0c-0.6,0-1,0.5-1,1.5v2.4h-0.8
			V165.4z"/>
	</g>
	<g>
		<path d="M1,134.5h1.4c0.8,0,1.3,0.2,1.7,0.5c0.6,0.4,1.2,1.2,1.2,2.6c0,1.8-0.9,3.2-3.2,3.2H1V134.5z M1.8,140.1h0.5
			c1.4,0,2.1-0.9,2.1-2.6c0-1.3-0.6-2.4-2.1-2.4H1.8V140.1z"/>
		<path d="M5.6,134.5h0.9l1.5,5.1h0l1.5-5.1h0.8l-2,6.3H7.5L5.6,134.5z"/>
		<path d="M11,134.5h1.4c0.8,0,1.3,0.2,1.7,0.5c0.6,0.4,1.2,1.2,1.2,2.6c0,1.8-0.9,3.2-3.2,3.2h-1V134.5z M11.8,140.1h0.5
			c1.4,0,2.1-0.9,2.1-2.6c0-1.3-0.6-2.4-2.1-2.4h-0.5V140.1z"/>
		<path d="M17.2,134.5h0.7l-1.7,6.4h-0.7L17.2,134.5z"/>
		<path d="M18.6,134.5h1.6c1.2,0,1.7,0.7,1.7,1.6c0,0.7-0.4,1.2-1,1.4v0c0.7,0.1,1.2,0.7,1.2,1.6c0,0.9-0.6,1.7-2,1.7h-1.5V134.5z
			 M19.4,137.2h0.5c0.9,0,1.3-0.4,1.3-1.1c0-0.5-0.3-1-1.2-1h-0.6V137.2z M19.4,140.2H20c0.8,0,1.2-0.5,1.2-1.1
			c0-0.6-0.4-1.1-1.1-1.1h-0.8V140.2z"/>
		<path d="M23.2,134.1h0.8v6.8h-0.8V134.1z"/>
		<path d="M28.3,139.8c0,0.3,0,0.7,0,1h-0.7l0-0.7h0c-0.2,0.5-0.6,0.7-1.2,0.7c-0.8,0-1.3-0.5-1.3-1.5v-3.2h0.8v3c0,0.7,0.3,1,0.8,1
			c0.6,0,1-0.4,1-1.2v-2.8h0.8V139.8z"/>
		<path d="M29.2,138h1.9v0.6h-1.9V138z"/>
		<path d="M32.1,137.2c0-0.3,0-0.7,0-1h0.7l0,0.7h0c0.2-0.6,0.6-0.8,1.3-0.8v0.7c-0.1,0-0.2,0-0.3,0c-0.6,0-1,0.5-1,1.5v2.4h-0.8
			V137.2z"/>
		<path d="M34.9,136.5c0.4-0.2,0.8-0.4,1.3-0.4c0.7,0,1.1,0.3,1.2,0.4c0.2,0.2,0.4,0.5,0.4,1.1v2.4c0,0.3,0,0.5,0,0.7h-0.7l0-0.6h0
			c-0.2,0.4-0.6,0.7-1.3,0.7c-0.8,0-1.3-0.4-1.3-1.3c0-0.9,0.6-1.5,2.2-1.5h0.4v-0.2c0-0.3,0-0.5-0.2-0.7c-0.2-0.2-0.5-0.3-0.8-0.3
			c-0.5,0-0.9,0.2-1.2,0.5L34.9,136.5z M37.1,138.6c-0.1,0-0.3,0-0.5,0c-0.9,0-1.3,0.4-1.3,1c0,0.5,0.3,0.8,0.8,0.8
			c0.7,0,1.1-0.5,1.1-1.2V138.6z"/>
		<path d="M40.4,141.7c-0.2,0.8-0.5,1.1-1.1,1.1c-0.2,0-0.4,0-0.5-0.1l0-0.7c0.1,0.1,0.3,0.1,0.4,0.1c0.2,0,0.4-0.1,0.5-0.6l0.2-0.7
			l-1.4-4.7h0.8l1,3.7h0l1-3.7H42L40.4,141.7z"/>
		<path d="M43,134.4h-0.7v-0.2H44v0.2h-0.7v1.9H43V134.4z M44.4,134.1H45l0.6,1.7l0.6-1.7h0.5v2.2h-0.3v-1.9h0l-0.7,1.9h-0.2
			l-0.7-1.9h0v1.9h-0.3V134.1z"/>
		<path d="M47.4,134.5h0.9l1.5,5.1h0l1.5-5.1H52l-2,6.3h-0.8L47.4,134.5z"/>
		<path d="M56.5,140.7c-0.4,0.1-0.8,0.2-1.1,0.2c-2,0-2.8-1.5-2.8-3.2c0-2,1.1-3.2,2.8-3.2c0.5,0,0.9,0.1,1.2,0.2v0.8
			c-0.3-0.2-0.7-0.3-1.2-0.3c-1,0-2,0.8-2,2.3c0,1.6,0.6,2.7,2,2.7c0.4,0,0.8-0.1,1.1-0.3V140.7z"/>
		<path d="M57.6,134.5h1.6c0.7,0,1,0.2,1.3,0.4c0.3,0.3,0.5,0.7,0.5,1.2c0,0.7-0.3,1.3-1.2,1.5v0c0.4,0.1,0.6,0.3,0.7,0.6l0.9,2.5
			h-0.9l-0.7-2.1c-0.2-0.5-0.4-0.7-1-0.7h-0.4v2.8h-0.8V134.5z M58.4,137.3H59c0.8,0,1.2-0.6,1.2-1.1c0-0.7-0.5-1-1.2-1h-0.6V137.3z
			"/>
	</g>
	<g>
		<polygon class="st0" points="40.9,12.7 49.8,9 48.7,11.5 63.2,11.5 63.2,14 48.7,14 49.8,16.5 		"/>
		<path class="st1" d="M49.4,9.4l-1,2.3H63v2.2H48.4l1,2.3l-8-3.4L49.4,9.4 M50.1,8.7L49.3,9l-8,3.4l-0.8,0.3l0.8,0.3l8,3.4l0.8,0.3
			L49.8,16L49,14.2h14h0.4v-0.4v-2.2v-0.4H63H49l0.8-1.8L50.1,8.7L50.1,8.7z"/>
	</g>
	<g>
		<path class="st1" d="M190.6,15.2c0,0-0.9-1,0-2.3c0.9-1.3,0-2.7,0-2.7h-2.3c0,0,0.9,1.4,0,2.7c-0.9,1.3,0,2.3,0,2.3H190.6z"/>
		<path class="st13" d="M190.6,10.2c0,0,0.9,1.4,0,2.7c-0.9,1.3,0,2.3,0,2.3"/>
		<path class="st13" d="M188.3,10.2c0,0,0.9,1.4,0,2.7c-0.9,1.3,0,2.3,0,2.3"/>
	</g>
	<g>
		<path class="st1" d="M116.4,189.6c0,0,0.9-1,0-2.3c-0.9-1.3,0-2.7,0-2.7h2.3c0,0-0.9,1.4,0,2.7c0.9,1.3,0,2.3,0,2.3H116.4z"/>
		<path class="st13" d="M116.4,184.6c0,0-0.9,1.4,0,2.7c0.9,1.3,0,2.3,0,2.3"/>
		<path class="st13" d="M118.6,184.6c0,0-0.9,1.4,0,2.7c0.9,1.3,0,2.3,0,2.3"/>
	</g>
	<polyline class="st2" points="80.7,175.8 99.5,175.8 99.5,195.8 80.7,195.8 	"/>
	<g>
		<g>
			<path class="st7" d="M42,175.8c0-0.5,0.4-1,1-1l7.2,0c0.5,0,1,0.4,1,1l0,0c0,0.5-0.5,1-1,1l-7.2,0C42.4,176.8,42,176.3,42,175.8
				L42,175.8z"/>
			<polygon class="st7" points="47.3,172.4 51.7,172.4 51.7,179.1 47.4,179.1 			"/>
			<polygon class="st7" points="83.1,174.6 83.1,176.7 70,177.8 70,173.6 			"/>
			<polygon class="st7" points="75.3,178.2 73.5,178.4 73.5,176.5 72,176.5 72,178.5 70,178.7 70,172.7 72,172.9 72,174.9 
				73.5,174.9 73.5,173 75.3,173.2 76.6,173.3 79.1,173.5 79.1,174.8 80.2,174.8 80.2,173.6 83.1,173.8 83.1,177.5 80.2,177.8 
				80.2,176.5 79.1,176.5 79.1,177.9 76.6,178.1 			"/>
			<polygon class="st7" points="50.2,171.5 67.4,171.5 70,172.7 70,178.7 67.4,179.9 50.2,179.9 			"/>
			<polygon class="st7" points="67.4,171.5 70,172.7 70,178.7 67.4,179.9 			"/>
		</g>
		<polygon class="st7" points="75.3,177.6 76.6,177.6 76.6,173.9 75.3,173.9 		"/>
		<g>
			<line class="st14" x1="66.4" y1="179.9" x2="66.4" y2="171.5"/>
			<line class="st14" x1="65.9" y1="179.9" x2="65.9" y2="171.5"/>
			<line class="st14" x1="65.4" y1="179.9" x2="65.4" y2="171.5"/>
			<line class="st14" x1="64.9" y1="179.9" x2="64.9" y2="171.5"/>
			<line class="st14" x1="64.5" y1="179.9" x2="64.5" y2="171.5"/>
			<line class="st14" x1="64" y1="179.9" x2="64" y2="171.5"/>
			<line class="st14" x1="63.5" y1="179.9" x2="63.5" y2="171.5"/>
			<line class="st14" x1="63" y1="179.9" x2="63" y2="171.5"/>
			<line class="st14" x1="62.5" y1="179.9" x2="62.5" y2="171.5"/>
			<line class="st14" x1="62.1" y1="179.9" x2="62.1" y2="171.5"/>
			<line class="st14" x1="61.6" y1="179.9" x2="61.6" y2="171.5"/>
			<line class="st14" x1="61.1" y1="179.9" x2="61.1" y2="171.5"/>
			<line class="st14" x1="60.6" y1="179.9" x2="60.6" y2="171.5"/>
			<line class="st14" x1="60.1" y1="179.9" x2="60.1" y2="171.5"/>
			<line class="st14" x1="59.6" y1="179.9" x2="59.6" y2="171.5"/>
			<line class="st14" x1="59.2" y1="179.9" x2="59.2" y2="171.5"/>
			<line class="st14" x1="58.7" y1="179.9" x2="58.7" y2="171.5"/>
			<line class="st14" x1="58.2" y1="179.9" x2="58.2" y2="171.5"/>
			<line class="st14" x1="57.7" y1="179.9" x2="57.7" y2="171.5"/>
			<line class="st14" x1="57.2" y1="179.9" x2="57.2" y2="171.5"/>
			<line class="st14" x1="56.8" y1="179.9" x2="56.8" y2="171.5"/>
			<line class="st14" x1="56.3" y1="179.9" x2="56.3" y2="171.5"/>
			<line class="st14" x1="55.8" y1="179.9" x2="55.8" y2="171.5"/>
			<line class="st14" x1="55.3" y1="179.9" x2="55.3" y2="171.5"/>
		</g>
		<ellipse class="st1" cx="60.8" cy="175.7" rx="4.2" ry="2.5"/>
	</g>
	<g>
		<g>
			<path class="st7" d="M42,196.1c0-0.5,0.4-1,1-1l7.2,0c0.5,0,1,0.4,1,1l0,0c0,0.5-0.5,1-1,1l-7.2,0C42.4,197.1,42,196.7,42,196.1
				L42,196.1z"/>
			<polygon class="st7" points="47.3,192.7 51.7,192.7 51.7,199.5 47.4,199.5 			"/>
			<polygon class="st15" points="83.1,195 83.1,197.1 70,198.2 70,194 			"/>
			<polygon class="st15" points="75.3,198.6 73.5,198.7 73.5,196.9 72,196.9 72,198.9 70,199 70,193.1 72,193.3 72,195.2 
				73.5,195.2 73.5,193.4 75.3,193.5 76.6,193.7 79.1,193.9 79.1,195.2 80.2,195.2 80.2,194 83.1,194.2 83.1,197.9 80.2,198.2 
				80.2,196.9 79.1,196.9 79.1,198.3 76.6,198.5 			"/>
			<polygon class="st15" points="50.2,191.9 67.4,191.9 70,193.1 70,199 67.4,200.3 50.2,200.3 			"/>
			<polygon class="st16" points="67.4,191.9 70,193.1 70,199 67.4,200.3 			"/>
		</g>
		<polygon class="st17" points="75.3,198 76.6,198 76.6,194.3 75.3,194.2 		"/>
		<g>
			<line class="st18" x1="66.4" y1="200.3" x2="66.4" y2="191.9"/>
			<line class="st18" x1="65.9" y1="200.3" x2="65.9" y2="191.9"/>
			<line class="st18" x1="65.4" y1="200.3" x2="65.4" y2="191.9"/>
			<line class="st18" x1="64.9" y1="200.3" x2="64.9" y2="191.9"/>
			<line class="st18" x1="64.5" y1="200.3" x2="64.5" y2="191.9"/>
			<line class="st18" x1="64" y1="200.3" x2="64" y2="191.9"/>
			<line class="st18" x1="63.5" y1="200.3" x2="63.5" y2="191.9"/>
			<line class="st18" x1="63" y1="200.3" x2="63" y2="191.9"/>
			<line class="st18" x1="62.5" y1="200.3" x2="62.5" y2="191.9"/>
			<line class="st18" x1="62.1" y1="200.3" x2="62.1" y2="191.9"/>
			<line class="st18" x1="61.6" y1="200.3" x2="61.6" y2="191.9"/>
			<line class="st18" x1="61.1" y1="200.3" x2="61.1" y2="191.9"/>
			<line class="st18" x1="60.6" y1="200.3" x2="60.6" y2="191.9"/>
			<line class="st18" x1="60.1" y1="200.3" x2="60.1" y2="191.9"/>
			<line class="st18" x1="59.6" y1="200.3" x2="59.6" y2="191.9"/>
			<line class="st18" x1="59.2" y1="200.3" x2="59.2" y2="191.9"/>
			<line class="st18" x1="58.7" y1="200.3" x2="58.7" y2="191.9"/>
			<line class="st18" x1="58.2" y1="200.3" x2="58.2" y2="191.9"/>
			<line class="st18" x1="57.7" y1="200.3" x2="57.7" y2="191.9"/>
			<line class="st18" x1="57.2" y1="200.3" x2="57.2" y2="191.9"/>
			<line class="st18" x1="56.8" y1="200.3" x2="56.8" y2="191.9"/>
			<line class="st18" x1="56.3" y1="200.3" x2="56.3" y2="191.9"/>
			<line class="st18" x1="55.8" y1="200.3" x2="55.8" y2="191.9"/>
			<line class="st18" x1="55.3" y1="200.3" x2="55.3" y2="191.9"/>
		</g>
		<path d="M56.6,196.1c0,1.4,1.9,2.5,4.2,2.5c2.3,0,4.2-1.1,4.2-2.5c0-1.4-1.9-2.5-4.2-2.5C58.4,193.6,56.6,194.7,56.6,196.1z"/>
	</g>
	<g>
		<path d="M8.1,21.8h0.8V28H8.1V21.8z"/>
		<path d="M10.2,24.4c0-0.3,0-0.7,0-1h0.7l0,0.7h0c0.2-0.5,0.6-0.7,1.2-0.7c0.8,0,1.3,0.5,1.3,1.5V28h-0.8v-3c0-0.7-0.3-1-0.8-1
			c-0.6,0-1,0.4-1,1.2V28h-0.8V24.4z"/>
		<path d="M14.4,24.3c0-0.3,0-0.6,0-0.8h0.7l0,0.7h0c0.2-0.4,0.5-0.7,1.2-0.7c0.9,0,1.6,0.8,1.6,2.4s-0.6,2.4-1.6,2.4
			c-0.5,0-0.9-0.2-1.2-0.7h0V30h-0.8V24.3z M16.2,27.5c0.7,0,1-0.6,1-1.7s-0.3-1.7-1-1.7c-0.7,0-1,0.6-1,1.7S15.5,27.5,16.2,27.5z"
			/>
		<path d="M22.1,27.1c0,0.3,0,0.7,0,1h-0.7l0-0.7h0c-0.2,0.5-0.6,0.7-1.2,0.7c-0.8,0-1.3-0.5-1.3-1.5v-3.2h0.8v3c0,0.7,0.3,1,0.8,1
			c0.6,0,1-0.4,1-1.2v-2.8h0.8V27.1z"/>
		<path d="M25.2,28c-0.2,0.1-0.4,0.1-0.6,0.1c-0.7,0-1.1-0.3-1.1-1.1v-3h-0.7v-0.6h0.7v-0.9l0.8-0.2v1.2h0.9v0.6h-0.9v2.7
			c0,0.5,0.1,0.7,0.5,0.7c0.2,0,0.3-0.1,0.5-0.1V28z"/>
		<path d="M30,21.8L32,28h-0.8l-0.5-1.6h-2.4L27.8,28H27l2.1-6.3H30z M30.5,25.7l-1-3.1h0l-1,3.1H30.5z"/>
		<path d="M32.8,27h0.8L33,29.1h-0.7L32.8,27z"/>
		<path d="M35,21.8h1.6c1.2,0,1.7,0.7,1.7,1.6c0,0.7-0.4,1.2-1,1.4v0c0.7,0.1,1.2,0.7,1.2,1.6c0,0.9-0.6,1.7-2,1.7H35V21.8z
			 M35.8,24.5h0.5c0.9,0,1.3-0.4,1.3-1.1c0-0.5-0.3-1-1.2-1h-0.6V24.5z M35.8,27.4h0.7c0.8,0,1.2-0.5,1.2-1.1c0-0.6-0.4-1.1-1.1-1.1
			h-0.8V27.4z"/>
		<path d="M39.1,27H40l-0.6,2.1h-0.7L39.1,27z"/>
		<path d="M44.6,23.4c1.2,0,1.8,0.9,1.8,2.4s-0.6,2.4-1.8,2.4c-1.2,0-1.8-0.9-1.8-2.4S43.4,23.4,44.6,23.4z M44.6,27.5
			c0.7,0,1.1-0.6,1.1-1.7S45.3,24,44.6,24c-0.7,0-1.1,0.6-1.1,1.7S43.9,27.5,44.6,27.5z"/>
		<path d="M47.3,24.4c0-0.3,0-0.7,0-1H48l0,0.7h0c0.2-0.6,0.6-0.8,1.3-0.8v0.7c-0.1,0-0.2,0-0.3,0c-0.6,0-1,0.5-1,1.5V28h-0.8V24.4z
			"/>
		<path d="M56,27.9c-0.4,0.1-0.8,0.2-1.1,0.2c-2,0-2.8-1.5-2.8-3.2c0-2,1.1-3.2,2.8-3.2c0.5,0,0.9,0.1,1.2,0.2v0.8
			c-0.3-0.2-0.7-0.3-1.2-0.3c-1,0-2,0.8-2,2.3c0,1.6,0.6,2.7,2,2.7c0.4,0,0.8-0.1,1.1-0.3V27.9z"/>
	</g>
	<g>
		<circle class="st19" cx="31.2" cy="11.8" r="6.8"/>
		<path class="st20" d="M27,11.8c0,2.4,1.9,4.3,4.3,4.3c2.3,0,4.3-1.9,4.3-4.3c0-2.4-1.9-4.3-4.3-4.3C28.9,7.6,27,9.5,27,11.8z"/>
	</g>
	<path class="st12" d="M19.8,204.9c2.2,0,4-1.8,4-4v-31.5c0-2.2-1.8-4-4-4h-4l-3.9-4l-3.8,4H4.4c-2.2,0-4,1.8-4,4v31.5
		c0,2.2,1.8,4,4,4H19.8z"/>
	<g>
		<path d="M4.6,184.1h0.6l1,2.5H5.6L5.4,186h-1l-0.2,0.6H3.6L4.6,184.1z M4.9,184.6L4.9,184.6l-0.4,1h0.7L4.9,184.6z"/>
		<path d="M6.5,184.1H7v1.5c0,0.4,0.1,0.7,0.5,0.7c0.4,0,0.5-0.3,0.5-0.7v-1.5h0.5v1.6c0,0.7-0.4,1-1,1s-1-0.3-1-1V184.1z"/>
		<path d="M9.1,184.1h0.7c0.8,0,1.5,0.3,1.5,1.3s-0.7,1.3-1.5,1.3H9.1V184.1z M9.6,186.2h0.3c0.4,0,0.8-0.3,0.8-0.9
			s-0.4-0.9-0.8-0.9H9.6V186.2z"/>
		<path d="M11.6,184.1h0.5v2.5h-0.5V184.1z"/>
		<path d="M13.8,184.1c0.8,0,1.2,0.5,1.2,1.3c0,0.8-0.4,1.3-1.2,1.3c-0.8,0-1.2-0.5-1.2-1.3C12.6,184.6,13,184.1,13.8,184.1z
			 M13.8,186.3c0.5,0,0.7-0.5,0.7-0.9c0-0.4-0.2-0.9-0.7-0.9c-0.5,0-0.7,0.5-0.7,0.9C13.1,185.8,13.3,186.3,13.8,186.3z"/>
	</g>
	<g>
		<path d="M3.6,173.3h1v4.3h2v0.8h-3V173.3z"/>
	</g>
	<g>
		<path d="M3.2,193.8h1.1c1.1,0,2.4,0,2.4,1.4c0,0.6-0.4,1.1-1.1,1.2v0c0.3,0,0.4,0.3,0.5,0.5l0.8,2H5.9l-0.6-1.6
			c-0.1-0.4-0.3-0.5-0.7-0.5H4.2v2.1h-1V193.8z M4.2,196h0.3c0.5,0,1.1-0.1,1.1-0.7c0-0.6-0.6-0.7-1.1-0.7H4.2V196z"/>
	</g>
	<g>
		<circle class="st21" cx="15.6" cy="175.8" r="5.6"/>
		<circle cx="15.6" cy="175.9" r="2.9"/>
		<path class="st21" d="M19.7,175.8c0,2.2-1.8,4-4,4c-2.2,0-4-1.8-4-4c0-2.2,1.8-4,4-4C17.9,171.8,19.7,173.6,19.7,175.8z"/>
	</g>
	<g>
		<circle class="st21" cx="15.6" cy="195.6" r="5.6"/>
		<circle cx="15.6" cy="195.6" r="2.9"/>
		<path class="st21" d="M19.7,195.6c0,2.2-1.8,4-4,4c-2.2,0-4-1.8-4-4c0-2.2,1.8-4,4-4C17.9,191.6,19.7,193.4,19.7,195.6z"/>
	</g>
	<g>
		<polygon class="st0" points="17.8,176 26.6,172.3 25.6,174.7 40.1,174.7 40.1,177.3 25.6,177.3 26.6,179.7 		"/>
		<path class="st1" d="M26.3,172.6l-1,2.3h14.6v2.2H25.3l1,2.3l-8-3.4L26.3,172.6 M26.9,171.9l-0.8,0.4l-8,3.4l-0.8,0.3l0.8,0.3
			l8,3.4l0.8,0.4l-0.4-0.8l-0.8-1.8h14h0.4v-0.4v-2.2v-0.4h-0.4h-14l0.8-1.8L26.9,171.9L26.9,171.9z"/>
	</g>
	<g>
		<polygon class="st0" points="17.8,196 26.6,192.3 25.6,194.7 40.1,194.7 40.1,197.3 25.6,197.3 26.6,199.7 		"/>
		<path class="st1" d="M26.3,192.6l-1,2.3h14.6v2.2H25.3l1,2.3l-8-3.4L26.3,192.6 M26.9,191.9l-0.8,0.4l-8,3.4l-0.8,0.3l0.8,0.3
			l8,3.4l0.8,0.4l-0.4-0.8l-0.8-1.8h14h0.4v-0.4v-2.2v-0.4h-0.4h-14l0.8-1.8L26.9,191.9L26.9,191.9z"/>
	</g>
	<g>
		<path class="st0" d="M188.2,102.4c-1,0-1.9-0.9-1.9-1.9s0.9-1.9,1.9-1.9c0.7,0,1.3,0.4,1.6,0.9h15.5v1.9h-15.5
			C189.5,102.1,188.9,102.4,188.2,102.4z"/>
		<path class="st1" d="M188.2,99.1c0.6,0,1.1,0.4,1.3,0.9h15.3v0.9h-15.3c-0.2,0.5-0.7,0.9-1.3,0.9c-0.8,0-1.4-0.6-1.4-1.4
			C186.8,99.7,187.5,99.1,188.2,99.1 M188.2,98.2c-1.3,0-2.4,1.1-2.4,2.4c0,1.3,1.1,2.4,2.4,2.4c0.7,0,1.4-0.4,1.9-0.9h14.7h0.9V101
			v-0.9v-0.9h-0.9h-14.7C189.7,98.5,189,98.2,188.2,98.2L188.2,98.2z"/>
	</g>
	<g>
		<path d="M108.5,96.8h0.8v6.3h-0.8V96.8z"/>
		<path d="M110.6,99.5c0-0.3,0-0.7,0-1h0.7l0,0.7h0c0.2-0.5,0.6-0.7,1.2-0.7c0.8,0,1.3,0.5,1.3,1.5v3.2h-0.8v-3c0-0.7-0.3-1-0.8-1
			c-0.6,0-1,0.4-1,1.2v2.8h-0.8V99.5z"/>
		<path d="M114.7,100.3h1.9v0.6h-1.9V100.3z"/>
		<path d="M117.6,96.4h0.8v6.8h-0.8V96.4z"/>
		<path d="M120.4,96.6v0.9h-0.8v-0.9H120.4z M119.6,98.5h0.8v4.6h-0.8V98.5z"/>
		<path d="M121.6,99.5c0-0.3,0-0.7,0-1h0.7l0,0.7h0c0.2-0.5,0.6-0.7,1.2-0.7c0.8,0,1.3,0.5,1.3,1.5v3.2h-0.8v-3c0-0.7-0.3-1-0.8-1
			c-0.6,0-1,0.4-1,1.2v2.8h-0.8V99.5z"/>
		<path d="M126.5,101.1c0,1.1,0.4,1.6,1.3,1.6c0.4,0,0.8-0.2,1.1-0.4l0,0.7c-0.4,0.2-0.8,0.3-1.3,0.3c-1.2,0-1.8-0.9-1.8-2.4
			s0.6-2.4,1.8-2.4c1,0,1.6,0.8,1.6,2.2v0.4H126.5z M128.3,100.5c0-1-0.3-1.4-0.9-1.4c-0.5,0-0.9,0.4-0.9,1.4H128.3z"/>
		<path d="M131.1,96.8h0.9l1.5,5.1h0l1.5-5.1h0.8l-2,6.3H133L131.1,96.8z"/>
		<path d="M137.7,98.5c1.2,0,1.8,0.9,1.8,2.4s-0.6,2.4-1.8,2.4c-1.2,0-1.8-0.9-1.8-2.4S136.5,98.5,137.7,98.5z M137.7,102.6
			c0.7,0,1.1-0.6,1.1-1.7s-0.3-1.7-1.1-1.7c-0.7,0-1.1,0.6-1.1,1.7S137,102.6,137.7,102.6z"/>
		<path d="M140.5,96.4h0.8v6.8h-0.8V96.4z"/>
		<path d="M145.6,102.1c0,0.3,0,0.7,0,1H145l0-0.7h0c-0.2,0.5-0.6,0.7-1.2,0.7c-0.8,0-1.3-0.5-1.3-1.5v-3.2h0.8v3c0,0.7,0.3,1,0.8,1
			c0.6,0,1-0.4,1-1.2v-2.8h0.8V102.1z"/>
		<path d="M146.7,99.5c0-0.3,0-0.7,0-1h0.7l0,0.7h0c0.2-0.5,0.6-0.7,1.1-0.7c0.5,0,0.8,0.3,1.1,0.7c0.2-0.5,0.6-0.7,1.1-0.7
			c0.8,0,1.3,0.5,1.3,1.5v3.2h-0.8V100c0-0.6-0.3-0.9-0.7-0.9c-0.6,0-0.9,0.3-0.9,1.2v2.8h-0.8V100c0-0.6-0.3-0.9-0.7-0.9
			c-0.6,0-0.9,0.3-0.9,1.2v2.8h-0.8V99.5z"/>
		<path d="M153.8,101.1c0,1.1,0.4,1.6,1.3,1.6c0.4,0,0.8-0.2,1.1-0.4l0,0.7c-0.4,0.2-0.8,0.3-1.3,0.3c-1.2,0-1.8-0.9-1.8-2.4
			s0.6-2.4,1.8-2.4c1,0,1.6,0.8,1.6,2.2v0.4H153.8z M155.6,100.5c0-1-0.3-1.4-0.9-1.4c-0.5,0-0.9,0.4-0.9,1.4H155.6z"/>
		<path d="M163.3,103c-0.4,0.1-0.8,0.2-1.1,0.2c-2,0-2.8-1.5-2.8-3.2c0-2,1.1-3.2,2.8-3.2c0.5,0,0.9,0.1,1.2,0.2v0.8
			c-0.3-0.2-0.7-0.3-1.2-0.3c-1,0-2,0.8-2,2.3c0,1.6,0.6,2.7,2,2.7c0.4,0,0.8-0.1,1.1-0.3V103z"/>
		<path d="M165.9,98.5c1.2,0,1.8,0.9,1.8,2.4s-0.6,2.4-1.8,2.4c-1.2,0-1.8-0.9-1.8-2.4S164.6,98.5,165.9,98.5z M165.9,102.6
			c0.7,0,1.1-0.6,1.1-1.7s-0.3-1.7-1.1-1.7c-0.7,0-1.1,0.6-1.1,1.7S165.1,102.6,165.9,102.6z"/>
		<path d="M168.6,99.5c0-0.3,0-0.7,0-1h0.7l0,0.7h0c0.2-0.5,0.6-0.7,1.2-0.7c0.8,0,1.3,0.5,1.3,1.5v3.2h-0.8v-3c0-0.7-0.3-1-0.8-1
			c-0.6,0-1,0.4-1,1.2v2.8h-0.8V99.5z"/>
		<path d="M174.9,103.1c-0.2,0.1-0.4,0.1-0.6,0.1c-0.7,0-1.1-0.3-1.1-1.1v-3h-0.7v-0.6h0.7v-0.9l0.8-0.2v1.2h0.9v0.6H174v2.7
			c0,0.5,0.1,0.7,0.5,0.7c0.2,0,0.3-0.1,0.5-0.1V103.1z"/>
		<path d="M175.6,99.5c0-0.3,0-0.7,0-1h0.7l0,0.7h0c0.2-0.6,0.6-0.8,1.3-0.8v0.7c-0.1,0-0.2,0-0.3,0c-0.6,0-1,0.5-1,1.5v2.4h-0.8
			V99.5z"/>
		<path d="M179.9,98.5c1.2,0,1.8,0.9,1.8,2.4s-0.6,2.4-1.8,2.4c-1.2,0-1.8-0.9-1.8-2.4S178.6,98.5,179.9,98.5z M179.9,102.6
			c0.7,0,1.1-0.6,1.1-1.7s-0.3-1.7-1.1-1.7c-0.7,0-1.1,0.6-1.1,1.7S179.1,102.6,179.9,102.6z"/>
		<path d="M182.6,96.4h0.8v6.8h-0.8V96.4z"/>
	</g>
</g>
<g id="Ensemble">
	<g>
		<path d="M1.6,104.1h2.9v0.7H2.4v2h2v0.7h-2v2.2h2.3v0.7h-3V104.1z"/>
		<path d="M5.7,106.8c0-0.3,0-0.7,0-1h0.7l0,0.7h0c0.2-0.5,0.6-0.7,1.2-0.7c0.8,0,1.3,0.5,1.3,1.5v3.2H8.1v-3c0-0.7-0.3-1-0.8-1
			c-0.6,0-1,0.4-1,1.2v2.8H5.7V106.8z"/>
		<path d="M9.8,109.5c0.3,0.2,0.7,0.3,1.1,0.3c0.6,0,0.9-0.3,0.9-0.6c0-0.3-0.2-0.5-0.6-0.7l-0.5-0.2c-0.7-0.3-0.9-0.6-0.9-1.2
			c0-0.8,0.6-1.3,1.5-1.3c0.4,0,0.7,0.1,1,0.2l0,0.6c-0.2-0.1-0.6-0.2-0.9-0.2c-0.5,0-0.8,0.3-0.8,0.6c0,0.4,0.3,0.6,0.8,0.8
			l0.3,0.1c0.6,0.2,0.9,0.6,0.9,1.2c0,0.8-0.4,1.4-1.5,1.4c-0.5,0-0.9-0.1-1.2-0.3L9.8,109.5z"/>
		<path d="M13.9,108.3c0,1.1,0.4,1.6,1.3,1.6c0.4,0,0.8-0.2,1.1-0.4l0,0.7c-0.4,0.2-0.8,0.3-1.3,0.3c-1.2,0-1.8-0.9-1.8-2.4
			s0.6-2.4,1.8-2.4c1,0,1.6,0.8,1.6,2.2v0.4H13.9z M15.7,107.8c0-1-0.3-1.4-0.9-1.4c-0.5,0-0.9,0.4-0.9,1.4H15.7z M14.9,103.9h0.9
			l-0.9,1.3h-0.6L14.9,103.9z"/>
		<path d="M17.3,106.8c0-0.3,0-0.7,0-1H18l0,0.7h0c0.2-0.5,0.6-0.7,1.1-0.7c0.5,0,0.8,0.3,1.1,0.7c0.2-0.5,0.6-0.7,1.1-0.7
			c0.8,0,1.3,0.5,1.3,1.5v3.2H22v-3.2c0-0.6-0.3-0.9-0.7-0.9c-0.6,0-0.9,0.3-0.9,1.2v2.8h-0.8v-3.2c0-0.6-0.3-0.9-0.7-0.9
			c-0.6,0-0.9,0.3-0.9,1.2v2.8h-0.8V106.8z"/>
		<path d="M23.7,103.7h0.8v2.8h0c0.3-0.5,0.6-0.7,1.2-0.7c0.9,0,1.6,0.8,1.6,2.4s-0.6,2.4-1.6,2.4c-0.7,0-1-0.4-1.2-0.7h0l0,0.7
			h-0.7c0-0.3,0-0.6,0-0.8V103.7z M25.5,109.9c0.7,0,1-0.6,1-1.7s-0.3-1.7-1-1.7c-0.7,0-1,0.6-1,1.7S24.8,109.9,25.5,109.9z"/>
		<path d="M28.2,103.7H29v6.8h-0.8V103.7z"/>
		<path d="M30.7,108.3c0,1.1,0.4,1.6,1.3,1.6c0.4,0,0.8-0.2,1.1-0.4l0,0.7c-0.4,0.2-0.8,0.3-1.3,0.3c-1.2,0-1.8-0.9-1.8-2.4
			s0.6-2.4,1.8-2.4c1,0,1.6,0.8,1.6,2.2v0.4H30.7z M32.5,107.8c0-1-0.3-1.4-0.9-1.4c-0.5,0-0.9,0.4-0.9,1.4H32.5z"/>
		<path d="M39,105c-0.3-0.2-0.7-0.3-1.1-0.3c-0.6,0-1,0.4-1,0.9c0,0.4,0.2,0.7,1.1,1.2c1,0.6,1.3,1.1,1.3,1.8c0,1-0.6,1.8-1.8,1.8
			c-0.5,0-1-0.1-1.3-0.3v-0.8c0.4,0.2,0.8,0.4,1.2,0.4c0.7,0,1.1-0.5,1.1-1c0-0.5-0.1-0.8-1-1.3c-1.1-0.7-1.4-1.1-1.4-1.9
			c0-1,0.8-1.6,1.7-1.6c0.4,0,0.9,0.1,1.1,0.2V105z"/>
		<path d="M40.2,106.7c0-0.3,0-0.6,0-0.8h0.7l0,0.7h0c0.2-0.4,0.5-0.7,1.2-0.7c0.9,0,1.6,0.8,1.6,2.4s-0.6,2.4-1.6,2.4
			c-0.5,0-0.9-0.2-1.2-0.7h0v2.6h-0.8V106.7z M42,109.9c0.7,0,1-0.6,1-1.7s-0.3-1.7-1-1.7c-0.7,0-1,0.6-1,1.7S41.3,109.9,42,109.9z"
			/>
		<path d="M45.2,108.3c0,1.1,0.4,1.6,1.3,1.6c0.4,0,0.8-0.2,1.1-0.4l0,0.7c-0.4,0.2-0.8,0.3-1.3,0.3c-1.2,0-1.8-0.9-1.8-2.4
			s0.6-2.4,1.8-2.4c1,0,1.6,0.8,1.6,2.2v0.4H45.2z M47,107.8c0-1-0.3-1.4-0.9-1.4c-0.5,0-0.9,0.4-0.9,1.4H47z"/>
		<path d="M48.8,106.1c0.4-0.2,0.8-0.4,1.3-0.4c0.7,0,1.1,0.3,1.2,0.4c0.2,0.2,0.4,0.5,0.4,1.1v2.4c0,0.3,0,0.5,0,0.7h-0.7l0-0.6h0
			c-0.2,0.4-0.6,0.7-1.3,0.7c-0.8,0-1.3-0.4-1.3-1.3c0-0.9,0.6-1.5,2.2-1.5H51v-0.2c0-0.3,0-0.5-0.2-0.7c-0.2-0.2-0.5-0.3-0.8-0.3
			c-0.5,0-0.9,0.2-1.2,0.5L48.8,106.1z M51,108.2c-0.1,0-0.3,0-0.5,0c-0.9,0-1.3,0.4-1.3,1c0,0.5,0.3,0.8,0.8,0.8
			c0.7,0,1.1-0.5,1.1-1.2V108.2z"/>
		<path d="M55.1,105.8H56l-1.8,2.1l2,2.5h-0.9l-1.7-2.3h0v2.3h-0.8v-6.8h0.8v4L55.1,105.8z"/>
		<path d="M57,108.3c0,1.1,0.4,1.6,1.3,1.6c0.4,0,0.8-0.2,1.1-0.4l0,0.7c-0.4,0.2-0.8,0.3-1.3,0.3c-1.2,0-1.8-0.9-1.8-2.4
			s0.6-2.4,1.8-2.4c1,0,1.6,0.8,1.6,2.2v0.4H57z M58.9,107.8c0-1-0.3-1.4-0.9-1.4c-0.5,0-0.9,0.4-0.9,1.4H58.9z"/>
		<path d="M60.4,106.8c0-0.3,0-0.7,0-1h0.7l0,0.7h0c0.2-0.6,0.6-0.8,1.3-0.8v0.7c-0.1,0-0.2,0-0.3,0c-0.6,0-1,0.5-1,1.5v2.4h-0.8
			V106.8z"/>
	</g>
	<g>
		<g>
			<path class="st1" d="M23.9,99.5c-0.2,0-0.3,0-0.6-0.1c-0.7-0.1-0.9-0.5-1-0.8c-0.4,0.1-1,0.2-1.2,0.3c-0.1,0.2-0.3,0.5-1,0.5
				c-0.1,0-0.1,0-0.2,0c-0.6,0-1.1-0.2-1.4-0.6c-0.3,0.1-0.7,0.2-1.2,0.3c-0.1,0-0.1,0-0.2,0c-0.5,0-1.2-0.2-1.6-0.6
				c-0.3,0.1-0.7,0.2-1.4,0.2c-0.6,0-1.2-0.4-1.4-0.6c-0.1,0-0.4,0-0.8,0c0,0,0,0,0,0c-0.8,0-2.2-0.4-2.9-0.6
				c-0.8-0.2-1.5-0.6-1.9-0.9c-0.7-0.1-1.4-1.2-1.4-1.2c-0.2-0.4-0.4-2.2-0.4-2.8v-1.1l11.4,2.2L32.2,94l16.7-0.2l9.5-2.2l0,0.4
				c0,0-0.2,2.3-0.3,2.6C58,95,58,95.2,57.8,95.4c-0.1,0.3-0.5,0.7-0.8,0.8c-0.1,0.2-0.2,0.3-0.6,0.5c-0.5,0.2-2.4,1-3.2,1.2
				C52.7,98,52.3,98,52,98c-0.2,0-0.4,0-0.6-0.1c-0.2,0.2-0.5,0.4-0.8,0.5c-0.1,0-0.2,0-0.3,0c-0.3,0-0.8-0.1-1.2-0.1
				c-0.1,0-0.1,0-0.2,0c-0.2,0.3-0.7,0.6-1.5,0.6c-0.2,0-0.3,0-0.4,0c-0.3,0-0.9-0.3-1.3-0.4c-0.1,0.2-0.3,0.4-0.5,0.5
				c-0.2,0.1-0.6,0.2-0.8,0.2c-0.4,0-0.7-0.1-1-0.2c-0.2-0.1-0.5-0.1-0.9-0.2c-0.3-0.1-0.5-0.1-0.8-0.2c-0.2,0.2-0.5,0.4-1,0.5
				c-0.1,0-0.2,0-0.3,0c-0.6,0-1.1-0.3-1.3-0.4c-0.1-0.1-0.5-0.2-0.8-0.3c-0.1,0.2-0.2,0.4-0.4,0.6c-0.2,0.2-0.4,0.3-0.6,0.3
				c-0.3,0-0.6-0.1-1-0.3c-0.5-0.3-0.7-0.4-1.1-0.4c0,0-0.1,0-0.1,0c-0.3,0.7-0.8,0.8-1.2,0.8h0c-0.5,0-0.8-0.4-0.9-0.7
				c-0.3,0-0.8,0-1.1,0c-0.2,0.5-0.6,0.8-1.3,0.8c-0.6,0-0.9-0.5-1.1-0.9c-0.2,0-0.5,0-0.7,0.1c-0.3,0.4-0.9,0.9-1.5,0.9
				c-0.3,0-0.8-0.1-1.1-1c-0.1,0.1-0.3,0.2-0.4,0.2c-0.3,0.2-0.6,0.4-0.9,0.5C24.5,99.3,24.3,99.5,23.9,99.5z"/>
			<path d="M58.1,91.9c0,0-0.2,2.3-0.3,2.6c-0.1,0.4-0.1,0.5-0.3,0.7C57.4,95.6,57,96,56.8,96c-0.1,0.2-0.1,0.2-0.6,0.5
				c-0.5,0.2-2.4,1-3.1,1.2c-0.4,0.1-0.8,0.1-1.1,0.1c-0.3,0-0.5,0-0.7-0.1c-0.2,0.3-0.5,0.5-0.8,0.5c-0.1,0-0.1,0-0.2,0
				c-0.4,0-1.2-0.2-1.5-0.2c-0.3,0.6-0.9,0.7-1.4,0.7c-0.2,0-0.3,0-0.4,0c-0.3,0-1.4-0.5-1.4-0.5s-0.2,0.5-0.6,0.6
				c-0.2,0.1-0.4,0.1-0.7,0.1c-0.3,0-0.7-0.1-0.9-0.1c-0.5-0.2-1.4-0.3-1.9-0.5c-0.1,0.2-0.4,0.5-0.9,0.6c-0.1,0-0.2,0-0.3,0
				c-0.4,0-0.9-0.3-1.1-0.4c-0.3-0.2-1.1-0.3-1.1-0.3s-0.1,0.4-0.4,0.7C37.5,99,37.4,99,37.2,99c-0.2,0-0.5-0.1-0.9-0.3
				c-0.4-0.3-0.7-0.5-1.2-0.5c-0.1,0-0.2,0-0.3,0c-0.2,0.6-0.5,0.8-1,0.8c0,0,0,0,0,0c-0.5,0-0.7-0.7-0.7-0.7s-1.1,0.1-1.4,0.1
				c-0.2,0.5-0.4,0.8-1.1,0.8c-0.6,0-0.9-0.9-0.9-0.9s-0.7,0.1-1,0.1c-0.2,0.4-0.8,0.9-1.4,0.9c-0.6,0-0.8-0.6-0.9-1.1
				c-0.2,0.1-1.1,0.7-1.6,0.9c-0.3,0.1-0.5,0.2-0.9,0.2c-0.1,0-0.3,0-0.5-0.1c-0.7-0.1-0.7-0.5-0.9-0.8c-0.2,0-1.4,0.2-1.5,0.4
				c-0.1,0.1-0.1,0.4-0.8,0.5c-0.1,0-0.1,0-0.2,0c-0.6,0-1.1-0.3-1.4-0.7c-0.2,0.2-0.7,0.3-1.3,0.4c-0.1,0-0.1,0-0.2,0
				c-0.5,0-1.2-0.3-1.6-0.7c-0.2,0.2-0.8,0.2-1.4,0.2c-0.6,0-1.3-0.6-1.3-0.6s-0.3,0-0.9,0.1c0,0,0,0-0.1,0c-0.6,0-2-0.4-2.8-0.6
				c-0.8-0.2-1.5-0.6-1.9-0.9c0,0,0,0,0,0c-0.4,0-1-0.8-1.2-1.1c-0.2-0.3-0.3-2.6-0.3-2.6V92l11,2.2l15.5,0.1L48.9,94L58.1,91.9
				 M58.7,91.2L58,91.4l-9.2,2.1l-16.6,0.2l-15.4-0.1l-11-2.2l-0.6-0.1V92v0.7c0.1,1.1,0.2,2.5,0.4,2.9c0.1,0.1,0.7,1.2,1.5,1.3
				c0.5,0.4,1.3,0.7,1.9,0.9c0.7,0.2,2.2,0.6,2.9,0.6l0.1,0c0.3,0,0.6,0,0.7,0c0.3,0.2,0.9,0.6,1.5,0.6c0.6,0,1,0,1.3-0.1
				c0.5,0.3,1.1,0.6,1.6,0.6c0.1,0,0.2,0,0.3,0c0.5-0.1,0.8-0.1,1.1-0.3c0.4,0.3,0.9,0.5,1.5,0.5c0.1,0,0.1,0,0.2,0
				c0.7-0.1,1-0.3,1.1-0.6c0.2-0.1,0.5-0.1,0.8-0.2c0.1,0.3,0.4,0.6,1.1,0.8c0.2,0,0.4,0.1,0.6,0.1c0.5,0,0.8-0.1,1.1-0.3
				c0.3-0.1,0.6-0.3,0.9-0.5c0,0,0.1,0,0.1-0.1c0.3,0.8,0.9,0.9,1.2,0.9c0.7,0,1.3-0.4,1.7-0.9c0.1,0,0.3,0,0.4,0
				c0.2,0.4,0.6,0.9,1.2,0.9c0.7,0,1.1-0.2,1.4-0.8c0.2,0,0.5,0,0.7,0c0.2,0.3,0.5,0.7,1.1,0.7h0l0,0c0.7,0,1.1-0.3,1.4-0.8
				c0.3,0,0.5,0.1,0.9,0.4l0,0l0,0c0.5,0.2,0.8,0.3,1.2,0.3c0.3,0,0.6-0.1,0.8-0.4c0.1-0.1,0.2-0.3,0.3-0.5c0.2,0.1,0.4,0.1,0.5,0.2
				c0.2,0.1,0.8,0.5,1.4,0.5c0.1,0,0.3,0,0.4,0c0.5-0.1,0.8-0.3,1-0.5c0.2,0,0.4,0.1,0.6,0.1c0.3,0.1,0.7,0.1,0.8,0.2
				c0.3,0.1,0.7,0.2,1.1,0.2c0.4,0,0.7-0.1,0.9-0.2c0.2-0.1,0.4-0.3,0.5-0.4c0.4,0.2,0.9,0.3,1.2,0.4c0.1,0,0.3,0,0.5,0
				c0.9,0,1.4-0.3,1.6-0.6c0,0,0,0,0,0c0.4,0.1,0.9,0.2,1.2,0.2c0.1,0,0.2,0,0.3,0c0.3-0.1,0.6-0.2,0.9-0.4c0.2,0,0.3,0,0.5,0
				c0.3,0,0.8-0.1,1.3-0.2c0.8-0.2,2.8-1,3.2-1.2c0.4-0.2,0.6-0.3,0.7-0.5c0.4-0.2,0.7-0.6,0.9-0.9c0.2-0.3,0.3-0.5,0.4-0.9
				c0.1-0.4,0.3-2.6,0.3-2.7L58.7,91.2L58.7,91.2z M58.1,92.5L58.1,92.5L58.1,92.5L58.1,92.5z"/>
		</g>
		<path d="M6.7,96c0,0-0.1,0-0.1-0.4c-0.1-0.4-0.2-1.2-0.2-1.6c0-0.4,0-0.8,0.2-0.7c0.2,0.1,0.3,0.2,0.3,0.4c0,0.3,0.1,1,0.2,1.4
			c0.1,0.3,0,0.9,0.3,1.2C7.3,96.3,6.9,96.4,6.7,96z"/>
		<path d="M12.3,97.8c0,0-0.4-0.1-0.5-0.5c-0.1-0.4-0.1-1.2-0.2-1.7c0-0.5,0.1-0.8,0.4-0.8c0.3,0.1,0.5,0.4,0.5,0.8
			c0.1,0.4,0.2,1.6,0.2,1.8c0,0.2,0.1,0.5,0.1,0.5L12.3,97.8z"/>
		<path d="M15.4,98.4c0,0-0.8,0-1-0.5c-0.2-0.5-0.1-1.2-0.2-1.7c0-0.6,0-0.9,0.4-0.9c0.4,0,0.6,0.2,0.6,0.9c0.1,0.7,0.2,1.9,0.3,2.1
			C15.5,98.4,15.4,98.4,15.4,98.4z"/>
		<path d="M18.6,98.5c0,0-0.9,0.3-1.2,0c-0.2-0.2-0.3-0.9-0.3-1.3c0-0.4,0-1.2,0.1-1.4c0.2-0.2,0.4-0.2,0.8-0.2
			c0.3,0.1,0.3,0.4,0.3,0.8c0.1,0.3,0.2,1.6,0.2,1.7C18.6,98.4,18.6,98.5,18.6,98.5z"/>
		<path d="M20.9,98.9c0,0-0.3-0.1-0.3-0.6c0-0.5,0-1.5,0-1.8c0.1-0.3,0.3-0.7,0.8-0.7c0.5,0,0.9,0.1,1,0.6c0.1,0.5,0.1,1.3,0.2,1.6
			C22.6,98.7,21,98.8,20.9,98.9z"/>
		<path d="M24.7,99.1c0,0-0.3-0.5-0.3-1.2c0-0.7,0.2-1.3,0.2-1.6c0-0.3,0.3-0.5,0.8-0.5c0.4,0,0.6,0.2,0.6,0.6
			c0.1,0.4,0.2,1,0.2,1.2c0,0.2,0.1,0.6,0.1,0.6L24.7,99.1z"/>
		<path d="M28.1,98.9c0,0-0.2-0.4-0.1-0.9c0.1-0.5,0.2-1.3,0.2-1.6c0-0.3,0-0.6,0.5-0.6c0.5-0.1,0.8,0.1,0.8,0.8
			c0.1,0.6,0.2,1.8,0.2,1.8s-0.9,0.1-1.2,0.2C28.2,98.7,28.1,98.9,28.1,98.9z"/>
		<path d="M31.4,98.5c0,0,0.1-1.3,0.1-1.7c0-0.4,0-0.9,0.3-1c0.3-0.1,1-0.2,1,0.5c0.1,0.7,0.1,2.2,0.1,2.2L31.4,98.5z"/>
		<path d="M34.8,98.4c0,0,0.1-1.2,0.1-1.8c0.1-0.6,0.1-0.9,0.7-0.9c0.6,0,0.6,0.3,0.6,0.7c0,0.4,0.1,1.5,0.1,1.8
			c0.1,0.3,0.1,0.7,0.1,0.7s-0.6-0.5-1-0.6C35,98.3,34.8,98.4,34.8,98.4z"/>
		<path d="M38.1,98.5c0,0,0-0.8,0.1-1.5c0.1-0.7,0.1-1,0.5-1.1c0.5-0.1,0.8,0,0.9,0.6c0.1,0.6,0.1,2.2,0.1,2.5
			c-0.2-0.1-0.6-0.4-0.9-0.4C38.4,98.5,38.1,98.5,38.1,98.5z"/>
		<path d="M41.5,98.4c0,0,0.2-1.3,0.3-1.9c0.1-0.5-0.1-0.9,0.6-0.9c0.7,0,0.9,0.1,0.9,0.8c0.1,0.7,0.1,2.4,0.1,2.4s-0.8-0.3-1.1-0.4
			C41.9,98.4,41.5,98.4,41.5,98.4z"/>
		<path d="M45.4,98.4c0,0,0.1-1.2,0.2-1.7c0.1-0.5-0.1-0.8,0.6-0.9c0.6-0.2,0.8,0.2,0.8,0.9c0,0.7,0,2-0.1,2.2
			C46.5,98.7,45.7,98.3,45.4,98.4z"/>
		<path d="M48.7,98.2c0,0,0.2-1.3,0.3-2c0.1-0.6,0.2-0.9,0.5-1c0.3,0,0.5,0.5,0.5,1.2c0,0.7,0,1.4-0.3,1.6c-0.3,0.3-0.4,0.3-0.4,0.3
			L48.7,98.2z"/>
		<path d="M51.3,97.5c0,0,0.2-0.7,0.3-1.3c0.1-0.6-0.1-1.1,0.2-1.3c0.3-0.2,0.6,0.1,0.6,0.5c0,0.5,0,1.4-0.2,1.7
			c-0.2,0.3-0.5,0.6-0.6,0.6C51.5,97.8,51.3,97.5,51.3,97.5z"/>
		<path d="M56.8,95.9c0,0,0.2-1.2,0.3-2c0.1-0.8,0.4-1.3,0.5-0.8c0.1,0.5-0.1,1.7-0.1,2c0,0.3-0.1,0.5-0.1,0.5L56.8,96L56.8,95.9z"
			/>
		<path d="M5.7,92.9c0,0,0.2-0.1,0.2,0.3c0,0.5,0.1,1.4,0.1,1.6c0,0.2,0,0.6,0,0.6S5.8,95,5.8,94.6C5.8,94.2,5.7,92.9,5.7,92.9z"/>
		<g>
			<path class="st1" d="M21.1,95.1c-1.2,0-2.4,0-3.1-0.1l-0.4,0c-0.8,0-4.3-0.4-6.5-0.8c-2.4-0.4-5.4-1.1-6.4-1.8
				c-0.9-0.6-1-0.9-1.1-1.2l0-0.1c0-0.2,0-3.4,0-4.2c0.1-1,0.5-2.5,1.6-3.6c1.1-1.2,2.2-1.9,3.5-2.4c1.2-0.4,4.4-1.6,11.4-2
				c2.3-0.2,3.9-0.3,4.3-0.3l6.3-4l2.4,0.1c0,0,6.2,3.8,6.2,3.8c0,0,0.3,0.1,0.9,0.1c0.8,0,3.5,0.2,4.2,0.2c0.6,0.1,8.4,1.2,9.5,1.5
				c0.6,0.2,3.5,1.3,4.6,2.6c1,1.2,1.7,2.2,1.8,3.9c0.1,1.6,0.1,3.3,0.1,3.8c0,0.7-0.2,1.1-0.8,1.5c-0.6,0.4-2.5,1.1-3.9,1.5
				c-1.4,0.4-2.6,0.6-3.8,0.7c-0.6,0.1-1.6,0.2-2.4,0.3c-0.5,0.1-0.9,0.1-1.1,0.1c-0.7,0.1-3.8,0.2-4.9,0.2c-0.2,0-0.6,0-1.1,0
				l-3.3,0c-1.1,0-2.3,0-3.2,0c-1.2,0-4.2,0-7,0c-2.9,0-5.6,0-6.5,0C21.8,95.1,21.5,95.1,21.1,95.1z"/>
			<path d="M30.6,74.8l2.3,0.1l6.1,3.8c0,0,0.3,0.1,1,0.1c0.8,0,3.5,0.2,4.1,0.2c0.6,0.1,8.4,1.2,9.4,1.5c1,0.3,3.5,1.4,4.4,2.5
				c0.9,1.1,1.6,2.1,1.7,3.7c0.1,1.6,0.1,3.3,0.1,3.8c0,0.6-0.2,0.9-0.7,1.3c-0.5,0.3-2.4,1-3.8,1.5c-1.5,0.4-2.7,0.6-3.7,0.7
				c-1,0.1-2.8,0.4-3.5,0.5c-0.6,0.1-3.8,0.2-4.8,0.2c-0.2,0-0.6,0-1.1,0c-0.9,0-2.1,0-3.3,0c-1.1,0-2.3,0-3.2,0
				c-2.5,0.1-11.6,0-13.5,0.1c-0.4,0-0.7,0-1.1,0c-1.5,0-2.9-0.1-3.5-0.1c-0.8,0-4.3-0.4-6.5-0.8c-2.2-0.4-5.3-1.1-6.3-1.8
				c-1-0.7-0.9-0.9-1-1.2c0,0,0-3.3,0.1-4.1c0.1-0.8,0.4-2.3,1.5-3.5c1.1-1.1,2.1-1.8,3.4-2.3c1.3-0.5,4.5-1.6,11.3-2
				c2.6-0.2,4.4-0.3,4.4-0.3L30.6,74.8 M30.5,74.2l-0.1,0.1l-6.2,3.9c-0.5,0-2,0.2-4.2,0.3c-7,0.4-10.2,1.6-11.4,2
				C7.2,81,6.1,81.7,4.9,83c-1.4,1.5-1.6,3.4-1.6,3.8c-0.1,0.8-0.1,4-0.1,4.1V91l0,0.1c0,0,0,0.1,0,0.1c0.1,0.5,0.3,0.8,1.2,1.4
				c1.2,0.8,4.7,1.5,6.5,1.9c2.2,0.4,5.8,0.8,6.6,0.8l0.4,0c0.7,0,1.9,0.1,3.1,0.1c0.4,0,0.7,0,1.1,0c0.9,0,3.6,0,6.5,0
				c2.8,0,5.7,0,7,0c0.8,0,1.8,0,3.2,0c0.7,0,1.3,0,1.9,0l1.4,0c0.5,0,0.9,0,1.1,0c1,0,4.2-0.2,4.9-0.2c0.2,0,0.6-0.1,1.1-0.1
				c0.8-0.1,1.7-0.2,2.3-0.3c1.1-0.1,2.4-0.3,3.8-0.7c1.5-0.4,3.4-1.1,4-1.6c0.6-0.4,0.9-1,0.9-1.7c0-0.5,0-2.2-0.1-3.9
				c-0.1-1.7-0.9-2.9-1.9-4c-1.1-1.3-4.1-2.4-4.7-2.6c-1.1-0.4-8.9-1.5-9.5-1.5c-0.6-0.1-3.4-0.2-4.2-0.2c-0.5,0-0.7-0.1-0.8-0.1
				l-6.1-3.7l-0.1-0.1l-0.1,0l-2.3-0.1L30.5,74.2L30.5,74.2z"/>
		</g>
		<g>
			<g>
				<circle cx="22.6" cy="91.8" r="1"/>
			</g>
			<g>
				<path d="M22.6,90.2c0.9,0,1.6,0.7,1.6,1.6s-0.7,1.6-1.6,1.6c-0.9,0-1.6-0.7-1.6-1.6S21.7,90.2,22.6,90.2 M22.6,90.1
					c-0.9,0-1.7,0.7-1.7,1.7c0,0.9,0.7,1.7,1.7,1.7c0.9,0,1.7-0.7,1.7-1.7C24.3,90.8,23.5,90.1,22.6,90.1L22.6,90.1z"/>
			</g>
			<g>
				<path d="M22.6,89.5l0.2,0.2l0.2-0.2l0.1,0.3l0.2-0.2l0.1,0.3l0.3-0.1l0,0.3l0.3-0.1l0,0.3l0.3-0.1l-0.1,0.3l0.3,0l-0.1,0.3
					l0.3,0L24.5,91l0.3,0.1l-0.2,0.2l0.3,0.1l-0.2,0.2l0.2,0.2l-0.2,0.2l0.2,0.2l-0.3,0.1l0.2,0.2l-0.3,0.1l0.1,0.3l-0.3,0l0.1,0.3
					l-0.3,0l0.1,0.3l-0.3-0.1l0,0.3l-0.3-0.1l0,0.3l-0.3-0.1l-0.1,0.3l-0.2-0.2L23,94l-0.2-0.2L22.6,94l-0.2-0.2L22.2,94l-0.1-0.3
					l-0.2,0.2l-0.1-0.3l-0.3,0.1l0-0.3l-0.3,0.1l0-0.3L21,93.4l0.1-0.3l-0.3,0l0.1-0.3l-0.3,0l0.1-0.3l-0.3-0.1l0.2-0.2l-0.3-0.1
					l0.2-0.2l-0.2-0.2l0.2-0.2l-0.2-0.2l0.3-0.1L20.4,91l0.3-0.1l-0.1-0.3l0.3,0l-0.1-0.3l0.3,0L21,90.1l0.3,0.1l0-0.3l0.3,0.1
					l0-0.3l0.3,0.1l0.1-0.3l0.2,0.2l0.1-0.3l0.2,0.2L22.6,89.5 M23.9,89.9L23.9,89.9 M24.2,90.1L24.2,90.1 M24.4,90.4L24.4,90.4
					 M22.6,89.4L22.6,89.4C22.6,89.4,22.6,89.4,22.6,89.4l-0.2,0.2l-0.1-0.1c0,0,0,0-0.1,0c0,0,0,0,0,0c0,0,0,0-0.1,0l-0.1,0.2
					l-0.1-0.1c0,0,0,0,0,0c0,0,0,0,0,0c0,0,0,0-0.1,0.1l-0.1,0.2l-0.2-0.1c0,0,0,0,0,0c0,0,0,0,0,0c0,0,0,0,0,0.1l0,0.2l-0.2-0.1
					c0,0,0,0,0,0c0,0,0,0,0,0c0,0,0,0,0,0.1l0,0.2l-0.2,0c0,0,0,0,0,0c0,0,0,0-0.1,0c0,0,0,0,0,0.1l0,0.2l-0.2,0c0,0,0,0,0,0
					c0,0,0,0-0.1,0c0,0,0,0,0,0.1l0.1,0.2l-0.2,0c0,0,0,0-0.1,0s0,0.1,0,0.1l0.1,0.2L20.4,91c0,0,0,0-0.1,0.1c0,0,0,0.1,0,0.1
					l0.1,0.2l-0.2,0.1c0,0,0,0,0,0.1c0,0,0,0.1,0,0.1l0.1,0.1l-0.2,0.1c0,0,0,0,0,0.1c0,0,0,0.1,0,0.1l0.2,0.1l-0.1,0.1
					c0,0,0,0,0,0.1s0,0,0,0.1l0.2,0.1l-0.1,0.2c0,0,0,0,0,0.1c0,0,0,0,0.1,0.1l0.2,0.1l-0.1,0.2c0,0,0,0,0,0.1s0,0,0.1,0l0.2,0
					l-0.1,0.2c0,0,0,0.1,0,0.1c0,0,0,0,0.1,0c0,0,0,0,0,0l0.2,0l0,0.2c0,0,0,0.1,0,0.1c0,0,0,0,0.1,0c0,0,0,0,0,0l0.2,0l0,0.2
					c0,0,0,0.1,0,0.1c0,0,0,0,0,0c0,0,0,0,0,0l0.2-0.1l0,0.2c0,0,0,0,0,0.1c0,0,0,0,0,0c0,0,0,0,0,0l0.2-0.1l0.1,0.2
					c0,0,0,0,0.1,0.1c0,0,0,0,0,0c0,0,0,0,0,0l0.1-0.1l0.1,0.2c0,0,0,0,0.1,0c0,0,0,0,0,0c0,0,0,0,0.1,0l0.1-0.1l0.1,0.2
					c0,0,0,0,0.1,0s0.1,0,0.1,0l0.1-0.2l0.1,0.1c0,0,0,0,0.1,0c0,0,0,0,0,0c0,0,0,0,0.1,0l0.1-0.2l0.2,0.1c0,0,0,0,0,0c0,0,0,0,0,0
					c0,0,0,0,0.1-0.1l0.1-0.2l0.2,0.1c0,0,0,0,0,0c0,0,0,0,0,0c0,0,0,0,0-0.1l0-0.2l0.2,0.1c0,0,0,0,0,0c0,0,0,0,0,0c0,0,0,0,0-0.1
					l0-0.2l0.2,0c0,0,0,0,0,0c0,0,0,0,0.1,0c0,0,0,0,0-0.1l0-0.2l0.2,0c0,0,0,0,0,0c0,0,0,0,0.1,0c0,0,0,0,0-0.1l-0.1-0.2l0.2,0
					c0,0,0,0,0.1,0c0,0,0-0.1,0-0.1l-0.1-0.2l0.2-0.1c0,0,0,0,0.1-0.1c0,0,0-0.1,0-0.1l-0.1-0.2l0.2-0.1c0,0,0,0,0-0.1
					c0,0,0-0.1,0-0.1l-0.1-0.1l0.2-0.1c0,0,0,0,0-0.1c0,0,0-0.1,0-0.1l-0.2-0.1l0.1-0.1c0,0,0,0,0-0.1c0,0,0,0,0-0.1l-0.2-0.1
					l0.1-0.2c0,0,0,0,0-0.1s0,0-0.1-0.1l-0.2-0.1l0.1-0.2c0,0,0,0,0-0.1c0,0,0,0-0.1,0l-0.2,0l0.1-0.2c0,0,0,0,0,0
					c0,0,0-0.1-0.1-0.1h0h0c0,0,0,0,0,0l0,0c0,0,0,0,0,0h0h0l0,0l-0.2,0l0-0.2c0,0,0,0,0,0c0,0,0-0.1-0.1-0.1h0c0,0,0,0,0,0
					c0,0,0,0,0,0c0,0,0,0,0,0l-0.2,0l0-0.2c0,0,0,0,0,0c0,0,0-0.1-0.1-0.1h0h0c0,0,0,0,0,0h0c0,0,0,0,0,0c0,0,0,0,0,0l-0.2,0.1
					l0-0.2c0,0,0,0,0-0.1c0,0,0,0,0,0c0,0,0,0,0,0l-0.2,0.1l-0.1-0.2c0,0,0,0-0.1-0.1c0,0,0,0,0,0c0,0,0,0,0,0l-0.2,0.1L23,89.5
					c0,0,0,0-0.1,0c0,0,0,0,0,0c0,0,0,0-0.1,0l-0.1,0.1L22.6,89.4C22.7,89.4,22.6,89.4,22.6,89.4L22.6,89.4z"/>
			</g>
		</g>
		<g>
			<g>
				<circle cx="29.7" cy="91.8" r="1"/>
			</g>
			<g>
				<path d="M29.7,90.2c0.9,0,1.6,0.7,1.6,1.6s-0.7,1.6-1.6,1.6c-0.9,0-1.6-0.7-1.6-1.6S28.8,90.2,29.7,90.2 M29.7,90.1
					c-0.9,0-1.7,0.7-1.7,1.7c0,0.9,0.7,1.7,1.7,1.7c0.9,0,1.7-0.7,1.7-1.7C31.4,90.8,30.6,90.1,29.7,90.1L29.7,90.1z"/>
			</g>
			<g>
				<path d="M29.7,89.5l0.2,0.2l0.2-0.2l0.1,0.3l0.2-0.2l0.1,0.3l0.3-0.1l0,0.3l0.3-0.1l0,0.3l0.3-0.1l-0.1,0.3l0.3,0l-0.1,0.3
					l0.3,0L31.6,91l0.3,0.1l-0.2,0.2l0.3,0.1l-0.2,0.2l0.2,0.2l-0.2,0.2l0.2,0.2l-0.3,0.1l0.2,0.2l-0.3,0.1l0.1,0.3l-0.3,0l0.1,0.3
					l-0.3,0l0.1,0.3L31,93.3l0,0.3l-0.3-0.1l0,0.3l-0.3-0.1l-0.1,0.3l-0.2-0.2L30.1,94l-0.2-0.2L29.7,94l-0.2-0.2L29.4,94l-0.1-0.3
					L29,93.9l-0.1-0.3l-0.3,0.1l0-0.3l-0.3,0.1l0-0.3l-0.3,0.1l0.1-0.3l-0.3,0l0.1-0.3l-0.3,0l0.1-0.3l-0.3-0.1l0.2-0.2l-0.3-0.1
					l0.2-0.2l-0.2-0.2l0.2-0.2l-0.2-0.2l0.3-0.1L27.6,91l0.3-0.1l-0.1-0.3l0.3,0l-0.1-0.3l0.3,0l-0.1-0.3l0.3,0.1l0-0.3l0.3,0.1
					l0-0.3l0.3,0.1l0.1-0.3l0.2,0.2l0.1-0.3l0.2,0.2L29.7,89.5 M31.1,89.9L31.1,89.9 M31.3,90.1L31.3,90.1 M31.6,90.4L31.6,90.4
					 M29.7,89.4L29.7,89.4C29.7,89.4,29.7,89.4,29.7,89.4l-0.2,0.2l-0.1-0.1c0,0,0,0-0.1,0c0,0,0,0,0,0c0,0,0,0-0.1,0l-0.1,0.2
					l-0.1-0.1c0,0,0,0,0,0c0,0,0,0,0,0c0,0,0,0-0.1,0.1l-0.1,0.2l-0.2-0.1c0,0,0,0,0,0c0,0,0,0,0,0c0,0,0,0,0,0.1l0,0.2l-0.2-0.1
					c0,0,0,0,0,0c0,0,0,0,0,0c0,0,0,0,0,0.1l0,0.2l-0.2,0c0,0,0,0,0,0c0,0,0,0-0.1,0c0,0,0,0,0,0.1l0,0.2l-0.2,0c0,0,0,0,0,0
					c0,0,0,0-0.1,0c0,0,0,0,0,0.1l0.1,0.2l-0.2,0c0,0,0,0-0.1,0s0,0.1,0,0.1l0.1,0.2L27.5,91c0,0,0,0-0.1,0.1c0,0,0,0.1,0,0.1
					l0.1,0.2l-0.2,0.1c0,0,0,0,0,0.1s0,0.1,0,0.1l0.1,0.1l-0.2,0.1c0,0,0,0,0,0.1c0,0,0,0.1,0,0.1l0.2,0.1l-0.1,0.1c0,0,0,0,0,0.1
					c0,0,0,0,0,0.1l0.2,0.1l-0.1,0.2c0,0,0,0,0,0.1c0,0,0,0,0.1,0.1l0.2,0.1l-0.1,0.2c0,0,0,0,0,0.1s0,0,0.1,0l0.2,0l-0.1,0.2
					c0,0,0,0.1,0,0.1c0,0,0,0,0.1,0c0,0,0,0,0,0l0.2,0l0,0.2c0,0,0,0.1,0,0.1c0,0,0,0,0.1,0c0,0,0,0,0,0l0.2,0l0,0.2
					c0,0,0,0.1,0,0.1c0,0,0,0,0,0c0,0,0,0,0,0l0.2-0.1l0,0.2c0,0,0,0,0,0.1c0,0,0,0,0,0c0,0,0,0,0,0l0.2-0.1l0.1,0.2
					c0,0,0,0,0.1,0.1c0,0,0,0,0,0c0,0,0,0,0,0l0.1-0.1l0.1,0.2c0,0,0,0,0.1,0c0,0,0,0,0,0c0,0,0,0,0.1,0l0.1-0.1l0.1,0.2
					c0,0,0,0,0.1,0h0c0,0,0.1,0,0.1,0l0.1-0.2l0.1,0.1c0,0,0,0,0.1,0c0,0,0,0,0,0c0,0,0,0,0.1,0l0.1-0.2l0.2,0.1c0,0,0,0,0,0
					c0,0,0,0,0,0c0,0,0,0,0.1-0.1l0.1-0.2l0.2,0.1c0,0,0,0,0,0c0,0,0,0,0,0c0,0,0,0,0-0.1l0-0.2l0.2,0.1c0,0,0,0,0,0c0,0,0,0,0,0
					c0,0,0,0,0-0.1l0-0.2l0.2,0c0,0,0,0,0,0c0,0,0,0,0.1,0c0,0,0,0,0-0.1l0-0.2l0.2,0c0,0,0,0,0,0c0,0,0,0,0.1,0c0,0,0,0,0-0.1
					l-0.1-0.2l0.2,0c0,0,0,0,0.1,0s0-0.1,0-0.1l-0.1-0.2l0.2-0.1c0,0,0,0,0.1-0.1c0,0,0-0.1,0-0.1l-0.1-0.2l0.2-0.1c0,0,0,0,0-0.1
					s0-0.1,0-0.1l-0.1-0.1l0.2-0.1c0,0,0,0,0-0.1c0,0,0-0.1,0-0.1l-0.2-0.1l0.1-0.1c0,0,0,0,0-0.1c0,0,0,0,0-0.1l-0.2-0.1l0.1-0.2
					c0,0,0,0,0-0.1c0,0,0,0-0.1-0.1l-0.2-0.1l0.1-0.2c0,0,0,0,0-0.1s0,0-0.1,0l-0.2,0l0.1-0.2c0,0,0,0,0,0c0,0,0-0.1-0.1-0.1h0h0
					c0,0,0,0,0,0h0h0l0,0l-0.2,0l0-0.2c0,0,0,0,0,0c0,0,0-0.1-0.1-0.1h0c0,0,0,0,0,0c0,0,0,0,0,0c0,0,0,0,0,0l-0.2,0l0-0.2
					c0,0,0,0,0,0c0,0,0-0.1-0.1-0.1h0c0,0,0,0,0,0c0,0,0,0,0,0c0,0,0,0,0,0h0c0,0,0,0,0,0l-0.2,0.1l0-0.2c0,0,0,0,0-0.1c0,0,0,0,0,0
					c0,0,0,0,0,0l-0.2,0.1l-0.1-0.2c0,0,0,0-0.1-0.1c0,0,0,0,0,0c0,0,0,0,0,0l-0.2,0.1l-0.1-0.2c0,0,0,0-0.1,0c0,0,0,0,0,0
					c0,0,0,0-0.1,0l-0.1,0.1L29.7,89.4C29.8,89.4,29.7,89.4,29.7,89.4L29.7,89.4z"/>
			</g>
		</g>
		<g>
			<g>
				<circle cx="36.6" cy="91.7" r="1"/>
			</g>
			<g>
				<path d="M36.6,90.1c0.9,0,1.6,0.7,1.6,1.6c0,0.9-0.7,1.6-1.6,1.6c-0.9,0-1.6-0.7-1.6-1.6C35,90.8,35.7,90.1,36.6,90.1 M36.6,90
					c-0.9,0-1.7,0.7-1.7,1.7c0,0.9,0.7,1.7,1.7,1.7c0.9,0,1.7-0.7,1.7-1.7C38.2,90.8,37.5,90,36.6,90L36.6,90z"/>
			</g>
			<g>
				<path d="M36.6,89.4l0.2,0.2l0.2-0.2l0.1,0.3l0.2-0.2l0.1,0.3l0.3-0.1l0,0.3l0.3-0.1l0,0.3l0.3-0.1l-0.1,0.3l0.3,0l-0.1,0.3
					l0.3,0l-0.1,0.3l0.3,0.1l-0.2,0.2l0.3,0.1l-0.2,0.2l0.2,0.2l-0.2,0.2l0.2,0.2l-0.3,0.1l0.2,0.2l-0.3,0.1l0.1,0.3l-0.3,0l0.1,0.3
					l-0.3,0l0.1,0.3l-0.3-0.1l0,0.3l-0.3-0.1l0,0.3l-0.3-0.1l-0.1,0.3L37,93.7l-0.1,0.3l-0.2-0.2L36.6,94l-0.2-0.2l-0.2,0.2
					l-0.1-0.3l-0.2,0.2l-0.1-0.3l-0.3,0.1l0-0.3l-0.3,0.1l0-0.3L35,93.3L35,93l-0.3,0l0.1-0.3l-0.3,0l0.1-0.3l-0.3-0.1l0.2-0.2
					L34.3,92l0.2-0.2l-0.2-0.2l0.2-0.2l-0.2-0.2l0.3-0.1L34.4,91l0.3-0.1l-0.1-0.3l0.3,0l-0.1-0.3l0.3,0L35,90.1l0.3,0.1l0-0.3
					l0.3,0.1l0-0.3l0.3,0.1l0.1-0.3l0.2,0.2l0.1-0.3l0.2,0.2L36.6,89.4 M37.9,89.8L37.9,89.8 M38.2,90.1L38.2,90.1 M38.4,90.3
					L38.4,90.3 M36.6,89.3L36.6,89.3C36.5,89.3,36.5,89.3,36.6,89.3l-0.2,0.2l-0.1-0.1c0,0,0,0-0.1,0c0,0,0,0,0,0c0,0,0,0-0.1,0
					l-0.1,0.2l-0.2-0.1c0,0,0,0,0,0c0,0,0,0,0,0c0,0,0,0-0.1,0.1l-0.1,0.2l-0.2-0.1c0,0,0,0,0,0c0,0,0,0,0,0c0,0,0,0,0,0.1l0,0.2
					l-0.2-0.1c0,0,0,0,0,0c0,0,0,0,0,0c0,0,0,0,0,0.1l0,0.2L35,90c0,0,0,0,0,0c0,0,0,0-0.1,0c0,0,0,0,0,0.1l0,0.2l-0.2,0
					c0,0,0,0,0,0c0,0,0,0-0.1,0c0,0,0,0,0,0.1l0.1,0.2l-0.2,0c0,0,0,0-0.1,0c0,0,0,0.1,0,0.1l0.1,0.2l-0.2,0.1c0,0,0,0-0.1,0.1
					c0,0,0,0.1,0,0.1l0.1,0.1l-0.2,0.1c0,0,0,0,0,0.1s0,0.1,0,0.1l0.1,0.1l-0.2,0.1c0,0,0,0,0,0.1c0,0,0,0.1,0,0.1l0.2,0.1L34.3,92
					c0,0,0,0,0,0.1c0,0,0,0,0,0.1l0.2,0.1l-0.1,0.2c0,0,0,0,0,0.1c0,0,0,0,0.1,0.1l0.2,0.1l-0.1,0.2c0,0,0,0,0,0.1c0,0,0,0,0.1,0
					l0.2,0L34.7,93c0,0,0,0.1,0,0.1c0,0,0,0,0.1,0c0,0,0,0,0,0l0.2,0l0,0.2c0,0,0,0.1,0,0.1c0,0,0,0,0.1,0c0,0,0,0,0,0l0.2,0l0,0.2
					c0,0,0,0.1,0,0.1c0,0,0,0,0,0c0,0,0,0,0,0l0.2-0.1l0,0.2c0,0,0,0,0,0.1c0,0,0,0,0,0c0,0,0,0,0,0l0.2-0.1l0.1,0.2
					c0,0,0,0,0.1,0.1c0,0,0,0,0,0c0,0,0,0,0,0l0.2-0.1l0.1,0.2c0,0,0,0,0.1,0c0,0,0,0,0,0c0,0,0,0,0.1,0l0.1-0.1l0.1,0.2
					c0,0,0,0,0.1,0c0,0,0.1,0,0.1,0l0.1-0.2l0.1,0.1c0,0,0,0,0.1,0c0,0,0,0,0,0c0,0,0,0,0.1,0l0.1-0.2l0.2,0.1c0,0,0,0,0,0
					c0,0,0,0,0,0c0,0,0,0,0.1-0.1l0.1-0.2l0.2,0.1c0,0,0,0,0,0c0,0,0,0,0,0c0,0,0,0,0-0.1l0-0.2l0.2,0.1c0,0,0,0,0,0c0,0,0,0,0,0
					c0,0,0,0,0-0.1l0-0.2l0.2,0c0,0,0,0,0,0c0,0,0,0,0.1,0c0,0,0,0,0-0.1l0-0.2l0.2,0c0,0,0,0,0,0c0,0,0,0,0.1,0c0,0,0,0,0-0.1
					l-0.1-0.2l0.2,0c0,0,0,0,0.1,0c0,0,0-0.1,0-0.1l-0.1-0.2l0.2-0.1c0,0,0,0,0.1-0.1c0,0,0-0.1,0-0.1l-0.1-0.2l0.2-0.1
					c0,0,0,0,0-0.1c0,0,0-0.1,0-0.1l-0.1-0.1l0.2-0.1c0,0,0,0,0-0.1c0,0,0-0.1,0-0.1l-0.2-0.1l0.1-0.1c0,0,0,0,0-0.1c0,0,0,0,0-0.1
					l-0.2-0.1l0.1-0.2c0,0,0,0,0-0.1c0,0,0,0-0.1-0.1l-0.2-0.1l0.1-0.2c0,0,0,0,0-0.1c0,0,0,0-0.1,0l-0.2,0l0.1-0.2c0,0,0,0,0,0
					c0,0,0-0.1-0.1-0.1h0h0c0,0,0,0,0,0l-0.2,0l0-0.2c0,0,0,0,0,0c0,0,0-0.1-0.1-0.1h0h0c0,0,0,0,0,0c0,0,0,0,0,0L38,90l0-0.2
					c0,0,0,0,0,0c0,0,0-0.1-0.1-0.1h0h0c0,0,0,0,0,0l0,0h0c0,0,0,0,0,0l-0.2,0.1l0-0.2c0,0,0,0,0-0.1c0,0,0,0,0,0c0,0,0,0,0,0
					l-0.2,0.1l-0.1-0.2c0,0,0,0-0.1-0.1c0,0,0,0,0,0c0,0,0,0,0,0l-0.2,0.1L37,89.4c0,0,0,0-0.1,0c0,0,0,0,0,0c0,0,0,0-0.1,0
					l-0.1,0.1L36.6,89.3C36.6,89.3,36.6,89.3,36.6,89.3L36.6,89.3z"/>
			</g>
		</g>
		<g>
			<g>
				<path d="M44.7,90.5c0.9,0,1.6,0.7,1.6,1.6c0,0.9-0.7,1.6-1.6,1.6c-0.9,0-1.6-0.7-1.6-1.6C43.1,91.2,43.8,90.5,44.7,90.5
					 M44.7,90.4c-0.9,0-1.6,0.7-1.6,1.6c0,0.9,0.7,1.6,1.6,1.6s1.6-0.7,1.6-1.6C46.3,91.2,45.6,90.4,44.7,90.4L44.7,90.4z"/>
			</g>
			<circle cx="44.7" cy="92.1" r="0.9"/>
		</g>
		<g>
			<path d="M24.3,87.3l0.4,1.2h-0.3l-0.1-0.3H24l-0.1,0.3h-0.3l0.4-1.2H24.3z M24.3,88l-0.1-0.4h0L24,88H24.3z"/>
		</g>
		<g>
			<path d="M31.1,87.3c0.1,0,0.1,0,0.2,0c0,0,0.1,0,0.1,0c0,0,0.1,0.1,0.1,0.1c0,0,0,0.1,0,0.1c0,0.1,0,0.1,0,0.1
				c0,0-0.1,0.1-0.1,0.1c0.1,0,0.1,0.1,0.2,0.1c0,0.1,0.1,0.1,0.1,0.2c0,0.1,0,0.1,0,0.2c0,0-0.1,0.1-0.1,0.1c0,0-0.1,0-0.1,0.1
				c0,0-0.1,0-0.2,0h-0.6v-1.2H31.1z M31.1,87.8c0,0,0.1,0,0.1,0c0,0,0-0.1,0-0.1c0,0,0,0,0-0.1c0,0,0,0,0,0c0,0,0,0-0.1,0
				c0,0,0,0-0.1,0h-0.2v0.3H31.1z M31.1,88.3C31.1,88.3,31.2,88.3,31.1,88.3c0.1,0,0.1,0,0.1,0c0,0,0,0,0,0c0,0,0,0,0-0.1
				c0-0.1,0-0.1-0.1-0.1c0,0-0.1,0-0.1,0h-0.3v0.3H31.1z"/>
		</g>
		<g>
			<path d="M38.4,87.6C38.4,87.6,38.4,87.6,38.4,87.6c-0.1-0.1-0.1-0.1-0.1-0.1c0,0-0.1,0-0.1,0c-0.1,0-0.1,0-0.1,0
				c0,0-0.1,0.1-0.1,0.1c0,0,0,0.1-0.1,0.1c0,0,0,0.1,0,0.1c0,0,0,0.1,0,0.1c0,0,0,0.1,0.1,0.1c0,0,0.1,0.1,0.1,0.1c0,0,0.1,0,0.1,0
				c0.1,0,0.1,0,0.2-0.1c0,0,0.1-0.1,0.1-0.2h0.2c0,0.1,0,0.1-0.1,0.2c0,0.1-0.1,0.1-0.1,0.2c0,0-0.1,0.1-0.2,0.1
				c-0.1,0-0.1,0-0.2,0c-0.1,0-0.2,0-0.2,0c-0.1,0-0.1-0.1-0.2-0.1c0-0.1-0.1-0.1-0.1-0.2c0-0.1,0-0.2,0-0.2c0-0.1,0-0.2,0-0.2
				c0-0.1,0.1-0.1,0.1-0.2c0-0.1,0.1-0.1,0.2-0.1c0.1,0,0.2,0,0.2,0c0.1,0,0.1,0,0.2,0c0.1,0,0.1,0,0.2,0.1c0,0,0.1,0.1,0.1,0.1
				c0,0.1,0,0.1,0.1,0.2L38.4,87.6C38.4,87.7,38.4,87.7,38.4,87.6z"/>
		</g>
		<g>
			<path d="M43.8,88.3v0.1h0c0,0,0.1-0.1,0.1-0.1c0,0,0.1,0,0.1,0c0.1,0,0.1,0,0.2,0c0,0,0.1,0.1,0.1,0.1c0,0,0.1,0.1,0.1,0.1
				c0,0.1,0,0.1,0,0.2c0,0.1,0,0.1,0,0.2c0,0.1,0,0.1-0.1,0.1c0,0-0.1,0.1-0.1,0.1c0,0-0.1,0-0.2,0c-0.1,0-0.1,0-0.1,0
				c0,0-0.1-0.1-0.1-0.1h0v0.4h-0.2v-1.1H43.8z M44.1,88.9C44.1,88.9,44.2,88.9,44.1,88.9c0.1-0.1,0.1-0.1,0.1-0.1c0,0,0-0.1,0-0.1
				c0,0,0-0.1,0-0.1c0,0,0-0.1,0-0.1c0,0,0,0-0.1-0.1c0,0-0.1,0-0.1,0c0,0-0.1,0-0.1,0c0,0,0,0-0.1,0.1c0,0,0,0.1,0,0.1
				c0,0,0,0.1,0,0.1c0,0,0,0.1,0,0.1c0,0,0,0.1,0,0.1c0,0,0,0,0.1,0.1C44,89,44,89,44.1,88.9C44.1,89,44.1,89,44.1,88.9z"/>
			<path d="M45.3,89.1l-0.1-0.6h0L45,89.1h-0.2l-0.3-0.8h0.2l0.2,0.6h0l0.1-0.6h0.2l0.1,0.6h0l0.2-0.6h0.2l-0.3,0.8H45.3z"/>
			<path d="M46.1,88.3v0.2h0C46.1,88.4,46.2,88.4,46.1,88.3c0.1,0.1,0.1,0,0.1,0c0,0,0,0,0.1,0c0,0,0.1,0,0.1,0c0,0,0,0,0.1,0v0.2
				c0,0,0,0,0,0c0,0,0,0,0,0c0,0-0.1,0-0.1,0c0,0-0.1,0-0.1,0.1c0,0,0,0.1,0,0.1c0,0,0,0.1,0,0.1v0.4h-0.2v-0.8H46.1z"/>
		</g>
		<path class="st22" d="M18.4,93.7c0,0-0.4-3.4-0.1-4.6c0.2-1.2,0.8-2.2,2-2.8c1.1-0.5,6.4-1,11.8-1c5.4,0,10.7,0.1,12,0.4
			c1.2,0.3,3.5,1.5,3.6,3.4c0.1,1.9,0,4.7,0,4.7"/>
		<path class="st22" d="M48.3,89.3c0,0,3.9-0.2,6.3-0.8c1.7-0.4,3.6-1.3,3.8-1.7"/>
		<path class="st22" d="M17.5,89.3c0,0-4.6-0.2-7.4-0.8c-2-0.4-4.2-1.3-4.5-1.7"/>
		<g>
			<path class="st1" d="M32.1,75.4c-2.4,0-11-0.6-13-1C17.1,74,9.4,69.1,8,68.1c-1.4-0.9-3.1-2.3-3.4-2.6c-0.3-0.3-0.3-0.7-0.3-0.9
				c-0.3-0.2-0.9-0.6-1.1-1.6c-0.1-0.7-0.2-1.4-0.2-1.8c0-0.1,0-0.2,0-0.3c0-0.4,0-10,0.1-10.7l0-0.2c0-0.9,0-2.7,1.3-4.3
				c1.3-1.6,2.5-2.5,4.6-3.1c2.1-0.7,7.1-1.9,11.9-2.4c5.5-0.6,9.2-0.7,11.4-0.7c2.6,0,10.1,0.5,14.2,1.2c4.3,0.8,7.8,1.6,9.5,2.4
				c1.8,0.8,3.3,2.6,3.7,3.4c0.3,0.7,0.8,1.7,0.8,3.3c0,1.4,0.1,10.7,0,11.3c0,0.5-0.1,1.8-0.3,2.3c-0.2,0.6-0.5,0.9-0.9,1.1
				c0,0.3-0.1,0.8-0.5,1.1c-0.4,0.3-3.1,2.3-3.1,2.3c-0.3,0.3-8.5,6.2-12.2,6.6c-3.7,0.4-8.5,0.9-11.1,0.9L32.1,75.4z"/>
			<path d="M32.2,39.8c2.6,0,10.1,0.5,14.2,1.2c4.2,0.8,7.7,1.6,9.5,2.3c1.7,0.7,3.2,2.6,3.6,3.3c0.3,0.8,0.8,1.6,0.8,3.2
				c0,1.5,0.1,10.7,0,11.3c0,0.6-0.1,1.8-0.3,2.2c-0.1,0.4-0.4,0.9-0.9,1c0,0.2,0,0.8-0.4,1.1c-0.4,0.3-3.1,2.3-3.1,2.3
				s-8.4,6.2-12.1,6.6c-3.6,0.4-8.5,0.9-11.1,0.9c-0.1,0-0.2,0-0.3,0c-2.5,0-11-0.6-13-1c-2-0.4-9.7-5.3-11.1-6.3
				c-1.4-0.9-3-2.3-3.3-2.6c-0.3-0.3-0.3-0.6-0.2-0.9c-0.3-0.2-0.9-0.5-1.1-1.5c-0.2-1-0.2-1.8-0.2-2.1c0,0,0-9.9,0.1-10.7
				c0-0.7-0.1-2.7,1.2-4.4c1.3-1.7,2.6-2.4,4.4-3c2-0.6,6.9-1.8,11.8-2.4C25.8,39.9,29.6,39.8,32.2,39.8 M32.2,39.2
				c-2.1,0-5.9,0.1-11.4,0.7C16,40.5,11,41.7,8.9,42.3c-2.1,0.7-3.4,1.5-4.7,3.2c-1.3,1.6-1.3,3.5-1.3,4.4l0,0.2
				c0,0.7-0.1,10.3-0.1,10.7l0,0l0,0c0,0.1,0,0.1,0,0.3c0,0.4,0,1.1,0.2,1.8c0.2,0.9,0.7,1.4,1,1.6c0,0.3,0.1,0.6,0.4,1
				c0.4,0.4,2.1,1.8,3.4,2.7c0.9,0.6,9,5.9,11.3,6.4c2.1,0.4,10.7,1,13.1,1l0.3,0c2.6,0,7.4-0.4,11.1-0.9c3.8-0.4,12-6.4,12.3-6.7
				c0,0,2.6-2,3.1-2.3c0.5-0.3,0.6-0.8,0.6-1.1c0.4-0.2,0.7-0.6,0.9-1.2c0.2-0.5,0.3-2,0.3-2.4c0-0.6,0-9.8,0-11.3
				c0-1.7-0.5-2.7-0.8-3.4c-0.4-0.8-2-2.8-3.9-3.6c-1.7-0.7-5.2-1.6-9.6-2.4C42.3,39.7,34.8,39.2,32.2,39.2L32.2,39.2z"/>
		</g>
		<path class="st23" d="M19.1,72.8c0,0,0.3,6.7,0.1,9c-0.4,0.2-1.6,0.6-2.7,0.8c-1.1,0.2-3.2,0.4-4,0.2c0.1-2.8-0.7-6.4-1.4-9.2
			c-0.7-2.8-2.8-6.8-2.8-6.8"/>
		<path class="st23" d="M56,66.6c0,0-1.3,2.5-1.7,3.8c-0.4,1.3-1.5,4.5-1.8,6.6c-0.3,2.1-0.5,5.6-0.5,5.6s-5.4,0.2-7.1-0.9
			c-0.1-0.9-0.2-2.6-0.2-4.3c0-1.4,0-4.3,0-4.3"/>
		<path class="st22" d="M8.4,66.6c0,0,7.7,4.5,9,5.3c1.3,0.7,1.8,1.2,2.8,1.3c1,0.1,5.5,0.7,11.1,0.5c5.6-0.1,10.8-0.5,12.1-0.6
			c1.3-0.1,2.1-0.6,3.6-1.4c1.5-0.7,8.1-4.5,8.8-5.1"/>
		<path class="st22" d="M24.5,40.4c0,0-3.9,0.3-7.7,0.9c-3.8,0.7-7,1.5-8.1,2.9c-0.6,0.7-2.3,2.4-2.5,5.4c0,0-0.2,6.5-0.2,7.8
			c0,1.3-0.1,3.4-0.1,3.9c0,0.5,0.3,1.8,0.6,2.7c0.4,0.9,0.7,1.1,1.2,1.3c-0.1-0.6-0.3-1.1-0.4-1.8c-0.1-0.6-0.1-5.8-0.1-5.8
			s0.1-7.5,0.2-8.1c0.1-0.6,0.3-2.7,1.4-3.7c1.1-1,3-2.4,6.5-3.3C18.9,41.7,24.5,40.4,24.5,40.4z"/>
		<path class="st22" d="M40.2,40.4c0,0,4.3,0.4,6.8,0.9c2.5,0.5,6.6,1,8.3,2.5c1.7,1.5,3.1,2.9,3.3,5.2c0.2,2.3,0.1,7.1,0.2,9.7
			c0,2.6-0.1,4.1-0.2,4.5c-0.1,0.4-0.7,1.5-0.9,1.7C57.4,65,57,64.9,57,64.9s0.6-1.1,0.7-3.1c0.1-2-0.1-10.5-0.1-11.8
			c0-1.3-1-3.7-2.1-4.7c-1.1-1-5-2.5-6.7-2.9C47,41.9,41.6,40.5,40.2,40.4z"/>
		<path class="st22" d="M60.1,61.4c0,0-1.4,0.6-1.6,0.7c-0.2,0.1-0.5,0.1-1,0c-0.6,0.1-2.3,0.4-4.8,0.6C50.2,63,38,63.5,31.4,63.5
			c-6.6,0-20.7-0.6-24-1.2c0,0-0.9,0-1.3-0.3c-0.5,0-2-0.4-2.5-0.8"/>
		<path class="st13" d="M4.6,64.4c0,0,1.8,0.7,5.9,1.1c4,0.4,17.1,1,21.7,1c4.5,0,15-0.4,18.2-0.7c3.1-0.3,7.4-0.7,8.7-1.5"/>
		<path class="st22" d="M5.3,65.6c0,0,2.3,0.9,5.6,1.2c4,0.4,13.7,1.2,22,1.2c8.3,0,16.4-0.9,19.3-1.3c2.9-0.4,4.9-0.7,5.8-1"/>
		<polygon points="32.6,42 32.2,42.5 32.3,43.8 32.9,44.1 33.4,43.8 33.2,42.4 		"/>
		<polygon points="33,40.8 36.1,42.6 35.4,42.9 33.1,41.5 		"/>
		<path d="M32.6,40.1l0.1,0.3c0,0,1,0.3,2,0.8c1,0.5,2.1,1.2,2.1,1.2l0.7-0.3c0,0-1.4-0.9-2.4-1.3C34.2,40.4,32.6,40.1,32.6,40.1z"
			/>
		<path d="M34.6,40.1c0,0,1.3,0.1,1.7,0.2c0.4,0.1,2.2,0.8,2.9,1.2c0.8,0.4,1.2,0.7,1.2,0.7l-1.2-0.1C39.3,42.1,36.9,40.6,34.6,40.1
			z"/>
		<path d="M38.7,40.8c0,0,2.1,0.6,2.2,0.7c0.1,0,1.9,1,2.2,1.2c0,0-0.8-0.1-1.1-0.1C41.6,42.3,39.6,41,38.7,40.8z"/>
		<path d="M39.5,40.7c0,0,6.7,1.3,7.3,1.6c0.2,0.2,0.1,0.3,0.1,0.3S40.3,40.8,39.5,40.7z"/>
		<path class="st22" d="M36.2,40.1c0,0,3.1,0.3,5.5,0.8c2.4,0.5,4.7,1.1,4.7,1.1"/>
		<polygon points="31.8,40.7 28.8,42.6 29.4,42.8 31.7,41.4 		"/>
		<path d="M32.2,40l-0.1,0.3c0,0-1,0.3-2,0.9c-1,0.5-2,1.2-2,1.2l-0.7-0.2c0,0,1.4-0.9,2.3-1.3C30.6,40.4,32.2,40,32.2,40z"/>
		<path d="M30.2,40.1c0,0-1.3,0.1-1.7,0.3c-0.4,0.1-2.2,0.8-2.9,1.2c-0.7,0.5-1.2,0.7-1.2,0.7l1.2-0.1
			C25.5,42.1,27.9,40.6,30.2,40.1z"/>
		<path d="M26.1,40.7c0,0-2.1,0.7-2.2,0.7c-0.1,0-1.9,1-2.2,1.3c0,0,0.8-0.1,1.1-0.1C23.2,42.3,25.3,41,26.1,40.7z"/>
		<path d="M25.3,40.7c0,0-6.7,1.4-7.3,1.6c-0.2,0.2-0.1,0.3-0.1,0.3S24.5,40.8,25.3,40.7z"/>
		<path class="st22" d="M28.6,40.1c0,0-3.1,0.3-5.5,0.8c-2.4,0.5-4.7,1.1-4.7,1.1"/>
		<path class="st22" d="M10.7,46.9c0,0,10.6,0.8,22.5,0.8c11.9,0,20.6-0.9,20.6-0.9"/>
		<path class="st22" d="M23.9,80c0,0,2.4,1,7.6,1c5.1,0,7.8-1,7.8-1"/>
	</g>
	<g>
	</g>
	<g>
	</g>
	<g>
	</g>
	<g>
	</g>
	<g>
	</g>
	<g>
	</g>
</g>
</svg>
