<?xml version="1.0" encoding="utf-8"?>
<!-- Generator: Adobe Illustrator 20.0.0, SVG Export Plug-In . SVG Version: 6.00 Build 0)  -->
<svg version="1.1" xmlns="http://www.w3.org/2000/svg" xmlns:xlink="http://www.w3.org/1999/xlink" x="0px" y="0px"
	 viewBox="0 0 222.9 212.1" style="enable-background:new 0 0 222.9 212.1;" xml:space="preserve">
<style type="text/css">
	.st0{fill:none;stroke:#9D9FA2;stroke-width:3;}
	.st1{fill:#FFFFFF;stroke:#000000;stroke-width:0.4785;}
	.st2{fill:#EF4423;}
	.st3{fill:#FFFFFF;}
	.st4{fill:none;stroke:#000000;stroke-width:0.73;}
	.st5{fill:none;stroke:#000000;stroke-width:0.5;stroke-linecap:round;}
	.st6{fill:#FFFFFF;stroke:#000000;stroke-width:0.649;}
	.st7{stroke:#000000;stroke-width:0.649;}
	.st8{fill:none;stroke:#000000;stroke-width:0.7231;}
	.st9{fill:none;stroke:#000000;stroke-width:0.6967;}
	.st10{stroke:#000000;stroke-width:0.6967;}
	.st11{fill:#FFFFFF;stroke:#000000;stroke-width:0.5;}
	.st12{fill:#D1D3D4;stroke:#000000;stroke-width:0.2087;}
	.st13{fill:#FFFFFF;stroke:#000000;stroke-width:0.2087;}
	.st14{fill:url(#SVGID_1_);}
	.st15{fill:#D1D3D4;}
	.st16{fill:url(#SVGID_2_);}
	.st17{fill:url(#SVGID_3_);}
	.st18{fill:url(#SVGID_4_);}
	.st19{fill:url(#SVGID_5_);}
	.st20{fill:url(#SVGID_6_);}
	.st21{fill:url(#SVGID_7_);}
	.st22{fill:none;stroke:#000000;stroke-width:0.8501;}
	.st23{fill:none;stroke:#000000;stroke-width:0.7048;stroke-linecap:round;stroke-linejoin:round;}
	.st24{fill:#FFFFFF;stroke:#000000;stroke-width:0.7048;stroke-linejoin:round;}
	.st25{fill:none;stroke:#000000;stroke-width:0.2309;stroke-linecap:round;}
	.st26{fill:#FFFFFF;stroke:#000000;stroke-width:0.5;stroke-linecap:round;}
</style>
<g id="DVD_x2F_VCR">
	<g id="cable_copy">
	</g>
	<g id="projector_copy">
	</g>
	<g id="Astronaut_copy">
	</g>
	<g id="Text_copy">
	</g>
	<g id="Layer_13">
	</g>
	<g id="Layer_14">
		<g id="Layer_15">
		</g>
		<path class="st0" d="M189.7,189h27.6c0,0,4,0.6,4-4c0-4.6,0-163.7,0-168.4c0-4.6-4-4-4-4s-85,0-104.6,0"/>
	</g>
	<g id="Layer_16">
	</g>
	<g id="Layer_17">
	</g>
	<g>
		<g>
			<g>
				<g>
					<polyline class="st1" points="83.6,11.7 82.9,12 80.3,11.8 79.8,12.2 79.8,13.6 80.3,14.1 82.9,13.8 83.6,14.2 					"/>
					<rect x="87.4" y="11.7" class="st1" width="6.7" height="2.5"/>
					<rect x="93.7" y="10.6" class="st1" width="0.7" height="4.5"/>
					<rect x="84.9" y="11.7" class="st1" width="1.9" height="2.5"/>
					<rect x="83.6" y="11.7" class="st1" width="0.7" height="2.5"/>
					<rect x="84.2" y="11.9" class="st1" width="0.6" height="2.1"/>
					
						<rect x="86" y="12.6" transform="matrix(1.884237e-03 -1 1 1.884237e-03 73.9979 99.9679)" class="st1" width="2.1" height="0.6"/>
					<polyline class="st1" points="80.3,11.8 79.8,12.2 79.8,13.6 80.3,14.1 					"/>
					<g>
						<polygon class="st1" points="114.4,11.6 114.4,14.1 103.7,15.3 103.7,10.2 						"/>
						<polygon class="st1" points="103.7,10.1 105.3,10.1 105.3,12.2 106,12.2 106,10.1 107.6,10.2 107.6,12.2 108.5,12.2 
							108.5,10.3 109.8,10.4 109.8,12.2 110.5,12.2 110.5,10.5 112.1,10.6 112,12.2 112.7,12.2 112.7,10.7 114.5,10.8 114.4,14.8 
							112.7,14.9 112.7,13.5 112,13.5 112,14.9 110.5,15.1 110.5,13.5 109.8,13.5 109.8,15.1 108.5,15.2 108.5,13.5 107.6,13.5 
							107.6,15.3 106,15.4 106,13.5 105.3,13.5 105.3,15.5 103.7,15.5 						"/>
					</g>
					<polygon class="st1" points="103.7,15.7 94.4,15.7 94.4,9.8 103.7,9.8 					"/>
				</g>
			</g>
		</g>
	</g>
	<g>
		<path class="st2" d="M202.4,29.9c-1,0-1.9-0.9-1.9-1.9c0-0.7,0.4-1.3,0.9-1.6V10.7h1.9v15.7c0.6,0.3,0.9,1,0.9,1.6
			C204.3,29.1,203.5,29.9,202.4,29.9z"/>
		<path class="st3" d="M202.9,11.2v15.5c0.5,0.2,0.9,0.7,0.9,1.3c0,0.8-0.6,1.4-1.4,1.4c-0.8,0-1.4-0.6-1.4-1.4
			c0-0.6,0.4-1.1,0.9-1.3V11.2H202.9 M203.9,10.3h-0.9H202H201v0.9v14.9c-0.6,0.4-0.9,1.1-0.9,1.9c0,1.3,1.1,2.4,2.4,2.4
			c1.3,0,2.4-1.1,2.4-2.4c0-0.7-0.4-1.4-0.9-1.9V11.2V10.3L203.9,10.3z"/>
	</g>
	<path class="st4" d="M23.5,0.4c-2.2,0-4,1.8-4,4v24.1c0,2.2,1.8,4,4,4h20l3.9,4l3.8-4h19.7c2.2,0,4-1.8,4-4V4.4c0-2.2-1.8-4-4-4
		H23.5z"/>
	<g>
		<path d="M158.9,25.4c-0.3-0.2-0.7-0.3-1.1-0.3c-0.6,0-1,0.4-1,0.9c0,0.4,0.2,0.7,1.1,1.2c1,0.6,1.3,1.1,1.3,1.8
			c0,1-0.6,1.8-1.8,1.8c-0.5,0-1-0.1-1.3-0.3v-0.8c0.4,0.2,0.8,0.4,1.2,0.4c0.7,0,1.1-0.5,1.1-1c0-0.5-0.1-0.8-1-1.3
			c-1.1-0.7-1.4-1.1-1.4-1.9c0-1,0.8-1.6,1.7-1.6c0.4,0,0.9,0.1,1.1,0.2V25.4z"/>
		<path d="M162.2,30.7c-0.2,0.1-0.4,0.1-0.6,0.1c-0.7,0-1.1-0.3-1.1-1.1v-3h-0.7v-0.6h0.7v-0.9l0.8-0.2v1.2h0.9v0.6h-0.9v2.7
			c0,0.5,0.1,0.7,0.5,0.7c0.2,0,0.3-0.1,0.5-0.1V30.7z"/>
		<path d="M163.4,28.7c0,1.1,0.4,1.6,1.3,1.6c0.4,0,0.8-0.2,1.1-0.4l0,0.7c-0.4,0.2-0.8,0.3-1.3,0.3c-1.2,0-1.8-0.9-1.8-2.4
			s0.6-2.4,1.8-2.4c1,0,1.6,0.8,1.6,2.2v0.4H163.4z M165.3,28.1c0-1-0.3-1.4-0.9-1.4c-0.5,0-0.9,0.4-0.9,1.4H165.3z"/>
		<path d="M166.9,27.2c0-0.3,0-0.7,0-1h0.7l0,0.7h0c0.2-0.6,0.6-0.8,1.3-0.8v0.7c-0.1,0-0.2,0-0.3,0c-0.6,0-1,0.5-1,1.5v2.4h-0.8
			V27.2z"/>
		<path d="M170.1,28.7c0,1.1,0.4,1.6,1.3,1.6c0.4,0,0.8-0.2,1.1-0.4l0,0.7c-0.4,0.2-0.8,0.3-1.3,0.3c-1.2,0-1.8-0.9-1.8-2.4
			s0.6-2.4,1.8-2.4c1,0,1.6,0.8,1.6,2.2v0.4H170.1z M171.9,28.1c0-1-0.3-1.4-0.9-1.4c-0.5,0-0.9,0.4-0.9,1.4H171.9z"/>
		<path d="M175.1,26.1c1.2,0,1.8,0.9,1.8,2.4s-0.6,2.4-1.8,2.4c-1.2,0-1.8-0.9-1.8-2.4S173.9,26.1,175.1,26.1z M175.1,30.2
			c0.7,0,1.1-0.6,1.1-1.7s-0.3-1.7-1.1-1.7c-0.7,0-1.1,0.6-1.1,1.7S174.4,30.2,175.1,30.2z"/>
		<path d="M183.9,30.6c-0.4,0.1-0.8,0.2-1.1,0.2c-2,0-2.8-1.5-2.8-3.2c0-2,1.1-3.2,2.8-3.2c0.5,0,0.9,0.1,1.2,0.2v0.8
			c-0.3-0.2-0.7-0.3-1.2-0.3c-1,0-2,0.8-2,2.3c0,1.6,0.6,2.7,2,2.7c0.4,0,0.8-0.1,1.1-0.3V30.6z"/>
		<path d="M185,26.5c0.4-0.2,0.8-0.4,1.3-0.4c0.7,0,1.1,0.3,1.2,0.4c0.2,0.2,0.4,0.5,0.4,1.1v2.4c0,0.3,0,0.5,0,0.7h-0.7l0-0.6h0
			c-0.2,0.4-0.6,0.7-1.3,0.7c-0.8,0-1.3-0.4-1.3-1.3c0-0.9,0.6-1.5,2.2-1.5h0.4v-0.2c0-0.3,0-0.5-0.2-0.7c-0.2-0.2-0.5-0.3-0.8-0.3
			c-0.5,0-0.9,0.2-1.2,0.5L185,26.5z M187.2,28.5c-0.1,0-0.3,0-0.5,0c-0.9,0-1.3,0.4-1.3,1c0,0.5,0.3,0.8,0.8,0.8
			c0.7,0,1.1-0.5,1.1-1.2V28.5z"/>
		<path d="M189,24h0.8v2.8h0c0.3-0.5,0.6-0.7,1.2-0.7c0.9,0,1.6,0.8,1.6,2.4s-0.6,2.4-1.6,2.4c-0.7,0-1-0.4-1.2-0.7h0l0,0.7h-0.7
			c0-0.3,0-0.6,0-0.8V24z M190.7,30.2c0.7,0,1-0.6,1-1.7s-0.3-1.7-1-1.7c-0.7,0-1,0.6-1,1.7S190,30.2,190.7,30.2z"/>
		<path d="M193.4,24h0.8v6.8h-0.8V24z"/>
		<path d="M195.9,28.7c0,1.1,0.4,1.6,1.3,1.6c0.4,0,0.8-0.2,1.1-0.4l0,0.7c-0.4,0.2-0.8,0.3-1.3,0.3c-1.2,0-1.8-0.9-1.8-2.4
			s0.6-2.4,1.8-2.4c1,0,1.6,0.8,1.6,2.2v0.4H195.9z M197.8,28.1c0-1-0.3-1.4-0.9-1.4c-0.5,0-0.9,0.4-0.9,1.4H197.8z"/>
	</g>
	<g>
		<polygon class="st2" points="56.5,12.8 65.4,9 64.3,11.5 78.8,11.5 78.8,14 64.3,14 65.4,16.5 		"/>
		<path class="st3" d="M65,9.4l-1,2.3h14.6v2.2H64.1l1,2.3l-8-3.4L65,9.4 M65.7,8.7l-0.8,0.4l-8,3.4l-0.8,0.3l0.8,0.3l8,3.4l0.8,0.3
			L65.4,16l-0.8-1.8h14H79v-0.4v-2.2v-0.4h-0.4h-14l0.8-1.8L65.7,8.7L65.7,8.7z"/>
	</g>
	<g>
		<path class="st3" d="M154.8,15.3c0,0-0.9-1,0-2.3c0.9-1.3,0-2.7,0-2.7h-2.3c0,0,0.9,1.4,0,2.7c-0.9,1.3,0,2.3,0,2.3H154.8z"/>
		<path class="st5" d="M154.8,10.3c0,0,0.9,1.4,0,2.7c-0.9,1.3,0,2.3,0,2.3"/>
		<path class="st5" d="M152.5,10.3c0,0,0.9,1.4,0,2.7c-0.9,1.3,0,2.3,0,2.3"/>
	</g>
	<g>
		<path d="M23.7,21.8h0.8v6.3h-0.8V21.8z"/>
		<path d="M25.8,24.5c0-0.3,0-0.7,0-1h0.7l0,0.7h0c0.2-0.5,0.6-0.7,1.2-0.7c0.8,0,1.3,0.5,1.3,1.5v3.2h-0.8v-3c0-0.7-0.3-1-0.8-1
			c-0.6,0-1,0.4-1,1.2v2.8h-0.8V24.5z"/>
		<path d="M30,24.3c0-0.3,0-0.6,0-0.8h0.7l0,0.7h0c0.2-0.4,0.5-0.7,1.2-0.7c0.9,0,1.6,0.8,1.6,2.4s-0.6,2.4-1.6,2.4
			c-0.5,0-0.9-0.2-1.2-0.7h0V30H30V24.3z M31.8,27.5c0.7,0,1-0.6,1-1.7s-0.3-1.7-1-1.7s-1,0.6-1,1.7S31.1,27.5,31.8,27.5z"/>
		<path d="M37.7,27.1c0,0.3,0,0.7,0,1H37l0-0.7h0c-0.2,0.5-0.6,0.7-1.2,0.7c-0.8,0-1.3-0.5-1.3-1.5v-3.2h0.8v3c0,0.7,0.3,1,0.8,1
			c0.6,0,1-0.4,1-1.2v-2.8h0.8V27.1z"/>
		<path d="M40.8,28c-0.2,0.1-0.4,0.1-0.6,0.1c-0.7,0-1.1-0.3-1.1-1.1v-3h-0.7v-0.6h0.7v-0.9l0.8-0.2v1.2h0.9v0.6h-0.9v2.7
			c0,0.5,0.1,0.7,0.5,0.7c0.2,0,0.3-0.1,0.5-0.1V28z"/>
		<path d="M45.6,21.8l2.1,6.3h-0.8l-0.5-1.6h-2.4l-0.5,1.6h-0.8l2.1-6.3H45.6z M46.1,25.7l-1-3.1h0l-1,3.1H46.1z"/>
		<path d="M48.4,27.1h0.8l-0.6,2.1H48L48.4,27.1z"/>
		<path d="M50.6,21.8h1.6c1.2,0,1.7,0.7,1.7,1.6c0,0.7-0.4,1.2-1,1.4v0c0.7,0.1,1.2,0.7,1.2,1.6c0,0.9-0.6,1.7-2,1.7h-1.5V21.8z
			 M51.4,24.5h0.5c0.9,0,1.3-0.4,1.3-1.1c0-0.5-0.3-1-1.2-1h-0.6V24.5z M51.4,27.4H52c0.8,0,1.2-0.5,1.2-1.1c0-0.6-0.4-1.1-1.1-1.1
			h-0.8V27.4z"/>
		<path d="M54.7,27.1h0.8L55,29.2h-0.7L54.7,27.1z"/>
		<path d="M60.2,23.4c1.2,0,1.8,0.9,1.8,2.4s-0.6,2.4-1.8,2.4c-1.2,0-1.8-0.9-1.8-2.4S59,23.4,60.2,23.4z M60.2,27.5
			c0.7,0,1.1-0.6,1.1-1.7S60.9,24,60.2,24c-0.7,0-1.1,0.6-1.1,1.7S59.5,27.5,60.2,27.5z"/>
		<path d="M62.9,24.5c0-0.3,0-0.7,0-1h0.7l0,0.7h0c0.2-0.6,0.6-0.8,1.3-0.8v0.7c-0.1,0-0.2,0-0.3,0c-0.6,0-1,0.5-1,1.5v2.4h-0.8
			V24.5z"/>
		<path d="M71.6,27.9c-0.4,0.1-0.8,0.2-1.1,0.2c-2,0-2.8-1.5-2.8-3.2c0-2,1.1-3.2,2.8-3.2c0.5,0,0.9,0.1,1.2,0.2v0.8
			c-0.3-0.2-0.7-0.3-1.2-0.3c-1,0-2,0.8-2,2.3c0,1.6,0.6,2.7,2,2.7c0.4,0,0.8-0.1,1.1-0.3V27.9z"/>
	</g>
	<g>
		<circle class="st6" cx="46.8" cy="11.9" r="6.8"/>
		<path class="st7" d="M42.6,11.9c0,2.4,1.9,4.3,4.3,4.3c2.3,0,4.3-1.9,4.3-4.3c0-2.4-1.9-4.3-4.3-4.3C44.5,7.6,42.6,9.5,42.6,11.9z
			"/>
	</g>
	<g>
		<g>
			<g>
				<g>
					<polyline class="st1" points="160.6,188.1 159.9,188.4 157.3,188.2 156.8,188.6 156.8,190 157.3,190.5 159.9,190.2 
						160.6,190.6 					"/>
					<rect x="164.4" y="188.1" class="st1" width="5.7" height="2.5"/>
					<rect x="169.7" y="187" class="st1" width="0.7" height="4.5"/>
					<rect x="161.9" y="188.1" class="st1" width="1.9" height="2.5"/>
					<rect x="160.6" y="188.1" class="st1" width="0.7" height="2.5"/>
					<rect x="161.2" y="188.3" class="st1" width="0.6" height="2.1"/>
					
						<rect x="163" y="189" transform="matrix(2.366814e-03 -1 1 2.366814e-03 -25.6221 352.9397)" class="st1" width="2.1" height="0.6"/>
					<polyline class="st1" points="157.3,188.2 156.8,188.6 156.8,190 157.3,190.5 					"/>
					<g>
						<polygon class="st1" points="189.4,188 189.4,190.5 178.7,191.7 178.7,186.6 						"/>
						<polygon class="st1" points="178.7,186.5 180.3,186.5 180.3,188.6 181,188.6 181,186.5 182.6,186.6 182.6,188.6 183.5,188.6 
							183.5,186.7 184.8,186.8 184.8,188.6 185.5,188.6 185.5,186.9 187.1,187 187,188.6 187.7,188.6 187.7,187 189.5,187.2 
							189.4,191.2 187.7,191.3 187.7,189.8 187,189.8 187,191.3 185.5,191.5 185.5,189.8 184.8,189.8 184.8,191.5 183.5,191.6 
							183.5,189.8 182.6,189.8 182.6,191.7 181,191.8 181,189.8 180.3,189.8 180.3,191.9 178.7,191.9 						"/>
					</g>
					<polygon class="st1" points="178.7,192.1 170.4,192.1 170.4,186.2 178.7,186.2 					"/>
				</g>
			</g>
		</g>
	</g>
	<g>
		<path d="M34.7,203.4c-0.4,0.1-0.8,0.2-1.1,0.2c-2,0-2.8-1.5-2.8-3.2c0-2,1.1-3.2,2.8-3.2c0.5,0,0.9,0.1,1.2,0.2v0.8
			c-0.3-0.2-0.7-0.3-1.2-0.3c-1,0-2,0.8-2,2.3c0,1.6,0.6,2.7,2,2.7c0.4,0,0.8-0.1,1.1-0.3V203.4z"/>
		<path d="M37.3,198.9c1.2,0,1.8,0.9,1.8,2.4s-0.6,2.4-1.8,2.4c-1.2,0-1.8-0.9-1.8-2.4S36.1,198.9,37.3,198.9z M37.3,203
			c0.7,0,1.1-0.6,1.1-1.7s-0.3-1.7-1.1-1.7c-0.7,0-1.1,0.6-1.1,1.7S36.6,203,37.3,203z"/>
		<path d="M40,200c0-0.3,0-0.7,0-1h0.7l0,0.7h0c0.2-0.5,0.6-0.7,1.1-0.7c0.5,0,0.8,0.3,1.1,0.7c0.2-0.5,0.6-0.7,1.1-0.7
			c0.8,0,1.3,0.5,1.3,1.5v3.2h-0.8v-3.2c0-0.6-0.3-0.9-0.7-0.9c-0.6,0-0.9,0.3-0.9,1.2v2.8h-0.8v-3.2c0-0.6-0.3-0.9-0.7-0.9
			c-0.6,0-0.9,0.3-0.9,1.2v2.8H40V200z"/>
		<path d="M46.5,199.8c0-0.3,0-0.6,0-0.8h0.7l0,0.7h0c0.2-0.4,0.5-0.7,1.2-0.7c0.9,0,1.6,0.8,1.6,2.4s-0.6,2.4-1.6,2.4
			c-0.5,0-0.9-0.2-1.2-0.7h0v2.6h-0.8V199.8z M48.2,203c0.7,0,1-0.6,1-1.7s-0.3-1.7-1-1.7c-0.7,0-1,0.6-1,1.7S47.5,203,48.2,203z"/>
		<path d="M54.1,202.6c0,0.3,0,0.7,0,1h-0.7l0-0.7h0c-0.2,0.5-0.6,0.7-1.2,0.7c-0.8,0-1.3-0.5-1.3-1.5V199h0.8v3c0,0.7,0.3,1,0.8,1
			c0.6,0,1-0.4,1-1.2V199h0.8V202.6z"/>
		<path d="M57.2,203.5c-0.2,0.1-0.4,0.1-0.6,0.1c-0.7,0-1.1-0.3-1.1-1.1v-3h-0.7V199h0.7V198l0.8-0.2v1.2h0.9v0.6h-0.9v2.7
			c0,0.5,0.1,0.7,0.5,0.7c0.2,0,0.3-0.1,0.5-0.1V203.5z"/>
		<path d="M58.4,201.5c0,1.1,0.4,1.6,1.3,1.6c0.4,0,0.8-0.2,1.1-0.4l0,0.7c-0.4,0.2-0.8,0.3-1.3,0.3c-1.2,0-1.8-0.9-1.8-2.4
			s0.6-2.4,1.8-2.4c1,0,1.6,0.8,1.6,2.2v0.4H58.4z M60.3,200.9c0-1-0.3-1.4-0.9-1.4c-0.5,0-0.9,0.4-0.9,1.4H60.3z"/>
		<path d="M61.9,200c0-0.3,0-0.7,0-1h0.7l0,0.7h0c0.2-0.6,0.6-0.8,1.3-0.8v0.7c-0.1,0-0.2,0-0.3,0c-0.6,0-1,0.5-1,1.5v2.4h-0.8V200z
			"/>
	</g>
</g>
<g id="Layer_18">
	<path class="st8" d="M149.8,157.6c0,2.4-1.9,4.3-4.3,4.3h-41.8c-2.4,0-4.3-1.9-4.3-4.3v-6.5l-4.3-4.2l4.3-4.1v-23.6
		c0-2.4,1.9-4.3,4.3-4.3h41.8c2.4,0,4.3,1.9,4.3,4.3V157.6z"/>
	<g>
		<path class="st9" d="M116.4,139.7c0,4,3.3,7.3,7.3,7.3c4,0,7.3-3.3,7.3-7.3c0-4-3.3-7.3-7.3-7.3
			C119.6,132.4,116.4,135.7,116.4,139.7z"/>
		<path class="st10" d="M119.1,139.7c0,2.5,2,4.6,4.6,4.6c2.5,0,4.6-2,4.6-4.6s-2-4.6-4.6-4.6C121.2,135.1,119.1,137.2,119.1,139.7z
			"/>
	</g>
	<g>
		<path d="M102.1,151.7h2.8v0.7h-2v2h1.9v0.7h-1.9v2.9h-0.8V151.7z"/>
		<path d="M107,153.3c1.2,0,1.8,0.9,1.8,2.4s-0.6,2.4-1.8,2.4c-1.2,0-1.8-0.9-1.8-2.4S105.8,153.3,107,153.3z M107,157.4
			c0.7,0,1.1-0.6,1.1-1.7s-0.3-1.7-1.1-1.7c-0.7,0-1.1,0.6-1.1,1.7S106.3,157.4,107,157.4z"/>
		<path d="M109.7,154.4c0-0.3,0-0.7,0-1h0.7l0,0.7h0c0.2-0.6,0.6-0.8,1.3-0.8v0.7c-0.1,0-0.2,0-0.3,0c-0.6,0-1,0.5-1,1.5v2.4h-0.8
			V154.4z"/>
		<path d="M114.7,151.7h1.5c0.6,0,1,0.2,1.4,0.5c0.3,0.3,0.5,0.7,0.5,1.3c0,1.2-0.7,1.9-2,1.9h-0.5v2.6h-0.8V151.7z M115.5,154.7
			h0.4c1,0,1.3-0.5,1.3-1.2c0-0.9-0.5-1.2-1.3-1.2h-0.5V154.7z"/>
		<path d="M122.8,157.9c-0.4,0.1-0.8,0.2-1.1,0.2c-2,0-2.8-1.5-2.8-3.2c0-2,1.1-3.2,2.8-3.2c0.5,0,0.9,0.1,1.2,0.2v0.8
			c-0.3-0.2-0.7-0.3-1.2-0.3c-1,0-2,0.8-2,2.3c0,1.6,0.6,2.7,2,2.7c0.4,0,0.8-0.1,1.1-0.3V157.9z"/>
		<path d="M128.6,152.6c-0.3-0.2-0.7-0.3-1.1-0.3c-0.6,0-1,0.4-1,0.9c0,0.4,0.2,0.7,1.1,1.2c1,0.6,1.3,1.1,1.3,1.8
			c0,1-0.6,1.8-1.8,1.8c-0.5,0-1-0.1-1.3-0.3V157c0.4,0.2,0.8,0.4,1.2,0.4c0.7,0,1.1-0.5,1.1-1c0-0.5-0.1-0.8-1-1.3
			c-1.1-0.7-1.4-1.1-1.4-1.9c0-1,0.8-1.6,1.7-1.6c0.4,0,0.9,0.1,1.1,0.2V152.6z"/>
		<path d="M131.9,157.9c-0.2,0.1-0.4,0.1-0.6,0.1c-0.7,0-1.1-0.3-1.1-1.1v-3h-0.7v-0.6h0.7v-0.9l0.8-0.2v1.2h0.9v0.6H131v2.7
			c0,0.5,0.1,0.7,0.5,0.7c0.2,0,0.3-0.1,0.5-0.1V157.9z"/>
		<path d="M133.1,155.9c0,1.1,0.4,1.6,1.3,1.6c0.4,0,0.8-0.2,1.1-0.4l0,0.7c-0.4,0.2-0.8,0.3-1.3,0.3c-1.2,0-1.8-0.9-1.8-2.4
			s0.6-2.4,1.8-2.4c1,0,1.6,0.8,1.6,2.2v0.4H133.1z M135,155.3c0-1-0.3-1.4-0.9-1.4c-0.5,0-0.9,0.4-0.9,1.4H135z"/>
		<path d="M136.5,154.4c0-0.3,0-0.7,0-1h0.7l0,0.7h0c0.2-0.6,0.6-0.8,1.3-0.8v0.7c-0.1,0-0.2,0-0.3,0c-0.6,0-1,0.5-1,1.5v2.4h-0.8
			V154.4z"/>
		<path d="M139.8,155.9c0,1.1,0.4,1.6,1.3,1.6c0.4,0,0.8-0.2,1.1-0.4l0,0.7c-0.4,0.2-0.8,0.3-1.3,0.3c-1.2,0-1.8-0.9-1.8-2.4
			s0.6-2.4,1.8-2.4c1,0,1.6,0.8,1.6,2.2v0.4H139.8z M141.6,155.3c0-1-0.3-1.4-0.9-1.4c-0.5,0-0.9,0.4-0.9,1.4H141.6z"/>
		<path d="M144.8,153.3c1.2,0,1.8,0.9,1.8,2.4s-0.6,2.4-1.8,2.4c-1.2,0-1.8-0.9-1.8-2.4S143.6,153.3,144.8,153.3z M144.8,157.4
			c0.7,0,1.1-0.6,1.1-1.7s-0.3-1.7-1.1-1.7c-0.7,0-1.1,0.6-1.1,1.7S144.1,157.4,144.8,157.4z"/>
	</g>
	<g>
		<path class="st11" d="M86.2,185.3v-49.9c0-1.3-1-2.4-2.3-2.4H10.4c-1.3,0-2.3,1.1-2.3,2.4v49.9H86.2z"/>
		<path class="st11" d="M0.3,185.2c0,3.1,1.3,5.6,2.9,5.6h88c1.6,0,2.9-2.5,2.9-5.6H0.3z"/>
		<path class="st12" d="M54.5,185.2c0,0.9-0.2,1.6-0.5,1.6H40.2c-0.3,0-0.5-0.7-0.5-1.6H54.5z"/>
		<path class="st12" d="M54.5,133c0,0.9-0.2,1.6-0.5,1.6H40.2c-0.3,0-0.5-0.7-0.5-1.6H54.5z"/>
		<rect x="11.3" y="137.8" class="st13" width="72.2" height="42.8"/>
		
			<linearGradient id="SVGID_1_" gradientUnits="userSpaceOnUse" x1="141.9863" y1="150.6213" x2="211.1474" y2="150.6213" gradientTransform="matrix(-1 0 0 1 224.223 0)">
			<stop  offset="5.618000e-03" style="stop-color:#D1D3D4"/>
			<stop  offset="1" style="stop-color:#FFFFFF"/>
		</linearGradient>
		<path class="st14" d="M82.2,139.2v22.7c-5.9,0.5-12-0.3-17.5-2.3c-15.7-5.5-30.4-15.4-47.8-13.9c-1.3,0.1-2.5,0.2-3.8,0.4v-6.8
			H82.2z"/>
		<path class="st15" d="M13.1,146c1.3-0.1,2.5-0.3,3.8-0.4c17.4-1.5,32.1,8.4,47.8,13.9c5.5,2,11.6,2.8,17.5,2.3v17.2H13.1V146z"/>
		<circle class="st13" cx="12.7" cy="182.9" r="1.4"/>
		
			<linearGradient id="SVGID_2_" gradientUnits="userSpaceOnUse" x1="211.4737" y1="182.3876" x2="211.4737" y2="183.8794" gradientTransform="matrix(-1 0 0 1 224.223 0)">
			<stop  offset="0.4335" style="stop-color:#D1D3D4"/>
			<stop  offset="1" style="stop-color:#000000"/>
		</linearGradient>
		<circle class="st16" cx="12.7" cy="182.9" r="1"/>
		
			<linearGradient id="SVGID_3_" gradientUnits="userSpaceOnUse" x1="211.4728" y1="182.2935" x2="211.4728" y2="183.025" gradientTransform="matrix(-1 0 0 1 224.223 0)">
			<stop  offset="0" style="stop-color:#FFFFFF"/>
			<stop  offset="1" style="stop-color:#D1D3D4"/>
		</linearGradient>
		<ellipse class="st17" cx="12.7" cy="182.6" rx="0.8" ry="0.5"/>
		<circle class="st13" cx="16.8" cy="182.9" r="1.4"/>
		
			<linearGradient id="SVGID_4_" gradientUnits="userSpaceOnUse" x1="207.4102" y1="182.3876" x2="207.4102" y2="183.8794" gradientTransform="matrix(-1 0 0 1 224.223 0)">
			<stop  offset="0.4335" style="stop-color:#D1D3D4"/>
			<stop  offset="1" style="stop-color:#000000"/>
		</linearGradient>
		<circle class="st18" cx="16.8" cy="182.9" r="1"/>
		
			<linearGradient id="SVGID_5_" gradientUnits="userSpaceOnUse" x1="207.4101" y1="182.2935" x2="207.4101" y2="183.025" gradientTransform="matrix(-1 0 0 1 224.223 0)">
			<stop  offset="0" style="stop-color:#FFFFFF"/>
			<stop  offset="1" style="stop-color:#D1D3D4"/>
		</linearGradient>
		<ellipse class="st19" cx="16.8" cy="182.6" rx="0.8" ry="0.5"/>
		<circle class="st13" cx="20.9" cy="182.9" r="1.4"/>
		
			<linearGradient id="SVGID_6_" gradientUnits="userSpaceOnUse" x1="203.3479" y1="182.3876" x2="203.3479" y2="183.8794" gradientTransform="matrix(-1 0 0 1 224.223 0)">
			<stop  offset="0.4335" style="stop-color:#D1D3D4"/>
			<stop  offset="1" style="stop-color:#000000"/>
		</linearGradient>
		<circle class="st20" cx="20.9" cy="182.9" r="1"/>
		
			<linearGradient id="SVGID_7_" gradientUnits="userSpaceOnUse" x1="203.3472" y1="182.2935" x2="203.3472" y2="183.025" gradientTransform="matrix(-1 0 0 1 224.223 0)">
			<stop  offset="0" style="stop-color:#FFFFFF"/>
			<stop  offset="1" style="stop-color:#D1D3D4"/>
		</linearGradient>
		<ellipse class="st21" cx="20.9" cy="182.6" rx="0.8" ry="0.5"/>
	</g>
	<g>
		<path class="st22" d="M119.8,176.9l-0.7-2.9c0-2.8,2.3-5.1,5.1-5.1c2.8,0,5.1,2.3,5.1,5.1l-0.7,2.9"/>
		<path d="M127.3,177.9c-0.1,0.5,0.3,1,0.8,1.1l0,0c0.5,0.1,1-0.3,1.1-0.8l0.4-2.4c0.1-0.5-0.3-1-0.8-1.1l0,0
			c-0.5-0.1-1,0.3-1.1,0.8L127.3,177.9z"/>
		<path d="M120.9,177.9c0.1,0.5-0.3,1-0.8,1.1l0,0c-0.5,0.1-1-0.3-1.1-0.8l-0.4-2.4c-0.1-0.5,0.3-1,0.8-1.1l0,0
			c0.5-0.1,1,0.3,1.1,0.8L120.9,177.9z"/>
	</g>
	<g>
		<g>
			<g>
				<path class="st23" d="M117.5,118.1c-1.6,1.6-2.6,3.8-2.6,6.2c0,2.4,1,4.6,2.6,6.2"/>
				<path class="st23" d="M129.9,130.4c1.6-1.6,2.6-3.8,2.6-6.2c0-2.4-1-4.6-2.6-6.2"/>
			</g>
			<g>
				<path class="st23" d="M118.9,119.4c-1.2,1.2-2,3-2,4.8c0,1.9,0.8,3.6,2,4.9"/>
				<path class="st23" d="M128.6,129.1c1.2-1.2,2-3,2-4.9c0-1.9-0.8-3.6-2-4.8"/>
			</g>
			<g>
				<path class="st23" d="M120.3,120.8c-0.9,0.9-1.4,2.1-1.4,3.4c0,1.3,0.5,2.5,1.4,3.4"/>
				<path class="st23" d="M127.1,127.6c0.9-0.9,1.4-2.1,1.4-3.4c0-1.3-0.5-2.5-1.4-3.4"/>
			</g>
		</g>
		<line class="st24" x1="123.4" y1="124.2" x2="136.8" y2="124.2"/>
		<polygon points="135.5,126.6 138.3,124.3 135.5,122 		"/>
	</g>
	<path class="st8" d="M149.8,207.4c0,2.4-1.9,4.3-4.3,4.3h-41.8c-2.4,0-4.3-1.9-4.3-4.3v-24.1l-4.3-4.2l4.3-4.1v-6
		c0-2.4,1.9-4.3,4.3-4.3h41.8c2.4,0,4.3,1.9,4.3,4.3V207.4z"/>
	<g>
		<path class="st9" d="M116.8,189.3c0,4,3.3,7.3,7.3,7.3c4,0,7.3-3.3,7.3-7.3c0-4-3.3-7.3-7.3-7.3
			C120.1,182,116.8,185.3,116.8,189.3z"/>
		<path class="st10" d="M119.6,189.3c0,2.5,2,4.6,4.6,4.6c2.5,0,4.6-2,4.6-4.6s-2-4.6-4.6-4.6C121.6,184.8,119.6,186.8,119.6,189.3z
			"/>
	</g>
	<g>
		<path d="M106.7,201.3h2.8v0.7h-2v2h1.9v0.7h-1.9v2.9h-0.8V201.3z"/>
		<path d="M111.7,203c1.2,0,1.8,0.9,1.8,2.4s-0.6,2.4-1.8,2.4c-1.2,0-1.8-0.9-1.8-2.4S110.5,203,111.7,203z M111.7,207.1
			c0.7,0,1.1-0.6,1.1-1.7s-0.3-1.7-1.1-1.7c-0.7,0-1.1,0.6-1.1,1.7S111,207.1,111.7,207.1z"/>
		<path d="M114.4,204c0-0.3,0-0.7,0-1h0.7l0,0.7h0c0.2-0.6,0.6-0.8,1.3-0.8v0.7c-0.1,0-0.2,0-0.3,0c-0.6,0-1,0.5-1,1.5v2.4h-0.8V204
			z"/>
		<path d="M121.3,201.3l2.1,6.3h-0.8L122,206h-2.4l-0.5,1.6h-0.8l2.1-6.3H121.3z M121.8,205.3l-1-3.1h0l-1,3.1H121.8z"/>
		<path d="M123.9,203.9c0-0.3,0-0.6,0-0.8h0.7l0,0.7h0c0.2-0.4,0.5-0.7,1.2-0.7c0.9,0,1.6,0.8,1.6,2.4s-0.6,2.4-1.6,2.4
			c-0.5,0-0.9-0.2-1.2-0.7h0v2.6h-0.8V203.9z M125.6,207.1c0.7,0,1-0.6,1-1.7s-0.3-1.7-1-1.7c-0.7,0-1,0.6-1,1.7
			S124.9,207.1,125.6,207.1z"/>
		<path d="M128.2,203.9c0-0.3,0-0.6,0-0.8h0.7l0,0.7h0c0.2-0.4,0.5-0.7,1.2-0.7c0.9,0,1.6,0.8,1.6,2.4s-0.6,2.4-1.6,2.4
			c-0.5,0-0.9-0.2-1.2-0.7h0v2.6h-0.8V203.9z M130,207.1c0.7,0,1-0.6,1-1.7s-0.3-1.7-1-1.7c-0.7,0-1,0.6-1,1.7
			S129.3,207.1,130,207.1z"/>
		<path d="M132.7,200.9h0.8v6.8h-0.8V200.9z"/>
		<path d="M135.2,205.6c0,1.1,0.4,1.6,1.3,1.6c0.4,0,0.8-0.2,1.1-0.4l0,0.7c-0.4,0.2-0.8,0.3-1.3,0.3c-1.2,0-1.8-0.9-1.8-2.4
			s0.6-2.4,1.8-2.4c1,0,1.6,0.8,1.6,2.2v0.4H135.2z M137,205c0-1-0.3-1.4-0.9-1.4c-0.5,0-0.9,0.4-0.9,1.4H137z"/>
		<path d="M140.1,200.9c1,0,1.9,0.8,1.9,1.9s-0.8,1.9-1.9,1.9s-1.9-0.8-1.9-1.9S139.1,200.9,140.1,200.9z M140.1,204.3
			c0.9,0,1.5-0.7,1.5-1.5c0-0.9-0.7-1.5-1.5-1.5s-1.5,0.7-1.5,1.5C138.6,203.7,139.3,204.3,140.1,204.3z M139.4,201.7h0.8
			c0.5,0,0.8,0.2,0.8,0.6c0,0.4-0.2,0.6-0.6,0.6l0.6,1h-0.4l-0.6-1h-0.3v1h-0.4V201.7z M139.8,202.6h0.4c0.3,0,0.5-0.1,0.5-0.3
			c0-0.2-0.2-0.3-0.5-0.3h-0.4V202.6z"/>
	</g>
	<g>
		<polygon class="st2" points="133.5,189.2 142.4,185.4 141.3,187.9 155.8,187.9 155.8,190.4 141.3,190.4 142.4,192.9 		"/>
		<path class="st3" d="M142,185.8l-1,2.3h14.6v2.2h-14.6l1,2.3l-8-3.4L142,185.8 M142.7,185.1l-0.8,0.4l-8,3.4l-0.8,0.3l0.8,0.3
			l8,3.4l0.8,0.4l-0.4-0.8l-0.8-1.8h14h0.4v-0.4v-2.2v-0.4h-0.4h-14l0.8-1.8L142.7,185.1L142.7,185.1z"/>
	</g>
</g>
<g id="Ens">
	<g>
		<path d="M31.5,104.8h2.9v0.7h-2.1v2h2v0.7h-2v2.2h2.3v0.7h-3V104.8z"/>
		<path d="M35.5,107.5c0-0.3,0-0.7,0-1h0.7l0,0.7h0c0.2-0.5,0.6-0.7,1.2-0.7c0.8,0,1.3,0.5,1.3,1.5v3.2H38v-3c0-0.7-0.3-1-0.8-1
			c-0.6,0-1,0.4-1,1.2v2.8h-0.8V107.5z"/>
		<path d="M39.7,110.2c0.3,0.2,0.7,0.3,1.1,0.3c0.6,0,0.9-0.3,0.9-0.6c0-0.3-0.2-0.5-0.6-0.7l-0.5-0.2c-0.7-0.3-0.9-0.6-0.9-1.2
			c0-0.8,0.6-1.3,1.5-1.3c0.4,0,0.7,0.1,1,0.2l0,0.6c-0.2-0.1-0.6-0.2-0.9-0.2c-0.5,0-0.8,0.3-0.8,0.6c0,0.4,0.3,0.6,0.8,0.8
			l0.3,0.1c0.6,0.2,0.9,0.6,0.9,1.2c0,0.8-0.4,1.4-1.5,1.4c-0.5,0-0.9-0.1-1.2-0.3L39.7,110.2z"/>
		<path d="M43.8,109c0,1.1,0.4,1.6,1.3,1.6c0.4,0,0.8-0.2,1.1-0.4l0,0.7c-0.4,0.2-0.8,0.3-1.3,0.3c-1.2,0-1.8-0.9-1.8-2.4
			s0.6-2.4,1.8-2.4c1,0,1.6,0.8,1.6,2.2v0.4H43.8z M45.6,108.4c0-1-0.3-1.4-0.9-1.4c-0.5,0-0.9,0.4-0.9,1.4H45.6z M44.8,104.6h0.9
			l-0.9,1.3h-0.6L44.8,104.6z"/>
		<path d="M47.2,107.5c0-0.3,0-0.7,0-1h0.7l0,0.7h0c0.2-0.5,0.6-0.7,1.1-0.7c0.5,0,0.8,0.3,1.1,0.7c0.2-0.5,0.6-0.7,1.1-0.7
			c0.8,0,1.3,0.5,1.3,1.5v3.2h-0.8v-3.2c0-0.6-0.3-0.9-0.7-0.9c-0.6,0-0.9,0.3-0.9,1.2v2.8h-0.8v-3.2c0-0.6-0.3-0.9-0.7-0.9
			c-0.6,0-0.9,0.3-0.9,1.2v2.8h-0.8V107.5z"/>
		<path d="M53.6,104.3h0.8v2.8h0c0.3-0.5,0.6-0.7,1.2-0.7c0.9,0,1.6,0.8,1.6,2.4s-0.6,2.4-1.6,2.4c-0.7,0-1-0.4-1.2-0.7h0l0,0.7
			h-0.7c0-0.3,0-0.6,0-0.8V104.3z M55.4,110.5c0.7,0,1-0.6,1-1.7s-0.3-1.7-1-1.7c-0.7,0-1,0.6-1,1.7S54.7,110.5,55.4,110.5z"/>
		<path d="M58.1,104.3h0.8v6.8h-0.8V104.3z"/>
		<path d="M60.6,109c0,1.1,0.4,1.6,1.3,1.6c0.4,0,0.8-0.2,1.1-0.4l0,0.7c-0.4,0.2-0.8,0.3-1.3,0.3c-1.2,0-1.8-0.9-1.8-2.4
			s0.6-2.4,1.8-2.4c1,0,1.6,0.8,1.6,2.2v0.4H60.6z M62.4,108.4c0-1-0.3-1.4-0.9-1.4c-0.5,0-0.9,0.4-0.9,1.4H62.4z"/>
	</g>
	<g>
		<g>
			<path class="st3" d="M39.3,100.1c-0.2,0-0.3,0-0.6-0.1c-0.7-0.1-0.9-0.5-1-0.8c-0.4,0.1-1,0.2-1.2,0.3c-0.1,0.2-0.3,0.5-1,0.5
				c-0.1,0-0.1,0-0.2,0c-0.6,0-1.1-0.2-1.4-0.6c-0.3,0.1-0.7,0.2-1.2,0.3c-0.1,0-0.1,0-0.2,0c-0.5,0-1.2-0.2-1.6-0.6
				c-0.3,0.1-0.7,0.2-1.4,0.2c-0.6,0-1.2-0.4-1.4-0.6c-0.1,0-0.4,0-0.8,0c0,0,0,0,0,0c-0.8,0-2.2-0.4-2.9-0.6
				c-0.8-0.2-1.5-0.6-1.9-0.9c-0.7-0.1-1.4-1.2-1.4-1.2c-0.2-0.4-0.4-2.2-0.4-2.8v-1.1l11.4,2.2l15.4,0.1l16.7-0.2l9.5-2.2l0,0.4
				c0,0-0.2,2.3-0.3,2.6c-0.1,0.4-0.1,0.6-0.3,0.8c-0.1,0.3-0.5,0.7-0.8,0.8c-0.1,0.2-0.2,0.3-0.6,0.5c-0.5,0.2-2.4,1-3.2,1.2
				c-0.5,0.1-0.9,0.2-1.2,0.2c-0.2,0-0.4,0-0.6-0.1c-0.2,0.2-0.5,0.4-0.8,0.5c-0.1,0-0.2,0-0.3,0c-0.3,0-0.8-0.1-1.2-0.1
				c-0.1,0-0.1,0-0.2,0c-0.2,0.3-0.7,0.6-1.5,0.6c-0.2,0-0.3,0-0.4,0c-0.3,0-0.9-0.3-1.3-0.4c-0.1,0.2-0.3,0.4-0.5,0.5
				c-0.2,0.1-0.6,0.2-0.8,0.2c-0.4,0-0.7-0.1-1-0.2c-0.2-0.1-0.5-0.2-0.9-0.2c-0.3-0.1-0.5-0.1-0.8-0.2c-0.2,0.2-0.5,0.4-1,0.5
				c-0.1,0-0.2,0-0.3,0c-0.6,0-1.1-0.3-1.3-0.4c-0.1-0.1-0.5-0.2-0.8-0.3c-0.1,0.2-0.2,0.4-0.4,0.6c-0.2,0.2-0.4,0.3-0.6,0.3
				c-0.3,0-0.6-0.1-1-0.3c-0.5-0.3-0.7-0.4-1.1-0.4c0,0-0.1,0-0.1,0c-0.3,0.7-0.8,0.8-1.2,0.8c0,0,0,0,0,0c-0.5,0-0.8-0.4-0.9-0.7
				c-0.3,0-0.8,0-1.1,0c-0.2,0.5-0.6,0.8-1.3,0.8c-0.6,0-0.9-0.5-1.1-0.9c-0.2,0-0.5,0-0.7,0.1c-0.3,0.4-0.9,0.9-1.5,0.9
				c-0.3,0-0.8-0.1-1.1-1c-0.1,0.1-0.3,0.2-0.4,0.2c-0.3,0.2-0.6,0.4-0.9,0.5C39.9,99.9,39.6,100.1,39.3,100.1z"/>
			<path d="M73.5,92.5c0,0-0.2,2.3-0.3,2.6c-0.1,0.4-0.1,0.5-0.3,0.7c-0.2,0.3-0.6,0.7-0.8,0.7c-0.1,0.2-0.1,0.2-0.6,0.5
				c-0.5,0.2-2.4,1-3.1,1.2c-0.4,0.1-0.8,0.1-1.1,0.1c-0.3,0-0.5,0-0.7-0.1c-0.2,0.3-0.5,0.5-0.8,0.5c-0.1,0-0.1,0-0.2,0
				c-0.4,0-1.2-0.2-1.5-0.2c-0.3,0.6-0.9,0.7-1.4,0.7c-0.2,0-0.3,0-0.4,0c-0.3,0-1.4-0.5-1.4-0.5s-0.2,0.5-0.6,0.6
				c-0.2,0.1-0.4,0.1-0.7,0.1c-0.3,0-0.7-0.1-0.9-0.1c-0.5-0.2-1.4-0.3-1.9-0.5c-0.1,0.2-0.4,0.5-0.9,0.6c-0.1,0-0.2,0-0.3,0
				c-0.4,0-0.9-0.3-1.1-0.4c-0.3-0.2-1.1-0.3-1.1-0.3s-0.1,0.4-0.4,0.7c-0.1,0.1-0.3,0.2-0.4,0.2c-0.2,0-0.5-0.1-0.9-0.3
				c-0.4-0.3-0.7-0.5-1.2-0.5c-0.1,0-0.2,0-0.3,0c-0.2,0.6-0.5,0.8-1,0.8c0,0,0,0,0,0c-0.5,0-0.7-0.7-0.7-0.7S47.3,99,46.9,99
				c-0.2,0.5-0.4,0.8-1.1,0.8c-0.6,0-0.9-0.9-0.9-0.9s-0.7,0.1-1,0.1c-0.2,0.4-0.8,0.9-1.4,0.9c-0.6,0-0.8-0.6-0.9-1.1
				c-0.2,0.1-1.1,0.7-1.6,0.9c-0.3,0.1-0.5,0.2-0.9,0.2c-0.1,0-0.3,0-0.5-0.1c-0.7-0.1-0.7-0.5-0.9-0.8c-0.2,0-1.4,0.2-1.5,0.4
				c-0.1,0.1-0.1,0.4-0.8,0.5c-0.1,0-0.1,0-0.2,0c-0.6,0-1.1-0.3-1.4-0.7c-0.2,0.2-0.7,0.3-1.3,0.4c-0.1,0-0.1,0-0.2,0
				c-0.5,0-1.2-0.3-1.6-0.7c-0.2,0.2-0.8,0.2-1.4,0.2c-0.6,0-1.3-0.6-1.3-0.6s-0.3,0-0.9,0.1c0,0,0,0-0.1,0c-0.6,0-2-0.4-2.8-0.6
				c-0.8-0.2-1.5-0.6-1.9-0.9c0,0,0,0,0,0c-0.4,0-1-0.8-1.2-1.1c-0.2-0.3-0.3-2.6-0.3-2.6v-0.7l11,2.2l15.5,0.1l16.7-0.2L73.5,92.5
				 M74.1,91.8L73.4,92l-9.2,2.1l-16.6,0.2l-15.4-0.1l-11-2.2l-0.6-0.1v0.7v0.7c0.1,1.1,0.2,2.5,0.4,2.9c0.1,0.1,0.7,1.2,1.5,1.3
				c0.5,0.4,1.3,0.7,1.9,0.9c0.7,0.2,2.2,0.6,2.9,0.6l0.1,0c0.3,0,0.6,0,0.7,0c0.3,0.2,0.9,0.6,1.5,0.6c0.6,0,1,0,1.3-0.1
				c0.5,0.3,1.1,0.6,1.6,0.6c0.1,0,0.2,0,0.3,0c0.5-0.1,0.8-0.1,1.1-0.3c0.4,0.3,0.9,0.5,1.5,0.5c0.1,0,0.1,0,0.2,0
				c0.7-0.1,1-0.3,1.1-0.6c0.2-0.1,0.5-0.1,0.8-0.2c0.1,0.3,0.4,0.6,1.1,0.8c0.2,0,0.4,0.1,0.6,0.1c0.5,0,0.8-0.1,1.1-0.3
				c0.3-0.1,0.6-0.3,0.9-0.5c0,0,0.1,0,0.1-0.1c0.3,0.8,0.9,0.9,1.2,0.9c0.7,0,1.3-0.4,1.7-0.9c0.1,0,0.3,0,0.4,0
				c0.2,0.4,0.6,0.9,1.2,0.9c0.7,0,1.1-0.2,1.4-0.8c0.2,0,0.5,0,0.7,0c0.2,0.3,0.5,0.7,1.1,0.7h0l0,0c0.7,0,1.1-0.3,1.4-0.8
				c0.3,0,0.5,0.1,0.9,0.4l0,0l0,0c0.5,0.2,0.8,0.3,1.2,0.3c0.3,0,0.6-0.1,0.8-0.4c0.1-0.1,0.2-0.3,0.3-0.5c0.2,0.1,0.4,0.1,0.5,0.2
				c0.2,0.1,0.8,0.5,1.4,0.5c0.1,0,0.3,0,0.4,0c0.5-0.1,0.8-0.3,1-0.5c0.2,0,0.4,0.1,0.6,0.1c0.3,0.1,0.7,0.1,0.8,0.2
				c0.3,0.1,0.7,0.2,1.1,0.2c0.4,0,0.7-0.1,0.9-0.2c0.2-0.1,0.4-0.3,0.5-0.4c0.4,0.2,0.9,0.3,1.2,0.4c0.1,0,0.3,0,0.5,0
				c0.9,0,1.4-0.3,1.6-0.6c0,0,0,0,0,0c0.4,0.1,0.9,0.2,1.2,0.2c0.1,0,0.2,0,0.3,0c0.3-0.1,0.6-0.2,0.9-0.4c0.2,0,0.3,0,0.5,0
				c0.3,0,0.8-0.1,1.3-0.2c0.8-0.2,2.8-1,3.2-1.2c0.4-0.2,0.6-0.3,0.7-0.5c0.4-0.2,0.7-0.6,0.9-0.9c0.2-0.3,0.3-0.5,0.4-0.9
				c0.1-0.4,0.3-2.6,0.3-2.7L74.1,91.8L74.1,91.8z M73.5,93.1L73.5,93.1L73.5,93.1L73.5,93.1z"/>
		</g>
		<path d="M22.1,96.6c0,0-0.1,0-0.1-0.4c-0.1-0.4-0.2-1.2-0.2-1.6c0-0.4,0-0.8,0.2-0.7c0.2,0.1,0.3,0.2,0.3,0.4c0,0.3,0.1,1,0.2,1.4
			c0.1,0.3,0,0.9,0.3,1.2C22.7,96.9,22.3,97,22.1,96.6z"/>
		<path d="M27.7,98.4c0,0-0.4-0.1-0.5-0.5c-0.1-0.4-0.1-1.2-0.2-1.7c0-0.5,0.1-0.8,0.4-0.8c0.3,0.1,0.5,0.4,0.5,0.8
			c0.1,0.4,0.2,1.6,0.2,1.8c0,0.2,0.1,0.5,0.1,0.5L27.7,98.4z"/>
		<path d="M30.7,99c0,0-0.8,0-1-0.5c-0.2-0.5-0.1-1.2-0.2-1.7c0-0.6,0-0.9,0.4-0.9c0.4,0,0.6,0.2,0.6,0.9c0.1,0.7,0.2,1.9,0.3,2.1
			C30.8,99,30.7,99,30.7,99z"/>
		<path d="M34,99.1c0,0-0.9,0.3-1.2,0c-0.2-0.2-0.3-0.9-0.3-1.3c0-0.4,0-1.2,0.1-1.4c0.2-0.2,0.4-0.2,0.8-0.2
			c0.3,0.1,0.3,0.4,0.3,0.8c0.1,0.3,0.2,1.6,0.2,1.7C34,99,34,99.1,34,99.1z"/>
		<path d="M36.2,99.5c0,0-0.3-0.1-0.3-0.6c0-0.5,0-1.5,0-1.8c0.1-0.3,0.3-0.7,0.8-0.7c0.5,0,0.9,0.1,1,0.6c0.1,0.5,0.1,1.3,0.2,1.6
			C38,99.3,36.4,99.4,36.2,99.5z"/>
		<path d="M40.1,99.7c0,0-0.3-0.5-0.3-1.2c0-0.7,0.2-1.3,0.2-1.6c0-0.3,0.3-0.5,0.8-0.5c0.4,0,0.6,0.2,0.6,0.6
			c0.1,0.4,0.2,1,0.2,1.2c0,0.2,0.1,0.6,0.1,0.6L40.1,99.7z"/>
		<path d="M43.5,99.5c0,0-0.2-0.4-0.1-0.9c0.1-0.5,0.2-1.3,0.2-1.6c0-0.3,0-0.6,0.5-0.6c0.5-0.1,0.8,0.1,0.8,0.8
			c0.1,0.6,0.2,1.8,0.2,1.8s-0.9,0.1-1.2,0.2C43.6,99.3,43.5,99.5,43.5,99.5z"/>
		<path d="M46.8,99.1c0,0,0.1-1.3,0.1-1.7c0-0.4,0-0.9,0.3-1c0.3-0.1,1-0.2,1,0.5c0.1,0.7,0.1,2.2,0.1,2.2L46.8,99.1z"/>
		<path d="M50.1,99c0,0,0.1-1.2,0.1-1.8c0.1-0.6,0.1-0.9,0.7-0.9c0.6,0,0.6,0.3,0.6,0.7c0,0.4,0.1,1.5,0.1,1.8
			c0.1,0.3,0.1,0.7,0.1,0.7s-0.6-0.5-1-0.6C50.4,98.9,50.1,99,50.1,99z"/>
		<path d="M53.4,99.1c0,0,0-0.8,0.1-1.5c0.1-0.7,0.1-1,0.5-1.1c0.5-0.1,0.8,0,0.9,0.6c0.1,0.6,0.1,2.2,0.1,2.5
			c-0.2-0.1-0.6-0.4-0.9-0.4C53.7,99.1,53.4,99.1,53.4,99.1z"/>
		<path d="M56.9,99c0,0,0.2-1.3,0.3-1.9c0.1-0.5-0.1-0.9,0.6-0.9c0.7,0,0.9,0.1,0.9,0.8c0.1,0.7,0.1,2.4,0.1,2.4s-0.8-0.3-1.1-0.4
			C57.3,99,56.9,99,56.9,99z"/>
		<path d="M60.8,99c0,0,0.1-1.2,0.2-1.7c0.1-0.5-0.1-0.8,0.6-0.9c0.6-0.2,0.8,0.2,0.8,0.9c0,0.7,0,2-0.1,2.2
			C61.9,99.3,61,98.9,60.8,99z"/>
		<path d="M64.1,98.8c0,0,0.2-1.3,0.3-2c0.1-0.6,0.2-0.9,0.5-1c0.3,0,0.5,0.5,0.5,1.2s0,1.4-0.3,1.6C64.8,99,64.7,99,64.7,99
			L64.1,98.8z"/>
		<path d="M66.7,98.1c0,0,0.2-0.7,0.3-1.3c0.1-0.6-0.1-1.1,0.2-1.3c0.3-0.2,0.6,0.1,0.6,0.5c0,0.5,0,1.4-0.2,1.7
			c-0.2,0.3-0.5,0.6-0.6,0.6C66.8,98.4,66.7,98.1,66.7,98.1z"/>
		<path d="M72.1,96.5c0,0,0.2-1.2,0.3-2c0.1-0.8,0.4-1.3,0.5-0.8c0.1,0.5-0.1,1.7-0.1,2c0,0.3-0.1,0.5-0.1,0.5l-0.5,0.4L72.1,96.5z"
			/>
		<path d="M21.1,93.5c0,0,0.2-0.1,0.2,0.3c0,0.5,0.1,1.4,0.1,1.6c0,0.2,0,0.6,0,0.6s-0.2-0.4-0.3-0.8C21.2,94.8,21.1,93.5,21.1,93.5
			z"/>
		<g>
			<path class="st3" d="M36.5,95.7c-1.2,0-2.3,0-3.1-0.1l-0.4,0c-0.8,0-4.3-0.4-6.5-0.8c-2.4-0.4-5.4-1.1-6.4-1.8
				c-0.9-0.6-1-0.9-1.1-1.2l0-0.1c0-0.2,0-3.4,0-4.2c0.1-1,0.5-2.5,1.6-3.6c1.1-1.2,2.2-1.9,3.5-2.4c1.2-0.4,4.4-1.6,11.4-2
				c2.3-0.2,3.9-0.3,4.3-0.3l6.3-4l2.4,0.1c0,0,6.2,3.8,6.2,3.8c0,0,0.3,0.1,0.9,0.1c0.8,0,3.5,0.2,4.2,0.2c0.6,0.1,8.4,1.2,9.5,1.5
				c0.6,0.2,3.5,1.3,4.6,2.6c1,1.2,1.7,2.2,1.8,3.9c0.1,1.6,0.1,3.3,0.1,3.8c0,0.7-0.2,1.1-0.8,1.5c-0.6,0.4-2.5,1.1-3.9,1.5
				c-1.4,0.4-2.6,0.6-3.8,0.7c-0.6,0.1-1.6,0.2-2.4,0.3c-0.5,0.1-0.9,0.1-1.1,0.1c-0.7,0.1-3.8,0.2-4.9,0.2c-0.2,0-0.6,0-1.1,0
				l-3.3,0c-1.1,0-2.3,0-3.2,0c-1.2,0-4.2,0-7,0c-2.9,0-5.6,0-6.5,0C37.2,95.7,36.9,95.7,36.5,95.7z"/>
			<path d="M46,75.4l2.3,0.1l6.1,3.8c0,0,0.3,0.1,1,0.1c0.8,0,3.5,0.2,4.1,0.2c0.6,0.1,8.4,1.2,9.4,1.5c1,0.3,3.5,1.4,4.4,2.5
				c0.9,1.1,1.6,2.1,1.7,3.7c0.1,1.6,0.1,3.3,0.1,3.8c0,0.6-0.2,0.9-0.7,1.3c-0.5,0.3-2.4,1-3.8,1.5c-1.5,0.4-2.7,0.6-3.7,0.7
				c-1,0.1-2.8,0.4-3.5,0.5c-0.6,0.1-3.8,0.2-4.8,0.2c-0.2,0-0.6,0-1.1,0c-0.9,0-2.1,0-3.3,0c-1.1,0-2.3,0-3.2,0
				c-2.5,0.1-11.6,0-13.5,0.1c-0.4,0-0.7,0-1.1,0c-1.5,0-2.9-0.1-3.5-0.1c-0.8,0-4.3-0.4-6.5-0.8c-2.2-0.4-5.3-1.1-6.3-1.8
				c-1-0.7-0.9-0.9-1-1.2c0,0,0-3.3,0.1-4.1c0.1-0.8,0.4-2.3,1.5-3.5c1.1-1.1,2.1-1.8,3.4-2.3c1.3-0.5,4.5-1.6,11.3-2
				c2.6-0.2,4.4-0.3,4.4-0.3L46,75.4 M45.8,74.8l-0.1,0.1l-6.2,3.9c-0.5,0-2,0.2-4.2,0.3c-7,0.4-10.2,1.6-11.4,2
				c-1.3,0.5-2.4,1.2-3.6,2.4c-1.4,1.5-1.6,3.4-1.6,3.8c-0.1,0.8-0.1,4-0.1,4.1v0.1l0,0.1c0,0,0,0.1,0,0.1c0.1,0.5,0.3,0.8,1.2,1.4
				c1.2,0.8,4.7,1.5,6.5,1.9c2.2,0.4,5.8,0.8,6.6,0.8l0.4,0c0.7,0,1.9,0.1,3.1,0.1c0.4,0,0.7,0,1.1,0c0.9,0,3.6,0,6.5,0
				c2.8,0,5.7,0,7,0c0.8,0,1.8,0,3.2,0c0.7,0,1.3,0,1.9,0l1.4,0c0.5,0,0.9,0,1.1,0c1,0,4.2-0.2,4.9-0.2c0.2,0,0.6-0.1,1.1-0.1
				c0.8-0.1,1.7-0.2,2.3-0.3c1.1-0.1,2.4-0.3,3.8-0.7c1.5-0.4,3.4-1.1,4-1.6c0.6-0.4,0.9-1,0.9-1.7c0-0.5,0-2.2-0.1-3.9
				c-0.1-1.7-0.9-2.9-1.9-4c-1.1-1.3-4.1-2.4-4.7-2.6c-1.1-0.4-8.9-1.5-9.5-1.5c-0.6-0.1-3.4-0.2-4.2-0.2c-0.5,0-0.7-0.1-0.8-0.1
				L48.6,75l-0.1-0.1l-0.1,0L46,74.9L45.8,74.8L45.8,74.8z"/>
		</g>
		<g>
			<g>
				<circle cx="38" cy="92.4" r="1"/>
			</g>
			<g>
				<path d="M38,90.8c0.9,0,1.6,0.7,1.6,1.6s-0.7,1.6-1.6,1.6c-0.9,0-1.6-0.7-1.6-1.6S37.1,90.8,38,90.8 M38,90.7
					c-0.9,0-1.7,0.7-1.7,1.7c0,0.9,0.7,1.7,1.7,1.7c0.9,0,1.7-0.7,1.7-1.7C39.6,91.4,38.9,90.7,38,90.7L38,90.7z"/>
			</g>
			<g>
				<path d="M38,90.1l0.2,0.2l0.2-0.2l0.1,0.3l0.2-0.2l0.1,0.3l0.3-0.1l0,0.3l0.3-0.1l0,0.3l0.3-0.1L39.5,91l0.3,0l-0.1,0.3l0.3,0
					l-0.1,0.3l0.3,0.1L40,91.9l0.3,0.1L40,92.2l0.2,0.2L40,92.5l0.2,0.2L40,92.8l0.2,0.2l-0.3,0.1l0.1,0.3l-0.3,0l0.1,0.3l-0.3,0
					l0.1,0.3l-0.3-0.1l0,0.3L39,94.1l0,0.3l-0.3-0.1l-0.1,0.3l-0.2-0.2l-0.1,0.3l-0.2-0.2L38,94.6l-0.2-0.2l-0.2,0.2l-0.1-0.3
					l-0.2,0.2l-0.1-0.3l-0.3,0.1l0-0.3l-0.3,0.1l0-0.3L36.4,94l0.1-0.3l-0.3,0l0.1-0.3l-0.3,0l0.1-0.3l-0.3-0.1l0.2-0.2l-0.3-0.1
					l0.2-0.2l-0.2-0.2l0.2-0.2L35.7,92l0.3-0.1l-0.2-0.2l0.3-0.1L36,91.3l0.3,0L36.1,91l0.3,0l-0.1-0.3l0.3,0.1l0-0.3l0.3,0.1l0-0.3
					l0.3,0.1l0.1-0.3l0.2,0.2l0.1-0.3l0.2,0.2L38,90.1 M39.3,90.5L39.3,90.5 M39.6,90.7L39.6,90.7 M39.8,91L39.8,91 M38,90L38,90
					C38,90,37.9,90,38,90l-0.2,0.2l-0.1-0.1c0,0,0,0-0.1,0c0,0,0,0,0,0c0,0,0,0-0.1,0l-0.1,0.2l-0.1-0.1c0,0,0,0,0,0c0,0,0,0,0,0
					c0,0,0,0-0.1,0.1l-0.1,0.2L37,90.3c0,0,0,0,0,0c0,0,0,0,0,0c0,0,0,0,0,0.1l0,0.2l-0.2-0.1c0,0,0,0,0,0c0,0,0,0,0,0
					c0,0,0,0,0,0.1l0,0.2l-0.2,0c0,0,0,0,0,0c0,0,0,0-0.1,0c0,0,0,0,0,0.1l0,0.2l-0.2,0c0,0,0,0,0,0c0,0,0,0-0.1,0c0,0,0,0,0,0.1
					l0.1,0.2l-0.2,0c0,0,0,0-0.1,0s0,0.1,0,0.1l0.1,0.2l-0.2,0.1c0,0,0,0-0.1,0.1c0,0,0,0.1,0,0.1l0.1,0.2l-0.2,0.1c0,0,0,0,0,0.1
					c0,0,0,0.1,0,0.1l0.1,0.1l-0.2,0.1c0,0,0,0,0,0.1c0,0,0,0.1,0,0.1l0.2,0.1l-0.1,0.1c0,0,0,0,0,0.1s0,0,0,0.1l0.2,0.1L35.8,93
					c0,0,0,0,0,0.1c0,0,0,0,0.1,0.1l0.2,0.1l-0.1,0.2c0,0,0,0,0,0.1s0,0,0.1,0l0.2,0l-0.1,0.2c0,0,0,0.1,0,0.1c0,0,0,0,0.1,0
					c0,0,0,0,0,0l0.2,0l0,0.2c0,0,0,0.1,0,0.1c0,0,0,0,0.1,0c0,0,0,0,0,0l0.2,0l0,0.2c0,0,0,0.1,0,0.1c0,0,0,0,0,0c0,0,0,0,0,0
					l0.2-0.1l0,0.2c0,0,0,0,0,0.1c0,0,0,0,0,0c0,0,0,0,0,0l0.2-0.1l0.1,0.2c0,0,0,0,0.1,0.1c0,0,0,0,0,0c0,0,0,0,0,0l0.1-0.1
					l0.1,0.2c0,0,0,0,0.1,0c0,0,0,0,0,0c0,0,0,0,0.1,0l0.1-0.1l0.1,0.2c0,0,0,0,0.1,0s0.1,0,0.1,0l0.1-0.2l0.1,0.1c0,0,0,0,0.1,0
					c0,0,0,0,0,0c0,0,0,0,0.1,0l0.1-0.2l0.2,0.1c0,0,0,0,0,0c0,0,0,0,0,0c0,0,0,0,0.1-0.1l0.1-0.2l0.2,0.1c0,0,0,0,0,0c0,0,0,0,0,0
					c0,0,0,0,0-0.1l0-0.2l0.2,0.1c0,0,0,0,0,0c0,0,0,0,0,0c0,0,0,0,0-0.1l0-0.2l0.2,0c0,0,0,0,0,0c0,0,0,0,0.1,0c0,0,0,0,0-0.1
					l0-0.2l0.2,0c0,0,0,0,0,0c0,0,0,0,0.1,0c0,0,0,0,0-0.1l-0.1-0.2l0.2,0c0,0,0,0,0.1,0c0,0,0-0.1,0-0.1L40,93.2l0.2-0.1
					c0,0,0,0,0.1-0.1c0,0,0-0.1,0-0.1l-0.1-0.2l0.2-0.1c0,0,0,0,0-0.1c0,0,0-0.1,0-0.1l-0.1-0.1l0.2-0.1c0,0,0,0,0-0.1
					c0,0,0-0.1,0-0.1l-0.2-0.1l0.1-0.1c0,0,0,0,0-0.1c0,0,0,0,0-0.1l-0.2-0.1l0.1-0.2c0,0,0,0,0-0.1s0,0-0.1-0.1L40,91.5l0.1-0.2
					c0,0,0,0,0-0.1c0,0,0,0-0.1,0l-0.2,0l0.1-0.2c0,0,0,0,0,0c0,0,0-0.1-0.1-0.1h0h0c0,0,0,0,0,0l0,0c0,0,0,0,0,0h0h0c0,0,0,0,0,0
					l-0.2,0l0-0.2c0,0,0,0,0,0c0,0,0-0.1-0.1-0.1h0c0,0,0,0,0,0c0,0,0,0,0,0c0,0,0,0,0,0l-0.2,0l0-0.2c0,0,0,0,0,0
					c0,0,0-0.1-0.1-0.1h0c0,0,0,0,0,0c0,0,0,0,0,0h0l0,0h0h0c0,0,0,0,0,0l-0.2,0.1l0-0.2c0,0,0,0,0-0.1c0,0,0,0,0,0c0,0,0,0,0,0
					l-0.2,0.1l-0.1-0.2c0,0,0,0-0.1-0.1c0,0,0,0,0,0c0,0,0,0,0,0l-0.2,0.1l-0.1-0.2c0,0,0,0-0.1,0c0,0,0,0,0,0c0,0,0,0-0.1,0
					l-0.1,0.1L38,90C38,90,38,90,38,90L38,90z"/>
			</g>
		</g>
		<g>
			<g>
				<circle cx="45.1" cy="92.4" r="1"/>
			</g>
			<g>
				<path d="M45.1,90.8c0.9,0,1.6,0.7,1.6,1.6s-0.7,1.6-1.6,1.6c-0.9,0-1.6-0.7-1.6-1.6S44.2,90.8,45.1,90.8 M45.1,90.7
					c-0.9,0-1.7,0.7-1.7,1.7c0,0.9,0.7,1.7,1.7,1.7c0.9,0,1.7-0.7,1.7-1.7C46.8,91.4,46,90.7,45.1,90.7L45.1,90.7z"/>
			</g>
			<g>
				<path d="M45.1,90.1l0.2,0.2l0.2-0.2l0.1,0.3l0.2-0.2l0.1,0.3l0.3-0.1l0,0.3l0.3-0.1l0,0.3l0.3-0.1L46.7,91l0.3,0l-0.1,0.3l0.3,0
					L47,91.6l0.3,0.1l-0.2,0.2l0.3,0.1l-0.2,0.2l0.2,0.2l-0.2,0.2l0.2,0.2l-0.3,0.1l0.2,0.2L47,93.1l0.1,0.3l-0.3,0l0.1,0.3l-0.3,0
					l0.1,0.3l-0.3-0.1l0,0.3l-0.3-0.1l0,0.3l-0.3-0.1l-0.1,0.3l-0.2-0.2l-0.1,0.3l-0.2-0.2l-0.2,0.2l-0.2-0.2l-0.2,0.2l-0.1-0.3
					l-0.2,0.2l-0.1-0.3l-0.3,0.1l0-0.3l-0.3,0.1l0-0.3L43.5,94l0.1-0.3l-0.3,0l0.1-0.3l-0.3,0l0.1-0.3l-0.3-0.1l0.2-0.2l-0.3-0.1
					l0.2-0.2l-0.2-0.2l0.2-0.2L42.8,92l0.3-0.1l-0.2-0.2l0.3-0.1l-0.1-0.3l0.3,0L43.3,91l0.3,0l-0.1-0.3l0.3,0.1l0-0.3l0.3,0.1
					l0-0.3l0.3,0.1l0.1-0.3l0.2,0.2l0.1-0.3l0.2,0.2L45.1,90.1 M46.4,90.5L46.4,90.5 M46.7,90.7L46.7,90.7 M46.9,91L46.9,91
					 M45.1,90L45.1,90C45.1,90,45,90,45.1,90l-0.2,0.2l-0.1-0.1c0,0,0,0-0.1,0c0,0,0,0,0,0c0,0,0,0-0.1,0l-0.1,0.2l-0.1-0.1
					c0,0,0,0,0,0c0,0,0,0,0,0c0,0,0,0-0.1,0.1l-0.1,0.2l-0.2-0.1c0,0,0,0,0,0c0,0,0,0,0,0c0,0,0,0,0,0.1l0,0.2l-0.2-0.1c0,0,0,0,0,0
					c0,0,0,0,0,0c0,0,0,0,0,0.1l0,0.2l-0.2,0c0,0,0,0,0,0c0,0,0,0-0.1,0c0,0,0,0,0,0.1l0,0.2l-0.2,0c0,0,0,0,0,0c0,0,0,0-0.1,0
					c0,0,0,0,0,0.1l0.1,0.2l-0.2,0c0,0,0,0-0.1,0s0,0.1,0,0.1l0.1,0.2l-0.2,0.1c0,0,0,0-0.1,0.1c0,0,0,0.1,0,0.1l0.1,0.2l-0.2,0.1
					c0,0,0,0,0,0.1s0,0.1,0,0.1l0.1,0.1l-0.2,0.1c0,0,0,0,0,0.1c0,0,0,0.1,0,0.1l0.2,0.1l-0.1,0.1c0,0,0,0,0,0.1c0,0,0,0,0,0.1
					l0.2,0.1L42.9,93c0,0,0,0,0,0.1s0,0,0.1,0.1l0.2,0.1L43,93.4c0,0,0,0,0,0.1c0,0,0,0,0.1,0l0.2,0l-0.1,0.2c0,0,0,0.1,0,0.1
					c0,0,0,0,0.1,0c0,0,0,0,0,0l0.2,0l0,0.2c0,0,0,0.1,0,0.1c0,0,0,0,0.1,0c0,0,0,0,0,0l0.2,0l0,0.2c0,0,0,0.1,0,0.1c0,0,0,0,0,0
					c0,0,0,0,0,0l0.2-0.1l0,0.2c0,0,0,0,0,0.1c0,0,0,0,0,0c0,0,0,0,0,0l0.2-0.1l0.1,0.2c0,0,0,0,0.1,0.1c0,0,0,0,0,0c0,0,0,0,0,0
					l0.1-0.1l0.1,0.2c0,0,0,0,0.1,0c0,0,0,0,0,0c0,0,0,0,0.1,0l0.1-0.1l0.1,0.2c0,0,0,0,0.1,0h0c0,0,0.1,0,0.1,0l0.1-0.2l0.1,0.1
					c0,0,0,0,0.1,0c0,0,0,0,0,0c0,0,0,0,0.1,0l0.1-0.2l0.2,0.1c0,0,0,0,0,0c0,0,0,0,0,0c0,0,0,0,0.1-0.1l0.1-0.2l0.2,0.1
					c0,0,0,0,0,0c0,0,0,0,0,0c0,0,0,0,0-0.1l0-0.2l0.2,0.1c0,0,0,0,0,0c0,0,0,0,0,0c0,0,0,0,0-0.1l0-0.2l0.2,0c0,0,0,0,0,0
					c0,0,0,0,0.1,0c0,0,0,0,0-0.1l0-0.2l0.2,0c0,0,0,0,0,0c0,0,0,0,0.1,0c0,0,0,0,0-0.1l-0.1-0.2l0.2,0c0,0,0,0,0.1,0
					c0,0,0-0.1,0-0.1l-0.1-0.2l0.2-0.1c0,0,0,0,0.1-0.1c0,0,0-0.1,0-0.1l-0.1-0.2l0.2-0.1c0,0,0,0,0-0.1s0-0.1,0-0.1l-0.1-0.1
					l0.2-0.1c0,0,0,0,0-0.1c0,0,0-0.1,0-0.1l-0.2-0.1l0.1-0.1c0,0,0,0,0-0.1c0,0,0,0,0-0.1l-0.2-0.1l0.1-0.2c0,0,0,0,0-0.1
					c0,0,0,0-0.1-0.1l-0.2-0.1l0.1-0.2c0,0,0,0,0-0.1s0,0-0.1,0l-0.2,0l0.1-0.2c0,0,0,0,0,0c0,0,0-0.1-0.1-0.1h0h0c0,0,0,0,0,0l0,0
					h0c0,0,0,0,0,0l-0.2,0l0-0.2c0,0,0,0,0,0c0,0,0-0.1-0.1-0.1h0h0c0,0,0,0,0,0c0,0,0,0,0,0l-0.2,0l0-0.2c0,0,0,0,0,0
					c0,0,0-0.1-0.1-0.1h0h0c0,0,0,0,0,0l0,0h0c0,0,0,0,0,0l-0.2,0.1l0-0.2c0,0,0,0,0-0.1c0,0,0,0,0,0c0,0,0,0,0,0l-0.2,0.1l-0.1-0.2
					c0,0,0,0-0.1-0.1c0,0,0,0,0,0c0,0,0,0,0,0l-0.2,0.1l-0.1-0.2c0,0,0,0-0.1,0c0,0,0,0,0,0c0,0,0,0-0.1,0l-0.1,0.1L45.1,90
					C45.1,90,45.1,90,45.1,90L45.1,90z"/>
			</g>
		</g>
		<g>
			<g>
				<circle cx="52" cy="92.3" r="1"/>
			</g>
			<g>
				<path d="M51.9,90.7c0.9,0,1.6,0.7,1.6,1.6c0,0.9-0.7,1.6-1.6,1.6c-0.9,0-1.6-0.7-1.6-1.6C50.4,91.4,51.1,90.7,51.9,90.7
					 M51.9,90.6c-0.9,0-1.7,0.7-1.7,1.7c0,0.9,0.7,1.7,1.7,1.7c0.9,0,1.7-0.7,1.7-1.7C53.6,91.4,52.9,90.6,51.9,90.6L51.9,90.6z"/>
			</g>
			<g>
				<path d="M51.9,90l0.2,0.2l0.2-0.2l0.1,0.3l0.2-0.2l0.1,0.3l0.3-0.1l0,0.3l0.3-0.1l0,0.3l0.3-0.1L53.5,91l0.3,0l-0.1,0.3l0.3,0
					l-0.1,0.3l0.3,0.1l-0.2,0.2l0.3,0.1L54,92.1l0.2,0.2L54,92.4l0.2,0.2l-0.3,0.1l0.2,0.2l-0.3,0.1l0.1,0.3l-0.3,0l0.1,0.3l-0.3,0
					l0.1,0.3l-0.3-0.1l0,0.3L53,94l0,0.3l-0.3-0.1l-0.1,0.3l-0.2-0.2l-0.1,0.3l-0.2-0.2l-0.2,0.2l-0.2-0.2l-0.2,0.2l-0.1-0.3
					l-0.2,0.2l-0.1-0.3l-0.3,0.1l0-0.3l-0.3,0.1l0-0.3l-0.3,0.1l0.1-0.3l-0.3,0l0.1-0.3l-0.3,0l0.1-0.3L49.8,93l0.2-0.2l-0.3-0.1
					l0.2-0.2l-0.2-0.2l0.2-0.2l-0.2-0.2l0.3-0.1l-0.2-0.2l0.3-0.1l-0.1-0.3l0.3,0l-0.1-0.3l0.3,0l-0.1-0.3l0.3,0.1l0-0.3l0.3,0.1
					l0-0.3l0.3,0.1l0.1-0.3l0.2,0.2l0.1-0.3l0.2,0.2L51.9,90 M53.3,90.4L53.3,90.4 M53.6,90.7L53.6,90.7 M53.8,90.9L53.8,90.9
					 M51.9,89.9L51.9,89.9C51.9,89.9,51.9,89.9,51.9,89.9l-0.2,0.2L51.7,90c0,0,0,0-0.1,0c0,0,0,0,0,0c0,0,0,0-0.1,0l-0.1,0.2
					L51.3,90c0,0,0,0,0,0c0,0,0,0,0,0c0,0,0,0-0.1,0.1l-0.1,0.2L51,90.2c0,0,0,0,0,0c0,0,0,0,0,0c0,0,0,0,0,0.1l0,0.2l-0.2-0.1
					c0,0,0,0,0,0c0,0,0,0,0,0c0,0,0,0,0,0.1l0,0.2l-0.2,0c0,0,0,0,0,0c0,0,0,0-0.1,0c0,0,0,0,0,0.1l0,0.2l-0.2,0c0,0,0,0,0,0
					c0,0,0,0-0.1,0c0,0,0,0,0,0.1l0.1,0.2l-0.2,0c0,0,0,0-0.1,0s0,0.1,0,0.1l0.1,0.2l-0.2,0.1c0,0,0,0-0.1,0.1c0,0,0,0.1,0,0.1
					l0.1,0.1l-0.2,0.1c0,0,0,0,0,0.1c0,0,0,0.1,0,0.1l0.1,0.1l-0.2,0.1c0,0,0,0,0,0.1s0,0.1,0,0.1l0.2,0.1l-0.1,0.1c0,0,0,0,0,0.1
					c0,0,0,0,0,0.1l0.2,0.1l-0.1,0.2c0,0,0,0,0,0.1c0,0,0,0,0.1,0.1l0.2,0.1l-0.1,0.2c0,0,0,0,0,0.1c0,0,0,0,0.1,0l0.2,0L50,93.6
					c0,0,0,0.1,0,0.1c0,0,0,0,0.1,0c0,0,0,0,0,0l0.2,0l0,0.2c0,0,0,0.1,0,0.1c0,0,0,0,0.1,0c0,0,0,0,0,0l0.2,0l0,0.2
					c0,0,0,0.1,0,0.1c0,0,0,0,0,0c0,0,0,0,0,0l0.2-0.1l0,0.2c0,0,0,0,0,0.1c0,0,0,0,0,0c0,0,0,0,0,0l0.2-0.1l0.1,0.2
					c0,0,0,0,0.1,0.1c0,0,0,0,0,0c0,0,0,0,0,0l0.2-0.1l0.1,0.2c0,0,0,0,0.1,0c0,0,0,0,0,0c0,0,0,0,0.1,0l0.1-0.1l0.1,0.2
					c0,0,0,0,0.1,0c0,0,0.1,0,0.1,0l0.1-0.2l0.1,0.1c0,0,0,0,0.1,0c0,0,0,0,0,0c0,0,0,0,0.1,0l0.1-0.2l0.2,0.1c0,0,0,0,0,0
					c0,0,0,0,0,0c0,0,0,0,0.1-0.1l0.1-0.2l0.2,0.1c0,0,0,0,0,0c0,0,0,0,0,0c0,0,0,0,0-0.1l0-0.2l0.2,0.1c0,0,0,0,0,0c0,0,0,0,0,0
					c0,0,0,0,0-0.1l0-0.2l0.2,0c0,0,0,0,0,0c0,0,0,0,0.1,0c0,0,0,0,0-0.1l0-0.2l0.2,0c0,0,0,0,0,0c0,0,0,0,0.1,0c0,0,0,0,0-0.1
					l-0.1-0.2l0.2,0c0,0,0,0,0.1,0c0,0,0-0.1,0-0.1L54,93.1l0.2-0.1c0,0,0,0,0.1-0.1c0,0,0-0.1,0-0.1l-0.1-0.2l0.2-0.1
					c0,0,0,0,0-0.1c0,0,0-0.1,0-0.1l-0.1-0.1l0.2-0.1c0,0,0,0,0-0.1c0,0,0-0.1,0-0.1l-0.2-0.1l0.1-0.1c0,0,0,0,0-0.1c0,0,0,0,0-0.1
					l-0.2-0.1l0.1-0.2c0,0,0,0,0-0.1c0,0,0,0-0.1-0.1L54,91.4l0.1-0.2c0,0,0,0,0-0.1c0,0,0,0-0.1,0l-0.2,0l0.1-0.2c0,0,0,0,0,0
					c0,0,0-0.1-0.1-0.1h0h0c0,0,0,0,0,0l-0.2,0l0-0.2c0,0,0,0,0,0c0,0,0-0.1-0.1-0.1h0c0,0,0,0,0,0c0,0,0,0,0,0c0,0,0,0,0,0l-0.2,0
					l0-0.2c0,0,0,0,0,0c0,0,0-0.1-0.1-0.1h0h0c0,0,0,0,0,0l0,0h0c0,0,0,0,0,0l-0.2,0.1l0-0.2c0,0,0,0,0-0.1c0,0,0,0,0,0c0,0,0,0,0,0
					l-0.2,0.1l-0.1-0.2c0,0,0,0-0.1-0.1c0,0,0,0,0,0c0,0,0,0,0,0l-0.2,0.1L52.4,90c0,0,0,0-0.1,0c0,0,0,0,0,0c0,0,0,0-0.1,0
					l-0.1,0.1L51.9,89.9C52,89.9,52,89.9,51.9,89.9L51.9,89.9z"/>
			</g>
		</g>
		<g>
			<g>
				<path d="M60,91.1c0.9,0,1.6,0.7,1.6,1.6c0,0.9-0.7,1.6-1.6,1.6s-1.6-0.7-1.6-1.6C58.5,91.8,59.2,91.1,60,91.1 M60,91
					c-0.9,0-1.6,0.7-1.6,1.6c0,0.9,0.7,1.6,1.6,1.6s1.6-0.7,1.6-1.6C61.7,91.8,61,91,60,91L60,91z"/>
			</g>
			<circle cx="60" cy="92.7" r="0.9"/>
		</g>
		<g>
			<path d="M39.7,87.9l0.4,1.2h-0.3l-0.1-0.3h-0.4L39.3,89H39l0.4-1.2H39.7z M39.7,88.6l-0.1-0.4h0l-0.2,0.4H39.7z"/>
		</g>
		<g>
			<path d="M46.5,87.9c0.1,0,0.1,0,0.2,0c0,0,0.1,0,0.1,0c0,0,0.1,0.1,0.1,0.1c0,0,0,0.1,0,0.1c0,0.1,0,0.1,0,0.1
				c0,0-0.1,0.1-0.1,0.1c0.1,0,0.1,0.1,0.2,0.1c0,0.1,0.1,0.1,0.1,0.2c0,0.1,0,0.1,0,0.2c0,0-0.1,0.1-0.1,0.1c0,0-0.1,0-0.1,0.1
				c0,0-0.1,0-0.2,0H46v-1.2H46.5z M46.5,88.4c0,0,0.1,0,0.1,0c0,0,0-0.1,0-0.1c0,0,0,0,0-0.1c0,0,0,0,0,0c0,0,0,0-0.1,0
				c0,0,0,0-0.1,0h-0.2v0.3H46.5z M46.5,88.9C46.5,88.9,46.5,88.9,46.5,88.9c0.1,0,0.1,0,0.1,0c0,0,0,0,0,0c0,0,0,0,0-0.1
				c0-0.1,0-0.1-0.1-0.1c0,0-0.1,0-0.1,0h-0.3v0.3H46.5z"/>
		</g>
		<g>
			<path d="M53.8,88.2C53.8,88.2,53.7,88.2,53.8,88.2c-0.1-0.1-0.1-0.1-0.1-0.1c0,0-0.1,0-0.1,0c-0.1,0-0.1,0-0.1,0
				c0,0-0.1,0.1-0.1,0.1c0,0,0,0.1-0.1,0.1c0,0,0,0.1,0,0.1c0,0,0,0.1,0,0.1c0,0,0,0.1,0.1,0.1c0,0,0.1,0.1,0.1,0.1c0,0,0.1,0,0.1,0
				c0.1,0,0.1,0,0.2-0.1c0,0,0.1-0.1,0.1-0.2h0.2c0,0.1,0,0.1-0.1,0.2c0,0.1-0.1,0.1-0.1,0.2c0,0-0.1,0.1-0.2,0.1
				c-0.1,0-0.1,0-0.2,0c-0.1,0-0.2,0-0.2,0c-0.1,0-0.1-0.1-0.2-0.1c0-0.1-0.1-0.1-0.1-0.2c0-0.1,0-0.2,0-0.2c0-0.1,0-0.2,0-0.2
				c0-0.1,0.1-0.1,0.1-0.2c0-0.1,0.1-0.1,0.2-0.1c0.1,0,0.2,0,0.2,0c0.1,0,0.1,0,0.2,0c0.1,0,0.1,0,0.2,0.1c0,0,0.1,0.1,0.1,0.1
				c0,0.1,0,0.1,0.1,0.2L53.8,88.2C53.8,88.3,53.8,88.3,53.8,88.2z"/>
		</g>
		<g>
			<path d="M59.2,88.9V89h0c0,0,0.1-0.1,0.1-0.1c0,0,0.1,0,0.1,0c0.1,0,0.1,0,0.2,0c0,0,0.1,0.1,0.1,0.1c0,0,0.1,0.1,0.1,0.1
				c0,0.1,0,0.1,0,0.2c0,0.1,0,0.1,0,0.2c0,0.1,0,0.1-0.1,0.1c0,0-0.1,0.1-0.1,0.1c0,0-0.1,0-0.2,0c-0.1,0-0.1,0-0.1,0
				c0,0-0.1-0.1-0.1-0.1h0V90H59v-1.1H59.2z M59.5,89.5C59.5,89.5,59.5,89.5,59.5,89.5c0.1-0.1,0.1-0.1,0.1-0.1c0,0,0-0.1,0-0.1
				c0,0,0-0.1,0-0.1c0,0,0-0.1,0-0.1c0,0,0,0-0.1-0.1c0,0-0.1,0-0.1,0c0,0-0.1,0-0.1,0c0,0,0,0-0.1,0.1c0,0,0,0.1,0,0.1
				c0,0,0,0.1,0,0.1c0,0,0,0.1,0,0.1c0,0,0,0.1,0,0.1c0,0,0,0,0.1,0.1C59.3,89.6,59.4,89.6,59.5,89.5C59.4,89.6,59.5,89.6,59.5,89.5
				z"/>
			<path d="M60.7,89.7l-0.1-0.6h0l-0.1,0.6h-0.2l-0.3-0.8h0.2l0.2,0.6h0l0.1-0.6h0.2l0.1,0.6h0l0.2-0.6h0.2l-0.3,0.8H60.7z"/>
			<path d="M61.5,88.9V89h0C61.5,89,61.5,89,61.5,88.9c0.1,0.1,0.1,0,0.1,0c0,0,0,0,0.1,0c0,0,0.1,0,0.1,0c0,0,0,0,0.1,0v0.2
				c0,0,0,0,0,0c0,0,0,0,0,0c0,0-0.1,0-0.1,0c0,0-0.1,0-0.1,0.1c0,0,0,0.1,0,0.1c0,0,0,0.1,0,0.1v0.4h-0.2v-0.8H61.5z"/>
		</g>
		<path class="st25" d="M33.7,94.3c0,0-0.4-3.4-0.1-4.6c0.2-1.2,0.8-2.2,2-2.8c1.1-0.5,6.4-1,11.8-1c5.4,0,10.7,0.1,12,0.4
			c1.2,0.3,3.5,1.5,3.6,3.4c0.1,1.9,0,4.7,0,4.7"/>
		<path class="st25" d="M63.6,89.9c0,0,3.9-0.2,6.3-0.8c1.7-0.4,3.6-1.3,3.8-1.7"/>
		<path class="st25" d="M32.8,89.9c0,0-4.6-0.2-7.4-0.8c-2-0.4-4.2-1.3-4.5-1.7"/>
		<g>
			<path class="st3" d="M47.5,76c-2.4,0-11-0.6-13-1c-2.1-0.4-9.8-5.3-11.2-6.3c-1.4-0.9-3.1-2.3-3.4-2.6c-0.3-0.3-0.3-0.7-0.3-0.9
				c-0.3-0.2-0.9-0.6-1.1-1.6c-0.1-0.7-0.2-1.4-0.2-1.8c0-0.1,0-0.2,0-0.3c0-0.4,0-10,0.1-10.7l0-0.2c0-0.9,0-2.7,1.3-4.3
				c1.3-1.6,2.5-2.5,4.6-3.1c2.1-0.7,7.1-1.9,11.9-2.4c5.5-0.6,9.2-0.7,11.4-0.7c2.6,0,10.1,0.5,14.2,1.2c4.3,0.8,7.8,1.6,9.5,2.4
				c1.8,0.8,3.3,2.6,3.7,3.4c0.3,0.7,0.8,1.7,0.8,3.3c0,1.5,0.1,10.7,0,11.3c0,0.5-0.1,1.8-0.3,2.3c-0.2,0.6-0.5,0.9-0.9,1.1
				c0,0.3-0.1,0.8-0.5,1.1c-0.4,0.3-3.1,2.3-3.1,2.3c-0.3,0.3-8.5,6.2-12.2,6.6c-3.7,0.4-8.6,0.9-11.1,0.9L47.5,76z"/>
			<path d="M47.6,40.4c2.6,0,10.1,0.5,14.2,1.2c4.2,0.8,7.7,1.6,9.5,2.3c1.7,0.7,3.2,2.6,3.6,3.3c0.3,0.8,0.8,1.6,0.8,3.2
				c0,1.5,0.1,10.7,0,11.3c0,0.6-0.1,1.8-0.3,2.2c-0.1,0.4-0.4,0.9-0.9,1c0,0.2,0,0.8-0.4,1.1c-0.4,0.3-3.1,2.3-3.1,2.3
				s-8.4,6.2-12.1,6.6c-3.6,0.4-8.5,0.9-11.1,0.9c-0.1,0-0.2,0-0.3,0c-2.5,0-11-0.6-13-1c-2-0.4-9.7-5.3-11.1-6.3
				c-1.4-0.9-3-2.3-3.3-2.6c-0.3-0.3-0.3-0.6-0.2-0.9c-0.3-0.2-0.9-0.5-1.1-1.5c-0.2-1-0.2-1.8-0.2-2.1c0,0,0-9.9,0.1-10.7
				c0-0.7-0.1-2.7,1.2-4.4c1.3-1.7,2.6-2.4,4.4-3c2-0.6,6.9-1.8,11.8-2.4S45,40.4,47.6,40.4 M47.6,39.8c-2.1,0-5.9,0.1-11.4,0.7
				c-4.8,0.5-9.8,1.7-11.9,2.4c-2.1,0.7-3.4,1.5-4.7,3.2c-1.3,1.6-1.3,3.5-1.3,4.4l0,0.2c0,0.7-0.1,10.3-0.1,10.7l0,0l0,0
				c0,0.1,0,0.1,0,0.3c0,0.4,0,1.1,0.2,1.8c0.2,0.9,0.7,1.4,1,1.6c0,0.3,0.1,0.6,0.4,1c0.4,0.4,2.1,1.8,3.4,2.7
				c0.9,0.6,9,5.9,11.3,6.4c2.1,0.4,10.7,1,13.1,1l0.3,0c2.6,0,7.4-0.4,11.1-0.9c3.8-0.4,12-6.4,12.3-6.7c0,0,2.6-2,3.1-2.3
				c0.5-0.3,0.6-0.8,0.6-1.1c0.4-0.2,0.7-0.6,0.9-1.2c0.2-0.5,0.3-2,0.3-2.4c0-0.6,0-9.8,0-11.3c0-1.7-0.5-2.7-0.8-3.4
				c-0.4-0.8-2-2.8-3.9-3.6c-1.7-0.7-5.2-1.6-9.6-2.4C57.7,40.3,50.2,39.8,47.6,39.8L47.6,39.8z"/>
		</g>
		<path class="st26" d="M34.4,73.4c0,0,0.3,6.7,0.1,9c-0.4,0.2-1.6,0.6-2.7,0.8c-1.1,0.2-3.2,0.4-4,0.2c0.1-2.8-0.7-6.4-1.4-9.2
			c-0.7-2.8-2.8-6.8-2.8-6.8"/>
		<path class="st26" d="M71.4,67.2c0,0-1.3,2.5-1.7,3.8c-0.4,1.3-1.5,4.5-1.8,6.6c-0.3,2.1-0.5,5.6-0.5,5.6s-5.4,0.2-7.1-0.9
			c-0.1-0.9-0.2-2.6-0.2-4.3c0-1.4,0-4.3,0-4.3"/>
		<path class="st25" d="M23.8,67.2c0,0,7.7,4.5,9,5.3c1.3,0.7,1.8,1.2,2.8,1.3c1,0.1,5.5,0.7,11.1,0.5c5.6-0.1,10.8-0.5,12.1-0.6
			c1.3-0.1,2.1-0.6,3.6-1.4c1.5-0.7,8.1-4.5,8.8-5.1"/>
		<path class="st25" d="M39.9,41c0,0-3.9,0.3-7.7,0.9c-3.8,0.7-7,1.5-8.1,2.9c-0.6,0.7-2.3,2.4-2.5,5.4c0,0-0.2,6.5-0.2,7.8
			c0,1.3-0.1,3.4-0.1,3.9c0,0.5,0.3,1.8,0.6,2.7c0.4,0.9,0.7,1.1,1.2,1.3c-0.1-0.6-0.3-1.1-0.4-1.8c-0.1-0.6-0.1-5.8-0.1-5.8
			s0.1-7.5,0.2-8.1c0.1-0.6,0.3-2.7,1.4-3.7c1.1-1,3-2.4,6.5-3.3C34.2,42.3,39.9,41,39.9,41z"/>
		<path class="st25" d="M55.6,41c0,0,4.3,0.4,6.8,0.9c2.5,0.5,6.6,1,8.3,2.5c1.7,1.5,3.1,2.9,3.3,5.2c0.2,2.3,0.1,7.1,0.2,9.7
			c0,2.6-0.1,4.1-0.2,4.5c-0.1,0.4-0.7,1.5-0.9,1.7c-0.2,0.2-0.6,0.1-0.6,0.1s0.6-1.1,0.7-3.1c0.1-2-0.1-10.5-0.1-11.8
			c0-1.3-1-3.7-2.1-4.7c-1.1-1-5-2.5-6.7-2.9C62.4,42.5,57,41.1,55.6,41z"/>
		<path class="st25" d="M75.5,62c0,0-1.4,0.6-1.6,0.7c-0.2,0.1-0.5,0.1-1,0c-0.6,0.1-2.3,0.4-4.8,0.6c-2.6,0.3-14.8,0.8-21.4,0.8
			c-6.6,0-20.7-0.6-24-1.2c0,0-0.9,0-1.3-0.3c-0.5,0-2-0.4-2.5-0.8"/>
		<path class="st5" d="M19.9,65c0,0,1.8,0.7,5.9,1.1c4,0.4,17.1,1,21.7,1c4.5,0,15-0.4,18.2-0.7c3.1-0.3,7.4-0.7,8.7-1.5"/>
		<path class="st25" d="M20.7,66.2c0,0,2.3,0.9,5.6,1.2c4,0.4,13.7,1.2,22,1.2c8.3,0,16.4-0.9,19.3-1.3c2.9-0.4,4.9-0.7,5.8-1"/>
		<polygon points="48,42.6 47.5,43.1 47.7,44.4 48.3,44.7 48.8,44.4 48.6,43 		"/>
		<polygon points="48.3,41.4 51.4,43.2 50.8,43.5 48.5,42.1 		"/>
		<path d="M48,40.7l0.1,0.3c0,0,1,0.3,2,0.8c1,0.5,2.1,1.2,2.1,1.2l0.7-0.3c0,0-1.4-0.9-2.4-1.3C49.5,41.1,48,40.7,48,40.7z"/>
		<path d="M50,40.7c0,0,1.3,0.1,1.7,0.2c0.4,0.1,2.2,0.8,2.9,1.2c0.8,0.4,1.2,0.7,1.2,0.7l-1.2-0.1C54.7,42.7,52.3,41.2,50,40.7z"/>
		<path d="M54.1,41.4c0,0,2.1,0.6,2.2,0.7c0.1,0,1.9,1,2.2,1.2c0,0-0.8-0.1-1.1-0.1C57,42.9,54.9,41.6,54.1,41.4z"/>
		<path d="M54.9,41.3c0,0,6.7,1.3,7.3,1.6c0.2,0.2,0.1,0.3,0.1,0.3S55.6,41.4,54.9,41.3z"/>
		<path class="st25" d="M51.6,40.7c0,0,3.1,0.3,5.5,0.8c2.4,0.5,4.7,1.1,4.7,1.1"/>
		<polygon points="47.2,41.3 44.1,43.2 44.8,43.4 47.1,42 		"/>
		<path d="M47.5,40.6l-0.1,0.3c0,0-1,0.3-2,0.9c-1,0.5-2,1.2-2,1.2l-0.7-0.2c0,0,1.4-0.9,2.3-1.3C46,41,47.5,40.6,47.5,40.6z"/>
		<path d="M45.6,40.7c0,0-1.3,0.1-1.7,0.3c-0.4,0.1-2.2,0.8-2.9,1.2c-0.7,0.5-1.2,0.7-1.2,0.7l1.2-0.1
			C40.9,42.7,43.3,41.2,45.6,40.7z"/>
		<path d="M41.5,41.3c0,0-2.1,0.7-2.2,0.7c-0.1,0-1.9,1-2.2,1.3c0,0,0.8-0.1,1.1-0.1C38.6,42.9,40.6,41.6,41.5,41.3z"/>
		<path d="M40.7,41.3c0,0-6.7,1.4-7.3,1.6c-0.2,0.2-0.1,0.3-0.1,0.3S39.9,41.5,40.7,41.3z"/>
		<path class="st25" d="M44,40.7c0,0-3.1,0.3-5.5,0.8c-2.4,0.5-4.7,1.1-4.7,1.1"/>
		<path class="st25" d="M26.1,47.5c0,0,10.6,0.8,22.5,0.8c11.9,0,20.6-0.9,20.6-0.9"/>
		<path class="st25" d="M39.3,80.6c0,0,2.4,1,7.6,1c5.1,0,7.8-1,7.8-1"/>
	</g>
	<g>
	</g>
	<g>
	</g>
	<g>
	</g>
	<g>
	</g>
	<g>
	</g>
	<g>
	</g>
</g>
</svg>
