<?xml version="1.0" encoding="utf-8"?>
<!-- Generator: Adobe Illustrator 20.0.0, SVG Export Plug-In . SVG Version: 6.00 Build 0)  -->
<svg version="1.1" xmlns="http://www.w3.org/2000/svg" xmlns:xlink="http://www.w3.org/1999/xlink" x="0px" y="0px"
	 viewBox="0 0 457.6 464" style="enable-background:new 0 0 457.6 464;" xml:space="preserve">
<style type="text/css">
	.st0{fill:none;stroke:#9D9FA2;stroke-width:6.7372;}
	.st1{fill:#FFFFFF;stroke:#000000;stroke-width:1.0747;}
	.st2{fill:#EF4423;}
	.st3{fill:#FFFFFF;}
	.st4{fill:none;stroke:#000000;stroke-width:1.6394;}
	.st5{fill:none;stroke:#000000;stroke-width:1.1229;stroke-linecap:round;}
	.st6{fill:#FFFFFF;stroke:#000000;stroke-width:1.4575;}
	.st7{stroke:#000000;stroke-width:1.4575;}
	.st8{fill:#FFFFFF;stroke:#000000;stroke-width:1.1229;}
	.st9{fill:#FFFFFF;stroke:#000000;stroke-width:0.4466;stroke-linecap:round;stroke-linejoin:round;stroke-miterlimit:1;}
	.st10{fill:#D1D3D4;}
	.st11{fill:none;stroke:#000000;stroke-width:0.7735;stroke-linecap:round;stroke-linejoin:round;stroke-miterlimit:1;}
	.st12{fill:none;stroke:#000000;stroke-width:0.5185;stroke-linecap:round;}
	.st13{fill:#FFFFFF;stroke:#000000;stroke-width:1.1229;stroke-linecap:round;}
</style>
<g id="DVD_x2F_VCR">
	<g id="cable_copy">
	</g>
	<g id="projector_copy">
	</g>
	<g id="Astronaut_copy">
	</g>
	<g id="Text_copy">
	</g>
	<g id="Layer_13">
	</g>
	<g id="Layer_14">
		<g id="Layer_15">
		</g>
		<path class="st0" d="M309,330.2c44,0,136.1,0,136.1,0s9,1.4,9-9c0-10.4,0-273.4,0-283.8c0-10.4-9-9-9-9s-191,0-235,0"/>
	</g>
	<g id="Layer_16">
	</g>
	<g id="Layer_17">
	</g>
	<g>
		<g>
			<g>
				<g>
					<polyline class="st1" points="144.7,26.2 143.1,27 137.4,26.4 136.3,27.4 136.3,30.6 137.4,31.6 143.1,31 144.7,31.7 					"/>
					<rect x="153.3" y="26.2" class="st1" width="15.2" height="5.5"/>
					<polygon class="st1" points="169.1,34 169,23.8 167.5,23.8 167.5,34 					"/>
					<rect x="147.7" y="26.2" class="st1" width="4.2" height="5.5"/>
					<rect x="144.7" y="26.2" class="st1" width="1.6" height="5.5"/>
					<rect x="146.2" y="26.6" class="st1" width="1.4" height="4.7"/>
					<polygon class="st1" points="151.9,31.3 151.9,26.6 153.2,26.6 153.3,31.3 					"/>
					<polyline class="st1" points="137.4,26.4 136.3,27.4 136.3,30.6 137.4,31.6 					"/>
					<g>
						<polygon class="st1" points="214,26 214,31.6 189.9,34.3 189.9,22.9 						"/>
						<polygon class="st1" points="189.9,22.6 193.6,22.6 193.6,27.3 195.2,27.3 195.2,22.7 198.7,23 198.7,27.3 200.6,27.3 
							200.6,23.1 203.5,23.3 203.5,27.3 205.2,27.3 205.2,23.5 208.7,23.7 208.6,27.3 210.2,27.3 210.2,23.9 214,24.2 214,33.1 
							210.1,33.4 210.2,30.2 208.6,30.2 208.6,33.5 205.2,33.8 205.2,30.2 203.5,30.2 203.5,33.9 200.6,34.1 200.6,30.2 198.7,30.2 
							198.7,34.3 195.2,34.6 195.2,30.2 193.6,30.2 193.5,34.7 189.9,34.7 						"/>
					</g>
					<polygon class="st1" points="189.9,35.3 168.9,35.3 168.9,22 189.9,22 					"/>
				</g>
			</g>
		</g>
	</g>
	<g>
		<path class="st2" d="M411.7,67.2c-2.3,0-4.3-1.9-4.3-4.3c0-1.5,0.8-2.9,2.1-3.7V24h4.3v35.2c1.3,0.8,2.1,2.1,2.1,3.7
			C415.9,65.3,414,67.2,411.7,67.2z"/>
		<path class="st3" d="M412.7,25.1v34.8c1.2,0.4,2.1,1.6,2.1,3c0,1.8-1.4,3.2-3.2,3.2c-1.8,0-3.2-1.4-3.2-3.2c0-1.4,0.9-2.5,2.1-3
			V25.1H412.7 M414.9,23h-2.1h-2.1h-2.1v2.1v33.6c-1.3,1-2.1,2.5-2.1,4.2c0,2.9,2.4,5.3,5.3,5.3s5.3-2.4,5.3-5.3
			c0-1.7-0.8-3.2-2.1-4.2V25.1V23L414.9,23z"/>
	</g>
	<path class="st4" d="M9.9,0.8c-5,0-9,4-9,9V64c0,5,4,9,9,9h44.9l8.8,9l8.6-9h44.2c5,0,9-4,9-9V9.8c0-5-4-9-9-9H9.9z"/>
	<g>
		<path d="M311.1,57c-0.7-0.4-1.5-0.6-2.4-0.6c-1.3,0-2.2,0.9-2.2,2.1c0,0.9,0.4,1.5,2.4,2.6c2.2,1.3,2.9,2.5,2.9,4.1
			c0,2.2-1.4,4-4.1,4c-1.1,0-2.2-0.2-3-0.6v-1.8c0.8,0.5,1.9,0.9,2.7,0.9c1.6,0,2.5-1.1,2.5-2.2c0-1.1-0.3-1.7-2.2-2.9
			c-2.5-1.5-3.1-2.4-3.1-4.2c0-2.3,1.8-3.5,3.9-3.5c0.9,0,1.9,0.2,2.5,0.5V57z"/>
		<path d="M318.5,68.9c-0.4,0.1-1,0.3-1.4,0.3c-1.6,0-2.4-0.6-2.4-2.4v-6.6H313v-1.4h1.6v-2.1l1.7-0.5v2.6h2.1v1.4h-2.1v6.1
			c0,1.2,0.3,1.6,1.1,1.6c0.4,0,0.7-0.1,1.1-0.3V68.9z"/>
		<path d="M321.2,64.4c0,2.4,0.9,3.5,2.8,3.5c0.8,0,1.8-0.4,2.4-0.8l0.1,1.5c-0.8,0.4-1.9,0.6-2.9,0.6c-2.7,0-4.1-2.1-4.1-5.3
			c0-3.2,1.4-5.3,4-5.3c2.3,0,3.6,1.9,3.6,4.9v0.9H321.2z M325.3,63.1c0-2.1-0.7-3.2-2-3.2c-1.1,0-2.1,0.8-2.1,3.2H325.3z"/>
		<path d="M328.9,60.9c0-0.7-0.1-1.5-0.1-2.2h1.6l0.1,1.6h0c0.5-1.3,1.4-1.8,2.9-1.8v1.7c-0.2,0-0.4-0.1-0.6-0.1
			c-1.3,0-2.2,1.1-2.2,3.4V69h-1.7V60.9z"/>
		<path d="M336.1,64.4c0,2.4,0.9,3.5,2.8,3.5c0.8,0,1.8-0.4,2.4-0.8l0.1,1.5c-0.8,0.4-1.9,0.6-2.9,0.6c-2.7,0-4.1-2.1-4.1-5.3
			c0-3.2,1.4-5.3,4-5.3c2.3,0,3.6,1.9,3.6,4.9v0.9H336.1z M340.3,63.1c0-2.1-0.7-3.2-2-3.2c-1.1,0-2.1,0.8-2.1,3.2H340.3z"/>
		<path d="M347.5,58.6c2.7,0,4.1,2.1,4.1,5.3c0,3.2-1.4,5.3-4.1,5.3c-2.7,0-4.1-2.1-4.1-5.3C343.3,60.6,344.8,58.6,347.5,58.6z
			 M347.5,67.8c1.6,0,2.4-1.3,2.4-3.9c0-2.6-0.7-3.9-2.4-3.9c-1.6,0-2.4,1.3-2.4,3.9C345.1,66.5,345.9,67.8,347.5,67.8z"/>
		<path d="M367.1,68.8c-0.8,0.3-1.7,0.4-2.6,0.4c-4.5,0-6.3-3.4-6.3-7.2c0-4.4,2.6-7.2,6.2-7.2c1,0,2,0.2,2.7,0.5V57
			c-0.8-0.5-1.7-0.7-2.6-0.7c-2.3,0-4.4,1.8-4.4,5.3c0,3.6,1.5,6,4.5,6c0.9,0,1.8-0.2,2.5-0.7V68.8z"/>
		<path d="M369.7,59.4c0.8-0.5,1.9-0.8,2.9-0.8c1.5,0,2.4,0.6,2.8,1c0.4,0.4,0.9,1.1,0.9,2.5v5.4c0,0.6,0,1.2,0.1,1.6h-1.5l-0.1-1.4
			h0c-0.5,0.8-1.3,1.5-2.9,1.5c-1.7,0-3-1-3-3c0-2,1.3-3.5,4.9-3.5h1v-0.5c0-0.8-0.1-1.2-0.4-1.7c-0.3-0.5-1-0.6-1.7-0.6
			c-1.1,0-2.1,0.4-2.6,1.1L369.7,59.4z M374.6,64c-0.3,0-0.7,0-1.2,0c-2,0-3,1-3,2.1c0,1.1,0.6,1.8,1.7,1.8c1.5,0,2.4-1.2,2.4-2.6
			V64z"/>
		<path d="M378.5,53.9h1.7v6.3h0c0.7-1.1,1.5-1.6,2.6-1.6c2.1,0,3.6,1.7,3.6,5.3c0,3.6-1.4,5.3-3.6,5.3c-1.5,0-2.3-0.8-2.7-1.7h0
			L380,69h-1.6c0-0.6,0.1-1.3,0.1-1.9V53.9z M382.4,67.8c1.6,0,2.3-1.3,2.3-3.9c0-2.6-0.7-3.9-2.3-3.9s-2.3,1.3-2.3,3.9
			C380.2,66.5,380.9,67.8,382.4,67.8z"/>
		<path d="M388.5,53.9h1.7V69h-1.7V53.9z"/>
		<path d="M394.1,64.4c0,2.4,0.9,3.5,2.8,3.5c0.8,0,1.8-0.4,2.4-0.8l0.1,1.5c-0.8,0.4-1.9,0.6-2.9,0.6c-2.7,0-4.1-2.1-4.1-5.3
			c0-3.2,1.4-5.3,4-5.3c2.3,0,3.6,1.9,3.6,4.9v0.9H394.1z M398.3,63.1c0-2.1-0.7-3.2-2-3.2c-1.1,0-2.1,0.8-2.1,3.2H398.3z"/>
	</g>
	<g>
		<polygon class="st2" points="84,28.6 103.8,20.3 101.5,25.8 134.1,25.8 134.1,31.5 101.5,31.5 103.8,37 		"/>
		<path class="st3" d="M103.1,21l-2.2,5.1h32.8v4.9h-32.8l2.2,5.1l-18-7.6L103.1,21 M104.6,19.5l-1.9,0.8l-18,7.6l-1.8,0.8l1.8,0.8
			l18,7.6l1.9,0.8l-0.8-1.9l-1.7-4h31.5h0.8v-0.8v-4.9v-0.8h-0.8h-31.5l1.7-4L104.6,19.5L104.6,19.5z"/>
	</g>
	<g>
		<path class="st3" d="M304.6,34.3c0,0-2-2.3,0-5.2c2-2.9,0-6.1,0-6.1h-5.1c0,0,2,3.2,0,6.1c-2,2.9,0,5.2,0,5.2H304.6z"/>
		<path class="st5" d="M304.6,23c0,0,2,3.2,0,6.1c-2,2.9,0,5.2,0,5.2"/>
		<path class="st5" d="M299.5,23c0,0,2,3.2,0,6.1c-2,2.9,0,5.2,0,5.2"/>
	</g>
	<g>
		<path d="M10.3,48.9h1.8V63h-1.8V48.9z"/>
		<path d="M14.9,54.9c0-0.7-0.1-1.5-0.1-2.2h1.6l0.1,1.5h0c0.5-1.2,1.4-1.7,2.6-1.7c1.8,0,3,1,3,3.3V63h-1.7v-6.7
			c0-1.6-0.6-2.3-1.7-2.3c-1.3,0-2.2,0.9-2.2,2.8V63h-1.7V54.9z"/>
		<path d="M24.5,54.6c0-0.6-0.1-1.3-0.1-1.9H26l0.1,1.5h0c0.4-0.8,1.2-1.7,2.7-1.7c2.1,0,3.6,1.7,3.6,5.3c0,3.6-1.4,5.3-3.6,5.3
			c-1.2,0-1.9-0.5-2.6-1.6h0v5.8h-1.7V54.6z M28.4,61.8c1.6,0,2.3-1.3,2.3-3.9s-0.7-3.9-2.3-3.9s-2.3,1.3-2.3,3.9
			S26.9,61.8,28.4,61.8z"/>
		<path d="M41.6,60.8c0,0.7,0.1,1.5,0.1,2.2h-1.6L40,61.5h0c-0.5,1.2-1.4,1.7-2.6,1.7c-1.8,0-3-1-3-3.3v-7.2h1.7v6.7
			c0,1.6,0.6,2.3,1.7,2.3c1.3,0,2.2-0.9,2.2-2.8v-6.2h1.7V60.8z"/>
		<path d="M48.6,62.9c-0.4,0.1-1,0.3-1.4,0.3c-1.6,0-2.4-0.6-2.4-2.4v-6.6h-1.6v-1.4h1.6v-2.1l1.7-0.5v2.6h2.1v1.4h-2.1v6.1
			c0,1.2,0.3,1.6,1.1,1.6c0.4,0,0.7-0.1,1.1-0.3V62.9z"/>
		<path d="M59.4,48.9L64,63h-1.9L61,59.3h-5.4L54.5,63h-1.8l4.7-14.1H59.4z M60.6,57.8l-2.2-7h0l-2.2,7H60.6z"/>
		<path d="M65.7,60.7h1.9l-1.3,4.7h-1.5L65.7,60.7z"/>
		<path d="M70.6,48.9h3.6c2.7,0,3.9,1.5,3.9,3.6c0,1.5-0.9,2.7-2.3,3.1v0c1.5,0.2,2.6,1.5,2.6,3.5c0,2-1.3,3.9-4.4,3.9h-3.4V48.9z
			 M72.4,55h1.1c2,0,2.9-0.9,2.9-2.4c0-1.2-0.7-2.2-2.6-2.2h-1.4V55z M72.4,61.5h1.5c1.9,0,2.7-1.2,2.7-2.5c0-1.5-0.8-2.6-2.5-2.6
			h-1.7V61.5z"/>
		<path d="M80,60.7h1.9l-1.3,4.7h-1.5L80,60.7z"/>
		<path d="M92.2,52.5c2.7,0,4.1,2.1,4.1,5.3s-1.4,5.3-4.1,5.3c-2.7,0-4.1-2.1-4.1-5.3S89.5,52.5,92.2,52.5z M92.2,61.8
			c1.6,0,2.4-1.3,2.4-3.9s-0.7-3.9-2.4-3.9c-1.6,0-2.4,1.3-2.4,3.9S90.6,61.8,92.2,61.8z"/>
		<path d="M98.3,54.9c0-0.7-0.1-1.5-0.1-2.2h1.6l0.1,1.6h0c0.5-1.3,1.4-1.8,2.9-1.8v1.7c-0.2,0-0.4-0.1-0.6-0.1
			c-1.3,0-2.2,1.1-2.2,3.4V63h-1.7V54.9z"/>
		<path d="M117.8,62.7c-0.8,0.3-1.7,0.4-2.6,0.4c-4.5,0-6.3-3.4-6.3-7.2c0-4.4,2.6-7.2,6.2-7.2c1,0,2,0.2,2.7,0.5V51
			c-0.8-0.5-1.7-0.7-2.6-0.7c-2.3,0-4.4,1.8-4.4,5.3c0,3.6,1.5,6,4.5,6c0.9,0,1.8-0.2,2.5-0.7V62.7z"/>
	</g>
	<g>
		<path class="st6" d="M46.9,26.6c0,8.5,6.8,15.3,15.3,15.3c8.4,0,15.3-6.8,15.3-15.3c0-8.4-6.9-15.3-15.3-15.3
			C53.7,11.3,46.9,18.2,46.9,26.6z"/>
		<path class="st7" d="M52.6,26.6c0,5.3,4.3,9.6,9.6,9.6c5.3,0,9.6-4.3,9.6-9.6c0-5.3-4.3-9.6-9.6-9.6
			C56.9,17.1,52.6,21.3,52.6,26.6z"/>
	</g>
	<g>
		<g>
			<g>
				<g>
					<polyline class="st1" points="243.5,328 241.9,328.8 236.2,328.2 235.1,329.2 235.1,332.4 236.2,333.4 241.9,332.8 
						243.5,333.6 					"/>
					<rect x="252.1" y="328" class="st1" width="12.9" height="5.5"/>
					<polygon class="st1" points="265.6,335.8 265.6,325.6 264,325.6 264,335.8 					"/>
					<rect x="246.5" y="328" class="st1" width="4.2" height="5.5"/>
					<rect x="243.5" y="328" class="st1" width="1.6" height="5.5"/>
					<rect x="245" y="328.4" class="st1" width="1.4" height="4.7"/>
					<polygon class="st1" points="250.7,333.1 250.7,328.4 252.1,328.4 252.1,333.1 					"/>
					<polyline class="st1" points="236.2,328.2 235.1,329.2 235.1,332.4 236.2,333.4 					"/>
					<g>
						<polygon class="st1" points="308.4,327.8 308.3,333.4 284.2,336.1 284.2,324.7 						"/>
						<polygon class="st1" points="284.2,324.4 287.9,324.4 287.9,329.1 289.5,329.1 289.5,324.5 293.1,324.8 293,329.1 
							294.9,329.1 294.9,324.9 297.9,325.2 297.9,329.1 299.6,329.1 299.6,325.3 303,325.6 303,329.1 304.5,329.1 304.5,325.7 
							308.4,326 308.3,334.9 304.5,335.2 304.5,332 302.9,332 302.9,335.3 299.6,335.6 299.6,332 297.9,332 297.9,335.7 294.9,336 
							294.9,332 293,332 293,336.1 289.5,336.4 289.5,332 287.9,332 287.9,336.5 284.2,336.5 						"/>
					</g>
					<polygon class="st1" points="284.2,337.1 265.5,337.1 265.5,323.8 284.2,323.8 					"/>
				</g>
			</g>
		</g>
	</g>
	<path class="st4" d="M204.7,307.8c0-5-4-9-9-9h-71c-5,0-9,4-9,9v20.2l-9,8.8l9,8.6v19.5c0,5,4,9,9,9h71c5,0,9-4,9-9V307.8z"/>
	<g>
		<path d="M21.6,451.8c-0.7-0.4-1.5-0.6-2.4-0.6c-1.3,0-2.2,0.9-2.2,2.1c0,0.9,0.4,1.5,2.4,2.6c2.2,1.3,2.9,2.5,2.9,4.1
			c0,2.2-1.4,4-4.1,4c-1.1,0-2.2-0.2-3-0.6v-1.8c0.8,0.5,1.9,0.9,2.7,0.9c1.6,0,2.5-1.1,2.5-2.2c0-1.1-0.3-1.7-2.2-2.9
			c-2.5-1.5-3.1-2.4-3.1-4.2c0-2.3,1.8-3.5,3.9-3.5c0.9,0,1.9,0.2,2.5,0.5V451.8z"/>
		<path d="M24.4,455.7c0-0.7-0.1-1.5-0.1-2.2h1.6l0.1,1.5h0c0.5-1.2,1.4-1.7,2.5-1.7c1.1,0,1.9,0.6,2.4,1.6c0.5-1,1.3-1.6,2.5-1.6
			c1.8,0,3,1,3,3.3v7.2h-1.7v-7.1c0-1.3-0.6-1.9-1.6-1.9c-1.3,0-1.9,0.8-1.9,2.6v6.4h-1.7v-7.1c0-1.3-0.6-1.9-1.6-1.9
			c-1.3,0-1.9,0.8-1.9,2.6v6.4h-1.7V455.7z"/>
		<path d="M39.4,454.2c0.8-0.5,1.9-0.8,2.9-0.8c1.5,0,2.4,0.6,2.8,1c0.4,0.4,0.9,1.1,0.9,2.5v5.4c0,0.6,0,1.2,0.1,1.6h-1.5l-0.1-1.4
			h0c-0.5,0.8-1.3,1.5-2.9,1.5c-1.7,0-3-1-3-3c0-2,1.3-3.5,4.9-3.5h1v-0.5c0-0.8-0.1-1.2-0.4-1.7c-0.3-0.5-1-0.6-1.7-0.6
			c-1.1,0-2.1,0.4-2.6,1.1L39.4,454.2z M44.3,458.8c-0.3,0-0.7,0-1.2,0c-2,0-3,1-3,2.1c0,1.1,0.6,1.8,1.7,1.8c1.5,0,2.4-1.2,2.4-2.6
			V458.8z"/>
		<path d="M48.3,455.7c0-0.7-0.1-1.5-0.1-2.2h1.6l0.1,1.6h0c0.5-1.3,1.4-1.8,2.9-1.8v1.7c-0.2,0-0.4-0.1-0.6-0.1
			c-1.3,0-2.2,1.1-2.2,3.4v5.5h-1.7V455.7z"/>
		<path d="M58.9,463.7c-0.4,0.1-1,0.3-1.4,0.3c-1.6,0-2.4-0.6-2.4-2.4v-6.6h-1.6v-1.4H55v-2.1l1.7-0.5v2.6h2.1v1.4h-2.1v6.1
			c0,1.2,0.3,1.6,1.1,1.6c0.4,0,0.7-0.1,1.1-0.3V463.7z"/>
		<path d="M65.5,449.7h3.4c1.4,0,2.3,0.4,3.1,1.1c0.7,0.7,1.1,1.7,1.1,2.9c0,2.8-1.6,4.2-4.6,4.2h-1.2v5.9h-1.8V449.7z M67.3,456.5
			h1c2.2,0,3-1,3-2.6c0-1.9-1.1-2.7-2.9-2.7h-1V456.5z"/>
		<path d="M74.9,448.7h1.7v6.3h0c0.4-0.9,1.3-1.6,2.5-1.6c1.8,0,3,1,3,3.3v7.2h-1.7v-6.7c0-1.6-0.6-2.3-1.7-2.3
			c-1.3,0-2.2,0.9-2.2,2.8v6.2h-1.7V448.7z"/>
		<path d="M88.3,453.4c2.7,0,4.1,2.1,4.1,5.3c0,3.2-1.4,5.3-4.1,5.3c-2.7,0-4.1-2.1-4.1-5.3C84.1,455.4,85.5,453.4,88.3,453.4z
			 M88.3,462.6c1.6,0,2.4-1.3,2.4-3.9s-0.7-3.9-2.4-3.9c-1.6,0-2.4,1.3-2.4,3.9S86.6,462.6,88.3,462.6z"/>
		<path d="M94.4,455.7c0-0.7-0.1-1.5-0.1-2.2h1.6l0.1,1.5h0c0.5-1.2,1.4-1.7,2.6-1.7c1.8,0,3,1,3,3.3v7.2h-1.7v-6.7
			c0-1.6-0.6-2.3-1.7-2.3c-1.3,0-2.2,0.9-2.2,2.8v6.2h-1.7V455.7z"/>
		<path d="M105.4,459.2c0,2.4,0.9,3.5,2.8,3.5c0.8,0,1.8-0.4,2.4-0.8l0.1,1.5c-0.8,0.4-1.9,0.6-2.9,0.6c-2.7,0-4.1-2.1-4.1-5.3
			c0-3.2,1.4-5.3,4-5.3c2.3,0,3.6,1.9,3.6,4.9v0.9H105.4z M109.5,457.9c0-2.1-0.7-3.2-2-3.2c-1.1,0-2.1,0.8-2.1,3.2H109.5z"/>
	</g>
	<g>
		<path d="M127.5,352.7l4.6,14.1h-1.9l-1.1-3.7h-5.4l-1.1,3.7h-1.8l4.7-14.1H127.5z M128.7,361.6l-2.2-7h0l-2.2,7H128.7z"/>
		<path d="M140.8,364.6c0,0.7,0.1,1.5,0.1,2.2h-1.6l-0.1-1.5h0c-0.5,1.2-1.4,1.7-2.6,1.7c-1.8,0-3-1-3-3.3v-7.2h1.7v6.7
			c0,1.6,0.6,2.3,1.7,2.3c1.3,0,2.2-0.9,2.2-2.8v-6.2h1.7V364.6z"/>
		<path d="M150.7,364.9c0,0.6,0.1,1.3,0.1,1.9h-1.6l-0.1-1.5h0c-0.4,0.8-1.2,1.7-2.7,1.7c-2.1,0-3.6-1.7-3.6-5.3
			c0-3.6,1.4-5.3,3.6-5.3c1.2,0,1.9,0.5,2.6,1.6h0v-6.3h1.7V364.9z M146.7,357.8c-1.6,0-2.3,1.3-2.3,3.9s0.7,3.9,2.3,3.9
			s2.3-1.3,2.3-3.9S148.3,357.8,146.7,357.8z"/>
		<path d="M154.9,352.3v2H153v-2H154.9z M153.1,356.5h1.7v10.3h-1.7V356.5z"/>
		<path d="M161.1,356.4c2.7,0,4.1,2.1,4.1,5.3c0,3.2-1.4,5.3-4.1,5.3c-2.7,0-4.1-2.1-4.1-5.3C156.9,358.4,158.4,356.4,161.1,356.4z
			 M161.1,365.6c1.6,0,2.4-1.3,2.4-3.9s-0.7-3.9-2.4-3.9c-1.6,0-2.4,1.3-2.4,3.9S159.5,365.6,161.1,365.6z"/>
		<path d="M166.8,360.4h4.4v1.5h-4.4V360.4z"/>
		<path d="M178.2,352.6c3.1,0,5.1,2.7,5.1,7.1c0,4.9-2,7.3-5.3,7.3c-3.1,0-5.1-2.7-5.1-7.1C172.9,355,174.9,352.6,178.2,352.6z
			 M178,365.5c1.9,0,3.4-1.5,3.4-5.9c0-2.9-0.9-5.6-3.3-5.6c-1.9,0-3.4,1.5-3.4,5.9C174.8,362.8,175.7,365.5,178,365.5z"/>
		<path d="M192.8,364.6c0,0.7,0.1,1.5,0.1,2.2h-1.6l-0.1-1.5h0c-0.5,1.2-1.4,1.7-2.6,1.7c-1.8,0-3-1-3-3.3v-7.2h1.7v6.7
			c0,1.6,0.6,2.3,1.7,2.3c1.3,0,2.2-0.9,2.2-2.8v-6.2h1.7V364.6z"/>
		<path d="M199.8,366.7c-0.4,0.1-1,0.3-1.4,0.3c-1.6,0-2.4-0.6-2.4-2.4v-6.6h-1.6v-1.4h1.6v-2.1l1.7-0.5v2.6h2.1v1.4h-2.1v6.1
			c0,1.2,0.3,1.6,1.1,1.6c0.4,0,0.7-0.1,1.1-0.3V366.7z"/>
	</g>
	<g>
		<path class="st6" d="M143.5,330.5c0,8.5,6.8,15.3,15.3,15.3c8.4,0,15.3-6.8,15.3-15.3c0-8.4-6.9-15.3-15.3-15.3
			C150.3,315.2,143.5,322,143.5,330.5z"/>
		<path class="st7" d="M149.2,330.5c0,5.3,4.3,9.6,9.6,9.6c5.3,0,9.6-4.3,9.6-9.6c0-5.3-4.3-9.6-9.6-9.6
			C153.5,320.9,149.2,325.2,149.2,330.5z"/>
	</g>
	<g>
		<polygon class="st2" points="182.8,330.4 202.7,322.1 200.3,327.6 232.9,327.6 232.9,333.3 200.3,333.3 202.7,338.8 		"/>
		<path class="st3" d="M201.9,322.8l-2.2,5.1h32.8v4.9h-32.8l2.2,5.1l-18-7.6L201.9,322.8 M203.4,321.3l-1.9,0.8l-18,7.6l-1.8,0.8
			l1.8,0.8l18,7.6l1.9,0.8l-0.8-1.9l-1.7-4h31.5h0.8v-0.8V328v-0.8h-0.8h-31.5l1.7-4L203.4,321.3L203.4,321.3z"/>
	</g>
</g>
<g id="astro">
	<g>
		<path class="st8" d="M34.2,438h57.6c5.4,0,9.9-4.4,9.9-9.9V299.5c0-5.4-4.4-9.9-9.9-9.9H34.2c-5.4,0-9.9,4.4-9.9,9.9v128.6
			C24.3,433.5,28.8,438,34.2,438z"/>
	</g>
	<circle class="st9" cx="63" cy="428.5" r="6.8"/>
	<g>
		<rect x="24.6" y="305.5" class="st10" width="76.9" height="112.9"/>
		<path d="M101.2,305.8v112.4H24.8V305.8H101.2 M101.7,305.3H24.3v113.3h77.3V305.3L101.7,305.3z"/>
	</g>
	<line class="st11" x1="68.9" y1="297.3" x2="57.1" y2="297.3"/>
	<circle class="st3" cx="63" cy="394.9" r="8"/>
	<g>
		<path class="st10" d="M64.6,394.9l-3.9,3.9V391L64.6,394.9z"/>
	</g>
	<circle class="st3" cx="63" cy="349.1" r="24.4"/>
	<g>
		<g>
			<path class="st3" d="M89,391.9l4.8,3.5l-4.8,3.5V391.9z M83.8,391.9l4.8,3.5l-4.8,3.5V391.9z"/>
		</g>
		<g>
			<path class="st3" d="M43.5,391.9v7l-4.8-3.5L43.5,391.9z M38.3,391.9v7l-4.8-3.5L38.3,391.9z"/>
		</g>
	</g>
	<g>
		<path class="st10" d="M73.8,352.1c0,1.2-0.7,2.1-2.1,2.9c-1.2,0.7-2.4,1-3.7,1c-1,0-1.9-0.2-2.6-0.5c-1-0.5-1.5-1.1-1.5-2
			c0-1.1,0.7-2,2.2-2.7c1.2-0.6,2.4-0.8,3.6-0.8c0.9,0,1.6,0.1,2.3,0.4v-8.5l-11.4,5v11.8c0,1.1-0.7,2.1-2,3
			c-1.2,0.7-2.4,1.1-3.6,1.1c-1,0-1.9-0.2-2.6-0.5c-1-0.4-1.5-1.1-1.5-2c0-1.1,0.7-2,2.2-2.7c1.2-0.6,2.4-0.8,3.6-0.8
			c0.8,0,1.6,0.1,2.2,0.4v-15.2l14.8-6.5V352.1z"/>
	</g>
</g>
<g id="Ens">
	<g>
		<path d="M27.9,235.3h6.6v1.5h-4.8v4.5h4.6v1.5h-4.6v5h5.1v1.5h-6.8V235.3z"/>
		<path d="M36.9,241.4c0-0.7-0.1-1.5-0.1-2.2h1.6l0.1,1.5h0c0.5-1.2,1.4-1.7,2.6-1.7c1.8,0,3,1,3,3.3v7.2h-1.7v-6.7
			c0-1.6-0.6-2.3-1.7-2.3c-1.3,0-2.2,0.9-2.2,2.8v6.2h-1.7V241.4z"/>
		<path d="M46.2,247.4c0.8,0.5,1.6,0.8,2.4,0.8c1.3,0,2-0.7,2-1.5c0-0.7-0.4-1.2-1.3-1.6l-1.1-0.5c-1.5-0.7-2-1.3-2-2.6
			c0-1.7,1.3-3,3.3-3c0.8,0,1.6,0.1,2.2,0.4l-0.1,1.5c-0.5-0.2-1.3-0.4-2-0.4c-1.1,0-1.7,0.6-1.7,1.4c0,0.8,0.6,1.3,1.7,1.7l0.6,0.2
			c1.3,0.5,2,1.4,2,2.6c0,1.8-1,3.2-3.3,3.2c-1.1,0-2-0.2-2.8-0.6L46.2,247.4z"/>
		<path d="M55.4,244.8c0,2.4,0.9,3.5,2.8,3.5c0.8,0,1.8-0.4,2.4-0.8l0.1,1.5c-0.8,0.4-1.9,0.6-2.9,0.6c-2.7,0-4.1-2.1-4.1-5.3
			s1.4-5.3,4-5.3c2.3,0,3.6,1.9,3.6,4.9v0.9H55.4z M59.6,243.5c0-2.1-0.7-3.2-2-3.2c-1.1,0-2.1,0.8-2.1,3.2H59.6z M57.8,234.8h2
			l-2.1,2.9h-1.3L57.8,234.8z"/>
		<path d="M63.1,241.4c0-0.7-0.1-1.5-0.1-2.2h1.6l0.1,1.5h0c0.5-1.2,1.4-1.7,2.5-1.7c1.1,0,1.9,0.6,2.4,1.6c0.5-1,1.3-1.6,2.5-1.6
			c1.8,0,3,1,3,3.3v7.2h-1.7v-7.1c0-1.3-0.6-1.9-1.6-1.9c-1.3,0-1.9,0.8-1.9,2.6v6.4h-1.7v-7.1c0-1.3-0.6-1.9-1.6-1.9
			c-1.3,0-1.9,0.8-1.9,2.6v6.4h-1.7V241.4z"/>
		<path d="M77.6,234.3h1.7v6.3h0c0.7-1.1,1.5-1.6,2.6-1.6c2.1,0,3.6,1.7,3.6,5.3c0,3.6-1.4,5.3-3.6,5.3c-1.5,0-2.3-0.8-2.7-1.7h0
			l-0.1,1.5h-1.6c0-0.6,0.1-1.3,0.1-1.9V234.3z M81.5,248.2c1.6,0,2.3-1.3,2.3-3.9s-0.7-3.9-2.3-3.9s-2.3,1.3-2.3,3.9
			S80,248.2,81.5,248.2z"/>
		<path d="M87.6,234.3h1.7v15.2h-1.7V234.3z"/>
		<path d="M93.2,244.8c0,2.4,0.9,3.5,2.8,3.5c0.8,0,1.8-0.4,2.4-0.8l0.1,1.5c-0.8,0.4-1.9,0.6-2.9,0.6c-2.7,0-4.1-2.1-4.1-5.3
			s1.4-5.3,4-5.3c2.3,0,3.6,1.9,3.6,4.9v0.9H93.2z M97.3,243.5c0-2.1-0.7-3.2-2-3.2c-1.1,0-2.1,0.8-2.1,3.2H97.3z"/>
	</g>
	<g>
		<g>
			<path class="st3" d="M47.5,224.7c-0.4,0-0.8,0-1.3-0.1c-1.5-0.3-1.9-1.1-2.2-1.8c-0.8,0.1-2.2,0.4-2.6,0.6c0,0,0,0,0,0.1
				c-0.2,0.4-0.6,1.1-2.2,1.2c-0.1,0-0.3,0-0.4,0c-1.2,0-2.4-0.5-3.2-1.3c-0.6,0.3-1.6,0.5-2.7,0.7c-0.2,0-0.3,0-0.5,0
				c-1.2,0-2.7-0.6-3.6-1.3c-0.6,0.3-1.6,0.4-3,0.4c-1.3,0-2.6-0.9-3.1-1.3c-0.3,0-0.9,0.1-1.8,0.1l-0.2,0c-1.6,0-4.9-0.9-6.4-1.4
				c-1.7-0.5-3.4-1.4-4.3-2c-1.6-0.3-3.1-2.7-3.1-2.7c-0.5-0.8-0.8-5-0.9-6.2l0-2.4l25.5,5l34.8,0.2l37.4-0.5L125,207l-0.1,0.8
				c0,0.2-0.5,5.1-0.6,5.9c-0.1,0.9-0.3,1.3-0.7,1.8c-0.4,0.7-1.1,1.5-1.8,1.8c-0.2,0.4-0.5,0.6-1.4,1.1c-1.1,0.5-5.4,2.3-7.1,2.7
				c-1.1,0.2-2,0.3-2.7,0.3c-0.5,0-0.9-0.1-1.3-0.2c-0.5,0.5-1.1,0.9-1.9,1.1c-0.2,0-0.4,0.1-0.6,0.1c-0.7,0-1.8-0.2-2.7-0.3
				c-0.2,0-0.3-0.1-0.5-0.1c-0.5,0.7-1.5,1.4-3.4,1.4c-0.4,0-0.7,0-0.9,0c-0.7-0.1-2.1-0.6-2.9-1c-0.3,0.4-0.7,0.9-1.2,1.2
				c-0.5,0.3-1.2,0.3-1.8,0.3c-0.8,0-1.7-0.1-2.3-0.4c-0.5-0.2-1.2-0.3-2-0.5c-0.6-0.1-1.2-0.3-1.7-0.4c-0.4,0.5-1.2,0.9-2.2,1.2
				c-0.2,0.1-0.5,0.1-0.7,0.1c-1.3,0-2.5-0.8-2.9-1c-0.3-0.2-1.2-0.4-1.8-0.6c-0.2,0.4-0.4,0.9-0.8,1.3c-0.4,0.4-0.8,0.6-1.4,0.6
				c-0.6,0-1.3-0.2-2.3-0.7c-1-0.7-1.6-1-2.5-1c-0.1,0-0.2,0-0.3,0c-0.6,1.5-1.8,1.8-2.7,1.8c0,0,0,0,0,0c-1.1,0-1.8-0.9-2.1-1.6
				c-0.6,0-1.7,0.1-2.4,0.1c-0.5,1.2-1.4,1.7-2.8,1.7c-1.3,0-2-1.1-2.4-2.1c-0.4,0-1.1,0.1-1.6,0.1c-0.6,0.9-2,1.9-3.5,1.9
				c-0.7,0-1.9-0.3-2.4-2.2c-0.3,0.2-0.6,0.3-0.9,0.5c-0.7,0.4-1.4,0.9-2,1.1C48.9,224.4,48.3,224.7,47.5,224.7z"/>
			<path d="M124.3,207.8c0,0-0.5,5.1-0.6,5.9c-0.1,0.8-0.2,1.1-0.6,1.6c-0.4,0.8-1.3,1.6-1.8,1.6c-0.2,0.4-0.2,0.5-1.3,1
				c-1,0.5-5.3,2.3-7,2.7c-0.9,0.2-1.8,0.3-2.6,0.3c-0.6,0-1.1-0.1-1.5-0.3c-0.4,0.6-1,1-1.8,1.2c-0.1,0-0.3,0-0.5,0
				c-1,0-2.7-0.4-3.5-0.5c-0.6,1.3-2.1,1.5-3.1,1.5c-0.4,0-0.7,0-0.9,0c-0.8-0.1-3.1-1.1-3.1-1.1s-0.5,1-1.3,1.4
				c-0.3,0.2-0.9,0.3-1.5,0.3c-0.7,0-1.5-0.1-2.1-0.3c-1-0.4-3.2-0.7-4.2-1.1c-0.2,0.5-0.9,1-2.1,1.3c-0.2,0-0.4,0.1-0.6,0.1
				c-1,0-2-0.6-2.5-0.9c-0.7-0.4-2.5-0.8-2.5-0.8s-0.3,1-0.9,1.6c-0.3,0.3-0.6,0.4-1,0.4c-0.5,0-1.2-0.2-2-0.7
				c-1-0.7-1.7-1.1-2.8-1.1c-0.2,0-0.5,0-0.7,0c-0.4,1.3-1.1,1.7-2.3,1.8c0,0,0,0-0.1,0c-1.1,0-1.6-1.6-1.6-1.6s-2.5,0.1-3.2,0.1
				c-0.4,1.1-1,1.7-2.4,1.7c-1.4,0-1.9-2.1-1.9-2.1s-1.6,0.2-2.4,0.2c-0.5,0.8-1.8,1.9-3.1,1.9c-1.3,0-1.8-1.4-2-2.5
				c-0.5,0.2-2.5,1.5-3.5,2c-0.7,0.3-1.2,0.6-1.9,0.6c-0.3,0-0.7,0-1.1-0.1c-1.5-0.3-1.6-1.1-1.9-1.9c-0.5,0.1-3.1,0.5-3.4,0.8
				c-0.2,0.3-0.3,1-1.8,1.1c-0.1,0-0.2,0-0.4,0c-1.4,0-2.5-0.6-3.1-1.5c-0.4,0.5-1.6,0.7-2.9,0.9c-0.1,0-0.3,0-0.4,0
				c-1.2,0-2.8-0.7-3.5-1.5c-0.5,0.4-1.7,0.5-3.1,0.5c-1.4,0-3-1.3-3-1.3s-0.7,0.1-2.1,0.1c0,0-0.1,0-0.1,0c-1.4,0-4.6-0.9-6.2-1.4
				c-1.7-0.5-3.4-1.4-4.2-2.1c0,0,0,0,0,0c-1,0-2.3-1.7-2.8-2.5c-0.5-0.8-0.8-5.9-0.8-5.9v-1.6l24.8,4.9l34.8,0.2l37.5-0.5
				L124.3,207.8 M125.7,206.2l-1.6,0.4l-20.6,4.7l-37.3,0.5l-34.7-0.2l-24.7-4.9l-1.4-0.3v1.5v1.6v0l0,0c0.1,2.5,0.4,5.6,1,6.5
				c0.2,0.3,1.7,2.7,3.4,3c1.1,0.8,2.9,1.6,4.3,2c1.6,0.5,4.9,1.4,6.6,1.4c0.1,0,0.1,0,0.2,0c0.7,0,1.3-0.1,1.6-0.1
				c0.7,0.5,2,1.3,3.3,1.3c1.3,0,2.2-0.1,2.9-0.3c1,0.8,2.5,1.3,3.7,1.3c0.2,0,0.4,0,0.6,0c1-0.1,1.9-0.3,2.5-0.6
				c0.9,0.7,2.1,1.1,3.3,1.1c0.1,0,0.3,0,0.4,0c1.5-0.1,2.2-0.7,2.6-1.4c0.4-0.1,1.2-0.3,1.8-0.4c0.3,0.7,0.9,1.4,2.4,1.7
				c0.5,0.1,1,0.2,1.4,0.2c1,0,1.7-0.3,2.4-0.7c0.6-0.3,1.3-0.7,2-1.2c0.1,0,0.1-0.1,0.2-0.1c0.8,1.7,2.1,2,2.7,2
				c1.5,0,2.9-0.9,3.8-2c0.3,0,0.6,0,0.9-0.1c0.5,1,1.4,2,2.7,2c1.5,0,2.6-0.6,3.2-1.7c0.5,0,1.2,0,1.6-0.1c0.4,0.7,1.2,1.6,2.4,1.6
				c0,0,0.1,0,0.1,0c1.5-0.1,2.5-0.7,3.1-1.9c0.7,0,1.1,0.2,2,0.8l0.1,0.1l0.1,0c1.1,0.5,1.9,0.8,2.6,0.8c0.7,0,1.4-0.3,1.9-0.8
				c0.3-0.3,0.5-0.7,0.7-1c0.5,0.1,1,0.3,1.2,0.4c0.4,0.3,1.7,1.1,3.2,1.1c0.3,0,0.6,0,0.9-0.1c1.1-0.3,1.8-0.7,2.3-1.1
				c0.4,0.1,0.9,0.2,1.4,0.3c0.7,0.2,1.5,0.3,1.9,0.5c0.7,0.2,1.6,0.4,2.5,0.4c0.8,0,1.5-0.1,2-0.4c0.5-0.3,0.9-0.6,1.1-1
				c0.9,0.4,2,0.8,2.6,0.8l0.1,0c0.2,0,0.6,0,0.9,0c1.9,0,3-0.6,3.7-1.4c0,0,0.1,0,0.1,0c0.9,0.2,2,0.3,2.8,0.3c0.3,0,0.5,0,0.7-0.1
				c0.8-0.2,1.4-0.5,2-1c0.3,0.1,0.7,0.1,1.1,0.1c0.8,0,1.7-0.1,2.8-0.4c1.8-0.4,6.2-2.2,7.3-2.7c0.9-0.4,1.3-0.7,1.6-1.1
				c0.8-0.4,1.6-1.3,1.9-1.9c0.5-0.6,0.7-1.2,0.8-2.1c0.1-0.9,0.6-5.8,0.6-6L125.7,206.2L125.7,206.2z M124.3,209L124.3,209
				L124.3,209L124.3,209z"/>
		</g>
		<path d="M8.8,216.9c0,0-0.2-0.1-0.3-1c-0.1-0.9-0.4-2.6-0.5-3.5c-0.1-0.9-0.1-1.7,0.4-1.6c0.5,0.2,0.6,0.4,0.7,1
			c0.1,0.6,0.3,2.4,0.4,3.1c0.1,0.7,0.1,1.9,0.6,2.8C10.2,217.6,9.3,217.7,8.8,216.9z"/>
		<path d="M21.5,221c0,0-0.9-0.2-1.1-1.2c-0.2-1-0.3-2.7-0.4-3.8c-0.1-1.1,0.1-1.9,0.8-1.7c0.7,0.2,1.1,0.8,1.2,1.7
			c0.1,0.8,0.5,3.6,0.5,4c0.1,0.5,0.2,1.1,0.2,1.1L21.5,221z"/>
		<path d="M28.3,222.2c0,0-1.7-0.1-2.2-1.1c-0.4-1.1-0.3-2.6-0.4-3.9c-0.1-1.3,0-2.1,0.8-2c0.8,0.1,1.3,0.5,1.4,2
			c0.1,1.5,0.4,4.3,0.8,4.8C28.6,222.2,28.3,222.2,28.3,222.2z"/>
		<path d="M35.7,222.5c0,0-2.1,0.6-2.6,0.1c-0.5-0.5-0.7-2-0.7-2.9c0-0.9-0.1-2.7,0.3-3.1c0.4-0.5,1-0.5,1.7-0.4
			c0.7,0.2,0.7,1,0.8,1.7c0.1,0.7,0.4,3.5,0.5,3.9C35.7,222.2,35.7,222.5,35.7,222.5z"/>
		<path d="M40.7,223.5c0,0-0.6-0.2-0.6-1.3c0-1-0.1-3.3,0.1-4c0.1-0.7,0.6-1.5,1.7-1.5c1.1,0,1.9,0.2,2.2,1.4c0.2,1.2,0.2,3,0.4,3.6
			C44.6,222.9,41,223.1,40.7,223.5z"/>
		<path d="M49.4,223.8c0,0-0.7-1.1-0.6-2.6c0.1-1.5,0.4-2.9,0.4-3.6c0.1-0.7,0.7-1.2,1.7-1.2c1,0,1.3,0.5,1.4,1.3
			c0.1,0.8,0.4,2.4,0.4,2.8c0.1,0.4,0.1,1.3,0.1,1.3L49.4,223.8z"/>
		<path d="M57,223.3c0,0-0.4-0.8-0.2-2.1c0.1-1.2,0.5-2.8,0.5-3.5c0-0.7,0-1.3,1.1-1.4c1.1-0.1,1.7,0.2,1.9,1.7c0.2,1.4,0.4,4,0.4,4
			s-2.1,0.1-2.7,0.5C57.2,223,57,223.3,57,223.3z"/>
		<path d="M64.3,222.4c0,0,0.2-3,0.3-3.9c0.1-0.8,0-2.1,0.6-2.4c0.6-0.2,2.2-0.5,2.4,1c0.2,1.6,0.3,5,0.3,5L64.3,222.4z"/>
		<path d="M71.9,222.3c0,0,0.1-2.7,0.2-4c0.1-1.3,0.3-2.1,1.6-2.1c1.3-0.1,1.3,0.6,1.4,1.6c0.1,1,0.1,3.3,0.2,4
			c0.1,0.7,0.3,1.6,0.3,1.6s-1.3-1.2-2.2-1.3C72.5,222.1,71.9,222.3,71.9,222.3z"/>
		<path d="M79.3,222.4c0,0,0-1.7,0.2-3.4c0.2-1.6,0.2-2.2,1.2-2.4c1-0.2,1.9,0,2,1.4c0.1,1.4,0.2,4.9,0.2,5.6
			c-0.5-0.2-1.3-0.9-2.1-1C80,222.6,79.3,222.4,79.3,222.4z"/>
		<path d="M87.1,222.2c0,0,0.5-3,0.6-4.2c0.1-1.2-0.2-2,1.4-2.1c1.6-0.1,1.9,0.2,2.1,1.9c0.1,1.6,0.1,5.4,0.1,5.4s-1.7-0.8-2.5-0.9
			C88,222.3,87.1,222.2,87.1,222.2z"/>
		<path d="M95.8,222.3c0,0,0.2-2.7,0.4-3.9c0.2-1.2-0.1-1.7,1.3-2.1c1.4-0.4,1.7,0.4,1.7,1.9c0.1,1.6-0.1,4.4-0.2,4.9
			C98.2,222.9,96.4,222.1,95.8,222.3z"/>
		<path d="M103.3,221.8c0,0,0.5-2.9,0.7-4.4c0.1-1.4,0.4-2.1,1.1-2.2c0.7-0.1,1.1,1,1.1,2.7c0,1.6,0,3.1-0.6,3.7
			c-0.6,0.6-1,0.6-1,0.6L103.3,221.8z"/>
		<path d="M109.1,220.4c0,0,0.5-1.6,0.7-3c0.1-1.4-0.3-2.5,0.5-3c0.8-0.4,1.4,0.1,1.4,1.2c0,1.1,0,3.1-0.4,3.8
			c-0.4,0.7-1,1.4-1.4,1.4C109.4,220.9,109.1,220.4,109.1,220.4z"/>
		<path d="M121.3,216.6c0,0,0.4-2.7,0.6-4.5c0.2-1.8,1-2.9,1.1-1.9c0.1,1-0.1,3.9-0.2,4.5c-0.1,0.7-0.3,1.2-0.3,1.2l-1.1,0.9
			L121.3,216.6z"/>
		<path d="M6.7,210c0,0,0.4-0.2,0.5,0.8c0.1,1,0.2,3.1,0.3,3.6c0.1,0.5,0,1.3,0,1.3s-0.5-0.9-0.6-1.9C6.9,212.8,6.7,210,6.7,210z"/>
		<g>
			<path class="st3" d="M41.2,214.8c-2.7,0-5.3-0.1-6.9-0.2l-1,0c-1.8-0.1-9.8-1-14.7-1.8c-5.3-0.9-12-2.5-14.3-4.1
				c-2-1.3-2.3-1.9-2.5-2.8c0-0.1,0-0.2-0.1-0.3l0-0.1v-0.1c0-0.3,0-7.5,0.1-9.3c0.2-2.2,1.2-5.7,3.5-8.2c2.5-2.7,4.9-4.3,7.8-5.3
				c2.7-1,9.9-3.5,25.5-4.4c5.2-0.4,8.8-0.7,9.6-0.7l14.1-8.9l5.5,0.2l13.8,8.5c0.1,0,0.8,0.2,2.1,0.2c1.8,0.1,7.9,0.4,9.3,0.5
				c1.4,0.1,18.9,2.6,21.3,3.4c1.3,0.5,7.9,2.9,10.2,5.7c2.1,2.7,3.8,5,4.1,8.7c0.2,3.6,0.2,7.4,0.2,8.6c0,1.6-0.5,2.5-1.8,3.4
				c-1.3,0.9-5.6,2.5-8.8,3.4c-3.2,0.9-5.9,1.3-8.4,1.6c-1.4,0.2-3.5,0.4-5.3,0.7c-1,0.1-2,0.3-2.5,0.3c-1.5,0.2-8.6,0.5-10.9,0.5
				c-0.5,0-1.4,0-2.6,0c0,0-6,0-7.5,0c-3.1,0-5.4,0-7.1,0.1c-2.8,0.1-9.3,0.1-15.7,0.1c-6.5,0-12.6,0-14.7,0.1
				C42.9,214.8,42.1,214.8,41.2,214.8z"/>
			<path d="M62.6,169.3l5.1,0.2l13.8,8.4c0,0,0.6,0.2,2.3,0.3c1.7,0.1,7.9,0.4,9.3,0.5c1.4,0.1,18.9,2.6,21.1,3.4
				c2.2,0.8,8,3.1,10,5.6c2,2.5,3.7,4.8,3.9,8.4c0.2,3.6,0.2,7.3,0.2,8.6c0,1.3-0.4,2.1-1.5,2.9c-1.1,0.8-5.3,2.4-8.6,3.3
				c-3.3,1-6.2,1.3-8.3,1.6c-2.2,0.2-6.3,0.8-7.8,1c-1.4,0.2-8.5,0.5-10.9,0.5c-0.5,0-1.4,0-2.5,0c-2,0-4.7,0-7.5,0
				c-2.5,0-5.1,0-7.1,0.1c-5.5,0.1-26.1,0-30.3,0.1c-0.8,0-1.7,0-2.5,0c-3.4,0-6.5-0.2-7.8-0.2c-1.7-0.1-9.6-1-14.6-1.8
				c-5-0.8-11.8-2.5-14.1-4c-2.3-1.5-2.1-1.9-2.3-2.7c0,0,0-7.5,0.1-9.2c0.1-1.7,0.9-5.2,3.3-7.8c2.4-2.5,4.6-4.1,7.5-5.1
				c2.9-1,10.1-3.5,25.3-4.4c5.9-0.4,9.8-0.7,9.8-0.7L62.6,169.3 M62.3,168l-0.3,0.2L48.1,177c-1,0.1-4.5,0.3-9.5,0.7
				c-15.7,0.9-22.9,3.5-25.7,4.5c-3,1.1-5.4,2.7-8,5.4c-3.1,3.3-3.6,7.7-3.6,8.5c-0.1,1.8-0.1,9-0.1,9.3v0.2l0.1,0.2
				c0,0.1,0,0.2,0.1,0.2c0.3,1.1,0.7,1.8,2.7,3.1c2.8,1.8,10.5,3.5,14.6,4.2c4.9,0.8,12.9,1.8,14.8,1.8c0.3,0,0.6,0,1,0
				c1.6,0.1,4.2,0.2,6.9,0.2c0.9,0,1.7,0,2.5,0c2.1-0.1,8.2-0.1,14.6-0.1c6.3,0,12.9,0,15.7-0.1c1.8,0,4-0.1,7.1-0.1
				c1.5,0,3,0,4.3,0c1.2,0,2.2,0,3.1,0c1.1,0,2,0,2.6,0c2.3-0.1,9.5-0.4,11-0.6c0.5-0.1,1.4-0.2,2.5-0.3c1.7-0.2,3.9-0.5,5.3-0.7
				c2.5-0.3,5.3-0.7,8.5-1.6c3.3-0.9,7.6-2.6,9-3.5c1.4-1,2-2.2,2-3.9c0-1.2,0-5-0.2-8.6c-0.3-3.9-2-6.4-4.2-9.1
				c-2.4-3-9.2-5.5-10.5-5.9c-2.4-0.9-20-3.3-21.4-3.4c-1.4-0.1-7.6-0.5-9.4-0.5c-1.1,0-1.6-0.2-1.8-0.2l-13.6-8.4l-0.3-0.2l-0.3,0
				l-5.1-0.2L62.3,168L62.3,168z"/>
		</g>
		<g>
			<g>
				<circle cx="44.6" cy="207.4" r="2.4"/>
			</g>
			<g>
				<path d="M44.6,203.8c2,0,3.6,1.6,3.6,3.6s-1.6,3.6-3.6,3.6c-2,0-3.6-1.6-3.6-3.6S42.6,203.8,44.6,203.8 M44.6,203.6
					c-2.1,0-3.7,1.7-3.7,3.7c0,2.1,1.7,3.7,3.7,3.7c2.1,0,3.7-1.7,3.7-3.7C48.3,205.3,46.7,203.6,44.6,203.6L44.6,203.6z"/>
			</g>
			<g>
				<path d="M44.6,202.2l0.4,0.5l0.4-0.5l0.3,0.6l0.5-0.4l0.2,0.6l0.6-0.3l0.1,0.6l0.6-0.2l0,0.7l0.6-0.1l-0.1,0.6l0.7,0l-0.2,0.6
					l0.7,0.1l-0.3,0.6l0.6,0.2l-0.4,0.5l0.6,0.3l-0.5,0.4l0.5,0.4l-0.5,0.4l0.5,0.4l-0.6,0.3l0.4,0.5l-0.6,0.2l0.3,0.6l-0.7,0.1
					l0.2,0.6l-0.7,0l0.1,0.6l-0.6-0.1l0,0.7l-0.6-0.2l-0.1,0.7l-0.6-0.3l-0.2,0.6l-0.5-0.4l-0.3,0.6l-0.4-0.5l-0.4,0.5l-0.4-0.5
					l-0.4,0.5l-0.3-0.6l-0.5,0.4l-0.2-0.6l-0.6,0.3l-0.1-0.7l-0.6,0.2l0-0.7L41,211l0.1-0.6l-0.7,0l0.2-0.6l-0.6-0.1l0.3-0.6
					l-0.6-0.2l0.4-0.5l-0.6-0.3l0.5-0.4l-0.5-0.4L40,207l-0.5-0.4l0.6-0.3l-0.4-0.5l0.6-0.2L40,205l0.6-0.1l-0.2-0.6l0.7,0l-0.1-0.6
					l0.6,0.1l0-0.7l0.6,0.2l0.1-0.6l0.6,0.3l0.2-0.6l0.5,0.4l0.3-0.6l0.4,0.5L44.6,202.2 M47.6,203.2L47.6,203.2 M48.2,203.7
					L48.2,203.7 M48.7,204.4L48.7,204.4 M44.6,202.1C44.6,202.1,44.6,202.1,44.6,202.1c-0.1,0-0.1,0-0.1,0.1l-0.2,0.4l-0.3-0.3
					c0,0-0.1-0.1-0.1-0.1c0,0,0,0,0,0c-0.1,0-0.1,0-0.1,0.1l-0.2,0.4l-0.3-0.3c0,0-0.1,0-0.1,0c0,0,0,0-0.1,0
					c-0.1,0-0.1,0.1-0.1,0.1l-0.1,0.4l-0.4-0.2c0,0-0.1,0-0.1,0c0,0-0.1,0-0.1,0c-0.1,0-0.1,0.1-0.1,0.1l0,0.4l-0.4-0.2
					c0,0,0,0-0.1,0c0,0-0.1,0-0.1,0c0,0-0.1,0.1-0.1,0.1l0,0.4l-0.4-0.1c0,0,0,0,0,0c0,0-0.1,0-0.1,0.1c0,0-0.1,0.1,0,0.2l0.1,0.4
					l-0.4,0c0,0,0,0,0,0c-0.1,0-0.1,0-0.1,0.1c0,0,0,0.1,0,0.2l0.2,0.4l-0.4,0c-0.1,0-0.1,0-0.1,0.1c0,0.1,0,0.1,0,0.2l0.2,0.4
					l-0.4,0.1c-0.1,0-0.1,0.1-0.1,0.1c0,0.1,0,0.1,0,0.2l0.3,0.3l-0.4,0.2c-0.1,0-0.1,0.1-0.1,0.1c0,0.1,0,0.1,0.1,0.2l0.3,0.3
					l-0.4,0.2c0,0-0.1,0.1-0.1,0.1c0,0.1,0,0.1,0.1,0.1l0.4,0.2l-0.3,0.3c0,0-0.1,0.1-0.1,0.2c0,0.1,0,0.1,0.1,0.1l0.4,0.2l-0.3,0.3
					c0,0,0,0.1,0,0.2c0,0.1,0.1,0.1,0.1,0.1l0.4,0.1l-0.2,0.4c0,0.1,0,0.1,0,0.2c0,0.1,0.1,0.1,0.1,0.1l0.4,0l-0.2,0.4
					c0,0.1,0,0.1,0,0.2c0,0,0.1,0.1,0.1,0.1c0,0,0,0,0,0l0.4,0l-0.1,0.4c0,0.1,0,0.1,0,0.2c0,0,0.1,0.1,0.1,0.1c0,0,0,0,0,0l0.4-0.1
					l0,0.4c0,0.1,0,0.1,0.1,0.1c0,0,0.1,0,0.1,0c0,0,0,0,0.1,0l0.4-0.2l0,0.4c0,0.1,0,0.1,0.1,0.1c0,0,0.1,0,0.1,0c0,0,0.1,0,0.1,0
					l0.4-0.2l0.1,0.4c0,0.1,0.1,0.1,0.1,0.1c0,0,0,0,0.1,0c0,0,0.1,0,0.1,0l0.3-0.3l0.2,0.4c0,0.1,0.1,0.1,0.1,0.1c0,0,0,0,0,0
					c0,0,0.1,0,0.1-0.1l0.3-0.3l0.2,0.4c0,0,0.1,0.1,0.1,0.1c0.1,0,0.1,0,0.1-0.1l0.2-0.4l0.3,0.3c0,0,0.1,0.1,0.1,0.1c0,0,0,0,0,0
					c0.1,0,0.1,0,0.1-0.1l0.2-0.4l0.3,0.3c0,0,0.1,0,0.1,0c0,0,0,0,0.1,0c0.1,0,0.1-0.1,0.1-0.1l0.1-0.4l0.4,0.2c0,0,0.1,0,0.1,0
					c0,0,0.1,0,0.1,0c0.1,0,0.1-0.1,0.1-0.1l0-0.4l0.4,0.2c0,0,0,0,0.1,0c0,0,0.1,0,0.1,0c0,0,0.1-0.1,0.1-0.1l0-0.4l0.4,0.1
					c0,0,0,0,0,0c0,0,0.1,0,0.1-0.1c0,0,0.1-0.1,0-0.2l-0.1-0.4l0.4,0c0,0,0,0,0,0c0.1,0,0.1,0,0.1-0.1c0,0,0-0.1,0-0.2l-0.2-0.4
					l0.4,0c0.1,0,0.1,0,0.1-0.1c0-0.1,0-0.1,0-0.2l-0.2-0.4l0.4-0.1c0.1,0,0.1-0.1,0.1-0.1c0-0.1,0-0.1,0-0.2l-0.3-0.3l0.4-0.2
					c0.1,0,0.1-0.1,0.1-0.1c0-0.1,0-0.1-0.1-0.2l-0.3-0.3l0.4-0.2c0,0,0.1-0.1,0.1-0.1c0-0.1,0-0.1-0.1-0.1l-0.4-0.2l0.3-0.3
					c0,0,0.1-0.1,0.1-0.2c0-0.1,0-0.1-0.1-0.1l-0.4-0.2l0.3-0.3c0,0,0-0.1,0-0.2s-0.1-0.1-0.1-0.1l-0.4-0.1l0.2-0.4
					c0-0.1,0-0.1,0-0.2c0-0.1-0.1-0.1-0.1-0.1l-0.4,0l0.1-0.4c0,0,0-0.1,0-0.1c0-0.1-0.1-0.2-0.2-0.2h0c0,0,0,0,0,0l-0.4,0l0.1-0.4
					c0,0,0,0,0-0.1c0-0.1-0.1-0.2-0.2-0.2h0c0,0,0,0,0,0l-0.4,0.1l0-0.4c0,0,0,0,0,0c0-0.1-0.1-0.2-0.2-0.2h0c0,0,0,0-0.1,0
					l-0.4,0.2l0-0.4c0-0.1,0-0.1-0.1-0.1c0,0-0.1,0-0.1,0c0,0-0.1,0-0.1,0l-0.4,0.2l-0.1-0.4c0-0.1-0.1-0.1-0.1-0.1c0,0,0,0-0.1,0
					c0,0-0.1,0-0.1,0l-0.3,0.3l-0.2-0.4c0-0.1-0.1-0.1-0.1-0.1c0,0,0,0,0,0c0,0-0.1,0-0.1,0.1l-0.3,0.3l-0.2-0.4
					C44.7,202.1,44.7,202.1,44.6,202.1L44.6,202.1z"/>
			</g>
		</g>
		<g>
			<g>
				<circle cx="60.6" cy="207.4" r="2.4"/>
			</g>
			<g>
				<path d="M60.6,203.8c2,0,3.6,1.6,3.6,3.6s-1.6,3.6-3.6,3.6c-2,0-3.6-1.6-3.6-3.6S58.6,203.8,60.6,203.8 M60.6,203.6
					c-2.1,0-3.7,1.7-3.7,3.7c0,2.1,1.7,3.7,3.7,3.7c2.1,0,3.7-1.7,3.7-3.7C64.3,205.3,62.6,203.6,60.6,203.6L60.6,203.6z"/>
			</g>
			<g>
				<path d="M60.6,202.2l0.4,0.5l0.4-0.5l0.3,0.6l0.5-0.4l0.2,0.6l0.6-0.3l0.1,0.6l0.6-0.2l0,0.7l0.6-0.1l-0.1,0.6l0.7,0l-0.2,0.6
					l0.7,0.1l-0.3,0.6l0.6,0.2l-0.4,0.5l0.6,0.3l-0.5,0.4l0.5,0.4l-0.5,0.4l0.5,0.4l-0.6,0.3l0.4,0.5l-0.6,0.2l0.3,0.6l-0.7,0.1
					l0.2,0.6l-0.7,0l0.1,0.6l-0.6-0.1l0,0.7l-0.6-0.2l-0.1,0.7l-0.6-0.3l-0.2,0.6l-0.5-0.4l-0.3,0.6l-0.4-0.5l-0.4,0.5l-0.4-0.5
					l-0.4,0.5l-0.3-0.6l-0.5,0.4l-0.2-0.6l-0.6,0.3l-0.1-0.7l-0.6,0.2l0-0.7L57,211l0.1-0.6l-0.7,0l0.2-0.6l-0.7-0.1l0.3-0.6
					l-0.6-0.2l0.4-0.5l-0.6-0.3l0.5-0.4l-0.5-0.4L56,207l-0.5-0.4l0.6-0.3l-0.4-0.5l0.6-0.2L56,205l0.7-0.1l-0.2-0.6l0.7,0l-0.1-0.6
					l0.6,0.1l0-0.7l0.6,0.2l0.1-0.6l0.6,0.3l0.2-0.6l0.5,0.4l0.3-0.6l0.4,0.5L60.6,202.2 M63.6,203.2L63.6,203.2 M64.2,203.7
					L64.2,203.7 M64.7,204.4L64.7,204.4 M60.6,202.1C60.6,202.1,60.6,202.1,60.6,202.1c-0.1,0-0.1,0-0.1,0.1l-0.2,0.4l-0.3-0.3
					c0,0-0.1-0.1-0.1-0.1c0,0,0,0,0,0c-0.1,0-0.1,0-0.1,0.1l-0.2,0.4l-0.3-0.3c0,0-0.1,0-0.1,0c0,0,0,0-0.1,0
					c-0.1,0-0.1,0.1-0.1,0.1l-0.1,0.4l-0.4-0.2c0,0-0.1,0-0.1,0c0,0-0.1,0-0.1,0c-0.1,0-0.1,0.1-0.1,0.1l0,0.4l-0.4-0.2
					c0,0,0,0-0.1,0c0,0-0.1,0-0.1,0c0,0-0.1,0.1-0.1,0.1l0,0.4l-0.4-0.1c0,0,0,0,0,0c0,0-0.1,0-0.1,0.1c0,0-0.1,0.1,0,0.2l0.1,0.4
					l-0.4,0c0,0,0,0,0,0c-0.1,0-0.1,0-0.1,0.1c0,0,0,0.1,0,0.2l0.2,0.4l-0.4,0c-0.1,0-0.1,0-0.1,0.1c0,0.1,0,0.1,0,0.2l0.2,0.4
					l-0.4,0.1c-0.1,0-0.1,0.1-0.1,0.1c0,0.1,0,0.1,0,0.2l0.3,0.3l-0.4,0.2c-0.1,0-0.1,0.1-0.1,0.1c0,0.1,0,0.1,0.1,0.2l0.3,0.3
					l-0.4,0.2c0,0-0.1,0.1-0.1,0.1c0,0.1,0,0.1,0.1,0.1l0.4,0.2l-0.3,0.3c0,0-0.1,0.1-0.1,0.2c0,0.1,0,0.1,0.1,0.1l0.4,0.2l-0.3,0.3
					c0,0,0,0.1,0,0.2c0,0.1,0.1,0.1,0.1,0.1l0.4,0.1l-0.2,0.4c0,0.1,0,0.1,0,0.2c0,0.1,0.1,0.1,0.1,0.1l0.4,0l-0.2,0.4
					c0,0.1,0,0.1,0,0.2c0,0,0.1,0.1,0.1,0.1c0,0,0,0,0,0l0.4,0l-0.1,0.4c0,0.1,0,0.1,0,0.2c0,0,0.1,0.1,0.1,0.1c0,0,0,0,0,0l0.4-0.1
					l0,0.4c0,0.1,0,0.1,0.1,0.1c0,0,0.1,0,0.1,0c0,0,0,0,0.1,0l0.4-0.2l0,0.4c0,0.1,0,0.1,0.1,0.1c0,0,0.1,0,0.1,0c0,0,0.1,0,0.1,0
					l0.4-0.2l0.1,0.4c0,0.1,0.1,0.1,0.1,0.1c0,0,0,0,0.1,0c0,0,0.1,0,0.1,0l0.3-0.3l0.2,0.4c0,0.1,0.1,0.1,0.1,0.1c0,0,0,0,0,0
					c0,0,0.1,0,0.1-0.1l0.3-0.3l0.2,0.4c0,0,0.1,0.1,0.1,0.1c0,0,0,0,0,0c0.1,0,0.1,0,0.1-0.1l0.2-0.4l0.3,0.3c0,0,0.1,0.1,0.1,0.1
					c0,0,0,0,0,0c0.1,0,0.1,0,0.1-0.1l0.2-0.4l0.3,0.3c0,0,0.1,0,0.1,0c0,0,0,0,0.1,0c0.1,0,0.1-0.1,0.1-0.1l0.1-0.4l0.4,0.2
					c0,0,0.1,0,0.1,0c0,0,0.1,0,0.1,0c0.1,0,0.1-0.1,0.1-0.1l0-0.4l0.4,0.2c0,0,0,0,0.1,0c0,0,0.1,0,0.1,0c0,0,0.1-0.1,0.1-0.1
					l0-0.4l0.4,0.1c0,0,0,0,0,0c0,0,0.1,0,0.1-0.1c0,0,0.1-0.1,0-0.2l-0.1-0.4l0.4,0c0,0,0,0,0,0c0.1,0,0.1,0,0.1-0.1
					c0,0,0-0.1,0-0.2l-0.2-0.4l0.4,0c0.1,0,0.1,0,0.1-0.1c0-0.1,0-0.1,0-0.2l-0.2-0.4l0.4-0.1c0.1,0,0.1-0.1,0.1-0.1s0-0.1,0-0.2
					l-0.3-0.3l0.4-0.2c0.1,0,0.1-0.1,0.1-0.1c0-0.1,0-0.1-0.1-0.2l-0.3-0.3l0.4-0.2c0,0,0.1-0.1,0.1-0.1c0-0.1,0-0.1-0.1-0.1
					l-0.4-0.2l0.3-0.3c0,0,0.1-0.1,0.1-0.2c0-0.1,0-0.1-0.1-0.1l-0.4-0.2l0.3-0.3c0,0,0-0.1,0-0.2c0-0.1-0.1-0.1-0.1-0.1l-0.4-0.1
					l0.2-0.4c0-0.1,0-0.1,0-0.2c0-0.1-0.1-0.1-0.1-0.1l-0.4,0l0.1-0.4c0,0,0-0.1,0-0.1c0-0.1-0.1-0.2-0.2-0.2h0c0,0,0,0,0,0l-0.4,0
					l0.1-0.4c0,0,0,0,0-0.1c0-0.1-0.1-0.2-0.2-0.2h0c0,0,0,0,0,0l-0.4,0.1l0-0.4c0,0,0,0,0,0c0-0.1-0.1-0.2-0.2-0.2h0c0,0,0,0-0.1,0
					l-0.4,0.2l0-0.4c0-0.1,0-0.1-0.1-0.1c0,0-0.1,0-0.1,0c0,0-0.1,0-0.1,0l-0.4,0.2l-0.1-0.4c0-0.1-0.1-0.1-0.1-0.1c0,0,0,0-0.1,0
					c0,0-0.1,0-0.1,0l-0.3,0.3l-0.2-0.4c0-0.1-0.1-0.1-0.1-0.1c0,0,0,0,0,0c0,0-0.1,0-0.1,0.1l-0.3,0.3l-0.2-0.4
					C60.7,202.1,60.6,202.1,60.6,202.1L60.6,202.1z"/>
			</g>
		</g>
		<g>
			<g>
				<circle cx="76" cy="207.2" r="2.4"/>
			</g>
			<g>
				<path d="M76,203.6c2,0,3.6,1.6,3.6,3.6c0,2-1.6,3.6-3.6,3.6c-2,0-3.6-1.6-3.6-3.6C72.4,205.2,74,203.6,76,203.6 M76,203.4
					c-2.1,0-3.7,1.7-3.7,3.7c0,2.1,1.7,3.7,3.7,3.7c2.1,0,3.7-1.7,3.7-3.7C79.7,205.1,78,203.4,76,203.4L76,203.4z"/>
			</g>
			<g>
				<path d="M76,202.1l0.4,0.5l0.4-0.5l0.3,0.6l0.5-0.4l0.2,0.6l0.6-0.3l0.1,0.7L79,203l0,0.7l0.6-0.1l-0.1,0.6l0.7,0l-0.2,0.6
					l0.7,0.1l-0.3,0.6l0.6,0.2l-0.4,0.5l0.6,0.3l-0.5,0.4l0.5,0.4l-0.5,0.4L81,208l-0.6,0.3l0.4,0.5l-0.6,0.2l0.3,0.6l-0.7,0.1
					l0.2,0.6l-0.7,0l0.1,0.6l-0.6-0.1l0,0.7l-0.6-0.2l-0.1,0.7l-0.6-0.3l-0.2,0.6l-0.5-0.4l-0.3,0.6l-0.4-0.5l-0.4,0.5l-0.4-0.5
					l-0.4,0.5l-0.3-0.6l-0.5,0.4l-0.2-0.6l-0.6,0.3l-0.1-0.7l-0.6,0.2l0-0.7l-0.6,0.1l0.1-0.6l-0.7,0l0.2-0.6l-0.7-0.1l0.3-0.6
					l-0.6-0.2l0.4-0.5l-0.6-0.3l0.5-0.4l-0.5-0.4l0.5-0.4l-0.5-0.4l0.6-0.3l-0.4-0.5l0.6-0.2l-0.3-0.6l0.7-0.1l-0.2-0.6l0.7,0
					l-0.1-0.6l0.6,0.1l0-0.7l0.6,0.2l0.1-0.7l0.6,0.3l0.2-0.6l0.5,0.4l0.3-0.6l0.4,0.5L76,202.1 M79,203L79,203 M79.6,203.6
					L79.6,203.6 M80.1,204.2L80.1,204.2 M76,201.9C76,201.9,76,201.9,76,201.9c-0.1,0-0.1,0-0.1,0.1l-0.2,0.4l-0.3-0.3
					c0,0-0.1-0.1-0.1-0.1c0,0,0,0,0,0c-0.1,0-0.1,0-0.1,0.1l-0.2,0.4l-0.3-0.3c0,0-0.1,0-0.1,0c0,0,0,0-0.1,0
					c-0.1,0-0.1,0.1-0.1,0.1l-0.1,0.4l-0.4-0.2c0,0-0.1,0-0.1,0c0,0-0.1,0-0.1,0c-0.1,0-0.1,0.1-0.1,0.1l0,0.4l-0.4-0.2
					c0,0,0,0-0.1,0c0,0-0.1,0-0.1,0c0,0-0.1,0.1-0.1,0.1l0,0.4l-0.4-0.1c0,0,0,0,0,0c0,0-0.1,0-0.1,0.1c0,0-0.1,0.1,0,0.2l0.1,0.4
					l-0.4,0c0,0,0,0,0,0c-0.1,0-0.1,0-0.1,0.1c0,0,0,0.1,0,0.2l0.2,0.4l-0.4,0c-0.1,0-0.1,0-0.1,0.1c0,0.1,0,0.1,0,0.2l0.2,0.4
					l-0.4,0.1c-0.1,0-0.1,0.1-0.1,0.1c0,0.1,0,0.1,0,0.2l0.3,0.3l-0.4,0.2c-0.1,0-0.1,0.1-0.1,0.1s0,0.1,0.1,0.2l0.3,0.3l-0.4,0.2
					c0,0-0.1,0.1-0.1,0.1c0,0.1,0,0.1,0.1,0.1l0.4,0.2l-0.3,0.3c0,0-0.1,0.1-0.1,0.2c0,0.1,0,0.1,0.1,0.1l0.4,0.2l-0.3,0.3
					c0,0,0,0.1,0,0.2c0,0.1,0.1,0.1,0.1,0.1l0.4,0.1l-0.2,0.4c0,0.1,0,0.1,0,0.2c0,0.1,0.1,0.1,0.1,0.1l0.4,0l-0.2,0.4
					c0,0.1,0,0.1,0,0.2c0,0,0.1,0.1,0.1,0.1c0,0,0,0,0,0l0.4,0l-0.1,0.4c0,0.1,0,0.1,0,0.2c0,0,0.1,0.1,0.1,0.1c0,0,0,0,0,0l0.4-0.1
					l0,0.4c0,0.1,0,0.1,0.1,0.1c0,0,0.1,0,0.1,0c0,0,0,0,0.1,0l0.4-0.2l0,0.4c0,0.1,0,0.1,0.1,0.1c0,0,0.1,0,0.1,0c0,0,0.1,0,0.1,0
					l0.4-0.2l0.1,0.4c0,0.1,0.1,0.1,0.1,0.1c0,0,0,0,0.1,0c0,0,0.1,0,0.1,0l0.3-0.3l0.2,0.4c0,0.1,0.1,0.1,0.1,0.1c0,0,0,0,0,0
					c0,0,0.1,0,0.1-0.1l0.3-0.3l0.2,0.4c0,0,0.1,0.1,0.1,0.1c0,0,0,0,0,0c0.1,0,0.1,0,0.1-0.1l0.2-0.4l0.3,0.3c0,0,0.1,0.1,0.1,0.1
					c0,0,0,0,0,0c0.1,0,0.1,0,0.1-0.1l0.2-0.4l0.3,0.3c0,0,0.1,0,0.1,0c0,0,0,0,0.1,0c0.1,0,0.1-0.1,0.1-0.1l0.1-0.4l0.4,0.2
					c0,0,0.1,0,0.1,0c0,0,0.1,0,0.1,0c0.1,0,0.1-0.1,0.1-0.1l0-0.4l0.4,0.2c0,0,0,0,0.1,0c0,0,0.1,0,0.1,0c0,0,0.1-0.1,0.1-0.1
					l0-0.4l0.4,0.1c0,0,0,0,0,0c0,0,0.1,0,0.1-0.1c0,0,0.1-0.1,0-0.2l-0.1-0.4l0.4,0c0,0,0,0,0,0c0.1,0,0.1,0,0.1-0.1
					c0,0,0-0.1,0-0.2l-0.2-0.4l0.4,0c0.1,0,0.1,0,0.1-0.1c0-0.1,0-0.1,0-0.2l-0.2-0.4l0.4-0.1c0.1,0,0.1-0.1,0.1-0.1
					c0-0.1,0-0.1,0-0.2l-0.3-0.3l0.4-0.2c0.1,0,0.1-0.1,0.1-0.1c0-0.1,0-0.1-0.1-0.2l-0.3-0.3l0.4-0.2c0,0,0.1-0.1,0.1-0.1
					c0-0.1,0-0.1-0.1-0.1l-0.4-0.2l0.3-0.3c0,0,0.1-0.1,0.1-0.2s0-0.1-0.1-0.1l-0.4-0.2l0.3-0.3c0,0,0-0.1,0-0.2
					c0-0.1-0.1-0.1-0.1-0.1l-0.4-0.1l0.2-0.4c0-0.1,0-0.1,0-0.2c0-0.1-0.1-0.1-0.1-0.1l-0.4,0l0.1-0.4c0,0,0-0.1,0-0.1
					c0-0.1-0.1-0.2-0.2-0.2h0c0,0,0,0,0,0l-0.4,0l0.1-0.4c0,0,0,0,0-0.1c0-0.1-0.1-0.2-0.2-0.2h0h0c0,0,0,0,0,0c0,0,0,0,0,0
					l-0.4,0.1l0-0.4c0,0,0,0,0,0c0-0.1-0.1-0.2-0.2-0.2h0c0,0,0,0-0.1,0l-0.4,0.2l0-0.4c0-0.1,0-0.1-0.1-0.1c0,0-0.1,0-0.1,0
					c0,0-0.1,0-0.1,0l-0.4,0.2l-0.1-0.4c0-0.1-0.1-0.1-0.1-0.1c0,0,0,0-0.1,0c0,0-0.1,0-0.1,0l-0.3,0.3l-0.2-0.4
					c0-0.1-0.1-0.1-0.1-0.1c0,0,0,0,0,0c0,0-0.1,0-0.1,0.1l-0.3,0.3l-0.2-0.4C76.1,201.9,76,201.9,76,201.9L76,201.9z"/>
			</g>
		</g>
		<g>
			<g>
				<path d="M94.1,204.5c1.9,0,3.5,1.6,3.5,3.5c0,1.9-1.6,3.5-3.5,3.5s-3.5-1.6-3.5-3.5C90.6,206.1,92.2,204.5,94.1,204.5
					 M94.1,204.4c-2,0-3.7,1.6-3.7,3.7c0,2,1.6,3.7,3.7,3.7s3.7-1.6,3.7-3.7C97.8,206,96.2,204.4,94.1,204.4L94.1,204.4z"/>
			</g>
			<circle cx="94.1" cy="208.1" r="1.9"/>
		</g>
		<g>
			<path d="M48.5,197.3l1,2.6h-0.6l-0.2-0.6h-1l-0.2,0.6h-0.6l1-2.6H48.5z M48.5,198.9l-0.3-1h0l-0.3,1H48.5z"/>
		</g>
		<g>
			<path d="M63.8,197.4c0.1,0,0.2,0,0.3,0c0.1,0,0.2,0.1,0.3,0.1c0.1,0,0.1,0.1,0.2,0.2c0,0.1,0.1,0.2,0.1,0.3c0,0.1,0,0.2-0.1,0.3
				c-0.1,0.1-0.1,0.2-0.3,0.2c0.2,0,0.3,0.1,0.4,0.2c0.1,0.1,0.1,0.3,0.1,0.4c0,0.1,0,0.2-0.1,0.3c-0.1,0.1-0.1,0.2-0.2,0.2
				c-0.1,0.1-0.2,0.1-0.3,0.1c-0.1,0-0.2,0-0.3,0h-1.3v-2.6H63.8z M63.7,198.4c0.1,0,0.2,0,0.3-0.1c0.1,0,0.1-0.1,0.1-0.2
				c0-0.1,0-0.1,0-0.1c0,0-0.1-0.1-0.1-0.1c0,0-0.1,0-0.1,0c0,0-0.1,0-0.1,0h-0.5v0.6H63.7z M63.7,199.5c0.1,0,0.1,0,0.2,0
				c0.1,0,0.1,0,0.1-0.1c0,0,0.1-0.1,0.1-0.1c0,0,0-0.1,0-0.2c0-0.1,0-0.2-0.1-0.3c-0.1-0.1-0.2-0.1-0.3-0.1h-0.6v0.7H63.7z"/>
		</g>
		<g>
			<path d="M80.1,198.1c0-0.1-0.1-0.1-0.1-0.1c-0.1,0-0.1-0.1-0.2-0.1c-0.1,0-0.1,0-0.2,0c-0.1,0-0.2,0-0.3,0.1
				c-0.1,0-0.2,0.1-0.2,0.2c-0.1,0.1-0.1,0.2-0.1,0.3c0,0.1,0,0.2,0,0.3c0,0.1,0,0.2,0,0.3c0,0.1,0.1,0.2,0.1,0.3
				c0.1,0.1,0.1,0.1,0.2,0.2c0.1,0,0.2,0.1,0.3,0.1c0.2,0,0.3-0.1,0.4-0.2c0.1-0.1,0.2-0.2,0.2-0.4h0.6c0,0.2-0.1,0.3-0.1,0.4
				c-0.1,0.1-0.1,0.2-0.2,0.3c-0.1,0.1-0.2,0.2-0.4,0.2c-0.1,0-0.3,0.1-0.4,0.1c-0.2,0-0.4,0-0.5-0.1c-0.2-0.1-0.3-0.2-0.4-0.3
				c-0.1-0.1-0.2-0.3-0.3-0.4c-0.1-0.2-0.1-0.3-0.1-0.5c0-0.2,0-0.4,0.1-0.5c0.1-0.2,0.1-0.3,0.3-0.4c0.1-0.1,0.2-0.2,0.4-0.3
				c0.2-0.1,0.3-0.1,0.5-0.1c0.1,0,0.3,0,0.4,0.1c0.1,0,0.2,0.1,0.3,0.2c0.1,0.1,0.2,0.2,0.3,0.3c0.1,0.1,0.1,0.3,0.1,0.4h-0.6
				C80.1,198.2,80.1,198.2,80.1,198.1z"/>
		</g>
		<g>
			<path d="M92.2,199.5v0.2h0c0.1-0.1,0.1-0.2,0.2-0.2c0.1,0,0.2-0.1,0.3-0.1c0.1,0,0.3,0,0.4,0.1c0.1,0.1,0.2,0.1,0.3,0.2
				c0.1,0.1,0.1,0.2,0.2,0.3c0,0.1,0.1,0.3,0.1,0.4c0,0.1,0,0.2-0.1,0.4c0,0.1-0.1,0.2-0.2,0.3c-0.1,0.1-0.2,0.2-0.3,0.2
				c-0.1,0.1-0.2,0.1-0.4,0.1c-0.1,0-0.2,0-0.3-0.1c-0.1,0-0.2-0.1-0.2-0.2h0v0.9h-0.5v-2.5H92.2z M92.9,201c0.1,0,0.1-0.1,0.1-0.1
				c0-0.1,0.1-0.1,0.1-0.2c0-0.1,0-0.1,0-0.2c0-0.1,0-0.1,0-0.2c0-0.1,0-0.1-0.1-0.2c0-0.1-0.1-0.1-0.1-0.1c-0.1,0-0.1-0.1-0.2-0.1
				c-0.1,0-0.2,0-0.2,0.1c-0.1,0-0.1,0.1-0.1,0.1c0,0.1-0.1,0.1-0.1,0.2c0,0.1,0,0.1,0,0.2c0,0.1,0,0.2,0,0.2c0,0.1,0,0.1,0.1,0.2
				c0,0.1,0.1,0.1,0.1,0.1c0.1,0,0.1,0.1,0.2,0.1C92.8,201.1,92.8,201.1,92.9,201z"/>
			<path d="M95.6,201.4l-0.3-1.3h0l-0.3,1.3h-0.5l-0.6-1.9h0.5l0.3,1.3h0l0.3-1.3h0.5l0.3,1.3h0l0.3-1.3h0.5l-0.6,1.9H95.6z"/>
			<path d="M97.4,199.5v0.4h0c0-0.1,0.1-0.1,0.1-0.2c0,0,0.1-0.1,0.1-0.1c0.1,0,0.1-0.1,0.2-0.1c0.1,0,0.1,0,0.2,0c0,0,0.1,0,0.1,0
				v0.5c0,0-0.1,0-0.1,0c0,0-0.1,0-0.1,0c-0.1,0-0.2,0-0.2,0c-0.1,0-0.1,0.1-0.2,0.1c0,0.1-0.1,0.1-0.1,0.2c0,0.1,0,0.2,0,0.2v0.9
				h-0.5v-1.9H97.4z"/>
		</g>
		<path class="st12" d="M35.1,211.7c0,0-0.8-7.7-0.3-10.4c0.5-2.8,1.7-5,4.5-6.3c2.5-1.1,14.4-2.3,26.5-2.3c12.2,0,24.1,0.3,26.8,1
			c2.7,0.7,7.9,3.3,8.1,7.5c0.2,4.3-0.1,10.6-0.1,10.6"/>
		<path class="st12" d="M102.2,201.8c0,0,8.8-0.5,14.1-1.7c3.8-0.9,8.1-3,8.6-3.7"/>
		<path class="st12" d="M33,201.8c0,0-10.3-0.5-16.6-1.7c-4.5-0.9-9.5-3-10.1-3.7"/>
		<g>
			<path class="st3" d="M66,170.7c-5.3-0.1-24.6-1.3-29.2-2.3c-4.6-1-21.9-12-25.1-14.2c-3.1-2.1-6.9-5.1-7.6-5.9
				c-0.7-0.8-0.7-1.5-0.7-2.1c-0.8-0.5-2-1.4-2.4-3.5c-0.3-1.6-0.4-3.1-0.4-4c0-0.3,0-0.5,0-0.6c0-1,0.1-22.4,0.1-24
				c0-0.2,0-0.3,0-0.5c0-2,0.1-6.1,2.9-9.6c2.9-3.6,5.7-5.5,10.2-7c4.8-1.5,15.9-4.2,26.7-5.3C53,90.3,61.4,90,66.2,90
				c5.8,0,22.7,1.1,31.9,2.7c9.7,1.8,17.5,3.7,21.4,5.3c4.1,1.7,7.5,5.9,8.3,7.7c0.8,1.7,1.7,3.8,1.8,7.4c0.1,3.2,0.1,24,0.1,25.3
				c-0.1,1.2-0.3,4.1-0.6,5.2c-0.4,1.3-1.1,2.1-2,2.5c0,0.6-0.1,1.7-1.1,2.5c-1,0.7-6.9,5.2-6.9,5.2c-0.8,0.6-19,13.9-27.4,14.9
				c-8.3,1-19.2,1.9-24.9,1.9L66,170.7z"/>
			<path d="M66.2,90.6c5.9,0,22.8,1.1,31.8,2.7c9.4,1.7,17.3,3.6,21.2,5.2c3.9,1.6,7.2,5.7,8,7.4c0.8,1.7,1.7,3.7,1.7,7.1
				c0.1,3.4,0.1,24,0.1,25.3c-0.1,1.3-0.3,4.1-0.6,5c-0.3,0.9-0.8,1.9-2.1,2.3c-0.1,0.5,0.1,1.7-0.9,2.4c-1,0.7-6.9,5.2-6.9,5.2
				s-18.8,13.8-27.1,14.8c-8,0.9-19.1,1.9-24.9,1.9c-0.2,0-0.4,0-0.6,0c-5.6-0.1-24.6-1.3-29.1-2.3c-4.5-1-21.8-12-24.9-14.1
				c-3.1-2.1-6.8-5.1-7.5-5.8c-0.6-0.7-0.6-1.4-0.5-2c-0.7-0.5-2-1.1-2.4-3.3c-0.4-2.2-0.4-4.1-0.4-4.6c0,0,0.1-22.3,0.1-24
				c0.1-1.6-0.2-6,2.8-9.8c3-3.7,5.7-5.4,10-6.8c4.5-1.4,15.5-4.1,26.6-5.3S60.3,90.6,66.2,90.6 M66.2,89.4
				c-4.8,0-13.1,0.3-25.6,1.6c-10.8,1.2-22,3.8-26.8,5.4c-4.7,1.5-7.6,3.4-10.5,7.2c-2.9,3.7-3,7.9-3,10c0,0.2,0,0.4,0,0.5
				C0.1,115.6,0,137.1,0,138l0,0.1l0,0.1c0,0.1,0,0.3,0,0.6c0,0.9,0.1,2.4,0.4,4.1c0.4,2.1,1.5,3.1,2.3,3.7c0,0.6,0.1,1.4,0.8,2.2
				c0.8,0.9,4.8,4,7.7,6c1.9,1.3,20.2,13.2,25.3,14.3c4.7,1,24,2.2,29.4,2.3c0.2,0,0.4,0,0.7,0c5.8,0,16.7-1,25-1.9
				c8.5-1,26.9-14.4,27.6-15c0.1-0.1,5.9-4.5,6.9-5.3c1-0.8,1.3-1.8,1.3-2.6c0.9-0.5,1.6-1.4,2-2.7c0.4-1.2,0.6-4.5,0.7-5.3
				c0.1-1.4,0-22-0.1-25.4c-0.1-3.7-1.1-6-1.9-7.6c-0.9-1.9-4.4-6.3-8.7-8c-3.9-1.6-11.7-3.6-21.5-5.3
				C88.9,90.4,71.9,89.4,66.2,89.4L66.2,89.4z"/>
		</g>
		<path class="st13" d="M36.7,164.9c0,0,0.7,15,0.2,20.2c-0.8,0.5-3.5,1.3-6.1,1.8c-2.6,0.5-7.1,0.9-9,0.5
			c0.2-6.3-1.5-14.4-3.1-20.8c-1.5-6.4-6.3-15.3-6.3-15.3"/>
		<path class="st13" d="M119.7,150.8c0,0-2.9,5.6-3.9,8.4c-1,2.9-3.3,10.1-3.9,14.8c-0.6,4.7-1.1,12.5-1.1,12.5s-12.2,0.4-16-2.1
			c-0.2-1.9-0.4-5.8-0.5-9.6c-0.1-3.2,0.1-9.7,0.1-9.7"/>
		<path class="st12" d="M12.7,150.9c0,0,17.3,10.2,20.2,11.8c2.9,1.6,4,2.7,6.3,2.9c2.3,0.2,12.3,1.5,24.9,1.2
			c12.6-0.3,24.3-1.1,27.1-1.4c2.8-0.2,4.7-1.4,8-3.1c3.4-1.6,18.2-10.1,19.7-11.3"/>
		<path class="st12" d="M48.8,91.9c0,0-8.7,0.6-17.2,2.1c-8.5,1.5-15.7,3.4-18.3,6.4c-1.3,1.6-5.2,5.3-5.7,12.2
			c0,0-0.4,14.6-0.4,17.5c0,2.8-0.2,7.6-0.2,8.8c0,1.2,0.6,4,1.4,6c0.8,1.9,1.6,2.4,2.7,2.8c-0.2-1.4-0.6-2.5-0.9-3.9
			c-0.3-1.4-0.2-13-0.2-13s0.3-16.9,0.5-18.3c0.2-1.4,0.7-6,3.1-8.4c2.4-2.3,6.7-5.5,14.6-7.3C36.2,94.9,48.8,91.9,48.8,91.9z"/>
		<path class="st12" d="M84.1,92.1c0,0,9.7,0.8,15.2,1.9c5.6,1.1,14.7,2.3,18.6,5.7c3.9,3.4,6.9,6.5,7.4,11.6
			c0.5,5.1,0.3,15.8,0.4,21.7c0.1,5.9-0.2,9.2-0.4,10.1c-0.2,0.9-1.6,3.3-2.1,3.8c-0.5,0.5-1.4,0.2-1.4,0.2s1.4-2.6,1.6-7
			c0.2-4.4-0.2-23.5-0.3-26.5c-0.1-3-2.3-8.3-4.8-10.6c-2.5-2.3-11.3-5.6-15-6.6C99.5,95.4,87.3,92.3,84.1,92.1z"/>
		<path class="st12" d="M128.9,139.2c0,0-3.1,1.4-3.5,1.6c-0.5,0.2-1.2,0.3-2.2-0.1c-1.3,0.3-5.1,0.8-10.9,1.4
			c-5.8,0.6-33.2,1.9-48.1,1.9c-14.9,0-46.5-1.4-53.9-2.7c0,0-1.9,0.1-3-0.6c-1.1-0.1-4.6-0.9-5.7-1.8"/>
		<path class="st5" d="M4.1,145.9c0,0,4.1,1.6,13.2,2.5c9.1,0.9,38.5,2.2,48.7,2.2c10.2,0,33.8-1,40.8-1.6c7-0.6,16.6-1.5,19.6-3.3"
			/>
		<path class="st12" d="M5.8,148.7c0,0,5.1,1.9,12.6,2.7c9.1,1,30.7,2.7,49.3,2.7c18.6,0,36.8-1.9,43.3-2.8c6.5-0.9,11.1-1.5,13-2.3
			"/>
		<polygon points="67.1,95.7 66.1,96.7 66.5,99.6 67.8,100.3 68.9,99.6 68.5,96.5 		"/>
		<polygon points="67.9,93 74.8,97 73.4,97.6 68.1,94.5 		"/>
		<path d="M67.1,91.3l0.2,0.7c0,0,2.2,0.7,4.5,1.9c2.3,1.2,4.6,2.6,4.6,2.6l1.6-0.6c0,0-3.1-1.9-5.3-2.9
			C70.6,92.1,67.1,91.3,67.1,91.3z"/>
		<path d="M71.6,91.4c0,0,2.9,0.2,3.9,0.5c1,0.3,4.9,1.7,6.6,2.7c1.7,1,2.7,1.6,2.7,1.6l-2.7-0.3C82.1,95.9,76.7,92.5,71.6,91.4z"/>
		<path d="M80.7,92.8c0,0,4.8,1.4,4.9,1.5c0.1,0.1,4.3,2.2,4.9,2.8c0,0-1.7-0.2-2.4-0.3C87.4,96.2,82.7,93.5,80.7,92.8z"/>
		<path d="M82.6,92.7c0,0,15,2.9,16.3,3.5c0.4,0.4,0.3,0.6,0.3,0.6S84.3,93,82.6,92.7z"/>
		<path class="st12" d="M75.2,91.4c0,0,7,0.6,12.4,1.7c5.5,1.1,10.5,2.4,10.5,2.4"/>
		<polygon points="65.4,92.8 58.4,96.9 59.9,97.5 65.1,94.3 		"/>
		<path d="M66.1,91.1l-0.2,0.7c0,0-2.2,0.8-4.5,1.9c-2.3,1.2-4.6,2.7-4.6,2.7l-1.6-0.5c0,0,3.1-2,5.3-2.9
			C62.6,92,66.1,91.1,66.1,91.1z"/>
		<path d="M61.6,91.3c0,0-2.9,0.2-3.9,0.6c-1,0.3-4.9,1.8-6.6,2.8c-1.7,1-2.6,1.6-2.6,1.6l2.7-0.3C51.2,95.9,56.5,92.4,61.6,91.3z"
			/>
		<path d="M52.5,92.8c0,0-4.8,1.5-4.9,1.6c-0.1,0.1-4.3,2.3-4.9,2.8c0,0,1.7-0.3,2.4-0.3C45.9,96.3,50.6,93.5,52.5,92.8z"/>
		<path d="M50.6,92.7c0,0-15,3-16.3,3.7C34,96.8,34,97,34,97S48.9,93,50.6,92.7z"/>
		<path class="st12" d="M58,91.3c0,0-6.9,0.7-12.4,1.9c-5.5,1.2-10.5,2.5-10.5,2.5"/>
		<path class="st12" d="M17.8,106.7c0,0,23.8,1.8,50.6,1.8c26.8,0,46.2-1.9,46.2-1.9"/>
		<path class="st12" d="M47.5,181.1c0,0,5.5,2.3,17,2.3c11.5,0,17.6-2.3,17.6-2.3"/>
	</g>
	<g>
	</g>
	<g>
	</g>
	<g>
	</g>
	<g>
	</g>
	<g>
	</g>
	<g>
	</g>
</g>
</svg>
