<?xml version="1.0" encoding="utf-8"?>
<!-- Generator: Adobe Illustrator 20.0.0, SVG Export Plug-In . SVG Version: 6.00 Build 0)  -->
<svg version="1.1" xmlns="http://www.w3.org/2000/svg" xmlns:xlink="http://www.w3.org/1999/xlink" x="0px" y="0px"
	 viewBox="0 0 227.4 211.6" style="enable-background:new 0 0 227.4 211.6;" xml:space="preserve">
<style type="text/css">
	.st0{fill:none;stroke:#9D9FA2;stroke-width:3;}
	.st1{fill:#FFFFFF;stroke:#000000;stroke-width:0.4785;}
	.st2{fill:#EF4423;}
	.st3{fill:#FFFFFF;}
	.st4{fill:none;stroke:#000000;stroke-width:0.73;}
	.st5{fill:none;stroke:#000000;stroke-width:0.5;stroke-linecap:round;}
	.st6{fill:#FFFFFF;stroke:#000000;stroke-width:0.649;}
	.st7{stroke:#000000;stroke-width:0.649;}
	.st8{fill:#FFFFFF;stroke:#000000;stroke-width:0.5;stroke-linejoin:bevel;stroke-miterlimit:10;}
	.st9{fill:#FFFFFF;stroke:#000000;stroke-width:0.2366;stroke-linejoin:bevel;stroke-miterlimit:10;}
	.st10{fill:none;stroke:#000000;stroke-width:6.814647e-02;stroke-linejoin:bevel;stroke-miterlimit:10;}
	.st11{fill:none;stroke:#000000;stroke-width:8.518292e-02;stroke-linejoin:bevel;stroke-miterlimit:10;}
	.st12{fill:none;stroke:#000000;stroke-width:0.2366;stroke-linejoin:bevel;stroke-miterlimit:10;}
	.st13{fill:none;stroke:#000000;stroke-width:0.1193;stroke-linejoin:bevel;stroke-miterlimit:10;}
	.st14{fill:#D1D3D4;stroke:#000000;stroke-width:0.1193;stroke-linejoin:bevel;stroke-miterlimit:10;}
	.st15{fill:#FFFFFF;stroke:#000000;stroke-width:0.1193;stroke-linejoin:bevel;stroke-miterlimit:10;}
	.st16{fill:#D1D3D4;stroke:#000000;stroke-width:5.915492e-02;stroke-linejoin:bevel;stroke-miterlimit:10;}
	.st17{fill:none;stroke:#000000;stroke-width:0.1844;stroke-linejoin:bevel;stroke-miterlimit:10;}
	.st18{fill:none;stroke:#000000;stroke-width:6.418005e-02;stroke-linejoin:bevel;stroke-miterlimit:10;}
	.st19{fill:none;stroke:#000000;stroke-width:0.1183;}
	.st20{fill:#EF4223;}
	.st21{fill:none;stroke:#000000;stroke-width:0.5;}
	.st22{fill:none;stroke:#000000;stroke-width:0.1643;}
	.st23{fill:#FFFFFF;stroke:#000000;stroke-width:0.5;}
	.st24{fill:#D1D3D4;stroke:#000000;stroke-width:0.1643;}
	.st25{fill:#FFFFFF;stroke:#000000;stroke-width:0.1643;stroke-linecap:round;stroke-linejoin:round;}
	.st26{fill:#FFFFFF;stroke:#000000;stroke-width:0.1643;stroke-linejoin:round;}
	.st27{display:none;}
	.st28{display:inline;fill:none;}
	.st29{display:inline;fill:none;stroke:#000000;stroke-width:0.1643;}
	.st30{fill:none;stroke:#000000;stroke-width:0.2309;stroke-linecap:round;}
	.st31{fill:#FFFFFF;stroke:#000000;stroke-width:0.5;stroke-linecap:round;}
</style>
<g id="wires">
	<g id="cable_copy">
	</g>
	<g id="projector_copy">
	</g>
	<g id="Astronaut_copy">
	</g>
	<g id="Text_copy">
	</g>
	<g id="Layer_13">
	</g>
	<g id="Layer_14">
		<g id="Layer_15">
		</g>
		<path class="st0" d="M159.2,177.6h62.6c0,0,4,0.6,4-4c0-4.6,0-152.3,0-156.9c0-4.6-4-4-4-4s-85,0-104.6,0"/>
	</g>
	<g id="Layer_16">
	</g>
	<g id="Layer_17">
	</g>
	<g>
		<g>
			<g>
				<g>
					<polyline class="st1" points="88.1,11.7 87.4,12 84.8,11.8 84.4,12.2 84.4,13.6 84.8,14.1 87.4,13.8 88.1,14.2 					"/>
					<rect x="91.9" y="11.7" class="st1" width="6.7" height="2.5"/>
					<rect x="98.2" y="10.6" class="st1" width="0.7" height="4.5"/>
					<rect x="89.4" y="11.7" class="st1" width="1.9" height="2.5"/>
					<rect x="88.1" y="11.7" class="st1" width="0.7" height="2.5"/>
					<rect x="88.8" y="11.9" class="st1" width="0.6" height="2.1"/>
					
						<rect x="90.5" y="12.6" transform="matrix(1.884237e-03 -1 1 1.884237e-03 78.494 104.4724)" class="st1" width="2.1" height="0.6"/>
					<polyline class="st1" points="84.8,11.8 84.4,12.2 84.4,13.6 84.8,14.1 					"/>
					<g>
						<polygon class="st1" points="119,11.6 118.9,14.1 108.2,15.3 108.2,10.2 						"/>
						<polygon class="st1" points="108.2,10.1 109.8,10.1 109.8,12.2 110.5,12.2 110.5,10.1 112.1,10.2 112.1,12.2 113,12.2 
							113,10.3 114.3,10.4 114.3,12.2 115,12.2 115,10.5 116.6,10.6 116.5,12.2 117.2,12.2 117.2,10.7 119,10.8 118.9,14.8 
							117.2,14.9 117.2,13.5 116.5,13.5 116.5,14.9 115,15.1 115,13.5 114.3,13.5 114.3,15.1 113,15.2 113,13.5 112.1,13.5 
							112.1,15.3 110.5,15.4 110.5,13.5 109.8,13.5 109.8,15.5 108.2,15.5 						"/>
					</g>
					<polygon class="st1" points="108.2,15.7 98.9,15.7 98.9,9.8 108.2,9.8 					"/>
				</g>
			</g>
		</g>
	</g>
	<g>
		<path class="st2" d="M207,29.9c-1,0-1.9-0.9-1.9-1.9c0-0.7,0.4-1.3,0.9-1.6V10.7h1.9v15.7c0.6,0.3,0.9,1,0.9,1.6
			C208.8,29.1,208,29.9,207,29.9z"/>
		<path class="st3" d="M207.4,11.2v15.5c0.5,0.2,0.9,0.7,0.9,1.3c0,0.8-0.6,1.4-1.4,1.4c-0.8,0-1.4-0.6-1.4-1.4
			c0-0.6,0.4-1.1,0.9-1.3V11.2H207.4 M208.4,10.3h-0.9h-0.9h-0.9v0.9v14.9c-0.6,0.4-0.9,1.1-0.9,1.9c0,1.3,1.1,2.4,2.4,2.4
			c1.3,0,2.4-1.1,2.4-2.4c0-0.7-0.4-1.4-0.9-1.9V11.2V10.3L208.4,10.3z"/>
	</g>
	<path class="st4" d="M28,0.4c-2.2,0-4,1.8-4,4v24.1c0,2.2,1.8,4,4,4h20l3.9,4l3.8-4h19.7c2.2,0,4-1.8,4-4V4.4c0-2.2-1.8-4-4-4H28z"
		/>
	<g>
		<path d="M162.2,25.4c-0.3-0.2-0.7-0.3-1.1-0.3c-0.6,0-1,0.4-1,0.9c0,0.4,0.2,0.7,1.1,1.2c1,0.6,1.3,1.1,1.3,1.8
			c0,1-0.6,1.8-1.8,1.8c-0.5,0-1-0.1-1.3-0.3v-0.8c0.4,0.2,0.8,0.4,1.2,0.4c0.7,0,1.1-0.5,1.1-1c0-0.5-0.1-0.8-1-1.3
			c-1.1-0.7-1.4-1.1-1.4-1.9c0-1,0.8-1.6,1.7-1.6c0.4,0,0.9,0.1,1.1,0.2V25.4z"/>
		<path d="M165.5,30.7c-0.2,0.1-0.4,0.1-0.6,0.1c-0.7,0-1.1-0.3-1.1-1.1v-3H163v-0.6h0.7v-0.9l0.8-0.2v1.2h0.9v0.6h-0.9v2.7
			c0,0.5,0.1,0.7,0.5,0.7c0.2,0,0.3-0.1,0.5-0.1V30.7z"/>
		<path d="M166.7,28.7c0,1.1,0.4,1.6,1.3,1.6c0.4,0,0.8-0.2,1.1-0.4l0,0.7c-0.4,0.2-0.8,0.3-1.3,0.3c-1.2,0-1.8-0.9-1.8-2.4
			s0.6-2.4,1.8-2.4c1,0,1.6,0.8,1.6,2.2v0.4H166.7z M168.5,28.1c0-1-0.3-1.4-0.9-1.4c-0.5,0-0.9,0.4-0.9,1.4H168.5z"/>
		<path d="M170.1,27.2c0-0.3,0-0.7,0-1h0.7l0,0.7h0c0.2-0.6,0.6-0.8,1.3-0.8v0.7c-0.1,0-0.2,0-0.3,0c-0.6,0-1,0.5-1,1.5v2.4h-0.8
			V27.2z"/>
		<path d="M173.3,28.7c0,1.1,0.4,1.6,1.3,1.6c0.4,0,0.8-0.2,1.1-0.4l0,0.7c-0.4,0.2-0.8,0.3-1.3,0.3c-1.2,0-1.8-0.9-1.8-2.4
			s0.6-2.4,1.8-2.4c1,0,1.6,0.8,1.6,2.2v0.4H173.3z M175.2,28.1c0-1-0.3-1.4-0.9-1.4c-0.5,0-0.9,0.4-0.9,1.4H175.2z"/>
		<path d="M178.4,26.1c1.2,0,1.8,0.9,1.8,2.4s-0.6,2.4-1.8,2.4c-1.2,0-1.8-0.9-1.8-2.4S177.2,26.1,178.4,26.1z M178.4,30.2
			c0.7,0,1.1-0.6,1.1-1.7s-0.3-1.7-1.1-1.7c-0.7,0-1.1,0.6-1.1,1.7S177.7,30.2,178.4,30.2z"/>
		<path d="M187.1,30.6c-0.4,0.1-0.8,0.2-1.1,0.2c-2,0-2.8-1.5-2.8-3.2c0-2,1.1-3.2,2.8-3.2c0.5,0,0.9,0.1,1.2,0.2v0.8
			c-0.3-0.2-0.7-0.3-1.2-0.3c-1,0-2,0.8-2,2.3c0,1.6,0.6,2.7,2,2.7c0.4,0,0.8-0.1,1.1-0.3V30.6z"/>
		<path d="M188.3,26.5c0.4-0.2,0.8-0.4,1.3-0.4c0.7,0,1.1,0.3,1.2,0.4c0.2,0.2,0.4,0.5,0.4,1.1v2.4c0,0.3,0,0.5,0,0.7h-0.7l0-0.6h0
			c-0.2,0.4-0.6,0.7-1.3,0.7c-0.8,0-1.3-0.4-1.3-1.3c0-0.9,0.6-1.5,2.2-1.5h0.4v-0.2c0-0.3,0-0.5-0.2-0.7c-0.2-0.2-0.5-0.3-0.8-0.3
			c-0.5,0-0.9,0.2-1.2,0.5L188.3,26.5z M190.5,28.5c-0.1,0-0.3,0-0.5,0c-0.9,0-1.3,0.4-1.3,1c0,0.5,0.3,0.8,0.8,0.8
			c0.7,0,1.1-0.5,1.1-1.2V28.5z"/>
		<path d="M192.2,24h0.8v2.8h0c0.3-0.5,0.6-0.7,1.2-0.7c0.9,0,1.6,0.8,1.6,2.4s-0.6,2.4-1.6,2.4c-0.7,0-1-0.4-1.2-0.7h0l0,0.7h-0.7
			c0-0.3,0-0.6,0-0.8V24z M193.9,30.2c0.7,0,1-0.6,1-1.7s-0.3-1.7-1-1.7c-0.7,0-1,0.6-1,1.7S193.3,30.2,193.9,30.2z"/>
		<path d="M196.7,24h0.8v6.8h-0.8V24z"/>
		<path d="M199.1,28.7c0,1.1,0.4,1.6,1.3,1.6c0.4,0,0.8-0.2,1.1-0.4l0,0.7c-0.4,0.2-0.8,0.3-1.3,0.3c-1.2,0-1.8-0.9-1.8-2.4
			s0.6-2.4,1.8-2.4c1,0,1.6,0.8,1.6,2.2v0.4H199.1z M201,28.1c0-1-0.3-1.4-0.9-1.4c-0.5,0-0.9,0.4-0.9,1.4H201z"/>
	</g>
	<g>
		<polygon class="st2" points="61,12.8 69.9,9 68.8,11.5 83.3,11.5 83.3,14 68.8,14 69.9,16.5 		"/>
		<path class="st3" d="M69.5,9.4l-1,2.3h14.6v2.2H68.6l1,2.3l-8-3.4L69.5,9.4 M70.2,8.7l-0.8,0.4l-8,3.4l-0.8,0.3l0.8,0.3l8,3.4
			l0.8,0.3L69.9,16l-0.8-1.8h14h0.4v-0.4v-2.2v-0.4h-0.4h-14l0.8-1.8L70.2,8.7L70.2,8.7z"/>
	</g>
	<g>
		<path class="st3" d="M159.3,15.3c0,0-0.9-1,0-2.3c0.9-1.3,0-2.7,0-2.7H157c0,0,0.9,1.4,0,2.7c-0.9,1.3,0,2.3,0,2.3H159.3z"/>
		<path class="st5" d="M159.3,10.3c0,0,0.9,1.4,0,2.7c-0.9,1.3,0,2.3,0,2.3"/>
		<path class="st5" d="M157,10.3c0,0,0.9,1.4,0,2.7c-0.9,1.3,0,2.3,0,2.3"/>
	</g>
	<g>
		<path d="M28.2,21.8H29v6.3h-0.8V21.8z"/>
		<path d="M30.3,24.5c0-0.3,0-0.7,0-1H31l0,0.7h0c0.2-0.5,0.6-0.7,1.2-0.7c0.8,0,1.3,0.5,1.3,1.5v3.2h-0.8v-3c0-0.7-0.3-1-0.8-1
			c-0.6,0-1,0.4-1,1.2v2.8h-0.8V24.5z"/>
		<path d="M34.5,24.3c0-0.3,0-0.6,0-0.8h0.7l0,0.7h0c0.2-0.4,0.5-0.7,1.2-0.7c0.9,0,1.6,0.8,1.6,2.4s-0.6,2.4-1.6,2.4
			c-0.5,0-0.9-0.2-1.2-0.7h0V30h-0.8V24.3z M36.3,27.5c0.7,0,1-0.6,1-1.7S37,24,36.3,24s-1,0.6-1,1.7S35.6,27.5,36.3,27.5z"/>
		<path d="M42.2,27.1c0,0.3,0,0.7,0,1h-0.7l0-0.7h0c-0.2,0.5-0.6,0.7-1.2,0.7c-0.8,0-1.3-0.5-1.3-1.5v-3.2h0.8v3c0,0.7,0.3,1,0.8,1
			c0.6,0,1-0.4,1-1.2v-2.8h0.8V27.1z"/>
		<path d="M45.3,28c-0.2,0.1-0.4,0.1-0.6,0.1c-0.7,0-1.1-0.3-1.1-1.1v-3h-0.7v-0.6h0.7v-0.9l0.8-0.2v1.2h0.9v0.6h-0.9v2.7
			c0,0.5,0.1,0.7,0.5,0.7c0.2,0,0.3-0.1,0.5-0.1V28z"/>
		<path d="M50.1,21.8l2.1,6.3h-0.8l-0.5-1.6h-2.4l-0.5,1.6h-0.8l2.1-6.3H50.1z M50.6,25.7l-1-3.1h0l-1,3.1H50.6z"/>
		<path d="M52.9,27.1h0.8l-0.6,2.1h-0.7L52.9,27.1z"/>
		<path d="M55.1,21.8h1.6c1.2,0,1.7,0.7,1.7,1.6c0,0.7-0.4,1.2-1,1.4v0c0.7,0.1,1.2,0.7,1.2,1.6c0,0.9-0.6,1.7-2,1.7h-1.5V21.8z
			 M55.9,24.5h0.5c0.9,0,1.3-0.4,1.3-1.1c0-0.5-0.3-1-1.2-1h-0.6V24.5z M55.9,27.4h0.7c0.8,0,1.2-0.5,1.2-1.1c0-0.6-0.4-1.1-1.1-1.1
			h-0.8V27.4z"/>
		<path d="M59.2,27.1h0.8l-0.6,2.1h-0.7L59.2,27.1z"/>
		<path d="M64.7,23.4c1.2,0,1.8,0.9,1.8,2.4s-0.6,2.4-1.8,2.4c-1.2,0-1.8-0.9-1.8-2.4S63.5,23.4,64.7,23.4z M64.7,27.5
			c0.7,0,1.1-0.6,1.1-1.7S65.4,24,64.7,24c-0.7,0-1.1,0.6-1.1,1.7S64,27.5,64.7,27.5z"/>
		<path d="M67.4,24.5c0-0.3,0-0.7,0-1h0.7l0,0.7h0c0.2-0.6,0.6-0.8,1.3-0.8v0.7c-0.1,0-0.2,0-0.3,0c-0.6,0-1,0.5-1,1.5v2.4h-0.8
			V24.5z"/>
		<path d="M76.1,27.9c-0.4,0.1-0.8,0.2-1.1,0.2c-2,0-2.8-1.5-2.8-3.2c0-2,1.1-3.2,2.8-3.2c0.5,0,0.9,0.1,1.2,0.2v0.8
			c-0.3-0.2-0.7-0.3-1.2-0.3c-1,0-2,0.8-2,2.3c0,1.6,0.6,2.7,2,2.7c0.4,0,0.8-0.1,1.1-0.3V27.9z"/>
	</g>
	<g>
		<circle class="st6" cx="51.3" cy="11.9" r="6.8"/>
		<path class="st7" d="M47.1,11.9c0,2.4,1.9,4.3,4.3,4.3c2.3,0,4.3-1.9,4.3-4.3c0-2.4-1.9-4.3-4.3-4.3C49,7.6,47.1,9.5,47.1,11.9z"
			/>
	</g>
	<g>
		<g>
			<g>
				<g>
					<polyline class="st1" points="130.1,176.6 129.4,177 126.8,176.7 126.4,177.2 126.4,178.6 126.8,179 129.4,178.8 130.1,179.1 
											"/>
					<rect x="133.9" y="176.6" class="st1" width="5.7" height="2.5"/>
					<rect x="139.2" y="175.6" class="st1" width="0.7" height="4.5"/>
					<rect x="131.4" y="176.6" class="st1" width="1.9" height="2.5"/>
					<rect x="130.1" y="176.6" class="st1" width="0.7" height="2.5"/>
					<rect x="130.8" y="176.8" class="st1" width="0.6" height="2.1"/>
					
						<rect x="132.5" y="177.6" transform="matrix(2.366814e-03 -1 1 2.366814e-03 -44.6037 311.0297)" class="st1" width="2.1" height="0.6"/>
					<polyline class="st1" points="126.8,176.7 126.4,177.2 126.4,178.6 126.8,179 					"/>
					<g>
						<polygon class="st1" points="159,176.5 158.9,179.1 148.2,180.3 148.2,175.2 						"/>
						<polygon class="st1" points="148.2,175 149.8,175 149.8,177.1 150.5,177.1 150.5,175.1 152.1,175.2 152.1,177.1 153,177.1 
							153,175.3 154.3,175.4 154.3,177.1 155,177.1 155,175.4 156.6,175.6 156.5,177.1 157.2,177.1 157.2,175.6 159,175.7 
							158.9,179.7 157.2,179.8 157.2,178.4 156.5,178.4 156.5,179.9 155,180 155,178.4 154.3,178.4 154.3,180.1 153,180.2 
							153,178.4 152.1,178.4 152.1,180.2 150.5,180.4 150.5,178.4 149.8,178.4 149.8,180.4 148.2,180.4 						"/>
					</g>
					<polygon class="st1" points="148.2,180.7 139.9,180.7 139.9,174.8 148.2,174.8 					"/>
				</g>
			</g>
		</g>
	</g>
	<path class="st4" d="M112.8,167.6c0-2.2-1.8-4-4-4H77.2c-2.2,0-4,1.8-4,4v9l-4,3.9l4,3.8v8.7c0,2.2,1.8,4,4,4h31.6c2.2,0,4-1.8,4-4
		V167.6z"/>
	<g>
		<path d="M28.3,205.2c1.4,0,2.3,1.2,2.3,3.1c0,2.2-0.9,3.3-2.4,3.3c-1.4,0-2.3-1.2-2.3-3.1C25.9,206.3,26.8,205.2,28.3,205.2z
			 M28.2,211c0.8,0,1.5-0.7,1.5-2.6c0-1.3-0.4-2.5-1.5-2.5c-0.8,0-1.5,0.7-1.5,2.6C26.7,209.8,27.1,211,28.2,211z"/>
		<path d="M31.5,208c0-0.3,0-0.7,0-1h0.7l0,0.7h0c0.2-0.6,0.6-0.8,1.3-0.8v0.7c-0.1,0-0.2,0-0.3,0c-0.6,0-1,0.5-1,1.5v2.4h-0.8V208z
			"/>
		<path d="M34.1,204.8h0.8v2.8h0c0.3-0.5,0.6-0.7,1.2-0.7c0.9,0,1.6,0.8,1.6,2.4s-0.6,2.4-1.6,2.4c-0.7,0-1-0.4-1.2-0.7h0l0,0.7
			h-0.7c0-0.3,0-0.6,0-0.8V204.8z M35.9,211c0.7,0,1-0.6,1-1.7s-0.3-1.7-1-1.7c-0.7,0-1,0.6-1,1.7S35.2,211,35.9,211z"/>
		<path d="M39.4,205.1v0.9h-0.8v-0.9H39.4z M38.6,207h0.8v4.6h-0.8V207z"/>
		<path d="M42.6,211.5c-0.2,0.1-0.4,0.1-0.6,0.1c-0.7,0-1.1-0.3-1.1-1.1v-3h-0.7V207h0.7V206l0.8-0.2v1.2h0.9v0.6h-0.9v2.7
			c0,0.5,0.1,0.7,0.5,0.7c0.2,0,0.3-0.1,0.5-0.1V211.5z"/>
		<path d="M43.8,209.5c0,1.1,0.4,1.6,1.3,1.6c0.4,0,0.8-0.2,1.1-0.4l0,0.7c-0.4,0.2-0.8,0.3-1.3,0.3c-1.2,0-1.8-0.9-1.8-2.4
			s0.6-2.4,1.8-2.4c1,0,1.6,0.8,1.6,2.2v0.4H43.8z M45.6,208.9c0-1-0.3-1.4-0.9-1.4c-0.5,0-0.9,0.4-0.9,1.4H45.6z"/>
		<path d="M47.2,208c0-0.3,0-0.7,0-1h0.7l0,0.7h0c0.2-0.6,0.6-0.8,1.3-0.8v0.7c-0.1,0-0.2,0-0.3,0c-0.6,0-1,0.5-1,1.5v2.4h-0.8V208z
			"/>
		<path d="M52.2,205.3h1.6c0.7,0,1,0.2,1.3,0.4c0.3,0.3,0.5,0.7,0.5,1.2c0,0.7-0.3,1.3-1.2,1.5v0c0.4,0.1,0.6,0.3,0.7,0.6l0.9,2.5
			H55l-0.7-2.1c-0.2-0.5-0.4-0.7-1-0.7H53v2.8h-0.8V205.3z M53,208.1h0.6c0.8,0,1.2-0.6,1.2-1.1c0-0.7-0.5-1-1.2-1H53V208.1z"/>
		<path d="M57.3,209.5c0,1.1,0.4,1.6,1.3,1.6c0.4,0,0.8-0.2,1.1-0.4l0,0.7c-0.4,0.2-0.8,0.3-1.3,0.3c-1.2,0-1.8-0.9-1.8-2.4
			s0.6-2.4,1.8-2.4c1,0,1.6,0.8,1.6,2.2v0.4H57.3z M59.1,208.9c0-1-0.3-1.4-0.9-1.4c-0.5,0-0.9,0.4-0.9,1.4H59.1z"/>
		<path d="M63.4,207.8c-0.3-0.1-0.5-0.2-0.9-0.2c-0.7,0-1.3,0.5-1.3,1.8c0,1.1,0.5,1.7,1.2,1.7c0.4,0,0.7-0.1,0.9-0.2l0,0.7
			c-0.2,0.1-0.6,0.2-1,0.2c-1.4,0-2-1-2-2.3c0-1.5,0.8-2.4,2.1-2.4c0.3,0,0.7,0.1,0.9,0.2L63.4,207.8z"/>
		<path d="M64.8,209.5c0,1.1,0.4,1.6,1.3,1.6c0.4,0,0.8-0.2,1.1-0.4l0,0.7c-0.4,0.2-0.8,0.3-1.3,0.3c-1.2,0-1.8-0.9-1.8-2.4
			s0.6-2.4,1.8-2.4c1,0,1.6,0.8,1.6,2.2v0.4H64.8z M66.6,208.9c0-1-0.3-1.4-0.9-1.4c-0.5,0-0.9,0.4-0.9,1.4H66.6z"/>
		<path d="M69,205.1v0.9h-0.8v-0.9H69z M68.3,207H69v4.6h-0.8V207z"/>
		<path d="M69.7,207h0.8l1,3.8h0l1-3.8h0.8l-1.4,4.6h-0.9L69.7,207z"/>
		<path d="M74.6,209.5c0,1.1,0.4,1.6,1.3,1.6c0.4,0,0.8-0.2,1.1-0.4l0,0.7c-0.4,0.2-0.8,0.3-1.3,0.3c-1.2,0-1.8-0.9-1.8-2.4
			s0.6-2.4,1.8-2.4c1,0,1.6,0.8,1.6,2.2v0.4H74.6z M76.4,208.9c0-1-0.3-1.4-0.9-1.4c-0.5,0-0.9,0.4-0.9,1.4H76.4z"/>
		<path d="M78,208c0-0.3,0-0.7,0-1h0.7l0,0.7h0c0.2-0.6,0.6-0.8,1.3-0.8v0.7c-0.1,0-0.2,0-0.3,0c-0.6,0-1,0.5-1,1.5v2.4H78V208z"/>
	</g>
	<g>
		<path d="M83.9,187.6c1.4,0,2.3,1.2,2.3,3.1c0,2.2-0.9,3.3-2.4,3.3c-1.4,0-2.3-1.2-2.3-3.1C81.6,188.7,82.4,187.6,83.9,187.6z
			 M83.9,193.3c0.8,0,1.5-0.7,1.5-2.6c0-1.3-0.4-2.5-1.5-2.5c-0.8,0-1.5,0.7-1.5,2.6C82.4,192.1,82.8,193.3,83.9,193.3z"/>
		<path d="M87.2,190.3c0-0.3,0-0.7,0-1h0.7l0,0.7h0c0.2-0.6,0.6-0.8,1.3-0.8v0.7c-0.1,0-0.2,0-0.3,0c-0.6,0-1,0.5-1,1.5v2.4h-0.8
			V190.3z"/>
		<path d="M89.8,187.2h0.8v2.8h0c0.3-0.5,0.6-0.7,1.2-0.7c0.9,0,1.6,0.8,1.6,2.4s-0.6,2.4-1.6,2.4c-0.7,0-1-0.4-1.2-0.7h0l0,0.7
			h-0.7c0-0.3,0-0.6,0-0.8V187.2z M91.5,193.4c0.7,0,1-0.6,1-1.7s-0.3-1.7-1-1.7s-1,0.6-1,1.7S90.9,193.4,91.5,193.4z"/>
		<path d="M95,187.4v0.9h-0.8v-0.9H95z M94.3,189.3H95v4.6h-0.8V189.3z"/>
		<path d="M98.2,193.9c-0.2,0.1-0.4,0.1-0.6,0.1c-0.7,0-1.1-0.3-1.1-1.1v-3h-0.7v-0.6h0.7v-0.9l0.8-0.2v1.2h0.9v0.6h-0.9v2.7
			c0,0.5,0.1,0.7,0.5,0.7c0.2,0,0.3-0.1,0.5-0.1V193.9z"/>
		<path d="M99.4,191.9c0,1.1,0.4,1.6,1.3,1.6c0.4,0,0.8-0.2,1.1-0.4l0,0.7c-0.4,0.2-0.8,0.3-1.3,0.3c-1.2,0-1.8-0.9-1.8-2.4
			s0.6-2.4,1.8-2.4c1,0,1.6,0.8,1.6,2.2v0.4H99.4z M101.2,191.3c0-1-0.3-1.4-0.9-1.4c-0.5,0-0.9,0.4-0.9,1.4H101.2z"/>
		<path d="M102.8,190.3c0-0.3,0-0.7,0-1h0.7l0,0.7h0c0.2-0.6,0.6-0.8,1.3-0.8v0.7c-0.1,0-0.2,0-0.3,0c-0.6,0-1,0.5-1,1.5v2.4h-0.8
			V190.3z"/>
	</g>
	<g>
		<path class="st6" d="M87.5,177.7c0,3.8,3,6.8,6.8,6.8c3.8,0,6.8-3,6.8-6.8c0-3.8-3.1-6.8-6.8-6.8C90.6,170.9,87.5,174,87.5,177.7z
			"/>
		<path class="st7" d="M90.1,177.7c0,2.4,1.9,4.3,4.3,4.3c2.3,0,4.3-1.9,4.3-4.3c0-2.4-1.9-4.3-4.3-4.3
			C92,173.5,90.1,175.4,90.1,177.7z"/>
	</g>
	<g>
		<polygon class="st2" points="103,177.7 111.9,174 110.8,176.4 125.3,176.4 125.3,179 110.8,179 111.9,181.4 		"/>
		<path class="st3" d="M111.5,174.3l-1,2.3h14.6v2.2h-14.6l1,2.3l-8-3.4L111.5,174.3 M112.2,173.6l-0.8,0.4l-8,3.4l-0.8,0.3l0.8,0.3
			l8,3.4l0.8,0.4l-0.4-0.8l-0.8-1.8h14h0.4v-0.4v-2.2v-0.4h-0.4h-14l0.8-1.8L112.2,173.6L112.2,173.6z"/>
	</g>
</g>
<g id="orbiter">
	<g>
		<path class="st8" d="M61.5,198.1H44c0,0,0,0,0,0c-0.1,0-0.2,0.1-0.2,0.2v0l0,1.3v0c0,0.1-0.1,0.2-0.2,0.2h18.2
			c-0.1,0-0.2-0.1-0.2-0.2l0,0l0,0l0-1.3l0,0h0C61.7,198.2,61.6,198.1,61.5,198.1C61.5,198.1,61.5,198.1,61.5,198.1"/>
		<g>
			<path class="st8" d="M63.6,157.2c0-0.3-0.2-0.5-0.4-0.6l0,0l-0.3-0.1l0,0c-0.2-0.1-0.4-0.3-0.4-0.6l0-21.9l0,0
				c0-4-3.2-7.2-7.1-7.4l0,0l-2.2-0.1c0,0,0,0,0,0c-0.1,0-0.1,0-0.1,0.1l0,0v5.8h-0.4v-5.8v0c0-0.1,0-0.1-0.1-0.1v0l-2.2,0.1v0
				c-4,0.1-7.1,3.4-7.1,7.4v21.9c0,0.3-0.2,0.5-0.4,0.6v0l-0.3,0.1v0h0c-0.2,0.1-0.4,0.3-0.4,0.6v39.9v0c0,0.5,0.4,0.9,0.9,0.9v0
				l9.9,0.3l9.9-0.3v0c0.5,0,0.9-0.4,0.9-0.9v0L63.6,157.2L63.6,157.2z M56,188.8L56,188.8c0,0.3-0.1,0.6-0.1,0.9
				c-0.1,0.3-0.2,0.6-0.4,0.8c-0.3,0.5-0.8,0.9-1.3,1.2c-0.5,0.3-1.1,0.4-1.7,0.3c-0.6-0.1-1.2-0.3-1.7-0.7
				c-0.2-0.2-0.5-0.4-0.7-0.7c-0.2-0.3-0.3-0.5-0.5-0.8c-0.2-0.4-0.2-0.8-0.2-1.2c0-0.3,0-0.7,0-1c0-0.8,0-1.5,0-2.3
				c0-1.1,0-2.3,0-3.4c0-1.4,0-2.9,0-4.3c0-1.7,0-3.3,0-5c0-1.8,0-3.6,0-5.4c0-1.9,0-3.7,0-5.6c0-1.9,0-3.7,0-5.6c0-1.8,0-3.6,0-5.3
				c0-1.6,0-3.2,0-4.9c0-1.4,0-2.8,0-4.2c0-1.1,0-2.2,0-3.3c0-0.7,0-1.4,0-2.1c0-0.3,0-0.5,0-0.8c0-0.3,0.1-0.6,0.1-0.9
				c0.1-0.3,0.2-0.6,0.4-0.8c0.3-0.5,0.8-0.9,1.3-1.2c1.1-0.6,2.4-0.4,3.4,0.3c0.4,0.3,0.8,0.7,1,1.2c0.2,0.5,0.3,1,0.4,1.5V188.8z"
				/>
			<polygon class="st9" points="62.7,198.1 62.7,198.1 62.7,198.1 			"/>
		</g>
		<path class="st10" d="M44.2,198.1L44.2,198.1c0,0,0.1,0,0.2,0"/>
		<path class="st10" d="M61.2,198.1L61.2,198.1c0.1,0,0.1,0,0.2,0"/>
		<path class="st11" d="M51.5,167.9L51.5,167.9c0,0.7,0.6,1.2,1.2,1.2c0.7,0,1.2-0.5,1.2-1.2"/>
		<path class="st11" d="M51.5,174.4L51.5,174.4c0,0.7,0.6,1.2,1.2,1.2c0.7,0,1.2-0.5,1.2-1.2"/>
		<path class="st11" d="M51.5,180.8L51.5,180.8c0,0.7,0.6,1.2,1.2,1.2c0.7,0,1.2-0.5,1.2-1.2"/>
		<path class="st11" d="M51.5,161.5L51.5,161.5c0,0.7,0.6,1.2,1.2,1.2c0.7,0,1.2-0.5,1.2-1.2"/>
		<path class="st11" d="M51.5,155L51.5,155c0,0.7,0.6,1.2,1.2,1.2c0.7,0,1.2-0.5,1.2-1.2"/>
		<line class="st12" x1="52.5" y1="198.3" x2="52.5" y2="192.2"/>
		<line class="st12" x1="53" y1="192.2" x2="53" y2="198.3"/>
		<line class="st13" x1="53.4" y1="144.6" x2="53.4" y2="144.3"/>
		<line class="st13" x1="53.8" y1="144.6" x2="53.8" y2="144.3"/>
		<line class="st13" x1="53.9" y1="181.3" x2="53.9" y2="180.3"/>
		<line class="st13" x1="53.9" y1="174.9" x2="53.9" y2="173.9"/>
		<line class="st13" x1="53.9" y1="168.4" x2="53.9" y2="167.4"/>
		<line class="st13" x1="53.9" y1="162" x2="53.9" y2="161"/>
		<line class="st13" x1="53.9" y1="155.5" x2="53.9" y2="154.5"/>
		<path class="st14" d="M53.7,188.9L53.7,188.9c0-0.7-0.5-1.2-1.2-1.2c-0.7,0-1.2,0.5-1.2,1.2c0,0.7,0.5,1.2,1.2,1.2
			C53.1,190.1,53.7,189.5,53.7,188.9"/>
		<path class="st15" d="M52.7,188.9L52.7,188.9c0-0.2-0.1-0.3-0.3-0.3c-0.2,0-0.3,0.1-0.3,0.3c0,0.2,0.1,0.3,0.3,0.3
			C52.6,189.1,52.7,189,52.7,188.9"/>
		<path class="st8" d="M69.5,201.2c0.1,0,0.2-0.1,0.2-0.2l0,0v-1.1l0,0l0,0c0-0.1-0.1-0.2-0.2-0.2l0,0H36l0,0
			c-0.1,0-0.2,0.1-0.2,0.2v0v1.1v0l0,0c0,0.1,0.1,0.2,0.2,0.2l0,0L69.5,201.2L69.5,201.2z"/>
		<path class="st13" d="M53,198.3L53,198.3c0,0.1,0,0.1,0.1,0.1c0,0,0,0,0,0"/>
		<path class="st13" d="M52.4,198.4L52.4,198.4C52.4,198.4,52.4,198.4,52.4,198.4c0.1,0,0.1,0,0.1-0.1"/>
		<line class="st13" x1="53.9" y1="168" x2="53.9" y2="167.9"/>
		<line class="st13" x1="53.9" y1="174.4" x2="53.9" y2="174.4"/>
		<line class="st13" x1="53.9" y1="180.8" x2="53.9" y2="180.9"/>
		<path class="st13" d="M54.1,167.9c0-0.7-0.6-1.3-1.3-1.3c-0.7,0-1.3,0.6-1.3,1.3c0,0.7,0.6,1.3,1.3,1.3
			C53.5,169.2,54.1,168.6,54.1,167.9"/>
		<path class="st13" d="M54.1,174.4c0-0.7-0.6-1.3-1.3-1.3c-0.7,0-1.3,0.6-1.3,1.3c0,0.7,0.6,1.3,1.3,1.3
			C53.5,175.7,54.1,175.1,54.1,174.4"/>
		<path class="st16" d="M54.1,180.8c0-0.7-0.6-1.3-1.3-1.3c-0.7,0-1.3,0.6-1.3,1.3c0,0.7,0.6,1.3,1.3,1.3
			C53.5,182.1,54.1,181.5,54.1,180.8"/>
		<path class="st13" d="M53.9,167.5L53.9,167.5c-0.2-0.5-0.6-0.9-1.2-0.9c-0.7,0-1.2,0.6-1.2,1.2"/>
		<path class="st13" d="M53.9,174L53.9,174c-0.2-0.5-0.6-0.9-1.2-0.9c-0.7,0-1.2,0.6-1.2,1.2"/>
		<path class="st13" d="M53.9,180.5L53.9,180.5c-0.2-0.5-0.6-0.9-1.2-0.9c-0.7,0-1.2,0.6-1.2,1.2"/>
		<path class="st13" d="M53.9,180.8L53.9,180.8c0-0.7-0.5-1.2-1.2-1.2c-0.7,0-1.2,0.5-1.2,1.2c0,0.7,0.5,1.2,1.2,1.2
			C53.4,182,53.9,181.5,53.9,180.8"/>
		<path class="st14" d="M53.9,174.4L53.9,174.4c0-0.7-0.5-1.2-1.2-1.2c-0.7,0-1.2,0.5-1.2,1.2c0,0.7,0.5,1.2,1.2,1.2
			C53.4,175.6,53.9,175,53.9,174.4"/>
		<path class="st14" d="M53.9,167.9L53.9,167.9c0-0.7-0.5-1.2-1.2-1.2c-0.7,0-1.2,0.5-1.2,1.2c0,0.7,0.5,1.2,1.2,1.2
			C53.4,169.1,53.9,168.6,53.9,167.9"/>
		<path d="M53.4,180.8c0-0.4-0.3-0.7-0.7-0.7c-0.4,0-0.7,0.3-0.7,0.7s0.3,0.7,0.7,0.7C53.1,181.5,53.4,181.2,53.4,180.8"/>
		<path d="M53.4,174.4c0-0.4-0.3-0.7-0.7-0.7c-0.4,0-0.7,0.3-0.7,0.7c0,0.4,0.3,0.7,0.7,0.7C53.1,175,53.4,174.7,53.4,174.4"/>
		<path d="M53.4,167.9c0-0.4-0.3-0.7-0.7-0.7c-0.4,0-0.7,0.3-0.7,0.7s0.3,0.7,0.7,0.7C53.1,168.6,53.4,168.3,53.4,167.9"/>
		<line class="st13" x1="53.9" y1="161.5" x2="53.9" y2="161.5"/>
		<line class="st13" x1="53.9" y1="155.1" x2="53.9" y2="155"/>
		<path class="st13" d="M54.1,148.5L54.1,148.5c0-0.7-0.6-1.3-1.3-1.3c-0.7,0-1.3,0.6-1.3,1.3c0,0.7,0.6,1.3,1.3,1.3
			C53.5,149.8,54.1,149.3,54.1,148.5"/>
		<path class="st13" d="M54.1,155L54.1,155c0-0.7-0.6-1.3-1.3-1.3c-0.7,0-1.3,0.6-1.3,1.3c0,0.7,0.6,1.3,1.3,1.3
			C53.5,156.3,54.1,155.7,54.1,155"/>
		<path class="st13" d="M54.1,161.5c0-0.7-0.6-1.3-1.3-1.3c-0.7,0-1.3,0.6-1.3,1.3c0,0.7,0.6,1.3,1.3,1.3
			C53.5,162.8,54.1,162.2,54.1,161.5"/>
		<path class="st13" d="M53.9,161.1L53.9,161.1c-0.2-0.5-0.6-0.9-1.2-0.9c-0.7,0-1.2,0.6-1.2,1.2"/>
		<path class="st13" d="M53.9,154.6L53.9,154.6c-0.2-0.5-0.6-0.9-1.2-0.9c-0.7,0-1.2,0.6-1.2,1.2"/>
		<path class="st13" d="M53.9,148.2L53.9,148.2c-0.2-0.5-0.6-0.9-1.2-0.9c-0.7,0-1.2,0.6-1.2,1.2l0,0c0,0.7,0.6,1.2,1.2,1.2
			c0.7,0,1.2-0.5,1.2-1.2"/>
		<path class="st14" d="M53.9,161.5L53.9,161.5c0-0.7-0.5-1.2-1.2-1.2c-0.7,0-1.2,0.5-1.2,1.2c0,0.7,0.5,1.2,1.2,1.2
			C53.4,162.7,53.9,162.1,53.9,161.5"/>
		<path class="st14" d="M53.9,155L53.9,155c0-0.7-0.5-1.2-1.2-1.2c-0.7,0-1.2,0.5-1.2,1.2c0,0.7,0.5,1.2,1.2,1.2
			C53.4,156.2,53.9,155.7,53.9,155"/>
		<path class="st14" d="M53.9,148.5L53.9,148.5c0-0.7-0.5-1.2-1.2-1.2c-0.7,0-1.2,0.5-1.2,1.2c0,0.7,0.5,1.2,1.2,1.2
			C53.4,149.7,53.9,149.2,53.9,148.5"/>
		<path d="M53.4,161.5c0-0.4-0.3-0.7-0.7-0.7c-0.4,0-0.7,0.3-0.7,0.7c0,0.4,0.3,0.7,0.7,0.7C53.1,162.1,53.4,161.8,53.4,161.5"/>
		<path d="M53.4,155L53.4,155c0-0.4-0.3-0.7-0.7-0.7c-0.4,0-0.7,0.3-0.7,0.7c0,0.4,0.3,0.7,0.7,0.7C53.1,155.7,53.4,155.4,53.4,155"
			/>
		<path d="M53.4,148.5L53.4,148.5c0-0.4-0.3-0.7-0.7-0.7c-0.4,0-0.7,0.3-0.7,0.7c0,0.4,0.3,0.7,0.7,0.7
			C53.1,149.2,53.4,148.9,53.4,148.5"/>
		<path class="st15" d="M53.9,144.5c0-0.2-0.1-0.3-0.3-0.3c-0.2,0-0.3,0.1-0.3,0.3s0.1,0.3,0.3,0.3
			C53.8,144.8,53.9,144.6,53.9,144.5"/>
		<path class="st12" d="M53,126.7L53,126.7c-0.1,0-0.3,0-0.4,0.1"/>
		<path class="st17" d="M53.1,192.7c0.6-0.1,1.2-0.3,1.7-0.6c0.5-0.3,0.9-0.8,1.2-1.3c0.4-0.7,0.6-1.4,0.6-2.2c0-0.4,0-0.9,0-1.3
			c0-0.9,0-1.7,0-2.6c0-1.2,0-2.4,0-3.6c0-1.5,0-3,0-4.5c0-1.7,0-3.4,0-5.1c0-1.8,0-3.6,0-5.5c0-1.9,0-3.7,0-5.6c0-1.8,0-3.7,0-5.5
			c0-1.7,0-3.5,0-5.2c0-1.6,0-3.1,0-4.7c0-1.3,0-2.7,0-4c0-1,0-2,0-3c0-0.6,0-1.2,0-1.8c0-0.4,0-0.8-0.1-1.3c-0.3-1.2-1-2.2-2.1-2.7
			c-0.3-0.1-0.6-0.2-0.8-0.3c-0.1,0-0.3,0-0.4-0.1c0,0-0.1,0-0.1,0"/>
		<polyline class="st13" points="53,192.6 53,192.7 53,192.7 53,192.7 53,192.7 53,192.7 53,192.7 53,192.7 53,192.7 53,192.7 
			53,192.7 53,192.7 53.1,192.7 53.1,192.7 		"/>
		<path class="st17" d="M53,128.6c0-0.1,0.1-0.1,0.2-0.1c0.2,0,0.3,0,0.5,0c0.3,0,0.6,0.1,0.9,0.2c0.6,0.1,1.2,0.4,1.7,0.7
			c0.5,0.3,1,0.6,1.4,1c0.4,0.4,0.9,0.9,1.2,1.4c0.2,0.3,0.3,0.6,0.5,0.9c0.1,0.3,0.2,0.6,0.3,0.9c0.2,0.5,0.3,1.2,0.3,1.7
			c0,0.1,0,0.3,0,0.4c0,0.2,0,0.4,0,0.7c0,0.6,0,1.2,0,1.9c0,1,0,1.9,0,2.9c0,1.3,0,2.5,0,3.8c0,1.5,0,3,0,4.5c0,1.7,0,3.3,0,5
			c0,1.8,0,3.6,0,5.4c0,1.9,0,3.7,0,5.6c0,1.9,0,3.7,0,5.6c0,1.8,0,3.7,0,5.5c0,1.7,0,3.5,0,5.2c0,1.6,0,3.1,0,4.7
			c0,1.4,0,2.7,0,4.1c0,1.1,0,2.2,0,3.3c0,0.8,0,1.6,0,2.3c0,0.4,0,0.8,0,1.2c0,0,0,0.1,0,0.1c0,0.5-0.4,0.9-0.9,0.9"/>
		<path class="st17" d="M63.6,157.2c0,0.1,0,0.3,0,0.4c-0.1,1.2-0.2,2.4-0.3,3.7c-0.1,1.3-0.2,2.5-0.2,3.8c-0.1,1.2-0.1,2.5-0.2,3.7
			c-0.1,1.1-0.1,2.2-0.2,3.3c-0.1,1.3-0.1,2.6-0.2,3.9c0,1.3-0.1,2.7-0.1,4c0,1.2-0.1,2.3-0.1,3.5c0,1.2-0.1,2.4-0.1,3.6
			c0,1.3-0.1,2.6-0.1,4c0,1.1,0,2.2,0,3.3c0,0.8,0,1.6,0,2.4c0,0.2,0,0.4-0.1,0.6c-0.1,0.3-0.3,0.4-0.6,0.5"/>
		<path class="st17" d="M62.4,156c-0.1,1.2-0.2,2.4-0.3,3.6c-0.1,1.3-0.2,2.5-0.3,3.8c-0.1,1.2-0.2,2.4-0.2,3.6
			c-0.1,1.3-0.1,2.6-0.2,3.9c-0.1,1.1-0.1,2.3-0.2,3.4c-0.1,1.4-0.1,2.7-0.2,4.1c0,1.3-0.1,2.6-0.1,3.9c0,1.1-0.1,2.2-0.1,3.3
			c0,1.3-0.1,2.7-0.1,4c0,1.1,0,2.3-0.1,3.4c0,1.3,0,2.7,0,4c0,0.1,0,0.1,0,0.2c0,0.5-0.4,0.9-0.9,1"/>
		<polyline class="st13" points="52.4,192.7 52.4,192.7 52.5,192.7 52.5,192.7 52.5,192.7 52.5,192.7 52.5,192.7 52.5,192.7 
			52.5,192.7 52.5,192.7 52.5,192.7 52.5,192.7 52.5,192.7 52.5,192.6 		"/>
		<path class="st17" d="M45.7,198.2c-0.5-0.1-0.9-0.5-0.9-1c0-1.2,0-2.5,0-3.7c0-1.2,0-2.5-0.1-3.7c0-1.3-0.1-2.5-0.1-3.8
			c0-1.2-0.1-2.4-0.1-3.6c0-1.2-0.1-2.4-0.1-3.6c-0.1-1.4-0.1-2.7-0.2-4.1c-0.1-1.2-0.1-2.5-0.2-3.7c-0.1-1.2-0.1-2.4-0.2-3.5
			c-0.1-1.2-0.1-2.4-0.2-3.7c-0.1-1.3-0.2-2.5-0.3-3.8c-0.1-1.2-0.2-2.5-0.3-3.7c0-0.1,0-0.2,0-0.3"/>
		<path class="st17" d="M52.5,131.9c0-0.1-0.1-0.1-0.1,0c-0.2,0-0.3,0-0.5,0.1c-0.3,0.1-0.6,0.2-0.9,0.3c-0.5,0.2-1,0.7-1.4,1.1
			c-0.5,0.7-0.8,1.6-0.8,2.4c0,0.4,0,0.8,0,1.2c0,0.8,0,1.6,0,2.5c0,1.2,0,2.4,0,3.5c0,1.5,0,2.9,0,4.4c0,1.7,0,3.3,0,5
			c0,1.8,0,3.6,0,5.4c0,1.9,0,3.7,0,5.6c0,1.9,0,3.7,0,5.6c0,1.8,0,3.5,0,5.3c0,1.6,0,3.2,0,4.8c0,1.4,0,2.7,0,4.1c0,1,0,2.1,0,3.1
			c0,0.7,0,1.3,0,2c0,0.3,0,0.7,0,1c0.1,0.6,0.2,1.2,0.6,1.7c0.3,0.5,0.7,0.9,1.3,1.2c0.5,0.3,1,0.5,1.6,0.5"/>
		<path class="st17" d="M52.5,128.6c0-0.2-0.3-0.1-0.4-0.1c-0.2,0-0.5,0-0.7,0.1c-0.4,0.1-0.8,0.2-1.3,0.4c-0.8,0.3-1.6,0.7-2.2,1.3
			c-0.3,0.3-0.6,0.6-0.9,0.9c-0.3,0.3-0.5,0.7-0.7,1.1c-0.4,0.8-0.7,1.6-0.8,2.5c-0.1,0.9-0.1,1.8-0.1,2.7c0,0.9,0,1.8,0,2.8
			c0,1.9,0,3.7,0,5.6c0,3.7,0,7.5,0,11.2c0,3.7,0,7.4,0,11.2c0,3.7,0,7.5,0,11.2c0,3.7,0,7.5,0,11.2c0,1.5,0,3,0,4.5
			c0,0.7,0,1.5,0,2.2c0,0.3,0,0.5,0.2,0.7c0.2,0.2,0.4,0.3,0.7,0.3"/>
		<path class="st17" d="M42,157.3c0.1,1.2,0.2,2.4,0.3,3.6c0.1,1.2,0.2,2.5,0.2,3.7c0.1,1.2,0.1,2.4,0.2,3.6
			c0.1,1.2,0.1,2.4,0.2,3.7c0.1,1.3,0.1,2.5,0.2,3.8c0.1,1.4,0.1,2.7,0.1,4.1c0,1.1,0.1,2.2,0.1,3.3c0,1.3,0.1,2.7,0.1,4
			c0,1.2,0,2.4,0.1,3.5c0,1.2,0,2.5,0,3.7c0,0.7,0,1.5,0,2.2c0,0.2,0,0.5,0,0.7c0,0.3,0.2,0.6,0.4,0.7c0.1,0.1,0.2,0.1,0.3,0.1"/>
		<line class="st13" x1="52.7" y1="194.8" x2="52.7" y2="194.8"/>
		<path class="st13" d="M52.9,188.9L52.9,188.9c0-0.3-0.2-0.5-0.5-0.5c-0.3,0-0.5,0.2-0.5,0.5c0,0.3,0.2,0.5,0.5,0.5
			C52.7,189.4,52.9,189.1,52.9,188.9"/>
		<path d="M52.7,188.9L52.7,188.9c0-0.2-0.1-0.3-0.3-0.3c-0.2,0-0.3,0.1-0.3,0.3c0,0.2,0.1,0.3,0.3,0.3
			C52.6,189.2,52.7,189,52.7,188.9"/>
		<g>
			<path d="M52.8,179.3c0.9,0,1.6,0.7,1.6,1.6c0,0.9-0.7,1.6-1.6,1.6c-0.9,0-1.6-0.7-1.6-1.6C51.2,180,51.9,179.3,52.8,179.3
				 M52.8,179.2c-0.9,0-1.6,0.7-1.6,1.6c0,0.9,0.7,1.6,1.6,1.6c0.9,0,1.6-0.7,1.6-1.6C54.4,179.9,53.6,179.2,52.8,179.2L52.8,179.2z
				"/>
		</g>
		<g>
			<path d="M52.8,172.8c0.9,0,1.6,0.7,1.6,1.6c0,0.9-0.7,1.6-1.6,1.6c-0.9,0-1.6-0.7-1.6-1.6C51.2,173.5,51.9,172.8,52.8,172.8
				 M52.8,172.7c-0.9,0-1.6,0.7-1.6,1.6c0,0.9,0.7,1.6,1.6,1.6c0.9,0,1.6-0.7,1.6-1.6C54.4,173.5,53.6,172.7,52.8,172.7L52.8,172.7z
				"/>
		</g>
		<g>
			<path d="M52.8,166.4c0.9,0,1.6,0.7,1.6,1.6c0,0.9-0.7,1.6-1.6,1.6c-0.9,0-1.6-0.7-1.6-1.6C51.2,167.1,51.9,166.4,52.8,166.4
				 M52.8,166.3c-0.9,0-1.6,0.7-1.6,1.6c0,0.9,0.7,1.6,1.6,1.6c0.9,0,1.6-0.7,1.6-1.6C54.4,167,53.6,166.3,52.8,166.3L52.8,166.3z"
				/>
		</g>
		<g>
			<path d="M52.8,159.9c0.9,0,1.6,0.7,1.6,1.6c0,0.9-0.7,1.6-1.6,1.6c-0.9,0-1.6-0.7-1.6-1.6C51.2,160.6,51.9,159.9,52.8,159.9
				 M52.8,159.8c-0.9,0-1.6,0.7-1.6,1.6c0,0.9,0.7,1.6,1.6,1.6c0.9,0,1.6-0.7,1.6-1.6C54.4,160.6,53.6,159.8,52.8,159.8L52.8,159.8z
				"/>
		</g>
		<g>
			<path d="M52.8,153.4c0.9,0,1.6,0.7,1.6,1.6c0,0.9-0.7,1.6-1.6,1.6c-0.9,0-1.6-0.7-1.6-1.6C51.2,154.1,51.9,153.4,52.8,153.4
				 M52.8,153.4c-0.9,0-1.6,0.7-1.6,1.6c0,0.9,0.7,1.6,1.6,1.6c0.9,0,1.6-0.7,1.6-1.6C54.4,154.1,53.6,153.4,52.8,153.4L52.8,153.4z
				"/>
		</g>
		<path class="st18" d="M51.1,148.5c0-0.9,0.7-1.6,1.6-1.6c0.9,0,1.6,0.7,1.6,1.6c0,0.9-0.7,1.6-1.6,1.6"/>
		<line class="st13" x1="52.8" y1="194.8" x2="52.8" y2="194.8"/>
		<g>
			<path d="M50.9,185.4L50.9,185.4l-0.1,0.1l0-0.1L50.9,185.4L50.9,185.4L51,186h-0.1V185.4z"/>
			<path d="M51.6,185.4h-0.2l0,0.2c0,0,0,0,0.1,0c0,0,0.1,0,0.1,0c0,0,0.1,0.1,0.1,0.2c0,0.1-0.1,0.2-0.2,0.2c-0.1,0-0.1,0-0.2,0
				l0-0.1c0,0,0.1,0,0.1,0c0.1,0,0.1-0.1,0.1-0.1c0-0.1-0.1-0.1-0.2-0.1c0,0-0.1,0-0.1,0l0-0.3L51.6,185.4L51.6,185.4z"/>
			<path d="M51.9,186l-0.2-0.6h0.1l0.1,0.3C51.9,185.7,52,185.8,51.9,186L51.9,186c0.1-0.2,0.1-0.2,0.1-0.3l0.1-0.3h0.1L51.9,186
				L51.9,186z"/>
			<path d="M52.6,185.3c0.1,0,0.1,0,0.2,0c0.1,0,0.2,0,0.3,0.1c0.1,0.1,0.1,0.1,0.1,0.2c0,0.1,0,0.2-0.1,0.3
				c-0.1,0.1-0.2,0.1-0.3,0.1c-0.1,0-0.1,0-0.2,0V185.3z M52.6,185.9C52.7,185.9,52.7,185.9,52.6,185.9c0.3,0,0.4-0.1,0.4-0.3
				c0-0.2-0.1-0.2-0.3-0.2c0,0-0.1,0-0.1,0V185.9z"/>
			<path d="M53.7,185.9c0,0-0.1,0-0.2,0c-0.2,0-0.3-0.1-0.3-0.3c0-0.2,0.1-0.3,0.3-0.3c0.1,0,0.1,0,0.2,0l0,0.1c0,0-0.1,0-0.1,0
				c-0.2,0-0.3,0.1-0.3,0.3c0,0.2,0.1,0.3,0.2,0.3C53.5,185.9,53.6,185.9,53.7,185.9L53.7,185.9z"/>
			<path d="M51.5,186.3c0,0,0.1,0,0.2,0c0.1,0,0.1,0,0.2,0.1c0,0,0.1,0.1,0.1,0.1c0,0.1,0,0.1,0,0.1c0,0-0.1,0.1-0.2,0.1
				c0,0,0,0-0.1,0v0.3h-0.1V186.3z M51.5,186.6C51.6,186.6,51.6,186.6,51.5,186.6c0.2,0,0.2,0,0.2-0.1c0-0.1-0.1-0.1-0.2-0.1
				c0,0-0.1,0-0.1,0V186.6z"/>
			<path d="M52.1,186.9l-0.2-0.6H52l0.1,0.3C52.1,186.7,52.1,186.7,52.1,186.9L52.1,186.9c0.1-0.2,0.1-0.2,0.1-0.3l0.1-0.3h0.1
				l0.1,0.3c0,0.1,0,0.2,0,0.2h0c0-0.1,0-0.1,0.1-0.2l0.1-0.3h0.1l-0.2,0.6h-0.1l-0.1-0.3c0-0.1,0-0.1,0-0.2h0c0,0.1,0,0.1,0,0.2
				L52.1,186.9L52.1,186.9z"/>
			<path d="M52.8,186.3c0,0,0.1,0,0.2,0c0.1,0,0.1,0,0.2,0.1c0,0,0.1,0.1,0.1,0.1c0,0.1-0.1,0.1-0.1,0.2v0c0.1,0,0.1,0.1,0.1,0.1
				c0,0.1,0,0.2,0,0.2h-0.1c0,0,0-0.1,0-0.2c0-0.1-0.1-0.1-0.1-0.1h-0.1v0.3h-0.1V186.3z M52.9,186.6L52.9,186.6
				c0.2,0,0.2,0,0.2-0.1c0-0.1-0.1-0.1-0.1-0.1c0,0-0.1,0-0.1,0V186.6z"/>
		</g>
		<rect x="50.2" y="145.4" width="5.1" height="1"/>
		<g>
			<path d="M52.2,177.2l-0.2-0.6h0.1l0.1,0.3C52.3,177,52.3,177.1,52.2,177.2L52.2,177.2c0.1-0.2,0.1-0.2,0.1-0.3l0.1-0.3h0.1
				L52.2,177.2L52.2,177.2z"/>
			<path d="M52.7,177l-0.1,0.2h-0.1l0.2-0.6h0.1l0.2,0.6H53l-0.1-0.2H52.7z M52.9,177l-0.1-0.2c0,0,0-0.1,0-0.1h0c0,0,0,0.1,0,0.1
				l-0.1,0.2H52.9z"/>
			<path d="M53.2,176.6c0,0,0.1,0,0.2,0c0.1,0,0.1,0,0.2,0.1c0,0,0.1,0.1,0.1,0.1c0,0.1-0.1,0.1-0.1,0.2v0c0,0,0.1,0.1,0.1,0.1
				c0,0.1,0,0.2,0,0.2h-0.1c0,0,0-0.1,0-0.2c0-0.1-0.1-0.1-0.1-0.1h-0.1v0.3h-0.1V176.6z M53.3,176.9L53.3,176.9
				c0.2,0,0.2,0,0.2-0.1c0-0.1-0.1-0.1-0.1-0.1c0,0-0.1,0-0.1,0V176.9z"/>
		</g>
		<polyline class="st19" points="55.3,184.3 50.2,184.3 50.2,164.6 55.3,164.6 55.3,145.4 50.2,145.4 		"/>
		<g>
			<path d="M51.9,170.1L51.9,170.1l0.1,0.6h0.3v0.1h-0.4V170.1z"/>
			<path d="M52.5,170.1v0.6h-0.1L52.5,170.1L52.5,170.1z"/>
			<path d="M52.6,170.8v-0.6h0.1l0.2,0.3c0,0.1,0.1,0.1,0.1,0.2l0,0c0-0.1,0-0.2,0-0.3v-0.3h0.1v0.6H53l-0.2-0.3
				c0-0.1-0.1-0.1-0.1-0.2l0,0c0,0.1,0,0.2,0,0.3L52.6,170.8L52.6,170.8z"/>
			<path d="M53.6,170.5h-0.3v0.2h0.3v0.1h-0.4v-0.6h0.3v0.1h-0.3v0.2L53.6,170.5L53.6,170.5z"/>
		</g>
		<g>
			<path d="M54.3,150.3L54.3,150.3l-0.1,0.1l0-0.1L54.3,150.3L54.3,150.3l0.1,0.5h-0.1V150.3z"/>
		</g>
		<g>
			<path d="M54,157.3L54,157.3l0.1-0.1c0.2-0.2,0.2-0.2,0.2-0.3c0-0.1,0-0.1-0.1-0.1c-0.1,0-0.1,0-0.1,0.1l0-0.1
				c0,0,0.1-0.1,0.2-0.1c0.1,0,0.2,0.1,0.2,0.2c0,0.1-0.1,0.2-0.2,0.3l-0.1,0v0h0.3v0.1H54z"/>
		</g>
		<g>
			<path d="M54.1,163.7c0,0,0.1,0,0.1,0c0.1,0,0.1-0.1,0.1-0.1c0-0.1-0.1-0.1-0.2-0.1h0v-0.1h0c0.1,0,0.1,0,0.1-0.1
				c0,0,0-0.1-0.1-0.1c-0.1,0-0.1,0-0.1,0l0-0.1c0,0,0.1,0,0.2,0c0.1,0,0.2,0.1,0.2,0.1c0,0.1,0,0.1-0.1,0.1v0
				c0.1,0,0.1,0.1,0.1,0.2c0,0.1-0.1,0.2-0.2,0.2C54.2,163.8,54.2,163.8,54.1,163.7L54.1,163.7z"/>
		</g>
		<g>
			<path d="M51.8,183.4c0,0.2-0.1,0.3-0.3,0.3c-0.2,0-0.3-0.1-0.3-0.3c0-0.2,0.1-0.3,0.3-0.3C51.7,183,51.8,183.2,51.8,183.4z
				 M51.3,183.4c0,0.1,0.1,0.3,0.2,0.3s0.2-0.1,0.2-0.3c0-0.1-0.1-0.3-0.2-0.3S51.3,183.2,51.3,183.4z"/>
			<path d="M51.9,183.1c0,0,0.1,0,0.2,0c0.1,0,0.1,0,0.2,0.1c0,0,0.1,0.1,0.1,0.1c0,0.1-0.1,0.1-0.1,0.2v0c0,0,0.1,0.1,0.1,0.1
				c0,0.1,0,0.2,0,0.2h-0.1c0,0,0-0.1,0-0.2c0-0.1-0.1-0.1-0.1-0.1H52v0.3h-0.1V183.1z M52,183.4L52,183.4c0.2,0,0.2,0,0.2-0.1
				c0-0.1-0.1-0.1-0.1-0.1c0,0-0.1,0-0.1,0V183.4z"/>
			<path d="M52.4,183.1c0,0,0.1,0,0.2,0c0.1,0,0.1,0,0.2,0c0,0,0.1,0.1,0.1,0.1c0,0.1,0,0.1-0.1,0.1v0c0.1,0,0.1,0.1,0.1,0.2
				c0,0.1,0,0.1-0.1,0.1c0,0-0.1,0.1-0.2,0.1c-0.1,0-0.1,0-0.1,0V183.1z M52.5,183.3L52.5,183.3c0.2,0,0.2,0,0.2-0.1
				c0-0.1-0.1-0.1-0.1-0.1c0,0-0.1,0-0.1,0V183.3z M52.5,183.6C52.5,183.6,52.6,183.6,52.5,183.6c0.2,0,0.2,0,0.2-0.1
				c0-0.1-0.1-0.1-0.2-0.1h-0.1V183.6z"/>
			<path d="M53,183.1v0.6H53L53,183.1L53,183.1z"/>
			<path d="M53.3,183.1h-0.2v-0.1h0.5v0.1H53.3l0.1,0.6h-0.1V183.1z"/>
			<path d="M54,183.4h-0.3v0.2H54v0.1h-0.4v-0.6H54v0.1h-0.3v0.2L54,183.4L54,183.4z"/>
			<path d="M54.2,183.1c0,0,0.1,0,0.2,0c0.1,0,0.1,0,0.2,0.1c0,0,0.1,0.1,0.1,0.1c0,0.1-0.1,0.1-0.1,0.2v0c0.1,0,0.1,0.1,0.1,0.1
				c0,0.1,0,0.2,0,0.2h-0.1c0,0,0-0.1,0-0.2c0-0.1-0.1-0.1-0.1-0.1h-0.1v0.3h-0.1V183.1z M54.2,183.4L54.2,183.4
				c0.2,0,0.2,0,0.2-0.1c0-0.1-0.1-0.1-0.1-0.1c0,0-0.1,0-0.1,0V183.4z"/>
		</g>
		<rect x="50.3" y="164.6" width="5.1" height="1"/>
		<g>
			<path class="st3" d="M51.3,145.6v0.7h-0.1L51.3,145.6L51.3,145.6z"/>
			<path class="st3" d="M51.5,146.3v-0.7h0.1l0.2,0.3c0.1,0.1,0.1,0.2,0.1,0.2l0,0c0-0.1,0-0.2,0-0.3v-0.3H52v0.7h-0.1l-0.2-0.3
				c0-0.1-0.1-0.2-0.1-0.2l0,0c0,0.1,0,0.2,0,0.3L51.5,146.3L51.5,146.3z"/>
			<path class="st3" d="M52.1,145.6c0,0,0.1,0,0.2,0c0.1,0,0.1,0,0.2,0.1c0,0,0.1,0.1,0.1,0.1c0,0.1,0,0.1-0.1,0.1
				c0,0-0.1,0.1-0.2,0.1c0,0,0,0-0.1,0v0.3h-0.1V145.6z M52.2,145.9C52.3,145.9,52.3,145.9,52.2,145.9c0.2,0,0.2,0,0.2-0.1
				c0-0.1-0.1-0.1-0.2-0.1c0,0-0.1,0-0.1,0V145.9z"/>
			<path class="st3" d="M52.8,145.6v0.4c0,0.2,0.1,0.2,0.2,0.2c0.1,0,0.2-0.1,0.2-0.2v-0.4h0.1v0.4c0,0.2-0.1,0.3-0.3,0.3
				c-0.1,0-0.2-0.1-0.2-0.3L52.8,145.6L52.8,145.6z"/>
			<path class="st3" d="M53.5,145.7h-0.2v-0.1h0.5v0.1H53.5l0.1,0.6h-0.1V145.7z"/>
			<path class="st3" d="M53.9,146.2c0,0,0.1,0,0.2,0c0.1,0,0.1,0,0.1-0.1c0-0.1,0-0.1-0.1-0.1c-0.1,0-0.2-0.1-0.2-0.2
				c0-0.1,0.1-0.2,0.2-0.2c0.1,0,0.1,0,0.1,0l0,0.1c0,0-0.1,0-0.1,0c-0.1,0-0.1,0.1-0.1,0.1c0,0.1,0,0.1,0.1,0.1
				c0.1,0,0.2,0.1,0.2,0.2c0,0.1-0.1,0.2-0.2,0.2C54,146.3,53.9,146.3,53.9,146.2L53.9,146.2z"/>
		</g>
		<g>
			<path class="st3" d="M51.3,165.1c0,0.2-0.1,0.4-0.3,0.4c-0.2,0-0.3-0.1-0.3-0.3c0-0.2,0.1-0.4,0.3-0.4
				C51.2,164.7,51.3,164.9,51.3,165.1z M50.8,165.1c0,0.1,0.1,0.3,0.2,0.3s0.2-0.1,0.2-0.3c0-0.1-0.1-0.3-0.2-0.3
				S50.8,164.9,50.8,165.1z"/>
			<path class="st3" d="M51.5,164.7v0.4c0,0.2,0.1,0.2,0.2,0.2c0.1,0,0.2-0.1,0.2-0.2v-0.4h0.1v0.4c0,0.2-0.1,0.3-0.3,0.3
				c-0.1,0-0.2-0.1-0.2-0.3L51.5,164.7L51.5,164.7z"/>
			<path class="st3" d="M52.2,164.8H52v-0.1h0.5v0.1H52.2l0.1,0.6h-0.1V164.8z"/>
			<path class="st3" d="M52.6,164.7c0,0,0.1,0,0.2,0c0.1,0,0.1,0,0.2,0.1c0,0,0.1,0.1,0.1,0.1c0,0.1,0,0.1-0.1,0.1
				c0,0-0.1,0.1-0.2,0.1c0,0,0,0-0.1,0v0.3h-0.1V164.7z M52.7,165.1C52.7,165.1,52.8,165.1,52.7,165.1c0.2,0,0.2,0,0.2-0.1
				c0-0.1-0.1-0.1-0.2-0.1c0,0-0.1,0-0.1,0V165.1z"/>
			<path class="st3" d="M53.3,164.7v0.4c0,0.2,0.1,0.2,0.2,0.2c0.1,0,0.2-0.1,0.2-0.2v-0.4h0.1v0.4c0,0.2-0.1,0.3-0.3,0.3
				c-0.1,0-0.2-0.1-0.2-0.3L53.3,164.7L53.3,164.7z"/>
			<path class="st3" d="M54,164.8h-0.2v-0.1h0.5v0.1H54l0.1,0.6H54V164.8z"/>
			<path class="st3" d="M54.4,165.3c0,0,0.1,0,0.2,0c0.1,0,0.1,0,0.1-0.1c0-0.1,0-0.1-0.1-0.1c-0.1,0-0.2-0.1-0.2-0.2
				c0-0.1,0.1-0.2,0.2-0.2c0.1,0,0.1,0,0.1,0l0,0.1c0,0-0.1,0-0.1,0c-0.1,0-0.1,0.1-0.1,0.1c0,0.1,0,0.1,0.1,0.1
				c0.1,0,0.2,0.1,0.2,0.2c0,0.1-0.1,0.2-0.2,0.2C54.5,165.4,54.4,165.4,54.4,165.3L54.4,165.3z"/>
		</g>
	</g>
	<g>
		<path class="st20" d="M34.5,156.9c0,0,3.2,1.6,3.2,5.6c0,4-3.2,5.3-3.2,5.3s2.5-2,2.5-5.3C37,159.2,34.5,156.9,34.5,156.9z"/>
		<path class="st20" d="M29.2,159.6c0,0,1.6,0.8,1.6,2.8c0,2-1.6,2.7-1.6,2.7s1.3-1,1.3-2.7C30.4,160.8,29.2,159.6,29.2,159.6z"/>
		<path class="st20" d="M31.9,158.4c0,0,2.4,1.2,2.4,4.1s-2.4,3.9-2.4,3.9s1.9-1.5,1.9-3.9C33.7,160,31.9,158.4,31.9,158.4z"/>
	</g>
	<g>
		<path class="st21" d="M0.9,160.6c0,0-0.1,0.3-0.1,0.5c0,0.2,0.1,0.7,0.3,1.2c0.1,0.5,0.3,0.9,0.3,1.1c0.1,0.2,0.2,0.3,0.3,0.5
			c0.1,0.2,0.4,1,0.4,1.1c0.1,0.2,0,0.4,0.1,0.6c0.1,0.2,0.3,0.8,0.6,1.3c0.3,0.6,0.6,1.2,0.8,1.3c0.2,0.2,0.3,0.1,0.4,0.1"/>
		<path class="st22" d="M24.4,151c0,0,0.4,0.1,0.7,0.4c0.3,0.2,0.8,0.8,0.9,1.1"/>
		<path class="st23" d="M13.4,174.2c-2.5,0-4.4-1-5.3-1.6c-1-0.6-2.9-1.9-4.9-5.6c-2-3.7-2.5-8.2-2.6-8.8c-0.1-0.6-0.5-4.3,0-5.6
			c0.5-1.3,1.6-1.8,1.9-2c0.3-0.1,1.3-0.5,2.8,0.3c1.5,0.8,2.7,1.2,4.1,1.5c1.4,0.3,3.1,0.5,4.1,0.5c1,0,2.7-0.1,4.1-0.5
			c1.4-0.3,2.6-0.6,4.1-1.5c1.5-0.8,2.5-0.5,2.8-0.3c0.3,0.1,1.4,0.6,1.9,2c0.5,1.3,0,5,0,5.6c-0.1,0.6-0.6,5.1-2.6,8.8
			c-2,3.7-4,5-4.9,5.6C17.7,173.2,15.9,174.2,13.4,174.2"/>
		<path class="st22" d="M2.7,150.8c0,0,0,0.3,0.1,1.2c0.4,3.4,0.7,4.9,1.3,7.2c0.6,2.3,1.1,3.3,2.1,5.1c1,2.1,2.8,3.8,4,4.7
			c1.2,0.9,2.7,0.9,3.1,0.9s1.7-0.1,3-1c1.2-0.9,3-2.4,4.1-4.6c0.9-1.7,1.4-2.9,2-5.2c0.7-2.5,1.1-4,1.4-7.4
			c0.1-0.9,0.1-1.2,0.1-1.2"/>
		<path class="st22" d="M3.4,151.6c0,0.2,0,0.4,0.1,0.8c0.4,3.4,0.6,4.5,1.3,6.8c0.6,2.3,1,3.2,2,5c1,2.1,2.7,3.6,3.9,4.5
			c1.2,0.9,2.3,0.8,2.7,0.8c0.4,0,1.5,0,2.7-0.9c1.2-0.9,2.9-2.5,3.9-4.5c0.9-1.9,1.3-2.8,2-5.1c0.6-2.3,0.9-3.5,1.3-6.9
			c0-0.3,0.1-0.4,0.1-0.6"/>
		<path class="st22" d="M3.5,151c0.4,0,0.7,0.4,1.1,0.8c0.8,0.7,2,1.5,3.4,2.2c2.4,1.2,5.3,1.1,5.3,1.1s2.7-0.1,5.1-1.1
			c1.7-0.7,2.3-1.2,3.2-1.9c0.6-0.4,1.2-1,1.5-1.3"/>
		<path class="st22" d="M3.5,151.6c0.4,0,0.7,0.4,1.1,0.8c0.8,0.7,2,1.5,3.4,2.2c2.4,1.2,5.3,1.1,5.3,1.1s2.7-0.1,5.1-1.1
			c1.7-0.7,2.3-1.2,3.2-1.9c0.6-0.4,1.2-1,1.5-1.3"/>
		<path class="st22" d="M2.3,151c0,0-0.4,0.1-0.7,0.4c-0.3,0.2-0.8,0.8-0.9,1.1"/>
		<ellipse class="st22" cx="13.3" cy="154" rx="1.9" ry="0.9"/>
		<ellipse class="st24" cx="13.3" cy="154" rx="1.5" ry="0.6"/>
		<path class="st25" d="M11.6,154.3c0,0,0.1-0.9,0.1-0.9c0,0,0.1-0.1,0.2-0.1c0,0.2,0,1.2,0,1.2"/>
		<polyline class="st25" points="12.2,154.6 12.3,153.1 12.5,153.1 12.5,154.7 		"/>
		<polyline class="st25" points="12.8,154.7 12.9,153 13.1,153 13.1,154.7 		"/>
		<polyline class="st25" points="13.5,154.7 13.5,153 13.7,153 13.7,154.7 		"/>
		<polyline class="st25" points="14.1,154.6 14.1,153.1 14.3,153.1 14.4,154.6 		"/>
		<polyline class="st26" points="14.7,154.4 14.7,153.3 14.9,153.3 15,154.3 		"/>
		<g class="st27">
			<path class="st28" d="M21.1,156.4c0,1.7,4.5,3.1,10,3.1c5.5,0,10-1.4,10-3.1"/>
			<path class="st29" d="M26.1,159c-0.1,0-0.2,0-0.4,0c-0.4-0.1-0.6-0.3-0.5-0.8c0.1-0.4,0.4-0.6,0.8-0.5c0.2,0,0.3,0.1,0.3,0.1
				l-0.1,0.1c-0.1,0-0.1-0.1-0.2-0.1c-0.3-0.1-0.5,0.1-0.6,0.4c-0.1,0.3,0.1,0.5,0.4,0.6c0.1,0,0.2,0,0.3,0L26.1,159z"/>
			<path class="st29" d="M26.5,158.7c0,0.2,0.1,0.3,0.3,0.4c0.1,0,0.2,0,0.3,0l0,0.1c-0.1,0-0.2,0-0.3,0c-0.3,0-0.4-0.3-0.4-0.5
				s0.2-0.5,0.5-0.4c0.3,0,0.3,0.3,0.3,0.5c0,0,0,0.1,0,0.1L26.5,158.7z M27,158.7c0-0.1,0-0.3-0.2-0.3c-0.2,0-0.3,0.1-0.3,0.2
				L27,158.7z"/>
			<path class="st29" d="M27.6,158.2l0,0.2l0.2,0l0,0.1l-0.2,0l-0.1,0.5c0,0.1,0,0.2,0.1,0.2c0,0,0.1,0,0.1,0l0,0.1c0,0-0.1,0-0.2,0
				c-0.1,0-0.1,0-0.2-0.1c0-0.1-0.1-0.1,0-0.2l0.1-0.5l-0.1,0l0-0.1l0.1,0l0-0.2L27.6,158.2z"/>
			<path class="st29" d="M28.7,159.2c0,0.1,0,0.2,0,0.2l-0.2,0l0-0.1l0,0c-0.1,0.1-0.2,0.1-0.3,0.1c-0.2,0-0.3-0.2-0.3-0.3
				c0-0.2,0.2-0.3,0.6-0.3l0,0c0-0.1,0-0.2-0.2-0.2c-0.1,0-0.2,0-0.3,0l0-0.1c0.1,0,0.2-0.1,0.3-0.1c0.3,0,0.3,0.2,0.3,0.4
				L28.7,159.2z M28.5,158.9c-0.2,0-0.4,0-0.4,0.2c0,0.1,0.1,0.2,0.1,0.2c0.1,0,0.2-0.1,0.2-0.1c0,0,0,0,0-0.1L28.5,158.9z"/>
			<path class="st29" d="M29.6,159.4c0,0-0.1,0-0.3,0c-0.3,0-0.5-0.2-0.4-0.5c0-0.3,0.2-0.5,0.5-0.5c0.1,0,0.2,0,0.2,0.1l0,0.1
				c0,0-0.1,0-0.2-0.1c-0.2,0-0.3,0.1-0.4,0.3c0,0.2,0.1,0.3,0.3,0.4c0.1,0,0.2,0,0.2,0L29.6,159.4z"/>
			<path class="st29" d="M29.9,159c0,0.2,0.1,0.3,0.3,0.3c0.1,0,0.2,0,0.3,0l0,0.1c-0.1,0-0.2,0.1-0.3,0.1c-0.3,0-0.5-0.2-0.5-0.5
				c0-0.3,0.2-0.5,0.5-0.5c0.3,0,0.4,0.3,0.4,0.4c0,0,0,0.1,0,0.1L29.9,159z M30.4,158.9c0-0.1,0-0.3-0.2-0.3
				c-0.2,0-0.3,0.1-0.3,0.3L30.4,158.9z"/>
			<path class="st29" d="M31.5,159.3c0,0.1,0,0.2,0,0.2l-0.2,0l0-0.1h0c-0.1,0.1-0.2,0.1-0.3,0.1c-0.2,0-0.3-0.1-0.3-0.3
				c0-0.2,0.2-0.3,0.6-0.3v0c0-0.1,0-0.2-0.2-0.2c-0.1,0-0.2,0-0.2,0.1l0-0.1c0.1,0,0.2-0.1,0.3-0.1c0.3,0,0.4,0.2,0.4,0.4
				L31.5,159.3z M31.3,159c-0.2,0-0.4,0-0.4,0.2c0,0.1,0.1,0.2,0.2,0.2c0.1,0,0.2-0.1,0.2-0.2c0,0,0,0,0-0.1L31.3,159z"/>
			<path class="st29" d="M32.2,159.3c0.1,0,0.2,0.1,0.3,0.1c0.2,0,0.3-0.1,0.3-0.2c0-0.1-0.1-0.2-0.3-0.2c-0.2-0.1-0.4-0.2-0.4-0.3
				c0-0.2,0.2-0.3,0.4-0.4c0.1,0,0.2,0,0.3,0l0,0.1c0,0-0.1-0.1-0.3,0c-0.2,0-0.2,0.1-0.2,0.2c0,0.1,0.1,0.2,0.3,0.2
				c0.2,0.1,0.3,0.2,0.4,0.4c0,0.2-0.1,0.4-0.4,0.4c-0.1,0-0.3,0-0.3-0.1L32.2,159.3z"/>
			<path class="st29" d="M34.1,158.9c0,0.3-0.2,0.5-0.4,0.5c-0.3,0-0.5-0.1-0.5-0.4c0-0.3,0.2-0.5,0.4-0.5
				C33.8,158.4,34,158.6,34.1,158.9z M33.3,159c0,0.2,0.1,0.3,0.3,0.3c0.2,0,0.3-0.2,0.3-0.4c0-0.2-0.1-0.3-0.3-0.3
				C33.4,158.6,33.3,158.8,33.3,159z"/>
			<path class="st29" d="M35.1,159c0,0.1,0,0.2,0,0.2l-0.2,0l0-0.1l0,0c0,0.1-0.1,0.2-0.3,0.2c-0.1,0-0.3,0-0.4-0.4l-0.1-0.5l0.2,0
				l0.1,0.5c0,0.2,0.1,0.3,0.2,0.3c0.1,0,0.2-0.1,0.2-0.2c0,0,0-0.1,0-0.1l-0.1-0.6l0.2,0L35.1,159z"/>
			<path class="st29" d="M35.4,158.5c0-0.1,0-0.2,0-0.2l0.1,0l0,0.1l0,0c0-0.1,0.1-0.2,0.3-0.2c0.1,0,0.3,0,0.4,0.3l0.1,0.5l-0.2,0
				l-0.1-0.5c0-0.1-0.1-0.3-0.3-0.2c-0.1,0-0.2,0.1-0.2,0.2c0,0,0,0,0,0.1l0.1,0.5l-0.2,0L35.4,158.5z"/>
			<path class="st29" d="M37.1,157.5l0.2,1.1c0,0.1,0,0.2,0.1,0.2l-0.1,0l0-0.2l0,0c0,0.1-0.1,0.2-0.3,0.2c-0.2,0-0.4-0.1-0.5-0.4
				c-0.1-0.3,0.1-0.5,0.3-0.6c0.1,0,0.2,0,0.3,0.1l0,0l-0.1-0.5L37.1,157.5z M37.1,158.3C37.1,158.3,37.1,158.3,37.1,158.3
				c-0.1-0.2-0.2-0.2-0.3-0.2c-0.2,0-0.2,0.2-0.2,0.4c0,0.2,0.2,0.3,0.3,0.3c0.1,0,0.2-0.1,0.2-0.2c0,0,0,0,0-0.1L37.1,158.3z"/>
		</g>
		<g>
		</g>
	</g>
</g>
<g id="Ens">
	<g>
		<path d="M36.1,104.8H39v0.7h-2.1v2h2v0.7h-2v2.2h2.3v0.7h-3V104.8z"/>
		<path d="M40.1,107.5c0-0.3,0-0.7,0-1h0.7l0,0.7h0c0.2-0.5,0.6-0.7,1.2-0.7c0.8,0,1.3,0.5,1.3,1.5v3.2h-0.8v-3c0-0.7-0.3-1-0.8-1
			c-0.6,0-1,0.4-1,1.2v2.8h-0.8V107.5z"/>
		<path d="M44.2,110.2c0.3,0.2,0.7,0.3,1.1,0.3c0.6,0,0.9-0.3,0.9-0.6c0-0.3-0.2-0.5-0.6-0.7l-0.5-0.2c-0.7-0.3-0.9-0.6-0.9-1.2
			c0-0.8,0.6-1.3,1.5-1.3c0.4,0,0.7,0.1,1,0.2l0,0.6c-0.2-0.1-0.6-0.2-0.9-0.2c-0.5,0-0.8,0.3-0.8,0.6c0,0.4,0.3,0.6,0.8,0.8
			l0.3,0.1c0.6,0.2,0.9,0.6,0.9,1.2c0,0.8-0.4,1.4-1.5,1.4c-0.5,0-0.9-0.1-1.2-0.3L44.2,110.2z"/>
		<path d="M48.3,109c0,1.1,0.4,1.6,1.3,1.6c0.4,0,0.8-0.2,1.1-0.4l0,0.7c-0.4,0.2-0.8,0.3-1.3,0.3c-1.2,0-1.8-0.9-1.8-2.4
			s0.6-2.4,1.8-2.4c1,0,1.6,0.8,1.6,2.2v0.4H48.3z M50.2,108.4c0-1-0.3-1.4-0.9-1.4c-0.5,0-0.9,0.4-0.9,1.4H50.2z M49.4,104.6h0.9
			l-0.9,1.3h-0.6L49.4,104.6z"/>
		<path d="M51.8,107.5c0-0.3,0-0.7,0-1h0.7l0,0.7h0c0.2-0.5,0.6-0.7,1.1-0.7c0.5,0,0.8,0.3,1.1,0.7c0.2-0.5,0.6-0.7,1.1-0.7
			c0.8,0,1.3,0.5,1.3,1.5v3.2h-0.8v-3.2c0-0.6-0.3-0.9-0.7-0.9c-0.6,0-0.9,0.3-0.9,1.2v2.8h-0.8v-3.2c0-0.6-0.3-0.9-0.7-0.9
			c-0.6,0-0.9,0.3-0.9,1.2v2.8h-0.8V107.5z"/>
		<path d="M58.2,104.3h0.8v2.8h0c0.3-0.5,0.6-0.7,1.2-0.7c0.9,0,1.6,0.8,1.6,2.4s-0.6,2.4-1.6,2.4c-0.7,0-1-0.4-1.2-0.7h0l0,0.7
			h-0.7c0-0.3,0-0.6,0-0.8V104.3z M59.9,110.5c0.7,0,1-0.6,1-1.7s-0.3-1.7-1-1.7c-0.7,0-1,0.6-1,1.7S59.3,110.5,59.9,110.5z"/>
		<path d="M62.7,104.3h0.8v6.8h-0.8V104.3z"/>
		<path d="M65.2,109c0,1.1,0.4,1.6,1.3,1.6c0.4,0,0.8-0.2,1.1-0.4l0,0.7c-0.4,0.2-0.8,0.3-1.3,0.3c-1.2,0-1.8-0.9-1.8-2.4
			s0.6-2.4,1.8-2.4c1,0,1.6,0.8,1.6,2.2v0.4H65.2z M67,108.4c0-1-0.3-1.4-0.9-1.4c-0.5,0-0.9,0.4-0.9,1.4H67z"/>
	</g>
	<g>
		<g>
			<path class="st3" d="M44.8,100.1c-0.2,0-0.3,0-0.6-0.1c-0.7-0.1-0.9-0.5-1-0.8c-0.4,0.1-1,0.2-1.2,0.3c-0.1,0.2-0.3,0.5-1,0.5
				c-0.1,0-0.1,0-0.2,0c-0.6,0-1.1-0.2-1.4-0.6c-0.3,0.1-0.7,0.2-1.2,0.3c-0.1,0-0.1,0-0.2,0c-0.5,0-1.2-0.2-1.6-0.6
				c-0.3,0.1-0.7,0.2-1.4,0.2c-0.6,0-1.2-0.4-1.4-0.6c-0.1,0-0.4,0-0.8,0c0,0,0,0,0,0c-0.8,0-2.4-0.5-2.9-0.6
				c-0.8-0.2-1.5-0.6-1.9-0.9c-0.7-0.1-1.4-1.2-1.4-1.2c-0.2-0.4-0.4-2.2-0.4-2.8v-1.1l11.4,2.2l15.4,0.1l16.7-0.2l9.5-2.2l0,0.4
				c0,0-0.2,2.3-0.3,2.6c-0.1,0.4-0.1,0.6-0.3,0.8c-0.1,0.3-0.5,0.7-0.8,0.8c-0.1,0.2-0.2,0.3-0.6,0.5c-0.5,0.2-2.4,1-3.2,1.2
				c-0.5,0.1-0.9,0.2-1.2,0.2c-0.2,0-0.4,0-0.6-0.1c-0.2,0.2-0.5,0.4-0.8,0.5c-0.1,0-0.2,0-0.3,0c-0.3,0-0.8-0.1-1.2-0.1
				c-0.1,0-0.1,0-0.2,0c-0.2,0.3-0.7,0.6-1.5,0.6c-0.2,0-0.3,0-0.4,0c-0.3,0-0.9-0.3-1.3-0.4c-0.1,0.2-0.3,0.4-0.5,0.5
				c-0.2,0.1-0.6,0.2-0.8,0.2c-0.4,0-0.7-0.1-1-0.2c-0.2-0.1-0.5-0.1-0.9-0.2c-0.3-0.1-0.5-0.1-0.8-0.2c-0.2,0.2-0.5,0.4-1,0.5
				c-0.1,0-0.2,0-0.3,0c-0.6,0-1.1-0.3-1.3-0.4c-0.1-0.1-0.5-0.2-0.8-0.3c-0.1,0.2-0.2,0.4-0.4,0.6c-0.2,0.2-0.4,0.3-0.6,0.3
				c-0.3,0-0.6-0.1-1-0.3c-0.5-0.3-0.7-0.4-1.1-0.4c0,0-0.1,0-0.1,0c-0.3,0.7-0.8,0.8-1.2,0.8c0,0,0,0,0,0c-0.5,0-0.8-0.4-0.9-0.7
				c-0.3,0-0.8,0-1.1,0c-0.2,0.5-0.6,0.8-1.3,0.8c-0.6,0-0.9-0.5-1.1-0.9c-0.2,0-0.5,0-0.7,0.1c-0.3,0.4-0.9,0.9-1.5,0.9
				c-0.3,0-0.8-0.1-1.1-1c-0.1,0.1-0.3,0.2-0.4,0.2c-0.3,0.2-0.6,0.4-0.9,0.5C45.4,99.9,45.2,100.1,44.8,100.1z"/>
			<path d="M79,92.5c0,0-0.2,2.3-0.3,2.6c-0.1,0.4-0.1,0.5-0.3,0.7c-0.2,0.3-0.6,0.7-0.8,0.7c-0.1,0.2-0.1,0.2-0.6,0.5
				c-0.5,0.2-2.4,1-3.1,1.2c-0.4,0.1-0.8,0.1-1.1,0.1c-0.3,0-0.5,0-0.7-0.1c-0.2,0.3-0.5,0.5-0.8,0.5c-0.1,0-0.1,0-0.2,0
				c-0.4,0-1.2-0.2-1.5-0.2c-0.3,0.6-0.9,0.7-1.4,0.7c-0.2,0-0.3,0-0.4,0c-0.3,0-1.4-0.5-1.4-0.5s-0.2,0.5-0.6,0.6
				c-0.2,0.1-0.4,0.1-0.7,0.1c-0.3,0-0.7-0.1-0.9-0.1c-0.5-0.2-1.4-0.3-1.9-0.5c-0.1,0.2-0.4,0.5-0.9,0.6c-0.1,0-0.2,0-0.3,0
				c-0.4,0-0.9-0.3-1.1-0.4c-0.3-0.2-1.1-0.3-1.1-0.3s-0.1,0.4-0.4,0.7c-0.1,0.1-0.3,0.2-0.4,0.2c-0.2,0-0.5-0.1-0.9-0.3
				c-0.4-0.3-0.7-0.5-1.2-0.5c-0.1,0-0.2,0-0.3,0c-0.2,0.6-0.5,0.8-1,0.8c0,0,0,0,0,0c-0.5,0-0.7-0.7-0.7-0.7S52.8,99,52.5,99
				c-0.2,0.5-0.4,0.8-1.1,0.8c-0.6,0-0.9-0.9-0.9-0.9s-0.7,0.1-1,0.1c-0.2,0.4-0.8,0.9-1.4,0.9c-0.6,0-0.8-0.6-0.9-1.1
				c-0.2,0.1-1.1,0.7-1.6,0.9c-0.3,0.1-0.5,0.2-0.9,0.2c-0.1,0-0.3,0-0.5-0.1c-0.7-0.1-0.7-0.5-0.9-0.8c-0.2,0-1.4,0.2-1.5,0.4
				c-0.1,0.1-0.1,0.4-0.8,0.5c-0.1,0-0.1,0-0.2,0c-0.6,0-1.1-0.3-1.4-0.7c-0.2,0.2-0.7,0.3-1.3,0.4c-0.1,0-0.1,0-0.2,0
				c-0.5,0-1.2-0.3-1.6-0.7c-0.2,0.2-0.8,0.2-1.4,0.2c-0.6,0-1.3-0.6-1.3-0.6s-0.3,0-0.9,0.1c0,0,0,0-0.1,0c-0.6,0-2-0.4-2.8-0.6
				c-0.8-0.2-1.5-0.6-1.9-0.9c0,0,0,0,0,0c-0.4,0-1-0.8-1.2-1.1c-0.2-0.3-0.3-2.6-0.3-2.6v-0.7l11,2.2l15.5,0.1l16.7-0.2L79,92.5
				 M79.6,91.8L78.9,92l-9.2,2.1l-16.6,0.2l-15.4-0.1l-11-2.2L26,91.9v0.7v0.7c0.1,1.1,0.2,2.5,0.4,2.9c0.1,0.1,0.7,1.2,1.5,1.3
				c0.5,0.4,1.3,0.7,1.9,0.9c0.7,0.2,2.2,0.6,2.9,0.6l0.1,0c0.3,0,0.6,0,0.7,0c0.3,0.2,0.9,0.6,1.5,0.6c0.6,0,1,0,1.3-0.1
				c0.5,0.3,1.1,0.6,1.6,0.6c0.1,0,0.2,0,0.3,0c0.5-0.1,0.8-0.1,1.1-0.3c0.4,0.3,0.9,0.5,1.5,0.5c0.1,0,0.1,0,0.2,0
				c0.7-0.1,1-0.3,1.1-0.6c0.2-0.1,0.5-0.1,0.8-0.2c0.1,0.3,0.4,0.6,1.1,0.8c0.2,0,0.4,0.1,0.6,0.1c0.5,0,0.8-0.1,1.1-0.3
				c0.3-0.1,0.6-0.3,0.9-0.5c0,0,0.1,0,0.1-0.1c0.3,0.8,0.9,0.9,1.2,0.9c0.7,0,1.3-0.4,1.7-0.9c0.1,0,0.3,0,0.4,0
				c0.2,0.4,0.6,0.9,1.2,0.9c0.7,0,1.1-0.2,1.4-0.8c0.2,0,0.5,0,0.7,0c0.2,0.3,0.5,0.7,1.1,0.7h0l0,0c0.7,0,1.1-0.3,1.4-0.8
				c0.3,0,0.5,0.1,0.9,0.4l0,0l0,0c0.5,0.2,0.8,0.3,1.2,0.3c0.3,0,0.6-0.1,0.8-0.4c0.1-0.1,0.2-0.3,0.3-0.5c0.2,0.1,0.4,0.1,0.5,0.2
				c0.2,0.1,0.8,0.5,1.4,0.5c0.1,0,0.3,0,0.4,0c0.5-0.1,0.8-0.3,1-0.5c0.2,0,0.4,0.1,0.6,0.1c0.3,0.1,0.7,0.1,0.8,0.2
				c0.3,0.1,0.7,0.2,1.1,0.2c0.4,0,0.7-0.1,0.9-0.2c0.2-0.1,0.4-0.3,0.5-0.4c0.4,0.2,0.9,0.3,1.2,0.4c0.1,0,0.3,0,0.5,0
				c0.9,0,1.4-0.3,1.6-0.6c0,0,0,0,0,0c0.4,0.1,0.9,0.2,1.2,0.2c0.1,0,0.2,0,0.3,0c0.3-0.1,0.6-0.2,0.9-0.4c0.2,0,0.3,0,0.5,0
				c0.3,0,0.8-0.1,1.3-0.2c0.8-0.2,2.8-1,3.2-1.2c0.4-0.2,0.6-0.3,0.7-0.5c0.4-0.2,0.7-0.6,0.9-0.9c0.2-0.3,0.3-0.5,0.4-0.9
				c0.1-0.4,0.3-2.6,0.3-2.7L79.6,91.8L79.6,91.8z M79,93.1L79,93.1L79,93.1L79,93.1z"/>
		</g>
		<path d="M27.6,96.6c0,0-0.1,0-0.1-0.4c-0.1-0.4-0.2-1.2-0.2-1.6c0-0.4,0-0.8,0.2-0.7c0.2,0.1,0.3,0.2,0.3,0.4c0,0.3,0.1,1,0.2,1.4
			c0.1,0.3,0,0.9,0.3,1.2C28.2,96.9,27.8,97,27.6,96.6z"/>
		<path d="M33.2,98.4c0,0-0.4-0.1-0.5-0.5c-0.1-0.4-0.1-1.2-0.2-1.7c0-0.5,0.1-0.8,0.4-0.8c0.3,0.1,0.5,0.4,0.5,0.8
			c0.1,0.4,0.2,1.6,0.2,1.8c0,0.2,0.1,0.5,0.1,0.5L33.2,98.4z"/>
		<path d="M36.3,99c0,0-0.8,0-1-0.5c-0.2-0.5-0.1-1.2-0.2-1.7c0-0.6,0-0.9,0.4-0.9c0.4,0,0.6,0.2,0.6,0.9c0.1,0.7,0.2,1.9,0.3,2.1
			C36.4,99,36.3,99,36.3,99z"/>
		<path d="M39.5,99.1c0,0-0.9,0.3-1.2,0c-0.2-0.2-0.3-0.9-0.3-1.3c0-0.4,0-1.2,0.1-1.4c0.2-0.2,0.4-0.2,0.8-0.2
			c0.3,0.1,0.3,0.4,0.3,0.8c0.1,0.3,0.2,1.6,0.2,1.7C39.5,99,39.5,99.1,39.5,99.1z"/>
		<path d="M41.8,99.5c0,0-0.3-0.1-0.3-0.6c0-0.5,0-1.5,0-1.8c0.1-0.3,0.3-0.7,0.8-0.7c0.5,0,0.9,0.1,1,0.6c0.1,0.5,0.1,1.3,0.2,1.6
			C43.5,99.3,41.9,99.4,41.8,99.5z"/>
		<path d="M45.6,99.7c0,0-0.3-0.5-0.3-1.2c0-0.7,0.2-1.3,0.2-1.6c0-0.3,0.3-0.5,0.8-0.5c0.4,0,0.6,0.2,0.6,0.6
			c0.1,0.4,0.2,1,0.2,1.2c0,0.2,0.1,0.6,0.1,0.6L45.6,99.7z"/>
		<path d="M49,99.5c0,0-0.2-0.4-0.1-0.9c0.1-0.5,0.2-1.3,0.2-1.6c0-0.3,0-0.6,0.5-0.6c0.5-0.1,0.8,0.1,0.8,0.8
			c0.1,0.6,0.2,1.8,0.2,1.8s-0.9,0.1-1.2,0.2C49.1,99.3,49,99.5,49,99.5z"/>
		<path d="M52.3,99.1c0,0,0.1-1.3,0.1-1.7c0-0.4,0-0.9,0.3-1c0.3-0.1,1-0.2,1,0.5c0.1,0.7,0.1,2.2,0.1,2.2L52.3,99.1z"/>
		<path d="M55.7,99c0,0,0.1-1.2,0.1-1.8c0.1-0.6,0.1-0.9,0.7-0.9c0.6,0,0.6,0.3,0.6,0.7c0,0.4,0.1,1.5,0.1,1.8
			c0.1,0.3,0.1,0.7,0.1,0.7s-0.6-0.5-1-0.6C55.9,98.9,55.7,99,55.7,99z"/>
		<path d="M59,99.1c0,0,0-0.8,0.1-1.5c0.1-0.7,0.1-1,0.5-1.1c0.5-0.1,0.8,0,0.9,0.6c0.1,0.6,0.1,2.2,0.1,2.5
			c-0.2-0.1-0.6-0.4-0.9-0.4C59.3,99.1,59,99.1,59,99.1z"/>
		<path d="M62.4,99c0,0,0.2-1.3,0.3-1.9c0.1-0.5-0.1-0.9,0.6-0.9c0.7,0,0.9,0.1,0.9,0.8c0.1,0.7,0.1,2.4,0.1,2.4s-0.8-0.3-1.1-0.4
			C62.8,99,62.4,99,62.4,99z"/>
		<path d="M66.3,99c0,0,0.1-1.2,0.2-1.7c0.1-0.5-0.1-0.8,0.6-0.9c0.6-0.2,0.8,0.2,0.8,0.9c0,0.7,0,2-0.1,2.2
			C67.4,99.3,66.6,98.9,66.3,99z"/>
		<path d="M69.6,98.8c0,0,0.2-1.3,0.3-2c0.1-0.6,0.2-0.9,0.5-1c0.3,0,0.5,0.5,0.5,1.2s0,1.4-0.3,1.6C70.3,99,70.2,99,70.2,99
			L69.6,98.8z"/>
		<path d="M72.2,98.1c0,0,0.2-0.7,0.3-1.3c0.1-0.6-0.1-1.1,0.2-1.3c0.3-0.2,0.6,0.1,0.6,0.5c0,0.5,0,1.4-0.2,1.7
			c-0.2,0.3-0.5,0.6-0.6,0.6C72.4,98.4,72.2,98.1,72.2,98.1z"/>
		<path d="M77.7,96.5c0,0,0.2-1.2,0.3-2c0.1-0.8,0.4-1.3,0.5-0.8c0.1,0.5-0.1,1.7-0.1,2c0,0.3-0.1,0.5-0.1,0.5l-0.5,0.4L77.7,96.5z"
			/>
		<path d="M26.6,93.5c0,0,0.2-0.1,0.2,0.3c0,0.5,0.1,1.4,0.1,1.6c0,0.2,0,0.6,0,0.6s-0.2-0.4-0.3-0.8C26.7,94.8,26.6,93.5,26.6,93.5
			z"/>
		<g>
			<path class="st3" d="M42,95.7c-1.2,0-2.3,0-3.1-0.1l-0.4,0c-0.8,0-4.3-0.4-6.5-0.8c-2.4-0.4-5.4-1.1-6.4-1.8
				c-0.9-0.6-1-0.9-1.1-1.2l0-0.1c0-0.2,0-3.4,0-4.2c0.1-1,0.5-2.5,1.6-3.6c1.1-1.2,2.2-1.9,3.5-2.4c1.2-0.4,4.4-1.6,11.4-2
				c2.3-0.2,3.9-0.3,4.3-0.3l6.3-4l2.4,0.1c0,0,6.2,3.8,6.2,3.8c0,0,0.3,0.1,0.9,0.1c0.8,0,3.5,0.2,4.2,0.2c0.6,0.1,8.4,1.2,9.5,1.5
				c0.6,0.2,3.5,1.3,4.6,2.6c1,1.2,1.7,2.2,1.8,3.9c0.1,1.6,0.1,3.3,0.1,3.8c0,0.7-0.2,1.1-0.8,1.5c-0.6,0.4-2.5,1.1-3.9,1.5
				c-1.4,0.4-2.6,0.6-3.8,0.7c-0.6,0.1-1.6,0.2-2.4,0.3c-0.5,0.1-0.9,0.1-1.1,0.1c-0.7,0.1-3.8,0.2-4.9,0.2c-0.2,0-0.6,0-1.1,0
				l-3.3,0c-1.1,0-2.3,0-3.2,0c-1.2,0-4.2,0-7,0c-2.9,0-5.6,0-6.5,0C42.7,95.7,42.4,95.7,42,95.7z"/>
			<path d="M51.5,75.4l2.3,0.1l6.1,3.8c0,0,0.3,0.1,1,0.1c0.8,0,3.5,0.2,4.1,0.2c0.6,0.1,8.4,1.2,9.4,1.5c1,0.3,3.5,1.4,4.4,2.5
				c0.9,1.1,1.6,2.1,1.7,3.7c0.1,1.6,0.1,3.3,0.1,3.8c0,0.6-0.2,0.9-0.7,1.3c-0.5,0.3-2.4,1-3.8,1.5c-1.5,0.4-2.7,0.6-3.7,0.7
				c-1,0.1-2.8,0.4-3.5,0.5c-0.6,0.1-3.8,0.2-4.8,0.2c-0.2,0-0.6,0-1.1,0c-0.9,0-2.1,0-3.3,0c-1.1,0-2.3,0-3.2,0
				c-2.5,0.1-11.6,0-13.5,0.1c-0.4,0-0.7,0-1.1,0c-1.5,0-2.9-0.1-3.5-0.1c-0.8,0-4.3-0.4-6.5-0.8c-2.2-0.4-5.3-1.1-6.3-1.8
				c-1-0.7-0.9-0.9-1-1.2c0,0,0-3.3,0.1-4.1c0.1-0.8,0.4-2.3,1.5-3.5c1.1-1.1,2.1-1.8,3.4-2.3c1.3-0.5,4.5-1.6,11.3-2
				c2.6-0.2,4.4-0.3,4.4-0.3L51.5,75.4 M51.4,74.8l-0.1,0.1l-6.2,3.9c-0.5,0-2,0.2-4.2,0.3c-7,0.4-10.2,1.6-11.4,2
				c-1.3,0.5-2.4,1.2-3.6,2.4c-1.4,1.5-1.6,3.4-1.6,3.8c-0.1,0.8-0.1,4-0.1,4.1v0.1l0,0.1c0,0,0,0.1,0,0.1c0.1,0.5,0.3,0.8,1.2,1.4
				c1.2,0.8,4.7,1.5,6.5,1.9c2.2,0.4,5.8,0.8,6.6,0.8l0.4,0c0.7,0,1.9,0.1,3.1,0.1c0.4,0,0.7,0,1.1,0c0.9,0,3.6,0,6.5,0
				c2.8,0,5.7,0,7,0c0.8,0,1.8,0,3.2,0c0.7,0,1.3,0,1.9,0l1.4,0c0.5,0,0.9,0,1.1,0c1,0,4.2-0.2,4.9-0.2c0.2,0,0.6-0.1,1.1-0.1
				c0.8-0.1,1.7-0.2,2.3-0.3c1.1-0.1,2.4-0.3,3.8-0.7c1.5-0.4,3.4-1.1,4-1.6c0.6-0.4,0.9-1,0.9-1.7c0-0.5,0-2.2-0.1-3.9
				c-0.1-1.7-0.9-2.9-1.9-4c-1.1-1.3-4.1-2.4-4.7-2.6c-1.1-0.4-8.9-1.5-9.5-1.5c-0.6-0.1-3.4-0.2-4.2-0.2c-0.5,0-0.7-0.1-0.8-0.1
				L54.1,75L54,74.9l-0.1,0l-2.3-0.1L51.4,74.8L51.4,74.8z"/>
		</g>
		<g>
			<g>
				<circle cx="43.5" cy="92.4" r="1"/>
			</g>
			<g>
				<path d="M43.5,90.8c0.9,0,1.6,0.7,1.6,1.6s-0.7,1.6-1.6,1.6c-0.9,0-1.6-0.7-1.6-1.6S42.6,90.8,43.5,90.8 M43.5,90.7
					c-0.9,0-1.7,0.7-1.7,1.7c0,0.9,0.7,1.7,1.7,1.7c0.9,0,1.7-0.7,1.7-1.7C45.2,91.4,44.4,90.7,43.5,90.7L43.5,90.7z"/>
			</g>
			<g>
				<path d="M43.5,90.1l0.2,0.2l0.2-0.2l0.1,0.3l0.2-0.2l0.1,0.3l0.3-0.1l0,0.3l0.3-0.1l0,0.3l0.3-0.1L45.1,91l0.3,0l-0.1,0.3l0.3,0
					l-0.1,0.3l0.3,0.1l-0.2,0.2l0.3,0.1l-0.2,0.2l0.2,0.2l-0.2,0.2l0.2,0.2l-0.3,0.1l0.2,0.2l-0.3,0.1l0.1,0.3l-0.3,0l0.1,0.3
					l-0.3,0l0.1,0.3l-0.3-0.1l0,0.3l-0.3-0.1l0,0.3l-0.3-0.1l-0.1,0.3L44,94.3l-0.1,0.3l-0.2-0.2l-0.2,0.2l-0.2-0.2l-0.2,0.2
					L43,94.3l-0.2,0.2l-0.1-0.3l-0.3,0.1l0-0.3l-0.3,0.1l0-0.3L41.9,94l0.1-0.3l-0.3,0l0.1-0.3l-0.3,0l0.1-0.3l-0.3-0.1l0.2-0.2
					l-0.3-0.1l0.2-0.2l-0.2-0.2l0.2-0.2L41.3,92l0.3-0.1l-0.2-0.2l0.3-0.1l-0.1-0.3l0.3,0L41.7,91l0.3,0l-0.1-0.3l0.3,0.1l0-0.3
					l0.3,0.1l0-0.3l0.3,0.1l0.1-0.3l0.2,0.2l0.1-0.3l0.2,0.2L43.5,90.1 M44.8,90.5L44.8,90.5 M45.1,90.7L45.1,90.7 M45.3,91L45.3,91
					 M43.5,90L43.5,90C43.5,90,43.5,90,43.5,90l-0.2,0.2l-0.1-0.1c0,0,0,0-0.1,0c0,0,0,0,0,0c0,0,0,0-0.1,0L43,90.2l-0.1-0.1
					c0,0,0,0,0,0c0,0,0,0,0,0c0,0,0,0-0.1,0.1l-0.1,0.2l-0.2-0.1c0,0,0,0,0,0c0,0,0,0,0,0c0,0,0,0,0,0.1l0,0.2l-0.2-0.1c0,0,0,0,0,0
					c0,0,0,0,0,0c0,0,0,0,0,0.1l0,0.2l-0.2,0c0,0,0,0,0,0c0,0,0,0-0.1,0c0,0,0,0,0,0.1l0,0.2l-0.2,0c0,0,0,0,0,0c0,0,0,0-0.1,0
					c0,0,0,0,0,0.1l0.1,0.2l-0.2,0c0,0,0,0-0.1,0s0,0.1,0,0.1l0.1,0.2l-0.2,0.1c0,0,0,0-0.1,0.1c0,0,0,0.1,0,0.1l0.1,0.2l-0.2,0.1
					c0,0,0,0,0,0.1c0,0,0,0.1,0,0.1l0.1,0.1l-0.2,0.1c0,0,0,0,0,0.1c0,0,0,0.1,0,0.1l0.2,0.1l-0.1,0.1c0,0,0,0,0,0.1s0,0,0,0.1
					l0.2,0.1L41.3,93c0,0,0,0,0,0.1c0,0,0,0,0.1,0.1l0.2,0.1l-0.1,0.2c0,0,0,0,0,0.1s0,0,0.1,0l0.2,0l-0.1,0.2c0,0,0,0.1,0,0.1
					c0,0,0,0,0.1,0c0,0,0,0,0,0l0.2,0l0,0.2c0,0,0,0.1,0,0.1c0,0,0,0,0.1,0c0,0,0,0,0,0l0.2,0l0,0.2c0,0,0,0.1,0,0.1c0,0,0,0,0,0
					c0,0,0,0,0,0l0.2-0.1l0,0.2c0,0,0,0,0,0.1c0,0,0,0,0,0c0,0,0,0,0,0l0.2-0.1l0.1,0.2c0,0,0,0,0.1,0.1c0,0,0,0,0,0c0,0,0,0,0,0
					l0.1-0.1l0.1,0.2c0,0,0,0,0.1,0c0,0,0,0,0,0c0,0,0,0,0.1,0l0.1-0.1l0.1,0.2c0,0,0,0,0.1,0s0.1,0,0.1,0l0.1-0.2l0.1,0.1
					c0,0,0,0,0.1,0c0,0,0,0,0,0c0,0,0,0,0.1,0l0.1-0.2l0.2,0.1c0,0,0,0,0,0c0,0,0,0,0,0c0,0,0,0,0.1-0.1l0.1-0.2l0.2,0.1
					c0,0,0,0,0,0c0,0,0,0,0,0c0,0,0,0,0-0.1l0-0.2l0.2,0.1c0,0,0,0,0,0c0,0,0,0,0,0c0,0,0,0,0-0.1l0-0.2l0.2,0c0,0,0,0,0,0
					c0,0,0,0,0.1,0c0,0,0,0,0-0.1l0-0.2l0.2,0c0,0,0,0,0,0c0,0,0,0,0.1,0c0,0,0,0,0-0.1l-0.1-0.2l0.2,0c0,0,0,0,0.1,0s0-0.1,0-0.1
					l-0.1-0.2l0.2-0.1c0,0,0,0,0.1-0.1c0,0,0-0.1,0-0.1l-0.1-0.2l0.2-0.1c0,0,0,0,0-0.1c0,0,0-0.1,0-0.1l-0.1-0.1l0.2-0.1
					c0,0,0,0,0-0.1c0,0,0-0.1,0-0.1l-0.2-0.1l0.1-0.1c0,0,0,0,0-0.1c0,0,0,0,0-0.1l-0.2-0.1l0.1-0.2c0,0,0,0,0-0.1s0,0-0.1-0.1
					l-0.2-0.1l0.1-0.2c0,0,0,0,0-0.1c0,0,0,0-0.1,0l-0.2,0l0.1-0.2c0,0,0,0,0,0c0,0,0-0.1-0.1-0.1h0h0c0,0,0,0,0,0l0,0c0,0,0,0,0,0
					h0h0c0,0,0,0,0,0l-0.2,0l0-0.2c0,0,0,0,0,0c0,0,0-0.1-0.1-0.1h0c0,0,0,0,0,0c0,0,0,0,0,0c0,0,0,0,0,0l-0.2,0l0-0.2c0,0,0,0,0,0
					c0,0,0-0.1-0.1-0.1h0c0,0,0,0,0,0c0,0,0,0,0,0h0h0c0,0,0,0,0,0l-0.2,0.1l0-0.2c0,0,0,0,0-0.1c0,0,0,0,0,0c0,0,0,0,0,0l-0.2,0.1
					l-0.1-0.2c0,0,0,0-0.1-0.1c0,0,0,0,0,0c0,0,0,0,0,0L44,90.2l-0.1-0.2c0,0,0,0-0.1,0c0,0,0,0,0,0c0,0,0,0-0.1,0l-0.1,0.1L43.5,90
					C43.6,90,43.5,90,43.5,90L43.5,90z"/>
			</g>
		</g>
		<g>
			<g>
				<circle cx="50.6" cy="92.4" r="1"/>
			</g>
			<g>
				<path d="M50.6,90.8c0.9,0,1.6,0.7,1.6,1.6s-0.7,1.6-1.6,1.6c-0.9,0-1.6-0.7-1.6-1.6S49.7,90.8,50.6,90.8 M50.6,90.7
					c-0.9,0-1.7,0.7-1.7,1.7c0,0.9,0.7,1.7,1.7,1.7c0.9,0,1.7-0.7,1.7-1.7C52.3,91.4,51.5,90.7,50.6,90.7L50.6,90.7z"/>
			</g>
			<g>
				<path d="M50.6,90.1l0.2,0.2l0.2-0.2l0.1,0.3l0.2-0.2l0.1,0.3l0.3-0.1l0,0.3l0.3-0.1l0,0.3l0.3-0.1L52.2,91l0.3,0l-0.1,0.3l0.3,0
					l-0.1,0.3l0.3,0.1l-0.2,0.2l0.3,0.1l-0.2,0.2l0.2,0.2l-0.2,0.2l0.2,0.2l-0.3,0.1l0.2,0.2l-0.3,0.1l0.1,0.3l-0.3,0l0.1,0.3
					l-0.3,0l0.1,0.3l-0.3-0.1l0,0.3l-0.3-0.1l0,0.3l-0.3-0.1l-0.1,0.3l-0.2-0.2L51,94.6l-0.2-0.2l-0.2,0.2l-0.2-0.2l-0.2,0.2
					l-0.1-0.3l-0.2,0.2l-0.1-0.3l-0.3,0.1l0-0.3l-0.3,0.1l0-0.3L49,94l0.1-0.3l-0.3,0l0.1-0.3l-0.3,0l0.1-0.3l-0.3-0.1l0.2-0.2
					l-0.3-0.1l0.2-0.2l-0.2-0.2l0.2-0.2L48.4,92l0.3-0.1l-0.2-0.2l0.3-0.1l-0.1-0.3l0.3,0L48.8,91l0.3,0L49,90.7l0.3,0.1l0-0.3
					l0.3,0.1l0-0.3l0.3,0.1l0.1-0.3l0.2,0.2l0.1-0.3l0.2,0.2L50.6,90.1 M52,90.5L52,90.5 M52.2,90.7L52.2,90.7 M52.5,91L52.5,91
					 M50.6,90L50.6,90C50.6,90,50.6,90,50.6,90l-0.2,0.2l-0.1-0.1c0,0,0,0-0.1,0c0,0,0,0,0,0c0,0,0,0-0.1,0l-0.1,0.2L50,90.1
					c0,0,0,0,0,0c0,0,0,0,0,0c0,0,0,0-0.1,0.1l-0.1,0.2l-0.2-0.1c0,0,0,0,0,0c0,0,0,0,0,0c0,0,0,0,0,0.1l0,0.2l-0.2-0.1c0,0,0,0,0,0
					c0,0,0,0,0,0c0,0,0,0,0,0.1l0,0.2l-0.2,0c0,0,0,0,0,0c0,0,0,0-0.1,0c0,0,0,0,0,0.1l0,0.2l-0.2,0c0,0,0,0,0,0c0,0,0,0-0.1,0
					c0,0,0,0,0,0.1l0.1,0.2l-0.2,0c0,0,0,0-0.1,0s0,0.1,0,0.1l0.1,0.2l-0.2,0.1c0,0,0,0-0.1,0.1c0,0,0,0.1,0,0.1l0.1,0.2l-0.2,0.1
					c0,0,0,0,0,0.1s0,0.1,0,0.1l0.1,0.1l-0.2,0.1c0,0,0,0,0,0.1c0,0,0,0.1,0,0.1l0.2,0.1l-0.1,0.1c0,0,0,0,0,0.1c0,0,0,0,0,0.1
					l0.2,0.1L48.4,93c0,0,0,0,0,0.1s0,0,0.1,0.1l0.2,0.1l-0.1,0.2c0,0,0,0,0,0.1s0,0,0.1,0l0.2,0l-0.1,0.2c0,0,0,0.1,0,0.1
					c0,0,0,0,0.1,0c0,0,0,0,0,0l0.2,0l0,0.2c0,0,0,0.1,0,0.1c0,0,0,0,0.1,0c0,0,0,0,0,0l0.2,0l0,0.2c0,0,0,0.1,0,0.1c0,0,0,0,0,0
					c0,0,0,0,0,0l0.2-0.1l0,0.2c0,0,0,0,0,0.1c0,0,0,0,0,0c0,0,0,0,0,0l0.2-0.1l0.1,0.2c0,0,0,0,0.1,0.1c0,0,0,0,0,0c0,0,0,0,0,0
					l0.1-0.1l0.1,0.2c0,0,0,0,0.1,0c0,0,0,0,0,0c0,0,0,0,0.1,0l0.1-0.1l0.1,0.2c0,0,0,0,0.1,0h0c0,0,0.1,0,0.1,0l0.1-0.2l0.1,0.1
					c0,0,0,0,0.1,0c0,0,0,0,0,0c0,0,0,0,0.1,0l0.1-0.2l0.2,0.1c0,0,0,0,0,0c0,0,0,0,0,0c0,0,0,0,0.1-0.1l0.1-0.2l0.2,0.1
					c0,0,0,0,0,0c0,0,0,0,0,0c0,0,0,0,0-0.1l0-0.2l0.2,0.1c0,0,0,0,0,0c0,0,0,0,0,0c0,0,0,0,0-0.1l0-0.2l0.2,0c0,0,0,0,0,0
					c0,0,0,0,0.1,0c0,0,0,0,0-0.1l0-0.2l0.2,0c0,0,0,0,0,0c0,0,0,0,0.1,0c0,0,0,0,0-0.1l-0.1-0.2l0.2,0c0,0,0,0,0.1,0
					c0,0,0-0.1,0-0.1l-0.1-0.2l0.2-0.1c0,0,0,0,0.1-0.1c0,0,0-0.1,0-0.1l-0.1-0.2l0.2-0.1c0,0,0,0,0-0.1s0-0.1,0-0.1l-0.1-0.1
					l0.2-0.1c0,0,0,0,0-0.1c0,0,0-0.1,0-0.1l-0.2-0.1l0.1-0.1c0,0,0,0,0-0.1c0,0,0,0,0-0.1l-0.2-0.1l0.1-0.2c0,0,0,0,0-0.1
					c0,0,0,0-0.1-0.1l-0.2-0.1l0.1-0.2c0,0,0,0,0-0.1s0,0-0.1,0l-0.2,0l0.1-0.2c0,0,0,0,0,0c0,0,0-0.1-0.1-0.1h0h0c0,0,0,0,0,0l0,0
					h0c0,0,0,0,0,0l-0.2,0l0-0.2c0,0,0,0,0,0c0,0,0-0.1-0.1-0.1h0c0,0,0,0,0,0c0,0,0,0,0,0c0,0,0,0,0,0l-0.2,0l0-0.2c0,0,0,0,0,0
					c0,0,0-0.1-0.1-0.1h0h0c0,0,0,0,0,0l0,0h0c0,0,0,0,0,0l-0.2,0.1l0-0.2c0,0,0,0,0-0.1c0,0,0,0,0,0c0,0,0,0,0,0l-0.2,0.1l-0.1-0.2
					c0,0,0,0-0.1-0.1c0,0,0,0,0,0c0,0,0,0,0,0l-0.2,0.1L51,90.1c0,0,0,0-0.1,0c0,0,0,0,0,0c0,0,0,0-0.1,0l-0.1,0.1L50.6,90
					C50.7,90,50.6,90,50.6,90L50.6,90z"/>
			</g>
		</g>
		<g>
			<g>
				<circle cx="57.5" cy="92.3" r="1"/>
			</g>
			<g>
				<path d="M57.5,90.7c0.9,0,1.6,0.7,1.6,1.6c0,0.9-0.7,1.6-1.6,1.6c-0.9,0-1.6-0.7-1.6-1.6C55.9,91.4,56.6,90.7,57.5,90.7
					 M57.5,90.6c-0.9,0-1.7,0.7-1.7,1.7c0,0.9,0.7,1.7,1.7,1.7c0.9,0,1.7-0.7,1.7-1.7C59.1,91.4,58.4,90.6,57.5,90.6L57.5,90.6z"/>
			</g>
			<g>
				<path d="M57.5,90l0.2,0.2l0.2-0.2l0.1,0.3l0.2-0.2l0.1,0.3l0.3-0.1l0,0.3l0.3-0.1l0,0.3l0.3-0.1L59,91l0.3,0l-0.1,0.3l0.3,0
					l-0.1,0.3l0.3,0.1l-0.2,0.2l0.3,0.1l-0.2,0.2l0.2,0.2l-0.2,0.2l0.2,0.2l-0.3,0.1l0.2,0.2l-0.3,0.1l0.1,0.3l-0.3,0l0.1,0.3
					l-0.3,0l0.1,0.3l-0.3-0.1l0,0.3L58.5,94l0,0.3l-0.3-0.1l-0.1,0.3l-0.2-0.2l-0.1,0.3l-0.2-0.2l-0.2,0.2l-0.2-0.2l-0.2,0.2
					L57,94.3l-0.2,0.2l-0.1-0.3l-0.3,0.1l0-0.3l-0.3,0.1l0-0.3l-0.3,0.1l0.1-0.3l-0.3,0l0.1-0.3l-0.3,0l0.1-0.3L55.3,93l0.2-0.2
					l-0.3-0.1l0.2-0.2l-0.2-0.2l0.2-0.2l-0.2-0.2l0.3-0.1l-0.2-0.2l0.3-0.1l-0.1-0.3l0.3,0l-0.1-0.3l0.3,0l-0.1-0.3l0.3,0.1l0-0.3
					l0.3,0.1l0-0.3l0.3,0.1l0.1-0.3l0.2,0.2l0.1-0.3l0.2,0.2L57.5,90 M58.8,90.4L58.8,90.4 M59.1,90.7L59.1,90.7 M59.3,90.9
					L59.3,90.9 M57.5,89.9L57.5,89.9C57.4,89.9,57.4,89.9,57.5,89.9l-0.2,0.2L57.2,90c0,0,0,0-0.1,0c0,0,0,0,0,0c0,0,0,0-0.1,0
					L57,90.2L56.8,90c0,0,0,0,0,0c0,0,0,0,0,0c0,0,0,0-0.1,0.1l-0.1,0.2l-0.2-0.1c0,0,0,0,0,0c0,0,0,0,0,0c0,0,0,0,0,0.1l0,0.2
					l-0.2-0.1c0,0,0,0,0,0c0,0,0,0,0,0c0,0,0,0,0,0.1l0,0.2l-0.2,0c0,0,0,0,0,0c0,0,0,0-0.1,0c0,0,0,0,0,0.1l0,0.2l-0.2,0
					c0,0,0,0,0,0c0,0,0,0-0.1,0c0,0,0,0,0,0.1l0.1,0.2l-0.2,0c0,0,0,0-0.1,0c0,0,0,0.1,0,0.1l0.1,0.2l-0.2,0.1c0,0,0,0-0.1,0.1
					c0,0,0,0.1,0,0.1l0.1,0.1l-0.2,0.1c0,0,0,0,0,0.1c0,0,0,0.1,0,0.1l0.1,0.1l-0.2,0.1c0,0,0,0,0,0.1s0,0.1,0,0.1l0.2,0.1l-0.1,0.1
					c0,0,0,0,0,0.1c0,0,0,0,0,0.1l0.2,0.1l-0.1,0.2c0,0,0,0,0,0.1c0,0,0,0,0.1,0.1l0.2,0.1l-0.1,0.2c0,0,0,0,0,0.1c0,0,0,0,0.1,0
					l0.2,0l-0.1,0.2c0,0,0,0.1,0,0.1c0,0,0,0,0.1,0c0,0,0,0,0,0l0.2,0l0,0.2c0,0,0,0.1,0,0.1c0,0,0,0,0.1,0c0,0,0,0,0,0l0.2,0l0,0.2
					c0,0,0,0.1,0,0.1c0,0,0,0,0,0c0,0,0,0,0,0l0.2-0.1l0,0.2c0,0,0,0,0,0.1c0,0,0,0,0,0c0,0,0,0,0,0l0.2-0.1l0.1,0.2
					c0,0,0,0,0.1,0.1c0,0,0,0,0,0c0,0,0,0,0,0l0.2-0.1l0.1,0.2c0,0,0,0,0.1,0c0,0,0,0,0,0c0,0,0,0,0.1,0l0.1-0.1l0.1,0.2
					c0,0,0,0,0.1,0c0,0,0.1,0,0.1,0l0.1-0.2l0.1,0.1c0,0,0,0,0.1,0c0,0,0,0,0,0c0,0,0,0,0.1,0l0.1-0.2l0.2,0.1c0,0,0,0,0,0
					c0,0,0,0,0,0c0,0,0,0,0.1-0.1l0.1-0.2l0.2,0.1c0,0,0,0,0,0c0,0,0,0,0,0c0,0,0,0,0-0.1l0-0.2l0.2,0.1c0,0,0,0,0,0c0,0,0,0,0,0
					c0,0,0,0,0-0.1l0-0.2l0.2,0c0,0,0,0,0,0c0,0,0,0,0.1,0c0,0,0,0,0-0.1l0-0.2l0.2,0c0,0,0,0,0,0c0,0,0,0,0.1,0c0,0,0,0,0-0.1
					l-0.1-0.2l0.2,0c0,0,0,0,0.1,0c0,0,0-0.1,0-0.1l-0.1-0.2l0.2-0.1c0,0,0,0,0.1-0.1c0,0,0-0.1,0-0.1l-0.1-0.2l0.2-0.1
					c0,0,0,0,0-0.1c0,0,0-0.1,0-0.1l-0.1-0.1l0.2-0.1c0,0,0,0,0-0.1c0,0,0-0.1,0-0.1l-0.2-0.1l0.1-0.1c0,0,0,0,0-0.1c0,0,0,0,0-0.1
					l-0.2-0.1l0.1-0.2c0,0,0,0,0-0.1c0,0,0,0-0.1-0.1l-0.2-0.1l0.1-0.2c0,0,0,0,0-0.1c0,0,0,0-0.1,0l-0.2,0l0.1-0.2c0,0,0,0,0,0
					c0,0,0-0.1-0.1-0.1h0h0c0,0,0,0,0,0l-0.2,0l0-0.2c0,0,0,0,0,0c0,0,0-0.1-0.1-0.1h0c0,0,0,0,0,0c0,0,0,0,0,0c0,0,0,0,0,0l-0.2,0
					l0-0.2c0,0,0,0,0,0c0,0,0-0.1-0.1-0.1h0h0c0,0,0,0,0,0l0,0h0c0,0,0,0,0,0l-0.2,0.1l0-0.2c0,0,0,0,0-0.1c0,0,0,0,0,0c0,0,0,0,0,0
					l-0.2,0.1l-0.1-0.2c0,0,0,0-0.1-0.1c0,0,0,0,0,0c0,0,0,0,0,0L58,90.2L57.9,90c0,0,0,0-0.1,0c0,0,0,0,0,0c0,0,0,0-0.1,0l-0.1,0.1
					L57.5,89.9C57.5,89.9,57.5,89.9,57.5,89.9L57.5,89.9z"/>
			</g>
		</g>
		<g>
			<g>
				<path d="M65.6,91.1c0.9,0,1.6,0.7,1.6,1.6c0,0.9-0.7,1.6-1.6,1.6c-0.9,0-1.6-0.7-1.6-1.6C64,91.8,64.7,91.1,65.6,91.1 M65.6,91
					c-0.9,0-1.6,0.7-1.6,1.6c0,0.9,0.7,1.6,1.6,1.6s1.6-0.7,1.6-1.6C67.2,91.8,66.5,91,65.6,91L65.6,91z"/>
			</g>
			<circle cx="65.6" cy="92.7" r="0.9"/>
		</g>
		<g>
			<path d="M45.2,87.9l0.4,1.2h-0.3l-0.1-0.3h-0.4L44.8,89h-0.3l0.4-1.2H45.2z M45.2,88.6l-0.1-0.4h0l-0.2,0.4H45.2z"/>
		</g>
		<g>
			<path d="M52,87.9c0.1,0,0.1,0,0.2,0c0,0,0.1,0,0.1,0c0,0,0.1,0.1,0.1,0.1c0,0,0,0.1,0,0.1c0,0.1,0,0.1,0,0.1c0,0-0.1,0.1-0.1,0.1
				c0.1,0,0.1,0.1,0.2,0.1c0,0.1,0.1,0.1,0.1,0.2c0,0.1,0,0.1,0,0.2c0,0-0.1,0.1-0.1,0.1c0,0-0.1,0-0.1,0.1c0,0-0.1,0-0.2,0h-0.6
				v-1.2H52z M52,88.4c0,0,0.1,0,0.1,0c0,0,0-0.1,0-0.1c0,0,0,0,0-0.1c0,0,0,0,0,0c0,0,0,0-0.1,0c0,0,0,0-0.1,0h-0.2v0.3H52z
				 M52,88.9C52,88.9,52.1,88.9,52,88.9c0.1,0,0.1,0,0.1,0c0,0,0,0,0,0c0,0,0,0,0-0.1c0-0.1,0-0.1-0.1-0.1c0,0-0.1,0-0.1,0h-0.3v0.3
				H52z"/>
		</g>
		<g>
			<path d="M59.3,88.2C59.3,88.2,59.3,88.2,59.3,88.2c-0.1-0.1-0.1-0.1-0.1-0.1c0,0-0.1,0-0.1,0c-0.1,0-0.1,0-0.1,0
				c0,0-0.1,0.1-0.1,0.1c0,0,0,0.1-0.1,0.1c0,0,0,0.1,0,0.1c0,0,0,0.1,0,0.1c0,0,0,0.1,0.1,0.1c0,0,0.1,0.1,0.1,0.1c0,0,0.1,0,0.1,0
				c0.1,0,0.1,0,0.2-0.1c0,0,0.1-0.1,0.1-0.2h0.2c0,0.1,0,0.1-0.1,0.2c0,0.1-0.1,0.1-0.1,0.2c0,0-0.1,0.1-0.2,0.1
				c-0.1,0-0.1,0-0.2,0c-0.1,0-0.2,0-0.2,0c-0.1,0-0.1-0.1-0.2-0.1c0-0.1-0.1-0.1-0.1-0.2c0-0.1,0-0.2,0-0.2c0-0.1,0-0.2,0-0.2
				c0-0.1,0.1-0.1,0.1-0.2c0-0.1,0.1-0.1,0.2-0.1c0.1,0,0.2,0,0.2,0c0.1,0,0.1,0,0.2,0c0.1,0,0.1,0,0.2,0.1c0,0,0.1,0.1,0.1,0.1
				c0,0.1,0,0.1,0.1,0.2L59.3,88.2C59.3,88.3,59.3,88.3,59.3,88.2z"/>
		</g>
		<g>
			<path d="M64.7,88.9V89h0c0,0,0.1-0.1,0.1-0.1c0,0,0.1,0,0.1,0c0.1,0,0.1,0,0.2,0c0,0,0.1,0.1,0.1,0.1c0,0,0.1,0.1,0.1,0.1
				c0,0.1,0,0.1,0,0.2c0,0.1,0,0.1,0,0.2c0,0.1,0,0.1-0.1,0.1c0,0-0.1,0.1-0.1,0.1c0,0-0.1,0-0.2,0c-0.1,0-0.1,0-0.1,0
				c0,0-0.1-0.1-0.1-0.1h0V90h-0.2v-1.1H64.7z M65,89.5C65,89.5,65.1,89.5,65,89.5c0.1-0.1,0.1-0.1,0.1-0.1c0,0,0-0.1,0-0.1
				c0,0,0-0.1,0-0.1c0,0,0-0.1,0-0.1c0,0,0,0-0.1-0.1c0,0-0.1,0-0.1,0c0,0-0.1,0-0.1,0c0,0,0,0-0.1,0.1c0,0,0,0.1,0,0.1
				c0,0,0,0.1,0,0.1c0,0,0,0.1,0,0.1c0,0,0,0.1,0,0.1c0,0,0,0,0.1,0.1C64.8,89.6,64.9,89.6,65,89.5C65,89.6,65,89.6,65,89.5z"/>
			<path d="M66.2,89.7l-0.1-0.6h0l-0.1,0.6h-0.2l-0.3-0.8h0.2l0.2,0.6h0l0.1-0.6h0.2l0.1,0.6h0l0.2-0.6h0.2l-0.3,0.8H66.2z"/>
			<path d="M67,88.9V89h0C67,89,67.1,89,67,88.9c0.1,0.1,0.1,0,0.1,0c0,0,0,0,0.1,0c0,0,0.1,0,0.1,0c0,0,0,0,0.1,0v0.2c0,0,0,0,0,0
				c0,0,0,0,0,0c0,0-0.1,0-0.1,0c0,0-0.1,0-0.1,0.1c0,0,0,0.1,0,0.1c0,0,0,0.1,0,0.1v0.4h-0.2v-0.8H67z"/>
		</g>
		<path class="st30" d="M39.3,94.3c0,0-0.4-3.4-0.1-4.6c0.2-1.2,0.8-2.2,2-2.8c1.1-0.5,6.4-1,11.8-1c5.4,0,10.7,0.1,12,0.4
			c1.2,0.3,3.5,1.5,3.6,3.4c0.1,1.9,0,4.7,0,4.7"/>
		<path class="st30" d="M69.2,89.9c0,0,3.9-0.2,6.3-0.8c1.7-0.4,3.6-1.3,3.8-1.7"/>
		<path class="st30" d="M38.4,89.9c0,0-4.6-0.2-7.4-0.8c-2-0.4-4.2-1.3-4.5-1.7"/>
		<g>
			<path class="st3" d="M53,76c-2.4,0-11-0.6-13-1c-2.1-0.4-9.7-5.3-11.2-6.3c-1.4-0.9-3.1-2.3-3.4-2.6c-0.3-0.3-0.3-0.7-0.3-0.9
				c-0.3-0.2-0.9-0.6-1.1-1.6c-0.1-0.7-0.2-1.4-0.2-1.8c0-0.1,0-0.2,0-0.3c0-0.4,0-10,0.1-10.7l0-0.2c0-0.9,0-2.7,1.3-4.3
				c1.3-1.6,2.5-2.5,4.6-3.1c2.1-0.7,7.1-1.9,11.9-2.4c5.5-0.6,9.2-0.7,11.4-0.7c2.6,0,10.1,0.5,14.2,1.2c4.3,0.8,7.8,1.6,9.5,2.4
				c1.8,0.8,3.3,2.6,3.7,3.4c0.3,0.7,0.8,1.7,0.8,3.3c0,1.4,0.1,10.7,0,11.3c0,0.5-0.1,1.8-0.3,2.3c-0.2,0.6-0.5,0.9-0.9,1.1
				c0,0.3-0.1,0.8-0.5,1.1c-0.4,0.3-3.1,2.3-3.1,2.3c-0.3,0.3-8.5,6.2-12.2,6.6c-3.7,0.4-8.6,0.9-11.1,0.9L53,76z"/>
			<path d="M53.1,40.4c2.6,0,10.1,0.5,14.2,1.2c4.2,0.8,7.7,1.6,9.5,2.3c1.7,0.7,3.2,2.6,3.6,3.3c0.3,0.8,0.8,1.6,0.8,3.2
				c0,1.5,0.1,10.7,0,11.3c0,0.6-0.1,1.8-0.3,2.2c-0.1,0.4-0.4,0.9-0.9,1c0,0.2,0,0.8-0.4,1.1c-0.4,0.3-3.1,2.3-3.1,2.3
				s-8.4,6.2-12.1,6.6c-3.6,0.4-8.5,0.9-11.1,0.9c-0.1,0-0.2,0-0.3,0c-2.5,0-11-0.6-13-1c-2-0.4-9.7-5.3-11.1-6.3
				c-1.4-0.9-3-2.3-3.3-2.6c-0.3-0.3-0.3-0.6-0.2-0.9c-0.3-0.2-0.9-0.5-1.1-1.5c-0.2-1-0.2-1.8-0.2-2.1c0,0,0-9.9,0.1-10.7
				c0-0.7-0.1-2.7,1.2-4.4c1.3-1.7,2.6-2.4,4.4-3c2-0.6,6.9-1.8,11.8-2.4S50.5,40.4,53.1,40.4 M53.1,39.8c-2.1,0-5.9,0.1-11.4,0.7
				c-4.8,0.5-9.8,1.7-11.9,2.4c-2.1,0.7-3.4,1.5-4.7,3.2c-1.3,1.6-1.3,3.5-1.3,4.4l0,0.2c0,0.7-0.1,10.3-0.1,10.7l0,0l0,0
				c0,0.1,0,0.1,0,0.3c0,0.4,0,1.1,0.2,1.8c0.2,0.9,0.7,1.4,1,1.6c0,0.3,0.1,0.6,0.4,1c0.4,0.4,2.1,1.8,3.4,2.7
				c0.9,0.6,9,5.9,11.3,6.4c2.1,0.4,10.7,1,13.1,1l0.3,0c2.6,0,7.4-0.4,11.1-0.9c3.8-0.4,12-6.4,12.3-6.7c0,0,2.6-2,3.1-2.3
				c0.5-0.3,0.6-0.8,0.6-1.1c0.4-0.2,0.7-0.6,0.9-1.2c0.2-0.5,0.3-2,0.3-2.4c0-0.6,0-9.8,0-11.3c0-1.7-0.5-2.7-0.8-3.4
				c-0.4-0.8-2-2.8-3.9-3.6c-1.7-0.7-5.2-1.6-9.6-2.4C63.2,40.3,55.7,39.8,53.1,39.8L53.1,39.8z"/>
		</g>
		<path class="st31" d="M40,73.4c0,0,0.3,6.7,0.1,9c-0.4,0.2-1.6,0.6-2.7,0.8c-1.1,0.2-3.2,0.4-4,0.2c0.1-2.8-0.7-6.4-1.4-9.2
			c-0.7-2.8-2.8-6.8-2.8-6.8"/>
		<path class="st31" d="M76.9,67.2c0,0-1.3,2.5-1.7,3.8c-0.4,1.3-1.5,4.5-1.8,6.6c-0.3,2.1-0.5,5.6-0.5,5.6s-5.4,0.2-7.1-0.9
			c-0.1-0.9-0.2-2.6-0.2-4.3c0-1.4,0-4.3,0-4.3"/>
		<path class="st30" d="M29.3,67.2c0,0,7.7,4.5,9,5.3c1.3,0.7,1.8,1.2,2.8,1.3c1,0.1,5.5,0.7,11.1,0.5c5.6-0.1,10.8-0.5,12.1-0.6
			c1.3-0.1,2.1-0.6,3.6-1.4c1.5-0.7,8.1-4.5,8.8-5.1"/>
		<path class="st30" d="M45.4,41c0,0-3.9,0.3-7.7,0.9c-3.8,0.7-7,1.5-8.1,2.9c-0.6,0.7-2.3,2.4-2.5,5.4c0,0-0.2,6.5-0.2,7.8
			c0,1.3-0.1,3.4-0.1,3.9c0,0.5,0.3,1.8,0.6,2.7c0.4,0.9,0.7,1.1,1.2,1.3c-0.1-0.6-0.3-1.1-0.4-1.8c-0.1-0.6-0.1-5.8-0.1-5.8
			s0.1-7.5,0.2-8.1c0.1-0.6,0.3-2.7,1.4-3.7c1.1-1,3-2.4,6.5-3.3C39.8,42.3,45.4,41,45.4,41z"/>
		<path class="st30" d="M61.1,41c0,0,4.3,0.4,6.8,0.9c2.5,0.5,6.6,1,8.3,2.5c1.7,1.5,3.1,2.9,3.3,5.2c0.2,2.3,0.1,7.1,0.2,9.7
			c0,2.6-0.1,4.1-0.2,4.5c-0.1,0.4-0.7,1.5-0.9,1.7c-0.2,0.2-0.6,0.1-0.6,0.1s0.6-1.1,0.7-3.1c0.1-2-0.1-10.5-0.1-11.8
			c0-1.3-1-3.7-2.1-4.7c-1.1-1-5-2.5-6.7-2.9C67.9,42.5,62.5,41.1,61.1,41z"/>
		<path class="st30" d="M81,62c0,0-1.4,0.6-1.6,0.7c-0.2,0.1-0.5,0.1-1,0c-0.6,0.1-2.3,0.4-4.8,0.6c-2.6,0.3-14.8,0.8-21.4,0.8
			c-6.6,0-20.7-0.6-24-1.2c0,0-0.9,0-1.3-0.3c-0.5,0-2-0.4-2.5-0.8"/>
		<path class="st5" d="M25.5,65c0,0,1.8,0.7,5.9,1.1c4,0.4,17.1,1,21.7,1c4.5,0,15-0.4,18.2-0.7c3.1-0.3,7.4-0.7,8.7-1.5"/>
		<path class="st30" d="M26.2,66.2c0,0,2.3,0.9,5.6,1.2c4,0.4,13.7,1.2,22,1.2c8.3,0,16.4-0.9,19.3-1.3c2.9-0.4,4.9-0.7,5.8-1"/>
		<polygon points="53.5,42.6 53.1,43.1 53.2,44.4 53.8,44.7 54.3,44.4 54.1,43 		"/>
		<polygon points="53.9,41.4 57,43.2 56.3,43.5 54,42.1 		"/>
		<path d="M53.5,40.7l0.1,0.3c0,0,1,0.3,2,0.8c1,0.5,2.1,1.2,2.1,1.2l0.7-0.3c0,0-1.4-0.9-2.4-1.3C55.1,41.1,53.5,40.7,53.5,40.7z"
			/>
		<path d="M55.5,40.7c0,0,1.3,0.1,1.7,0.2c0.4,0.1,2.2,0.8,2.9,1.2c0.8,0.4,1.2,0.7,1.2,0.7l-1.2-0.1C60.2,42.7,57.8,41.2,55.5,40.7
			z"/>
		<path d="M59.6,41.4c0,0,2.1,0.6,2.2,0.7c0.1,0,1.9,1,2.2,1.2c0,0-0.8-0.1-1.1-0.1C62.5,42.9,60.5,41.6,59.6,41.4z"/>
		<path d="M60.4,41.3c0,0,6.7,1.3,7.3,1.6c0.2,0.2,0.1,0.3,0.1,0.3S61.2,41.4,60.4,41.3z"/>
		<path class="st30" d="M57.1,40.7c0,0,3.1,0.3,5.5,0.8c2.4,0.5,4.7,1.1,4.7,1.1"/>
		<polygon points="52.7,41.3 49.7,43.2 50.3,43.4 52.6,42 		"/>
		<path d="M53.1,40.6L53,40.9c0,0-1,0.3-2,0.9c-1,0.5-2,1.2-2,1.2l-0.7-0.2c0,0,1.4-0.9,2.3-1.3C51.5,41,53.1,40.6,53.1,40.6z"/>
		<path d="M51.1,40.7c0,0-1.3,0.1-1.7,0.3c-0.4,0.1-2.2,0.8-2.9,1.2c-0.7,0.5-1.2,0.7-1.2,0.7l1.2-0.1
			C46.4,42.7,48.8,41.2,51.1,40.7z"/>
		<path d="M47,41.3c0,0-2.1,0.7-2.2,0.7c-0.1,0-1.9,1-2.2,1.3c0,0,0.8-0.1,1.1-0.1C44.1,42.9,46.2,41.6,47,41.3z"/>
		<path d="M46.2,41.3c0,0-6.7,1.4-7.3,1.6c-0.2,0.2-0.1,0.3-0.1,0.3S45.4,41.5,46.2,41.3z"/>
		<path class="st30" d="M49.5,40.7c0,0-3.1,0.3-5.5,0.8c-2.4,0.5-4.7,1.1-4.7,1.1"/>
		<path class="st30" d="M31.6,47.5c0,0,10.6,0.8,22.5,0.8c11.9,0,20.6-0.9,20.6-0.9"/>
		<path class="st30" d="M44.8,80.6c0,0,2.4,1,7.6,1c5.1,0,7.8-1,7.8-1"/>
	</g>
	<g>
	</g>
	<g>
	</g>
	<g>
	</g>
	<g>
	</g>
	<g>
	</g>
	<g>
	</g>
</g>
</svg>
