<?xml version="1.0" encoding="utf-8"?>
<!-- Generator: Adobe Illustrator 20.0.0, SVG Export Plug-In . SVG Version: 6.00 Build 0)  -->
<svg version="1.1" xmlns="http://www.w3.org/2000/svg" xmlns:xlink="http://www.w3.org/1999/xlink" x="0px" y="0px"
	 viewBox="0 0 205 208.6" style="enable-background:new 0 0 205 208.6;" xml:space="preserve">
<style type="text/css">
	.st0{fill:none;stroke:#9D9FA2;stroke-width:3;}
	.st1{fill:#FFFFFF;stroke:#000000;stroke-width:0.4785;}
	.st2{fill:#EF4423;}
	.st3{fill:#FFFFFF;}
	.st4{fill:none;stroke:#000000;stroke-width:0.73;}
	.st5{fill:none;stroke:#000000;stroke-width:0.5;stroke-linecap:round;}
	.st6{fill:#FFFFFF;stroke:#000000;stroke-width:0.649;}
	.st7{stroke:#000000;stroke-width:0.649;}
	.st8{fill:#FFFFFF;stroke:#000000;stroke-width:0.5;}
	.st9{fill:none;stroke:#000000;stroke-width:0.5;}
	.st10{stroke:#000000;stroke-width:0.1783;}
	.st11{fill:none;stroke:#000000;stroke-width:0.5348;}
	.st12{fill:none;stroke:#000000;stroke-width:0.713;}
	.st13{fill:none;stroke:#000000;stroke-width:0.2309;stroke-linecap:round;}
	.st14{fill:#FFFFFF;stroke:#000000;stroke-width:0.5;stroke-linecap:round;}
</style>
<g id="DVD_x2F_VCR">
	<g id="cable_copy">
	</g>
	<g id="projector_copy">
	</g>
	<g id="Astronaut_copy">
	</g>
	<g id="Text_copy">
	</g>
	<g id="Layer_13">
	</g>
	<g id="Layer_14">
		<g id="Layer_15">
		</g>
		<path class="st0" d="M94.9,147c19.6,0,104.6,0,104.6,0s4,0.6,4-4c0-4.6,0-121.7,0-126.4c0-4.6-4-4-4-4s-85,0-104.6,0"/>
	</g>
	<g id="Layer_16">
	</g>
	<g id="Layer_17">
	</g>
	<g>
		<g>
			<g>
				<g>
					<polyline class="st1" points="65.8,11.7 65.1,12 62.5,11.8 62,12.2 62,13.6 62.5,14.1 65.1,13.8 65.8,14.2 					"/>
					<rect x="69.6" y="11.7" class="st1" width="6.7" height="2.5"/>
					<rect x="75.9" y="10.6" class="st1" width="0.7" height="4.5"/>
					<rect x="67.1" y="11.7" class="st1" width="1.9" height="2.5"/>
					<rect x="65.8" y="11.7" class="st1" width="0.7" height="2.5"/>
					<rect x="66.4" y="11.9" class="st1" width="0.6" height="2.1"/>
					
						<rect x="68.2" y="12.6" transform="matrix(1.884237e-03 -1 1 1.884237e-03 56.2105 82.1469)" class="st1" width="2.1" height="0.6"/>
					<polyline class="st1" points="62.5,11.8 62,12.2 62,13.6 62.5,14.1 					"/>
					<g>
						<polygon class="st1" points="96.6,11.6 96.6,14.1 85.9,15.3 85.9,10.2 						"/>
						<polygon class="st1" points="85.9,10.1 87.5,10.1 87.5,12.2 88.2,12.2 88.2,10.1 89.8,10.2 89.8,12.2 90.6,12.2 90.6,10.3 
							92,10.4 92,12.2 92.7,12.2 92.7,10.5 94.2,10.6 94.2,12.2 94.9,12.2 94.9,10.7 96.6,10.8 96.6,14.8 94.9,14.9 94.9,13.5 
							94.2,13.5 94.2,14.9 92.7,15.1 92.7,13.5 92,13.5 92,15.1 90.6,15.2 90.6,13.5 89.8,13.5 89.8,15.3 88.2,15.4 88.2,13.5 
							87.5,13.5 87.5,15.5 85.9,15.5 						"/>
					</g>
					<polygon class="st1" points="85.9,15.7 76.5,15.7 76.5,9.8 85.9,9.8 					"/>
				</g>
			</g>
		</g>
	</g>
	<g>
		<path class="st2" d="M123.5,29.3c-1,0-1.9-0.9-1.9-1.9c0-0.7,0.4-1.3,0.9-1.6V10.1h1.9v15.7c0.6,0.3,0.9,1,0.9,1.6
			C125.4,28.4,124.5,29.3,123.5,29.3z"/>
		<path class="st3" d="M123.9,10.6v15.5c0.5,0.2,0.9,0.7,0.9,1.3c0,0.8-0.6,1.4-1.4,1.4c-0.8,0-1.4-0.6-1.4-1.4
			c0-0.6,0.4-1.1,0.9-1.3V10.6H123.9 M124.9,9.6h-0.9H123H122v0.9v14.9c-0.6,0.4-0.9,1.1-0.9,1.9c0,1.3,1.1,2.4,2.4,2.4
			c1.3,0,2.4-1.1,2.4-2.4c0-0.7-0.4-1.4-0.9-1.9V10.6V9.6L124.9,9.6z"/>
	</g>
	<path class="st4" d="M5.3,0.4c-2.2,0-4,1.8-4,4v24.1c0,2.2,1.8,4,4,4h20l3.9,4l3.8-4h19.7c2.2,0,4-1.8,4-4V4.4c0-2.2-1.8-4-4-4H5.3
		z"/>
	<g>
		<path d="M129.9,24.7c-0.3-0.2-0.7-0.3-1.1-0.3c-0.6,0-1,0.4-1,0.9c0,0.4,0.2,0.7,1.1,1.2c1,0.6,1.3,1.1,1.3,1.8
			c0,1-0.6,1.8-1.8,1.8c-0.5,0-1-0.1-1.3-0.3v-0.8c0.4,0.2,0.8,0.4,1.2,0.4c0.7,0,1.1-0.5,1.1-1c0-0.5-0.1-0.8-1-1.3
			c-1.1-0.7-1.4-1.1-1.4-1.9c0-1,0.8-1.6,1.7-1.6c0.4,0,0.9,0.1,1.1,0.2V24.7z"/>
		<path d="M133.2,30.1c-0.2,0.1-0.4,0.1-0.6,0.1c-0.7,0-1.1-0.3-1.1-1.1v-3h-0.7v-0.6h0.7v-0.9l0.8-0.2v1.2h0.9v0.6h-0.9v2.7
			c0,0.5,0.1,0.7,0.5,0.7c0.2,0,0.3-0.1,0.5-0.1V30.1z"/>
		<path d="M134.4,28c0,1.1,0.4,1.6,1.3,1.6c0.4,0,0.8-0.2,1.1-0.4l0,0.7c-0.4,0.2-0.8,0.3-1.3,0.3c-1.2,0-1.8-0.9-1.8-2.4
			s0.6-2.4,1.8-2.4c1,0,1.6,0.8,1.6,2.2V28H134.4z M136.2,27.5c0-1-0.3-1.4-0.9-1.4c-0.5,0-0.9,0.4-0.9,1.4H136.2z"/>
		<path d="M137.8,26.5c0-0.3,0-0.7,0-1h0.7l0,0.7h0c0.2-0.6,0.6-0.8,1.3-0.8v0.7c-0.1,0-0.2,0-0.3,0c-0.6,0-1,0.5-1,1.5v2.4h-0.8
			V26.5z"/>
		<path d="M141,28c0,1.1,0.4,1.6,1.3,1.6c0.4,0,0.8-0.2,1.1-0.4l0,0.7c-0.4,0.2-0.8,0.3-1.3,0.3c-1.2,0-1.8-0.9-1.8-2.4
			s0.6-2.4,1.8-2.4c1,0,1.6,0.8,1.6,2.2V28H141z M142.9,27.5c0-1-0.3-1.4-0.9-1.4c-0.5,0-0.9,0.4-0.9,1.4H142.9z"/>
		<path d="M146.1,25.5c1.2,0,1.8,0.9,1.8,2.4s-0.6,2.4-1.8,2.4c-1.2,0-1.8-0.9-1.8-2.4S144.9,25.5,146.1,25.5z M146.1,29.6
			c0.7,0,1.1-0.6,1.1-1.7s-0.3-1.7-1.1-1.7c-0.7,0-1.1,0.6-1.1,1.7S145.4,29.6,146.1,29.6z"/>
		<path d="M154.8,30c-0.4,0.1-0.8,0.2-1.1,0.2c-2,0-2.8-1.5-2.8-3.2c0-2,1.1-3.2,2.8-3.2c0.5,0,0.9,0.1,1.2,0.2v0.8
			c-0.3-0.2-0.7-0.3-1.2-0.3c-1,0-2,0.8-2,2.3c0,1.6,0.6,2.7,2,2.7c0.4,0,0.8-0.1,1.1-0.3V30z"/>
		<path d="M156,25.8c0.4-0.2,0.8-0.4,1.3-0.4c0.7,0,1.1,0.3,1.2,0.4c0.2,0.2,0.4,0.5,0.4,1.1v2.4c0,0.3,0,0.5,0,0.7h-0.7l0-0.6h0
			c-0.2,0.4-0.6,0.7-1.3,0.7c-0.8,0-1.3-0.4-1.3-1.3c0-0.9,0.6-1.5,2.2-1.5h0.4v-0.2c0-0.3,0-0.5-0.2-0.7c-0.2-0.2-0.5-0.3-0.8-0.3
			c-0.5,0-0.9,0.2-1.2,0.5L156,25.8z M158.2,27.9c-0.1,0-0.3,0-0.5,0c-0.9,0-1.3,0.4-1.3,1c0,0.5,0.3,0.8,0.8,0.8
			c0.7,0,1.1-0.5,1.1-1.2V27.9z"/>
		<path d="M159.9,23.4h0.8v2.8h0c0.3-0.5,0.6-0.7,1.2-0.7c0.9,0,1.6,0.8,1.6,2.4s-0.6,2.4-1.6,2.4c-0.7,0-1-0.4-1.2-0.7h0l0,0.7
			h-0.7c0-0.3,0-0.6,0-0.8V23.4z M161.7,29.6c0.7,0,1-0.6,1-1.7s-0.3-1.7-1-1.7c-0.7,0-1,0.6-1,1.7S161,29.6,161.7,29.6z"/>
		<path d="M164.4,23.4h0.8v6.8h-0.8V23.4z"/>
		<path d="M166.9,28c0,1.1,0.4,1.6,1.3,1.6c0.4,0,0.8-0.2,1.1-0.4l0,0.7c-0.4,0.2-0.8,0.3-1.3,0.3c-1.2,0-1.8-0.9-1.8-2.4
			s0.6-2.4,1.8-2.4c1,0,1.6,0.8,1.6,2.2V28H166.9z M168.7,27.5c0-1-0.3-1.4-0.9-1.4c-0.5,0-0.9,0.4-0.9,1.4H168.7z"/>
	</g>
	<g>
		<polygon class="st2" points="38.7,12.8 47.6,9 46.5,11.5 61,11.5 61,14 46.5,14 47.6,16.5 		"/>
		<path class="st3" d="M47.2,9.4l-1,2.3h14.6v2.2H46.2l1,2.3l-8-3.4L47.2,9.4 M47.9,8.7l-0.8,0.4l-8,3.4l-0.8,0.3l0.8,0.3l8,3.4
			l0.8,0.3L47.5,16l-0.8-1.8h14h0.4v-0.4v-2.2v-0.4h-0.4h-14l0.8-1.8L47.9,8.7L47.9,8.7z"/>
	</g>
	<g>
		<path class="st3" d="M169.1,15.3c0,0-0.9-1,0-2.3c0.9-1.3,0-2.7,0-2.7h-2.3c0,0,0.9,1.4,0,2.7c-0.9,1.3,0,2.3,0,2.3H169.1z"/>
		<path class="st5" d="M169.1,10.3c0,0,0.9,1.4,0,2.7c-0.9,1.3,0,2.3,0,2.3"/>
		<path class="st5" d="M166.9,10.3c0,0,0.9,1.4,0,2.7c-0.9,1.3,0,2.3,0,2.3"/>
	</g>
	<g>
		<path d="M5.2,21.8H6v6.3H5.2V21.8z"/>
		<path d="M7.2,24.5c0-0.3,0-0.7,0-1h0.7l0,0.7h0c0.2-0.5,0.6-0.7,1.2-0.7c0.8,0,1.3,0.5,1.3,1.5v3.2H9.7v-3c0-0.7-0.3-1-0.8-1
			c-0.6,0-1,0.4-1,1.2v2.8H7.2V24.5z"/>
		<path d="M11.5,24.3c0-0.3,0-0.6,0-0.8h0.7l0,0.7h0c0.2-0.4,0.5-0.7,1.2-0.7c0.9,0,1.6,0.8,1.6,2.4s-0.6,2.4-1.6,2.4
			c-0.5,0-0.9-0.2-1.2-0.7h0V30h-0.8V24.3z M13.2,27.5c0.7,0,1-0.6,1-1.7s-0.3-1.7-1-1.7s-1,0.6-1,1.7S12.6,27.5,13.2,27.5z"/>
		<path d="M19.1,27.1c0,0.3,0,0.7,0,1h-0.7l0-0.7h0c-0.2,0.5-0.6,0.7-1.2,0.7c-0.8,0-1.3-0.5-1.3-1.5v-3.2h0.8v3c0,0.7,0.3,1,0.8,1
			c0.6,0,1-0.4,1-1.2v-2.8h0.8V27.1z"/>
		<path d="M22.2,28c-0.2,0.1-0.4,0.1-0.6,0.1c-0.7,0-1.1-0.3-1.1-1.1v-3h-0.7v-0.6h0.7v-0.9l0.8-0.2v1.2h0.9v0.6h-0.9v2.7
			c0,0.5,0.1,0.7,0.5,0.7c0.2,0,0.3-0.1,0.5-0.1V28z"/>
		<path d="M27,21.8l2.1,6.3h-0.8l-0.5-1.6h-2.4l-0.5,1.6h-0.8l2.1-6.3H27z M27.6,25.7l-1-3.1h0l-1,3.1H27.6z"/>
		<path d="M29.9,27.1h0.8l-0.6,2.1h-0.7L29.9,27.1z"/>
		<path d="M32,21.8h1.6c1.2,0,1.7,0.7,1.7,1.6c0,0.7-0.4,1.2-1,1.4v0c0.7,0.1,1.2,0.7,1.2,1.6c0,0.9-0.6,1.7-2,1.7H32V21.8z
			 M32.8,24.5h0.5c0.9,0,1.3-0.4,1.3-1.1c0-0.5-0.3-1-1.2-1h-0.6V24.5z M32.8,27.4h0.7c0.8,0,1.2-0.5,1.2-1.1c0-0.6-0.4-1.1-1.1-1.1
			h-0.8V27.4z"/>
		<path d="M36.2,27.1H37l-0.6,2.1h-0.7L36.2,27.1z"/>
		<path d="M41.7,23.4c1.2,0,1.8,0.9,1.8,2.4s-0.6,2.4-1.8,2.4c-1.2,0-1.8-0.9-1.8-2.4S40.5,23.4,41.7,23.4z M41.7,27.5
			c0.7,0,1.1-0.6,1.1-1.7S42.4,24,41.7,24c-0.7,0-1.1,0.6-1.1,1.7S40.9,27.5,41.7,27.5z"/>
		<path d="M44.4,24.5c0-0.3,0-0.7,0-1h0.7l0,0.7h0c0.2-0.6,0.6-0.8,1.3-0.8v0.7c-0.1,0-0.2,0-0.3,0c-0.6,0-1,0.5-1,1.5v2.4h-0.8
			V24.5z"/>
		<path d="M53.1,27.9c-0.4,0.1-0.8,0.2-1.1,0.2c-2,0-2.8-1.5-2.8-3.2c0-2,1.1-3.2,2.8-3.2c0.5,0,0.9,0.1,1.2,0.2v0.8
			c-0.3-0.2-0.7-0.3-1.2-0.3c-1,0-2,0.8-2,2.3c0,1.6,0.6,2.7,2,2.7c0.4,0,0.8-0.1,1.1-0.3V27.9z"/>
	</g>
	<g>
		<circle class="st6" cx="29" cy="11.9" r="6.8"/>
		<path class="st7" d="M24.7,11.9c0,2.4,1.9,4.3,4.3,4.3c2.3,0,4.3-1.9,4.3-4.3c0-2.4-1.9-4.3-4.3-4.3C26.6,7.6,24.7,9.5,24.7,11.9z
			"/>
	</g>
	<g>
		<g>
			<g>
				<g>
					<polyline class="st1" points="65.8,146.1 65.1,146.4 62.5,146.2 62,146.6 62,148 62.5,148.5 65.1,148.2 65.8,148.6 					"/>
					<rect x="69.6" y="146.1" class="st1" width="5.7" height="2.5"/>
					<rect x="74.9" y="145" class="st1" width="0.7" height="4.5"/>
					<rect x="67.1" y="146.1" class="st1" width="1.9" height="2.5"/>
					<rect x="65.8" y="146.1" class="st1" width="0.7" height="2.5"/>
					<rect x="66.4" y="146.3" class="st1" width="0.6" height="2.1"/>
					
						<rect x="68.2" y="147" transform="matrix(2.366814e-03 -1 1 2.366814e-03 -78.2188 216.2184)" class="st1" width="2.1" height="0.6"/>
					<polyline class="st1" points="62.5,146.2 62,146.6 62,148 62.5,148.5 					"/>
					<g>
						<polygon class="st1" points="94.6,146 94.6,148.5 83.9,149.7 83.9,144.6 						"/>
						<polygon class="st1" points="83.9,144.5 85.5,144.5 85.5,146.6 86.2,146.6 86.2,144.5 87.8,144.6 87.8,146.6 88.6,146.6 
							88.6,144.7 90,144.8 90,146.6 90.7,146.6 90.7,144.9 92.2,145 92.2,146.6 92.9,146.6 92.9,145 94.6,145.2 94.6,149.2 
							92.9,149.3 92.9,147.8 92.2,147.8 92.2,149.3 90.7,149.5 90.7,147.8 90,147.8 90,149.5 88.6,149.6 88.6,147.8 87.8,147.8 
							87.8,149.7 86.2,149.8 86.2,147.8 85.5,147.8 85.5,149.9 83.9,149.9 						"/>
					</g>
					<polygon class="st1" points="83.9,150.1 75.5,150.1 75.5,144.2 83.9,144.2 					"/>
				</g>
			</g>
		</g>
	</g>
	<path class="st4" d="M12.3,135.7c-2.2,0-4,1.8-4,4v24.1c0,2.2,1.8,4,4,4h13l3.9,4l3.8-4h12.7c2.2,0,4-1.8,4-4v-24.1
		c0-2.2-1.8-4-4-4H12.3z"/>
	<g>
		<rect x="9.8" y="192.6" class="st8" width="7" height="2.2"/>
		<rect x="41.3" y="192.6" class="st8" width="7" height="2.2"/>
		<path class="st8" d="M10.2,177.1c0.4,0,13,0,14.3,0c1.4,0,3.3-3.6,8.9-3.6c5.6,0,7.6,3.6,8.8,3.6c1.2,0,5.4,0,5.7,0
			c0.5,0,1.5-0.1,2.4,0.9c0.6,0.6,0.9,1.6,0.9,2.3c0,0.5,0,8.5,0,9.4c0,0.9-0.3,1.8-1,2.5c-0.6,0.6-1.3,0.6-2.4,0.6
			c-0.5,0-6.4,0.2-6.4,0.2s-1.5-0.1-2.6,0.4c-0.8,0.4-2.6,1.4-5.1,1.4c-2.8,0-4.5-0.9-5.6-1.5c-0.8-0.4-1.7-0.4-2.2-0.4
			c-0.5,0-15.6,0-15.6,0s-1.6-0.1-2.3-0.7c-0.8-0.7-1-1.5-1-2.4c0-0.7,0-9,0-9.5c0-0.7,0.3-1.6,0.9-2.3
			C8.3,177.4,9.4,177.1,10.2,177.1z"/>
		<circle class="st9" cx="44.4" cy="180.8" r="1.1"/>
		<circle class="st9" cx="47.8" cy="180.8" r="1.1"/>
		<path class="st10" d="M21.6,180.8c0,0.2-0.2,0.4-0.4,0.4H9.5c-0.2,0-0.4-0.2-0.4-0.4l0,0c0-0.2,0.2-0.4,0.4-0.4h11.6
			C21.4,180.3,21.6,180.5,21.6,180.8L21.6,180.8z"/>
		<path class="st10" d="M21.6,182.6c0,0.2-0.2,0.4-0.4,0.4H9.5c-0.2,0-0.4-0.2-0.4-0.4l0,0c0-0.2,0.2-0.4,0.4-0.4h11.6
			C21.4,182.2,21.6,182.4,21.6,182.6L21.6,182.6z"/>
		<path class="st10" d="M21.6,184.5c0,0.2-0.2,0.4-0.4,0.4H9.5c-0.2,0-0.4-0.2-0.4-0.4l0,0c0-0.2,0.2-0.4,0.4-0.4h11.6
			C21.4,184.1,21.6,184.2,21.6,184.5L21.6,184.5z"/>
		<path class="st10" d="M21.6,188.2c0,0.2-0.2,0.4-0.4,0.4H9.5c-0.2,0-0.4-0.2-0.4-0.4l0,0c0-0.2,0.2-0.4,0.4-0.4h11.6
			C21.4,187.8,21.6,187.9,21.6,188.2L21.6,188.2z"/>
		<path class="st10" d="M21.6,186.3c0,0.2-0.2,0.4-0.4,0.4H9.5c-0.2,0-0.4-0.2-0.4-0.4l0,0c0-0.2,0.2-0.4,0.4-0.4h11.6
			C21.4,185.9,21.6,186.1,21.6,186.3L21.6,186.3z"/>
		<circle cx="33.5" cy="184.4" r="5.2"/>
		<circle class="st11" cx="33.5" cy="184.4" r="6.2"/>
		<circle class="st12" cx="33.5" cy="184.4" r="8.1"/>
	</g>
	<g>
		<path d="M14.4,200.3H16c0.6,0,1,0.2,1.4,0.5c0.3,0.3,0.5,0.7,0.5,1.3c0,1.2-0.7,1.9-2,1.9h-0.5v2.6h-0.8V200.3z M15.2,203.3h0.4
			c1,0,1.3-0.5,1.3-1.2c0-0.9-0.5-1.2-1.3-1.2h-0.5V203.3z"/>
		<path d="M18.6,203c0-0.3,0-0.7,0-1h0.7l0,0.7h0c0.2-0.6,0.6-0.8,1.3-0.8v0.7c-0.1,0-0.2,0-0.3,0c-0.6,0-1,0.5-1,1.5v2.4h-0.8V203z
			"/>
		<path d="M22.9,201.9c1.2,0,1.8,0.9,1.8,2.4s-0.6,2.4-1.8,2.4c-1.2,0-1.8-0.9-1.8-2.4S21.7,201.9,22.9,201.9z M22.9,206
			c0.7,0,1.1-0.6,1.1-1.7s-0.3-1.7-1.1-1.7c-0.7,0-1.1,0.6-1.1,1.7S22.2,206,22.9,206z"/>
		<path d="M25,207.9c0.1,0,0.2,0,0.3,0c0.3,0,0.4-0.1,0.4-0.6V202h0.8v5.4c0,0.8-0.2,1.2-1.1,1.2c-0.2,0-0.3,0-0.4-0.1V207.9z
			 M26.5,200.1v0.9h-0.8v-0.9H26.5z"/>
		<path d="M28.2,204.5c0,1.1,0.4,1.6,1.3,1.6c0.4,0,0.8-0.2,1.1-0.4l0,0.7c-0.4,0.2-0.8,0.3-1.3,0.3c-1.2,0-1.8-0.9-1.8-2.4
			s0.6-2.4,1.8-2.4c1,0,1.6,0.8,1.6,2.2v0.4H28.2z M30,203.9c0-1-0.3-1.4-0.9-1.4c-0.5,0-0.9,0.4-0.9,1.4H30z"/>
		<path d="M34.3,202.8c-0.3-0.1-0.5-0.2-0.9-0.2c-0.7,0-1.3,0.5-1.3,1.8c0,1.1,0.5,1.7,1.2,1.7c0.4,0,0.7-0.1,0.9-0.2l0,0.7
			c-0.2,0.1-0.6,0.2-1,0.2c-1.4,0-2-1-2-2.3c0-1.5,0.8-2.4,2.1-2.4c0.3,0,0.7,0.1,0.9,0.2L34.3,202.8z"/>
		<path d="M37.1,206.5c-0.2,0.1-0.4,0.1-0.6,0.1c-0.7,0-1.1-0.3-1.1-1.1v-3h-0.7V202h0.7V201l0.8-0.2v1.2h0.9v0.6h-0.9v2.7
			c0,0.5,0.1,0.7,0.5,0.7c0.2,0,0.3-0.1,0.5-0.1V206.5z"/>
		<path d="M39.4,201.9c1.2,0,1.8,0.9,1.8,2.4s-0.6,2.4-1.8,2.4c-1.2,0-1.8-0.9-1.8-2.4S38.2,201.9,39.4,201.9z M39.4,206
			c0.7,0,1.1-0.6,1.1-1.7s-0.3-1.7-1.1-1.7c-0.7,0-1.1,0.6-1.1,1.7S38.7,206,39.4,206z"/>
		<path d="M42.1,203c0-0.3,0-0.7,0-1h0.7l0,0.7h0c0.2-0.6,0.6-0.8,1.3-0.8v0.7c-0.1,0-0.2,0-0.3,0c-0.6,0-1,0.5-1,1.5v2.4h-0.8V203z
			"/>
	</g>
	<g>
		<path d="M14.4,157.1l2.1,6.3h-0.8l-0.5-1.6h-2.4l-0.5,1.6h-0.8l2.1-6.3H14.4z M14.9,161l-1-3.1h0l-1,3.1H14.9z"/>
		<path d="M20.3,162.4c0,0.3,0,0.7,0,1h-0.7l0-0.7h0c-0.2,0.5-0.6,0.7-1.2,0.7c-0.8,0-1.3-0.5-1.3-1.5v-3.2h0.8v3c0,0.7,0.3,1,0.8,1
			c0.6,0,1-0.4,1-1.2v-2.8h0.8V162.4z"/>
		<path d="M24.7,162.5c0,0.3,0,0.6,0,0.8H24l0-0.7h0c-0.2,0.4-0.5,0.7-1.2,0.7c-0.9,0-1.6-0.8-1.6-2.4s0.6-2.4,1.6-2.4
			c0.5,0,0.9,0.2,1.2,0.7h0v-2.8h0.8V162.5z M22.9,159.3c-0.7,0-1,0.6-1,1.7s0.3,1.7,1,1.7s1-0.6,1-1.7S23.6,159.3,22.9,159.3z"/>
		<path d="M26.6,156.9v0.9h-0.8v-0.9H26.6z M25.8,158.8h0.8v4.6h-0.8V158.8z"/>
		<path d="M29.3,158.7c1.2,0,1.8,0.9,1.8,2.4s-0.6,2.4-1.8,2.4s-1.8-0.9-1.8-2.4S28.1,158.7,29.3,158.7z M29.3,162.8
			c0.7,0,1.1-0.6,1.1-1.7s-0.3-1.7-1.1-1.7c-0.7,0-1.1,0.6-1.1,1.7S28.6,162.8,29.3,162.8z"/>
		<path d="M31.8,160.5h1.9v0.6h-1.9V160.5z"/>
		<path d="M36.9,157c1.4,0,2.3,1.2,2.3,3.1c0,2.2-0.9,3.3-2.4,3.3c-1.4,0-2.3-1.2-2.3-3.1C34.6,158.1,35.5,157,36.9,157z
			 M36.9,162.8c0.8,0,1.5-0.7,1.5-2.6c0-1.3-0.4-2.5-1.5-2.5c-0.8,0-1.5,0.7-1.5,2.6C35.4,161.6,35.8,162.8,36.9,162.8z"/>
		<path d="M43.5,162.4c0,0.3,0,0.7,0,1h-0.7l0-0.7h0c-0.2,0.5-0.6,0.7-1.2,0.7c-0.8,0-1.3-0.5-1.3-1.5v-3.2H41v3c0,0.7,0.3,1,0.8,1
			c0.6,0,1-0.4,1-1.2v-2.8h0.8V162.4z"/>
		<path d="M46.6,163.3c-0.2,0.1-0.4,0.1-0.6,0.1c-0.7,0-1.1-0.3-1.1-1.1v-3h-0.7v-0.6h0.7v-0.9l0.8-0.2v1.2h0.9v0.6h-0.9v2.7
			c0,0.5,0.1,0.7,0.5,0.7c0.2,0,0.3-0.1,0.5-0.1V163.3z"/>
	</g>
	<g>
		<path class="st6" d="M22.2,147.2c0,3.8,3,6.8,6.8,6.8c3.8,0,6.8-3,6.8-6.8c0-3.8-3.1-6.8-6.8-6.8
			C25.2,140.4,22.2,143.4,22.2,147.2z"/>
		<path class="st7" d="M24.7,147.2c0,2.4,1.9,4.3,4.3,4.3c2.3,0,4.3-1.9,4.3-4.3c0-2.4-1.9-4.3-4.3-4.3
			C26.6,142.9,24.7,144.8,24.7,147.2z"/>
	</g>
	<g>
		<polygon class="st2" points="38.7,147.2 47.6,143.4 46.5,145.9 61,145.9 61,148.4 46.5,148.4 47.6,150.9 		"/>
		<path class="st3" d="M47.2,143.8l-1,2.3h14.6v2.2H46.2l1,2.3l-8-3.4L47.2,143.8 M47.9,143.1l-0.8,0.4l-8,3.4l-0.8,0.3l0.8,0.3
			l8,3.4l0.8,0.4l-0.4-0.8l-0.8-1.8h14h0.4v-0.4v-2.2v-0.4h-0.4h-14l0.8-1.8L47.9,143.1L47.9,143.1z"/>
	</g>
</g>
<g id="Ens">
	<g>
		<path d="M13.4,104.8h2.9v0.7h-2.1v2h2v0.7h-2v2.2h2.3v0.7h-3V104.8z"/>
		<path d="M17.4,107.5c0-0.3,0-0.7,0-1h0.7l0,0.7h0c0.2-0.5,0.6-0.7,1.2-0.7c0.8,0,1.3,0.5,1.3,1.5v3.2h-0.8v-3c0-0.7-0.3-1-0.8-1
			c-0.6,0-1,0.4-1,1.2v2.8h-0.8V107.5z"/>
		<path d="M21.5,110.2c0.3,0.2,0.7,0.3,1.1,0.3c0.6,0,0.9-0.3,0.9-0.6c0-0.3-0.2-0.5-0.6-0.7l-0.5-0.2c-0.7-0.3-0.9-0.6-0.9-1.2
			c0-0.8,0.6-1.3,1.5-1.3c0.4,0,0.7,0.1,1,0.2l0,0.6c-0.2-0.1-0.6-0.2-0.9-0.2c-0.5,0-0.8,0.3-0.8,0.6c0,0.4,0.3,0.6,0.8,0.8
			l0.3,0.1c0.6,0.2,0.9,0.6,0.9,1.2c0,0.8-0.4,1.4-1.5,1.4c-0.5,0-0.9-0.1-1.2-0.3L21.5,110.2z"/>
		<path d="M25.6,109c0,1.1,0.4,1.6,1.3,1.6c0.4,0,0.8-0.2,1.1-0.4l0,0.7c-0.4,0.2-0.8,0.3-1.3,0.3c-1.2,0-1.8-0.9-1.8-2.4
			s0.6-2.4,1.8-2.4c1,0,1.6,0.8,1.6,2.2v0.4H25.6z M27.5,108.4c0-1-0.3-1.4-0.9-1.4c-0.5,0-0.9,0.4-0.9,1.4H27.5z M26.7,104.6h0.9
			l-0.9,1.3H26L26.7,104.6z"/>
		<path d="M29,107.5c0-0.3,0-0.7,0-1h0.7l0,0.7h0c0.2-0.5,0.6-0.7,1.1-0.7c0.5,0,0.8,0.3,1.1,0.7c0.2-0.5,0.6-0.7,1.1-0.7
			c0.8,0,1.3,0.5,1.3,1.5v3.2h-0.8v-3.2c0-0.6-0.3-0.9-0.7-0.9c-0.6,0-0.9,0.3-0.9,1.2v2.8h-0.8v-3.2c0-0.6-0.3-0.9-0.7-0.9
			c-0.6,0-0.9,0.3-0.9,1.2v2.8H29V107.5z"/>
		<path d="M35.5,104.3h0.8v2.8h0c0.3-0.5,0.6-0.7,1.2-0.7c0.9,0,1.6,0.8,1.6,2.4s-0.6,2.4-1.6,2.4c-0.7,0-1-0.4-1.2-0.7h0l0,0.7
			h-0.7c0-0.3,0-0.6,0-0.8V104.3z M37.2,110.5c0.7,0,1-0.6,1-1.7s-0.3-1.7-1-1.7c-0.7,0-1,0.6-1,1.7S36.5,110.5,37.2,110.5z"/>
		<path d="M39.9,104.3h0.8v6.8h-0.8V104.3z"/>
		<path d="M42.4,109c0,1.1,0.4,1.6,1.3,1.6c0.4,0,0.8-0.2,1.1-0.4l0,0.7c-0.4,0.2-0.8,0.3-1.3,0.3c-1.2,0-1.8-0.9-1.8-2.4
			s0.6-2.4,1.8-2.4c1,0,1.6,0.8,1.6,2.2v0.4H42.4z M44.3,108.4c0-1-0.3-1.4-0.9-1.4c-0.5,0-0.9,0.4-0.9,1.4H44.3z"/>
	</g>
	<g>
		<g>
			<path class="st3" d="M21.1,100.1c-0.2,0-0.3,0-0.6-0.1c-0.7-0.1-0.9-0.5-1-0.8c-0.4,0.1-1,0.2-1.2,0.3c-0.1,0.2-0.3,0.5-1,0.5
				c-0.1,0-0.1,0-0.2,0c-0.6,0-1.1-0.2-1.4-0.6c-0.3,0.1-0.7,0.2-1.2,0.3c-0.1,0-0.1,0-0.2,0c-0.5,0-1.2-0.2-1.6-0.6
				c-0.3,0.1-0.7,0.2-1.4,0.2c-0.6,0-1.2-0.4-1.4-0.6c-0.1,0-0.4,0-0.8,0c0,0,0,0,0,0c-0.8,0-2.4-0.5-2.9-0.6
				c-0.8-0.2-1.5-0.6-1.9-0.9C3.7,97.2,3,96.1,3,96.1c-0.2-0.4-0.4-2.2-0.4-2.8v-1.1L14,94.5l15.4,0.1l16.7-0.2l9.5-2.2l0,0.4
				c0,0-0.2,2.3-0.3,2.6c-0.1,0.4-0.1,0.6-0.3,0.8c-0.1,0.3-0.5,0.7-0.8,0.8c-0.1,0.2-0.2,0.3-0.6,0.5c-0.5,0.2-2.4,1-3.2,1.2
				c-0.5,0.1-0.9,0.2-1.2,0.2c-0.2,0-0.4,0-0.6-0.1c-0.2,0.2-0.5,0.4-0.8,0.5c-0.1,0-0.2,0-0.3,0c-0.3,0-0.8-0.1-1.2-0.1
				c-0.1,0-0.1,0-0.2,0c-0.2,0.3-0.7,0.6-1.5,0.6c-0.2,0-0.3,0-0.4,0c-0.3,0-0.9-0.3-1.3-0.4c-0.1,0.2-0.3,0.4-0.5,0.5
				c-0.2,0.1-0.6,0.2-0.8,0.2c-0.4,0-0.7-0.1-1-0.2c-0.2-0.1-0.5-0.1-0.9-0.2c-0.3-0.1-0.5-0.1-0.8-0.2c-0.2,0.2-0.5,0.4-1,0.5
				c-0.1,0-0.2,0-0.3,0c-0.6,0-1.1-0.3-1.3-0.4c-0.1-0.1-0.5-0.2-0.8-0.3c-0.1,0.2-0.2,0.4-0.4,0.6c-0.2,0.2-0.4,0.3-0.6,0.3
				c-0.3,0-0.6-0.1-1-0.3c-0.5-0.3-0.7-0.4-1.1-0.4c0,0-0.1,0-0.1,0c-0.3,0.7-0.8,0.8-1.2,0.8c0,0,0,0,0,0c-0.5,0-0.8-0.4-0.9-0.7
				c-0.3,0-0.8,0-1.1,0c-0.2,0.5-0.6,0.8-1.3,0.8c-0.6,0-0.9-0.5-1.1-0.9c-0.2,0-0.5,0-0.7,0.1c-0.3,0.4-0.9,0.9-1.5,0.9
				c-0.3,0-0.8-0.1-1.1-1c-0.1,0.1-0.3,0.2-0.4,0.2c-0.3,0.2-0.6,0.4-0.9,0.5C21.8,99.9,21.5,100.1,21.1,100.1z"/>
			<path d="M55.3,92.5c0,0-0.2,2.3-0.3,2.6c-0.1,0.4-0.1,0.5-0.3,0.7c-0.2,0.3-0.6,0.7-0.8,0.7c-0.1,0.2-0.1,0.2-0.6,0.5
				c-0.5,0.2-2.4,1-3.1,1.2c-0.4,0.1-0.8,0.1-1.1,0.1c-0.3,0-0.5,0-0.7-0.1c-0.2,0.3-0.5,0.5-0.8,0.5c-0.1,0-0.1,0-0.2,0
				c-0.4,0-1.2-0.2-1.5-0.2c-0.3,0.6-0.9,0.7-1.4,0.7c-0.2,0-0.3,0-0.4,0c-0.3,0-1.4-0.5-1.4-0.5s-0.2,0.5-0.6,0.6
				c-0.2,0.1-0.4,0.1-0.7,0.1c-0.3,0-0.7-0.1-0.9-0.1c-0.5-0.2-1.4-0.3-1.9-0.5c-0.1,0.2-0.4,0.5-0.9,0.6c-0.1,0-0.2,0-0.3,0
				c-0.4,0-0.9-0.3-1.1-0.4c-0.3-0.2-1.1-0.3-1.1-0.3s-0.1,0.4-0.4,0.7c-0.1,0.1-0.3,0.2-0.4,0.2c-0.2,0-0.5-0.1-0.9-0.3
				c-0.4-0.3-0.7-0.5-1.2-0.5c-0.1,0-0.2,0-0.3,0c-0.2,0.6-0.5,0.8-1,0.8c0,0,0,0,0,0c-0.5,0-0.7-0.7-0.7-0.7S29.1,99,28.8,99
				c-0.2,0.5-0.4,0.8-1.1,0.8c-0.6,0-0.9-0.9-0.9-0.9s-0.7,0.1-1,0.1c-0.2,0.4-0.8,0.9-1.4,0.9c-0.6,0-0.8-0.6-0.9-1.1
				c-0.2,0.1-1.1,0.7-1.6,0.9c-0.3,0.1-0.5,0.2-0.9,0.2c-0.1,0-0.3,0-0.5-0.1c-0.7-0.1-0.7-0.5-0.9-0.8c-0.2,0-1.4,0.2-1.5,0.4
				c-0.1,0.1-0.1,0.4-0.8,0.5c-0.1,0-0.1,0-0.2,0c-0.6,0-1.1-0.3-1.4-0.7c-0.2,0.2-0.7,0.3-1.3,0.4c-0.1,0-0.1,0-0.2,0
				c-0.5,0-1.2-0.3-1.6-0.7c-0.2,0.2-0.8,0.2-1.4,0.2c-0.6,0-1.3-0.6-1.3-0.6s-0.3,0-0.9,0.1c0,0,0,0-0.1,0c-0.6,0-2-0.4-2.8-0.6
				c-0.8-0.2-1.5-0.6-1.9-0.9c0,0,0,0,0,0c-0.4,0-1-0.8-1.2-1.1c-0.2-0.3-0.3-2.6-0.3-2.6v-0.7l11,2.2l15.5,0.1l16.7-0.2L55.3,92.5
				 M55.9,91.8L55.2,92l-9.2,2.1l-16.6,0.2L14,94.2L3,92.1l-0.6-0.1v0.7v0.7c0.1,1.1,0.2,2.5,0.4,2.9c0.1,0.1,0.7,1.2,1.5,1.3
				c0.5,0.4,1.3,0.7,1.9,0.9c0.7,0.2,2.2,0.6,2.9,0.6l0.1,0c0.3,0,0.6,0,0.7,0c0.3,0.2,0.9,0.6,1.5,0.6c0.6,0,1,0,1.3-0.1
				c0.5,0.3,1.1,0.6,1.6,0.6c0.1,0,0.2,0,0.3,0c0.5-0.1,0.8-0.1,1.1-0.3c0.4,0.3,0.9,0.5,1.5,0.5c0.1,0,0.1,0,0.2,0
				c0.7-0.1,1-0.3,1.1-0.6c0.2-0.1,0.5-0.1,0.8-0.2c0.1,0.3,0.4,0.6,1.1,0.8c0.2,0,0.4,0.1,0.6,0.1c0.5,0,0.8-0.1,1.1-0.3
				c0.3-0.1,0.6-0.3,0.9-0.5c0,0,0.1,0,0.1-0.1c0.3,0.8,0.9,0.9,1.2,0.9c0.7,0,1.3-0.4,1.7-0.9c0.1,0,0.3,0,0.4,0
				c0.2,0.4,0.6,0.9,1.2,0.9c0.7,0,1.1-0.2,1.4-0.8c0.2,0,0.5,0,0.7,0c0.2,0.3,0.5,0.7,1.1,0.7h0l0,0c0.7,0,1.1-0.3,1.4-0.8
				c0.3,0,0.5,0.1,0.9,0.4l0,0l0,0c0.5,0.2,0.8,0.3,1.2,0.3c0.3,0,0.6-0.1,0.8-0.4c0.1-0.1,0.2-0.3,0.3-0.5c0.2,0.1,0.4,0.1,0.5,0.2
				c0.2,0.1,0.8,0.5,1.4,0.5c0.1,0,0.3,0,0.4,0c0.5-0.1,0.8-0.3,1-0.5c0.2,0,0.4,0.1,0.6,0.1c0.3,0.1,0.7,0.1,0.8,0.2
				c0.3,0.1,0.7,0.2,1.1,0.2c0.4,0,0.7-0.1,0.9-0.2c0.2-0.1,0.4-0.3,0.5-0.4c0.4,0.2,0.9,0.3,1.2,0.4c0.1,0,0.3,0,0.5,0
				c0.9,0,1.4-0.3,1.6-0.6c0,0,0,0,0,0c0.4,0.1,0.9,0.2,1.2,0.2c0.1,0,0.2,0,0.3,0c0.3-0.1,0.6-0.2,0.9-0.4c0.2,0,0.3,0,0.5,0
				c0.3,0,0.8-0.1,1.3-0.2c0.8-0.2,2.8-1,3.2-1.2c0.4-0.2,0.6-0.3,0.7-0.5c0.4-0.2,0.7-0.6,0.9-0.9c0.2-0.3,0.3-0.5,0.4-0.9
				c0.1-0.4,0.3-2.6,0.3-2.7L55.9,91.8L55.9,91.8z M55.3,93.1L55.3,93.1L55.3,93.1L55.3,93.1z"/>
		</g>
		<path d="M3.9,96.6c0,0-0.1,0-0.1-0.4c-0.1-0.4-0.2-1.2-0.2-1.6c0-0.4,0-0.8,0.2-0.7C4,94,4,94.1,4.1,94.3c0,0.3,0.1,1,0.2,1.4
			c0.1,0.3,0,0.9,0.3,1.2C4.5,96.9,4.1,97,3.9,96.6z"/>
		<path d="M9.6,98.4c0,0-0.4-0.1-0.5-0.5c-0.1-0.4-0.1-1.2-0.2-1.7c0-0.5,0.1-0.8,0.4-0.8c0.3,0.1,0.5,0.4,0.5,0.8
			C9.9,96.6,10,97.8,10,98c0,0.2,0.1,0.5,0.1,0.5L9.6,98.4z"/>
		<path d="M12.6,99c0,0-0.8,0-1-0.5c-0.2-0.5-0.1-1.2-0.2-1.7c0-0.6,0-0.9,0.4-0.9c0.4,0,0.6,0.2,0.6,0.9c0.1,0.7,0.2,1.9,0.3,2.1
			C12.7,99,12.6,99,12.6,99z"/>
		<path d="M15.9,99.1c0,0-0.9,0.3-1.2,0c-0.2-0.2-0.3-0.9-0.3-1.3c0-0.4,0-1.2,0.1-1.4c0.2-0.2,0.4-0.2,0.8-0.2
			c0.3,0.1,0.3,0.4,0.3,0.8c0.1,0.3,0.2,1.6,0.2,1.7C15.9,99,15.9,99.1,15.9,99.1z"/>
		<path d="M18.1,99.5c0,0-0.3-0.1-0.3-0.6c0-0.5,0-1.5,0-1.8c0.1-0.3,0.3-0.7,0.8-0.7c0.5,0,0.9,0.1,1,0.6c0.1,0.5,0.1,1.3,0.2,1.6
			C19.8,99.3,18.2,99.4,18.1,99.5z"/>
		<path d="M22,99.7c0,0-0.3-0.5-0.3-1.2c0-0.7,0.2-1.3,0.2-1.6c0-0.3,0.3-0.5,0.8-0.5c0.4,0,0.6,0.2,0.6,0.6c0.1,0.4,0.2,1,0.2,1.2
			c0,0.2,0.1,0.6,0.1,0.6L22,99.7z"/>
		<path d="M25.4,99.5c0,0-0.2-0.4-0.1-0.9c0.1-0.5,0.2-1.3,0.2-1.6c0-0.3,0-0.6,0.5-0.6c0.5-0.1,0.8,0.1,0.8,0.8
			c0.1,0.6,0.2,1.8,0.2,1.8s-0.9,0.1-1.2,0.2C25.5,99.3,25.4,99.5,25.4,99.5z"/>
		<path d="M28.6,99.1c0,0,0.1-1.3,0.1-1.7c0-0.4,0-0.9,0.3-1c0.3-0.1,1-0.2,1,0.5c0.1,0.7,0.1,2.2,0.1,2.2L28.6,99.1z"/>
		<path d="M32,99c0,0,0.1-1.2,0.1-1.8c0.1-0.6,0.1-0.9,0.7-0.9c0.6,0,0.6,0.3,0.6,0.7c0,0.4,0.1,1.5,0.1,1.8
			c0.1,0.3,0.1,0.7,0.1,0.7s-0.6-0.5-1-0.6C32.3,98.9,32,99,32,99z"/>
		<path d="M35.3,99.1c0,0,0-0.8,0.1-1.5c0.1-0.7,0.1-1,0.5-1.1c0.5-0.1,0.8,0,0.9,0.6c0.1,0.6,0.1,2.2,0.1,2.5
			c-0.2-0.1-0.6-0.4-0.9-0.4C35.6,99.1,35.3,99.1,35.3,99.1z"/>
		<path d="M38.8,99c0,0,0.2-1.3,0.3-1.9c0.1-0.5-0.1-0.9,0.6-0.9c0.7,0,0.9,0.1,0.9,0.8c0.1,0.7,0.1,2.4,0.1,2.4s-0.8-0.3-1.1-0.4
			C39.2,99,38.8,99,38.8,99z"/>
		<path d="M42.6,99c0,0,0.1-1.2,0.2-1.7c0.1-0.5-0.1-0.8,0.6-0.9c0.6-0.2,0.8,0.2,0.8,0.9c0,0.7,0,2-0.1,2.2
			C43.7,99.3,42.9,98.9,42.6,99z"/>
		<path d="M46,98.8c0,0,0.2-1.3,0.3-2c0.1-0.6,0.2-0.9,0.5-1c0.3,0,0.5,0.5,0.5,1.2s0,1.4-0.3,1.6C46.7,99,46.5,99,46.5,99L46,98.8z
			"/>
		<path d="M48.6,98.1c0,0,0.2-0.7,0.3-1.3c0.1-0.6-0.1-1.1,0.2-1.3c0.3-0.2,0.6,0.1,0.6,0.5c0,0.5,0,1.4-0.2,1.7
			c-0.2,0.3-0.5,0.6-0.6,0.6C48.7,98.4,48.6,98.1,48.6,98.1z"/>
		<path d="M54,96.5c0,0,0.2-1.2,0.3-2c0.1-0.8,0.4-1.3,0.5-0.8c0.1,0.5-0.1,1.7-0.1,2c0,0.3-0.1,0.5-0.1,0.5L54,96.6L54,96.5z"/>
		<path d="M3,93.5c0,0,0.2-0.1,0.2,0.3c0,0.5,0.1,1.4,0.1,1.6c0,0.2,0,0.6,0,0.6s-0.2-0.4-0.3-0.8C3,94.8,3,93.5,3,93.5z"/>
		<g>
			<path class="st3" d="M18.3,95.7c-1.2,0-2.3,0-3.1-0.1l-0.4,0c-0.8,0-4.3-0.4-6.5-0.8C6,94.4,3,93.6,1.9,92.9
				c-0.9-0.6-1-0.9-1.1-1.2l0-0.1c0-0.2,0-3.4,0-4.2c0.1-1,0.5-2.5,1.6-3.6c1.1-1.2,2.2-1.9,3.5-2.4c1.2-0.4,4.4-1.6,11.4-2
				c2.3-0.2,3.9-0.3,4.3-0.3l6.3-4l2.4,0.1c0,0,6.2,3.8,6.2,3.8c0,0,0.3,0.1,0.9,0.1c0.8,0,3.5,0.2,4.2,0.2c0.6,0.1,8.4,1.2,9.5,1.5
				c0.6,0.2,3.5,1.3,4.6,2.6c1,1.2,1.7,2.2,1.8,3.9c0.1,1.6,0.1,3.3,0.1,3.8c0,0.7-0.2,1.1-0.8,1.5c-0.6,0.4-2.5,1.1-3.9,1.5
				c-1.4,0.4-2.6,0.6-3.8,0.7c-0.6,0.1-1.6,0.2-2.4,0.3c-0.5,0.1-0.9,0.1-1.1,0.1c-0.7,0.1-3.8,0.2-4.9,0.2c-0.2,0-0.6,0-1.1,0
				l-3.3,0c-1.1,0-2.3,0-3.2,0c-1.2,0-4.2,0-7,0c-2.9,0-5.6,0-6.5,0C19.1,95.7,18.7,95.7,18.3,95.7z"/>
			<path d="M27.9,75.4l2.3,0.1l6.1,3.8c0,0,0.3,0.1,1,0.1c0.8,0,3.5,0.2,4.1,0.2c0.6,0.1,8.4,1.2,9.4,1.5c1,0.3,3.5,1.4,4.4,2.5
				c0.9,1.1,1.6,2.1,1.7,3.7c0.1,1.6,0.1,3.3,0.1,3.8c0,0.6-0.2,0.9-0.7,1.3c-0.5,0.3-2.4,1-3.8,1.5c-1.5,0.4-2.7,0.6-3.7,0.7
				c-1,0.1-2.8,0.4-3.5,0.5c-0.6,0.1-3.8,0.2-4.8,0.2c-0.2,0-0.6,0-1.1,0c-0.9,0-2.1,0-3.3,0c-1.1,0-2.3,0-3.2,0
				c-2.5,0.1-11.6,0-13.5,0.1c-0.4,0-0.7,0-1.1,0c-1.5,0-2.9-0.1-3.5-0.1c-0.8,0-4.3-0.4-6.5-0.8c-2.2-0.4-5.3-1.1-6.3-1.8
				c-1-0.7-0.9-0.9-1-1.2c0,0,0-3.3,0.1-4.1c0.1-0.8,0.4-2.3,1.5-3.5c1.1-1.1,2.1-1.8,3.4-2.3c1.3-0.5,4.5-1.6,11.3-2
				c2.6-0.2,4.4-0.3,4.4-0.3L27.9,75.4 M27.7,74.8l-0.1,0.1l-6.2,3.9c-0.5,0-2,0.2-4.2,0.3c-7,0.4-10.2,1.6-11.4,2
				c-1.3,0.5-2.4,1.2-3.6,2.4C0.8,85,0.6,87,0.6,87.4c-0.1,0.8-0.1,4-0.1,4.1v0.1l0,0.1c0,0,0,0.1,0,0.1c0.1,0.5,0.3,0.8,1.2,1.4
				C3,94,6.4,94.7,8.3,95c2.2,0.4,5.8,0.8,6.6,0.8l0.4,0c0.7,0,1.9,0.1,3.1,0.1c0.4,0,0.7,0,1.1,0c0.9,0,3.6,0,6.5,0
				c2.8,0,5.7,0,7,0c0.8,0,1.8,0,3.2,0c0.7,0,1.3,0,1.9,0l1.4,0c0.5,0,0.9,0,1.1,0c1,0,4.2-0.2,4.9-0.2c0.2,0,0.6-0.1,1.1-0.1
				c0.8-0.1,1.7-0.2,2.3-0.3c1.1-0.1,2.4-0.3,3.8-0.7c1.5-0.4,3.4-1.1,4-1.6c0.6-0.4,0.9-1,0.9-1.7c0-0.5,0-2.2-0.1-3.9
				c-0.1-1.7-0.9-2.9-1.9-4c-1.1-1.3-4.1-2.4-4.7-2.6c-1.1-0.4-8.9-1.5-9.5-1.5c-0.6-0.1-3.4-0.2-4.2-0.2c-0.5,0-0.7-0.1-0.8-0.1
				L30.4,75l-0.1-0.1l-0.1,0l-2.3-0.1L27.7,74.8L27.7,74.8z"/>
		</g>
		<g>
			<g>
				<circle cx="19.8" cy="92.4" r="1"/>
			</g>
			<g>
				<path d="M19.8,90.8c0.9,0,1.6,0.7,1.6,1.6s-0.7,1.6-1.6,1.6c-0.9,0-1.6-0.7-1.6-1.6S19,90.8,19.8,90.8 M19.8,90.7
					c-0.9,0-1.7,0.7-1.7,1.7c0,0.9,0.7,1.7,1.7,1.7c0.9,0,1.7-0.7,1.7-1.7C21.5,91.4,20.8,90.7,19.8,90.7L19.8,90.7z"/>
			</g>
			<g>
				<path d="M19.8,90.1l0.2,0.2l0.2-0.2l0.1,0.3l0.2-0.2l0.1,0.3l0.3-0.1l0,0.3l0.3-0.1l0,0.3l0.3-0.1L21.4,91l0.3,0l-0.1,0.3l0.3,0
					l-0.1,0.3l0.3,0.1l-0.2,0.2l0.3,0.1l-0.2,0.2l0.2,0.2l-0.2,0.2l0.2,0.2l-0.3,0.1l0.2,0.2l-0.3,0.1l0.1,0.3l-0.3,0l0.1,0.3
					l-0.3,0l0.1,0.3l-0.3-0.1l0,0.3l-0.3-0.1l0,0.3l-0.3-0.1l-0.1,0.3l-0.2-0.2l-0.1,0.3L20,94.4l-0.2,0.2l-0.2-0.2l-0.2,0.2
					l-0.1-0.3l-0.2,0.2l-0.1-0.3l-0.3,0.1l0-0.3l-0.3,0.1l0-0.3L18.2,94l0.1-0.3l-0.3,0l0.1-0.3l-0.3,0l0.1-0.3l-0.3-0.1l0.2-0.2
					l-0.3-0.1l0.2-0.2l-0.2-0.2l0.2-0.2L17.6,92l0.3-0.1l-0.2-0.2l0.3-0.1l-0.1-0.3l0.3,0L18,91l0.3,0l-0.1-0.3l0.3,0.1l0-0.3
					l0.3,0.1l0-0.3l0.3,0.1l0.1-0.3l0.2,0.2l0.1-0.3l0.2,0.2L19.8,90.1 M21.2,90.5L21.2,90.5 M21.5,90.7L21.5,90.7 M21.7,91L21.7,91
					 M19.8,90L19.8,90C19.8,90,19.8,90,19.8,90l-0.2,0.2l-0.1-0.1c0,0,0,0-0.1,0c0,0,0,0,0,0c0,0,0,0-0.1,0l-0.1,0.2l-0.1-0.1
					c0,0,0,0,0,0c0,0,0,0,0,0c0,0,0,0-0.1,0.1L19,90.4l-0.2-0.1c0,0,0,0,0,0c0,0,0,0,0,0c0,0,0,0,0,0.1l0,0.2l-0.2-0.1c0,0,0,0,0,0
					c0,0,0,0,0,0c0,0,0,0,0,0.1l0,0.2l-0.2,0c0,0,0,0,0,0c0,0,0,0-0.1,0c0,0,0,0,0,0.1l0,0.2l-0.2,0c0,0,0,0,0,0c0,0,0,0-0.1,0
					c0,0,0,0,0,0.1l0.1,0.2l-0.2,0c0,0,0,0-0.1,0s0,0.1,0,0.1l0.1,0.2l-0.2,0.1c0,0,0,0-0.1,0.1c0,0,0,0.1,0,0.1l0.1,0.2l-0.2,0.1
					c0,0,0,0,0,0.1c0,0,0,0.1,0,0.1l0.1,0.1l-0.2,0.1c0,0,0,0,0,0.1c0,0,0,0.1,0,0.1l0.2,0.1l-0.1,0.1c0,0,0,0,0,0.1s0,0,0,0.1
					l0.2,0.1L17.6,93c0,0,0,0,0,0.1c0,0,0,0,0.1,0.1l0.2,0.1l-0.1,0.2c0,0,0,0,0,0.1s0,0,0.1,0l0.2,0l-0.1,0.2c0,0,0,0.1,0,0.1
					c0,0,0,0,0.1,0c0,0,0,0,0,0l0.2,0l0,0.2c0,0,0,0.1,0,0.1c0,0,0,0,0.1,0c0,0,0,0,0,0l0.2,0l0,0.2c0,0,0,0.1,0,0.1c0,0,0,0,0,0
					c0,0,0,0,0,0l0.2-0.1l0,0.2c0,0,0,0,0,0.1c0,0,0,0,0,0c0,0,0,0,0,0l0.2-0.1l0.1,0.2c0,0,0,0,0.1,0.1c0,0,0,0,0,0c0,0,0,0,0,0
					l0.1-0.1l0.1,0.2c0,0,0,0,0.1,0c0,0,0,0,0,0c0,0,0,0,0.1,0l0.1-0.1l0.1,0.2c0,0,0,0,0.1,0s0.1,0,0.1,0l0.1-0.2l0.1,0.1
					c0,0,0,0,0.1,0c0,0,0,0,0,0c0,0,0,0,0.1,0l0.1-0.2l0.2,0.1c0,0,0,0,0,0c0,0,0,0,0,0c0,0,0,0,0.1-0.1l0.1-0.2l0.2,0.1
					c0,0,0,0,0,0c0,0,0,0,0,0c0,0,0,0,0-0.1l0-0.2l0.2,0.1c0,0,0,0,0,0c0,0,0,0,0,0c0,0,0,0,0-0.1l0-0.2l0.2,0c0,0,0,0,0,0
					c0,0,0,0,0.1,0c0,0,0,0,0-0.1l0-0.2l0.2,0c0,0,0,0,0,0c0,0,0,0,0.1,0c0,0,0,0,0-0.1l-0.1-0.2l0.2,0c0,0,0,0,0.1,0
					c0,0,0-0.1,0-0.1l-0.1-0.2l0.2-0.1c0,0,0,0,0.1-0.1c0,0,0-0.1,0-0.1l-0.1-0.2l0.2-0.1c0,0,0,0,0-0.1c0,0,0-0.1,0-0.1L22,92.5
					l0.2-0.1c0,0,0,0,0-0.1c0,0,0-0.1,0-0.1L22,92.2l0.1-0.1c0,0,0,0,0-0.1c0,0,0,0,0-0.1l-0.2-0.1l0.1-0.2c0,0,0,0,0-0.1
					s0,0-0.1-0.1l-0.2-0.1l0.1-0.2c0,0,0,0,0-0.1c0,0,0,0-0.1,0l-0.2,0l0.1-0.2c0,0,0,0,0,0c0,0,0-0.1-0.1-0.1h0c0,0,0,0,0,0
					c0,0,0,0,0,0h0h0h0h0c0,0,0,0,0,0l-0.2,0l0-0.2c0,0,0,0,0,0c0,0,0-0.1-0.1-0.1h0c0,0,0,0,0,0c0,0,0,0,0,0c0,0,0,0,0,0l-0.2,0
					l0-0.2c0,0,0,0,0,0c0,0,0-0.1-0.1-0.1h0c0,0,0,0,0,0c0,0,0,0,0,0h0l0,0h0h0c0,0,0,0,0,0L21,90.5l0-0.2c0,0,0,0,0-0.1
					c0,0,0,0,0,0c0,0,0,0,0,0l-0.2,0.1l-0.1-0.2c0,0,0,0-0.1-0.1c0,0,0,0,0,0c0,0,0,0,0,0l-0.2,0.1l-0.1-0.2c0,0,0,0-0.1,0
					c0,0,0,0,0,0c0,0,0,0-0.1,0L20,90.2L19.8,90C19.9,90,19.9,90,19.8,90L19.8,90z"/>
			</g>
		</g>
		<g>
			<g>
				<circle cx="27" cy="92.4" r="1"/>
			</g>
			<g>
				<path d="M27,90.8c0.9,0,1.6,0.7,1.6,1.6s-0.7,1.6-1.6,1.6c-0.9,0-1.6-0.7-1.6-1.6S26.1,90.8,27,90.8 M27,90.7
					c-0.9,0-1.7,0.7-1.7,1.7c0,0.9,0.7,1.7,1.7,1.7c0.9,0,1.7-0.7,1.7-1.7C28.6,91.4,27.9,90.7,27,90.7L27,90.7z"/>
			</g>
			<g>
				<path d="M27,90.1l0.2,0.2l0.2-0.2l0.1,0.3l0.2-0.2l0.1,0.3l0.3-0.1l0,0.3l0.3-0.1l0,0.3l0.3-0.1L28.5,91l0.3,0l-0.1,0.3l0.3,0
					l-0.1,0.3l0.3,0.1l-0.2,0.2l0.3,0.1L29,92.2l0.2,0.2L29,92.5l0.2,0.2l-0.3,0.1l0.2,0.2l-0.3,0.1l0.1,0.3l-0.3,0l0.1,0.3l-0.3,0
					l0.1,0.3l-0.3-0.1l0,0.3L28,94.1l0,0.3l-0.3-0.1l-0.1,0.3l-0.2-0.2l-0.1,0.3l-0.2-0.2L27,94.6l-0.2-0.2l-0.2,0.2l-0.1-0.3
					l-0.2,0.2l-0.1-0.3l-0.3,0.1l0-0.3l-0.3,0.1l0-0.3L25.3,94l0.1-0.3l-0.3,0l0.1-0.3l-0.3,0l0.1-0.3l-0.3-0.1l0.2-0.2l-0.3-0.1
					l0.2-0.2l-0.2-0.2l0.2-0.2L24.7,92l0.3-0.1l-0.2-0.2l0.3-0.1l-0.1-0.3l0.3,0L25.1,91l0.3,0l-0.1-0.3l0.3,0.1l0-0.3l0.3,0.1
					l0-0.3l0.3,0.1l0.1-0.3l0.2,0.2l0.1-0.3l0.2,0.2L27,90.1 M28.3,90.5L28.3,90.5 M28.6,90.7L28.6,90.7 M28.8,91L28.8,91 M27,90
					L27,90C26.9,90,26.9,90,27,90l-0.2,0.2l-0.1-0.1c0,0,0,0-0.1,0c0,0,0,0,0,0c0,0,0,0-0.1,0l-0.1,0.2l-0.1-0.1c0,0,0,0,0,0
					c0,0,0,0,0,0c0,0,0,0-0.1,0.1l-0.1,0.2L26,90.3c0,0,0,0,0,0c0,0,0,0,0,0c0,0,0,0,0,0.1l0,0.2l-0.2-0.1c0,0,0,0,0,0c0,0,0,0,0,0
					c0,0,0,0,0,0.1l0,0.2l-0.2,0c0,0,0,0,0,0c0,0,0,0-0.1,0c0,0,0,0,0,0.1l0,0.2l-0.2,0c0,0,0,0,0,0c0,0,0,0-0.1,0c0,0,0,0,0,0.1
					l0.1,0.2l-0.2,0c0,0,0,0-0.1,0s0,0.1,0,0.1l0.1,0.2l-0.2,0.1c0,0,0,0-0.1,0.1c0,0,0,0.1,0,0.1l0.1,0.2l-0.2,0.1c0,0,0,0,0,0.1
					s0,0.1,0,0.1l0.1,0.1l-0.2,0.1c0,0,0,0,0,0.1c0,0,0,0.1,0,0.1l0.2,0.1l-0.1,0.1c0,0,0,0,0,0.1c0,0,0,0,0,0.1l0.2,0.1L24.7,93
					c0,0,0,0,0,0.1s0,0,0.1,0.1l0.2,0.1l-0.1,0.2c0,0,0,0,0,0.1c0,0,0,0,0.1,0l0.2,0L25,93.7c0,0,0,0.1,0,0.1c0,0,0,0,0.1,0
					c0,0,0,0,0,0l0.2,0l0,0.2c0,0,0,0.1,0,0.1c0,0,0,0,0.1,0c0,0,0,0,0,0l0.2,0l0,0.2c0,0,0,0.1,0,0.1c0,0,0,0,0,0c0,0,0,0,0,0
					l0.2-0.1l0,0.2c0,0,0,0,0,0.1c0,0,0,0,0,0c0,0,0,0,0,0l0.2-0.1l0.1,0.2c0,0,0,0,0.1,0.1c0,0,0,0,0,0c0,0,0,0,0,0l0.1-0.1
					l0.1,0.2c0,0,0,0,0.1,0c0,0,0,0,0,0c0,0,0,0,0.1,0l0.1-0.1l0.1,0.2c0,0,0,0,0.1,0h0c0,0,0.1,0,0.1,0l0.1-0.2l0.1,0.1
					c0,0,0,0,0.1,0c0,0,0,0,0,0c0,0,0,0,0.1,0l0.1-0.2l0.2,0.1c0,0,0,0,0,0c0,0,0,0,0,0c0,0,0,0,0.1-0.1l0.1-0.2l0.2,0.1
					c0,0,0,0,0,0c0,0,0,0,0,0c0,0,0,0,0-0.1l0-0.2l0.2,0.1c0,0,0,0,0,0c0,0,0,0,0,0c0,0,0,0,0-0.1l0-0.2l0.2,0c0,0,0,0,0,0
					c0,0,0,0,0.1,0c0,0,0,0,0-0.1l0-0.2l0.2,0c0,0,0,0,0,0c0,0,0,0,0.1,0c0,0,0,0,0-0.1l-0.1-0.2l0.2,0c0,0,0,0,0.1,0
					c0,0,0-0.1,0-0.1L29,93.2l0.2-0.1c0,0,0,0,0.1-0.1c0,0,0-0.1,0-0.1l-0.1-0.2l0.2-0.1c0,0,0,0,0-0.1s0-0.1,0-0.1l-0.1-0.1
					l0.2-0.1c0,0,0,0,0-0.1c0,0,0-0.1,0-0.1l-0.2-0.1l0.1-0.1c0,0,0,0,0-0.1c0,0,0,0,0-0.1l-0.2-0.1l0.1-0.2c0,0,0,0,0-0.1
					c0,0,0,0-0.1-0.1L29,91.5l0.1-0.2c0,0,0,0,0-0.1s0,0-0.1,0l-0.2,0l0.1-0.2c0,0,0,0,0,0c0,0,0-0.1-0.1-0.1h0h0c0,0,0,0,0,0
					c0,0,0,0,0,0h0c0,0,0,0,0,0l-0.2,0l0-0.2c0,0,0,0,0,0c0,0,0-0.1-0.1-0.1h0h0c0,0,0,0,0,0c0,0,0,0,0,0l-0.2,0l0-0.2c0,0,0,0,0,0
					c0,0,0-0.1-0.1-0.1h0c0,0,0,0,0,0c0,0,0,0,0,0l0,0c0,0,0,0,0,0c0,0,0,0,0,0l-0.2,0.1l0-0.2c0,0,0,0,0-0.1c0,0,0,0,0,0
					c0,0,0,0,0,0l-0.2,0.1l-0.1-0.2c0,0,0,0-0.1-0.1c0,0,0,0,0,0c0,0,0,0,0,0l-0.2,0.1l-0.1-0.2c0,0,0,0-0.1,0c0,0,0,0,0,0
					c0,0,0,0-0.1,0l-0.1,0.1L27,90C27,90,27,90,27,90L27,90z"/>
			</g>
		</g>
		<g>
			<g>
				<circle cx="33.8" cy="92.3" r="1"/>
			</g>
			<g>
				<path d="M33.8,90.7c0.9,0,1.6,0.7,1.6,1.6c0,0.9-0.7,1.6-1.6,1.6c-0.9,0-1.6-0.7-1.6-1.6C32.2,91.4,32.9,90.7,33.8,90.7
					 M33.8,90.6c-0.9,0-1.7,0.7-1.7,1.7c0,0.9,0.7,1.7,1.7,1.7c0.9,0,1.7-0.7,1.7-1.7C35.5,91.4,34.7,90.6,33.8,90.6L33.8,90.6z"/>
			</g>
			<g>
				<path d="M33.8,90l0.2,0.2l0.2-0.2l0.1,0.3l0.2-0.2l0.1,0.3l0.3-0.1l0,0.3l0.3-0.1l0,0.3l0.3-0.1L35.4,91l0.3,0l-0.1,0.3l0.3,0
					l-0.1,0.3l0.3,0.1l-0.2,0.2l0.3,0.1l-0.2,0.2l0.2,0.2l-0.2,0.2l0.2,0.2l-0.3,0.1L36,93l-0.3,0.1l0.1,0.3l-0.3,0l0.1,0.3l-0.3,0
					l0.1,0.3l-0.3-0.1l0,0.3L34.9,94l0,0.3l-0.3-0.1l-0.1,0.3l-0.2-0.2l-0.1,0.3L34,94.3l-0.2,0.2l-0.2-0.2l-0.2,0.2l-0.1-0.3
					l-0.2,0.2L33,94.2l-0.3,0.1l0-0.3l-0.3,0.1l0-0.3l-0.3,0.1l0.1-0.3l-0.3,0l0.1-0.3l-0.3,0l0.1-0.3L31.6,93l0.2-0.2l-0.3-0.1
					l0.2-0.2l-0.2-0.2l0.2-0.2l-0.2-0.2l0.3-0.1l-0.2-0.2l0.3-0.1l-0.1-0.3l0.3,0L32,90.9l0.3,0l-0.1-0.3l0.3,0.1l0-0.3l0.3,0.1
					l0-0.3l0.3,0.1l0.1-0.3l0.2,0.2l0.1-0.3l0.2,0.2L33.8,90 M35.1,90.4L35.1,90.4 M35.4,90.7L35.4,90.7 M35.7,90.9L35.7,90.9
					 M33.8,89.9L33.8,89.9C33.8,89.9,33.8,89.9,33.8,89.9l-0.2,0.2L33.5,90c0,0,0,0-0.1,0c0,0,0,0,0,0c0,0,0,0-0.1,0l-0.1,0.2
					L33.2,90c0,0,0,0,0,0c0,0,0,0,0,0c0,0,0,0-0.1,0.1L33,90.3l-0.2-0.1c0,0,0,0,0,0c0,0,0,0,0,0c0,0,0,0,0,0.1l0,0.2l-0.2-0.1
					c0,0,0,0,0,0c0,0,0,0,0,0c0,0,0,0,0,0.1l0,0.2l-0.2,0c0,0,0,0,0,0c0,0,0,0-0.1,0c0,0,0,0,0,0.1l0,0.2l-0.2,0c0,0,0,0,0,0
					c0,0,0,0-0.1,0c0,0,0,0,0,0.1l0.1,0.2l-0.2,0c0,0,0,0-0.1,0s0,0.1,0,0.1l0.1,0.2l-0.2,0.1c0,0,0,0-0.1,0.1c0,0,0,0.1,0,0.1
					l0.1,0.1l-0.2,0.1c0,0,0,0,0,0.1c0,0,0,0.1,0,0.1l0.1,0.1l-0.2,0.1c0,0,0,0,0,0.1s0,0.1,0,0.1l0.2,0.1l-0.1,0.1c0,0,0,0,0,0.1
					c0,0,0,0,0,0.1l0.2,0.1l-0.1,0.2c0,0,0,0,0,0.1c0,0,0,0,0.1,0.1l0.2,0.1l-0.1,0.2c0,0,0,0,0,0.1c0,0,0,0,0.1,0l0.2,0l-0.1,0.2
					c0,0,0,0.1,0,0.1c0,0,0,0,0.1,0c0,0,0,0,0,0l0.2,0l0,0.2c0,0,0,0.1,0,0.1c0,0,0,0,0.1,0c0,0,0,0,0,0l0.2,0l0,0.2
					c0,0,0,0.1,0,0.1c0,0,0,0,0,0c0,0,0,0,0,0l0.2-0.1l0,0.2c0,0,0,0,0,0.1c0,0,0,0,0,0c0,0,0,0,0,0l0.2-0.1l0.1,0.2
					c0,0,0,0,0.1,0.1c0,0,0,0,0,0c0,0,0,0,0,0l0.2-0.1l0.1,0.2c0,0,0,0,0.1,0c0,0,0,0,0,0c0,0,0,0,0.1,0l0.1-0.1l0.1,0.2
					c0,0,0,0,0.1,0c0,0,0.1,0,0.1,0l0.1-0.2l0.1,0.1c0,0,0,0,0.1,0c0,0,0,0,0,0c0,0,0,0,0.1,0l0.1-0.2l0.2,0.1c0,0,0,0,0,0
					c0,0,0,0,0,0c0,0,0,0,0.1-0.1l0.1-0.2l0.2,0.1c0,0,0,0,0,0c0,0,0,0,0,0c0,0,0,0,0-0.1l0-0.2l0.2,0.1c0,0,0,0,0,0c0,0,0,0,0,0
					c0,0,0,0,0-0.1l0-0.2l0.2,0c0,0,0,0,0,0c0,0,0,0,0.1,0c0,0,0,0,0-0.1l0-0.2l0.2,0c0,0,0,0,0,0c0,0,0,0,0.1,0c0,0,0,0,0-0.1
					l-0.1-0.2l0.2,0c0,0,0,0,0.1,0c0,0,0-0.1,0-0.1l-0.1-0.2l0.2-0.1c0,0,0,0,0.1-0.1c0,0,0-0.1,0-0.1l-0.1-0.2l0.2-0.1
					c0,0,0,0,0-0.1c0,0,0-0.1,0-0.1L36,92.4l0.2-0.1c0,0,0,0,0-0.1c0,0,0-0.1,0-0.1L36,92.1l0.1-0.1c0,0,0,0,0-0.1c0,0,0,0,0-0.1
					l-0.2-0.1l0.1-0.2c0,0,0,0,0-0.1c0,0,0,0-0.1-0.1l-0.2-0.1l0.1-0.2c0,0,0,0,0-0.1c0,0,0,0-0.1,0l-0.2,0l0.1-0.2c0,0,0,0,0,0
					c0,0,0-0.1-0.1-0.1h0h0c0,0,0,0,0,0l-0.2,0l0-0.2c0,0,0,0,0,0c0,0,0-0.1-0.1-0.1h0c0,0,0,0,0,0c0,0,0,0,0,0c0,0,0,0,0,0l-0.2,0
					l0-0.2c0,0,0,0,0,0c0,0,0-0.1-0.1-0.1h0h0c0,0,0,0,0,0l0,0c0,0,0,0,0,0c0,0,0,0,0,0l-0.2,0.1l0-0.2c0,0,0,0,0-0.1c0,0,0,0,0,0
					c0,0,0,0,0,0l-0.2,0.1l-0.1-0.2c0,0,0,0-0.1-0.1c0,0,0,0,0,0c0,0,0,0,0,0l-0.2,0.1L34.2,90c0,0,0,0-0.1,0c0,0,0,0,0,0
					c0,0,0,0-0.1,0L34,90.1L33.8,89.9C33.9,89.9,33.8,89.9,33.8,89.9L33.8,89.9z"/>
			</g>
		</g>
		<g>
			<g>
				<path d="M41.9,91.1c0.9,0,1.6,0.7,1.6,1.6c0,0.9-0.7,1.6-1.6,1.6s-1.6-0.7-1.6-1.6C40.3,91.8,41,91.1,41.9,91.1 M41.9,91
					c-0.9,0-1.6,0.7-1.6,1.6c0,0.9,0.7,1.6,1.6,1.6s1.6-0.7,1.6-1.6C43.5,91.8,42.8,91,41.9,91L41.9,91z"/>
			</g>
			<circle cx="41.9" cy="92.7" r="0.9"/>
		</g>
		<g>
			<path d="M21.6,87.9L22,89h-0.3l-0.1-0.3h-0.4L21.1,89h-0.3l0.4-1.2H21.6z M21.6,88.6l-0.1-0.4h0l-0.2,0.4H21.6z"/>
		</g>
		<g>
			<path d="M28.4,87.9c0.1,0,0.1,0,0.2,0c0,0,0.1,0,0.1,0c0,0,0.1,0.1,0.1,0.1c0,0,0,0.1,0,0.1c0,0.1,0,0.1,0,0.1
				c0,0-0.1,0.1-0.1,0.1c0.1,0,0.1,0.1,0.2,0.1c0,0.1,0.1,0.1,0.1,0.2c0,0.1,0,0.1,0,0.2c0,0-0.1,0.1-0.1,0.1c0,0-0.1,0-0.1,0.1
				c0,0-0.1,0-0.2,0h-0.6v-1.2H28.4z M28.3,88.4c0,0,0.1,0,0.1,0c0,0,0-0.1,0-0.1c0,0,0,0,0-0.1c0,0,0,0,0,0c0,0,0,0-0.1,0
				c0,0,0,0-0.1,0h-0.2v0.3H28.3z M28.4,88.9C28.4,88.9,28.4,88.9,28.4,88.9c0.1,0,0.1,0,0.1,0c0,0,0,0,0,0c0,0,0,0,0-0.1
				c0-0.1,0-0.1-0.1-0.1c0,0-0.1,0-0.1,0h-0.3v0.3H28.4z"/>
		</g>
		<g>
			<path d="M35.6,88.2C35.6,88.2,35.6,88.2,35.6,88.2c-0.1-0.1-0.1-0.1-0.1-0.1c0,0-0.1,0-0.1,0c-0.1,0-0.1,0-0.1,0
				c0,0-0.1,0.1-0.1,0.1c0,0,0,0.1-0.1,0.1c0,0,0,0.1,0,0.1c0,0,0,0.1,0,0.1c0,0,0,0.1,0.1,0.1c0,0,0.1,0.1,0.1,0.1c0,0,0.1,0,0.1,0
				c0.1,0,0.1,0,0.2-0.1c0,0,0.1-0.1,0.1-0.2h0.2c0,0.1,0,0.1-0.1,0.2c0,0.1-0.1,0.1-0.1,0.2c0,0-0.1,0.1-0.2,0.1
				c-0.1,0-0.1,0-0.2,0c-0.1,0-0.2,0-0.2,0C35.1,89,35,89,35,88.9c0-0.1-0.1-0.1-0.1-0.2c0-0.1,0-0.2,0-0.2c0-0.1,0-0.2,0-0.2
				c0-0.1,0.1-0.1,0.1-0.2c0-0.1,0.1-0.1,0.2-0.1c0.1,0,0.2,0,0.2,0c0.1,0,0.1,0,0.2,0c0.1,0,0.1,0,0.2,0.1c0,0,0.1,0.1,0.1,0.1
				c0,0.1,0,0.1,0.1,0.2L35.6,88.2C35.7,88.3,35.7,88.3,35.6,88.2z"/>
		</g>
		<g>
			<path d="M41.1,88.9V89h0c0,0,0.1-0.1,0.1-0.1c0,0,0.1,0,0.1,0c0.1,0,0.1,0,0.2,0c0,0,0.1,0.1,0.1,0.1c0,0,0.1,0.1,0.1,0.1
				c0,0.1,0,0.1,0,0.2c0,0.1,0,0.1,0,0.2c0,0.1,0,0.1-0.1,0.1c0,0-0.1,0.1-0.1,0.1c0,0-0.1,0-0.2,0c-0.1,0-0.1,0-0.1,0
				c0,0-0.1-0.1-0.1-0.1h0V90h-0.2v-1.1H41.1z M41.4,89.5C41.4,89.5,41.4,89.5,41.4,89.5c0.1-0.1,0.1-0.1,0.1-0.1c0,0,0-0.1,0-0.1
				c0,0,0-0.1,0-0.1c0,0,0-0.1,0-0.1c0,0,0,0-0.1-0.1c0,0-0.1,0-0.1,0c0,0-0.1,0-0.1,0c0,0,0,0-0.1,0.1c0,0,0,0.1,0,0.1
				c0,0,0,0.1,0,0.1c0,0,0,0.1,0,0.1c0,0,0,0.1,0,0.1c0,0,0,0,0.1,0.1C41.2,89.6,41.2,89.6,41.4,89.5C41.3,89.6,41.3,89.6,41.4,89.5
				z"/>
			<path d="M42.6,89.7l-0.1-0.6h0l-0.1,0.6H42l-0.3-0.8H42l0.2,0.6h0l0.1-0.6h0.2l0.1,0.6h0l0.2-0.6h0.2l-0.3,0.8H42.6z"/>
			<path d="M43.4,88.9V89h0C43.4,89,43.4,89,43.4,88.9c0.1,0.1,0.1,0,0.1,0c0,0,0,0,0.1,0c0,0,0.1,0,0.1,0c0,0,0,0,0.1,0v0.2
				c0,0,0,0,0,0c0,0,0,0,0,0c0,0-0.1,0-0.1,0c0,0-0.1,0-0.1,0.1c0,0,0,0.1,0,0.1c0,0,0,0.1,0,0.1v0.4h-0.2v-0.8H43.4z"/>
		</g>
		<path class="st13" d="M15.6,94.3c0,0-0.4-3.4-0.1-4.6c0.2-1.2,0.8-2.2,2-2.8c1.1-0.5,6.4-1,11.8-1c5.4,0,10.7,0.1,12,0.4
			c1.2,0.3,3.5,1.5,3.6,3.4c0.1,1.9,0,4.7,0,4.7"/>
		<path class="st13" d="M45.5,89.9c0,0,3.9-0.2,6.3-0.8c1.7-0.4,3.6-1.3,3.8-1.7"/>
		<path class="st13" d="M14.7,89.9c0,0-4.6-0.2-7.4-0.8c-2-0.4-4.2-1.3-4.5-1.7"/>
		<g>
			<path class="st3" d="M29.4,76c-2.4,0-11-0.6-13-1c-2.1-0.4-9.7-5.3-11.2-6.3c-1.4-0.9-3.1-2.3-3.4-2.6c-0.3-0.3-0.3-0.7-0.3-0.9
				c-0.3-0.2-0.9-0.6-1.1-1.6c-0.1-0.7-0.2-1.4-0.2-1.8c0-0.1,0-0.2,0-0.3c0-0.4,0-10,0.1-10.7l0-0.2c0-0.9,0-2.7,1.3-4.3
				c1.3-1.6,2.5-2.5,4.6-3.1c2.1-0.7,7.1-1.9,11.9-2.4c5.5-0.6,9.2-0.7,11.4-0.7c2.6,0,10.1,0.5,14.2,1.2c4.3,0.8,7.8,1.6,9.5,2.4
				c1.8,0.8,3.3,2.6,3.7,3.4c0.3,0.7,0.8,1.7,0.8,3.3c0,1.4,0.1,10.7,0,11.3c0,0.5-0.1,1.8-0.3,2.3c-0.2,0.6-0.5,0.9-0.9,1.1
				c0,0.3-0.1,0.8-0.5,1.1c-0.4,0.3-3.1,2.3-3.1,2.3c-0.3,0.3-8.5,6.2-12.2,6.6c-3.7,0.4-8.6,0.9-11.1,0.9L29.4,76z"/>
			<path d="M29.4,40.4c2.6,0,10.1,0.5,14.2,1.2c4.2,0.8,7.7,1.6,9.5,2.3c1.7,0.7,3.2,2.6,3.6,3.3c0.3,0.8,0.8,1.6,0.8,3.2
				c0,1.5,0.1,10.7,0,11.3c0,0.6-0.1,1.8-0.3,2.2c-0.1,0.4-0.4,0.9-0.9,1c0,0.2,0,0.8-0.4,1.1c-0.4,0.3-3.1,2.3-3.1,2.3
				s-8.4,6.2-12.1,6.6c-3.6,0.4-8.5,0.9-11.1,0.9c-0.1,0-0.2,0-0.3,0c-2.5,0-11-0.6-13-1c-2-0.4-9.7-5.3-11.1-6.3
				c-1.4-0.9-3-2.3-3.3-2.6c-0.3-0.3-0.3-0.6-0.2-0.9c-0.3-0.2-0.9-0.5-1.1-1.5c-0.2-1-0.2-1.8-0.2-2.1c0,0,0-9.9,0.1-10.7
				c0-0.7-0.1-2.7,1.2-4.4c1.3-1.7,2.6-2.4,4.4-3c2-0.6,6.9-1.8,11.8-2.4S26.8,40.4,29.4,40.4 M29.4,39.8c-2.1,0-5.9,0.1-11.4,0.7
				c-4.8,0.5-9.8,1.7-11.9,2.4c-2.1,0.7-3.4,1.5-4.7,3.2c-1.3,1.6-1.3,3.5-1.3,4.4l0,0.2C0,51.5,0,61.1,0,61.5l0,0l0,0
				c0,0.1,0,0.1,0,0.3c0,0.4,0,1.1,0.2,1.8c0.2,0.9,0.7,1.4,1,1.6c0,0.3,0.1,0.6,0.4,1C2,66.6,3.7,68,5,68.9c0.9,0.6,9,5.9,11.3,6.4
				c2.1,0.4,10.7,1,13.1,1l0.3,0c2.6,0,7.4-0.4,11.1-0.9c3.8-0.4,12-6.4,12.3-6.7c0,0,2.6-2,3.1-2.3c0.5-0.3,0.6-0.8,0.6-1.1
				c0.4-0.2,0.7-0.6,0.9-1.2c0.2-0.5,0.3-2,0.3-2.4c0-0.6,0-9.8,0-11.3c0-1.7-0.5-2.7-0.8-3.4c-0.4-0.8-2-2.8-3.9-3.6
				c-1.7-0.7-5.2-1.6-9.6-2.4C39.6,40.3,32,39.8,29.4,39.8L29.4,39.8z"/>
		</g>
		<path class="st14" d="M16.3,73.4c0,0,0.3,6.7,0.1,9c-0.4,0.2-1.6,0.6-2.7,0.8c-1.1,0.2-3.2,0.4-4,0.2C9.8,80.6,9,77,8.3,74.2
			c-0.7-2.8-2.8-6.8-2.8-6.8"/>
		<path class="st14" d="M53.3,67.2c0,0-1.3,2.5-1.7,3.8c-0.4,1.3-1.5,4.5-1.8,6.6c-0.3,2.1-0.5,5.6-0.5,5.6s-5.4,0.2-7.1-0.9
			c-0.1-0.9-0.2-2.6-0.2-4.3c0-1.4,0-4.3,0-4.3"/>
		<path class="st13" d="M5.6,67.2c0,0,7.7,4.5,9,5.3c1.3,0.7,1.8,1.2,2.8,1.3c1,0.1,5.5,0.7,11.1,0.5c5.6-0.1,10.8-0.5,12.1-0.6
			c1.3-0.1,2.1-0.6,3.6-1.4c1.5-0.7,8.1-4.5,8.8-5.1"/>
		<path class="st13" d="M21.7,41c0,0-3.9,0.3-7.7,0.9c-3.8,0.7-7,1.5-8.1,2.9c-0.6,0.7-2.3,2.4-2.5,5.4c0,0-0.2,6.5-0.2,7.8
			c0,1.3-0.1,3.4-0.1,3.9c0,0.5,0.3,1.8,0.6,2.7c0.4,0.9,0.7,1.1,1.2,1.3c-0.1-0.6-0.3-1.1-0.4-1.8c-0.1-0.6-0.1-5.8-0.1-5.8
			s0.1-7.5,0.2-8.1C4.7,49.5,5,47.4,6,46.4c1.1-1,3-2.4,6.5-3.3C16.1,42.3,21.7,41,21.7,41z"/>
		<path class="st13" d="M37.4,41c0,0,4.3,0.4,6.8,0.9c2.5,0.5,6.6,1,8.3,2.5c1.7,1.5,3.1,2.9,3.3,5.2c0.2,2.3,0.1,7.1,0.2,9.7
			c0,2.6-0.1,4.1-0.2,4.5c-0.1,0.4-0.7,1.5-0.9,1.7c-0.2,0.2-0.6,0.1-0.6,0.1s0.6-1.1,0.7-3.1c0.1-2-0.1-10.5-0.1-11.8
			c0-1.3-1-3.7-2.1-4.7c-1.1-1-5-2.5-6.7-2.9C44.3,42.5,38.8,41.1,37.4,41z"/>
		<path class="st13" d="M57.4,62c0,0-1.4,0.6-1.6,0.7c-0.2,0.1-0.5,0.1-1,0c-0.6,0.1-2.3,0.4-4.8,0.6c-2.6,0.3-14.8,0.8-21.4,0.8
			c-6.6,0-20.7-0.6-24-1.2c0,0-0.9,0-1.3-0.3c-0.5,0-2-0.4-2.5-0.8"/>
		<path class="st5" d="M1.8,65c0,0,1.8,0.7,5.9,1.1c4,0.4,17.1,1,21.7,1c4.5,0,15-0.4,18.2-0.7c3.1-0.3,7.4-0.7,8.7-1.5"/>
		<path class="st13" d="M2.6,66.2c0,0,2.3,0.9,5.6,1.2c4,0.4,13.7,1.2,22,1.2c8.3,0,16.4-0.9,19.3-1.3c2.9-0.4,4.9-0.7,5.8-1"/>
		<polygon points="29.9,42.6 29.4,43.1 29.6,44.4 30.2,44.7 30.7,44.4 30.5,43 		"/>
		<polygon points="30.2,41.4 33.3,43.2 32.7,43.5 30.3,42.1 		"/>
		<path d="M29.9,40.7L30,41c0,0,1,0.3,2,0.8C33,42.3,34,43,34,43l0.7-0.3c0,0-1.4-0.9-2.4-1.3C31.4,41.1,29.9,40.7,29.9,40.7z"/>
		<path d="M31.9,40.7c0,0,1.3,0.1,1.7,0.2c0.4,0.1,2.2,0.8,2.9,1.2c0.8,0.4,1.2,0.7,1.2,0.7l-1.2-0.1C36.5,42.7,34.1,41.2,31.9,40.7
			z"/>
		<path d="M35.9,41.4c0,0,2.1,0.6,2.2,0.7c0.1,0,1.9,1,2.2,1.2c0,0-0.8-0.1-1.1-0.1C38.9,42.9,36.8,41.6,35.9,41.4z"/>
		<path d="M36.8,41.3c0,0,6.7,1.3,7.3,1.6c0.2,0.2,0.1,0.3,0.1,0.3S37.5,41.4,36.8,41.3z"/>
		<path class="st13" d="M33.5,40.7c0,0,3.1,0.3,5.5,0.8c2.4,0.5,4.7,1.1,4.7,1.1"/>
		<polygon points="29.1,41.3 26,43.2 26.6,43.4 29,42 		"/>
		<path d="M29.4,40.6l-0.1,0.3c0,0-1,0.3-2,0.9c-1,0.5-2,1.2-2,1.2l-0.7-0.2c0,0,1.4-0.9,2.3-1.3C27.9,41,29.4,40.6,29.4,40.6z"/>
		<path d="M27.4,40.7c0,0-1.3,0.1-1.7,0.3c-0.4,0.1-2.2,0.8-2.9,1.2c-0.7,0.5-1.2,0.7-1.2,0.7l1.2-0.1
			C22.8,42.7,25.2,41.2,27.4,40.7z"/>
		<path d="M23.4,41.3c0,0-2.1,0.7-2.2,0.7c-0.1,0-1.9,1-2.2,1.3c0,0,0.8-0.1,1.1-0.1C20.4,42.9,22.5,41.6,23.4,41.3z"/>
		<path d="M22.5,41.3c0,0-6.7,1.4-7.3,1.6c-0.2,0.2-0.1,0.3-0.1,0.3S21.8,41.5,22.5,41.3z"/>
		<path class="st13" d="M25.8,40.7c0,0-3.1,0.3-5.5,0.8c-2.4,0.5-4.7,1.1-4.7,1.1"/>
		<path class="st13" d="M7.9,47.5c0,0,10.6,0.8,22.5,0.8c11.9,0,20.6-0.9,20.6-0.9"/>
		<path class="st13" d="M21.1,80.6c0,0,2.4,1,7.6,1c5.1,0,7.8-1,7.8-1"/>
	</g>
	<g>
	</g>
	<g>
	</g>
	<g>
	</g>
	<g>
	</g>
	<g>
	</g>
	<g>
	</g>
</g>
</svg>
