<svg xmlns="http://www.w3.org/2000/svg" viewBox="0 0 48 40"><style type="text/css">  
	.st0{display:none;}
	.st1{display:inline;}
	.st2{display:inline;fill:#FFFFFF;}
	.st3{fill:#FFFFFF;}
</style><g class="st0"><rect x="-282.4" y="6.9" class="st1" width="41.3" height="6.5"/><rect x="-282.4" y="21.9" class="st1" width="41.3" height="6.5"/><rect x="-282.4" y="36.9" class="st1" width="41.3" height="6.5"/><circle class="st1" cx="-290.9" cy="10.1" r="3.2"/><circle class="st1" cx="-290.9" cy="40.2" r="3.2"/><circle class="st1" cx="-290.9" cy="25.1" r="3.2"/></g><g class="st0"><rect x="-177.7" y="5.6" class="st1" width="41.3" height="6.5"/><rect x="-177.7" y="18.6" class="st1" width="41.3" height="6.5"/><rect x="-177.7" y="31.7" class="st1" width="41.3" height="6.5"/></g><g class="st0"><rect x="142.2" y="-6.1" class="st1" width="64.8" height="56"/><rect x="153.6" y="5.6" class="st2" width="41.3" height="6.5"/><rect x="153.6" y="18.6" class="st2" width="41.3" height="6.5"/><rect x="153.6" y="31.6" class="st2" width="41.3" height="6.5"/></g><g class="st0"><rect x="43.5" y="1.9" class="st1" width="17" height="17"/><rect x="67.6" y="1.9" class="st1" width="17" height="17"/><rect x="43.5" y="24.9" class="st1" width="17" height="17"/><rect x="67.6" y="24.9" class="st1" width="17" height="17"/></g><path class="st3" d="M45 6H3C1.3 6 0 4.7 0 3s1.3-3 3-3h42c1.7 0 3 1.3 3 3S46.7 6 45 6z"/><path class="st3" d="M45 23H3c-1.7 0-3-1.3-3-3s1.3-3 3-3h42c1.7 0 3 1.3 3 3S46.7 23 45 23z"/><path class="st3" d="M45 40H3c-1.7 0-3-1.3-3-3s1.3-3 3-3h42c1.7 0 3 1.3 3 3S46.7 40 45 40z"/></svg>