<?xml version="1.0" encoding="utf-8"?>
<!-- Generator: Adobe Illustrator 20.1.0, SVG Export Plug-In . SVG Version: 6.00 Build 0)  -->
<svg version="1.1" id="Layer_1" xmlns="http://www.w3.org/2000/svg" xmlns:xlink="http://www.w3.org/1999/xlink" x="0px" y="0px"
	 viewBox="0 0 740.6 166.3" style="enable-background:new 0 0 740.6 166.3;" xml:space="preserve">
<style type="text/css">
	.st0{fill:#ED1D25;}
</style>
<path d="M633.7,110.5c-11.8,0-22.9,0-34.3,0c0-23.1,0-46.1,0-69.4c11,0,21.8,0,32.8,0c0.6,2.2,1.2,4.4,1.8,6.7
	c23.1-12.4,38.4-11.6,51.2,3.1c11-11.4,24.4-14.1,39.3-10c11.1,3.1,16.2,10.1,16.2,21.6c0,14.3,0,48.1,0,48.1H706c0,0,0-28-0.1-39.3
	c0-5.9-3.5-9.1-9.5-9c-5.8,0.1-9,3.2-9.1,8.9c-0.1,13,0,25.9,0,39.3c-11.6,0-22.8,0-34.8,0c0-2.2,0-4.5,0-6.7
	c0-10.8,0.1-21.7,0-32.5c0-5.7-3.7-9-9.7-8.9c-5.7,0.1-9.2,3.3-9.2,8.9C633.6,84.1,633.7,97,633.7,110.5z"/>
<path d="M590.7,110.6H556c0,0,0-27.6,0-38.7c0-6.4-3.3-9.6-9.4-9.6c-6.1,0-9.2,3.2-9.2,9.7c0,12.6,0,38.4,0,38.4h-34.7
	c0,0,0-27.4,0-38.5c0-6.2-3.5-9.6-9.5-9.5c-6.1,0.1-9.4,3.4-9.4,9.8c0,12.7,0,38.4,0,38.4h-34.3V40.9h32.8c0,0,1.2,4.5,1.9,7.3
	c7.7-6.5,16.5-9.7,26.3-9.2c9.6,0.5,18.5,2.8,24.6,11.9c6.1-6.5,13.2-11.1,22-11.4c6.4-0.2,13,0.2,19.1,1.9
	c9.8,2.7,14.5,9.9,14.5,20.2C590.7,77.8,590.7,110.6,590.7,110.6z"/>
<path d="M354.3,71.3c-1,23.7-21.4,41.9-45.8,41.6c-27.2-0.3-48.9-22-49.3-49.4c-0.4-26.7,20.7-48.9,48-50.4
	c24.3-1.3,45.1,16.8,47.3,41.9c-9.8,0-30.5-0.1-30.5-0.1s-0.8-1.8-1.3-3c-2.5-6.2-6.6-9.5-12.1-9.4c-5.1,0.1-9.3,3.5-11.3,9.7
	c-2.5,7.7-2.4,15.4,0.4,23c1.9,5,5.3,8.5,11,8.7c5,0.1,9.7-3.1,11.5-8.8c1-3,1.2-3.7,1.2-3.7S345.3,71.3,354.3,71.3z"/>
<path d="M401.3,112c-10.6,0.2-20.4-2.5-29.1-8.8c-19.6-14.2-19.8-40.3-0.5-54.8C388,36,413.9,36,430.2,48.3
	c19.3,14.5,19.2,40.6-0.3,54.8C421.4,109.3,411.8,112,401.3,112z M409.6,76c0-3.1,0-5.7-0.6-8.3c-0.9-4.3-3.7-6.7-8.1-6.6
	c-4.5,0-7.5,2.7-7.9,6.8c-0.5,5.4-0.3,10.9,0.3,16.3c0.5,3.9,3.4,5.8,7.5,5.9c4,0,6.7-1.8,7.8-5.6C409.4,81.6,409.6,79.1,409.6,76z"
	/>
<path class="st0" d="M219.8,40.3c5.7,0.4,10.5,1.7,15.5,3.5c15.1,5.4,21.8,19.8,16.6,35c-8.4,24.8-42.2,39.9-66.3,29.7
	c-14.2-6-20.2-19.8-15.1-34.6C176.8,55.2,198.2,40.9,219.8,40.3z M231.9,57.8c0.3-10.9-3.1-14.6-11.4-14.8
	c-6.4-0.2-11.5,2.5-14.7,7.9c-8.6,14.6-14.2,30.4-16.1,47.3c-0.8,7.3,3.6,11.4,10.9,11.9c6.9,0.4,12.1-2.4,15.6-8
	C225.3,87.7,230,71.9,231.9,57.8z"/>
<path class="st0" d="M33.9,3.8c8.1,0,14.5,6.3,14.5,14.1c-0.1,7.8-6.6,13.9-14.7,13.9c-8-0.1-14-6-14-13.8
	C19.6,9.8,25.7,3.8,33.9,3.8z"/>
<g>
	<path d="M170.4,165.5v-40h7.9v40H170.4z"/>
	<path d="M206.9,165.5v-40h11l4,26h0.1v-26h6.2v40h-9.4l-5.6-31.5l-0.1,0.1v31.4H206.9z"/>
	<path d="M268.6,165.5h-7.9v-34.3h-5.3v-5.7H274v5.7h-5.3V165.5z"/>
	<path d="M301.9,165.5v-40h14.8v5.7h-6.9v9.2h6.6v5.7h-6.6v13.7h6.9v5.7H301.9z"/>
	<path d="M346.5,165.5v-40h9.3c4.9,0,9.3,2,9.3,8.1v3.5c0,3-1.4,6.2-6.1,6.5v0.1c5,0.3,6.1,2.2,6.1,6.7v7.9c0,3.9,0.7,5.5,1.2,7.1
		h-8c-0.6-1.1-1.1-2.4-1.1-5.2v-9.1c0-2.5,0-4.4-2.8-4.4v18.7H346.5z M354.4,142.2h1c1.3,0,1.9-0.6,1.9-2.5v-5.9
		c0-1.9-0.6-2.5-1.9-2.5h-1V142.2z"/>
	<path d="M393.5,165.5v-40h11l4,26h0.1v-26h6.2v40h-9.4l-5.6-31.5l-0.1,0.1v31.4H393.5z"/>
	<path d="M448,125.5h10.5l4.8,40H455l-0.9-10.9h-3.8l-1.2,10.9H442L448,125.5z M453.6,148.9l-1.1-16.4h-0.2l-1.3,16.4H453.6z"/>
	<path d="M501.5,165.5h-7.9v-34.3h-5.3v-5.7h18.6v5.7h-5.3V165.5z"/>
	<path d="M534.7,165.5v-40h7.9v40H534.7z"/>
	<path d="M570.6,132c0-5.3,4.4-7.3,9.3-7.3s9.3,2,9.3,7.3v27c0,5.3-4.4,7.3-9.3,7.3s-9.3-2-9.3-7.3V132z M581.3,133.3
		c0-1.1-0.2-2.6-1.4-2.6s-1.4,1.5-1.4,2.6v24.4c0,1.1,0.2,2.6,1.4,2.6s1.4-1.5,1.4-2.6V133.3z"/>
	<path d="M618.1,165.5v-40h11l4,26h0.1v-26h6.2v40H630l-5.6-31.5l-0.1,0.1v31.4H618.1z"/>
	<path d="M672.5,125.5H683l4.8,40h-8.3l-0.9-10.9h-3.8l-1.2,10.9h-7.1L672.5,125.5z M678.1,148.9l-1.1-16.4h-0.2l-1.3,16.4H678.1z"
		/>
	<path d="M714.7,165.5v-40h7.9v34.3h7v5.7H714.7z"/>
	<path d="M729.6,130c0-3.1,2.5-5.7,5.5-5.7c3,0,5.5,2.6,5.5,5.7c0,3.1-2.5,5.7-5.5,5.7C732.1,135.7,729.6,133.1,729.6,130z
		 M739.9,130c0-2.8-2.2-5-4.8-5c-2.7,0-4.8,2.2-4.8,5c0,2.8,2.2,5,4.8,5C737.8,135,739.9,132.7,739.9,130z M737.9,133.1H737
		l-1.8-2.9h-1.4v2.9h-0.7v-6.3h2.7c0.5,0,1,0,1.5,0.3c0.5,0.3,0.7,0.8,0.7,1.4c0,1.2-0.9,1.7-1.9,1.7L737.9,133.1z M735,129.6
		c0.9,0,2.2,0.1,2.2-1.1c0-1-0.8-1.1-1.6-1.1h-1.8v2.2H735z"/>
</g>
<path class="st0" d="M205.5,1.2c-15.9-3.7-30.2,1.5-40.1,13.1c-7,8.3-12.2,17.1-16.4,28.7h-14.9v1.8h14.3c-0.5,1.4-1,2.8-1.4,4.2
	c-2.7,8.5-7.7,25.5-10.3,38.7c-1.6,8.3-6.3,13.4-13,17.1c-2,1.1-5.6,1.7-7.3,1c-1.6-0.7-0.6-4.8,0.1-6.9c4.3-12.1,9.1-23.9,13.3-36
	c4.8-13.7-1.1-21.8-15.5-22c-11.8-0.2-20.9,5.7-29.4,13c-1.9,1.6-3.8,3.2-5.7,4.8c-0.2-0.2-0.5-0.4-0.7-0.6c1.7-5.5,3.4-10.9,5-16.4
	c-12.1,0.6-23.8,1.2-35.4,1.8c0,0.5,0,0.9,0.1,1.4c3.4,0,6.8,0,11,0c-0.7,2.6-1.2,4.4-1.8,6.3c-3.9,11.7-8.1,23.2-11.5,35.1
	c-2.7,9.5-9.7,14.5-17.1,19.3c-1.5,1-4.5,1.2-5.8,0.3c-1-0.7-1.1-3.9-0.5-5.6c3.4-11,7.1-21.8,10.7-32.7c2.8-8.6,5.7-17.2,8.5-25.8
	c-12.2,0.6-23.8,1.3-35.4,1.9c0,0.4,0,0.7,0,1.1c3.5,0.2,6.9,0.3,11,0.5c-1.7,5.2-3.2,9.7-4.6,14.2c-4.1,12.7-8.4,25.2-12,38
	c-1.9,6.7,1.8,11.7,8.6,13.5c9.9,2.7,18.3-0.8,26-6.8c1.7-1.4,3.4-2.8,6.1-5.1c-1.2,4.4-2,7.3-3,10.8c6.7,0,13-0.2,19.3,0.1
	c3.2,0.1,4.3-1.2,5.1-3.9c3.1-9.8,6.3-19.6,9.7-29.4c5.3-15,16.2-24.8,30.1-31.7c1-0.5,2.2-0.8,3.3-1c4.8-0.7,7.1,1.7,5.7,6.4
	c-0.9,2.9-2.1,5.6-3.1,8.4C103.6,71,98.5,83.3,94.5,96c-2.6,8.3,2.6,14.7,11.3,15.6c8.4,0.9,15.8-1.7,22.3-6.9
	c1.5-1.2,3-2.3,5.3-4.1c-0.7,3.7-1.1,6.3-1.8,8.8c-2.3,9.2-4.4,18.5-7.2,27.5c-2.2,7.1-6.1,9.7-12.5,9.8c4.4-6.1,5.4-9.4,3.9-13.7
	c-1.8-5.4-7.1-8.7-12.9-8c-5.2,0.6-9.5,4.8-10.2,10.1c-0.8,5.9,2.4,11.4,8.3,13.2c11.9,3.7,21.6-0.8,30-8.8
	c9.2-8.8,15.8-19.6,20-31.4c6.8-19.3,12.4-38.9,18.2-58.5c0.2-0.8,0.7-2.5,1.4-4.9h13.8V43h-13.3c2.7-9.6,7.8-26.2,12.9-33.5
	c2.3-3.4,5.1-6.4,10.1-6.7c-1.3,2.1-2.5,3.6-3.3,5.4c-2.4,6,1.1,13.3,7.3,15.4c6.6,2.3,13.4-1.1,15.5-7.8
	C215.8,9.3,212.5,2.8,205.5,1.2z"/>
</svg>
