<svg xmlns="http://www.w3.org/2000/svg" viewBox="0 0 115.6 213.2"><style type="text/css">  
	.st0{fill:none;}
	.st1{fill:#F7BC60;}
	.st2{fill:#FFFFFF;}
	.st3{display:none;}
	.st4{display:inline;}
	.st5{fill:#54B948;}
	.st6{fill:#54B948;stroke:#54B948;stroke-width:4;}
</style><pattern x="-241.1" y="495.2" width="69" height="69" patternUnits="userSpaceOnUse" viewBox="2.1 -70.9 69 69"><rect x="2.1" y="-70.9" class="st0" width="69" height="69"/><rect x="2.1" y="-70.9" class="st1" width="69" height="69"/><path class="st2" d="M61.8-71.7c0 0.1 0 0.1 0 0.2 -0.1 0.1-0.1 0.1-0.2 0.1 -0.1 0.1-0.1 0.3-0.1 0.4 -0.2 0.1 0 0.2 0 0.3 0 0 0 0.1 0 0.2 0 0.1 0 0.3 0.1 0.4 0.1 0.2 0.3 0.4 0.4 0.5 0.2 0.1 0.4 0.6 0.6 0.6 0.2 0 0.4-0.1 0.5-0.1 0.2 0 0.4 0 0.6-0.1 0.2-0.1 0.1-0.3 0.3-0.5 0.1-0.1 0.3 0 0.4-0.1 0.2-0.1 0.3-0.3 0.4-0.5 0-0.1 0-0.1 0-0.2 0-0.1 0.1-0.2 0.1-0.3 0-0.1-0.1-0.1-0.1-0.2 0-0.1 0-0.2 0-0.3 0-0.2 0-0.4-0.1-0.5 -0.4-0.7-1.2-0.9-2-0.8 -0.2 0-0.3 0.1-0.4 0.2 -0.2 0.1-0.1 0.2-0.3 0.2 -0.1 0-0.2 0.1-0.2 0.2C61.8-71.7 61.8-71.7 61.8-71.7 61.8-71.6 61.8-71.6 61.8-71.7"/><path class="st2" d="M54.1-71.7c0 0.1 0 0.1 0 0.2 -0.1 0.1-0.1 0.1-0.2 0.1 -0.1 0.1-0.1 0.3-0.1 0.4 -0.2 0.1 0 0.2 0 0.3 0 0 0 0.1 0 0.2 0 0.1 0 0.3 0.1 0.4 0.1 0.2 0.3 0.4 0.4 0.5 0.2 0.1 0.4 0.6 0.6 0.6 0.2 0 0.4-0.1 0.5-0.1 0.2 0 0.4 0 0.6-0.1 0.2-0.1 0.1-0.3 0.3-0.5 0.1-0.1 0.3 0 0.4-0.1 0.2-0.1 0.3-0.3 0.4-0.5 0-0.1 0-0.1 0-0.2 0-0.1 0.1-0.2 0.1-0.3 0-0.1-0.1-0.1-0.1-0.2 0-0.1 0-0.2 0-0.3 0-0.2 0-0.4-0.1-0.5 -0.4-0.7-1.2-0.9-2-0.8 -0.2 0-0.3 0.1-0.4 0.2 -0.2 0.1-0.1 0.2-0.3 0.2 -0.1 0-0.2 0.1-0.2 0.2C54.1-71.7 54.1-71.7 54.1-71.7 54.1-71.6 54.1-71.6 54.1-71.7"/><path class="st2" d="M46.4-71.7c0 0.1 0 0.1 0 0.2 -0.1 0.1-0.1 0.1-0.2 0.1 -0.1 0.1-0.1 0.3-0.1 0.4 -0.2 0.1 0 0.2 0 0.3 0 0 0 0.1 0 0.2 0 0.1 0 0.3 0.1 0.4 0.1 0.2 0.3 0.4 0.4 0.5 0.2 0.1 0.4 0.6 0.6 0.6 0.2 0 0.4-0.1 0.5-0.1 0.2 0 0.4 0 0.6-0.1 0.2-0.1 0.1-0.3 0.3-0.5 0.1-0.1 0.3 0 0.4-0.1 0.2-0.1 0.3-0.3 0.4-0.5 0-0.1 0-0.1 0-0.2 0-0.1 0.1-0.2 0.1-0.3 0-0.1-0.1-0.1-0.1-0.2 0-0.1 0-0.2 0-0.3 0-0.2 0-0.4-0.1-0.5 -0.4-0.7-1.2-0.9-2-0.8 -0.2 0-0.3 0.1-0.4 0.2 -0.2 0.1-0.1 0.2-0.3 0.2 -0.1 0-0.2 0.1-0.2 0.2C46.4-71.7 46.4-71.7 46.4-71.7 46.4-71.6 46.4-71.6 46.4-71.7"/><path class="st2" d="M38.8-71.7c0 0.1 0 0.1 0 0.2 -0.1 0.1-0.1 0.1-0.2 0.1 -0.1 0.1-0.1 0.3-0.1 0.4 -0.2 0.1 0 0.2 0 0.3 0 0 0 0.1 0 0.2 0 0.1 0 0.3 0.1 0.4 0.1 0.2 0.3 0.4 0.4 0.5 0.2 0.1 0.4 0.6 0.6 0.6 0.2 0 0.4-0.1 0.5-0.1 0.2 0 0.4 0 0.6-0.1 0.2-0.1 0.1-0.3 0.3-0.5 0.1-0.1 0.3 0 0.4-0.1 0.2-0.1 0.3-0.3 0.4-0.5 0-0.1 0-0.1 0-0.2 0-0.1 0.1-0.2 0.1-0.3 0-0.1-0.1-0.1-0.1-0.2 0-0.1 0-0.2 0-0.3 0-0.2 0-0.4-0.1-0.5 -0.4-0.7-1.2-0.9-2-0.8 -0.2 0-0.3 0.1-0.4 0.2 -0.2 0.1-0.1 0.2-0.3 0.2 -0.1 0-0.2 0.1-0.2 0.2C38.8-71.7 38.8-71.7 38.8-71.7 38.8-71.6 38.8-71.6 38.8-71.7"/><path class="st2" d="M31.1-71.7c0 0.1 0 0.1 0 0.2 -0.1 0.1-0.1 0.1-0.2 0.1 -0.1 0.1-0.1 0.3-0.1 0.4 -0.2 0.1 0 0.2 0 0.3 0 0 0 0.1 0 0.2 0 0.1 0 0.3 0.1 0.4 0.1 0.2 0.3 0.4 0.4 0.5 0.2 0.1 0.4 0.6 0.6 0.6 0.2 0 0.4-0.1 0.5-0.1 0.2 0 0.4 0 0.6-0.1 0.2-0.1 0.1-0.3 0.3-0.5 0.1-0.1 0.3 0 0.4-0.1 0.2-0.1 0.3-0.3 0.4-0.5 0-0.1 0-0.1 0-0.2 0-0.1 0.1-0.2 0.1-0.3 0-0.1-0.1-0.1-0.1-0.2 0-0.1 0-0.2 0-0.3 0-0.2 0-0.4-0.1-0.5 -0.4-0.7-1.2-0.9-2-0.8 -0.2 0-0.3 0.1-0.4 0.2 -0.2 0.1-0.1 0.2-0.3 0.2 -0.1 0-0.2 0.1-0.2 0.2C31.1-71.7 31.1-71.7 31.1-71.7 31.1-71.6 31.1-71.6 31.1-71.7"/><path class="st2" d="M23.4-71.7c0 0.1 0 0.1 0 0.2 -0.1 0.1-0.1 0.1-0.2 0.1 -0.1 0.1-0.1 0.3-0.1 0.4 -0.2 0.1 0 0.2 0 0.3 0 0 0 0.1 0 0.2 0 0.1 0 0.3 0.1 0.4 0.1 0.2 0.3 0.4 0.4 0.5 0.2 0.1 0.4 0.6 0.6 0.6 0.2 0 0.4-0.1 0.5-0.1 0.2 0 0.4 0 0.6-0.1 0.2-0.1 0.1-0.3 0.3-0.5 0.1-0.1 0.3 0 0.4-0.1 0.2-0.1 0.3-0.3 0.4-0.5 0-0.1 0-0.1 0-0.2 0-0.1 0.1-0.2 0.1-0.3 0-0.1-0.1-0.1-0.1-0.2 0-0.1 0-0.2 0-0.3 0-0.2 0-0.4-0.1-0.5 -0.4-0.7-1.2-0.9-2-0.8 -0.2 0-0.3 0.1-0.4 0.2 -0.2 0.1-0.1 0.2-0.3 0.2 -0.1 0-0.2 0.1-0.2 0.2C23.4-71.7 23.4-71.7 23.4-71.7 23.4-71.6 23.4-71.6 23.4-71.7"/><path class="st2" d="M15.8-71.7c0 0.1 0 0.1 0 0.2 -0.1 0.1-0.1 0.1-0.2 0.1 -0.1 0.1-0.1 0.3-0.1 0.4 -0.2 0.1 0 0.2 0 0.3 0 0 0 0.1 0 0.2 0 0.1 0 0.3 0.1 0.4 0.1 0.2 0.3 0.4 0.4 0.5 0.2 0.1 0.4 0.6 0.6 0.6 0.2 0 0.4-0.1 0.5-0.1 0.2 0 0.4 0 0.6-0.1 0.2-0.1 0.1-0.3 0.3-0.5 0.1-0.1 0.3 0 0.4-0.1 0.2-0.1 0.3-0.3 0.4-0.5 0-0.1 0-0.1 0-0.2 0-0.1 0.1-0.2 0.1-0.3 0-0.1-0.1-0.1-0.1-0.2 0-0.1 0-0.2 0-0.3 0-0.2 0-0.4-0.1-0.5 -0.4-0.7-1.2-0.9-2-0.8 -0.2 0-0.3 0.1-0.4 0.2 -0.2 0.1-0.1 0.2-0.3 0.2 -0.1 0-0.2 0.1-0.2 0.2C15.8-71.7 15.8-71.7 15.8-71.7 15.8-71.6 15.8-71.6 15.8-71.7"/><path class="st2" d="M8.1-71.7c0 0.1 0 0.1 0 0.2C8-71.4 8-71.4 7.9-71.3c-0.1 0.1-0.1 0.3-0.1 0.4 -0.2 0.1 0 0.2 0 0.3 0 0 0 0.1 0 0.2 0 0.1 0 0.3 0.1 0.4 0.1 0.2 0.3 0.4 0.4 0.5 0.2 0.1 0.4 0.6 0.6 0.6 0.2 0 0.4-0.1 0.5-0.1 0.2 0 0.4 0 0.6-0.1 0.2-0.1 0.1-0.3 0.3-0.5 0.1-0.1 0.3 0 0.4-0.1 0.2-0.1 0.3-0.3 0.4-0.5 0-0.1 0-0.1 0-0.2 0-0.1 0.1-0.2 0.1-0.3 0-0.1-0.1-0.1-0.1-0.2 0-0.1 0-0.2 0-0.3 0-0.2 0-0.4-0.1-0.5 -0.4-0.7-1.2-0.9-2-0.8 -0.2 0-0.3 0.1-0.4 0.2 -0.2 0.1-0.1 0.2-0.3 0.2 -0.1 0-0.2 0.1-0.2 0.2C8.1-71.7 8.1-71.7 8.1-71.7 8.1-71.6 8.1-71.6 8.1-71.7"/><path class="st2" d="M0.4-71.7c0 0.1 0 0.1 0 0.2 -0.1 0.1-0.1 0.1-0.2 0.1 -0.1 0.1-0.1 0.3-0.1 0.4 -0.2 0.1 0 0.2 0 0.3 0 0 0 0.1 0 0.2 0 0.1 0 0.3 0.1 0.4 0.1 0.2 0.3 0.4 0.4 0.5C0.8-69.4 1-69 1.2-68.9c0.2 0 0.4-0.1 0.5-0.1 0.2 0 0.4 0 0.6-0.1 0.2-0.1 0.1-0.3 0.3-0.5 0.1-0.1 0.3 0 0.4-0.1 0.2-0.1 0.3-0.3 0.4-0.5 0-0.1 0-0.1 0-0.2 0-0.1 0.1-0.2 0.1-0.3 0-0.1-0.1-0.1-0.1-0.2 0-0.1 0-0.2 0-0.3 0-0.2 0-0.4-0.1-0.5 -0.4-0.7-1.2-0.9-2-0.8 -0.2 0-0.3 0.1-0.4 0.2 -0.2 0.1-0.1 0.2-0.3 0.2 -0.1 0-0.2 0.1-0.2 0.2C0.4-71.7 0.4-71.7 0.4-71.7 0.4-71.6 0.4-71.6 0.4-71.7"/><path class="st2" d="M69.4-71.7c0 0.1 0 0.1 0 0.2 -0.1 0.1-0.1 0.1-0.2 0.1 -0.1 0.1-0.1 0.3-0.1 0.4 -0.2 0.1 0 0.2 0 0.3 0 0 0 0.1 0 0.2 0 0.1 0 0.3 0.1 0.4 0.1 0.2 0.3 0.4 0.4 0.5 0.2 0.1 0.4 0.6 0.6 0.6 0.2 0 0.4-0.1 0.5-0.1 0.2 0 0.4 0 0.6-0.1 0.2-0.1 0.1-0.3 0.3-0.5 0.1-0.1 0.3 0 0.4-0.1 0.2-0.1 0.3-0.3 0.4-0.5 0-0.1 0-0.1 0-0.2 0-0.1 0.1-0.2 0.1-0.3 0-0.1-0.1-0.1-0.1-0.2 0-0.1 0-0.2 0-0.3 0-0.2 0-0.4-0.1-0.5 -0.4-0.7-1.2-0.9-2-0.8 -0.2 0-0.3 0.1-0.4 0.2 -0.2 0.1-0.1 0.2-0.3 0.2 -0.1 0-0.2 0.1-0.2 0.2C69.4-71.7 69.4-71.7 69.4-71.7 69.4-71.6 69.4-71.6 69.4-71.7"/><path class="st2" d="M0.5-71.7c0 0.1 0 0.1 0 0.2 -0.1 0.1-0.1 0.1-0.2 0.1 -0.1 0.1-0.1 0.3-0.1 0.4 -0.2 0.1 0 0.2 0 0.3 0 0 0 0.1 0 0.2 0 0.1 0 0.3 0.1 0.4 0.1 0.2 0.3 0.4 0.4 0.5C0.9-69.4 1-69 1.3-68.9c0.2 0 0.4-0.1 0.5-0.1 0.2 0 0.4 0 0.6-0.1 0.2-0.1 0.1-0.3 0.3-0.5 0.1-0.1 0.3 0 0.4-0.1 0.2-0.1 0.3-0.3 0.4-0.5 0-0.1 0-0.1 0-0.2 0-0.1 0.1-0.2 0.1-0.3 0-0.1-0.1-0.1-0.1-0.2 0-0.1 0-0.2 0-0.3 0-0.2 0-0.4-0.1-0.5 -0.4-0.7-1.2-0.9-2-0.8 -0.2 0-0.3 0.1-0.4 0.2 -0.2 0.1-0.1 0.2-0.3 0.2 -0.1 0-0.2 0.1-0.2 0.2C0.5-71.7 0.5-71.7 0.5-71.7 0.5-71.6 0.5-71.6 0.5-71.7"/><path class="st2" d="M69.4-64c0 0.1 0 0.1 0 0.2 -0.1 0.1-0.1 0.1-0.2 0.1 -0.1 0.1-0.1 0.3-0.1 0.4 -0.2 0.1 0 0.2 0 0.3 0 0 0 0.1 0 0.2 0 0.1 0 0.3 0.1 0.4 0.1 0.2 0.3 0.4 0.4 0.5 0.2 0.1 0.4 0.6 0.6 0.6 0.2 0 0.4-0.1 0.5-0.1 0.2 0 0.4 0 0.6-0.1 0.2-0.1 0.1-0.3 0.3-0.5 0.1-0.1 0.3 0 0.4-0.1 0.2-0.1 0.3-0.3 0.4-0.5 0-0.1 0-0.1 0-0.2 0-0.1 0.1-0.2 0.1-0.3 0-0.1-0.1-0.1-0.1-0.2 0-0.1 0-0.2 0-0.3 0-0.2 0-0.4-0.1-0.5 -0.4-0.7-1.2-0.9-2-0.8 -0.2 0-0.3 0.1-0.4 0.2 -0.2 0.1-0.1 0.2-0.3 0.2 -0.1 0-0.2 0.1-0.2 0.2C69.4-64 69.4-64.1 69.4-64 69.4-64 69.4-64 69.4-64"/><path class="st2" d="M61.8-64c0 0.1 0 0.1 0 0.2 -0.1 0.1-0.1 0.1-0.2 0.1 -0.1 0.1-0.1 0.3-0.1 0.4 -0.2 0.1 0 0.2 0 0.3 0 0 0 0.1 0 0.2 0 0.1 0 0.3 0.1 0.4 0.1 0.2 0.3 0.4 0.4 0.5 0.2 0.1 0.4 0.6 0.6 0.6 0.2 0 0.4-0.1 0.5-0.1 0.2 0 0.4 0 0.6-0.1 0.2-0.1 0.1-0.3 0.3-0.5 0.1-0.1 0.3 0 0.4-0.1 0.2-0.1 0.3-0.3 0.4-0.5 0-0.1 0-0.1 0-0.2 0-0.1 0.1-0.2 0.1-0.3 0-0.1-0.1-0.1-0.1-0.2 0-0.1 0-0.2 0-0.3 0-0.2 0-0.4-0.1-0.5 -0.4-0.7-1.2-0.9-2-0.8 -0.2 0-0.3 0.1-0.4 0.2 -0.2 0.1-0.1 0.2-0.3 0.2 -0.1 0-0.2 0.1-0.2 0.2C61.8-64 61.8-64.1 61.8-64 61.8-64 61.8-64 61.8-64"/><path class="st2" d="M54.1-64c0 0.1 0 0.1 0 0.2 -0.1 0.1-0.1 0.1-0.2 0.1 -0.1 0.1-0.1 0.3-0.1 0.4 -0.2 0.1 0 0.2 0 0.3 0 0 0 0.1 0 0.2 0 0.1 0 0.3 0.1 0.4 0.1 0.2 0.3 0.4 0.4 0.5 0.2 0.1 0.4 0.6 0.6 0.6 0.2 0 0.4-0.1 0.5-0.1 0.2 0 0.4 0 0.6-0.1 0.2-0.1 0.1-0.3 0.3-0.5 0.1-0.1 0.3 0 0.4-0.1 0.2-0.1 0.3-0.3 0.4-0.5 0-0.1 0-0.1 0-0.2 0-0.1 0.1-0.2 0.1-0.3 0-0.1-0.1-0.1-0.1-0.2 0-0.1 0-0.2 0-0.3 0-0.2 0-0.4-0.1-0.5 -0.4-0.7-1.2-0.9-2-0.8 -0.2 0-0.3 0.1-0.4 0.2 -0.2 0.1-0.1 0.2-0.3 0.2 -0.1 0-0.2 0.1-0.2 0.2C54.1-64 54.1-64.1 54.1-64 54.1-64 54.1-64 54.1-64"/><path class="st2" d="M46.5-64c0 0.1 0 0.1 0 0.2 -0.1 0.1-0.1 0.1-0.2 0.1 -0.1 0.1-0.1 0.3-0.1 0.4 -0.2 0.1 0 0.2 0 0.3 0 0 0 0.1 0 0.2 0 0.1 0 0.3 0.1 0.4 0.1 0.2 0.3 0.4 0.4 0.5 0.2 0.1 0.4 0.6 0.6 0.6 0.2 0 0.4-0.1 0.5-0.1 0.2 0 0.4 0 0.6-0.1 0.2-0.1 0.1-0.3 0.3-0.5 0.1-0.1 0.3 0 0.4-0.1 0.2-0.1 0.3-0.3 0.4-0.5 0-0.1 0-0.1 0-0.2 0-0.1 0.1-0.2 0.1-0.3 0-0.1-0.1-0.1-0.1-0.2 0-0.1 0-0.2 0-0.3 0-0.2 0-0.4-0.1-0.5 -0.4-0.7-1.2-0.9-2-0.8 -0.2 0-0.3 0.1-0.4 0.2 -0.2 0.1-0.1 0.2-0.3 0.2 -0.1 0-0.2 0.1-0.2 0.2C46.5-64 46.5-64.1 46.5-64 46.5-64 46.5-64 46.5-64"/><path class="st2" d="M38.8-64c0 0.1 0 0.1 0 0.2 -0.1 0.1-0.1 0.1-0.2 0.1 -0.1 0.1-0.1 0.3-0.1 0.4 -0.2 0.1 0 0.2 0 0.3 0 0 0 0.1 0 0.2 0 0.1 0 0.3 0.1 0.4 0.1 0.2 0.3 0.4 0.4 0.5 0.2 0.1 0.4 0.6 0.6 0.6 0.2 0 0.4-0.1 0.5-0.1 0.2 0 0.4 0 0.6-0.1 0.2-0.1 0.1-0.3 0.3-0.5 0.1-0.1 0.3 0 0.4-0.1 0.2-0.1 0.3-0.3 0.4-0.5 0-0.1 0-0.1 0-0.2 0-0.1 0.1-0.2 0.1-0.3 0-0.1-0.1-0.1-0.1-0.2 0-0.1 0-0.2 0-0.3 0-0.2 0-0.4-0.1-0.5 -0.4-0.7-1.2-0.9-2-0.8 -0.2 0-0.3 0.1-0.4 0.2 -0.2 0.1-0.1 0.2-0.3 0.2 -0.1 0-0.2 0.1-0.2 0.2C38.8-64 38.8-64.1 38.8-64 38.8-64 38.8-64 38.8-64"/><path class="st2" d="M31.1-64c0 0.1 0 0.1 0 0.2 -0.1 0.1-0.1 0.1-0.2 0.1 -0.1 0.1-0.1 0.3-0.1 0.4 -0.2 0.1 0 0.2 0 0.3 0 0 0 0.1 0 0.2 0 0.1 0 0.3 0.1 0.4 0.1 0.2 0.3 0.4 0.4 0.5 0.2 0.1 0.4 0.6 0.6 0.6 0.2 0 0.4-0.1 0.5-0.1 0.2 0 0.4 0 0.6-0.1 0.2-0.1 0.1-0.3 0.3-0.5 0.1-0.1 0.3 0 0.4-0.1 0.2-0.1 0.3-0.3 0.4-0.5 0-0.1 0-0.1 0-0.2 0-0.1 0.1-0.2 0.1-0.3 0-0.1-0.1-0.1-0.1-0.2 0-0.1 0-0.2 0-0.3 0-0.2 0-0.4-0.1-0.5 -0.4-0.7-1.2-0.9-2-0.8 -0.2 0-0.3 0.1-0.4 0.2 -0.2 0.1-0.1 0.2-0.3 0.2 -0.1 0-0.2 0.1-0.2 0.2C31.1-64 31.1-64.1 31.1-64 31.1-64 31.1-64 31.1-64"/><path class="st2" d="M23.5-64c0 0.1 0 0.1 0 0.2 -0.1 0.1-0.1 0.1-0.2 0.1 -0.1 0.1-0.1 0.3-0.1 0.4 -0.2 0.1 0 0.2 0 0.3 0 0 0 0.1 0 0.2 0 0.1 0 0.3 0.1 0.4 0.1 0.2 0.3 0.4 0.4 0.5 0.2 0.1 0.4 0.6 0.6 0.6 0.2 0 0.4-0.1 0.5-0.1 0.2 0 0.4 0 0.6-0.1 0.2-0.1 0.1-0.3 0.3-0.5 0.1-0.1 0.3 0 0.4-0.1 0.2-0.1 0.3-0.3 0.4-0.5 0-0.1 0-0.1 0-0.2 0-0.1 0.1-0.2 0.1-0.3 0-0.1-0.1-0.1-0.1-0.2 0-0.1 0-0.2 0-0.3 0-0.2 0-0.4-0.1-0.5 -0.4-0.7-1.2-0.9-2-0.8 -0.2 0-0.3 0.1-0.4 0.2 -0.2 0.1-0.1 0.2-0.3 0.2 -0.1 0-0.2 0.1-0.2 0.2C23.5-64 23.5-64.1 23.5-64 23.5-64 23.5-64 23.5-64"/><path class="st2" d="M15.8-64c0 0.1 0 0.1 0 0.2 -0.1 0.1-0.1 0.1-0.2 0.1 -0.1 0.1-0.1 0.3-0.1 0.4 -0.2 0.1 0 0.2 0 0.3 0 0 0 0.1 0 0.2 0 0.1 0 0.3 0.1 0.4 0.1 0.2 0.3 0.4 0.4 0.5 0.2 0.1 0.4 0.6 0.6 0.6 0.2 0 0.4-0.1 0.5-0.1 0.2 0 0.4 0 0.6-0.1 0.2-0.1 0.1-0.3 0.3-0.5 0.1-0.1 0.3 0 0.4-0.1 0.2-0.1 0.3-0.3 0.4-0.5 0-0.1 0-0.1 0-0.2 0-0.1 0.1-0.2 0.1-0.3 0-0.1-0.1-0.1-0.1-0.2 0-0.1 0-0.2 0-0.3 0-0.2 0-0.4-0.1-0.5 -0.4-0.7-1.2-0.9-2-0.8 -0.2 0-0.3 0.1-0.4 0.2 -0.2 0.1-0.1 0.2-0.3 0.2 -0.1 0-0.2 0.1-0.2 0.2C15.8-64 15.8-64.1 15.8-64 15.8-64 15.8-64 15.8-64"/><path class="st2" d="M8.2-64c0 0.1 0 0.1 0 0.2C8.1-63.7 8-63.7 8-63.7c-0.1 0.1-0.1 0.3-0.1 0.4 -0.2 0.1 0 0.2 0 0.3 0 0 0 0.1 0 0.2 0 0.1 0 0.3 0.1 0.4C8-62.2 8.2-62 8.3-61.9c0.2 0.1 0.4 0.6 0.6 0.6 0.2 0 0.4-0.1 0.5-0.1 0.2 0 0.4 0 0.6-0.1 0.2-0.1 0.1-0.3 0.3-0.5 0.1-0.1 0.3 0 0.4-0.1 0.2-0.1 0.3-0.3 0.4-0.5 0-0.1 0-0.1 0-0.2 0-0.1 0.1-0.2 0.1-0.3 0-0.1-0.1-0.1-0.1-0.2 0-0.1 0-0.2 0-0.3 0-0.2 0-0.4-0.1-0.5 -0.4-0.7-1.2-0.9-2-0.8 -0.2 0-0.3 0.1-0.4 0.2 -0.2 0.1-0.1 0.2-0.3 0.2 -0.1 0-0.2 0.1-0.2 0.2C8.2-64 8.2-64.1 8.2-64 8.1-64 8.1-64 8.2-64"/><path class="st2" d="M0.5-64c0 0.1 0 0.1 0 0.2 -0.1 0.1-0.1 0.1-0.2 0.1 -0.1 0.1-0.1 0.3-0.1 0.4 -0.2 0.1 0 0.2 0 0.3 0 0 0 0.1 0 0.2 0 0.1 0 0.3 0.1 0.4 0.1 0.2 0.3 0.4 0.4 0.5 0.2 0.1 0.4 0.6 0.6 0.6 0.2 0 0.4-0.1 0.5-0.1 0.2 0 0.4 0 0.6-0.1 0.2-0.1 0.1-0.3 0.3-0.5C2.8-62 3-61.9 3.1-62c0.2-0.1 0.3-0.3 0.4-0.5 0-0.1 0-0.1 0-0.2 0-0.1 0.1-0.2 0.1-0.3 0-0.1-0.1-0.1-0.1-0.2 0-0.1 0-0.2 0-0.3 0-0.2 0-0.4-0.1-0.5 -0.4-0.7-1.2-0.9-2-0.8 -0.2 0-0.3 0.1-0.4 0.2 -0.2 0.1-0.1 0.2-0.3 0.2 -0.1 0-0.2 0.1-0.2 0.2C0.5-64 0.5-64.1 0.5-64 0.5-64 0.5-64 0.5-64"/><path class="st2" d="M69.4-56.3c0 0.1 0 0.1 0 0.2 -0.1 0.1-0.1 0.1-0.2 0.1 -0.1 0.1-0.1 0.3-0.1 0.4 -0.2 0.1 0 0.2 0 0.3 0 0 0 0.1 0 0.2 0 0.1 0 0.3 0.1 0.4 0.1 0.2 0.3 0.4 0.4 0.5 0.2 0.1 0.4 0.6 0.6 0.6 0.2 0 0.4-0.1 0.5-0.1 0.2 0 0.4 0 0.6-0.1 0.2-0.1 0.1-0.3 0.3-0.5 0.1-0.1 0.3 0 0.4-0.1 0.2-0.1 0.3-0.3 0.4-0.5 0-0.1 0-0.1 0-0.2 0-0.1 0.1-0.2 0.1-0.3 0-0.1-0.1-0.1-0.1-0.2 0-0.1 0-0.2 0-0.3 0-0.2 0-0.4-0.1-0.5 -0.4-0.7-1.2-0.9-2-0.8 -0.2 0-0.3 0.1-0.4 0.2 -0.2 0.1-0.1 0.2-0.3 0.2 -0.1 0-0.2 0.1-0.2 0.2C69.4-56.4 69.4-56.4 69.4-56.3 69.4-56.3 69.4-56.3 69.4-56.3"/><path class="st2" d="M61.8-56.3c0 0.1 0 0.1 0 0.2 -0.1 0.1-0.1 0.1-0.2 0.1 -0.1 0.1-0.1 0.3-0.1 0.4 -0.2 0.1 0 0.2 0 0.3 0 0 0 0.1 0 0.2 0 0.1 0 0.3 0.1 0.4 0.1 0.2 0.3 0.4 0.4 0.5 0.2 0.1 0.4 0.6 0.6 0.6 0.2 0 0.4-0.1 0.5-0.1 0.2 0 0.4 0 0.6-0.1 0.2-0.1 0.1-0.3 0.3-0.5 0.1-0.1 0.3 0 0.4-0.1 0.2-0.1 0.3-0.3 0.4-0.5 0-0.1 0-0.1 0-0.2 0-0.1 0.1-0.2 0.1-0.3 0-0.1-0.1-0.1-0.1-0.2 0-0.1 0-0.2 0-0.3 0-0.2 0-0.4-0.1-0.5 -0.4-0.7-1.2-0.9-2-0.8 -0.2 0-0.3 0.1-0.4 0.2 -0.2 0.1-0.1 0.2-0.3 0.2 -0.1 0-0.2 0.1-0.2 0.2C61.8-56.4 61.8-56.4 61.8-56.3 61.8-56.3 61.8-56.3 61.8-56.3"/><path class="st2" d="M54.1-56.3c0 0.1 0 0.1 0 0.2C54-56.1 54-56.1 53.9-56c-0.1 0.1-0.1 0.3-0.1 0.4 -0.2 0.1 0 0.2 0 0.3 0 0 0 0.1 0 0.2 0 0.1 0 0.3 0.1 0.4 0.1 0.2 0.3 0.4 0.4 0.5 0.2 0.1 0.4 0.6 0.6 0.6 0.2 0 0.4-0.1 0.5-0.1 0.2 0 0.4 0 0.6-0.1 0.2-0.1 0.1-0.3 0.3-0.5 0.1-0.1 0.3 0 0.4-0.1 0.2-0.1 0.3-0.3 0.4-0.5 0-0.1 0-0.1 0-0.2 0-0.1 0.1-0.2 0.1-0.3 0-0.1-0.1-0.1-0.1-0.2 0-0.1 0-0.2 0-0.3 0-0.2 0-0.4-0.1-0.5 -0.4-0.7-1.2-0.9-2-0.8 -0.2 0-0.3 0.1-0.4 0.2 -0.2 0.1-0.1 0.2-0.3 0.2 -0.1 0-0.2 0.1-0.2 0.2C54.1-56.4 54.1-56.4 54.1-56.3 54.1-56.3 54.1-56.3 54.1-56.3"/><path class="st2" d="M46.5-56.3c0 0.1 0 0.1 0 0.2 -0.1 0.1-0.1 0.1-0.2 0.1 -0.1 0.1-0.1 0.3-0.1 0.4 -0.2 0.1 0 0.2 0 0.3 0 0 0 0.1 0 0.2 0 0.1 0 0.3 0.1 0.4 0.1 0.2 0.3 0.4 0.4 0.5 0.2 0.1 0.4 0.6 0.6 0.6 0.2 0 0.4-0.1 0.5-0.1 0.2 0 0.4 0 0.6-0.1 0.2-0.1 0.1-0.3 0.3-0.5 0.1-0.1 0.3 0 0.4-0.1 0.2-0.1 0.3-0.3 0.4-0.5 0-0.1 0-0.1 0-0.2 0-0.1 0.1-0.2 0.1-0.3 0-0.1-0.1-0.1-0.1-0.2 0-0.1 0-0.2 0-0.3 0-0.2 0-0.4-0.1-0.5 -0.4-0.7-1.2-0.9-2-0.8 -0.2 0-0.3 0.1-0.4 0.2 -0.2 0.1-0.1 0.2-0.3 0.2 -0.1 0-0.2 0.1-0.2 0.2C46.5-56.4 46.5-56.4 46.5-56.3 46.5-56.3 46.5-56.3 46.5-56.3"/><path class="st2" d="M38.8-56.3c0 0.1 0 0.1 0 0.2 -0.1 0.1-0.1 0.1-0.2 0.1 -0.1 0.1-0.1 0.3-0.1 0.4 -0.2 0.1 0 0.2 0 0.3 0 0 0 0.1 0 0.2 0 0.1 0 0.3 0.1 0.4 0.1 0.2 0.3 0.4 0.4 0.5 0.2 0.1 0.4 0.6 0.6 0.6 0.2 0 0.4-0.1 0.5-0.1 0.2 0 0.4 0 0.6-0.1 0.2-0.1 0.1-0.3 0.3-0.5 0.1-0.1 0.3 0 0.4-0.1 0.2-0.1 0.3-0.3 0.4-0.5 0-0.1 0-0.1 0-0.2 0-0.1 0.1-0.2 0.1-0.3 0-0.1-0.1-0.1-0.1-0.2 0-0.1 0-0.2 0-0.3 0-0.2 0-0.4-0.1-0.5 -0.4-0.7-1.2-0.9-2-0.8 -0.2 0-0.3 0.1-0.4 0.2 -0.2 0.1-0.1 0.2-0.3 0.2 -0.1 0-0.2 0.1-0.2 0.2C38.8-56.4 38.8-56.4 38.8-56.3 38.8-56.3 38.8-56.3 38.8-56.3"/><path class="st2" d="M31.1-56.3c0 0.1 0 0.1 0 0.2 -0.1 0.1-0.1 0.1-0.2 0.1 -0.1 0.1-0.1 0.3-0.1 0.4 -0.2 0.1 0 0.2 0 0.3 0 0 0 0.1 0 0.2 0 0.1 0 0.3 0.1 0.4 0.1 0.2 0.3 0.4 0.4 0.5 0.2 0.1 0.4 0.6 0.6 0.6 0.2 0 0.4-0.1 0.5-0.1 0.2 0 0.4 0 0.6-0.1 0.2-0.1 0.1-0.3 0.3-0.5 0.1-0.1 0.3 0 0.4-0.1 0.2-0.1 0.3-0.3 0.4-0.5 0-0.1 0-0.1 0-0.2 0-0.1 0.1-0.2 0.1-0.3 0-0.1-0.1-0.1-0.1-0.2 0-0.1 0-0.2 0-0.3 0-0.2 0-0.4-0.1-0.5 -0.4-0.7-1.2-0.9-2-0.8 -0.2 0-0.3 0.1-0.4 0.2 -0.2 0.1-0.1 0.2-0.3 0.2 -0.1 0-0.2 0.1-0.2 0.2C31.1-56.4 31.1-56.4 31.1-56.3 31.1-56.3 31.1-56.3 31.1-56.3"/><path class="st2" d="M23.5-56.3c0 0.1 0 0.1 0 0.2 -0.1 0.1-0.1 0.1-0.2 0.1 -0.1 0.1-0.1 0.3-0.1 0.4 -0.2 0.1 0 0.2 0 0.3 0 0 0 0.1 0 0.2 0 0.1 0 0.3 0.1 0.4 0.1 0.2 0.3 0.4 0.4 0.5 0.2 0.1 0.4 0.6 0.6 0.6 0.2 0 0.4-0.1 0.5-0.1 0.2 0 0.4 0 0.6-0.1 0.2-0.1 0.1-0.3 0.3-0.5 0.1-0.1 0.3 0 0.4-0.1 0.2-0.1 0.3-0.3 0.4-0.5 0-0.1 0-0.1 0-0.2 0-0.1 0.1-0.2 0.1-0.3 0-0.1-0.1-0.1-0.1-0.2 0-0.1 0-0.2 0-0.3 0-0.2 0-0.4-0.1-0.5 -0.4-0.7-1.2-0.9-2-0.8 -0.2 0-0.3 0.1-0.4 0.2 -0.2 0.1-0.1 0.2-0.3 0.2 -0.1 0-0.2 0.1-0.2 0.2C23.5-56.4 23.5-56.4 23.5-56.3 23.5-56.3 23.5-56.3 23.5-56.3"/><path class="st2" d="M15.8-56.3c0 0.1 0 0.1 0 0.2 -0.1 0.1-0.1 0.1-0.2 0.1 -0.1 0.1-0.1 0.3-0.1 0.4 -0.2 0.1 0 0.2 0 0.3 0 0 0 0.1 0 0.2 0 0.1 0 0.3 0.1 0.4 0.1 0.2 0.3 0.4 0.4 0.5 0.2 0.1 0.4 0.6 0.6 0.6 0.2 0 0.4-0.1 0.5-0.1 0.2 0 0.4 0 0.6-0.1 0.2-0.1 0.1-0.3 0.3-0.5 0.1-0.1 0.3 0 0.4-0.1 0.2-0.1 0.3-0.3 0.4-0.5 0-0.1 0-0.1 0-0.2 0-0.1 0.1-0.2 0.1-0.3 0-0.1-0.1-0.1-0.1-0.2 0-0.1 0-0.2 0-0.3 0-0.2 0-0.4-0.1-0.5 -0.4-0.7-1.2-0.9-2-0.8 -0.2 0-0.3 0.1-0.4 0.2 -0.2 0.1-0.1 0.2-0.3 0.2 -0.1 0-0.2 0.1-0.2 0.2C15.8-56.4 15.8-56.4 15.8-56.3 15.8-56.3 15.8-56.3 15.8-56.3"/><path class="st2" d="M8.2-56.3c0 0.1 0 0.1 0 0.2C8.1-56.1 8-56.1 8-56c-0.1 0.1-0.1 0.3-0.1 0.4 -0.2 0.1 0 0.2 0 0.3 0 0 0 0.1 0 0.2 0 0.1 0 0.3 0.1 0.4 0.1 0.2 0.3 0.4 0.4 0.5 0.2 0.1 0.4 0.6 0.6 0.6 0.2 0 0.4-0.1 0.5-0.1 0.2 0 0.4 0 0.6-0.1 0.2-0.1 0.1-0.3 0.3-0.5 0.1-0.1 0.3 0 0.4-0.1 0.2-0.1 0.3-0.3 0.4-0.5 0-0.1 0-0.1 0-0.2 0-0.1 0.1-0.2 0.1-0.3 0-0.1-0.1-0.1-0.1-0.2 0-0.1 0-0.2 0-0.3 0-0.2 0-0.4-0.1-0.5 -0.4-0.7-1.2-0.9-2-0.8 -0.2 0-0.3 0.1-0.4 0.2 -0.2 0.1-0.1 0.2-0.3 0.2 -0.1 0-0.2 0.1-0.2 0.2C8.2-56.4 8.2-56.4 8.2-56.3 8.1-56.3 8.1-56.3 8.2-56.3"/><path class="st2" d="M0.5-56.3c0 0.1 0 0.1 0 0.2 -0.1 0.1-0.1 0.1-0.2 0.1 -0.1 0.1-0.1 0.3-0.1 0.4 -0.2 0.1 0 0.2 0 0.3 0 0 0 0.1 0 0.2 0 0.1 0 0.3 0.1 0.4 0.1 0.2 0.3 0.4 0.4 0.5 0.2 0.1 0.4 0.6 0.6 0.6 0.2 0 0.4-0.1 0.5-0.1 0.2 0 0.4 0 0.6-0.1 0.2-0.1 0.1-0.3 0.3-0.5 0.1-0.1 0.3 0 0.4-0.1 0.2-0.1 0.3-0.3 0.4-0.5 0-0.1 0-0.1 0-0.2 0-0.1 0.1-0.2 0.1-0.3 0-0.1-0.1-0.1-0.1-0.2 0-0.1 0-0.2 0-0.3 0-0.2 0-0.4-0.1-0.5 -0.4-0.7-1.2-0.9-2-0.8 -0.2 0-0.3 0.1-0.4 0.2 -0.2 0.1-0.1 0.2-0.3 0.2 -0.1 0-0.2 0.1-0.2 0.2C0.5-56.4 0.5-56.4 0.5-56.3 0.5-56.3 0.5-56.3 0.5-56.3"/><path class="st2" d="M69.4-48.7c0 0.1 0 0.1 0 0.2 -0.1 0.1-0.1 0.1-0.2 0.1 -0.1 0.1-0.1 0.3-0.1 0.4 -0.2 0.1 0 0.2 0 0.3 0 0 0 0.1 0 0.2 0 0.1 0 0.3 0.1 0.4 0.1 0.2 0.3 0.4 0.4 0.5 0.2 0.1 0.4 0.6 0.6 0.6 0.2 0 0.4-0.1 0.5-0.1 0.2 0 0.4 0 0.6-0.1 0.2-0.1 0.1-0.3 0.3-0.5 0.1-0.1 0.3 0 0.4-0.1 0.2-0.1 0.3-0.3 0.4-0.5 0-0.1 0-0.1 0-0.2 0-0.1 0.1-0.2 0.1-0.3 0-0.1-0.1-0.1-0.1-0.2 0-0.1 0-0.2 0-0.3 0-0.2 0-0.4-0.1-0.5 -0.4-0.7-1.2-0.9-2-0.8 -0.2 0-0.3 0.1-0.4 0.2 -0.2 0.1-0.1 0.2-0.3 0.2 -0.1 0-0.2 0.1-0.2 0.2C69.4-48.7 69.4-48.8 69.4-48.7 69.4-48.7 69.4-48.7 69.4-48.7"/><path class="st2" d="M61.8-48.7c0 0.1 0 0.1 0 0.2 -0.1 0.1-0.1 0.1-0.2 0.1 -0.1 0.1-0.1 0.3-0.1 0.4 -0.2 0.1 0 0.2 0 0.3 0 0 0 0.1 0 0.2 0 0.1 0 0.3 0.1 0.4 0.1 0.2 0.3 0.4 0.4 0.5 0.2 0.1 0.4 0.6 0.6 0.6 0.2 0 0.4-0.1 0.5-0.1 0.2 0 0.4 0 0.6-0.1 0.2-0.1 0.1-0.3 0.3-0.5 0.1-0.1 0.3 0 0.4-0.1 0.2-0.1 0.3-0.3 0.4-0.5 0-0.1 0-0.1 0-0.2 0-0.1 0.1-0.2 0.1-0.3 0-0.1-0.1-0.1-0.1-0.2 0-0.1 0-0.2 0-0.3 0-0.2 0-0.4-0.1-0.5 -0.4-0.7-1.2-0.9-2-0.8 -0.2 0-0.3 0.1-0.4 0.2 -0.2 0.1-0.1 0.2-0.3 0.2 -0.1 0-0.2 0.1-0.2 0.2C61.8-48.7 61.8-48.8 61.8-48.7 61.8-48.7 61.8-48.7 61.8-48.7"/><path class="st2" d="M54.1-48.7c0 0.1 0 0.1 0 0.2 -0.1 0.1-0.1 0.1-0.2 0.1 -0.1 0.1-0.1 0.3-0.1 0.4 -0.2 0.1 0 0.2 0 0.3 0 0 0 0.1 0 0.2 0 0.1 0 0.3 0.1 0.4 0.1 0.2 0.3 0.4 0.4 0.5 0.2 0.1 0.4 0.6 0.6 0.6 0.2 0 0.4-0.1 0.5-0.1 0.2 0 0.4 0 0.6-0.1 0.2-0.1 0.1-0.3 0.3-0.5 0.1-0.1 0.3 0 0.4-0.1 0.2-0.1 0.3-0.3 0.4-0.5 0-0.1 0-0.1 0-0.2 0-0.1 0.1-0.2 0.1-0.3 0-0.1-0.1-0.1-0.1-0.2 0-0.1 0-0.2 0-0.3 0-0.2 0-0.4-0.1-0.5 -0.4-0.7-1.2-0.9-2-0.8 -0.2 0-0.3 0.1-0.4 0.2 -0.2 0.1-0.1 0.2-0.3 0.2 -0.1 0-0.2 0.1-0.2 0.2C54.1-48.7 54.1-48.8 54.1-48.7 54.1-48.7 54.1-48.7 54.1-48.7"/><path class="st2" d="M46.5-48.7c0 0.1 0 0.1 0 0.2 -0.1 0.1-0.1 0.1-0.2 0.1 -0.1 0.1-0.1 0.3-0.1 0.4 -0.2 0.1 0 0.2 0 0.3 0 0 0 0.1 0 0.2 0 0.1 0 0.3 0.1 0.4 0.1 0.2 0.3 0.4 0.4 0.5 0.2 0.1 0.4 0.6 0.6 0.6 0.2 0 0.4-0.1 0.5-0.1 0.2 0 0.4 0 0.6-0.1 0.2-0.1 0.1-0.3 0.3-0.5 0.1-0.1 0.3 0 0.4-0.1 0.2-0.1 0.3-0.3 0.4-0.5 0-0.1 0-0.1 0-0.2 0-0.1 0.1-0.2 0.1-0.3 0-0.1-0.1-0.1-0.1-0.2 0-0.1 0-0.2 0-0.3 0-0.2 0-0.4-0.1-0.5 -0.4-0.7-1.2-0.9-2-0.8 -0.2 0-0.3 0.1-0.4 0.2 -0.2 0.1-0.1 0.2-0.3 0.2 -0.1 0-0.2 0.1-0.2 0.2C46.5-48.7 46.5-48.8 46.5-48.7 46.5-48.7 46.5-48.7 46.5-48.7"/><path class="st2" d="M38.8-48.7c0 0.1 0 0.1 0 0.2 -0.1 0.1-0.1 0.1-0.2 0.1 -0.1 0.1-0.1 0.3-0.1 0.4 -0.2 0.1 0 0.2 0 0.3 0 0 0 0.1 0 0.2 0 0.1 0 0.3 0.1 0.4 0.1 0.2 0.3 0.4 0.4 0.5 0.2 0.1 0.4 0.6 0.6 0.6 0.2 0 0.4-0.1 0.5-0.1 0.2 0 0.4 0 0.6-0.1 0.2-0.1 0.1-0.3 0.3-0.5 0.1-0.1 0.3 0 0.4-0.1 0.2-0.1 0.3-0.3 0.4-0.5 0-0.1 0-0.1 0-0.2 0-0.1 0.1-0.2 0.1-0.3 0-0.1-0.1-0.1-0.1-0.2 0-0.1 0-0.2 0-0.3 0-0.2 0-0.4-0.1-0.5 -0.4-0.7-1.2-0.9-2-0.8 -0.2 0-0.3 0.1-0.4 0.2 -0.2 0.1-0.1 0.2-0.3 0.2 -0.1 0-0.2 0.1-0.2 0.2C38.8-48.7 38.8-48.8 38.8-48.7 38.8-48.7 38.8-48.7 38.8-48.7"/><path class="st2" d="M31.1-48.7c0 0.1 0 0.1 0 0.2 -0.1 0.1-0.1 0.1-0.2 0.1 -0.1 0.1-0.1 0.3-0.1 0.4 -0.2 0.1 0 0.2 0 0.3 0 0 0 0.1 0 0.2 0 0.1 0 0.3 0.1 0.4 0.1 0.2 0.3 0.4 0.4 0.5 0.2 0.1 0.4 0.6 0.6 0.6 0.2 0 0.4-0.1 0.5-0.1 0.2 0 0.4 0 0.6-0.1 0.2-0.1 0.1-0.3 0.3-0.5 0.1-0.1 0.3 0 0.4-0.1 0.2-0.1 0.3-0.3 0.4-0.5 0-0.1 0-0.1 0-0.2 0-0.1 0.1-0.2 0.1-0.3 0-0.1-0.1-0.1-0.1-0.2 0-0.1 0-0.2 0-0.3 0-0.2 0-0.4-0.1-0.5 -0.4-0.7-1.2-0.9-2-0.8 -0.2 0-0.3 0.1-0.4 0.2 -0.2 0.1-0.1 0.2-0.3 0.2 -0.1 0-0.2 0.1-0.2 0.2C31.1-48.7 31.1-48.8 31.1-48.7 31.1-48.7 31.1-48.7 31.1-48.7"/><path class="st2" d="M23.5-48.7c0 0.1 0 0.1 0 0.2 -0.1 0.1-0.1 0.1-0.2 0.1 -0.1 0.1-0.1 0.3-0.1 0.4 -0.2 0.1 0 0.2 0 0.3 0 0 0 0.1 0 0.2 0 0.1 0 0.3 0.1 0.4 0.1 0.2 0.3 0.4 0.4 0.5 0.2 0.1 0.4 0.6 0.6 0.6 0.2 0 0.4-0.1 0.5-0.1 0.2 0 0.4 0 0.6-0.1 0.2-0.1 0.1-0.3 0.3-0.5 0.1-0.1 0.3 0 0.4-0.1 0.2-0.1 0.3-0.3 0.4-0.5 0-0.1 0-0.1 0-0.2 0-0.1 0.1-0.2 0.1-0.3 0-0.1-0.1-0.1-0.1-0.2 0-0.1 0-0.2 0-0.3 0-0.2 0-0.4-0.1-0.5 -0.4-0.7-1.2-0.9-2-0.8 -0.2 0-0.3 0.1-0.4 0.2 -0.2 0.1-0.1 0.2-0.3 0.2 -0.1 0-0.2 0.1-0.2 0.2C23.5-48.7 23.5-48.8 23.5-48.7 23.5-48.7 23.5-48.7 23.5-48.7"/><path class="st2" d="M15.8-48.7c0 0.1 0 0.1 0 0.2 -0.1 0.1-0.1 0.1-0.2 0.1 -0.1 0.1-0.1 0.3-0.1 0.4 -0.2 0.1 0 0.2 0 0.3 0 0 0 0.1 0 0.2 0 0.1 0 0.3 0.1 0.4 0.1 0.2 0.3 0.4 0.4 0.5 0.2 0.1 0.4 0.6 0.6 0.6 0.2 0 0.4-0.1 0.5-0.1 0.2 0 0.4 0 0.6-0.1 0.2-0.1 0.1-0.3 0.3-0.5 0.1-0.1 0.3 0 0.4-0.1 0.2-0.1 0.3-0.3 0.4-0.5 0-0.1 0-0.1 0-0.2 0-0.1 0.1-0.2 0.1-0.3 0-0.1-0.1-0.1-0.1-0.2 0-0.1 0-0.2 0-0.3 0-0.2 0-0.4-0.1-0.5 -0.4-0.7-1.2-0.9-2-0.8 -0.2 0-0.3 0.1-0.4 0.2 -0.2 0.1-0.1 0.2-0.3 0.2 -0.1 0-0.2 0.1-0.2 0.2C15.8-48.7 15.8-48.8 15.8-48.7 15.8-48.7 15.8-48.7 15.8-48.7"/><path class="st2" d="M8.2-48.7c0 0.1 0 0.1 0 0.2C8.1-48.4 8-48.4 8-48.4c-0.1 0.1-0.1 0.3-0.1 0.4 -0.2 0.1 0 0.2 0 0.3 0 0 0 0.1 0 0.2 0 0.1 0 0.3 0.1 0.4 0.1 0.2 0.3 0.4 0.4 0.5C8.5-46.4 8.7-46 8.9-46c0.2 0 0.4-0.1 0.5-0.1 0.2 0 0.4 0 0.6-0.1 0.2-0.1 0.1-0.3 0.3-0.5 0.1-0.1 0.3 0 0.4-0.1 0.2-0.1 0.3-0.3 0.4-0.5 0-0.1 0-0.1 0-0.2 0-0.1 0.1-0.2 0.1-0.3 0-0.1-0.1-0.1-0.1-0.2 0-0.1 0-0.2 0-0.3 0-0.2 0-0.4-0.1-0.5 -0.4-0.7-1.2-0.9-2-0.8 -0.2 0-0.3 0.1-0.4 0.2 -0.2 0.1-0.1 0.2-0.3 0.2 -0.1 0-0.2 0.1-0.2 0.2C8.2-48.7 8.2-48.8 8.2-48.7 8.1-48.7 8.1-48.7 8.2-48.7"/><path class="st2" d="M0.5-48.7c0 0.1 0 0.1 0 0.2 -0.1 0.1-0.1 0.1-0.2 0.1 -0.1 0.1-0.1 0.3-0.1 0.4 -0.2 0.1 0 0.2 0 0.3 0 0 0 0.1 0 0.2 0 0.1 0 0.3 0.1 0.4 0.1 0.2 0.3 0.4 0.4 0.5C0.9-46.4 1-46 1.3-46c0.2 0 0.4-0.1 0.5-0.1 0.2 0 0.4 0 0.6-0.1 0.2-0.1 0.1-0.3 0.3-0.5 0.1-0.1 0.3 0 0.4-0.1 0.2-0.1 0.3-0.3 0.4-0.5 0-0.1 0-0.1 0-0.2 0-0.1 0.1-0.2 0.1-0.3 0-0.1-0.1-0.1-0.1-0.2 0-0.1 0-0.2 0-0.3 0-0.2 0-0.4-0.1-0.5 -0.4-0.7-1.2-0.9-2-0.8 -0.2 0-0.3 0.1-0.4 0.2 -0.2 0.1-0.1 0.2-0.3 0.2 -0.1 0-0.2 0.1-0.2 0.2C0.5-48.7 0.5-48.8 0.5-48.7 0.5-48.7 0.5-48.7 0.5-48.7"/><path class="st2" d="M69.4-41c0 0.1 0 0.1 0 0.2 -0.1 0.1-0.1 0.1-0.2 0.1 -0.1 0.1-0.1 0.3-0.1 0.4 -0.2 0.1 0 0.2 0 0.3 0 0 0 0.1 0 0.2 0 0.1 0 0.3 0.1 0.4 0.1 0.2 0.3 0.4 0.4 0.5 0.2 0.1 0.4 0.6 0.6 0.6 0.2 0 0.4-0.1 0.5-0.1 0.2 0 0.4 0 0.6-0.1 0.2-0.1 0.1-0.3 0.3-0.5 0.1-0.1 0.3 0 0.4-0.1 0.2-0.1 0.3-0.3 0.4-0.5 0-0.1 0-0.1 0-0.2 0-0.1 0.1-0.2 0.1-0.3 0-0.1-0.1-0.1-0.1-0.2 0-0.1 0-0.2 0-0.3 0-0.2 0-0.4-0.1-0.5 -0.4-0.7-1.2-0.9-2-0.8 -0.2 0-0.3 0.1-0.4 0.2 -0.2 0.1-0.1 0.2-0.3 0.2 -0.1 0-0.2 0.1-0.2 0.2C69.4-41.1 69.4-41.1 69.4-41 69.4-41 69.4-41 69.4-41"/><path class="st2" d="M61.8-41c0 0.1 0 0.1 0 0.2 -0.1 0.1-0.1 0.1-0.2 0.1 -0.1 0.1-0.1 0.3-0.1 0.4 -0.2 0.1 0 0.2 0 0.3 0 0 0 0.1 0 0.2 0 0.1 0 0.3 0.1 0.4 0.1 0.2 0.3 0.4 0.4 0.5 0.2 0.1 0.4 0.6 0.6 0.6 0.2 0 0.4-0.1 0.5-0.1 0.2 0 0.4 0 0.6-0.1 0.2-0.1 0.1-0.3 0.3-0.5 0.1-0.1 0.3 0 0.4-0.1 0.2-0.1 0.3-0.3 0.4-0.5 0-0.1 0-0.1 0-0.2 0-0.1 0.1-0.2 0.1-0.3 0-0.1-0.1-0.1-0.1-0.2 0-0.1 0-0.2 0-0.3 0-0.2 0-0.4-0.1-0.5 -0.4-0.7-1.2-0.9-2-0.8 -0.2 0-0.3 0.1-0.4 0.2 -0.2 0.1-0.1 0.2-0.3 0.2 -0.1 0-0.2 0.1-0.2 0.2C61.8-41.1 61.8-41.1 61.8-41 61.8-41 61.8-41 61.8-41"/><path class="st2" d="M54.1-41c0 0.1 0 0.1 0 0.2 -0.1 0.1-0.1 0.1-0.2 0.1 -0.1 0.1-0.1 0.3-0.1 0.4 -0.2 0.1 0 0.2 0 0.3 0 0 0 0.1 0 0.2 0 0.1 0 0.3 0.1 0.4 0.1 0.2 0.3 0.4 0.4 0.5 0.2 0.1 0.4 0.6 0.6 0.6 0.2 0 0.4-0.1 0.5-0.1 0.2 0 0.4 0 0.6-0.1 0.2-0.1 0.1-0.3 0.3-0.5 0.1-0.1 0.3 0 0.4-0.1 0.2-0.1 0.3-0.3 0.4-0.5 0-0.1 0-0.1 0-0.2 0-0.1 0.1-0.2 0.1-0.3 0-0.1-0.1-0.1-0.1-0.2 0-0.1 0-0.2 0-0.3 0-0.2 0-0.4-0.1-0.5 -0.4-0.7-1.2-0.9-2-0.8 -0.2 0-0.3 0.1-0.4 0.2 -0.2 0.1-0.1 0.2-0.3 0.2 -0.1 0-0.2 0.1-0.2 0.2C54.1-41.1 54.1-41.1 54.1-41 54.1-41 54.1-41 54.1-41"/><path class="st2" d="M46.5-41c0 0.1 0 0.1 0 0.2 -0.1 0.1-0.1 0.1-0.2 0.1 -0.1 0.1-0.1 0.3-0.1 0.4 -0.2 0.1 0 0.2 0 0.3 0 0 0 0.1 0 0.2 0 0.1 0 0.3 0.1 0.4 0.1 0.2 0.3 0.4 0.4 0.5 0.2 0.1 0.4 0.6 0.6 0.6 0.2 0 0.4-0.1 0.5-0.1 0.2 0 0.4 0 0.6-0.1 0.2-0.1 0.1-0.3 0.3-0.5 0.1-0.1 0.3 0 0.4-0.1 0.2-0.1 0.3-0.3 0.4-0.5 0-0.1 0-0.1 0-0.2 0-0.1 0.1-0.2 0.1-0.3 0-0.1-0.1-0.1-0.1-0.2 0-0.1 0-0.2 0-0.3 0-0.2 0-0.4-0.1-0.5 -0.4-0.7-1.2-0.9-2-0.8 -0.2 0-0.3 0.1-0.4 0.2 -0.2 0.1-0.1 0.2-0.3 0.2 -0.1 0-0.2 0.1-0.2 0.2C46.5-41.1 46.5-41.1 46.5-41 46.5-41 46.5-41 46.5-41"/><path class="st2" d="M38.8-41c0 0.1 0 0.1 0 0.2 -0.1 0.1-0.1 0.1-0.2 0.1 -0.1 0.1-0.1 0.3-0.1 0.4 -0.2 0.1 0 0.2 0 0.3 0 0 0 0.1 0 0.2 0 0.1 0 0.3 0.1 0.4 0.1 0.2 0.3 0.4 0.4 0.5 0.2 0.1 0.4 0.6 0.6 0.6 0.2 0 0.4-0.1 0.5-0.1 0.2 0 0.4 0 0.6-0.1 0.2-0.1 0.1-0.3 0.3-0.5 0.1-0.1 0.3 0 0.4-0.1 0.2-0.1 0.3-0.3 0.4-0.5 0-0.1 0-0.1 0-0.2 0-0.1 0.1-0.2 0.1-0.3 0-0.1-0.1-0.1-0.1-0.2 0-0.1 0-0.2 0-0.3 0-0.2 0-0.4-0.1-0.5 -0.4-0.7-1.2-0.9-2-0.8 -0.2 0-0.3 0.1-0.4 0.2 -0.2 0.1-0.1 0.2-0.3 0.2 -0.1 0-0.2 0.1-0.2 0.2C38.8-41.1 38.8-41.1 38.8-41 38.8-41 38.8-41 38.8-41"/><path class="st2" d="M31.1-41c0 0.1 0 0.1 0 0.2 -0.1 0.1-0.1 0.1-0.2 0.1 -0.1 0.1-0.1 0.3-0.1 0.4 -0.2 0.1 0 0.2 0 0.3 0 0 0 0.1 0 0.2 0 0.1 0 0.3 0.1 0.4 0.1 0.2 0.3 0.4 0.4 0.5 0.2 0.1 0.4 0.6 0.6 0.6 0.2 0 0.4-0.1 0.5-0.1 0.2 0 0.4 0 0.6-0.1 0.2-0.1 0.1-0.3 0.3-0.5 0.1-0.1 0.3 0 0.4-0.1 0.2-0.1 0.3-0.3 0.4-0.5 0-0.1 0-0.1 0-0.2 0-0.1 0.1-0.2 0.1-0.3 0-0.1-0.1-0.1-0.1-0.2 0-0.1 0-0.2 0-0.3 0-0.2 0-0.4-0.1-0.5 -0.4-0.7-1.2-0.9-2-0.8 -0.2 0-0.3 0.1-0.4 0.2 -0.2 0.1-0.1 0.2-0.3 0.2 -0.1 0-0.2 0.1-0.2 0.2C31.1-41.1 31.1-41.1 31.1-41 31.1-41 31.1-41 31.1-41"/><path class="st2" d="M23.5-41c0 0.1 0 0.1 0 0.2 -0.1 0.1-0.1 0.1-0.2 0.1 -0.1 0.1-0.1 0.3-0.1 0.4 -0.2 0.1 0 0.2 0 0.3 0 0 0 0.1 0 0.2 0 0.1 0 0.3 0.1 0.4 0.1 0.2 0.3 0.4 0.4 0.5 0.2 0.1 0.4 0.6 0.6 0.6 0.2 0 0.4-0.1 0.5-0.1 0.2 0 0.4 0 0.6-0.1 0.2-0.1 0.1-0.3 0.3-0.5 0.1-0.1 0.3 0 0.4-0.1 0.2-0.1 0.3-0.3 0.4-0.5 0-0.1 0-0.1 0-0.2 0-0.1 0.1-0.2 0.1-0.3 0-0.1-0.1-0.1-0.1-0.2 0-0.1 0-0.2 0-0.3 0-0.2 0-0.4-0.1-0.5 -0.4-0.7-1.2-0.9-2-0.8 -0.2 0-0.3 0.1-0.4 0.2 -0.2 0.1-0.1 0.2-0.3 0.2 -0.1 0-0.2 0.1-0.2 0.2C23.5-41.1 23.5-41.1 23.5-41 23.5-41 23.5-41 23.5-41"/><path class="st2" d="M15.8-41c0 0.1 0 0.1 0 0.2 -0.1 0.1-0.1 0.1-0.2 0.1 -0.1 0.1-0.1 0.3-0.1 0.4 -0.2 0.1 0 0.2 0 0.3 0 0 0 0.1 0 0.2 0 0.1 0 0.3 0.1 0.4 0.1 0.2 0.3 0.4 0.4 0.5 0.2 0.1 0.4 0.6 0.6 0.6 0.2 0 0.4-0.1 0.5-0.1 0.2 0 0.4 0 0.6-0.1 0.2-0.1 0.1-0.3 0.3-0.5 0.1-0.1 0.3 0 0.4-0.1 0.2-0.1 0.3-0.3 0.4-0.5 0-0.1 0-0.1 0-0.2 0-0.1 0.1-0.2 0.1-0.3 0-0.1-0.1-0.1-0.1-0.2 0-0.1 0-0.2 0-0.3 0-0.2 0-0.4-0.1-0.5 -0.4-0.7-1.2-0.9-2-0.8 -0.2 0-0.3 0.1-0.4 0.2 -0.2 0.1-0.1 0.2-0.3 0.2 -0.1 0-0.2 0.1-0.2 0.2C15.8-41.1 15.8-41.1 15.8-41 15.8-41 15.8-41 15.8-41"/><path class="st2" d="M8.2-41c0 0.1 0 0.1 0 0.2C8.1-40.8 8-40.8 8-40.7c-0.1 0.1-0.1 0.3-0.1 0.4 -0.2 0.1 0 0.2 0 0.3 0 0 0 0.1 0 0.2 0 0.1 0 0.3 0.1 0.4 0.1 0.2 0.3 0.4 0.4 0.5 0.2 0.1 0.4 0.6 0.6 0.6 0.2 0 0.4-0.1 0.5-0.1 0.2 0 0.4 0 0.6-0.1 0.2-0.1 0.1-0.3 0.3-0.5 0.1-0.1 0.3 0 0.4-0.1 0.2-0.1 0.3-0.3 0.4-0.5 0-0.1 0-0.1 0-0.2 0-0.1 0.1-0.2 0.1-0.3 0-0.1-0.1-0.1-0.1-0.2 0-0.1 0-0.2 0-0.3 0-0.2 0-0.4-0.1-0.5 -0.4-0.7-1.2-0.9-2-0.8 -0.2 0-0.3 0.1-0.4 0.2 -0.2 0.1-0.1 0.2-0.3 0.2 -0.1 0-0.2 0.1-0.2 0.2C8.2-41.1 8.2-41.1 8.2-41 8.1-41 8.1-41 8.2-41"/><path class="st2" d="M0.5-41c0 0.1 0 0.1 0 0.2 -0.1 0.1-0.1 0.1-0.2 0.1 -0.1 0.1-0.1 0.3-0.1 0.4 -0.2 0.1 0 0.2 0 0.3 0 0 0 0.1 0 0.2 0 0.1 0 0.3 0.1 0.4 0.1 0.2 0.3 0.4 0.4 0.5 0.2 0.1 0.4 0.6 0.6 0.6 0.2 0 0.4-0.1 0.5-0.1 0.2 0 0.4 0 0.6-0.1 0.2-0.1 0.1-0.3 0.3-0.5C2.8-39 3-39 3.1-39c0.2-0.1 0.3-0.3 0.4-0.5 0-0.1 0-0.1 0-0.2 0-0.1 0.1-0.2 0.1-0.3 0-0.1-0.1-0.1-0.1-0.2 0-0.1 0-0.2 0-0.3 0-0.2 0-0.4-0.1-0.5 -0.4-0.7-1.2-0.9-2-0.8 -0.2 0-0.3 0.1-0.4 0.2 -0.2 0.1-0.1 0.2-0.3 0.2 -0.1 0-0.2 0.1-0.2 0.2C0.5-41.1 0.5-41.1 0.5-41 0.5-41 0.5-41 0.5-41"/><path class="st2" d="M69.4-33.4c0 0.1 0 0.1 0 0.2 -0.1 0.1-0.1 0.1-0.2 0.1 -0.1 0.1-0.1 0.3-0.1 0.4 -0.2 0.1 0 0.2 0 0.3 0 0 0 0.1 0 0.2 0 0.1 0 0.3 0.1 0.4 0.1 0.2 0.3 0.4 0.4 0.5 0.2 0.1 0.4 0.6 0.6 0.6 0.2 0 0.4-0.1 0.5-0.1 0.2 0 0.4 0 0.6-0.1 0.2-0.1 0.1-0.3 0.3-0.5 0.1-0.1 0.3 0 0.4-0.1 0.2-0.1 0.3-0.3 0.4-0.5 0-0.1 0-0.1 0-0.2 0-0.1 0.1-0.2 0.1-0.3 0-0.1-0.1-0.1-0.1-0.2 0-0.1 0-0.2 0-0.3 0-0.2 0-0.4-0.1-0.5 -0.4-0.7-1.2-0.9-2-0.8 -0.2 0-0.3 0.1-0.4 0.2 -0.2 0.1-0.1 0.2-0.3 0.2 -0.1 0-0.2 0.1-0.2 0.2C69.4-33.4 69.4-33.5 69.4-33.4 69.4-33.4 69.4-33.4 69.4-33.4"/><path class="st2" d="M61.8-33.4c0 0.1 0 0.1 0 0.2 -0.1 0.1-0.1 0.1-0.2 0.1 -0.1 0.1-0.1 0.3-0.1 0.4 -0.2 0.1 0 0.2 0 0.3 0 0 0 0.1 0 0.2 0 0.1 0 0.3 0.1 0.4 0.1 0.2 0.3 0.4 0.4 0.5 0.2 0.1 0.4 0.6 0.6 0.6 0.2 0 0.4-0.1 0.5-0.1 0.2 0 0.4 0 0.6-0.1 0.2-0.1 0.1-0.3 0.3-0.5 0.1-0.1 0.3 0 0.4-0.1 0.2-0.1 0.3-0.3 0.4-0.5 0-0.1 0-0.1 0-0.2 0-0.1 0.1-0.2 0.1-0.3 0-0.1-0.1-0.1-0.1-0.2 0-0.1 0-0.2 0-0.3 0-0.2 0-0.4-0.1-0.5 -0.4-0.7-1.2-0.9-2-0.8 -0.2 0-0.3 0.1-0.4 0.2 -0.2 0.1-0.1 0.2-0.3 0.2 -0.1 0-0.2 0.1-0.2 0.2C61.8-33.4 61.8-33.5 61.8-33.4 61.8-33.4 61.8-33.4 61.8-33.4"/><path class="st2" d="M54.1-33.4c0 0.1 0 0.1 0 0.2 -0.1 0.1-0.1 0.1-0.2 0.1 -0.1 0.1-0.1 0.3-0.1 0.4 -0.2 0.1 0 0.2 0 0.3 0 0 0 0.1 0 0.2 0 0.1 0 0.3 0.1 0.4 0.1 0.2 0.3 0.4 0.4 0.5 0.2 0.1 0.4 0.6 0.6 0.6 0.2 0 0.4-0.1 0.5-0.1 0.2 0 0.4 0 0.6-0.1 0.2-0.1 0.1-0.3 0.3-0.5 0.1-0.1 0.3 0 0.4-0.1 0.2-0.1 0.3-0.3 0.4-0.5 0-0.1 0-0.1 0-0.2 0-0.1 0.1-0.2 0.1-0.3 0-0.1-0.1-0.1-0.1-0.2 0-0.1 0-0.2 0-0.3 0-0.2 0-0.4-0.1-0.5 -0.4-0.7-1.2-0.9-2-0.8 -0.2 0-0.3 0.1-0.4 0.2 -0.2 0.1-0.1 0.2-0.3 0.2 -0.1 0-0.2 0.1-0.2 0.2C54.1-33.4 54.1-33.5 54.1-33.4 54.1-33.4 54.1-33.4 54.1-33.4"/><path class="st2" d="M46.5-33.4c0 0.1 0 0.1 0 0.2 -0.1 0.1-0.1 0.1-0.2 0.1 -0.1 0.1-0.1 0.3-0.1 0.4 -0.2 0.1 0 0.2 0 0.3 0 0 0 0.1 0 0.2 0 0.1 0 0.3 0.1 0.4 0.1 0.2 0.3 0.4 0.4 0.5 0.2 0.1 0.4 0.6 0.6 0.6 0.2 0 0.4-0.1 0.5-0.1 0.2 0 0.4 0 0.6-0.1 0.2-0.1 0.1-0.3 0.3-0.5 0.1-0.1 0.3 0 0.4-0.1 0.2-0.1 0.3-0.3 0.4-0.5 0-0.1 0-0.1 0-0.2 0-0.1 0.1-0.2 0.1-0.3 0-0.1-0.1-0.1-0.1-0.2 0-0.1 0-0.2 0-0.3 0-0.2 0-0.4-0.1-0.5 -0.4-0.7-1.2-0.9-2-0.8 -0.2 0-0.3 0.1-0.4 0.2 -0.2 0.1-0.1 0.2-0.3 0.2 -0.1 0-0.2 0.1-0.2 0.2C46.5-33.4 46.5-33.5 46.5-33.4 46.5-33.4 46.5-33.4 46.5-33.4"/><path class="st2" d="M38.8-33.4c0 0.1 0 0.1 0 0.2 -0.1 0.1-0.1 0.1-0.2 0.1 -0.1 0.1-0.1 0.3-0.1 0.4 -0.2 0.1 0 0.2 0 0.3 0 0 0 0.1 0 0.2 0 0.1 0 0.3 0.1 0.4 0.1 0.2 0.3 0.4 0.4 0.5 0.2 0.1 0.4 0.6 0.6 0.6 0.2 0 0.4-0.1 0.5-0.1 0.2 0 0.4 0 0.6-0.1 0.2-0.1 0.1-0.3 0.3-0.5 0.1-0.1 0.3 0 0.4-0.1 0.2-0.1 0.3-0.3 0.4-0.5 0-0.1 0-0.1 0-0.2 0-0.1 0.1-0.2 0.1-0.3 0-0.1-0.1-0.1-0.1-0.2 0-0.1 0-0.2 0-0.3 0-0.2 0-0.4-0.1-0.5 -0.4-0.7-1.2-0.9-2-0.8 -0.2 0-0.3 0.1-0.4 0.2 -0.2 0.1-0.1 0.2-0.3 0.2 -0.1 0-0.2 0.1-0.2 0.2C38.8-33.4 38.8-33.5 38.8-33.4 38.8-33.4 38.8-33.4 38.8-33.4"/><path class="st2" d="M31.1-33.4c0 0.1 0 0.1 0 0.2 -0.1 0.1-0.1 0.1-0.2 0.1 -0.1 0.1-0.1 0.3-0.1 0.4 -0.2 0.1 0 0.2 0 0.3 0 0 0 0.1 0 0.2 0 0.1 0 0.3 0.1 0.4 0.1 0.2 0.3 0.4 0.4 0.5 0.2 0.1 0.4 0.6 0.6 0.6 0.2 0 0.4-0.1 0.5-0.1 0.2 0 0.4 0 0.6-0.1 0.2-0.1 0.1-0.3 0.3-0.5 0.1-0.1 0.3 0 0.4-0.1 0.2-0.1 0.3-0.3 0.4-0.5 0-0.1 0-0.1 0-0.2 0-0.1 0.1-0.2 0.1-0.3 0-0.1-0.1-0.1-0.1-0.2 0-0.1 0-0.2 0-0.3 0-0.2 0-0.4-0.1-0.5 -0.4-0.7-1.2-0.9-2-0.8 -0.2 0-0.3 0.1-0.4 0.2 -0.2 0.1-0.1 0.2-0.3 0.2 -0.1 0-0.2 0.1-0.2 0.2C31.1-33.4 31.1-33.5 31.1-33.4 31.1-33.4 31.1-33.4 31.1-33.4"/><path class="st2" d="M23.5-33.4c0 0.1 0 0.1 0 0.2 -0.1 0.1-0.1 0.1-0.2 0.1 -0.1 0.1-0.1 0.3-0.1 0.4 -0.2 0.1 0 0.2 0 0.3 0 0 0 0.1 0 0.2 0 0.1 0 0.3 0.1 0.4 0.1 0.2 0.3 0.4 0.4 0.5 0.2 0.1 0.4 0.6 0.6 0.6 0.2 0 0.4-0.1 0.5-0.1 0.2 0 0.4 0 0.6-0.1 0.2-0.1 0.1-0.3 0.3-0.5 0.1-0.1 0.3 0 0.4-0.1 0.2-0.1 0.3-0.3 0.4-0.5 0-0.1 0-0.1 0-0.2 0-0.1 0.1-0.2 0.1-0.3 0-0.1-0.1-0.1-0.1-0.2 0-0.1 0-0.2 0-0.3 0-0.2 0-0.4-0.1-0.5 -0.4-0.7-1.2-0.9-2-0.8 -0.2 0-0.3 0.1-0.4 0.2 -0.2 0.1-0.1 0.2-0.3 0.2 -0.1 0-0.2 0.1-0.2 0.2C23.5-33.4 23.5-33.5 23.5-33.4 23.5-33.4 23.5-33.4 23.5-33.4"/><path class="st2" d="M15.8-33.4c0 0.1 0 0.1 0 0.2 -0.1 0.1-0.1 0.1-0.2 0.1 -0.1 0.1-0.1 0.3-0.1 0.4 -0.2 0.1 0 0.2 0 0.3 0 0 0 0.1 0 0.2 0 0.1 0 0.3 0.1 0.4 0.1 0.2 0.3 0.4 0.4 0.5 0.2 0.1 0.4 0.6 0.6 0.6 0.2 0 0.4-0.1 0.5-0.1 0.2 0 0.4 0 0.6-0.1 0.2-0.1 0.1-0.3 0.3-0.5 0.1-0.1 0.3 0 0.4-0.1 0.2-0.1 0.3-0.3 0.4-0.5 0-0.1 0-0.1 0-0.2 0-0.1 0.1-0.2 0.1-0.3 0-0.1-0.1-0.1-0.1-0.2 0-0.1 0-0.2 0-0.3 0-0.2 0-0.4-0.1-0.5 -0.4-0.7-1.2-0.9-2-0.8 -0.2 0-0.3 0.1-0.4 0.2 -0.2 0.1-0.1 0.2-0.3 0.2 -0.1 0-0.2 0.1-0.2 0.2C15.8-33.4 15.8-33.5 15.8-33.4 15.8-33.4 15.8-33.4 15.8-33.4"/><path class="st2" d="M8.2-33.4c0 0.1 0 0.1 0 0.2C8.1-33.1 8-33.1 8-33.1c-0.1 0.1-0.1 0.3-0.1 0.4 -0.2 0.1 0 0.2 0 0.3 0 0 0 0.1 0 0.2 0 0.1 0 0.3 0.1 0.4 0.1 0.2 0.3 0.4 0.4 0.5 0.2 0.1 0.4 0.6 0.6 0.6 0.2 0 0.4-0.1 0.5-0.1 0.2 0 0.4 0 0.6-0.1 0.2-0.1 0.1-0.3 0.3-0.5 0.1-0.1 0.3 0 0.4-0.1 0.2-0.1 0.3-0.3 0.4-0.5 0-0.1 0-0.1 0-0.2 0-0.1 0.1-0.2 0.1-0.3 0-0.1-0.1-0.1-0.1-0.2 0-0.1 0-0.2 0-0.3 0-0.2 0-0.4-0.1-0.5 -0.4-0.7-1.2-0.9-2-0.8 -0.2 0-0.3 0.1-0.4 0.2 -0.2 0.1-0.1 0.2-0.3 0.2 -0.1 0-0.2 0.1-0.2 0.2C8.2-33.4 8.2-33.5 8.2-33.4 8.1-33.4 8.1-33.4 8.2-33.4"/><path class="st2" d="M0.5-33.4c0 0.1 0 0.1 0 0.2 -0.1 0.1-0.1 0.1-0.2 0.1 -0.1 0.1-0.1 0.3-0.1 0.4 -0.2 0.1 0 0.2 0 0.3 0 0 0 0.1 0 0.2 0 0.1 0 0.3 0.1 0.4 0.1 0.2 0.3 0.4 0.4 0.5 0.2 0.1 0.4 0.6 0.6 0.6 0.2 0 0.4-0.1 0.5-0.1 0.2 0 0.4 0 0.6-0.1 0.2-0.1 0.1-0.3 0.3-0.5 0.1-0.1 0.3 0 0.4-0.1 0.2-0.1 0.3-0.3 0.4-0.5 0-0.1 0-0.1 0-0.2 0-0.1 0.1-0.2 0.1-0.3 0-0.1-0.1-0.1-0.1-0.2 0-0.1 0-0.2 0-0.3 0-0.2 0-0.4-0.1-0.5 -0.4-0.7-1.2-0.9-2-0.8 -0.2 0-0.3 0.1-0.4 0.2 -0.2 0.1-0.1 0.2-0.3 0.2 -0.1 0-0.2 0.1-0.2 0.2C0.5-33.4 0.5-33.5 0.5-33.4 0.5-33.4 0.5-33.4 0.5-33.4"/><path class="st2" d="M69.4-25.7c0 0.1 0 0.1 0 0.2 -0.1 0.1-0.1 0.1-0.2 0.1 -0.1 0.1-0.1 0.3-0.1 0.4 -0.2 0.1 0 0.2 0 0.3 0 0 0 0.1 0 0.2 0 0.1 0 0.3 0.1 0.4 0.1 0.2 0.3 0.4 0.4 0.5 0.2 0.1 0.4 0.6 0.6 0.6 0.2 0 0.4-0.1 0.5-0.1 0.2 0 0.4 0 0.6-0.1 0.2-0.1 0.1-0.3 0.3-0.5 0.1-0.1 0.3 0 0.4-0.1 0.2-0.1 0.3-0.3 0.4-0.5 0-0.1 0-0.1 0-0.2 0-0.1 0.1-0.2 0.1-0.3 0-0.1-0.1-0.1-0.1-0.2 0-0.1 0-0.2 0-0.3 0-0.2 0-0.4-0.1-0.5 -0.4-0.7-1.2-0.9-2-0.8 -0.2 0-0.3 0.1-0.4 0.2 -0.2 0.1-0.1 0.2-0.3 0.2 -0.1 0-0.2 0.1-0.2 0.2C69.4-25.8 69.4-25.8 69.4-25.7 69.4-25.7 69.4-25.7 69.4-25.7"/><path class="st2" d="M61.8-25.7c0 0.1 0 0.1 0 0.2 -0.1 0.1-0.1 0.1-0.2 0.1 -0.1 0.1-0.1 0.3-0.1 0.4 -0.2 0.1 0 0.2 0 0.3 0 0 0 0.1 0 0.2 0 0.1 0 0.3 0.1 0.4 0.1 0.2 0.3 0.4 0.4 0.5 0.2 0.1 0.4 0.6 0.6 0.6 0.2 0 0.4-0.1 0.5-0.1 0.2 0 0.4 0 0.6-0.1 0.2-0.1 0.1-0.3 0.3-0.5 0.1-0.1 0.3 0 0.4-0.1 0.2-0.1 0.3-0.3 0.4-0.5 0-0.1 0-0.1 0-0.2 0-0.1 0.1-0.2 0.1-0.3 0-0.1-0.1-0.1-0.1-0.2 0-0.1 0-0.2 0-0.3 0-0.2 0-0.4-0.1-0.5 -0.4-0.7-1.2-0.9-2-0.8 -0.2 0-0.3 0.1-0.4 0.2 -0.2 0.1-0.1 0.2-0.3 0.2 -0.1 0-0.2 0.1-0.2 0.2C61.8-25.8 61.8-25.8 61.8-25.7 61.8-25.7 61.8-25.7 61.8-25.7"/><path class="st2" d="M54.1-25.7c0 0.1 0 0.1 0 0.2 -0.1 0.1-0.1 0.1-0.2 0.1 -0.1 0.1-0.1 0.3-0.1 0.4 -0.2 0.1 0 0.2 0 0.3 0 0 0 0.1 0 0.2 0 0.1 0 0.3 0.1 0.4 0.1 0.2 0.3 0.4 0.4 0.5 0.2 0.1 0.4 0.6 0.6 0.6 0.2 0 0.4-0.1 0.5-0.1 0.2 0 0.4 0 0.6-0.1 0.2-0.1 0.1-0.3 0.3-0.5 0.1-0.1 0.3 0 0.4-0.1 0.2-0.1 0.3-0.3 0.4-0.5 0-0.1 0-0.1 0-0.2 0-0.1 0.1-0.2 0.1-0.3 0-0.1-0.1-0.1-0.1-0.2 0-0.1 0-0.2 0-0.3 0-0.2 0-0.4-0.1-0.5 -0.4-0.7-1.2-0.9-2-0.8 -0.2 0-0.3 0.1-0.4 0.2 -0.2 0.1-0.1 0.2-0.3 0.2 -0.1 0-0.2 0.1-0.2 0.2C54.1-25.8 54.1-25.8 54.1-25.7 54.1-25.7 54.1-25.7 54.1-25.7"/><path class="st2" d="M46.5-25.7c0 0.1 0 0.1 0 0.2 -0.1 0.1-0.1 0.1-0.2 0.1 -0.1 0.1-0.1 0.3-0.1 0.4 -0.2 0.1 0 0.2 0 0.3 0 0 0 0.1 0 0.2 0 0.1 0 0.3 0.1 0.4 0.1 0.2 0.3 0.4 0.4 0.5 0.2 0.1 0.4 0.6 0.6 0.6 0.2 0 0.4-0.1 0.5-0.1 0.2 0 0.4 0 0.6-0.1 0.2-0.1 0.1-0.3 0.3-0.5 0.1-0.1 0.3 0 0.4-0.1 0.2-0.1 0.3-0.3 0.4-0.5 0-0.1 0-0.1 0-0.2 0-0.1 0.1-0.2 0.1-0.3 0-0.1-0.1-0.1-0.1-0.2 0-0.1 0-0.2 0-0.3 0-0.2 0-0.4-0.1-0.5 -0.4-0.7-1.2-0.9-2-0.8 -0.2 0-0.3 0.1-0.4 0.2 -0.2 0.1-0.1 0.2-0.3 0.2 -0.1 0-0.2 0.1-0.2 0.2C46.5-25.8 46.5-25.8 46.5-25.7 46.5-25.7 46.5-25.7 46.5-25.7"/><path class="st2" d="M38.8-25.7c0 0.1 0 0.1 0 0.2 -0.1 0.1-0.1 0.1-0.2 0.1 -0.1 0.1-0.1 0.3-0.1 0.4 -0.2 0.1 0 0.2 0 0.3 0 0 0 0.1 0 0.2 0 0.1 0 0.3 0.1 0.4 0.1 0.2 0.3 0.4 0.4 0.5 0.2 0.1 0.4 0.6 0.6 0.6 0.2 0 0.4-0.1 0.5-0.1 0.2 0 0.4 0 0.6-0.1 0.2-0.1 0.1-0.3 0.3-0.5 0.1-0.1 0.3 0 0.4-0.1 0.2-0.1 0.3-0.3 0.4-0.5 0-0.1 0-0.1 0-0.2 0-0.1 0.1-0.2 0.1-0.3 0-0.1-0.1-0.1-0.1-0.2 0-0.1 0-0.2 0-0.3 0-0.2 0-0.4-0.1-0.5 -0.4-0.7-1.2-0.9-2-0.8 -0.2 0-0.3 0.1-0.4 0.2 -0.2 0.1-0.1 0.2-0.3 0.2 -0.1 0-0.2 0.1-0.2 0.2C38.8-25.8 38.8-25.8 38.8-25.7 38.8-25.7 38.8-25.7 38.8-25.7"/><path class="st2" d="M31.1-25.7c0 0.1 0 0.1 0 0.2 -0.1 0.1-0.1 0.1-0.2 0.1 -0.1 0.1-0.1 0.3-0.1 0.4 -0.2 0.1 0 0.2 0 0.3 0 0 0 0.1 0 0.2 0 0.1 0 0.3 0.1 0.4 0.1 0.2 0.3 0.4 0.4 0.5 0.2 0.1 0.4 0.6 0.6 0.6 0.2 0 0.4-0.1 0.5-0.1 0.2 0 0.4 0 0.6-0.1 0.2-0.1 0.1-0.3 0.3-0.5 0.1-0.1 0.3 0 0.4-0.1 0.2-0.1 0.3-0.3 0.4-0.5 0-0.1 0-0.1 0-0.2 0-0.1 0.1-0.2 0.1-0.3 0-0.1-0.1-0.1-0.1-0.2 0-0.1 0-0.2 0-0.3 0-0.2 0-0.4-0.1-0.5 -0.4-0.7-1.2-0.9-2-0.8 -0.2 0-0.3 0.1-0.4 0.2 -0.2 0.1-0.1 0.2-0.3 0.2 -0.1 0-0.2 0.1-0.2 0.2C31.1-25.8 31.1-25.8 31.1-25.7 31.1-25.7 31.1-25.7 31.1-25.7"/><path class="st2" d="M23.5-25.7c0 0.1 0 0.1 0 0.2 -0.1 0.1-0.1 0.1-0.2 0.1 -0.1 0.1-0.1 0.3-0.1 0.4 -0.2 0.1 0 0.2 0 0.3 0 0 0 0.1 0 0.2 0 0.1 0 0.3 0.1 0.4 0.1 0.2 0.3 0.4 0.4 0.5 0.2 0.1 0.4 0.6 0.6 0.6 0.2 0 0.4-0.1 0.5-0.1 0.2 0 0.4 0 0.6-0.1 0.2-0.1 0.1-0.3 0.3-0.5 0.1-0.1 0.3 0 0.4-0.1 0.2-0.1 0.3-0.3 0.4-0.5 0-0.1 0-0.1 0-0.2 0-0.1 0.1-0.2 0.1-0.3 0-0.1-0.1-0.1-0.1-0.2 0-0.1 0-0.2 0-0.3 0-0.2 0-0.4-0.1-0.5 -0.4-0.7-1.2-0.9-2-0.8 -0.2 0-0.3 0.1-0.4 0.2 -0.2 0.1-0.1 0.2-0.3 0.2 -0.1 0-0.2 0.1-0.2 0.2C23.5-25.8 23.5-25.8 23.5-25.7 23.5-25.7 23.5-25.7 23.5-25.7"/><path class="st2" d="M15.8-25.7c0 0.1 0 0.1 0 0.2 -0.1 0.1-0.1 0.1-0.2 0.1 -0.1 0.1-0.1 0.3-0.1 0.4 -0.2 0.1 0 0.2 0 0.3 0 0 0 0.1 0 0.2 0 0.1 0 0.3 0.1 0.4 0.1 0.2 0.3 0.4 0.4 0.5 0.2 0.1 0.4 0.6 0.6 0.6 0.2 0 0.4-0.1 0.5-0.1 0.2 0 0.4 0 0.6-0.1 0.2-0.1 0.1-0.3 0.3-0.5 0.1-0.1 0.3 0 0.4-0.1 0.2-0.1 0.3-0.3 0.4-0.5 0-0.1 0-0.1 0-0.2 0-0.1 0.1-0.2 0.1-0.3 0-0.1-0.1-0.1-0.1-0.2 0-0.1 0-0.2 0-0.3 0-0.2 0-0.4-0.1-0.5 -0.4-0.7-1.2-0.9-2-0.8 -0.2 0-0.3 0.1-0.4 0.2 -0.2 0.1-0.1 0.2-0.3 0.2 -0.1 0-0.2 0.1-0.2 0.2C15.8-25.8 15.8-25.8 15.8-25.7 15.8-25.7 15.8-25.7 15.8-25.7"/><path class="st2" d="M8.2-25.7c0 0.1 0 0.1 0 0.2C8.1-25.4 8-25.5 8-25.4c-0.1 0.1-0.1 0.3-0.1 0.4 -0.2 0.1 0 0.2 0 0.3 0 0 0 0.1 0 0.2 0 0.1 0 0.3 0.1 0.4C8-24 8.2-23.8 8.3-23.6c0.2 0.1 0.4 0.6 0.6 0.6 0.2 0 0.4-0.1 0.5-0.1 0.2 0 0.4 0 0.6-0.1 0.2-0.1 0.1-0.3 0.3-0.5 0.1-0.1 0.3 0 0.4-0.1 0.2-0.1 0.3-0.3 0.4-0.5 0-0.1 0-0.1 0-0.2 0-0.1 0.1-0.2 0.1-0.3 0-0.1-0.1-0.1-0.1-0.2 0-0.1 0-0.2 0-0.3 0-0.2 0-0.4-0.1-0.5 -0.4-0.7-1.2-0.9-2-0.8 -0.2 0-0.3 0.1-0.4 0.2 -0.2 0.1-0.1 0.2-0.3 0.2 -0.1 0-0.2 0.1-0.2 0.2C8.2-25.8 8.2-25.8 8.2-25.7 8.1-25.7 8.1-25.7 8.2-25.7"/><path class="st2" d="M0.5-25.7c0 0.1 0 0.1 0 0.2 -0.1 0.1-0.1 0.1-0.2 0.1 -0.1 0.1-0.1 0.3-0.1 0.4 -0.2 0.1 0 0.2 0 0.3 0 0 0 0.1 0 0.2 0 0.1 0 0.3 0.1 0.4 0.1 0.2 0.3 0.4 0.4 0.5C0.9-23.5 1-23.1 1.3-23c0.2 0 0.4-0.1 0.5-0.1 0.2 0 0.4 0 0.6-0.1 0.2-0.1 0.1-0.3 0.3-0.5 0.1-0.1 0.3 0 0.4-0.1 0.2-0.1 0.3-0.3 0.4-0.5 0-0.1 0-0.1 0-0.2 0-0.1 0.1-0.2 0.1-0.3 0-0.1-0.1-0.1-0.1-0.2 0-0.1 0-0.2 0-0.3 0-0.2 0-0.4-0.1-0.5 -0.4-0.7-1.2-0.9-2-0.8 -0.2 0-0.3 0.1-0.4 0.2 -0.2 0.1-0.1 0.2-0.3 0.2 -0.1 0-0.2 0.1-0.2 0.2C0.5-25.8 0.5-25.8 0.5-25.7 0.5-25.7 0.5-25.7 0.5-25.7"/><path class="st2" d="M69.4-18.1c0 0.1 0 0.1 0 0.2 -0.1 0.1-0.1 0.1-0.2 0.1 -0.1 0.1-0.1 0.3-0.1 0.4 -0.2 0.1 0 0.2 0 0.3 0 0 0 0.1 0 0.2 0 0.1 0 0.3 0.1 0.4 0.1 0.2 0.3 0.4 0.4 0.5 0.2 0.1 0.4 0.6 0.6 0.6 0.2 0 0.4-0.1 0.5-0.1 0.2 0 0.4 0 0.6-0.1 0.2-0.1 0.1-0.3 0.3-0.5 0.1-0.1 0.3 0 0.4-0.1 0.2-0.1 0.3-0.3 0.4-0.5 0-0.1 0-0.1 0-0.2 0-0.1 0.1-0.2 0.1-0.3 0-0.1-0.1-0.1-0.1-0.2 0-0.1 0-0.2 0-0.3 0-0.2 0-0.4-0.1-0.5 -0.4-0.7-1.2-0.9-2-0.8 -0.2 0-0.3 0.1-0.4 0.2 -0.2 0.1-0.1 0.2-0.3 0.2 -0.1 0-0.2 0.1-0.2 0.2C69.4-18.1 69.4-18.2 69.4-18.1 69.4-18 69.4-18.1 69.4-18.1"/><path class="st2" d="M61.8-18.1c0 0.1 0 0.1 0 0.2 -0.1 0.1-0.1 0.1-0.2 0.1 -0.1 0.1-0.1 0.3-0.1 0.4 -0.2 0.1 0 0.2 0 0.3 0 0 0 0.1 0 0.2 0 0.1 0 0.3 0.1 0.4 0.1 0.2 0.3 0.4 0.4 0.5 0.2 0.1 0.4 0.6 0.6 0.6 0.2 0 0.4-0.1 0.5-0.1 0.2 0 0.4 0 0.6-0.1 0.2-0.1 0.1-0.3 0.3-0.5 0.1-0.1 0.3 0 0.4-0.1 0.2-0.1 0.3-0.3 0.4-0.5 0-0.1 0-0.1 0-0.2 0-0.1 0.1-0.2 0.1-0.3 0-0.1-0.1-0.1-0.1-0.2 0-0.1 0-0.2 0-0.3 0-0.2 0-0.4-0.1-0.5 -0.4-0.7-1.2-0.9-2-0.8 -0.2 0-0.3 0.1-0.4 0.2 -0.2 0.1-0.1 0.2-0.3 0.2 -0.1 0-0.2 0.1-0.2 0.2C61.8-18.1 61.8-18.2 61.8-18.1 61.8-18 61.8-18.1 61.8-18.1"/><path class="st2" d="M54.1-18.1c0 0.1 0 0.1 0 0.2 -0.1 0.1-0.1 0.1-0.2 0.1 -0.1 0.1-0.1 0.3-0.1 0.4 -0.2 0.1 0 0.2 0 0.3 0 0 0 0.1 0 0.2 0 0.1 0 0.3 0.1 0.4 0.1 0.2 0.3 0.4 0.4 0.5 0.2 0.1 0.4 0.6 0.6 0.6 0.2 0 0.4-0.1 0.5-0.1 0.2 0 0.4 0 0.6-0.1 0.2-0.1 0.1-0.3 0.3-0.5 0.1-0.1 0.3 0 0.4-0.1 0.2-0.1 0.3-0.3 0.4-0.5 0-0.1 0-0.1 0-0.2 0-0.1 0.1-0.2 0.1-0.3 0-0.1-0.1-0.1-0.1-0.2 0-0.1 0-0.2 0-0.3 0-0.2 0-0.4-0.1-0.5 -0.4-0.7-1.2-0.9-2-0.8 -0.2 0-0.3 0.1-0.4 0.2 -0.2 0.1-0.1 0.2-0.3 0.2 -0.1 0-0.2 0.1-0.2 0.2C54.1-18.1 54.1-18.2 54.1-18.1 54.1-18 54.1-18.1 54.1-18.1"/><path class="st2" d="M46.5-18.1c0 0.1 0 0.1 0 0.2 -0.1 0.1-0.1 0.1-0.2 0.1 -0.1 0.1-0.1 0.3-0.1 0.4 -0.2 0.1 0 0.2 0 0.3 0 0 0 0.1 0 0.2 0 0.1 0 0.3 0.1 0.4 0.1 0.2 0.3 0.4 0.4 0.5 0.2 0.1 0.4 0.6 0.6 0.6 0.2 0 0.4-0.1 0.5-0.1 0.2 0 0.4 0 0.6-0.1 0.2-0.1 0.1-0.3 0.3-0.5 0.1-0.1 0.3 0 0.4-0.1 0.2-0.1 0.3-0.3 0.4-0.5 0-0.1 0-0.1 0-0.2 0-0.1 0.1-0.2 0.1-0.3 0-0.1-0.1-0.1-0.1-0.2 0-0.1 0-0.2 0-0.3 0-0.2 0-0.4-0.1-0.5 -0.4-0.7-1.2-0.9-2-0.8 -0.2 0-0.3 0.1-0.4 0.2 -0.2 0.1-0.1 0.2-0.3 0.2 -0.1 0-0.2 0.1-0.2 0.2C46.5-18.1 46.5-18.2 46.5-18.1 46.5-18 46.5-18.1 46.5-18.1"/><path class="st2" d="M38.8-18.1c0 0.1 0 0.1 0 0.2 -0.1 0.1-0.1 0.1-0.2 0.1 -0.1 0.1-0.1 0.3-0.1 0.4 -0.2 0.1 0 0.2 0 0.3 0 0 0 0.1 0 0.2 0 0.1 0 0.3 0.1 0.4 0.1 0.2 0.3 0.4 0.4 0.5 0.2 0.1 0.4 0.6 0.6 0.6 0.2 0 0.4-0.1 0.5-0.1 0.2 0 0.4 0 0.6-0.1 0.2-0.1 0.1-0.3 0.3-0.5 0.1-0.1 0.3 0 0.4-0.1 0.2-0.1 0.3-0.3 0.4-0.5 0-0.1 0-0.1 0-0.2 0-0.1 0.1-0.2 0.1-0.3 0-0.1-0.1-0.1-0.1-0.2 0-0.1 0-0.2 0-0.3 0-0.2 0-0.4-0.1-0.5 -0.4-0.7-1.2-0.9-2-0.8 -0.2 0-0.3 0.1-0.4 0.2 -0.2 0.1-0.1 0.2-0.3 0.2 -0.1 0-0.2 0.1-0.2 0.2C38.8-18.1 38.8-18.2 38.8-18.1 38.8-18 38.8-18.1 38.8-18.1"/><path class="st2" d="M31.1-18.1c0 0.1 0 0.1 0 0.2 -0.1 0.1-0.1 0.1-0.2 0.1 -0.1 0.1-0.1 0.3-0.1 0.4 -0.2 0.1 0 0.2 0 0.3 0 0 0 0.1 0 0.2 0 0.1 0 0.3 0.1 0.4 0.1 0.2 0.3 0.4 0.4 0.5 0.2 0.1 0.4 0.6 0.6 0.6 0.2 0 0.4-0.1 0.5-0.1 0.2 0 0.4 0 0.6-0.1 0.2-0.1 0.1-0.3 0.3-0.5 0.1-0.1 0.3 0 0.4-0.1 0.2-0.1 0.3-0.3 0.4-0.5 0-0.1 0-0.1 0-0.2 0-0.1 0.1-0.2 0.1-0.3 0-0.1-0.1-0.1-0.1-0.2 0-0.1 0-0.2 0-0.3 0-0.2 0-0.4-0.1-0.5 -0.4-0.7-1.2-0.9-2-0.8 -0.2 0-0.3 0.1-0.4 0.2 -0.2 0.1-0.1 0.2-0.3 0.2 -0.1 0-0.2 0.1-0.2 0.2C31.1-18.1 31.1-18.2 31.1-18.1 31.1-18 31.1-18.1 31.1-18.1"/><path class="st2" d="M23.5-18.1c0 0.1 0 0.1 0 0.2 -0.1 0.1-0.1 0.1-0.2 0.1 -0.1 0.1-0.1 0.3-0.1 0.4 -0.2 0.1 0 0.2 0 0.3 0 0 0 0.1 0 0.2 0 0.1 0 0.3 0.1 0.4 0.1 0.2 0.3 0.4 0.4 0.5 0.2 0.1 0.4 0.6 0.6 0.6 0.2 0 0.4-0.1 0.5-0.1 0.2 0 0.4 0 0.6-0.1 0.2-0.1 0.1-0.3 0.3-0.5 0.1-0.1 0.3 0 0.4-0.1 0.2-0.1 0.3-0.3 0.4-0.5 0-0.1 0-0.1 0-0.2 0-0.1 0.1-0.2 0.1-0.3 0-0.1-0.1-0.1-0.1-0.2 0-0.1 0-0.2 0-0.3 0-0.2 0-0.4-0.1-0.5 -0.4-0.7-1.2-0.9-2-0.8 -0.2 0-0.3 0.1-0.4 0.2 -0.2 0.1-0.1 0.2-0.3 0.2 -0.1 0-0.2 0.1-0.2 0.2C23.5-18.1 23.5-18.2 23.5-18.1 23.5-18 23.5-18.1 23.5-18.1"/><path class="st2" d="M15.8-18.1c0 0.1 0 0.1 0 0.2 -0.1 0.1-0.1 0.1-0.2 0.1 -0.1 0.1-0.1 0.3-0.1 0.4 -0.2 0.1 0 0.2 0 0.3 0 0 0 0.1 0 0.2 0 0.1 0 0.3 0.1 0.4 0.1 0.2 0.3 0.4 0.4 0.5 0.2 0.1 0.4 0.6 0.6 0.6 0.2 0 0.4-0.1 0.5-0.1 0.2 0 0.4 0 0.6-0.1 0.2-0.1 0.1-0.3 0.3-0.5 0.1-0.1 0.3 0 0.4-0.1 0.2-0.1 0.3-0.3 0.4-0.5 0-0.1 0-0.1 0-0.2 0-0.1 0.1-0.2 0.1-0.3 0-0.1-0.1-0.1-0.1-0.2 0-0.1 0-0.2 0-0.3 0-0.2 0-0.4-0.1-0.5 -0.4-0.7-1.2-0.9-2-0.8 -0.2 0-0.3 0.1-0.4 0.2 -0.2 0.1-0.1 0.2-0.3 0.2 -0.1 0-0.2 0.1-0.2 0.2C15.8-18.1 15.8-18.2 15.8-18.1 15.8-18 15.8-18.1 15.8-18.1"/><path class="st2" d="M8.2-18.1c0 0.1 0 0.1 0 0.2C8.1-17.8 8-17.8 8-17.8c-0.1 0.1-0.1 0.3-0.1 0.4 -0.2 0.1 0 0.2 0 0.3 0 0 0 0.1 0 0.2 0 0.1 0 0.3 0.1 0.4C8-16.3 8.2-16.1 8.3-16c0.2 0.1 0.4 0.6 0.6 0.6 0.2 0 0.4-0.1 0.5-0.1 0.2 0 0.4 0 0.6-0.1 0.2-0.1 0.1-0.3 0.3-0.5 0.1-0.1 0.3 0 0.4-0.1 0.2-0.1 0.3-0.3 0.4-0.5 0-0.1 0-0.1 0-0.2 0-0.1 0.1-0.2 0.1-0.3 0-0.1-0.1-0.1-0.1-0.2 0-0.1 0-0.2 0-0.3 0-0.2 0-0.4-0.1-0.5 -0.4-0.7-1.2-0.9-2-0.8 -0.2 0-0.3 0.1-0.4 0.2 -0.2 0.1-0.1 0.2-0.3 0.2 -0.1 0-0.2 0.1-0.2 0.2C8.2-18.1 8.2-18.2 8.2-18.1 8.1-18 8.1-18.1 8.2-18.1"/><path class="st2" d="M0.5-18.1c0 0.1 0 0.1 0 0.2 -0.1 0.1-0.1 0.1-0.2 0.1 -0.1 0.1-0.1 0.3-0.1 0.4 -0.2 0.1 0 0.2 0 0.3 0 0 0 0.1 0 0.2 0 0.1 0 0.3 0.1 0.4 0.1 0.2 0.3 0.4 0.4 0.5 0.2 0.1 0.4 0.6 0.6 0.6 0.2 0 0.4-0.1 0.5-0.1 0.2 0 0.4 0 0.6-0.1 0.2-0.1 0.1-0.3 0.3-0.5C2.8-16.1 3-16 3.1-16c0.2-0.1 0.3-0.3 0.4-0.5 0-0.1 0-0.1 0-0.2 0-0.1 0.1-0.2 0.1-0.3 0-0.1-0.1-0.1-0.1-0.2 0-0.1 0-0.2 0-0.3 0-0.2 0-0.4-0.1-0.5 -0.4-0.7-1.2-0.9-2-0.8 -0.2 0-0.3 0.1-0.4 0.2 -0.2 0.1-0.1 0.2-0.3 0.2 -0.1 0-0.2 0.1-0.2 0.2C0.5-18.1 0.5-18.2 0.5-18.1 0.5-18 0.5-18.1 0.5-18.1"/><path class="st2" d="M69.4-10.4c0 0.1 0 0.1 0 0.2 -0.1 0.1-0.1 0.1-0.2 0.1 -0.1 0.1-0.1 0.3-0.1 0.4 -0.2 0.1 0 0.2 0 0.3 0 0 0 0.1 0 0.2 0 0.1 0 0.3 0.1 0.4 0.1 0.2 0.3 0.4 0.4 0.5 0.2 0.1 0.4 0.6 0.6 0.6 0.2 0 0.4-0.1 0.5-0.1 0.2 0 0.4 0 0.6-0.1 0.2-0.1 0.1-0.3 0.3-0.5 0.1-0.1 0.3 0 0.4-0.1 0.2-0.1 0.3-0.3 0.4-0.5 0-0.1 0-0.1 0-0.2 0-0.1 0.1-0.2 0.1-0.3 0-0.1-0.1-0.1-0.1-0.2 0-0.1 0-0.2 0-0.3 0-0.2 0-0.4-0.1-0.5 -0.4-0.7-1.2-0.9-2-0.8 -0.2 0-0.3 0.1-0.4 0.2 -0.2 0.1-0.1 0.2-0.3 0.2 -0.1 0-0.2 0.1-0.2 0.2C69.4-10.5 69.4-10.5 69.4-10.4 69.4-10.4 69.4-10.4 69.4-10.4"/><path class="st2" d="M61.8-10.4c0 0.1 0 0.1 0 0.2 -0.1 0.1-0.1 0.1-0.2 0.1 -0.1 0.1-0.1 0.3-0.1 0.4 -0.2 0.1 0 0.2 0 0.3 0 0 0 0.1 0 0.2 0 0.1 0 0.3 0.1 0.4 0.1 0.2 0.3 0.4 0.4 0.5 0.2 0.1 0.4 0.6 0.6 0.6 0.2 0 0.4-0.1 0.5-0.1 0.2 0 0.4 0 0.6-0.1C63.9-8 63.8-8.2 64-8.3c0.1-0.1 0.3 0 0.4-0.1 0.2-0.1 0.3-0.3 0.4-0.5 0-0.1 0-0.1 0-0.2 0-0.1 0.1-0.2 0.1-0.3 0-0.1-0.1-0.1-0.1-0.2 0-0.1 0-0.2 0-0.3 0-0.2 0-0.4-0.1-0.5 -0.4-0.7-1.2-0.9-2-0.8 -0.2 0-0.3 0.1-0.4 0.2 -0.2 0.1-0.1 0.2-0.3 0.2 -0.1 0-0.2 0.1-0.2 0.2C61.8-10.5 61.8-10.5 61.8-10.4 61.8-10.4 61.8-10.4 61.8-10.4"/><path class="st2" d="M54.1-10.4c0 0.1 0 0.1 0 0.2 -0.1 0.1-0.1 0.1-0.2 0.1 -0.1 0.1-0.1 0.3-0.1 0.4 -0.2 0.1 0 0.2 0 0.3 0 0 0 0.1 0 0.2 0 0.1 0 0.3 0.1 0.4 0.1 0.2 0.3 0.4 0.4 0.5 0.2 0.1 0.4 0.6 0.6 0.6 0.2 0 0.4-0.1 0.5-0.1 0.2 0 0.4 0 0.6-0.1 0.2-0.1 0.1-0.3 0.3-0.5 0.1-0.1 0.3 0 0.4-0.1 0.2-0.1 0.3-0.3 0.4-0.5 0-0.1 0-0.1 0-0.2 0-0.1 0.1-0.2 0.1-0.3 0-0.1-0.1-0.1-0.1-0.2 0-0.1 0-0.2 0-0.3 0-0.2 0-0.4-0.1-0.5 -0.4-0.7-1.2-0.9-2-0.8 -0.2 0-0.3 0.1-0.4 0.2 -0.2 0.1-0.1 0.2-0.3 0.2 -0.1 0-0.2 0.1-0.2 0.2C54.1-10.5 54.1-10.5 54.1-10.4 54.1-10.4 54.1-10.4 54.1-10.4"/><path class="st2" d="M46.5-10.4c0 0.1 0 0.1 0 0.2 -0.1 0.1-0.1 0.1-0.2 0.1 -0.1 0.1-0.1 0.3-0.1 0.4 -0.2 0.1 0 0.2 0 0.3 0 0 0 0.1 0 0.2 0 0.1 0 0.3 0.1 0.4 0.1 0.2 0.3 0.4 0.4 0.5 0.2 0.1 0.4 0.6 0.6 0.6 0.2 0 0.4-0.1 0.5-0.1 0.2 0 0.4 0 0.6-0.1 0.2-0.1 0.1-0.3 0.3-0.5 0.1-0.1 0.3 0 0.4-0.1 0.2-0.1 0.3-0.3 0.4-0.5 0-0.1 0-0.1 0-0.2 0-0.1 0.1-0.2 0.1-0.3 0-0.1-0.1-0.1-0.1-0.2 0-0.1 0-0.2 0-0.3 0-0.2 0-0.4-0.1-0.5 -0.4-0.7-1.2-0.9-2-0.8 -0.2 0-0.3 0.1-0.4 0.2 -0.2 0.1-0.1 0.2-0.3 0.2 -0.1 0-0.2 0.1-0.2 0.2C46.5-10.5 46.5-10.5 46.5-10.4 46.5-10.4 46.5-10.4 46.5-10.4"/><path class="st2" d="M38.8-10.4c0 0.1 0 0.1 0 0.2 -0.1 0.1-0.1 0.1-0.2 0.1 -0.1 0.1-0.1 0.3-0.1 0.4 -0.2 0.1 0 0.2 0 0.3 0 0 0 0.1 0 0.2 0 0.1 0 0.3 0.1 0.4 0.1 0.2 0.3 0.4 0.4 0.5 0.2 0.1 0.4 0.6 0.6 0.6 0.2 0 0.4-0.1 0.5-0.1 0.2 0 0.4 0 0.6-0.1C40.9-8 40.8-8.2 41-8.3c0.1-0.1 0.3 0 0.4-0.1 0.2-0.1 0.3-0.3 0.4-0.5 0-0.1 0-0.1 0-0.2 0-0.1 0.1-0.2 0.1-0.3 0-0.1-0.1-0.1-0.1-0.2 0-0.1 0-0.2 0-0.3 0-0.2 0-0.4-0.1-0.5 -0.4-0.7-1.2-0.9-2-0.8 -0.2 0-0.3 0.1-0.4 0.2 -0.2 0.1-0.1 0.2-0.3 0.2 -0.1 0-0.2 0.1-0.2 0.2C38.8-10.5 38.8-10.5 38.8-10.4 38.8-10.4 38.8-10.4 38.8-10.4"/><path class="st2" d="M31.1-10.4c0 0.1 0 0.1 0 0.2 -0.1 0.1-0.1 0.1-0.2 0.1 -0.1 0.1-0.1 0.3-0.1 0.4 -0.2 0.1 0 0.2 0 0.3 0 0 0 0.1 0 0.2 0 0.1 0 0.3 0.1 0.4 0.1 0.2 0.3 0.4 0.4 0.5 0.2 0.1 0.4 0.6 0.6 0.6 0.2 0 0.4-0.1 0.5-0.1 0.2 0 0.4 0 0.6-0.1 0.2-0.1 0.1-0.3 0.3-0.5 0.1-0.1 0.3 0 0.4-0.1 0.2-0.1 0.3-0.3 0.4-0.5 0-0.1 0-0.1 0-0.2 0-0.1 0.1-0.2 0.1-0.3 0-0.1-0.1-0.1-0.1-0.2 0-0.1 0-0.2 0-0.3 0-0.2 0-0.4-0.1-0.5 -0.4-0.7-1.2-0.9-2-0.8 -0.2 0-0.3 0.1-0.4 0.2 -0.2 0.1-0.1 0.2-0.3 0.2 -0.1 0-0.2 0.1-0.2 0.2C31.1-10.5 31.1-10.5 31.1-10.4 31.1-10.4 31.1-10.4 31.1-10.4"/><path class="st2" d="M23.5-10.4c0 0.1 0 0.1 0 0.2 -0.1 0.1-0.1 0.1-0.2 0.1 -0.1 0.1-0.1 0.3-0.1 0.4 -0.2 0.1 0 0.2 0 0.3 0 0 0 0.1 0 0.2 0 0.1 0 0.3 0.1 0.4 0.1 0.2 0.3 0.4 0.4 0.5 0.2 0.1 0.4 0.6 0.6 0.6 0.2 0 0.4-0.1 0.5-0.1 0.2 0 0.4 0 0.6-0.1 0.2-0.1 0.1-0.3 0.3-0.5 0.1-0.1 0.3 0 0.4-0.1 0.2-0.1 0.3-0.3 0.4-0.5 0-0.1 0-0.1 0-0.2 0-0.1 0.1-0.2 0.1-0.3 0-0.1-0.1-0.1-0.1-0.2 0-0.1 0-0.2 0-0.3 0-0.2 0-0.4-0.1-0.5 -0.4-0.7-1.2-0.9-2-0.8 -0.2 0-0.3 0.1-0.4 0.2 -0.2 0.1-0.1 0.2-0.3 0.2 -0.1 0-0.2 0.1-0.2 0.2C23.5-10.5 23.5-10.5 23.5-10.4 23.5-10.4 23.5-10.4 23.5-10.4"/><path class="st2" d="M15.8-10.4c0 0.1 0 0.1 0 0.2 -0.1 0.1-0.1 0.1-0.2 0.1 -0.1 0.1-0.1 0.3-0.1 0.4 -0.2 0.1 0 0.2 0 0.3 0 0 0 0.1 0 0.2 0 0.1 0 0.3 0.1 0.4 0.1 0.2 0.3 0.4 0.4 0.5 0.2 0.1 0.4 0.6 0.6 0.6 0.2 0 0.4-0.1 0.5-0.1 0.2 0 0.4 0 0.6-0.1C17.9-8 17.8-8.2 18-8.3c0.1-0.1 0.3 0 0.4-0.1 0.2-0.1 0.3-0.3 0.4-0.5 0-0.1 0-0.1 0-0.2 0-0.1 0.1-0.2 0.1-0.3 0-0.1-0.1-0.1-0.1-0.2 0-0.1 0-0.2 0-0.3 0-0.2 0-0.4-0.1-0.5 -0.4-0.7-1.2-0.9-2-0.8 -0.2 0-0.3 0.1-0.4 0.2 -0.2 0.1-0.1 0.2-0.3 0.2 -0.1 0-0.2 0.1-0.2 0.2C15.8-10.5 15.8-10.5 15.8-10.4 15.8-10.4 15.8-10.4 15.8-10.4"/><path class="st2" d="M8.2-10.4c0 0.1 0 0.1 0 0.2C8.1-10.1 8-10.2 8-10.1 7.9-10 7.9-9.8 7.9-9.8c-0.2 0.1 0 0.2 0 0.3 0 0 0 0.1 0 0.2 0 0.1 0 0.3 0.1 0.4C8-8.7 8.2-8.5 8.3-8.3c0.2 0.1 0.4 0.6 0.6 0.6 0.2 0 0.4-0.1 0.5-0.1 0.2 0 0.4 0 0.6-0.1 0.2-0.1 0.1-0.3 0.3-0.5 0.1-0.1 0.3 0 0.4-0.1 0.2-0.1 0.3-0.3 0.4-0.5 0-0.1 0-0.1 0-0.2 0-0.1 0.1-0.2 0.1-0.3 0-0.1-0.1-0.1-0.1-0.2 0-0.1 0-0.2 0-0.3 0-0.2 0-0.4-0.1-0.5 -0.4-0.7-1.2-0.9-2-0.8 -0.2 0-0.3 0.1-0.4 0.2 -0.2 0.1-0.1 0.2-0.3 0.2 -0.1 0-0.2 0.1-0.2 0.2C8.2-10.5 8.2-10.5 8.2-10.4 8.1-10.4 8.1-10.4 8.2-10.4"/><path class="st2" d="M0.5-10.4c0 0.1 0 0.1 0 0.2 -0.1 0.1-0.1 0.1-0.2 0.1C0.3-10 0.2-9.8 0.2-9.8c-0.2 0.1 0 0.2 0 0.3 0 0 0 0.1 0 0.2 0 0.1 0 0.3 0.1 0.4 0.1 0.2 0.3 0.4 0.4 0.5C0.9-8.2 1-7.8 1.3-7.7c0.2 0 0.4-0.1 0.5-0.1 0.2 0 0.4 0 0.6-0.1C2.6-8 2.5-8.2 2.7-8.3c0.1-0.1 0.3 0 0.4-0.1 0.2-0.1 0.3-0.3 0.4-0.5 0-0.1 0-0.1 0-0.2 0-0.1 0.1-0.2 0.1-0.3 0-0.1-0.1-0.1-0.1-0.2 0-0.1 0-0.2 0-0.3 0-0.2 0-0.4-0.1-0.5 -0.4-0.7-1.2-0.9-2-0.8 -0.2 0-0.3 0.1-0.4 0.2 -0.2 0.1-0.1 0.2-0.3 0.2 -0.1 0-0.2 0.1-0.2 0.2C0.5-10.5 0.5-10.5 0.5-10.4 0.5-10.4 0.5-10.4 0.5-10.4"/><path class="st2" d="M69.4-2.8c0 0.1 0 0.1 0 0.2 -0.1 0.1-0.1 0.1-0.2 0.1 -0.1 0.1-0.1 0.3-0.1 0.4 -0.2 0.1 0 0.2 0 0.3 0 0 0 0.1 0 0.2 0 0.1 0 0.3 0.1 0.4 0.1 0.2 0.3 0.4 0.4 0.5C69.8-0.5 70-0.1 70.2 0c0.2 0 0.4-0.1 0.5-0.1 0.2 0 0.4 0 0.6-0.1 0.2-0.1 0.1-0.3 0.3-0.5 0.1-0.1 0.3 0 0.4-0.1 0.2-0.1 0.3-0.3 0.4-0.5 0-0.1 0-0.1 0-0.2 0-0.1 0.1-0.2 0.1-0.3 0-0.1-0.1-0.1-0.1-0.2 0-0.1 0-0.2 0-0.3 0-0.2 0-0.4-0.1-0.5 -0.4-0.7-1.2-0.9-2-0.8 -0.2 0-0.3 0.1-0.4 0.2 -0.2 0.1-0.1 0.2-0.3 0.2 -0.1 0-0.2 0.1-0.2 0.2C69.4-2.8 69.4-2.9 69.4-2.8 69.4-2.7 69.4-2.8 69.4-2.8"/><path class="st2" d="M61.8-2.8c0 0.1 0 0.1 0 0.2 -0.1 0.1-0.1 0.1-0.2 0.1 -0.1 0.1-0.1 0.3-0.1 0.4 -0.2 0.1 0 0.2 0 0.3 0 0 0 0.1 0 0.2 0 0.1 0 0.3 0.1 0.4C61.6-1 61.8-0.8 62-0.7c0.2 0.1 0.4 0.6 0.6 0.6 0.2 0 0.4-0.1 0.5-0.1 0.2 0 0.4 0 0.6-0.1 0.2-0.1 0.1-0.3 0.3-0.5 0.1-0.1 0.3 0 0.4-0.1 0.2-0.1 0.3-0.3 0.4-0.5 0-0.1 0-0.1 0-0.2 0-0.1 0.1-0.2 0.1-0.3 0-0.1-0.1-0.1-0.1-0.2 0-0.1 0-0.2 0-0.3 0-0.2 0-0.4-0.1-0.5 -0.4-0.7-1.2-0.9-2-0.8 -0.2 0-0.3 0.1-0.4 0.2 -0.2 0.1-0.1 0.2-0.3 0.2 -0.1 0-0.2 0.1-0.2 0.2C61.8-2.8 61.8-2.9 61.8-2.8 61.8-2.7 61.8-2.8 61.8-2.8"/><path class="st2" d="M54.1-2.8c0 0.1 0 0.1 0 0.2C54-2.5 54-2.5 53.9-2.5c-0.1 0.1-0.1 0.3-0.1 0.4 -0.2 0.1 0 0.2 0 0.3 0 0 0 0.1 0 0.2 0 0.1 0 0.3 0.1 0.4C54-1 54.1-0.8 54.3-0.7c0.2 0.1 0.4 0.6 0.6 0.6 0.2 0 0.4-0.1 0.5-0.1 0.2 0 0.4 0 0.6-0.1 0.2-0.1 0.1-0.3 0.3-0.5 0.1-0.1 0.3 0 0.4-0.1C56.9-0.8 57-1 57.1-1.2c0-0.1 0-0.1 0-0.2 0-0.1 0.1-0.2 0.1-0.3 0-0.1-0.1-0.1-0.1-0.2 0-0.1 0-0.2 0-0.3 0-0.2 0-0.4-0.1-0.5 -0.4-0.7-1.2-0.9-2-0.8 -0.2 0-0.3 0.1-0.4 0.2 -0.2 0.1-0.1 0.2-0.3 0.2 -0.1 0-0.2 0.1-0.2 0.2C54.1-2.8 54.1-2.9 54.1-2.8 54.1-2.7 54.1-2.8 54.1-2.8"/><path class="st2" d="M46.5-2.8c0 0.1 0 0.1 0 0.2 -0.1 0.1-0.1 0.1-0.2 0.1 -0.1 0.1-0.1 0.3-0.1 0.4 -0.2 0.1 0 0.2 0 0.3 0 0 0 0.1 0 0.2 0 0.1 0 0.3 0.1 0.4 0.1 0.2 0.3 0.4 0.4 0.5C46.8-0.5 47-0.1 47.2 0c0.2 0 0.4-0.1 0.5-0.1 0.2 0 0.4 0 0.6-0.1 0.2-0.1 0.1-0.3 0.3-0.5 0.1-0.1 0.3 0 0.4-0.1 0.2-0.1 0.3-0.3 0.4-0.5 0-0.1 0-0.1 0-0.2 0-0.1 0.1-0.2 0.1-0.3 0-0.1-0.1-0.1-0.1-0.2 0-0.1 0-0.2 0-0.3 0-0.2 0-0.4-0.1-0.5 -0.4-0.7-1.2-0.9-2-0.8 -0.2 0-0.3 0.1-0.4 0.2 -0.2 0.1-0.1 0.2-0.3 0.2 -0.1 0-0.2 0.1-0.2 0.2C46.5-2.8 46.5-2.9 46.5-2.8 46.5-2.7 46.5-2.8 46.5-2.8"/><path class="st2" d="M38.8-2.8c0 0.1 0 0.1 0 0.2 -0.1 0.1-0.1 0.1-0.2 0.1 -0.1 0.1-0.1 0.3-0.1 0.4 -0.2 0.1 0 0.2 0 0.3 0 0 0 0.1 0 0.2 0 0.1 0 0.3 0.1 0.4C38.6-1 38.8-0.8 39-0.7c0.2 0.1 0.4 0.6 0.6 0.6 0.2 0 0.4-0.1 0.5-0.1 0.2 0 0.4 0 0.6-0.1 0.2-0.1 0.1-0.3 0.3-0.5 0.1-0.1 0.3 0 0.4-0.1 0.2-0.1 0.3-0.3 0.4-0.5 0-0.1 0-0.1 0-0.2 0-0.1 0.1-0.2 0.1-0.3 0-0.1-0.1-0.1-0.1-0.2 0-0.1 0-0.2 0-0.3 0-0.2 0-0.4-0.1-0.5 -0.4-0.7-1.2-0.9-2-0.8 -0.2 0-0.3 0.1-0.4 0.2 -0.2 0.1-0.1 0.2-0.3 0.2 -0.1 0-0.2 0.1-0.2 0.2C38.8-2.8 38.8-2.9 38.8-2.8 38.8-2.7 38.8-2.8 38.8-2.8"/><path class="st2" d="M31.1-2.8c0 0.1 0 0.1 0 0.2 -0.1 0.1-0.1 0.1-0.2 0.1 -0.1 0.1-0.1 0.3-0.1 0.4 -0.2 0.1 0 0.2 0 0.3 0 0 0 0.1 0 0.2 0 0.1 0 0.3 0.1 0.4C31-1 31.1-0.8 31.3-0.7c0.2 0.1 0.4 0.6 0.6 0.6 0.2 0 0.4-0.1 0.5-0.1 0.2 0 0.4 0 0.6-0.1 0.2-0.1 0.1-0.3 0.3-0.5 0.1-0.1 0.3 0 0.4-0.1 0.2-0.1 0.3-0.3 0.4-0.5 0-0.1 0-0.1 0-0.2 0-0.1 0.1-0.2 0.1-0.3 0-0.1-0.1-0.1-0.1-0.2 0-0.1 0-0.2 0-0.3 0-0.2 0-0.4-0.1-0.5 -0.4-0.7-1.2-0.9-2-0.8 -0.2 0-0.3 0.1-0.4 0.2 -0.2 0.1-0.1 0.2-0.3 0.2 -0.1 0-0.2 0.1-0.2 0.2C31.1-2.8 31.1-2.9 31.1-2.8 31.1-2.7 31.1-2.8 31.1-2.8"/><path class="st2" d="M23.5-2.8c0 0.1 0 0.1 0 0.2 -0.1 0.1-0.1 0.1-0.2 0.1 -0.1 0.1-0.1 0.3-0.1 0.4 -0.2 0.1 0 0.2 0 0.3 0 0 0 0.1 0 0.2 0 0.1 0 0.3 0.1 0.4 0.1 0.2 0.3 0.4 0.4 0.5C23.8-0.5 24-0.1 24.3 0c0.2 0 0.4-0.1 0.5-0.1 0.2 0 0.4 0 0.6-0.1 0.2-0.1 0.1-0.3 0.3-0.5 0.1-0.1 0.3 0 0.4-0.1 0.2-0.1 0.3-0.3 0.4-0.5 0-0.1 0-0.1 0-0.2 0-0.1 0.1-0.2 0.1-0.3 0-0.1-0.1-0.1-0.1-0.2 0-0.1 0-0.2 0-0.3 0-0.2 0-0.4-0.1-0.5 -0.4-0.7-1.2-0.9-2-0.8 -0.2 0-0.3 0.1-0.4 0.2 -0.2 0.1-0.1 0.2-0.3 0.2 -0.1 0-0.2 0.1-0.2 0.2C23.5-2.8 23.5-2.9 23.5-2.8 23.5-2.7 23.5-2.8 23.5-2.8"/><path class="st2" d="M15.8-2.8c0 0.1 0 0.1 0 0.2 -0.1 0.1-0.1 0.1-0.2 0.1 -0.1 0.1-0.1 0.3-0.1 0.4 -0.2 0.1 0 0.2 0 0.3 0 0 0 0.1 0 0.2 0 0.1 0 0.3 0.1 0.4C15.7-1 15.8-0.8 16-0.7c0.2 0.1 0.4 0.6 0.6 0.6 0.2 0 0.4-0.1 0.5-0.1 0.2 0 0.4 0 0.6-0.1 0.2-0.1 0.1-0.3 0.3-0.5 0.1-0.1 0.3 0 0.4-0.1 0.2-0.1 0.3-0.3 0.4-0.5 0-0.1 0-0.1 0-0.2 0-0.1 0.1-0.2 0.1-0.3 0-0.1-0.1-0.1-0.1-0.2 0-0.1 0-0.2 0-0.3 0-0.2 0-0.4-0.1-0.5 -0.4-0.7-1.2-0.9-2-0.8 -0.2 0-0.3 0.1-0.4 0.2 -0.2 0.1-0.1 0.2-0.3 0.2 -0.1 0-0.2 0.1-0.2 0.2C15.8-2.8 15.8-2.9 15.8-2.8 15.8-2.7 15.8-2.8 15.8-2.8"/><path class="st2" d="M8.2-2.8c0 0.1 0 0.1 0 0.2C8.1-2.5 8-2.5 8-2.5 7.9-2.4 7.9-2.2 7.9-2.1c-0.2 0.1 0 0.2 0 0.3 0 0 0 0.1 0 0.2 0 0.1 0 0.3 0.1 0.4C8-1 8.2-0.8 8.3-0.7 8.5-0.5 8.7-0.1 8.9 0c0.2 0 0.4-0.1 0.5-0.1 0.2 0 0.4 0 0.6-0.1 0.2-0.1 0.1-0.3 0.3-0.5 0.1-0.1 0.3 0 0.4-0.1 0.2-0.1 0.3-0.3 0.4-0.5 0-0.1 0-0.1 0-0.2 0-0.1 0.1-0.2 0.1-0.3 0-0.1-0.1-0.1-0.1-0.2 0-0.1 0-0.2 0-0.3 0-0.2 0-0.4-0.1-0.5 -0.4-0.7-1.2-0.9-2-0.8C9-3.5 8.8-3.4 8.7-3.4 8.5-3.3 8.6-3.2 8.4-3.1 8.3-3.1 8.2-3 8.2-2.9 8.2-2.8 8.2-2.9 8.2-2.8 8.1-2.7 8.1-2.8 8.2-2.8"/><path class="st2" d="M0.5-2.8c0 0.1 0 0.1 0 0.2C0.4-2.5 0.4-2.5 0.3-2.5 0.3-2.4 0.2-2.2 0.2-2.1c-0.2 0.1 0 0.2 0 0.3 0 0 0 0.1 0 0.2 0 0.1 0 0.3 0.1 0.4C0.3-1 0.5-0.8 0.7-0.7 0.9-0.5 1-0.1 1.3 0c0.2 0 0.4-0.1 0.5-0.1 0.2 0 0.4 0 0.6-0.1 0.2-0.1 0.1-0.3 0.3-0.5 0.1-0.1 0.3 0 0.4-0.1C3.3-0.8 3.4-1 3.5-1.2c0-0.1 0-0.1 0-0.2 0-0.1 0.1-0.2 0.1-0.3 0-0.1-0.1-0.1-0.1-0.2 0-0.1 0-0.2 0-0.3 0-0.2 0-0.4-0.1-0.5 -0.4-0.7-1.2-0.9-2-0.8C1.3-3.5 1.2-3.4 1-3.4 0.9-3.3 0.9-3.2 0.7-3.1 0.6-3.1 0.5-3 0.5-2.9 0.5-2.8 0.5-2.9 0.5-2.8 0.5-2.7 0.5-2.8 0.5-2.8"/></pattern><g class="st3"><g class="st4"><path class="st0" d="M-27.6 173.4c-41.9-18.8-60.5-68.1-41.7-110 18.9-41.9 68.1-60.5 110-41.7 41.9 18.9 60.5 68.1 41.7 110C63.6 173.6 14.3 192.3-27.6 173.4z"/><path class="st5" d="M-45.7 162.3l9.4-12.1 2 1.5 -9.4 12.1L-45.7 162.3z"/><path class="st5" d="M-34 158.1l2.1 1.4 -5.5 8.6 -2.1-1.4L-34 158.1zM-31.3 153.8l2.2 1.4 -1.5 2.3 -2.2-1.4L-31.3 153.8z"/><path class="st5" d="M-27.5 173.4c-0.3-0.1-0.6-0.1-1-0.3 -0.4-0.1-0.7-0.3-1-0.4 -0.8-0.4-1.3-0.8-1.7-1.3 -0.4-0.5-0.5-1-0.5-1.6 0-0.4 0.2-0.9 0.5-1.5l2.4-4.8 -1.7-0.9 0.9-1.8 1.7 0.9 1.3-2.6 2.2 1.1 -1.3 2.6 2.7 1.3 -0.9 1.8 -2.7-1.3 -2.2 4.5c-0.2 0.4-0.3 0.6-0.2 0.9 0 0.4 0.3 0.7 0.9 1 0.3 0.1 0.5 0.2 0.8 0.3 0.3 0.1 0.5 0.2 0.8 0.2L-27.5 173.4z"/><path class="st5" d="M-18.2 175.1c0.5 0.2 1 0.3 1.5 0.3 0.5 0.1 1.1 0.1 1.7 0.1l-0.6 1.9c-0.4 0-0.9 0-1.5-0.1 -0.7-0.1-1.4-0.3-2-0.5 -0.7-0.2-1.3-0.5-1.9-0.9 -0.6-0.4-1-0.9-1.3-1.4 -0.3-0.6-0.5-1.2-0.6-1.9 -0.1-0.7 0.1-1.5 0.4-2.4 0.3-0.9 0.7-1.6 1.2-2.2 0.5-0.6 1-1 1.6-1.3 0.6-0.3 1.2-0.5 1.8-0.5 0.6 0 1.2 0.1 1.8 0.2 0.6 0.2 1.2 0.5 1.6 0.9 0.5 0.4 0.8 0.8 1 1.3 0.2 0.5 0.4 1.1 0.4 1.8 0 0.7-0.1 1.5-0.4 2.4 -0.1 0.3-0.2 0.6-0.3 0.8l-6.4-2.1c-0.1 0.5-0.1 0.9-0.1 1.3 0.1 0.4 0.2 0.7 0.4 1 0.2 0.3 0.5 0.5 0.8 0.8S-18.6 175-18.2 175.1zM-16.9 168.3c-0.3-0.1-0.6-0.1-0.9-0.1 -0.3 0-0.5 0.1-0.8 0.2 -0.2 0.1-0.4 0.3-0.6 0.5 -0.2 0.2-0.3 0.5-0.5 0.7l3.8 1.3c0.1-0.3 0.1-0.6 0.2-0.9s0-0.5-0.1-0.8c-0.1-0.2-0.2-0.5-0.4-0.6C-16.4 168.6-16.6 168.4-16.9 168.3z"/><path class="st5" d="M1 178.8c0.5 0 1 0 1.5 0 0.5-0.1 1.1-0.2 1.6-0.3l-0.2 2c-0.3 0.1-0.8 0.2-1.5 0.3 -0.7 0.1-1.4 0.1-2.1 0 -0.7-0.1-1.4-0.2-2-0.5 -0.6-0.2-1.2-0.6-1.6-1 -0.5-0.5-0.8-1-1-1.7s-0.3-1.5-0.2-2.4c0.1-0.9 0.3-1.7 0.6-2.4s0.7-1.2 1.2-1.6c0.5-0.4 1-0.7 1.6-0.9 0.6-0.2 1.2-0.2 1.8-0.2 0.6 0.1 1.2 0.2 1.8 0.4 0.5 0.2 1 0.6 1.3 1 0.4 0.5 0.6 1 0.8 1.7 0.2 0.7 0.2 1.5 0.1 2.4 0 0.4-0.1 0.7-0.1 0.9l-6.7-0.6c0 0.5 0.1 0.9 0.2 1.2 0.1 0.3 0.4 0.6 0.6 0.9s0.6 0.4 1 0.5C0.1 178.7 0.5 178.7 1 178.8zM0.5 171.9c-0.3 0-0.6 0-0.9 0.1s-0.5 0.2-0.7 0.4c-0.2 0.2-0.4 0.4-0.5 0.7 -0.1 0.3-0.2 0.5-0.3 0.8l4 0.3c0-0.3 0-0.6 0-0.9 -0.1-0.3-0.2-0.5-0.3-0.7 -0.1-0.2-0.3-0.4-0.6-0.5C1.1 172 0.8 172 0.5 171.9z"/><path class="st5" d="M10.4 171.8L10.4 171.8c0.2-0.2 0.3-0.4 0.5-0.7 0.2-0.2 0.5-0.4 0.7-0.6 0.3-0.2 0.6-0.3 0.9-0.5 0.3-0.1 0.7-0.2 1.1-0.2 0.4 0 0.7 0 1.1 0 0.4 0.1 0.7 0.2 1 0.3 0.3 0.2 0.6 0.4 0.8 0.6 0.2 0.3 0.4 0.6 0.6 1 0.1 0.2 0.2 0.4 0.2 0.7 0 0.3 0.1 0.6 0.1 0.9l0.6 6.6 -2.5 0.2 -0.5-6.2c0-0.3-0.1-0.5-0.1-0.7 0-0.2-0.1-0.4-0.2-0.5 -0.2-0.3-0.4-0.5-0.6-0.6 -0.3-0.1-0.6-0.2-1-0.1 -0.5 0-0.9 0.2-1.4 0.5 -0.4 0.3-0.8 0.6-1.1 1.1l0.6 7 -2.5 0.2L8 170.6l2.1-0.2L10.4 171.8z"/><path class="st5" d="M27.6 176.2c0.5-0.1 1-0.3 1.4-0.5 0.5-0.2 1-0.5 1.5-0.8l0.5 1.9c-0.3 0.2-0.7 0.5-1.3 0.8 -0.6 0.3-1.3 0.5-2 0.7 -0.7 0.2-1.4 0.3-2.1 0.2 -0.7 0-1.3-0.2-1.9-0.5s-1.1-0.7-1.5-1.3c-0.4-0.6-0.8-1.3-1-2.2 -0.2-0.9-0.3-1.7-0.2-2.5 0.1-0.7 0.3-1.4 0.6-1.9 0.3-0.6 0.7-1 1.3-1.4 0.5-0.4 1.1-0.6 1.7-0.8 0.6-0.2 1.2-0.2 1.8-0.2 0.6 0.1 1.1 0.2 1.6 0.6 0.5 0.3 0.9 0.8 1.3 1.4 0.4 0.6 0.7 1.3 0.9 2.2 0.1 0.3 0.1 0.6 0.2 0.9l-6.5 1.7c0.2 0.5 0.4 0.8 0.6 1.1 0.3 0.3 0.5 0.5 0.9 0.6 0.3 0.1 0.7 0.2 1.1 0.2C26.8 176.4 27.2 176.3 27.6 176.2zM25 169.9c-0.3 0.1-0.6 0.2-0.8 0.4s-0.4 0.4-0.5 0.6c-0.1 0.2-0.2 0.5-0.2 0.8 0 0.3 0 0.6 0 0.9l3.9-1c-0.1-0.3-0.2-0.6-0.3-0.8 -0.1-0.2-0.3-0.4-0.5-0.6 -0.2-0.2-0.4-0.3-0.7-0.3C25.6 169.8 25.3 169.8 25 169.9z"/><path class="st5" d="M38.2 165.5l-0.2 0.1c-0.7 0.3-1.3 0.7-1.7 1.1 -0.5 0.4-0.7 0.9-0.9 1.5l2.6 6.4 -2.3 0.9 -3.9-9.5 1.9-0.8 0.8 1.2 0 0c0.1-0.6 0.3-1.1 0.7-1.6 0.4-0.5 0.9-0.8 1.6-1.1 0.2-0.1 0.4-0.2 0.6-0.2L38.2 165.5z"/><path class="st5" d="M50.6 168.5c-0.1-0.1-0.2-0.3-0.3-0.5 -0.1-0.2-0.2-0.3-0.2-0.5l0 0c-0.1 0.2-0.2 0.4-0.3 0.6s-0.2 0.4-0.4 0.6c-0.2 0.2-0.3 0.4-0.6 0.6 -0.2 0.2-0.5 0.4-0.7 0.5 -0.5 0.3-1 0.5-1.5 0.6 -0.5 0.1-1.1 0.1-1.7-0.1 -0.6-0.2-1.1-0.5-1.7-0.9 -0.5-0.4-1.1-1.1-1.5-1.9 -0.5-0.8-0.8-1.6-0.9-2.3 -0.1-0.7-0.1-1.4 0-2 0.1-0.6 0.4-1.2 0.7-1.6 0.3-0.5 0.8-0.9 1.3-1.1 0.5-0.3 1.1-0.5 1.6-0.5 0.6 0 1.1 0.1 1.5 0.3l0 0 -0.5-1.1 1.9-1.1 5.3 9c0.3 0.5 0.5 1 0.7 1.4 0.1 0.4 0.2 0.8 0.2 1.2 0 0.5-0.1 0.9-0.2 1.3 -0.2 0.4-0.4 0.8-0.7 1.2 -0.3 0.4-0.6 0.8-1.1 1.1 -0.4 0.4-0.9 0.7-1.4 1 -0.3 0.2-0.6 0.3-0.9 0.5s-0.6 0.3-0.8 0.4c-0.3 0.1-0.5 0.2-0.8 0.3 -0.2 0.1-0.4 0.1-0.6 0.1l-1-1.8c0.5-0.1 1-0.2 1.4-0.4 0.5-0.2 1-0.4 1.5-0.7 1-0.6 1.6-1.2 1.9-1.9 0.3-0.7 0.2-1.4-0.2-2.2L50.6 168.5zM47.6 167.9c0.2-0.1 0.4-0.3 0.6-0.4 0.2-0.2 0.3-0.3 0.4-0.5 0.1-0.2 0.2-0.4 0.3-0.5 0.1-0.2 0.1-0.3 0.2-0.5l-2.3-4c-0.4-0.1-0.8-0.2-1.3-0.2 -0.4 0-0.9 0.1-1.3 0.4 -0.1 0.1-0.3 0.2-0.4 0.3 -0.1 0.1-0.2 0.3-0.3 0.4 -0.1 0.2-0.2 0.4-0.2 0.6 -0.1 0.2-0.1 0.5 0 0.8 0 0.3 0.1 0.6 0.2 0.9 0.1 0.3 0.3 0.7 0.5 1.1 0.3 0.4 0.5 0.8 0.8 1.1 0.3 0.3 0.6 0.5 0.9 0.7 0.3 0.1 0.6 0.2 1 0.2S47.3 168.1 47.6 167.9z"/><path class="st5" d="M49.1 157.1l2.1-1.7 3.6 1.9c1.3 0.7 2.3 1.3 3 1.6l0 0c-0.2-0.5-0.5-1.5-1-3l-1.3-4 2.1-1.7 4.6 15.9 -1.9 1.6 -1.7-5.7L49.1 157.1z"/><path class="st5" d="M61.8 149.7l-0.5 0.5 -2.5-2.4 -0.9 1 -0.4-0.4 2.3-2.4 0.5 0.4 -0.9 0.9L61.8 149.7z"/><path class="st5" d="M63.8 145.9c-0.2-0.3-0.4-0.6-0.6-0.9l-1-1.8 0.7-0.8 3.1 2.6 -0.5 0.6 -1.6-1.3c-0.2-0.2-0.5-0.4-0.8-0.7l0 0c0.1 0.1 0.1 0.2 0.2 0.3 0.1 0.1 0.2 0.3 0.2 0.4l1.2 2.1 -0.3 0.4 -2.3-0.8c-0.1-0.1-0.3-0.1-0.4-0.2 -0.1-0.1-0.3-0.1-0.4-0.2l0 0c0.3 0.2 0.6 0.4 0.8 0.7l1.6 1.3 -0.5 0.6 -3.1-2.6 0.7-0.8 1.9 0.7C63.1 145.6 63.4 145.8 63.8 145.9L63.8 145.9z"/></g></g><path class="st5" d="M62 111c0 0 0-0.1-0.1-0.1C62 111 62 111 62 111z"/><path class="st6" d="M57 63.6c-15.8 0-28.7 14.5-28.7 32.3 0 4.7 0.9 9.3 2.6 13.5 0 0.1 0.8 2.5 0.8 2.5 1 3.1 2.3 7 2.3 11.4v18c0 6.5 2.3 11.7 6 14l0.2 0.1c2.9 1.8 5.7 3.4 5.7 6.5l0 0c0 4.6 8.5 6 11.7 6 3.4 0 10.4-1.5 10.4-6l0 0c0-2.9 2.3-4.7 5.8-6.6 4.2-2.2 6.1-8.6 6.1-14v-18c0-4.4 1.3-8.3 2.3-11.4 0 0 0.8-2.4 0.8-2.5 1.8-4.3 2.6-8.8 2.6-13.5C85.7 78.1 72.8 63.6 57 63.6zM45 69.7"/><path class="st5" d="M62.4 184.6c0 0 5.5-5.7 6.9-16.3 -4 4.1-7.8 3.2-7.8 3.2s0.6 0.8 1.2 1.9c-1.7 0.5-3.7 0.6-6 0.6 -4.6 0-9.6-2.1-10.9-4 0.1 1.2 0.3 2.6 0.5 4 3.6 2.5 9 4.4 15.9 2.2 1.3-0.4 3-1.8 4.7-3.5 -1.1 2.4-2.4 4.3-4.1 5.3 -5.1 3.2-11.3 2-15.9-0.7 0.2 1 0.4 1.9 0.6 2.6 0.5 1.8 4.7 3.2 8.7 3.2 3 0 5.4-1.2 7.1-2.3L62.4 184.6z"/><path class="st5" d="M4 194.6l9.4-12.1 2 1.5L6 196.1 4 194.6z"/><path class="st5" d="M15.7 190.5l2.1 1.4 -5.5 8.6 -2.1-1.4L15.7 190.5zM18.4 186.2l2.2 1.4 -1.5 2.3 -2.2-1.4L18.4 186.2z"/><path class="st5" d="M22.2 205.8c-0.3-0.1-0.6-0.1-1-0.3 -0.4-0.1-0.7-0.3-1-0.4 -0.8-0.4-1.3-0.8-1.7-1.3 -0.4-0.5-0.5-1-0.5-1.6 0-0.4 0.2-0.9 0.5-1.5l2.4-4.8 -1.7-0.9 0.9-1.8 1.7 0.9 1.3-2.6 2.2 1.1 -1.3 2.6 2.7 1.3 -0.9 1.8 -2.7-1.3 -2.2 4.5c-0.2 0.4-0.3 0.6-0.2 0.9 0 0.4 0.3 0.7 0.9 1 0.3 0.1 0.5 0.2 0.8 0.3 0.3 0.1 0.5 0.2 0.8 0.2L22.2 205.8z"/><path class="st5" d="M31.5 207.4c0.5 0.2 1 0.3 1.5 0.3 0.5 0.1 1.1 0.1 1.7 0.1l-0.6 1.9c-0.4 0-0.9 0-1.5-0.1 -0.7-0.1-1.4-0.3-2-0.5 -0.7-0.2-1.3-0.5-1.9-0.9 -0.6-0.4-1-0.9-1.3-1.4 -0.3-0.6-0.5-1.2-0.6-1.9 -0.1-0.7 0.1-1.5 0.4-2.4 0.3-0.9 0.7-1.6 1.2-2.2 0.5-0.6 1-1 1.6-1.3 0.6-0.3 1.2-0.5 1.8-0.5 0.6 0 1.2 0.1 1.8 0.2 0.6 0.2 1.2 0.5 1.6 0.9 0.5 0.4 0.8 0.8 1 1.3 0.2 0.5 0.4 1.1 0.4 1.8 0 0.7-0.1 1.5-0.4 2.4 -0.1 0.3-0.2 0.6-0.3 0.8l-6.4-2.1c-0.1 0.5-0.1 0.9-0.1 1.3 0.1 0.4 0.2 0.7 0.4 1 0.2 0.3 0.5 0.5 0.8 0.8C30.7 207.1 31.1 207.3 31.5 207.4zM32.7 200.7c-0.3-0.1-0.6-0.1-0.9-0.1 -0.3 0-0.5 0.1-0.8 0.2 -0.2 0.1-0.4 0.3-0.6 0.5 -0.2 0.2-0.3 0.5-0.5 0.7l3.8 1.3c0.1-0.3 0.1-0.6 0.2-0.9 0-0.3 0-0.5-0.1-0.8 -0.1-0.2-0.2-0.5-0.4-0.6C33.3 200.9 33 200.8 32.7 200.7z"/><path class="st5" d="M50.6 211.1c0.5 0 1 0 1.5 0 0.5-0.1 1.1-0.2 1.6-0.3l-0.2 2c-0.3 0.1-0.8 0.2-1.5 0.3 -0.7 0.1-1.4 0.1-2.1 0 -0.7-0.1-1.4-0.2-2-0.5 -0.6-0.2-1.2-0.6-1.6-1 -0.5-0.5-0.8-1-1-1.7 -0.2-0.7-0.3-1.5-0.2-2.4 0.1-0.9 0.3-1.7 0.6-2.4s0.7-1.2 1.2-1.6c0.5-0.4 1-0.7 1.6-0.9 0.6-0.2 1.2-0.2 1.8-0.2 0.6 0.1 1.2 0.2 1.8 0.4 0.5 0.2 1 0.6 1.3 1 0.4 0.5 0.6 1 0.8 1.7 0.2 0.7 0.2 1.5 0.1 2.4 0 0.4-0.1 0.7-0.1 0.9l-6.7-0.6c0 0.5 0.1 0.9 0.2 1.2 0.1 0.3 0.4 0.6 0.6 0.9 0.3 0.2 0.6 0.4 1 0.5C49.8 211 50.2 211.1 50.6 211.1zM50.2 204.3c-0.3 0-0.6 0-0.9 0.1 -0.3 0.1-0.5 0.2-0.7 0.4 -0.2 0.2-0.4 0.4-0.5 0.7 -0.1 0.3-0.2 0.5-0.3 0.8l4 0.3c0-0.3 0-0.6 0-0.9 -0.1-0.3-0.2-0.5-0.3-0.7 -0.1-0.2-0.3-0.4-0.6-0.5C50.8 204.4 50.5 204.3 50.2 204.3z"/><path class="st5" d="M60.1 204.2L60.1 204.2c0.2-0.2 0.3-0.4 0.5-0.7 0.2-0.2 0.5-0.4 0.7-0.6 0.3-0.2 0.6-0.3 0.9-0.5 0.3-0.1 0.7-0.2 1.1-0.2 0.4 0 0.7 0 1.1 0 0.4 0.1 0.7 0.2 1 0.3 0.3 0.2 0.6 0.4 0.8 0.6s0.4 0.6 0.6 1c0.1 0.2 0.2 0.4 0.2 0.7 0 0.3 0.1 0.6 0.1 0.9l0.6 6.6 -2.5 0.2 -0.5-6.2c0-0.3-0.1-0.5-0.1-0.7 0-0.2-0.1-0.4-0.2-0.5 -0.2-0.3-0.4-0.5-0.6-0.6 -0.3-0.1-0.6-0.2-1-0.1 -0.5 0-0.9 0.2-1.4 0.5 -0.4 0.3-0.8 0.6-1.1 1.1l0.6 7 -2.5 0.2 -0.9-10.2 2.1-0.2L60.1 204.2z"/><path class="st5" d="M77.3 208.5c0.5-0.1 1-0.3 1.4-0.5 0.5-0.2 1-0.5 1.5-0.8l0.5 1.9c-0.3 0.2-0.7 0.5-1.3 0.8 -0.6 0.3-1.3 0.5-2 0.7 -0.7 0.2-1.4 0.3-2.1 0.2 -0.7 0-1.3-0.2-1.9-0.5 -0.6-0.3-1.1-0.7-1.5-1.3 -0.4-0.6-0.8-1.3-1-2.2 -0.2-0.9-0.3-1.7-0.2-2.5 0.1-0.7 0.3-1.4 0.6-1.9 0.3-0.6 0.7-1 1.3-1.4 0.5-0.4 1.1-0.6 1.7-0.8 0.6-0.2 1.2-0.2 1.8-0.2 0.6 0.1 1.1 0.2 1.6 0.6 0.5 0.3 0.9 0.8 1.3 1.4 0.4 0.6 0.7 1.3 0.9 2.2 0.1 0.3 0.1 0.6 0.2 0.9l-6.5 1.7c0.2 0.5 0.4 0.8 0.6 1.1 0.3 0.3 0.5 0.5 0.9 0.6 0.3 0.1 0.7 0.2 1.1 0.2C76.5 208.7 76.9 208.6 77.3 208.5zM74.6 202.2c-0.3 0.1-0.6 0.2-0.8 0.4 -0.2 0.2-0.4 0.4-0.5 0.6 -0.1 0.2-0.2 0.5-0.2 0.8 0 0.3 0 0.6 0 0.9l3.9-1c-0.1-0.3-0.2-0.6-0.3-0.8 -0.1-0.2-0.3-0.4-0.5-0.6 -0.2-0.2-0.4-0.3-0.7-0.3C75.2 202.1 75 202.1 74.6 202.2z"/><path class="st5" d="M87.9 197.9l-0.2 0.1c-0.7 0.3-1.3 0.7-1.7 1.1 -0.5 0.4-0.7 0.9-0.9 1.5l2.6 6.4 -2.3 0.9 -3.9-9.5 1.9-0.8 0.8 1.2 0 0c0.1-0.6 0.3-1.1 0.7-1.6 0.4-0.5 0.9-0.8 1.6-1.1 0.2-0.1 0.4-0.2 0.6-0.2L87.9 197.9z"/><path class="st5" d="M100.2 200.8c-0.1-0.1-0.2-0.3-0.3-0.5 -0.1-0.2-0.2-0.3-0.2-0.5l0 0c-0.1 0.2-0.2 0.4-0.3 0.6 -0.1 0.2-0.2 0.4-0.4 0.6 -0.2 0.2-0.3 0.4-0.6 0.6 -0.2 0.2-0.5 0.4-0.7 0.5 -0.5 0.3-1 0.5-1.5 0.6 -0.5 0.1-1.1 0.1-1.7-0.1 -0.6-0.2-1.1-0.5-1.7-0.9 -0.5-0.4-1.1-1.1-1.5-1.9 -0.5-0.8-0.8-1.6-0.9-2.3 -0.1-0.7-0.1-1.4 0-2 0.1-0.6 0.4-1.2 0.7-1.6 0.3-0.5 0.8-0.9 1.3-1.1 0.5-0.3 1.1-0.5 1.6-0.5 0.6 0 1.1 0.1 1.5 0.3l0 0 -0.5-1.1 1.9-1.1 5.3 9c0.3 0.5 0.5 1 0.7 1.4 0.1 0.4 0.2 0.8 0.2 1.2 0 0.5-0.1 0.9-0.2 1.3 -0.2 0.4-0.4 0.8-0.7 1.2 -0.3 0.4-0.6 0.8-1.1 1.1 -0.4 0.4-0.9 0.7-1.4 1 -0.3 0.2-0.6 0.3-0.9 0.5 -0.3 0.1-0.6 0.3-0.8 0.4 -0.3 0.1-0.5 0.2-0.8 0.3 -0.2 0.1-0.4 0.1-0.6 0.1l-1-1.8c0.5-0.1 1-0.2 1.4-0.4 0.5-0.2 1-0.4 1.5-0.7 1-0.6 1.6-1.2 1.9-1.9 0.3-0.7 0.2-1.4-0.2-2.2L100.2 200.8zM97.3 200.2c0.2-0.1 0.4-0.3 0.6-0.4 0.2-0.2 0.3-0.3 0.4-0.5 0.1-0.2 0.2-0.4 0.3-0.5 0.1-0.2 0.1-0.3 0.2-0.5l-2.3-4c-0.4-0.1-0.8-0.2-1.3-0.2 -0.4 0-0.9 0.1-1.3 0.4 -0.1 0.1-0.3 0.2-0.4 0.3 -0.1 0.1-0.2 0.3-0.3 0.4 -0.1 0.2-0.2 0.4-0.2 0.6 -0.1 0.2-0.1 0.5 0 0.8 0 0.3 0.1 0.6 0.2 0.9 0.1 0.3 0.3 0.7 0.5 1.1 0.3 0.4 0.5 0.8 0.8 1.1 0.3 0.3 0.6 0.5 0.9 0.7 0.3 0.1 0.6 0.2 1 0.2C96.6 200.5 96.9 200.4 97.3 200.2z"/><path class="st5" d="M98.7 189.4l2.1-1.7 3.6 1.9c1.3 0.7 2.3 1.3 3 1.6l0 0c-0.2-0.5-0.5-1.5-1-3l-1.3-4 2.1-1.7 4.6 15.9 -1.9 1.6 -1.7-5.7L98.7 189.4z"/><path class="st5" d="M111.5 182l-0.5 0.5 -2.5-2.4 -0.9 1 -0.4-0.4 2.3-2.4 0.5 0.4 -0.9 0.9L111.5 182z"/><path class="st5" d="M113.4 178.2c-0.2-0.3-0.4-0.6-0.6-0.9l-1-1.8 0.7-0.8 3.1 2.6 -0.5 0.6 -1.6-1.3c-0.2-0.2-0.5-0.4-0.8-0.7l0 0c0.1 0.1 0.1 0.2 0.2 0.3 0.1 0.1 0.2 0.3 0.2 0.4l1.2 2.1 -0.3 0.4 -2.3-0.8c-0.1-0.1-0.3-0.1-0.4-0.2 -0.1-0.1-0.3-0.1-0.4-0.2l0 0c0.3 0.2 0.6 0.4 0.8 0.7l1.6 1.3 -0.5 0.6 -3.1-2.6 0.7-0.8 1.9 0.7C112.7 177.9 113.1 178.1 113.4 178.2L113.4 178.2z"/><path d="M2 12.6c0 0.1-0.1 0.2-0.2 0.2H0.5c-0.2 0-0.2-0.1-0.2-0.2V0.5c0-0.1 0.1-0.2 0.2-0.2h3.1c1.6 0 4.1 0.1 4.1 3.3 0 3.1-2.2 3.9-4.4 3.9H2V12.6zM3.3 6.2c1.5 0 2.8-0.3 2.8-2.6 0-2-1.5-2.1-2.6-2.1H2v4.7H3.3z"/><path d="M18.3 12.5c0 0.1 0.1 0.1 0.1 0.2 0 0.1-0.1 0.1-0.2 0.1l-1.3 0.2c-0.1 0-0.2 0-0.3-0.1l-3.3-5.8h-1.5v5.5c0 0.1-0.1 0.2-0.2 0.2h-1.2c-0.2 0-0.2-0.1-0.2-0.2V0.5c0-0.1 0.1-0.2 0.2-0.2h3.1c1.6 0 4.1 0.1 4.1 3.3 0 2-1.6 3-2.7 3.4L18.3 12.5zM13.2 5.9c1.5 0 2.8-0.3 2.8-2.3 0-2-1.5-2.1-2.6-2.1h-1.6v4.4H13.2z"/><path d="M24.5 13.1c-3.2 0-4.6-2.6-4.6-6.5 0-3.9 1.3-6.5 4.6-6.5C27.7 0 29 2.6 29 6.5 29 10.4 27.7 13.1 24.5 13.1zM27.2 6.5c0-3.2-0.5-5.3-2.7-5.3 -2.2 0-2.7 2.1-2.7 5.3 0 3.2 0.5 5.3 2.7 5.3C26.8 11.8 27.2 9.7 27.2 6.5z"/><path d="M40.4 9.4c0 2.2-1.3 3.6-4.4 3.6 -3 0-4.2-1.4-4.2-3.6v-9c0-0.1 0.1-0.2 0.2-0.2h1.2c0.2 0 0.2 0.1 0.2 0.2v8.9c0 1.5 0.6 2.4 2.5 2.4 1.9 0 2.8-0.8 2.8-2.4V0.5c0-0.1 0.1-0.2 0.2-0.2h1.2c0.2 0 0.2 0.1 0.2 0.2V9.4z"/><path d="M46.8 0.3c2.8 0 5.4 0.6 5.4 6.2 0 4.4-1.5 6.4-5.6 6.4h-2.3c-0.2 0-0.2-0.1-0.2-0.2V0.5c0-0.1 0.1-0.2 0.2-0.2H46.8zM46.9 11.5c2.9 0 3.5-2.1 3.5-5.2 0-4-1.3-4.8-3.6-4.8h-1.1v10H46.9z"/><path d="M67.1 1.5v11c0 0.1-0.1 0.2-0.2 0.2h-1.2c-0.2 0-0.2-0.1-0.2-0.2v-11h-3c-0.2 0-0.2-0.1-0.2-0.2V0.5c0-0.1 0.1-0.2 0.3-0.2h7.9c0.1 0 0.2 0 0.2 0.1 0 0.1-0.1 0.1-0.1 0.2l-0.3 0.7c-0.1 0.1-0.2 0.2-0.3 0.2H67.1z"/><path d="M75.6 13.1c-3.2 0-4.6-2.6-4.6-6.5C71 2.6 72.3 0 75.6 0c3.2 0 4.6 2.6 4.6 6.5C80.1 10.4 78.8 13.1 75.6 13.1zM78.3 6.5c0-3.2-0.5-5.3-2.7-5.3 -2.2 0-2.7 2.1-2.7 5.3 0 3.2 0.5 5.3 2.7 5.3C77.8 11.8 78.3 9.7 78.3 6.5z"/><path d="M95.1 0.3c1.5 0 4 0.1 4 3 0 1.9-1.3 2.7-2 3 1 0.3 2.5 0.9 2.5 3.1 0 1.5-0.8 2.4-1.3 2.8 -0.8 0.6-1.9 0.7-3.5 0.7h-2.9c-0.2 0-0.2-0.1-0.2-0.2V0.5c0-0.1 0.1-0.2 0.2-0.2H95.1zM94.7 5.8c1.2 0 2.7-0.2 2.7-2.4 0-1.6-1-1.9-2.2-1.9h-1.9v4.2H94.7zM95.2 11.5c1.3 0 2.6-0.4 2.6-2.2 0-1.8-1.3-2.3-2.7-2.3h-1.9v4.5H95.2z"/><path d="M109.5 12.5c0 0.2-0.1 0.3-0.3 0.3H103c-0.2 0-0.2-0.1-0.2-0.2V0.5c0-0.1 0.1-0.2 0.2-0.2h6.3c0.2 0 0.3 0.1 0.3 0.1 0 0.1 0 0.2-0.1 0.2l-0.3 0.8c-0.1 0.2-0.1 0.2-0.3 0.2h-4.5v4.1h3.9c0.2 0 0.3 0 0.3 0.2v0.8c0 0.2 0 0.2-0.3 0.2h-3.9v4.6h4.8c0.2 0 0.2 0.1 0.2 0.2V12.5z"/><path class="st5" d="M17.6 19.1c0.4 0.5 0.7 1 0.8 1.6 0.2 0.5 0.2 1.1 0.2 1.7 0 1.2-0.2 2.3-0.6 3.2 -0.4 0.9-1 1.7-1.8 2.3 -0.8 0.6-1.7 1.1-2.7 1.4 -1.1 0.3-2.2 0.5-3.5 0.5 -0.8 0-1.5-0.1-2.1-0.2 -0.6-0.2-1.1-0.3-1.5-0.5 -0.2 0.2-0.4 0.5-0.6 0.8 -0.2 0.3-0.3 0.6-0.3 1 0 0.2 0.1 0.5 0.2 0.7 0.1 0.2 0.3 0.4 0.5 0.6 0.2 0.2 0.5 0.3 0.8 0.4 0.3 0.1 0.7 0.2 1 0.2l5.2 0.2c1.2 0 2.2 0.2 3.1 0.4 0.9 0.3 1.7 0.6 2.4 1.1 0.7 0.5 1.2 1.1 1.6 1.8 0.4 0.7 0.5 1.5 0.5 2.4 0 1-0.2 2-0.7 2.9 -0.5 0.9-1.1 1.7-2.1 2.3 -0.9 0.7-2.1 1.2-3.4 1.6 -1.4 0.4-3 0.6-4.8 0.6 -1.8 0-3.3-0.1-4.5-0.4 -1.3-0.3-2.3-0.7-3.1-1.2C1.6 44 1 43.4 0.6 42.7 0.2 42 0 41.2 0 40.4c0-0.5 0.1-1 0.2-1.4 0.1-0.4 0.3-0.8 0.6-1.2 0.3-0.4 0.6-0.8 1-1.1 0.4-0.4 0.8-0.7 1.4-1.1 -0.7-0.4-1.2-0.9-1.6-1.5C1.1 33.3 1 32.7 1 32 1 31.5 1 31 1.2 30.6c0.1-0.4 0.3-0.8 0.5-1.2 0.2-0.4 0.4-0.8 0.7-1.1 0.3-0.4 0.6-0.7 0.9-1 -0.5-0.5-1-1.2-1.3-1.9 -0.3-0.7-0.5-1.7-0.5-2.8 0-1.2 0.2-2.3 0.7-3.2 0.4-0.9 1-1.7 1.8-2.4 0.8-0.6 1.7-1.1 2.7-1.5 1.1-0.3 2.2-0.5 3.5-0.5 0.6 0 1.3 0 1.9 0.1 0.6 0.1 1.1 0.2 1.6 0.3h7.5v3.8H17.6zM5.3 39.9c0 0.8 0.4 1.5 1.3 1.9 0.8 0.4 2 0.6 3.6 0.6 1 0 1.8-0.1 2.5-0.3 0.7-0.2 1.2-0.4 1.7-0.7 0.4-0.3 0.7-0.6 0.9-1 0.2-0.4 0.3-0.8 0.3-1.2 0-0.4-0.1-0.7-0.3-1 -0.2-0.3-0.4-0.5-0.7-0.7 -0.3-0.2-0.7-0.3-1.1-0.4C13 37 12.5 36.9 12 36.9l-4.6-0.1c-0.4 0.3-0.8 0.6-1 0.8 -0.3 0.3-0.5 0.5-0.6 0.8 -0.1 0.2-0.2 0.5-0.3 0.8C5.4 39.4 5.3 39.7 5.3 39.9zM6.2 22.5c0 1.2 0.3 2.1 1 2.7 0.7 0.7 1.6 1 2.8 1 0.6 0 1.2-0.1 1.7-0.3 0.5-0.2 0.9-0.5 1.2-0.9 0.3-0.4 0.5-0.8 0.7-1.2 0.2-0.5 0.2-1 0.2-1.5 0-1.2-0.3-2.2-1-2.8 -0.7-0.7-1.6-1-2.8-1 -0.6 0-1.2 0.1-1.7 0.3 -0.5 0.2-0.9 0.5-1.2 0.9 -0.3 0.4-0.5 0.8-0.7 1.3C6.3 21.5 6.2 22 6.2 22.5z"/><path class="st5" d="M37.9 23.8c0-0.8 0-1.5-0.1-2.1 -0.1-0.6-0.3-1-0.5-1.4 -0.2-0.4-0.5-0.6-0.9-0.8 -0.3-0.2-0.7-0.3-1.2-0.3 -0.8 0-1.6 0.3-2.4 1 -0.8 0.6-1.7 1.7-2.7 3.1V37h-5.3V15.3h4.7l0.2 3.2c0.4-0.6 0.8-1.1 1.2-1.5 0.4-0.4 0.9-0.8 1.5-1.1 0.5-0.3 1.2-0.6 1.8-0.7 0.7-0.2 1.4-0.3 2.2-0.3 1.1 0 2.1 0.2 2.9 0.6 0.8 0.4 1.6 0.9 2.1 1.7 0.6 0.7 1 1.7 1.3 2.8 0.3 1.1 0.4 2.4 0.4 3.9H37.9z"/><path class="st5" d="M65.5 24.5c0 0.4 0 0.8 0 1.4 0 0.6-0.1 1.1-0.1 1.6H51.1c0 1 0.1 1.8 0.4 2.5 0.3 0.7 0.7 1.3 1.2 1.8 0.5 0.5 1.2 0.9 1.9 1.1 0.7 0.3 1.6 0.4 2.5 0.4 1.1 0 2.2-0.1 3.4-0.2 1.2-0.2 2.5-0.4 3.8-0.8v4.2c-0.6 0.2-1.2 0.3-1.8 0.4 -0.7 0.1-1.3 0.2-2 0.3 -0.7 0.1-1.4 0.2-2.1 0.2 -0.7 0-1.4 0.1-2 0.1 -1.7 0-3.1-0.2-4.4-0.7 -1.3-0.5-2.4-1.2-3.3-2.1 -0.9-0.9-1.6-2.1-2.1-3.4 -0.5-1.4-0.7-2.9-0.7-4.7 0-1.8 0.2-3.4 0.7-4.8 0.5-1.4 1.2-2.7 2.1-3.7 0.9-1 2-1.8 3.2-2.4 1.3-0.6 2.7-0.8 4.2-0.8 1.5 0 2.9 0.2 4.1 0.7 1.2 0.5 2.2 1.1 3 2 0.8 0.9 1.4 1.9 1.8 3.1C65.3 21.8 65.5 23.1 65.5 24.5zM60.2 23.8c0-0.9-0.1-1.6-0.3-2.2 -0.2-0.6-0.5-1.2-0.9-1.6 -0.4-0.4-0.8-0.7-1.4-0.9 -0.5-0.2-1.1-0.3-1.7-0.3 -1.3 0-2.4 0.4-3.2 1.3 -0.8 0.9-1.3 2.1-1.5 3.7H60.2z"/><path class="st5" d="M88.1 24.5c0 0.4 0 0.8 0 1.4 0 0.6-0.1 1.1-0.1 1.6H73.6c0 1 0.1 1.8 0.4 2.5 0.3 0.7 0.7 1.3 1.2 1.8 0.5 0.5 1.2 0.9 1.9 1.1 0.7 0.3 1.6 0.4 2.5 0.4 1.1 0 2.2-0.1 3.4-0.2 1.2-0.2 2.5-0.4 3.8-0.8v4.2c-0.6 0.2-1.2 0.3-1.8 0.4 -0.7 0.1-1.3 0.2-2 0.3 -0.7 0.1-1.4 0.2-2.1 0.2 -0.7 0-1.4 0.1-2 0.1 -1.7 0-3.1-0.2-4.4-0.7 -1.3-0.5-2.4-1.2-3.3-2.1 -0.9-0.9-1.6-2.1-2.1-3.4 -0.5-1.4-0.7-2.9-0.7-4.7 0-1.8 0.2-3.4 0.7-4.8 0.5-1.4 1.2-2.7 2.1-3.7 0.9-1 2-1.8 3.2-2.4 1.3-0.6 2.7-0.8 4.2-0.8 1.5 0 2.9 0.2 4.1 0.7 1.2 0.5 2.2 1.1 3 2 0.8 0.9 1.4 1.9 1.8 3.1C87.9 21.8 88.1 23.1 88.1 24.5zM82.8 23.8c0-0.9-0.1-1.6-0.3-2.2 -0.2-0.6-0.5-1.2-0.9-1.6 -0.4-0.4-0.8-0.7-1.4-0.9 -0.5-0.2-1.1-0.3-1.7-0.3 -1.3 0-2.4 0.4-3.2 1.3 -0.8 0.9-1.3 2.1-1.5 3.7H82.8z"/><path class="st5" d="M104.7 37V22.9c0-2.4-0.9-3.6-2.7-3.6 -0.9 0-1.7 0.4-2.5 1.1 -0.8 0.7-1.7 1.7-2.6 2.9V37h-5.2V15.3h4.5l0.1 3.2c0.4-0.6 0.9-1.1 1.4-1.5 0.5-0.5 1-0.8 1.6-1.2 0.6-0.3 1.2-0.6 1.8-0.7 0.6-0.2 1.4-0.3 2.2-0.3 1.1 0 2.1 0.2 2.9 0.5 0.8 0.4 1.5 0.9 2.1 1.5 0.6 0.7 1 1.5 1.3 2.4 0.3 0.9 0.4 2 0.4 3.1V37H104.7z"/><path class="st0" d="M46 68.2c-0.4 0-0.3 0.2-0.9 0.2 -0.6 0-1-0.2-1-0.2s-1.6 0-1.4 0.4c0.2 0.4 0.5 0.7 1.2 0.5 0.7-0.2 0.9-0.4 1.4-0.4 0.5 0 1.4 0.5 1.5 0C46.9 68.3 46.5 68.2 46 68.2z"/><path class="st0" d="M50.6 73.4c-0.6-0.2-0.7 0.1-1.1 0.4 -0.4 0.3-0.2 0.8-0.2 0.8 0.3 0 0.3-0.1 0.6-0.2 0.3-0.2 0.4-0.2 0.9-0.2 0.5 0.1 0.3 0.2 0.8 0.2C52 74.2 51.2 73.6 50.6 73.4z"/><path class="st0" d="M44.9 97.8c-0.4-0.2-0.5 0.1-1.1-0.3 -0.6-0.4-0.6-0.5-1.2-0.7 -0.6-0.2-1.3-0.2-1.3-0.2s-0.9 0.2-1.1 0.5c-0.2 0.3-0.2 0.4 0.8 0.2 1-0.2 1.3-0.1 1.8 0.2 0.4 0.2 0.4 0.5 1.1 0.7 0.7 0.2 0.7 0.4 1.1 0.2C45.3 98.1 45.3 97.9 44.9 97.8z"/><path class="st0" d="M47.7 98.4c-0.5-0.2-1.2 0-1.8 0.2 -0.6 0.2 0 0-0.2 0.5 -0.2 0.5-0.8 0.1-0.8 0.1 -0.2 0.2 0.1 0.4 0.8 0.4 0.8 0 0.8-0.1 1.3-0.2 0.4-0.2 0.8 0 1.5-0.3C49.3 98.8 48.2 98.6 47.7 98.4z"/><path class="st0" d="M43.7 99.1c0 0-1.1 0.1-0.6 0.3 0.5 0.2 0.6 0.4 0.8 0.2C44.2 99.3 43.9 99.1 43.7 99.1z"/><path class="st0" d="M49.6 99.1c-0.3 0-0.7 0.1-0.7 0.1s-0.2 0.2 0.1 0.3c0 0 0.4 0.2 0.6 0C49.8 99.3 50 99.1 49.6 99.1z"/><path class="st2" d="M45 69.7 40.3 69.7c0.1 0-0.4 0.1-0.3 0.4 0.2 0.4 0 0.2-0.2 0.7 -0.2 0.5 0.1 0.2 0.4 0.6 0.3 0.4 0.5 0.1 1.7 0.3 1.2 0.1 0.2 0.2-0.2 0.4 -0.4 0.2-0.8 0.1-2.2 0 -1.1-0.1-1.1-0.3-1.4-0.5 0 0 0.6-0.8 1-1.1 0.5-0.5 1.6-1.2 1.6-1.2 0.2-0.1 0.4-0.2 0.7-0.4 0.3-0.2 0.3-0.2 0.1-0.3 4.5-3.2 9.8-5.1 15.5-5.1 3.6 0 7.1 0.8 10.3 2.2 -0.7 0.2-1 0.3-1.4 0.3 -0.6 0-1.2 0.5-1.5 0.2 -0.3-0.2-0.7-0.4 0.1-0.5 0.8-0.1 1.1-0.3 0.1-0.4 -1-0.1-0.8-0.2-2.2-0.1 -1.4 0.1-2-0.1-3.6 0.1 -1.6 0.2-1.8 0.3-2.5 0.4 -0.8 0.1-1.8 0.2-1.8 0.2C54 66 53.2 65.7 52.9 66c-0.3 0.3-1.3 0.6-0.7 0.8 0.6 0.2 0.7 0.3 1.3 0.1 0.7-0.2 0.6-0.4 1.2-0.4 0.6 0 2-0.2 1.1 0.4 -0.9 0.6-1.1 0.8-1.9 1.1 -0.8 0.2-0.8 0.4-1.4 0.3 -0.7-0.1-1.3-0.6-1.1-0.1 0.3 0.5-0.1 0.6 0.8 0.6 0.8 0 0.8 0.1 1.7 0.1 0.8 0 0.6 0.2 1.3-0.2 0.8-0.3 0.3-0.2 1.4-0.7 1.1-0.5 1.4-0.6 2.1-0.8 0.7-0.2 1.1-0.4 2.1-0.6 1-0.2 1.4-0.5 2.1-0.2 0.7 0.3 1.3 0.6 0.2 0.7 -1.1 0.1-2.5-0.3-2.7 0.3 -0.2 0.6-1.8 0.8 0.6 0.8 2.3 0.1 2.9-0.3 3.4 0.4 0.5 0.7 0.8 0.5 0.5 1.1 -0.2 0.5 0 0.5 0.3 0.9 0.3 0.4 1.2 0.6 0.3 0.9 -0.8 0.3-1.5-0.4-1.5 1.1 0 1.5 0.2 2.5 1.5 2.9 1.3 0.4 1.1 0.5 1.8-0.2 0.7-0.8 0.3-1.4 1.9-1.9 1.7-0.5 2-0.5 2.9-0.9 0.9-0.5 0.7-0.8 2.3-0.9 0.8-0.1 1.2 0 1.4-0.1l0 0c2.2 2.1 4.1 4.7 5.6 7.5 -0.2 0.1 0 0.1-0.1 0.3 -0.1 0.2 0.1 0.2 0.1 0.6 0 0.4-0.3 0.4-0.2 0.8 0.1 0.4 0.5-0.1 1.1-0.2 0.7 1.4 1.3 2.9 1.8 4.4 -0.2 0-0.5 0-0.7 0 -0.5 0-1.4-0.1-1.6-0.1 -0.2 0-0.4 0.1-0.4 0.5 0 0.4 0.3 0.4 0.1 1 -0.2 0.6-0.5 0.6-0.3 1.1 0.2 0.5 0.4 0.7 0.7 0.8 0.3 0.1 0.2 0.1 0.7 0.4 0.5 0.2 0.6 0.1 1-0.1 0.4-0.1 0.3 0.3 1.2-0.2 0.1-0.1 0.2-0.1 0.3-0.2 0.1 0.4 0.2 0.8 0.2 1.2 -0.2 0.1-0.4 0.2-0.9 0.1 -0.8-0.1-0.9-0.6-1.6-0.1 -0.7 0.5-0.7 0.8-1.3 1.2 -0.7 0.4-0.7 0.2-0.9 0.8 -0.2 0.6 0.2 1.6-0.7 1.9 -0.9 0.4-0.7 0.1-1.5 1 -0.7 0.9-1.1 1.5-1.5 2.2 -0.4 0.7-0.7 1.3-0.5 1.6 0.2 0.4 0.7-0.2 0.4 1 -0.3 1.2-0.5 1.6-0.4 2.2 0.1 0.6 1.1 2.1 1.4 2.6 0.3 0.5 1.5 1 1.9 1.7 0.4 0.8 0.7 1.3 1.5 1.3 0.8 0 0.5-0.2 1.5-0.3 0.5 0 1 0.1 1.4 0.2 -0.3 0.9-0.6 1.7-0.9 2.5 0 0.1-0.8 2.5-0.8 2.5 -1 3.1-2.3 7-2.3 11.4v18c0 5.3-1.9 11.7-6.1 14 -3.5 1.9-5.8 3.7-5.8 6.6l0 0c0 4.5-7 6-10.4 6 -3.1 0-11.7-1.4-11.7-6l0 0c0-3.1-2.8-4.7-5.7-6.5l-0.2-0.1c-3.8-2.3-6-7.5-6-14v-18c0-4.4-1.3-8.3-2.3-11.4 0 0-0.8-2.4-0.8-2.5 -1.6-3.9-2.5-8.1-2.6-12.5 0-0.2 0-0.5 0-0.7 0.2 0.3 0.4 0.6 0.5 0.9 0.6 1-0.2 0.7-0.2 1.3 0 0.6 0.2 0.4 1.6 1.4 1.3 1 2.8 0.7 3 0.5 0.2-0.1 0.7 0 1.5 0.7 0.8 0.7 0.9 0.5 1.7 0.9 0.8 0.4 0.5 0.2 1 0.6 0.5 0.4 0.5 0 0.9 0.1 0.4 0.1 0.2 0.5 0.2 1 0.1 0.5 0.2 0.3 1.1 0.3 0.9 0 0 0 0.3 0.4 0.3 0.4 0.2 0.3 0.7 0.6 0.5 0.3 0.2 0.3 0.6 0.4 0.3 0.1 0.1-0.2 0.2-0.6 0.2-0.4 0.5 0 0.8 0.3 0.3 0.3 0.6 0.7 0.6 0.7s0.1-0.2 0.2-0.7c-0.2 1.5 0.2 1.7-0.3 2.7 -0.5 1.1-0.4 1.3-1.1 1.6 -0.7 0.3-0.7 0.4-0.6 0.9 0.1 0.5 0 0.8-0.3 1.4 -0.2 0.6 0.4 1.1 1 2.1 0.6 1 1.7 3.3 2.1 3.9 0.4 0.5 0.5 0.6 1.8 1.3 1.3 0.7 1.8 0.8 1.9 1.6 0.1 0.8 0.3 2.4 0.2 3.4 -0.1 1-0.1 1.2-0.1 2.4 0 1.1 0.5 1.5 0.4 2.4 -0.1 0.8-0.4 1.1-0.2 2.1 0.2 1 0.2 1 0.3 1.6 0.1 0.6 0.1 0.4 0.3 0.8 0.3 0.5 0.4 0.5 0.3 0.8 -0.1 0.4-0.2-0.3-0.4-0.3 -0.3 0-0.4-0.5-0.3 0 0.2 0.5 0.3 0.8 0.3 0.8s0.2 0.9 0.3 1.1c0.1 0.2-0.3 0.1 0.1 0.2 0.4 0.1 0.4-0.2 0.4 0.1 0 0.3-0.3 0.4-0.3 0.6 0.1 0.2-0.2-0.5 0.1 0.2 0.3 0.7 0.3 0.5 0.4 0.9 0.2 0.4-0.2-0.1 0.2 0.4 0.4 0.5 0.6 0.5 0.6 0.5l0.5 0.3c0 0 0.1-0.1 0.2 0.2 0.1 0.3-0.1-0.1 0.1 0.3 0.2 0.4-0.1 0.3 0.4 0.5 0.5 0.2-0.2-0.1 0.5 0.2 0.7 0.3 1 0.5 1 0.5s-0.4 0.1 0.2 0.1c0.1 0 0.2 0 0.2 0 0 0 0 0 0 0 0 0 0.2 0 0.4 0 0.8 0 0.8 0.1 1.1 0 0.2-0.1 0.3-0.2 0.1-0.3 -0.2-0.2-0.2-0.2-0.5-0.3 -0.2-0.2-0.2-0.2-0.5-0.4 -0.3-0.1-0.3-0.6-0.6-0.5 -0.3 0.2 0 0.3-0.3 0.2 -0.3-0.2-0.3-0.2-0.3-0.2s-0.4-0.1 0-0.3c0.4-0.2 0.6 0.3 0.4-0.2 -0.2-0.5-0.2-0.2-0.2-0.5s0.1-0.2 0.2-0.5c0.2-0.3 0.1 0.5 0.2-0.3 0.1-0.8 0.2-0.5 0.1-0.8 -0.1-0.3-0.3-0.2-0.5-0.6 -0.3-0.4-0.3-0.3-0.3-0.6 0-0.3-0.5 0.2 0-0.3 0.5-0.5 0.4-0.1 0.5-0.5 0.1-0.5 0.2-0.3 0.2-0.8 0-0.5 0-0.3-0.3-0.6 -0.2-0.3-0.5 0.1-0.2-0.3 0.2-0.4 0.3-0.4 0.6-0.5 0.3-0.1 0.3-0.2 0.3-0.4 0-0.2-0.1-0.5 0.4-0.5 0.5 0 0.5 0.6 1.2 0 0.7-0.6 0.8-0.3 0.7-0.9 -0.1-0.6 0.1-0.5-0.2-0.8 -0.3-0.4-0.4 0-0.3-0.4 0.2-0.4 0.7-0.1 1.3-0.3 0.7-0.2 1.1-0.8 1.3-1.1 0.2-0.2 0.5-0.5 0.6-0.8 0.1-0.2 0.3-0.4 0.3-0.7 0.1-0.3-0.3-0.2 0.1-0.6 0.4-0.4 0.3-0.1 0.4-0.4 0.1-0.3 0.2 0.1 0.1-0.6 -0.1-0.7-0.2-1 0.8-1.7 0.9-0.7 1.1-0.7 1.6-0.7 0.5 0 1-0.6 1.3-1 0.3-0.4 0.3-0.4 0.7-1.1 0.3-0.8 0.3-0.8 0.3-1.5 0-0.7-0.3-1.1 0.1-1.9 0.4-0.8 1.9-2.1 2-3 0.1-0.8 0.9-1.1-0.2-1.5 -1.1-0.4-0.8-0.3-1.8-0.8 -1-0.5-0.5-0.5-1.7-0.8 -1.2-0.3-0.9-0.1-1.8-0.5 -0.8-0.5-1-0.1-1.7-0.7 -0.7-0.6-1.1-0.6-1.3-1.1 -0.2-0.5 0-0.7-0.5-1.2 -0.5-0.5-1.7-1-2.4-1.1 -0.8-0.1-0.3 0.2-1.4-0.8 -1.1-1.1-0.3-0.8-1.5-1.2 -1.2-0.5-1.4-0.5-2.4-0.6 -1-0.1-0.7 0.3-1.3-0.2 -0.5-0.5 0.3-0.5-0.5-0.5 -0.8-0.1-0.1-0.4-0.8-0.1 -0.8 0.3-0.5 0.8-0.8 0.3 -0.2-0.5 0.3-0.9-0.2-0.6 -0.6 0.3-1 0.7-1 0.7s-1.2 0.2-1.7 1.1c0 0 0-0.1 0-0.1s-0.3 0-0.7-0.3c-0.4-0.3-0.2-0.3-0.7-0.3 -0.4 0-0.6 0.7-0.9 0.7 -0.3 0.1-0.4-0.1-0.7-0.6 -0.2-0.5-0.2-0.7-0.2-0.7s-0.3-1.1-0.1-1.4c0.2-0.3-0.1-0.7-0.2-1 -0.1-0.3-0.7-0.5-1.4-0.4 -0.7 0.1-1 0.3-1.2-0.3 -0.2-0.6 0.6-1.2 1.1-1.9 0.5-0.7 0.3-0.8-0.3-0.8 -0.7 0-1.1 0.3-1.4 0.8 -0.3 0.4-0.5 0.7-1.2 0.8 -0.7 0.1-1.2 0.1-1.7-0.1 -0.5-0.1-0.7-1.1-0.8-1.9 -0.2-0.8 0.3-1.2 0.6-1.7 0.3-0.5 0.2-0.7 0.4-1.4 0.2-0.7 0.7-0.7 2-1.2 1.3-0.5 0.6 0 1 0.1 0.4 0.2 0.6 0.2 1 0.3 0.4 0.1 0.4-0.2 0.4-0.2s0-0.4 0-0.6c0-0.2 0.2-0.1 0.8-0.1 0.6 0 0.9 0.1 1.4 0.1 0.5 0.1 1.1 0.2 1.1 0.2s0.1 0.4 0.1 1.3c0 0.9 0.6 1.3 1.1 1 0.5-0.2 0.1-0.7 0.1-1.5 0-0.7-0.1-1 0.1-1.7 0.2-0.7 0.4-0.6 1.1-1 0.7-0.4 0.7-0.5 1.3-0.8 0.6-0.3 0.9-0.4 1.1-0.7 0.2-0.4 0-0.5-0.1-0.8 -0.1-0.3-0.1-0.4 0-0.7 0.1-0.4 0.2 0 0.7 0.1 0.4 0.1 0 0 0.5-0.4 0.5-0.4 0.6-0.7 1.2-1.1 0.6-0.4 0.7-0.5 1.5-1 0.7-0.4 0.9-0.9 1.4-1 0.5-0.1 0.4 0.1 0.7 0.2 0.3 0.1 0.8 0.1 1.4-0.1 0.6-0.2 0.8 0.2 1.5 0 0.7-0.2 0.9-0.6 1.3-0.9 0.4-0.3-0.7-0.4-1-0.2 -0.3 0.3-1.3 0-1.5-0.4 -0.2-0.4 0.2-0.4 0.7-0.7 0.4-0.3-0.8-0.3-1.2-0.2 -0.4 0.2-0.9 0.2-0.8-0.1 0.1-0.2 0.8-0.5 1.4-0.8 0.6-0.3 0.8 0 1.6 0 0.7 0 0.8 0.1 1.5 0.1 0.7 0 0.5-0.3 1-0.6 0.5-0.3 0.5 0 0.5 0.4 0 0.5-0.3 0.5-0.8 0.9 -0.5 0.4-0.6 0.4-0.7 0.7 -0.1 0.3 0.9 0.1 1.7 0.1 0.8 0 0.6 0.2 1 0.2 0.4-0.1 0.2-0.6-0.2-1 -0.3-0.4-0.7-0.4-0.7-0.7 0-0.3-0.2-1 0.4-1.3 0.6-0.2 0-0.6-0.2-1 -0.3-0.5-1.2-0.5-1.6-1 -0.3-0.5 0.1-0.4 0.2-1 0.1-0.6-0.2-0.7-0.4-1 -0.2-0.4-0.5 0-1.1 0.5 -0.6 0.5-0.7 0.4-1.2 0.4 -0.5-0.1 0-0.2 0.2-0.7 0.2-0.5-0.5-1.2-1.5-1.3 -1-0.1-1.2-0.3-1.6 0.1 -0.3 0.5-0.4 0.7-1 1.3 -0.6 0.6 0 0.4-0.4 1.6 -0.4 1.1-0.9 0.5-1.5 0.8 -0.6 0.4-0.3 0.7-0.7 1.6 -0.4 0.8-1.1 0.4-1.4 0 -0.3-0.4 0.2-1.2 0.5-1.6 0.2-0.4-0.4-0.2-1.2-0.3 -0.7-0.1-1.1-0.5-1.6-0.7 -0.5-0.2-0.7-0.3-1.1-0.7 -0.3-0.4-0.1-0.4 0.2-1 0.2-0.6 0.4-0.4 1.2-0.9 0.8-0.5 1.1-0.4 2.2-0.7 1.1-0.4 1.4-0.8 2.1-1.1 0.7-0.3 0.2-0.3 0.2-0.7 -0.1-0.4 0.1-0.4 0.6-0.7 0.5-0.4-0.1-0.4-0.5-0.4 -0.4 0-0.3-0.1-0.5-0.6 -0.2-0.5 0-0.5 0.4-0.7 0.4-0.3 0.4-0.2 1.2-0.4 0.8-0.3 0 0 0.2 0.5 0.2 0.5 0 0 0.2 0.7 0.2 0.7 0.2 0.1 0.2 0.6 -0.1 0.5-0.3 0.3-0.8 0.6 -0.5 0.3-0.2 0.2-0.5 0.7 -0.2 0.5 0.3 0 0.8 0 0.5 0 0.4 0 0.8-0.1 0.4-0.1 0.3-0.3 0.6-0.4 0.2-0.2 0.2-0.5 0.2-0.8 0-0.4 0.3-0.2 1-0.2 0.7 0 0.8 0 1.4 0.1 0.6 0.1 0.7 0.4 1.1 1 0.3 0.6-0.4 0.4-1.1 0.8 -0.7 0.5-0.5 0.1-1.2 0.2 -0.7 0.1-0.8 0.3-0.7 0.7 0.1 0.4 0.4 0 1.2 0s0.4 0.1 0.7 0.2c0.3 0.1 0.3 0.2 0.7 0.5 0.3 0.3 0.3 0.2 1.2 0.1 0.8-0.2 0 0 0.2-0.6 0.2-0.6 0 0 0.2 0.1 0.2 0.1 0.5 0.1 1 0.1 0.5 0 0.4-0.3 0.5-0.6 0.1-0.3-0.6-0.3-0.9-0.8 -0.3-0.5 0.7 0.1 1.1 0.1 0.4 0 0.5 0 0.9-0.1 0.4-0.2 0-0.4-0.2-0.8 -0.2-0.4-0.5-0.1-1.2-0.3 -0.7-0.1-0.1-0.4-0.1-0.8 0-0.4-0.5-0.4-0.9-0.9 -0.4-0.4-1.1-0.4-2-0.7 -1-0.3-0.7-0.3-1.3-0.3 -0.7 0-1.7 0.1-2.2 0.3 -0.5 0.1-0.6-0.6-0.9-0.4 -0.3 0.2-0.4 0.2-0.8 0.4 -0.4 0.2-0.6 0.2-1.1 0.2 -0.5 0 0 0-0.2-0.4 -0.2-0.5 0 0-0.5 0.1 -0.5 0.1 0 0-0.7 0.1 -0.7 0.1-0.7 0.2-1 0.5 -0.2 0.3 0.1 0.3 0.5 0.4 0.4 0.1 0.7-0.1 1.2-0.1 0.4 0 0.1 0.3-0.3 0.5 -0.4 0.1-0.1 0.2-0.1 0.9 0 0.7-0.6 0.4-1.1 0.7 -0.5 0.3-0.4-0.2-0.2-0.4 0.2-0.2 0.2-0.3 0.3-0.7 0.1-0.4-0.3 0.1-0.9 0.7 -0.6 0.7 0 0-0.8 0.2 -0.8 0.2-0.6 0.1-1.5 0.1 -0.9-0.1-0.5-0.2-0.4-0.7 0.1-0.5 0.5-0.1 1.2-0.2 0.7-0.1 0.5 0 1.1 0 0.6 0 0.4-0.3-0.3-0.4 -0.7-0.1-0.3-0.2-0.4-0.7 -0.1-0.5 0.7-0.2 1.2-0.6 0.5-0.4-0.5 0-1.2 0.1 -0.7 0.1-0.2 0.1-0.9 0.1 -0.7 0-0.7 0-2.3 0.1 -1.6 0.1-0.4 0-0.9-0.1 -0.1 0-0.1 0-0.2-0.1 -0.1 0.1-0.2 0.1-0.4 0.2"/><g class="st3"><path class="st0" d="M-105.6 78.6c0 0 0-0.1-0.1-0.1C-105.7 78.7-105.6 78.7-105.6 78.6z"/><path class="st0" d="M-110.7 31.3c-15.8 0-28.7 14.5-28.7 32.3 0 4.7 0.9 9.3 2.6 13.5 0 0.1 0.8 2.5 0.8 2.5 1 3.1 2.3 7 2.3 11.4v18c0 6.5 2.3 11.7 6 14l0.2 0.1c2.9 1.8 5.7 3.4 5.7 6.5l0 0c0 4.6 8.5 6 11.7 6 3.4 0 10.4-1.5 10.4-6l0 0c0-2.9 2.3-4.7 5.8-6.6 4.2-2.2 6.1-8.6 6.1-14V91c0-4.4 1.3-8.3 2.3-11.4 0 0 0.8-2.4 0.8-2.5 1.8-4.3 2.6-8.8 2.6-13.5C-82 45.8-94.8 31.3-110.7 31.3zM-122.7 37.3"/></g><path class="st5" d="M33.4 138.8c-0.2 0.7-0.1 1.1 0.3 1.3 2.8 1.7 12.1 6.7 23.9 6.7 11.7 0 20.2-4.9 22.8-6.7 0.5-0.3 0.6-0.7 0.3-1.4 -0.3-0.7-0.8-0.4-1.4 0 -2.6 1.7-10.8 6.1-21.7 6.1 -11.2 0-20.4-4.7-23-6.2C34.1 138.3 33.6 138.1 33.4 138.8z"/></svg>