<svg xmlns="http://www.w3.org/2000/svg" viewBox="0 0 246 234"><style type="text/css">  
	.Arched_x0020_Green{fill:url(#SVGID_1_);stroke:#FFFFFF;stroke-width:0.25;stroke-miterlimit:1;}
	.st0{fill:#231F20;}
</style><linearGradient gradientUnits="userSpaceOnUse" x1="-336.5" y1="308" x2="-335.8" y2="307.3"><stop offset="0" stop-color="#1EAB4B"/><stop offset="0.9831" stop-color="#19361A"/></linearGradient><path class="st0" d="M151.7 22.3C124.7 35 99 60.3 64 74S0 87.3 0 87.3V234c20.7 0 38.7-5 61.3-12s47-22.3 74-40 56.3-25.3 69.7-28.3 41-4.7 41-4.7 0-120.3 0-149C198.7 0 178.7 9.7 151.7 22.3zM234.3 9.3v11.3l-7.2 0.7 -0.3-11.2L234.3 9.3zM214.5 11.3v11.5l-7 0.8 -0.2-10.5L214.5 11.3zM187.8 17.2l7.3-2v11.7l-7.3 1.8V17.2zM168.5 24.5l7.2-3.3v11l-7.3 3.5L168.5 24.5zM155.7 29.8v12.5l-6.8 3.8 -0.2-12.3L155.7 29.8zM136.7 41.5v12.2l-7.2 4.7 -0.2-12.5L136.7 41.5zM109.8 59.7l7.2-5.5 -0.2 13.3 -7.2 4.3L109.8 59.7zM90 71.5l7.5-4 0.2 11.7L90 82.7V71.5zM51 88l7.3-2.8 -0.2 10.5L51 98.5V88zM31.3 93.2l7.5-2 -0.2 10.3 -7.3 1.5V93.2zM12 96.2l7-1.5v10.8l-7.2 0.8L12 96.2zM19 221.5l-7.2 0.8 0.2-10.2 7-1.5V221.5zM38.7 217.5l-7.3 1.5v-9.8l7.5-2L38.7 217.5zM58.2 211.7l-7.2 2.8V204l7.3-2.8L58.2 211.7zM11.7 200.7l-0.1-83.8c0 0 24.4-1.2 58-12.9 2.8-1 5.6-2 8.3-3.1l-0.3 79.2c-3.2 1.5-6.7 3-10.4 4.6C47.8 192.7 24.5 199.7 11.7 200.7zM77.8 205.3l-7.2 2.5v-10l7.2-3.8V205.3zM77.8 89.2l-7.2 2.5v-10l7.2-3.8V89.2zM90 198.2V187l7.5-4 0.2 11.7L90 198.2zM116.8 183.5l-7.2 4.3 0.2-12.2 7.2-5.5L116.8 183.5zM136.7 169.7l-7.2 4.7 -0.2-12.5 7.3-4.3V169.7zM156 159.3l-6.8 3.8 -0.2-12.3 7-4V159.3zM155.9 134.7c-6.9 3.5-14.1 7.4-21.7 11.6 -16.7 9.4-27.5 18.3-44.5 27.6l1-78.7c22.3-10.8 42.1-24.7 58.4-35.5 2.3-1.5 4.7-3 7.1-4.5L155.9 134.7zM175.7 150.2l-7.3 3.5 0.2-11.2 7.2-3.3V150.2zM195.2 144.8l-7.3 1.8v-11.5l7.3-2V144.8zM214.5 140.8l-7 0.9 -0.2-11.4 7.2-2V140.8zM234.3 138.9l-7.2 0.7 -0.3-12.4 7.5-0.9V138.9zM234.4 114.7c0 0-21.3 1.7-37.1 4.7 -9.3 1.8-18.8 5-28.8 9.4l-0.1-80.2c20.9-10.4 45.7-18.2 66-18.2C234.4 46.4 234.4 114.7 234.4 114.7zM23.4 127.2c0 0 28.8-3.8 43.6-12.2 0 0-19.6 13.4-27.1 26.2s-14.5 30.3-16.2 44.5C23.7 174.4 23.4 127.2 23.4 127.2zM100.7 100.5c0 0 23.8-11.5 41.8-26.7 0 0-18.5 18.8-26.5 36.8 -6 13.5-12.2 30-15 44.7C101 144.1 100.7 100.5 100.7 100.5zM179.7 55.2c0 0 15.3-8.3 41.9-12.2 0 0-16 9.5-25.3 27.8C189.6 84 182.8 98.3 180 113 180 101.8 179.7 55.2 179.7 55.2z"/></svg>