<?xml version="1.0" encoding="utf-8"?>
<!-- Generator: Adobe Illustrator 20.1.0, SVG Export Plug-In . SVG Version: 6.00 Build 0)  -->
<svg version="1.1" xmlns="http://www.w3.org/2000/svg" xmlns:xlink="http://www.w3.org/1999/xlink" x="0px" y="0px"
	 viewBox="0 0 1101 274.3" style="enable-background:new 0 0 1101 274.3;" xml:space="preserve">
<style type="text/css">
	.st0{fill:none;stroke:#EF4223;stroke-width:5;}
	.st1{fill:#EF4223;}
	.st2{fill:#FFFFFF;stroke:#000000;stroke-width:2.9875;}
	.st3{fill:none;stroke:#000000;stroke-width:1.4801;stroke-linecap:round;}
	.st4{fill:none;stroke:#000000;stroke-width:2.9875;stroke-linecap:round;}
	.st5{fill:#D1D3D4;stroke:#000000;stroke-width:1.4801;stroke-linecap:round;}
	.st6{fill:#FFFFFF;stroke:#000000;stroke-width:2.9602;}
	.st7{fill:none;stroke:#000000;stroke-width:2.9602;}
	.st8{fill:none;stroke:#000000;stroke-width:2.9602;stroke-linecap:round;}
	.st9{fill:#EF4423;}
	.st10{fill:#FFFFFF;}
</style>
<g id="Layer_2">
</g>
<g id="Layer_8">
	<g>
		<line class="st0" x1="847.5" y1="258.3" x2="847.5" y2="175.2"/>
		<path class="st1" d="M847.5,264.6c3.6,0,6.5-2.9,6.5-6.5c0-3.6-2.9-6.5-6.5-6.5c-3.6,0-6.5,2.9-6.5,6.5
			C841,261.7,843.9,264.6,847.5,264.6L847.5,264.6z"/>
	</g>
	<g>
		<path class="st1" d="M881.7,272.3c-0.9,0.5-2.5,0.8-4.5,0.8c-6.9,0-10.9-5.7-10.9-15c0-11.7,6.2-15.8,11.6-15.8c2,0,3.3,0.4,4,0.8
			l-0.9,4c-0.7-0.3-1.4-0.6-2.9-0.6c-3.3,0-6.7,3-6.7,11.3c0,8.1,3.1,11.1,6.7,11.1c1.1,0,2.2-0.2,3-0.5L881.7,272.3z"/>
		<path class="st1" d="M890.8,242.5V255h7.2v-12.6h4.8v30.3H898v-13.4h-7.2v13.4h-4.8v-30.3H890.8z"/>
		<path class="st1" d="M913.3,264.9l-1.6,7.9H907l6.8-30.3h5.6l6.3,30.3h-4.7l-1.6-7.9H913.3z M918.8,261.1l-1.3-7
			c-0.4-2-0.8-4.8-1.1-6.9h-0.1c-0.3,2.1-0.8,5-1.1,6.9l-1.3,7H918.8z"/>
		<path class="st1" d="M930,242.9c1.7-0.4,3.8-0.6,5.8-0.6c3.1,0,5.7,0.5,7.5,2.2c1.7,1.6,2.3,3.6,2.3,6.2c0,3.5-1.7,6.3-4.8,7.6
			v0.1c2.1,0.8,3.2,2.8,3.8,6.4c0.7,3.7,1.4,6.9,1.9,8h-5c-0.4-0.9-1-3.8-1.6-7.4c-0.6-3.9-1.7-5.2-4.1-5.2h-1.1v12.6H930V242.9z
			 M934.8,256.5h1.3c2.9,0,4.7-2.2,4.7-5.4c0-3-1.2-5-4.3-5c-0.6,0-1.2,0-1.6,0.2V256.5z"/>
		<path class="st1" d="M966.8,272c-1.3,0.5-3.8,1.1-5.9,1.1c-3.1,0-5.7-0.9-7.7-3c-2.4-2.5-3.8-6.8-3.8-12.2
			c0.1-11.4,6.3-15.7,12.2-15.7c2.1,0,3.7,0.4,4.7,0.9l-0.9,4.1c-0.8-0.4-1.9-0.7-3.5-0.7c-3.9,0-7.5,2.9-7.5,11.4
			c0,8.2,3.1,11,6.3,11c0.8,0,1.3-0.1,1.6-0.2v-8.5h-3.2v-3.9h7.7V272z"/>
		<path class="st1" d="M984.3,259h-7.2v9.6h8.2v4.2h-13v-30.3h12.5v4.2h-7.6v8.3h7.2V259z"/>
		<path class="st1" d="M990.1,242.9c1.7-0.4,3.8-0.6,5.8-0.6c3.1,0,5.7,0.5,7.5,2.2c1.7,1.6,2.3,3.6,2.3,6.2c0,3.5-1.7,6.3-4.8,7.6
			v0.1c2.1,0.8,3.2,2.8,3.8,6.4c0.7,3.7,1.4,6.9,1.9,8h-5c-0.4-0.9-1-3.8-1.6-7.4c-0.6-3.9-1.7-5.2-4.1-5.2h-1.1v12.6h-4.8V242.9z
			 M994.9,256.5h1.3c2.9,0,4.7-2.2,4.7-5.4c0-3-1.2-5-4.3-5c-0.6,0-1.2,0-1.6,0.2V256.5z"/>
	</g>
	<g>
		<path class="st2" d="M729.7,150.4c-2,2.1-1.2,2.6-6.2,5.5c-5,3-25.5,8.4-31.8,9.2c-2.8,0.1-2.8,0.1-2.8,0.1s1.7,12.7,1,14.1
			c-0.7,1.4-1.3,1.1-9.4,2.6c-7.6,1.4-24.1,2.6-27.2,3.3c-3.2,0.7-4.3,1.1-7.6,1.2c-3.6,0.1-1.3-14.9-3.5-14.6
			c-2.2,0.4-52.5,4.9-78.4,5.4c-26,0.5-85.4,3.7-135.1,2.5c-49.7-1.2-144.5-3.6-200.9-8.2c-56.5-4.5-142.2-15.1-169.8-18.9
			c-23.8-3.3-39.4-5.2-45.7-7c0,0-1.5,0.1-4.3,1.3c-2.8,1.2-4,1.3-4.1,6c-0.1,4.8,2.1,53.4,2.5,61.2c0.4,7.8,1.4,22.5,3.6,26
			s11.3,6.9,22.5,7.8c11.2,1,92.1,8.3,125.4,10.9c33.3,2.6,207.1,13.2,266.3,13.7c59.1,0.4,148.3-3.8,197.9-9.4
			c49.5-5.5,51.8-7.5,63-9.9c11.1-2.4,31.2-8.5,36-13.6c4.9-5.1,7.4-8.2,8.2-16.6c0.8-8.3,1.4-25.4,2.1-36.6c0.7-11.2,1.1-28,1-29.9
			C732.1,154.9,730.7,149.4,729.7,150.4z"/>
		<path class="st2" d="M144.1,163.9c0.3,1.7,0.1,3.3-0.1,4.8c-0.2,1.4-1.6,2.2-2.3,2.7c-0.7,0.5-1.1,3.1-0.6,5
			c0.5,1.9,3.4,12.8,13.9,17.8c10.6,5,29.6,6,37.4,6.6c7.8,0.5,58.5,5,71.8,5.6c13.3,0.7,82.5,4.9,91.5,4.7c9-0.2,25.9,1.1,33.1-8.1
			c7.2-9.2,4.5-12.9,4.7-15.5c0.2-2.6,1.3-4.3,2.3-5.7c0.9-1.4,0.4-2.6,0.4-2.6"/>
		<path class="st3" d="M398.2,183.3c1.2,0,38.5,1.3,87.5,1.3c15,0,117.3-4.4,130.6-5.7c13.3-1.2,23.6-2.3,24.3-2.6"/>
		<path class="st3" d="M692.7,168.7c0,0,9.7-1.4,17.7-3.9c9.5-2.9,16.8-7,18.9-10.4"/>
		<path class="st3" d="M7,150.8c0,0,6,3.5,19.3,5.3c21.7,3,55.1,6.6,65.5,7.7c41.1,4.3,48.8,3.8,48.8,4"/>
		<path class="st3" d="M147.2,168.1c3.6,0.4,62.1,7.7,123.5,11c61.3,3.2,106.7,3.5,120.7,3.4"/>
		<path class="st4" d="M141.4,173.7c0.9-1.4,4-1.7,7.3-1.3c3.3,0.4,63.5,6.5,111.8,9.3c48.3,2.8,122.2,4.8,126.9,4.2
			c4.7-0.6,5.5,0.8,6,3"/>
		<path class="st2" d="M27.5,76.7c0,0,9.1-17.9,21.4-23.2c12.2-5.3,29.2-10.7,69.9-21.1C159.3,22,218.2,7.8,264.7,4
			c46.5-3.8,72.7-3.7,120.4,3.8c47.7,7.6,117.3,22.2,143.7,28.7c26.4,6.4,58.6,15.9,69.1,21c10.6,5.2,14.2,10.8,16.5,16.8
			c6.7,1.4,28.3,6.4,54.5,14.7c26.1,8.3,58,17.5,60.8,28.5c2.8,11,2.9,16.4,2.7,21.2c-0.2,4.8-0.8,9.5-2.6,11.8
			c-1.9,2.3-1.2,2.6-6.2,5.5c-5,3-25.5,8.4-31.8,9.2c-2.8,0.1-2.8,0.1-2.8,0.1l-0.8-10.1c0,0-0.4-2.2-7.9-0.5
			c-7.6,1.7-26.8,3.1-30,3.8c-3.2,0.7-4.1,2.9-4.9,6.4c-0.9,3.5-0.8,6.7-3,7c-2.2,0.4-52.5,4.9-78.4,5.4c-26,0.5-85.4,3.7-135.1,2.5
			c-49.7-1.2-144.5-3.6-200.9-8.2c-56.5-4.5-142.2-15.1-169.8-18.9c-27.6-3.9-44.1-5.7-48-7.9c-3.8-2.1-8.9-3-8-16.9
			c1-14,2.9-26.3,10.4-35C19.7,84.2,26.2,78,27.5,76.7z"/>
		<path class="st4" d="M4.2,111.4c0,1.6,3.2,3.7,8.9,5.5c5.7,1.8,35.9,7.2,48.3,8.2c12.4,1,68.2,7.8,117.4,11.2
			c49.1,3.4,168.3,10.1,248.1,9.7c79.8-0.4,175.3-4.9,222-10.7c37.8-4.6,59.4-9.8,67.1-13.2c5.9-2.7,9.7-7.4,10.3-9.6"/>
		<path class="st4" d="M43.6,60.6c5.1-0.4,67.5,2.4,88.7,3.2c21.2,0.8,91.7,7,149.3,10.2c57.7,3.2,115.1,6.1,170.2,9.4
			c55.2,3.3,92.5,2.2,115,0.8c22.5-1.4,40.1-4.1,46.7-9.6"/>
		<path class="st3" d="M33.4,75c5.1-0.1,49.4,1.8,64.3,2.5c14.9,0.6,109.7,6.6,155.7,9.4c46,2.8,84.3,4.3,112.5,6.5
			c28.2,2.3,124,7.9,165.4,7.3c36.3-0.5,64.6-1.5,77.3-13.6c1.8-1.7,4.1-4.7,5.5-8.3"/>
		<path class="st5" d="M643.9,179.4l3.5,2.7c0,0,33-3.4,33.5-4c0.5-0.6,1.8-7.1,1.8-7.1s0-5.7-0.3-6.6c-0.3-0.9-3.3-6.7-4.2-6.6
			c-0.8,0.2-26,2.8-26.9,3c-0.8,0.2-4.7,2.4-5.9,3.2"/>
		<polyline class="st3" points="683.2,165.3 686.5,165.3 687.6,166.6 687.7,170.5 686.8,171.5 683.4,171.6 		"/>
		<polyline class="st3" points="643.6,173.4 665.2,171.4 665.1,168.2 651.6,161.5 		"/>
	</g>
	<g>
		<path d="M1097,171.9c-7.9-11.4-0.3-23.9,0-24.4c0.4-0.7,0.2-1.6-0.5-2c-0.7-0.4-1.6-0.2-2,0.5c-0.2,0.3-2.1,3.5-3.3,8.1H910.9v3
			h179.8c-0.7,4.9-0.1,10.8,3.9,16.6c3.5,5,3.9,9.5,3.4,13h-187v3h186.3c-1,2.7-2.4,4.4-2.5,4.5c-0.5,0.6-0.5,1.6,0.1,2.1
			c0.3,0.2,0.6,0.4,1,0.4c0.4,0,0.8-0.2,1.1-0.5C1097,195.9,1106.2,185.1,1097,171.9z"/>
		<path class="st6" d="M943.4,171.1c0,1.1,0.1,3.3,0.1,6.8c-0.1,3.4-1,7.5-1.9,9.4c-0.9,1.9-2.8,1.8-5.8,1.8c-3-0.1-10.1,0.6-12,1
			c-1.8,0.4-2.4,0.4-2.7-0.4c-0.3-0.8-0.7-7.9-0.8-10.1c-0.1-2.3-0.6-4.3-2.6-4.3c-2,0-3.1,2-3.2,3.7c-0.1,1.7-0.3,13.8-0.7,14.1
			c0.1,0.4-2.7,2-4.8,2.9c-2.1,0.8-6.9,3-12.3,6.2c-5.4,3.2-9.6,4.6-12.1,5.3c-2.5,0.6-5.1,0-5.8-0.6c-0.7-0.6-3.4-0.7-4-0.7
			c-0.6,0-44.3,0-46.3-0.1c-2-0.1-2.2-0.1-3.3-1.6c-1.1-1.5-2.5-6.8-2.7-7.1c-0.2-0.3-1-0.6-2.2-0.7c-1.2-0.1-2.7-0.6-3.4-1.4
			c-0.7-0.8-0.6-5.2-0.6-5.2s-26.6-0.1-28.7-0.1c-2.2,0-2.4-1.4-2.4-2.5c0-0.5,0-8.4,0-16.3c0-7.8,0-15.7,0-16.3
			c0-1.1,0.3-2.5,2.4-2.5c2.2,0,28.7-0.1,28.7-0.1s-0.1-4.4,0.6-5.2c0.7-0.8,2.2-1.3,3.4-1.4c1.2-0.1,2-0.4,2.2-0.7
			c0.2-0.3,1.6-5.6,2.7-7.1c1.1-1.5,1.3-1.5,3.3-1.6c2-0.1,45.7-0.1,46.3-0.1c0.6,0,3.3-0.1,4-0.7c0.7-0.6,3.4-1.2,5.8-0.6
			c2.5,0.6,6.7,2,12.1,5.3c5.4,3.2,10.2,5.4,12.3,6.2c2.1,0.8,4.8,2.4,4.8,2.9c0.4,0.3,0.6,12.4,0.7,14.1c0.1,1.7,1.2,3.7,3.2,3.7
			c2,0,2.5-2,2.6-4.3c0.1-2.3,0.4-9.3,0.8-10.1c0.3-0.8,0.9-0.8,2.7-0.4c1.8,0.4,9,1,12,0.9c3-0.1,4.9-0.1,5.8,1.8
			c0.9,1.9,1.8,6,1.9,9.4C943.5,167.8,943.4,170,943.4,171.1z"/>
		<path class="st6" d="M793.1,182.2c0,0-1.8,0-1.8,1.7c0,1.7,1.8,1.7,1.8,1.7l17.3,0c0,0,1.4-0.3,1.4-1.7c0-1.4-1.4-1.7-1.4-1.7
			L793.1,182.2z"/>
		<path class="st6" d="M790,174.9c0,0-1.3,0-1.3,1.8c0,1.8,1.3,1.8,1.3,1.8l12.6,0c0,0,1-0.3,1-1.8c0-1.5-1-1.8-1-1.8L790,174.9z"/>
		<path class="st6" d="M790,163.7c0,0-1.3,0-1.3,1.8c0,1.8,1.3,1.8,1.3,1.8l12.6,0c0,0,1-0.3,1-1.8s-1-1.8-1-1.8L790,163.7z"/>
		<path class="st6" d="M793.1,156.6c0,0-1.8,0-1.8,1.7c0,1.7,1.8,1.7,1.8,1.7l17.3,0c0,0,1.4-0.3,1.4-1.7c0-1.4-1.4-1.7-1.4-1.7
			H793.1z"/>
		<line class="st7" x1="816.3" y1="189.3" x2="816.3" y2="153.1"/>
		<path class="st8" d="M822.6,196.7c0,0-2.9-9.8-2.9-25.4c0-15.7,3-25.7,3-25.7"/>
		<path class="st8" d="M912.5,188.4c-1.4,0.5-25.1,12.2-28.9,13.6c-3.9,1.4-4.3,0.1-5.1-2.3c-0.8-2.5-3.4-5.8-6.3-6.4
			c-3-0.6-13.9,0.8-24.7-1.2c-10.8-2-16.2-13.6-16.2-21.2v-0.1c0-7.6,5.5-19.2,16.2-21.2c10.8-2,21.7-0.6,24.7-1.2
			c3-0.6,5.6-3.9,6.3-6.4c0.8-2.5,1.2-3.7,5.1-2.3c3.9,1.4,27.5,13.1,28.9,13.6"/>
		<path class="st3" d="M826.9,202.9h49c0,0,2,0.3,3.2,1.3"/>
		<path class="st3" d="M826.9,139.2h49c0,0,2-0.3,3.2-1.3"/>
		<path class="st7" d="M927.5,189.3c0,0-1.8-10.3-1.8-17.9c0-7.6,2.4-18,2.4-18"/>
		<path class="st7" d="M932.3,188.6c0,0,2.7-8.8,2.7-17.6c0-8.8-2-17.3-2-17.3"/>
	</g>
	<g>
		<polygon class="st9" points="678.9,167.3 718.8,150.5 714.2,161.3 775.5,161.3 775.5,173.4 714.2,173.4 718.8,184.2 		"/>
		<path class="st10" d="M716,153.3l-4,9.5H774v9.1H712l4,9.5l-33.3-14L716,153.3 M721.6,147.7l-6.7,2.8l-33.3,14.1l-6.5,2.7l6.5,2.7
			l33.3,14l6.7,2.8l-2.9-6.7l-2.3-5.4H774h3v-3v-9.1v-3h-3h-57.6l2.3-5.4L721.6,147.7L721.6,147.7z"/>
	</g>
	<g>
	</g>
	<g>
	</g>
	<g>
	</g>
	<g>
	</g>
	<g>
	</g>
	<g>
	</g>
	<g>
	</g>
	<g>
	</g>
	<g>
	</g>
	<g>
	</g>
	<g>
	</g>
	<g>
	</g>
</g>
</svg>
