<?xml version="1.0" encoding="utf-8"?>
<!-- Generator: Adobe Illustrator 20.1.0, SVG Export Plug-In . SVG Version: 6.00 Build 0)  -->
<svg version="1.1" xmlns="http://www.w3.org/2000/svg" xmlns:xlink="http://www.w3.org/1999/xlink" x="0px" y="0px"
	 viewBox="0 0 276.5 350.6" style="enable-background:new 0 0 276.5 350.6;" xml:space="preserve">
<style type="text/css">
	.st0{fill:#B0B0B2;}
	.st1{fill:url(#SVGID_1_);}
	.st2{fill:url(#SVGID_2_);}
	.st3{fill:url(#SVGID_3_);}
	.st4{fill:#F6F6F5;}
	.st5{fill:url(#SVGID_4_);}
	.st6{fill:url(#SVGID_5_);}
	.st7{fill:#FFFFFF;}
	.st8{fill:#B20F1D;}
</style>
<g id="Layer_1">
</g>
<g id="Layer_2">
	<g>
		<polygon class="st0" points="276.5,350.6 0,350.6 0,0 182.5,0 276.5,99.3 		"/>
		<linearGradient id="SVGID_1_" gradientUnits="userSpaceOnUse" x1="-13" y1="326.5" x2="244.25" y2="69.25">
			<stop  offset="0.728" style="stop-color:#FFFFFF"/>
			<stop  offset="1" style="stop-color:#CDCDCC"/>
		</linearGradient>
		<polygon class="st1" points="271,345 5.5,345 5.5,5.5 180.5,5.5 271,101 		"/>
		<linearGradient id="SVGID_2_" gradientUnits="userSpaceOnUse" x1="255.9213" y1="99.7928" x2="260.8824" y2="78.3037">
			<stop  offset="0.107" style="stop-color:#CDCDCC"/>
			<stop  offset="0.293" style="stop-color:#666366"/>
		</linearGradient>
		<path class="st2" d="M246.3,74.9L271,101c-9-3-23.6-4.4-27.2-4C244.3,87,246.3,74.9,246.3,74.9z"/>
		<linearGradient id="SVGID_3_" gradientUnits="userSpaceOnUse" x1="225.7168" y1="53.2815" x2="228.6033" y2="50.5423">
			<stop  offset="0" style="stop-color:#666366"/>
			<stop  offset="0.4406" style="stop-color:#B0B0B2"/>
		</linearGradient>
		<polygon class="st3" points="180.5,5.5 271,101 268.6,92.9 228.3,50.2 190.4,10.3 		"/>
		<path class="st4" d="M199.5,71c-4.5-15.6-19-65.5-19-65.5L271,101C271,101,243.8,81.5,199.5,71z"/>
		<linearGradient id="SVGID_4_" gradientUnits="userSpaceOnUse" x1="26" y1="61.25" x2="251" y2="61.25">
			<stop  offset="9.367028e-04" style="stop-color:#DF3738"/>
			<stop  offset="1" style="stop-color:#6B1516"/>
		</linearGradient>
		<rect x="26" y="21.5" class="st5" width="225" height="79.5"/>
		<linearGradient id="SVGID_5_" gradientUnits="userSpaceOnUse" x1="33" y1="61.5" x2="243.5" y2="61.5">
			<stop  offset="0" style="stop-color:#DF3738"/>
			<stop  offset="1" style="stop-color:#B20F1D"/>
		</linearGradient>
		<rect x="33" y="28.5" class="st6" width="210.5" height="66"/>
		<g>
			<path class="st7" d="M116.3,50.8c0,2.6-0.4,4.9-1.2,6.8c-0.8,1.9-1.8,3.6-3.1,4.9c-1.3,1.3-2.8,2.3-4.4,2.9
				c-1.7,0.6-3.4,0.9-5.2,0.9h-6v20.4h-8.5v-51H102c1.6,0,3.3,0.2,5,0.7c1.7,0.5,3.3,1.3,4.6,2.5c1.4,1.2,2.5,2.7,3.4,4.6
				C115.9,45.5,116.3,47.9,116.3,50.8z M108.2,50.9c0-2.7-0.6-4.7-1.9-5.9c-1.3-1.2-3-1.9-5-1.9h-4.9v16.1h4.9c2,0,3.7-0.7,5-2.1
				S108.2,53.6,108.2,50.9z"/>
			<path class="st7" d="M156.4,61.3c0,8.1-1.7,14.3-5.1,18.8c-3.4,4.4-8.4,6.7-14.9,6.7h-12.7v-51h12.8c6.5,0,11.5,2.2,14.9,6.7
				C154.7,46.9,156.4,53.2,156.4,61.3z M147.8,61.3c0-3-0.3-5.7-0.8-7.9c-0.6-2.3-1.3-4.1-2.3-5.6c-1-1.5-2.2-2.6-3.6-3.3
				c-1.4-0.7-2.9-1.1-4.5-1.1h-4.1v35.9h4.1c1.6,0,3.1-0.4,4.5-1.1c1.4-0.7,2.6-1.9,3.6-3.3c1-1.5,1.8-3.3,2.3-5.6
				S147.8,64.2,147.8,61.3z"/>
			<path class="st7" d="M173.4,43.5v14h13.1v7.3h-13v21.9h-8.7v-51h22.8v7.8H173.4z"/>
		</g>
		<path class="st8" d="M70.8,270.2c-0.2,0.6-0.8,0.9-1.2,1.3c-7.4,7.2-14.5,14.6-20.5,22.9c-2.4,3.3-4.7,6.8-6.4,10.5
			c-0.6,1.2-1,2.4-1.3,3.7c-0.1,0.8-0.3,1.6,0.5,2.1c0.7,0.5,1.4,0,2-0.4c1.8-1.2,3.5-2.7,5.1-4.2c13-12,23.9-25.6,32-41.4
			c7.9-15.4,16.4-30.4,24-45.9c6.1-12.3,11.9-24.7,17.1-37.4c0.3-0.7,0.4-1.2,0.1-1.9c-4.2-13-7.1-26.3-8.6-39.8
			c-0.7-6.6-1.1-13.2-0.6-19.9c0.2-2.8,0.8-5.5,2.1-7.9c0.8-1.5,1.9-2.6,3.2-3.6c2.4-1.4,5-2.2,7.9-1.8c2.1,0.3,4.1,1,6,1.8
			c5.1,3,7,7.9,7.5,13.4c0.2,2.6,0.1,5.3-0.8,8c-1.2-4.3-2.7-8.2-4.5-12.1c-1-2.2-2.1-4.3-3.5-6.3c-0.8-1.1-1.7-2.4-3.3-2.2
			c-1.6,0.2-2.2,1.7-2.7,3c-1.2,3.3-1.6,6.7-1.7,10.1c-0.5,13.9,1.6,27.5,5.3,40.8c0,0.1,0.1,0.3,0.3,0.7c1.2-3.7,2.4-7.1,3.5-10.6
			c1.1-3.7,2.2-7.5,3.3-11.3c0.1-0.5,0.2-1,1-0.9c0.8,0.1,0.5,0.7,0.5,1.1c0.2,8.5-0.7,17-2.2,25.4c-0.5,2.8-1.1,5.6-1.7,8.4
			c-0.1,0.5-0.1,0.9,0.1,1.4c7.1,18.4,17.2,34.9,32.1,48.1c3.7,3.3,7.7,6.3,11.9,8.9c0.5,0.3,1,0.4,1.6,0.3
			c13.5-1.8,27-3.2,40.6-2.9c5.5,0.1,11,0.6,16.3,2.3c1.9,0.7,3.8,1.5,5.4,2.9c3.6,3,3.6,7.1,1.7,10.7c-0.3,0.5-0.5,0.5-0.9,0.1
			c-0.3-0.3-0.6-0.6-0.9-1c-2.7-3.7-6.5-5.2-10.9-5.7c-7.4-0.9-14.8-0.6-22.2-0.4c-5.4,0.2-10.8,0.6-16.2,0.9
			c-0.1,0.3,0.1,0.4,0.3,0.4c9.6,4.1,19.4,7.8,29.7,10c4.4,0.9,8.9,1.6,13.4,1.1c2.6-0.3,5-0.9,7.1-3c0.2,0.9-0.1,1.6-0.3,2.4
			c-1.2,4.7-4.6,7-9.1,8c-4.4,1-8.7,0.8-13.1,0.1c-13.7-2-26.2-7.4-38.4-13.6c-1.2-0.6-2.6-1.2-3.7-2c-2.3-1.8-4.9-1.9-7.7-1.5
			c-14.8,1.9-29.5,4.7-43.9,8.9c-11.5,3.3-22.7,7.4-33.5,12.5c-0.8,0.4-1.4,0.9-1.8,1.6c-7,11.9-14.2,23.6-22.3,34.8
			c-2.1,2.8-4.2,5.5-6.6,8.1c-3.7,3.8-7.9,6.5-13.3,7.2c-3.9,0.5-7.6-0.2-11-2.3c-3.8-2.3-5.1-5.7-3.7-10c1.1-3.5,3.3-6.5,5.4-9.4
			c7.9-10.9,17.9-19.2,30.4-24.4C69.9,270.4,70.3,270,70.8,270.2L70.8,270.2z M96.7,256.8c3.4-1.5,6.8-3.2,10.3-4.6
			c16.7-6.6,34-10.8,51.5-14.2c1.9-0.4,3.8-0.7,5.9-1.1c-15.9-11.3-28.6-24.9-36.6-42.9c-1.4,3.8-2.8,7.5-4.3,11
			c-5.2,11.9-11.4,23.2-17.5,34.6c-3.1,5.7-6.2,11.3-9.4,17c-0.1,0.1-0.2,0.2,0,0.3C96.6,256.9,96.6,256.8,96.7,256.8z"/>
	</g>
</g>
</svg>
