<svg xmlns="http://www.w3.org/2000/svg" viewBox="0 0 247 136"><style type="text/css">  
	.Arched_x0020_Green{fill:url(#SVGID_1_);stroke:#FFFFFF;stroke-width:0.25;stroke-miterlimit:1;}
	.st0{fill:#231F20;}
</style><linearGradient gradientUnits="userSpaceOnUse" x1="-32" y1="234" x2="-31.3" y2="233.3"><stop offset="0" stop-color="#1EAB4B"/><stop offset="0.9831" stop-color="#19361A"/></linearGradient><path class="st0" d="M99.3 22.3L99.3 22.3 99.3 22.3 99.3 22.3v0.5l0 0 0 0 0 0V22.3zM229.7 18.4h-59.6c2.6 4.5 4.5 9.3 5.7 14.5h46.8c3.1 0 5.7 2.5 5.7 5.7 0 3.1-2.5 5.7-5.7 5.7h-45.4c0 0.3 0 0.5 0 0.8 0 3.9-0.4 7.7-1.2 11.3h46.6c3.1 0 5.7 2.5 5.7 5.7 0 3.1-2.5 5.7-5.7 5.7h-50.4c-2.1 4.4-4.7 8.5-7.8 12.1h58.2c3.1 0 5.7 2.5 5.7 5.7 0 3.1-2.5 5.7-5.7 5.7h-71.7c-8 4.7-17.4 7.5-27.4 7.5 -10 0-19.3-2.7-27.4-7.5h-72c-3.1 0-5.7-2.5-5.7-5.7 0-3.1 2.5-5.7 5.7-5.7h58.5c-3.1-3.6-5.8-7.7-7.8-12.1H24.2c-3.1 0-5.7-2.5-5.7-5.7 0-3.1 2.5-5.7 5.7-5.7H71c-0.8-3.6-1.2-7.4-1.2-11.3 0-0.3 0-0.5 0-0.8H24.2c-3.1 0-5.7-2.5-5.7-5.7 0-3.1 2.5-5.7 5.7-5.7h47.1c1.2-5.1 3.1-10 5.7-14.5H17.3C7.7 18.4 0 26.1 0 35.6v52.6c0 9.5 7.7 17.2 17.3 17.2h212.4c9.5 0 17.3-7.7 17.3-17.2V35.6C247 26.1 239.3 18.4 229.7 18.4zM78.3 45c0-24.8 20.2-45 45.2-45s45.2 20.1 45.2 45 -20.2 45-45.2 45S78.3 69.8 78.3 45zM98.1 45c0 14 11.4 25.3 25.4 25.3 14 0 25.4-11.3 25.4-25.3 0-14-11.4-25.3-25.4-25.3C109.5 19.7 98.1 31 98.1 45zM51.6 124.2h-5.1v-10.6H35.4v10.6h-5.1c-1.9 0-3.5 1.5-3.5 3.4v4.9c0 1.9 1.5 3.4 3.5 3.4h21.2c1.9 0 3.5-1.5 3.5-3.4v-4.9C55.1 125.8 53.5 124.2 51.6 124.2zM216.7 124.2h-5.1v-10.6h-11.1v10.6h-5.1c-1.9 0-3.5 1.5-3.5 3.4v4.9c0 1.9 1.5 3.4 3.5 3.4h21.2c1.9 0 3.5-1.5 3.5-3.4v-4.9C220.1 125.8 218.6 124.2 216.7 124.2z"/></svg>