<?xml version="1.0" encoding="utf-8"?>
<!-- Generator: Adobe Illustrator 20.0.0, SVG Export Plug-In . SVG Version: 6.00 Build 0)  -->
<svg version="1.1" id="Layer_1" xmlns="http://www.w3.org/2000/svg" xmlns:xlink="http://www.w3.org/1999/xlink" x="0px" y="0px"
	 viewBox="0 0 48 48" style="enable-background:new 0 0 48 48;" xml:space="preserve">
<style type="text/css">
	.st0{fill:#777777;}
</style>
<path class="st0" d="M-14.2,32.9c0-0.6-0.2-1.1-0.5-1.4c-0.4-0.4-4.9-5.1-4.9-5.1c0.8-1.4,1.2-3.2,1.2-4.9c0-5.4-4.4-9.9-9.9-9.9
	c-5.4,0-9.9,4.4-9.9,9.9c0,5.4,4.4,9.9,9.9,9.9c1.8,0,3.5-0.5,5-1.3c0,0,4.1,4.3,4.4,4.6s0.9,1,1.8,1c0.9,0,1.6,0,2.2-0.8
	S-14.2,33.5-14.2,32.9z M-28.3,28.4c-3.8,0-6.9-3.1-6.9-6.9c0-3.8,3.1-6.9,6.9-6.9s6.9,3.1,6.9,6.9C-21.4,25.4-24.5,28.4-28.3,28.4z
	"/>
<path class="st0" d="M47.8,42.5c-0.1-1.3-0.4-2.1-1.1-2.9C46.1,38.9,37,29.5,37,29.5c1.5-2.8,2.5-6.4,2.5-9.8
	C39.4,8.8,30.6,0,19.7,0C8.8,0,0,8.8,0,19.7c0,10.9,8.8,19.7,19.7,19.7c3.6,0,7-1,10-2.7c0,0,8.2,8.6,8.9,9.3s1.8,2,3.7,2
	c1.9,0,3.3,0,4.4-1.5C47.8,45,47.9,43.8,47.8,42.5z M19.7,34.6C11.6,34.6,5,28,5,19.8c0-8.2,6.6-14.8,14.8-14.8s14.8,6.6,14.8,14.8
	C34.5,28,27.9,34.6,19.7,34.6z"/>
<path class="st0" d="M103.4,42.5c-0.1-1.3-0.4-2.1-1.1-2.9c-0.7-0.8-9.8-10.1-9.8-10.1c1.5-2.8,2.5-6.4,2.5-9.8
	C95,8.8,86.1,0,75.3,0C64.4,0,55.5,8.8,55.5,19.7c0,10.9,8.8,19.7,19.7,19.7c3.6,0,7-1,10-2.7c0,0,8.2,8.6,8.9,9.3s1.8,2,3.7,2
	c1.9,0,3.3,0,4.4-1.5C103.4,45,103.4,43.8,103.4,42.5z M75.3,33.6c-7.6,0-13.7-6.1-13.7-13.7c0-7.6,6.1-13.7,13.7-13.7
	S89,12.3,89,19.8C89,27.4,82.8,33.6,75.3,33.6z"/>
</svg>
