<?xml version="1.0" encoding="utf-8"?>
<!-- Generator: Adobe Illustrator 20.1.0, SVG Export Plug-In . SVG Version: 6.00 Build 0)  -->
<svg version="1.1" id="Layer_1" xmlns="http://www.w3.org/2000/svg" xmlns:xlink="http://www.w3.org/1999/xlink" x="0px" y="0px"
	 viewBox="0 0 48 48" style="enable-background:new 0 0 48 48;" xml:space="preserve">
<style type="text/css">
	.st0{fill:#FFFFFF;}
</style>
<path class="st0" d="M47.8,42.5c-0.1-1.3-0.4-2.1-1.1-2.9C46.1,38.9,37,29.5,37,29.5c1.5-2.8,2.5-6.4,2.5-9.8
	C39.4,8.8,30.6,0,19.7,0C8.8,0,0,8.8,0,19.7c0,10.9,8.8,19.7,19.7,19.7c3.6,0,7-1,10-2.7c0,0,8.2,8.6,8.9,9.3s1.8,2,3.7,2
	c1.9,0,3.3,0,4.4-1.5C47.8,45,47.9,43.8,47.8,42.5z M19.7,34.6C11.6,34.6,5,28,5,19.8c0-8.2,6.6-14.8,14.8-14.8s14.8,6.6,14.8,14.8
	C34.5,28,27.9,34.6,19.7,34.6z"/>
</svg>
