<svg xmlns="http://www.w3.org/2000/svg" viewBox="0 0 238 191"><style type="text/css">  
	.Arched_x0020_Green{fill:url(#SVGID_1_);stroke:#FFFFFF;stroke-width:0.25;stroke-miterlimit:1;}
	.st0{fill:#231F20;}
</style><linearGradient gradientUnits="userSpaceOnUse" x1="-36.2" y1="545.6" x2="-35.5" y2="544.9"><stop offset="0" stop-color="#1EAB4B"/><stop offset="0.9831" stop-color="#19361A"/></linearGradient><path class="st0" d="M23.2 72.4c0-18.2 14.8-32.9 33-32.9 18.2 0 33 14.8 33 32.9 0 18.2-14.8 32.9-33 32.9C38 105.3 23.2 90.6 23.2 72.4zM56.7 113.8c-22.2 0-33.6 4.6-43.2 10.4 -11.7 7-14 19.5-13.5 25.9 0.3 3.9 1.8 10.6 3.1 24.5 1.3 13.9 12.6 15.2 19.6 15.7 7 0.5 23.9 0.5 35 0.5 11.1 0 31.9 1 41.2-1.3 9.3-2.3 10.6-10 11.3-15.2 0.8-5.1 0.8-12.4 2.6-21.6 1.8-9.3-1.5-18-8.5-25C97.4 120.8 78.9 113.8 56.7 113.8zM217.7 25C197.1 8.1 170.9-0.3 139.9 0c-44.8 0.5-70 23.9-71 24.9l4.8 5c0.2-0.2 24.2-22.5 66.3-23 29.4-0.3 54.1 7.5 73.3 23.4 19.1 15.7 21.4 38.8 13.7 53.5 -8.8 16.8-19.3 23.9-34.6 30.5 -16.2 7-34.6 11.1-49.2 10.8l-1.7 0 -1.1 1.4c-0.9 1.1-1.7 2.2-2.5 3.3 -5.5 7.4-8.9 11.8-16.6 15.8l3.2 6.2c9.2-4.7 13.3-10.2 19-17.8 0.4-0.6 0.9-1.2 1.4-1.8 15.2-0.1 33.9-4.3 50.3-11.4 16.3-7 28.3-15.1 38-33.7C242.1 69.9 239.7 43.1 217.7 25zM189.1 34.1h-84.7V44h84.7V34.1zM104.3 70.6h84.7v-9.9h-84.7V70.6zM104.3 97.3h84.7v-9.9h-84.7V97.3z"/></svg>