<?xml version="1.0" encoding="utf-8"?>
<!-- Generator: Adobe Illustrator 20.0.0, SVG Export Plug-In . SVG Version: 6.00 Build 0)  -->
<svg version="1.1" id="line_art" xmlns="http://www.w3.org/2000/svg" xmlns:xlink="http://www.w3.org/1999/xlink" x="0px" y="0px"
	 viewBox="0 0 272.5 185.1" style="enable-background:new 0 0 272.5 185.1;" xml:space="preserve">
<style type="text/css">
	.st0{fill:none;stroke:#000000;stroke-width:5;}
	.st1{fill:none;stroke:#FFFFFF;stroke-width:3;}
	.st2{fill:#FFFFFF;stroke:#000000;}
	.st3{fill:#FFFFFF;stroke:#000000;stroke-width:0.5;}
	.st4{fill:#FFFFFF;stroke:#000000;stroke-width:0.6272;}
</style>
<g>
	<path class="st0" d="M172.7,127c0,0,18.7,24.7,62.5,9.7c43-14.7,38.7-68.3,26.2-96c-6-13.4-21.7-21.5-39.9-22h-36.2h-58.8
		c0,0-4.9,0-30.8,0c-57.5,0-96,20.6-93,73.1c4.1,71.1,63.4,50.1,63.4,50.1"/>
	<path class="st1" d="M172.7,127c0,0,18.7,24.7,62.5,9.7c43-14.7,38.7-68.3,26.2-96c-6-13.4-21.7-21.5-39.9-22h-36.2h-58.8
		c0,0-4.9,0-30.8,0c-57.5,0-96,20.6-93,73.1c4.1,71.1,63.4,50.1,63.4,50.1"/>
	<g>
		<g>
			
				<rect x="116.2" y="72.5" transform="matrix(0.726 -0.6877 0.6877 0.726 -17.4412 104.8384)" class="st2" width="13.3" height="3.6"/>
			<path class="st2" d="M118,80c-1.2,1.1-0.5,2.6,0.3,3.5c0,0,19.1,20.2,26.7,28.3c7.6,8.1,21.4-5.6,14.1-13.3
				c-7.3-7.7-26.7-28.3-26.7-28.3c-1.4-1.5-2.9-1-3.8-0.2L118,80z"/>
		</g>
		<path class="st2" d="M157.4,99.6c-1.2,1.1-10.8,10.2-10.8,10.2"/>
		<path class="st2" d="M142.3,83.6c-1.2,1.1-10.8,10.2-10.8,10.2"/>
		<g>
			<polygon class="st2" points="176.4,124.7 170.2,130.6 150.4,113.5 160.4,104 			"/>
			<polygon class="st2" points="160.8,103.6 163.3,106.8 159.7,110.2 161.7,112.4 165.1,109.2 167.8,112.6 164.7,115.5 166.5,117.4 
				169.3,114.7 171.9,118.1 169.4,120.4 170.9,122.1 173.2,119.9 176.7,124.5 170,130.8 165.5,127.1 167.8,124.9 166.3,123.3 
				163.8,125.7 160.6,123 163.4,120.3 161.7,118.4 158.6,121.3 155.3,118.4 158.7,115.2 156.7,113.1 153.1,116.5 150,113.9 			"/>
		</g>
	</g>
	<g>
		<polyline class="st2" points="148.7,170.4 148.8,173.1 153.5,180.3 152.9,182.4 148.6,184.5 146.6,183.8 143.5,175.8 141.4,174.2 
					"/>
		
			<rect x="130.1" y="139.6" transform="matrix(0.8913 -0.4533 0.4533 0.8913 -53.8266 77.2264)" class="st2" width="8.3" height="22.6"/>
		
			<rect x="122" y="139.7" transform="matrix(0.8913 -0.4534 0.4534 0.8913 -50.089 74.1487)" class="st2" width="15.2" height="3.7"/>
		
			<rect x="137.5" y="162.4" transform="matrix(0.8914 -0.4532 0.4532 0.8914 -59.6634 82.1853)" class="st2" width="8.3" height="6.3"/>
		
			<rect x="140.4" y="170" transform="matrix(0.8912 -0.4537 0.4537 0.8912 -61.9551 84.2097)" class="st2" width="8.3" height="2.4"/>
		
			<rect x="140.2" y="168.4" transform="matrix(0.8913 -0.4535 0.4535 0.8913 -61.2036 83.5597)" class="st2" width="6.9" height="2"/>
		
			<rect x="136.3" y="160.8" transform="matrix(0.8916 -0.4528 0.4528 0.8916 -58.1334 80.841)" class="st2" width="6.9" height="2"/>
		<polyline class="st2" points="153.5,180.3 152.9,182.4 148.6,184.5 146.6,183.8 		"/>
		<path class="st2" d="M121.2,145.1l2.2-1.1v0l14-7.1L125.3,113c-0.8-1.6-1.6-2.8-2.5-3.6c-0.8-0.8-1.7-1.4-2.7-1.7
			c-1.9-0.7-3.8-0.4-6.1,0.7L93,118.9l-4.8,2.5c0,0.2,0.6,1.4,0.6,1.4l6,11.7c0.8,0.1,9.7-4.2,11.9-5c1.8-0.7,2.7-1.2,4.3-0.5
			c2.5,1.1,5.5,7.5,6.5,9.5l3.4,6.7L121.2,145.1z"/>
		<g>
			<polygon class="st2" points="82.9,139.4 77.4,128.5 75.6,129.6 81,140.2 			"/>
			<polygon class="st2" points="90.8,136.2 84.7,124.2 82.9,125.2 88.9,137 			"/>
			<polygon class="st2" points="95.4,134.4 88.9,121.7 86.5,123.1 92.8,135.4 			"/>
			<polygon class="st2" points="86.9,137.8 81.1,126.3 79.2,127.4 84.9,138.6 			"/>
			<polygon class="st2" points="79,141 73.7,130.6 71.9,131.7 77,141.8 			"/>
			<polygon class="st2" points="75.1,142.6 70.1,132.8 68.3,133.9 73.1,143.3 			"/>
			<polygon class="st2" points="68,145.4 71.1,144.1 66.4,134.9 63.5,136.7 			"/>
		</g>
	</g>
	<g>
		<polyline class="st3" points="159.3,36.1 158.4,36 158.7,36.9 157.8,36.7 158,37.6 157.1,37.3 157.3,38.2 156.4,37.9 156.5,38.8 
			155.7,38.4 155.6,39.3 154.9,38.8 154.8,39.7 154.1,39.2 153.9,40.1 153.2,39.5 153,40.3 152.3,39.7 152,40.5 151.4,39.8 
			151,40.6 150.5,39.9 150.1,40.6 149.6,39.8 149.1,40.6 148.8,39.7 148.2,40.4 147.9,39.6 147.2,40.2 147,39.3 146.3,39.9 
			146.2,39 145.4,39.5 145.4,38.6 144.6,39 144.6,38.1 143.8,38.5 143.9,37.6 143,37.9 143.2,37 142.3,37.2 142.6,36.3 141.7,36.5 
			142,35.6 141.1,35.7 141.5,34.9 140.6,34.9 		"/>
		<path class="st2" d="M150.4,37.5c4.9,0,13,1.7,15.8,1.7c2.8,0,13.2-5.1,13.2-19.4c0-14.3-11.9-19.2-29-19.2
			c-17.1,0-29,4.9-29,19.2c0,14.3,10.5,19.4,13.2,19.4C137.4,39.2,145.5,37.5,150.4,37.5z"/>
		<g>
			<path d="M140.9,34.2l-1.2-3.6h0.9l0.4,1.5c0.1,0.4,0.2,0.8,0.3,1.3h0c0.1-0.4,0.2-0.9,0.3-1.3l0.5-1.5h0.9l-1.2,3.6H140.9z"/>
			<path d="M144.9,34.3c-1.1,0-1.7-0.8-1.7-1.8c0-1.1,0.7-1.9,1.8-1.9c1.1,0,1.7,0.8,1.7,1.8C146.7,33.5,146,34.3,144.9,34.3
				L144.9,34.3z M145,33.6c0.6,0,0.9-0.5,0.9-1.2c0-0.7-0.3-1.2-0.9-1.2s-0.9,0.5-0.9,1.2C144.1,33.1,144.4,33.6,145,33.6L145,33.6z
				"/>
			<path d="M147.2,30.6h0.8v2.9h1.4v0.7h-2.3V30.6z"/>
		</g>
		<polygon class="st4" points="157.7,34 151.2,34 151.2,30.8 		"/>
	</g>
</g>
<g>
</g>
<g>
</g>
<g>
</g>
<g>
</g>
<g>
</g>
<g>
</g>
<g>
</g>
<g>
</g>
<g>
</g>
<g>
</g>
<g>
</g>
<g>
</g>
</svg>
