<svg xmlns="http://www.w3.org/2000/svg" viewBox="0 0 228.2 93.5"><style type="text/css">  
	.st0{fill:#FFFFFF;}
</style><path class="st0" d="M58.6 55.5c-0.1 0.1-0.4 0.2-1.2 0.3 -0.9 0.1-1.2-0.1-1.2-0.1 1.2-0.7 1.7-1.3 1.8-1.5 0.1-0.2-0.1-0.2-0.2-0.2 -0.1 0-0.5 0.2-1.4 0.2 -0.4 0-0.9-0.1-1.2-0.1 0.2-0.3 0.4-0.6 0.5-0.7 0.2-0.4 0.9-1.6 1-1.7 0.1-0.1 0.5-0.4 1-0.7 0.6-0.4 0.5-1.1 0.4-1.4 -0.1-0.2-0.4-0.5-0.4-0.5l0 0c0.2-0.2 0.5-0.4 0.6-0.6 0.2-0.3 0.6-1 0.2-1.8 -0.4-0.8-1.1-1.7-2.4-2.1 -1.3-0.4-4-0.7-6.4-0.5 -2.4 0.2-4.4 0.9-6.9 2 -2.6 1.1-4.7 1.9-6 1.5 -1.3-0.4-2.1-1.3-2.1-2.1 0-0.7 0.7-1.1 0.8-1.2 0.1-0.1 0.6 0.2 0.8 0.3 0.2 0.1 1.2 0.4 2.4 0 1.2-0.5 2.3-1.6 2.9-3 0.6-1.3 0.5-1.9 0.5-1.9s-0.1 0-0.4 0.1c-0.3 0.1-1 0.2-1.4 0.1 -0.4-0.1-1.6-0.6-2.7-0.8 -1-0.2-2 0.1-2 0.1s0-0.5-0.2-0.9c-0.2-0.4-0.5-0.8-1.2-1.2 -0.6-0.5-1.7-0.8-2.2-1.2 -0.5-0.4-0.4-1-0.3-1.2 0-0.2-0.2-0.2-0.4-0.1 -0.2 0.1-0.5 0.2-0.9 0.6 -0.4 0.4-1.3 1.5-1.4 3.1 -0.2 1.7 0.5 2.8 1 3.3 0 0 0 0 0 0 -0.1 0.9 0 2 0 2s-1.1-1.5-2-3.6c-0.9-2.1-0.9-2.6-0.9-2.7 0-0.2-0.2-0.2-0.3 0 -0.1 0.2-0.3 1.1-0.2 2.7 0.1 1.5 0.9 4.9 0.9 4.9 -0.7-0.8-1.8-3.4-1.8-3.5 0-0.1-0.1-0.2-0.2-0.1 -0.1 0.1-0.1 0.1-0.1 0.5 0 0.4 0.1 1.8 0.8 4.8 0.7 3 2.6 9.8 10.3 13.4 6.9 3.3 14.6 1.2 17 0.5 2.4-0.7 3.2-1.4 3.3-1.5 0.1-0.1 0.1-0.2-0.1-0.2 -0.2 0-0.4 0.1-1.7 0.2 -1.3 0-1.7-0.1-1.7-0.1s1.5-0.1 2.9-0.7c1.5-0.7 2.3-1.6 2.4-1.9C58.8 55.5 58.7 55.4 58.6 55.5zM54 54.8C54 54.8 54 54.8 54 54.8c0 0-0.1 0.1-0.1 0.1 0 0 0 0 0 0 0 0-0.1 0.1-0.1 0.1 0 0 0 0 0 0 0 0-0.1 0.1-0.1 0.1 0 0 0 0 0 0 0 0-0.1 0.1-0.1 0.1 0 0 0 0 0 0 0 0-0.1 0.1-0.1 0.1 0 0 0 0 0 0 0 0-0.1 0.1-0.1 0.1 0 0 0 0 0 0 0 0-0.1 0.1-0.1 0.1 0 0 0 0 0 0 0 0-0.1 0.1-0.2 0.1 0 0 0 0 0 0 0 0 0 0 0 0 0 0 0-0.1 0.1-0.1 0 0 0 0 0 0 0 0 0 0 0-0.1 0 0 0 0 0 0 0 0 0-0.1 0-0.1 0 0 0 0 0 0 0-0.1 0.1-0.1 0.1-0.2 0 0 0 0 0 0 0 0 0-0.1 0.1-0.1 0 0 0 0 0 0 0.1-0.1 0.1-0.3 0.2-0.5 0 0 0 0 0 0 0.2-0.3 0.3-0.7 0.5-1.1 0 0 0 0 0 0 0.1-0.1 0.1-0.2 0.2-0.4 0 0 0 0 0 0 0 0 0-0.1 0.1-0.1 0 0 0 0 0 0 0-0.1 0-0.1 0.1-0.2 0 0 0 0 0 0 0 0 0-0.1 0-0.1 0 0 0 0 0 0 0 0 0-0.1 0.1-0.1 0.4-1.1 0.6-1.8 0.6-1.8 0-0.1-0.1-0.1-0.2 0 0 0 0 0 0 0 0 0 0 0 0 0 0 0 0 0 0 0 0 0 0 0 0 0 0 0 0 0 0 0.1 0 0 0 0 0 0 0 0 0 0 0 0.1 0 0 0 0 0 0 0 0 0 0 0 0.1 0 0 0 0 0 0 0 0 0 0 0 0.1 0 0 0 0 0 0 0 0 0 0.1 0 0.1 0 0 0 0 0 0 0 0 0 0 0 0.1 0 0 0 0 0 0.1 0 0 0 0 0 0.1 0 0 0 0.1 0 0.1 0 0 0 0 0 0.1 0 0 0 0.1 0 0.1 0 0 0 0 0 0 0 0.1-0.1 0.2-0.1 0.3 0 0 0 0 0 0 -0.1 0.1-0.1 0.2-0.2 0.4 0 0 0 0 0 0 -0.2 0.5-0.5 1-0.7 1.5 0 0.1-0.1 0.2-0.1 0.2 0 0 0 0 0 0 0 0.1-0.1 0.1-0.1 0.2 0 0 0 0 0 0 -0.1 0.1-0.2 0.3-0.2 0.4 0 0 0 0 0 0 0 0.1-0.1 0.1-0.1 0.2 0 0 0 0 0 0 0 0-0.1 0.1-0.1 0.1 0 0 0 0 0 0 0 0 0 0.1-0.1 0.1 0 0 0 0 0 0 0 0-0.1 0.1-0.1 0.1 -0.8 1.2-1.3 1.6-2.4 2.3 -1.9 1.2-3.2 1.5-4.1 1.6 -0.8 0.1-1.9 0.1-1.9 0.1s1.9-1.1 3.9-2.8c0.1-0.1 0.2-0.1 0.2-0.2 0 0 0 0 0.1-0.1 0.1-0.1 0.1-0.1 0.2-0.2 0 0 0 0 0 0 0.1-0.1 0.1-0.1 0.2-0.2 0 0 0 0 0.1-0.1 0.1-0.1 0.1-0.1 0.2-0.2 0 0 0 0 0-0.1 0.1-0.1 0.1-0.1 0.2-0.2 0 0 0 0 0 0 0.1-0.1 0.1-0.1 0.2-0.2 0 0 0 0 0-0.1 0.1-0.1 0.1-0.1 0.2-0.2 0 0 0 0 0 0 0.1-0.1 0.1-0.1 0.2-0.2 0 0 0 0 0 0 0.1-0.1 0.1-0.1 0.2-0.2 0 0 0 0 0 0 0.1-0.1 0.1-0.1 0.2-0.2 0 0 0 0 0 0 0-0.1 0.1-0.1 0.1-0.2 0 0 0 0 0 0 0.1-0.1 0.2-0.3 0.3-0.4 0 0 0 0 0 0 0.1-0.1 0.2-0.3 0.3-0.4 0 0 0 0 0 0 0.2-0.3 0.3-0.5 0.5-0.7 0 0 0 0 0 0 0 0 0-0.1 0.1-0.1 0 0 0 0 0 0 0 0 0-0.1 0-0.1 0 0 0 0 0 0 0 0 0 0 0-0.1 0 0 0 0 0 0 0 0 0-0.1 0-0.1 0.5-0.8 0.7-1.7 0.8-1.8 0-0.1-0.1-0.1-0.1 0 0 0 0 0 0 0 0 0 0 0 0 0 0 0 0 0 0 0 0 0 0 0 0 0 -0.1 0.3-0.6 1.4-1.5 2.7v0c-0.1 0.1-0.1 0.2-0.2 0.3 0 0 0 0 0 0 -0.1 0.1-0.2 0.2-0.2 0.3 0 0 0 0 0 0 -0.1 0.1-0.2 0.2-0.2 0.3 0 0 0 0 0 0 -0.1 0.1-0.2 0.2-0.3 0.3 -1.8 1.8-4.6 4-6.1 4.5 -1.5 0.5-2 0.4-3.1 0.3 -1.1-0.1-2.5-0.8-2.5-0.8s1.8 0 4.3-1.5c2.5-1.4 4.3-3.5 5.3-4.8 0.9-1.1 1-1.7 1-1.7s-0.1-0.1-0.2 0c0 0 0 0 0 0.1 0 0 0 0 0 0 0 0 0 0 0 0 0 0 0 0 0 0 0 0 0 0 0 0 0 0 0 0.1-0.1 0.1 0 0 0 0 0 0 0 0-0.1 0.1-0.1 0.2 0 0 0 0 0 0 0 0 0 0.1 0 0.1 0 0 0 0 0 0 0 0.1-0.1 0.1-0.1 0.2 0 0 0 0 0 0 0 0 0 0.1-0.1 0.1 0 0 0 0 0 0 0 0.1-0.1 0.1-0.1 0.2 0 0 0 0 0 0 0 0 0 0.1-0.1 0.1 0 0 0 0 0 0 -0.1 0.1-0.1 0.2-0.2 0.2 0 0 0 0 0 0 0 0-0.1 0.1-0.1 0.1 -0.1 0.1-0.1 0.2-0.2 0.3 0 0 0 0 0 0 0 0-0.1 0.1-0.1 0.1 0 0 0 0 0 0 0 0-0.1 0.1-0.1 0.1 0 0 0 0 0 0 0 0-0.1 0.1-0.1 0.2 0 0 0 0 0 0 0 0-0.1 0.1-0.1 0.1 0 0 0 0-0.1 0.1 0 0-0.1 0.1-0.1 0.1 0 0 0 0-0.1 0.1 -0.1 0.1-0.1 0.1-0.2 0.2 -1.7 1.7-4.5 3.3-5.7 3.7 -1.3 0.4-2.8 0.7-3.6 0.5 -0.8-0.2-2.1-0.7-2.8-1.4 -0.7-0.7-0.9-1.2-0.9-1.2s1.2 0.4 2.5 0.4c1.3 0 2.9-0.2 4.6-0.9 1.8-0.7 2.2-1.2 2.3-1.3 0.1-0.1-0.1 0-0.4 0.1 -0.2 0.1-1.2 1-4 1.3 -2.8 0.4-4.7-0.1-5.7-0.8 -1-0.8-1.2-1.4-1.2-1.4s0.6 0.2 1.2 0.3c0.6 0.1 1.3 0.1 1.6 0 0.3 0 0.5-0.1 0.5-0.1s1.4 0.3 2 0.3c1.5 0 2.9-0.4 2.9-0.5 -0.1-0.2-1.1 0.2-2.8 0.2 -1 0-1.2-0.2-1.2-0.2s0.6-0.3 1.1-0.6c0.6-0.4 1.1-0.7 1.5-0.8 0.4 0 0.6 0 0.6-0.1 0-0.1-0.2-0.3-0.5-0.3 -0.3 0-1 0.1-1.8 0.5 -0.7 0.4-1.7 0.9-3 0.9 -1.3-0.1-1.6-0.1-2.7-0.5 -1.1-0.5-1.9-1.5-2.1-1.8 -0.2-0.4-0.2-0.5 0.1-0.2 0.4 0.3 1.6 0.5 2.3 0.3 0.7-0.1 1.4-0.8 2.4-0.9 1-0.2 1.7-0.1 2.1 0 0.3 0.1 0.5 0.2 0.6 0.2 0.1 0-0.2-0.3-0.3-0.4 -0.2-0.1-0.8-0.3-1.7-0.2 -0.9 0-1.6 0.2-2.1 0.4 -0.5 0.2-1.1 0.4-1.2 0.5 -0.1 0-0.2 0-0.2 0s-0.1-0.8 0.1-1.6c0.2-0.8 1.1-2.7 1.4-3.2 0.3-0.5 0.5-1 0.4-1.3 -0.1-0.4-0.6-0.7-1-0.9 0 0-0.1 0-0.1-0.1 0 0 0 0 0 0 0 0 0 0-0.1 0 0 0 0 0 0 0 -0.3-0.2-0.8-0.6-1.2-1.1 -0.1-0.2-0.2-0.3-0.3-0.6 -0.4-1-0.4-2.7 0.1-3.7 0.4-1 1-1.6 1.1-1.6 0.1-0.1 0.1-0.1 0.1 0.2 0 0.2 0 0.7 0.5 1 0.5 0.4 1.4 0.7 1.9 1 0.5 0.3 1 1 1.1 1.5 0.1 0.4 0.1 0.7 0.3 0.9 0.2 0.2 0.4 0.2 0.8 0.1 0.3-0.1 0.8-0.3 1.3-0.2 0.5 0.1 1.3 0.4 2 0.7 0.7 0.3 1.3 0.4 1.7 0.4 0.4 0 0.7-0.2 0.7-0.2 0.1 0 0.1 0 0.1 0.2 -0.1 0.2-0.4 1.9-1.8 2.9 -1.4 1-2.3 0.9-2.9 0.8 -0.6-0.1-1.2-0.2-1.6-0.1 -0.4 0.2-0.9 0.6-1 1 -0.1 0.4 0 1.3 0.9 2.1 0.1 0.1 0.1 0.1 0.2 0.2l0 0h0c0.1 0 0.1 0.1 0.2 0.1 0 0 0 0 0 0 0.1 0 0.1 0.1 0.2 0.1 0 0 0 0 0 0 0.1 0 0.1 0.1 0.2 0.1 0 0 0 0 0 0 0.1 0 0.1 0.1 0.2 0.1l0 0h0c0.6 0.3 1.2 0.4 1.7 0.5 0.7 0.1 1.9-0.1 3.3-0.6 1.4-0.5 4-1.8 5.2-2.1 1.2-0.4 3.1-0.7 4.5-0.8 1.4-0.1 3.2 0 4.3 0.2 1.1 0.2 2.1 0.8 2.5 1.3 0.4 0.5 0.6 1.1 0.5 1.6 -0.1 0.6-0.5 0.9-0.6 1 -0.1 0.1-0.3 0.3-0.3 0.3l-0.4-0.2c0 0 0.4-0.4 0.4-0.7 0.1-0.3-0.1-1.2-1-1.6 -0.9-0.4-2.9-0.6-4.8-0.2 -1.8 0.3-4.3 1.5-5.7 2.2 -1.4 0.8-2.6 1.2-3.3 1 -0.6-0.2-1-0.4-1.1-0.5 -0.1-0.1-0.3 0-0.1 0.2 0.1 0.2 0.8 0.8 1.6 0.9 0.8 0.1 1.3-0.1 1.8-0.2 0.5-0.2 1.5-0.8 1.8-0.9 0.3-0.1 1.6-0.6 3.4-0.7 1.8-0.1 3.7 0 4.9 0.3 1.2 0.3 2.4 1 2.6 1.2 0.2 0.2 0.3 0.5 0.1 0.8 -0.2 0.3-0.6 0.4-0.8 0.6 -0.2 0.2-0.8 1.1-1.1 1.6 -0.3 0.6-0.6 1-0.9 1.4C54.5 54.3 54.3 54.6 54 54.8z"/><path class="st0" d="M44.1 47c-0.3 0.1-0.7 0.4-0.6 0.9 0 0.5 0.6 0.6 0.9 0.6 0.3-0.1 0.5-0.3 0.5-0.8C44.9 47.1 44.5 46.9 44.1 47z"/><path class="st0" d="M44.3 43.6c0 0 2.3-2.4 4.6-3.1 2.2-0.7 2.3 0.8 2.3 1.4 0 0.6 0 0.8-0.1 0.9 0 0.1 0.1 0.1 0.2 0 0.2-0.1 0.9-1 0.8-2.5 -0.1-1.5-2.6-1-3.8-0.3C47.1 40.8 46 41.7 44.3 43.6z"/><path class="st0" d="M44.4 41.1c0 0 2.6-2.8 5.5-3.9 2.9-1.1 3.9 0.2 3.9 1.6 0 0.9-0.2 1.6-0.2 1.7 0 0.1 0.1 0.1 0.3 0 0.1-0.1 0.7-0.8 1.1-1.8 0.6-1.4-0.2-3.9-3.3-3.2C48.5 36.3 45.2 39.8 44.4 41.1z"/><path class="st0" d="M44.4 38.7c0 0 2.3-2.7 5.6-4.3 3.4-1.6 5.8-1.1 6.7 0.3 0.9 1.4 0.1 3 0.1 3.1 -0.1 0.2 0.2 0.1 0.4-0.1 0.2-0.2 1.1-0.8 1.6-2.8 0.5-1.9-0.6-4.1-4.2-3.5C51 32.1 45.8 36 44.4 38.7z"/><path class="st0" d="M75.6 46.4l-0.5 0.1c0.2-0.4 0.3-0.6 0.3-0.8 0-0.5-0.5-0.8-1.2-0.8 -2 0-3.2 2.4-3.2 6.4 0 4.1 1 5.9 3.2 5.9 0.9 0 1.7-0.2 3-0.8 0 1.1-0.1 1.5-0.3 1.8 -0.5 0.6-2.1 1.1-3.7 1.1 -3.8 0-6-2.8-6-7.7 0-5.4 2.4-8.5 6.6-8.5 1.6 0 2.7 0.3 4.2 1.2C77 45.7 77.2 46 75.6 46.4z"/><path class="st0" d="M84.6 53.6L81.5 55c0.7 1.7 1.6 2.3 2.8 2.3 0.7 0 2.2-0.5 2.3-0.5 0.4 0 0.7 0.3 1.1 1.1 -1.3 0.9-2.6 1.4-4.2 1.4 -3.3 0-5.4-2.5-5.4-6.3 0-3.5 2-5.8 4.9-5.8 1.4 0 2.5 0.4 3.8 2 0.2 0.3 0.3 0.3 0.6 0.5C87 51.9 86.6 52.6 84.6 53.6zM81.1 53.3l1.5-0.8c1.4-0.7 1.8-1.3 1.8-2 0-0.9-0.7-1.5-1.5-1.5 -1.2 0-1.9 1.2-1.9 3.1C81 52.4 81.1 52.7 81.1 53.3z"/><path class="st0" d="M89.8 47.2c0-0.3 0-1.4 0-1.6 0-1.3 0.1-1.4 0.8-1.7 1.2-0.4 1.3-0.4 1.9-0.8v4.1c0 0 0.7 0.3 2.1 0.3 0.7 0 1.3 0 1.9-0.2 0 0-0.1 0.2-0.3 0.5 -0.6 1.4-0.9 1.6-2 1.6 -1 0-1.3-0.2-1.7-0.2v6.6c0 1.1 0.3 1.7 0.9 1.7 0.1 0 0.2 0 0.3-0.1l0.2-0.1c0.1 0 0.2 0 0.2 0 0.3 0 0.5 0.2 0.9 0.8 -1.1 0.9-1.9 1.3-3 1.3 -1.7 0-2.4-0.7-2.4-3.4V49h-0.2c-0.5 0-0.8 0-1.4 0.3C88.3 47.6 88.4 47.3 89.8 47.2z"/><path class="st0" d="M101.5 51.6l0-0.8c-0.1-1.2-1-1.8-2.8-1.8 -0.6 0-1 0-2 0.2 0.2-0.3 0.2-0.4 0.3-0.7 0.3-1 0.6-1.3 2.5-1.3 1.4 0 2.6 0.3 3.4 1 0.9 0.7 1.2 1.6 1.2 3.9v3.6c0 1.4-0.2 1.8 1.2 1.8h0.1c-0.8 1.6-0.5 1.8-1.6 1.8l-0.8 0c-0.5 0-0.9 0-1.5 0.1 0-0.6 0.1-0.8 0.4-1.3l-0.1-0.1c-0.8 0.9-1.7 1.4-3 1.4 -2.1 0-3.5-1.7-3.5-4.1 0-2.5 1.6-4.3 3.8-4.3 1.1 0 1.7 0.3 2.5 1.3L101.5 51.6zM98.1 55.1v0.1c0 1.4 0.6 2.3 1.6 2.3 1 0 1.7-1 1.7-2.5 0-1.4-0.7-2.4-1.6-2.4C98.8 52.7 98.2 53.6 98.1 55.1z"/><path class="st0" d="M112.2 50.7c0.2-0.3 0.3-0.5 0.3-0.7 0-0.6-0.5-1.1-1.3-1.1 -1.3 0-2.2 1.6-2.2 4 0 2.6 1.1 4.4 2.6 4.4 0.3 0 0.7-0.1 1-0.2 0.1 0 1-0.7 1.4-0.7 0.4 0 0.8 0.4 1.1 1.1 -1.5 1.2-2.6 1.9-4.2 1.9 -3 0-5-2.4-5-6 0-3.7 2-6.1 5.1-6.1 1.9 0 3 0.5 4.1 1.6C114.3 50.5 114.1 50.4 112.2 50.7z"/><path class="st0" d="M122.3 53.5l-3.2 1.4c0.7 1.8 1.6 2.4 2.9 2.4 0.7 0 2.2-0.5 2.3-0.5 0.4 0 0.7 0.3 1.1 1.1 -1.3 0.9-2.6 1.4-4.2 1.4 -3.3 0-5.4-2.5-5.4-6.3 0-3.5 2-5.9 5-5.9 1.4 0 2.5 0.4 3.8 2 0.2 0.3 0.3 0.4 0.6 0.5C124.7 51.9 124.3 52.6 122.3 53.5zM118.8 53.3l1.5-0.8c1.4-0.7 1.9-1.3 1.9-2 0-0.9-0.7-1.5-1.6-1.5 -1.2 0-1.9 1.2-1.9 3.2C118.7 52.4 118.7 52.7 118.8 53.3z"/><path class="st0" d="M132.5 51.7l0-0.8c-0.1-1.2-1-1.8-2.8-1.8 -0.6 0-1 0-1.9 0.2 0.2-0.3 0.2-0.4 0.3-0.7 0.3-1 0.6-1.3 2.5-1.3 1.4 0 2.6 0.3 3.4 1 0.9 0.7 1.2 1.6 1.2 3.9v3.6c0 1.4-0.2 1.8 1.2 1.8h0.1c-0.8 1.6-0.5 1.8-1.6 1.8l-0.8 0c-0.5 0-0.9 0-1.5 0.1 0-0.6 0.1-0.8 0.4-1.3l-0.1-0.1c-0.8 0.9-1.7 1.4-3 1.4 -2.1 0-3.5-1.7-3.5-4.1 0-2.5 1.6-4.3 3.8-4.3 1.1 0 1.7 0.3 2.5 1.3L132.5 51.7zM129.2 55.1v0.1c0 1.4 0.6 2.3 1.6 2.3 1 0 1.7-1 1.7-2.5 0-1.4-0.7-2.4-1.6-2.4C129.9 52.8 129.2 53.7 129.2 55.1z"/><path class="st0" d="M145.3 55c-0.2 0.4-0.2 0.6-0.2 0.8 0 1 0.9 1.6 2.3 1.6 1.2 0 2.1-0.8 2.1-1.8 0-0.6-0.3-1.1-1-1.8l-1-0.9c-3.5-3-4.3-4-4.3-5.7 0-2.5 2.1-4.2 5.1-4.2 1.6 0 2.6 0.3 4.5 1.5 -0.8 1.5-1 1.7-2.9 2 0.2-0.3 0.3-0.5 0.3-0.7 0-0.6-0.8-1.1-1.9-1.1 -1.1 0-1.9 0.6-1.9 1.4 0 0.7 0.5 1.3 1.7 2.4l1.3 1.1c2.5 2.1 3.5 3.1 3.4 5.2 0 2.8-2.2 4.4-4.9 4.4 -1.9 0-3.8-0.6-5.6-2C143.7 55 143 55.2 145.3 55z"/><path class="st0" d="M158.9 47c3.1 0 5 2.2 5 6.1 0 3.9-1.8 6.1-5 6.1 -3.2 0-5-2.2-5-6.1C153.9 49.2 155.7 47 158.9 47zM157 53.1c0 2.8 0.6 4.2 1.9 4.2 1.3 0 1.9-1.5 1.9-4.2 0-2.8-0.7-4.2-1.9-4.2C157.6 48.9 157 50.3 157 53.1z"/><path class="st0" d="M166.5 47.2h0.2 1.9c-0.3 0.7-0.5 1.3-0.5 2.6v5.5c0 1.2 0.5 1.8 1.4 1.8 1 0 1.6-0.4 1.6-2.5v-4.5c0-1.6-0.3-1.6-1-1.6 0.5-1.4 0.5-1.5 1.4-1.5h1.1 1.8c-0.3 0.8-0.5 1.4-0.5 2.8v5.6c0 1.5 0.2 1.8 1.2 1.9 -0.4 1.3-0.8 1.6-1.6 1.6 -0.3 0-0.9 0-1.1 0 -0.4 0-0.7 0.1-1.3 0.5v-1.1c-0.7 0.6-1.4 0.9-2.4 0.9 -0.6 0-1.2-0.1-1.8-0.4 -1-0.5-1.5-1-1.5-3.5v-5.2c0-1.1-0.2-1.4-1-1.4C165 47.3 164.5 47.2 166.5 47.2z"/><path class="st0" d="M177.1 47.4c0.1 0 0.4 0 1 0 0.6 0 0.9-0.1 1.6-0.5v1.2c0.9-0.7 1.7-1 2.7-1 1.9 0 3.1 1.2 3.1 3.9v5c0 1.5 0.2 1.6 1 1.6 -0.7 1.3-0.5 1.5-1.4 1.5H184l-1.9 0c0.3-0.8 0.5-1.4 0.5-2.9v-5.7c0-0.8-0.5-1.5-1.4-1.5 -0.5 0-1 0.2-1.3 0.6 -0.3 0.4-0.3 0.5-0.3 1.9v4.7c0 1.2 0.2 1.4 1 1.4 -0.4 0.8-0.6 1.3-0.8 1.4 -0.1 0.1-0.3 0.1-1.3 0.1h-0.4l-1.9 0c0.4-1 0.5-1.6 0.5-3.1v-5.6c0-1.2-0.2-1.5-1.3-1.6C176.3 47.7 176.3 47.4 177.1 47.4z"/><path class="st0" d="M194.2 46c0-1-0.2-1.3-1.1-1.4 0.6-1.2 0.1-1.5 1.9-1.5h0.5l1.9 0c-0.5 1.3-0.4 0.4-0.4 2.6v10c0 1.3 0 2 0.4 3.4 -0.6 0.1-0.9 0.1-1.2 0.1 -1.3 0-1.6-0.2-2-1.1 -0.8 0.9-1.8 1.3-2.9 1.3 -2.7 0-4.4-2.3-4.4-6.1 0-3.8 1.6-5.9 4.4-5.9 1 0 1.8 0.3 2.8 1L194.2 46zM189.9 53.2c0 2.8 0.8 4.3 2.2 4.3 1.5 0 2.2-1.6 2.2-4.6 0-2.6-0.7-3.9-2.2-3.9C190.7 48.9 189.9 50.4 189.9 53.2z"/><path class="st0" d="M58.1 59.4h-0.2v-1.5h-0.4v-0.3h1v0.3h-0.4V59.4zM60.1 59.4h-0.2v-1.6h0l-0.3 1.6h-0.3l-0.3-1.6h0v1.6h-0.2v-1.8h0.4l0.3 1.4h0l0.3-1.4h0.4V59.4z"/></svg>